<svg width="36" height="36" viewBox="0 0 36 36" fill="none" xmlns="http://www.w3.org/2000/svg">
<path d="M26.9137 19.2461L25.2 21.1177V28.8C25.2 29.7941 24.3941 30.6 23.4 30.6H8.99998C8.00587 30.6 7.19998 29.7941 7.19998 28.8V14.4C7.19998 13.4059 8.00587 12.6 8.99998 12.6H17.0772L13.6417 9H8.99998C6.01765 9 3.59998 11.4177 3.59998 14.4V28.8C3.59998 31.7823 6.01765 34.2 8.99998 34.2H23.4C26.3823 34.2 28.8 31.7823 28.8 28.8V19.0308L27.6354 18.9557C27.3633 18.9381 27.0979 19.045 26.9137 19.2461Z" fill="white"/>
<path d="M28.8577 3.81287L28.0544 9.89633C27.9856 10.4178 28.1569 10.9424 28.5204 11.3226L32.3886 15.3695L26.8013 15.0086C26.2765 14.9747 25.7646 15.1806 25.4095 15.5685L21.2655 20.0944L22.0617 14.0051C22.1297 13.4847 21.9586 12.9614 21.5962 12.5818L17.7339 8.53594L23.3151 8.895C23.839 8.9287 24.35 8.72346 24.705 8.33673L28.8577 3.81287Z" fill="white"/>
<path d="M17.8824 17.2626L17.4225 20.7454C17.3591 21.2258 17.517 21.709 17.8518 22.0593L20.0509 24.36L16.8744 24.1548C16.391 24.1235 15.9194 24.3132 15.5923 24.6705L13.2198 27.2617L13.6757 23.7747C13.7384 23.2953 13.5807 22.8133 13.2469 22.4636L11.0509 20.1632L14.2241 20.3673C14.7067 20.3984 15.1774 20.2093 15.5045 19.8531L17.8824 17.2626Z" fill="white"/>
</svg>
