<svg width="17" height="17" viewBox="0 0 17 17" fill="none" xmlns="http://www.w3.org/2000/svg">
<g clip-path="url(#clip0_40_1677)">
<path d="M8.5 0.866699C6.91775 0.866699 5.37104 1.33589 4.05544 2.21494C2.73985 3.09399 1.71447 4.34342 1.10897 5.80523C0.503466 7.26704 0.34504 8.87557 0.653721 10.4274C0.962403 11.9793 1.72433 13.4047 2.84315 14.5236C3.96197 15.6424 5.38743 16.4043 6.93928 16.713C8.49113 17.0217 10.0997 16.8632 11.5615 16.2577C13.0233 15.6522 14.2727 14.6269 15.1518 13.3113C16.0308 11.9957 16.5 10.449 16.5 8.8667C16.5 6.74497 15.6572 4.71014 14.1569 3.20985C12.6566 1.70955 10.6217 0.866699 8.5 0.866699ZM13.12 6.33337L8.55334 12.5267C8.5002 12.5991 8.43298 12.66 8.3557 12.7058C8.27843 12.7516 8.1927 12.7813 8.10366 12.7932C8.01462 12.805 7.92411 12.7987 7.83756 12.7747C7.75101 12.7507 7.67021 12.7094 7.6 12.6534L4.34 10.0467C4.27152 9.99169 4.21458 9.92368 4.17247 9.84659C4.13035 9.7695 4.10389 9.68484 4.09459 9.59749C4.0853 9.51014 4.09336 9.42181 4.11832 9.33758C4.14327 9.25336 4.18463 9.17489 4.24 9.1067C4.35078 8.97227 4.50977 8.88654 4.68296 8.86786C4.85614 8.84917 5.02976 8.899 5.16667 9.0067L7.88667 11.18L12.0467 5.53337C12.1516 5.3928 12.3078 5.29927 12.4813 5.27306C12.6547 5.24685 12.8315 5.29008 12.9733 5.39337C13.0453 5.44494 13.1064 5.51034 13.1528 5.58576C13.1993 5.66117 13.2302 5.74509 13.2439 5.8326C13.2575 5.92011 13.2536 6.00947 13.2323 6.09545C13.2111 6.18143 13.1729 6.26231 13.12 6.33337Z" fill="black"/>
</g>
<defs>
<clipPath id="clip0_40_1677">
<rect width="16" height="16" fill="currentcolor" transform="translate(0.5 0.866699)"/>
</clipPath>
</defs>
</svg>
