<svg width="100" height="96" viewBox="0 0 100 96" fill="none" xmlns="http://www.w3.org/2000/svg">
<path d="M87.7553 93.8368C81.8573 84.0613 64.8165 75.4695 44.8982 75.4695C24.9798 75.4695 7.93897 84.0613 2.04102 93.8368" stroke="#736AA4" stroke-width="3" stroke-linecap="round" stroke-linejoin="round"/>
<path d="M28.0206 46.0206C27.1023 44.49 26.5309 42.6941 26.5309 40.7757C26.5309 37.4287 28.1635 34.4696 30.6533 32.6124C29.3676 30.8981 28.5717 28.7961 28.5717 26.49C28.5717 20.8573 33.1431 16.2859 38.7757 16.2859C44.4084 16.2859 48.9798 20.8573 48.9798 26.49C48.9798 27.2451 48.8778 28.0002 48.7145 28.7145C53.49 29.5512 57.1431 33.7145 57.1431 38.7349C57.1431 41.3471 56.1227 43.7145 54.5104 45.5104C58.4084 46.9389 61.2247 50.6532 61.2247 55.0614C61.2247 60.6941 56.6533 65.2655 51.0206 65.2655H32.6533C27.0206 65.2655 22.4492 60.6941 22.4492 55.0614C22.4492 51.1022 24.7349 47.7145 28.0206 46.0206Z" stroke="#736AA4" stroke-width="3" stroke-linecap="round" stroke-linejoin="round"/>
<path d="M42.8574 34.6531V75.4694" stroke="#736AA4" stroke-width="3" stroke-linecap="round" stroke-linejoin="round"/>
<path d="M34.6934 55.0613L42.8566 59.1429" stroke="#736AA4" stroke-width="3" stroke-linecap="round" stroke-linejoin="round"/>
<path d="M34.6934 40.7756L42.8566 44.8573" stroke="#736AA4" stroke-width="3" stroke-linecap="round" stroke-linejoin="round"/>
<path d="M48.9799 48.9387L42.8574 53.0204" stroke="#736AA4" stroke-width="3" stroke-linecap="round" stroke-linejoin="round"/>
<path d="M21.6941 66.8979C19.6329 68.4285 17.0818 69.3468 14.2859 69.3468C7.53081 69.3468 2.04102 63.9183 2.04102 57.3468C2.04102 50.7754 14.2859 28.5305 14.2859 28.5305C14.2859 28.5305 17.4492 34.2652 20.5512 40.7754" stroke="#736AA4" stroke-width="3" stroke-linecap="round" stroke-linejoin="round"/>
<path d="M14.2861 57.1021V83.6327" stroke="#736AA4" stroke-width="3" stroke-linecap="round" stroke-linejoin="round"/>
<path d="M77.551 30.5714C82.0594 30.5714 85.7142 26.9166 85.7142 22.4081C85.7142 17.8997 82.0594 14.2449 77.551 14.2449C73.0425 14.2449 69.3877 17.8997 69.3877 22.4081C69.3877 26.9166 73.0425 30.5714 77.551 30.5714Z" stroke="#736AA4" stroke-width="3" stroke-linecap="round" stroke-linejoin="round"/>
<path d="M77.5508 2V8.12245" stroke="#736AA4" stroke-width="3" stroke-linecap="round" stroke-linejoin="round"/>
<path d="M63.1221 7.97974L67.4486 12.3063" stroke="#736AA4" stroke-width="3" stroke-linecap="round" stroke-linejoin="round"/>
<path d="M57.1426 22.4082H63.265" stroke="#736AA4" stroke-width="3" stroke-linecap="round" stroke-linejoin="round"/>
<path d="M63.1221 36.8368L67.4486 32.5103" stroke="#736AA4" stroke-width="3" stroke-linecap="round" stroke-linejoin="round"/>
<path d="M77.5508 42.8165V36.6941" stroke="#736AA4" stroke-width="3" stroke-linecap="round" stroke-linejoin="round"/>
<path d="M91.9798 36.8368L87.6533 32.5103" stroke="#736AA4" stroke-width="3" stroke-linecap="round" stroke-linejoin="round"/>
<path d="M97.9594 22.4082H91.8369" stroke="#736AA4" stroke-width="3" stroke-linecap="round" stroke-linejoin="round"/>
<path d="M91.9798 7.97974L87.6533 12.3063" stroke="#736AA4" stroke-width="3" stroke-linecap="round" stroke-linejoin="round"/>
</svg>
