<svg width="102" height="102" viewBox="0 0 102 102" fill="none" xmlns="http://www.w3.org/2000/svg">
<path d="M68.9098 28.4355H57.3638C56.8718 28.4355 56.4766 28.8308 56.4766 29.3227C56.4766 29.8147 56.8718 30.2099 57.3638 30.2099H68.9098C69.4018 30.2099 69.797 29.8147 69.797 29.3227C69.797 28.8308 69.4018 28.4355 68.9098 28.4355Z" fill="#736AA4" stroke="#736AA4" stroke-width="0.5"/>
<path d="M68.9098 36.5969H57.3638C56.8718 36.5969 56.4766 36.9922 56.4766 37.4841C56.4766 37.9761 56.8718 38.3713 57.3638 38.3713H68.9098C69.4018 38.3713 69.797 37.9761 69.797 37.4841C69.797 36.9922 69.4018 36.5969 68.9098 36.5969Z" fill="#736AA4" stroke="#736AA4" stroke-width="0.5"/>
<path d="M68.9098 44.7625H57.3638C56.8718 44.7625 56.4766 45.1577 56.4766 45.6496C56.4766 46.1416 56.8718 46.5368 57.3638 46.5368H68.9098C69.4018 46.5368 69.797 46.1416 69.797 45.6496C69.797 45.1577 69.4018 44.7625 68.9098 44.7625Z" fill="#736AA4" stroke="#736AA4" stroke-width="0.5"/>
<path d="M68.9098 52.9236H57.3638C56.8718 52.9236 56.4766 53.3188 56.4766 53.8108C56.4766 54.3027 56.8718 54.698 57.3638 54.698H68.9098C69.4018 54.698 69.797 54.3027 69.797 53.8108C69.797 53.3188 69.4018 52.9236 68.9098 52.9236Z" fill="#736AA4" stroke="#736AA4" stroke-width="0.5"/>
<path d="M68.9098 61.0891H57.3638C56.8718 61.0891 56.4766 61.4844 56.4766 61.9763C56.4766 62.4682 56.8718 62.8635 57.3638 62.8635H68.9098C69.4018 62.8635 69.797 62.4682 69.797 61.9763C69.797 61.4844 69.4018 61.0891 68.9098 61.0891Z" fill="#736AA4" stroke="#736AA4" stroke-width="0.5"/>
<path d="M68.9098 69.2546H57.3638C56.8718 69.2546 56.4766 69.6499 56.4766 70.1418C56.4766 70.6338 56.8718 71.029 57.3638 71.029H68.9098C69.4018 71.029 69.797 70.6338 69.797 70.1418C69.797 69.6499 69.4018 69.2546 68.9098 69.2546Z" fill="#736AA4" stroke="#736AA4" stroke-width="0.5"/>
<path d="M68.9098 77.416H57.3638C56.8718 77.416 56.4766 77.8113 56.4766 78.3032C56.4766 78.7952 56.8718 79.1904 57.3638 79.1904H68.9098C69.4018 79.1904 69.797 78.7952 69.797 78.3032C69.797 77.8113 69.4018 77.416 68.9098 77.416Z" fill="#736AA4" stroke="#736AA4" stroke-width="0.5"/>
<path d="M101 72.0802C101 68.3759 98.3889 65.2265 94.8233 64.4907C94.1253 60.8747 90.9676 58.2257 87.217 58.2257C83.4665 58.2257 80.3172 60.8663 79.6108 64.4739C79.4005 64.516 79.2071 64.5916 79.0053 64.6463V20.9849C79.0053 20.4929 78.6101 20.0977 78.1181 20.0977H69.8012V13.3239C69.8012 12.832 69.406 12.4367 68.9141 12.4367H65.0962V7.6434C65.0962 7.15145 64.701 6.75621 64.209 6.75621H61.1564V1.88719C61.1564 1.39524 60.7612 1 60.2692 1C59.7773 1 59.382 1.39524 59.382 1.88719V6.75621H56.3252C55.8333 6.75621 55.438 7.15145 55.438 7.6434V12.4367H51.6244C51.1324 12.4367 50.7372 12.832 50.7372 13.3239V20.0977H42.4203C41.9284 20.0977 41.5332 20.4929 41.5332 20.9849V29.5036L16.7213 36.189C16.3345 36.2941 16.0654 36.6431 16.0654 37.0425V58.293H1.88719C1.39524 58.293 1 58.6883 1 59.1802V100.109C1 100.601 1.39524 100.996 1.88719 100.996H27.5021C27.5021 100.996 27.5189 100.987 27.5274 100.983H45.5612C45.5612 100.983 45.5781 100.996 45.5865 100.996H81.1118C81.4188 100.996 81.7005 100.84 81.8603 100.584C82.2976 99.89 82.5162 99.1373 82.5162 98.3342C82.5162 96.2151 80.9983 94.4617 78.9969 94.0581V87.2086C79.1104 87.2423 79.2197 87.2927 79.3333 87.318C79.5897 88.8274 80.5358 90.1183 81.957 90.8583C82.7853 91.2914 83.6893 91.5058 84.5849 91.5058C85.1652 91.5058 85.7328 91.3839 86.2878 91.2073L86.2794 100.062C86.2794 100.55 86.6746 100.95 87.1666 100.95C87.6543 100.95 88.0538 100.554 88.0538 100.062L88.0622 91.1484C89.5212 91.5899 90.9802 91.5016 92.2038 90.8078C93.4484 90.1015 94.2725 88.8905 94.529 87.4189C98.2081 86.7966 100.992 83.58 100.992 79.7832C100.992 78.4208 100.638 77.1006 99.9656 75.9317C100.638 74.7586 100.992 73.4425 100.992 72.0802H101ZM57.2124 8.53059H63.3218V12.4367H57.2124V8.53059ZM52.5116 14.2111H68.0269V20.0977H52.5116V14.2111ZM17.8356 37.7279L44.7077 30.4832V40.5535H34.9823C34.4903 40.5535 34.0951 40.9487 34.0951 41.4407V47.5795C34.0951 48.0714 34.4903 48.4667 34.9823 48.4667H44.7077V51.9313H34.9823C34.4903 51.9313 34.0951 52.3266 34.0951 52.8185V58.9574C34.0951 59.4493 34.4903 59.8446 34.9823 59.8446H44.7077V63.3092H34.9823C34.4903 63.3092 34.0951 63.7045 34.0951 64.1964V70.3352C34.0951 70.8272 34.4903 71.2224 34.9823 71.2224H44.7077V74.7123H34.9823C34.4903 74.7123 34.0951 75.1076 34.0951 75.5995V81.7131C34.0951 82.2051 34.4903 82.6003 34.9823 82.6003H44.7077V86.0902H34.9823C34.4903 86.0902 34.0951 86.4854 34.0951 86.9774V93.1162C34.0951 93.6082 34.4903 94.0034 34.9823 94.0034H44.7077V99.213H28.3893V59.1844C28.3893 58.6925 27.9941 58.2972 27.5021 58.2972H17.8356V37.7279ZM45.5949 46.6923H35.8694V42.3278H48.967V46.6923H45.5991H45.5949ZM45.5949 58.0744H35.8694V53.7099H48.967V58.0744H45.5991H45.5949ZM45.5949 69.4523H35.8694V65.0878H48.967V69.4523H45.5991H45.5949ZM45.5949 80.8301H35.8694V76.4909H48.967V80.8301H45.5991H45.5949ZM45.5949 92.2332H35.8694V87.8688H48.967V92.2332H45.5991H45.5949ZM2.77438 76.4404H26.6149V82.8526H2.77438V76.4404ZM26.6149 74.6661H2.77438V68.2539H26.6149V74.6661ZM2.77438 84.627H26.6149V91.0391H2.77438V84.627ZM2.77438 60.0716H26.6149V66.4837H2.77438V60.0716ZM2.77438 92.8135H26.6149V99.2256H2.77438V92.8135ZM80.746 98.3384C80.746 98.6454 80.6872 98.9439 80.5736 99.2256H49.644C50.1948 97.3251 52.4023 96.1688 54.4037 97.1191C54.6349 97.2284 54.9083 97.2326 55.1437 97.1275C55.3792 97.0224 55.56 96.8163 55.6315 96.5641C56.1402 94.8275 57.9693 93.7175 59.7016 94.2473C59.9581 94.323 60.2398 94.2851 60.4626 94.1338C60.6855 93.9824 60.8284 93.7385 60.8495 93.4694C61.0345 91.0433 62.9897 89.2101 65.3947 89.2101C67.4845 89.2101 69.3093 90.6397 69.8265 92.6873C69.8937 92.9606 70.0914 93.1835 70.3521 93.2886C70.6127 93.4021 70.9113 93.3727 71.1467 93.2255C73.3416 91.8969 76.1503 92.9438 77.0964 95.2354C77.2814 95.6895 77.9415 95.824 78.2527 95.7315C79.636 95.7946 80.7418 96.9341 80.7418 98.3342L80.746 98.3384ZM77.2267 92.4308C75.6163 90.9844 73.2659 90.4294 71.2014 91.2325C70.1965 88.9536 67.9428 87.4357 65.3989 87.4357C62.3884 87.4357 59.8866 89.496 59.2307 92.3594C57.1494 92.2248 55.1942 93.3517 54.2775 95.1849C53.8234 95.0588 53.3651 94.9915 52.8984 94.9915C50.363 94.9915 48.2901 96.7953 47.8318 99.2214H46.4779V94.0034H49.8458C50.3378 94.0034 50.733 93.6082 50.733 93.1162V86.9774C50.733 86.4854 50.3378 86.0902 49.8458 86.0902H46.4779V82.6003H49.8458C50.3378 82.6003 50.733 82.2051 50.733 81.7131V75.5995C50.733 75.1076 50.3378 74.7123 49.8458 74.7123H46.4779V71.2224H49.8458C50.3378 71.2224 50.733 70.8272 50.733 70.3352V64.1964C50.733 63.7045 50.3378 63.3092 49.8458 63.3092H46.4779V59.8446H49.8458C50.3378 59.8446 50.733 59.4493 50.733 58.9574V52.8185C50.733 52.3266 50.3378 51.9313 49.8458 51.9313H46.4779V48.4667H49.8458C50.3378 48.4667 50.733 48.0714 50.733 47.5795V41.4407C50.733 40.9487 50.3378 40.5535 49.8458 40.5535H46.4779V29.327C46.4779 29.0494 46.3475 28.793 46.1289 28.6248C45.9102 28.4566 45.6243 28.4019 45.3594 28.4734L43.2991 29.0284V21.8763H77.2225V65.3821C74.8973 66.7276 73.3584 69.2294 73.3584 72.0844C73.3584 73.4467 73.7116 74.767 74.3843 75.9359C73.7116 77.1048 73.3584 78.425 73.3584 79.7874C73.3584 82.6003 74.9057 85.1021 77.2225 86.4602V92.4308H77.2267ZM98.1955 76.432C98.8682 77.4243 99.2256 78.5806 99.2256 79.7874C99.2256 82.9072 96.7869 85.5226 93.6712 85.7412C93.2213 85.7748 92.8681 86.1364 92.8471 86.5905C92.7967 87.7805 92.2458 88.756 91.3376 89.2731C90.4168 89.7945 89.2479 89.7777 88.0748 89.2773V83.8996L92.8976 79.0852C93.2424 78.7404 93.2424 78.1812 92.8976 77.8322C92.5528 77.4832 91.9894 77.4874 91.6446 77.8322L88.0874 81.3894V77.0459L90.7952 74.3423C91.14 73.9975 91.14 73.4383 90.7952 73.0893C90.4504 72.7403 89.887 72.7445 89.5422 73.0893L88.0958 74.5357V70.3731C88.0958 69.8853 87.7048 69.4859 87.2128 69.4859C86.7251 69.4859 86.3256 69.8811 86.3256 70.3731L86.3172 77.6724L84.299 75.6542C83.9542 75.3094 83.3908 75.3094 83.046 75.6542C82.7012 75.9989 82.7012 76.5582 83.046 76.9072L86.3172 80.1784L86.3088 89.3068C85.224 89.8534 83.8953 89.8786 82.7937 89.2984C81.7173 88.7349 81.0824 87.7384 81.053 86.5611C81.0446 86.128 80.7208 85.7664 80.2877 85.7034C77.3571 85.2955 75.1454 82.7559 75.1454 79.7916C75.1454 78.589 75.5028 77.4285 76.1755 76.4362C76.3774 76.1335 76.3774 75.7425 76.1755 75.4397C75.5028 74.4474 75.1454 73.2869 75.1454 72.0844C75.1454 69.015 77.4412 66.4585 80.4895 66.139C80.9058 66.0969 81.2338 65.7647 81.28 65.3485C81.5996 62.3001 84.156 60.0043 87.2255 60.0043C90.2949 60.0043 92.8513 62.3085 93.1709 65.3569C93.2129 65.7732 93.5367 66.1011 93.9529 66.1474C96.9677 66.4922 99.2382 69.0444 99.2382 72.0802C99.2382 73.2827 98.8808 74.439 98.2081 75.4355C98.0063 75.7383 98.0063 76.1293 98.2081 76.432H98.1955Z" fill="#736AA4" stroke="#736AA4" stroke-width="0.5"/>
</svg>
