<svg width="102" height="91" viewBox="0 0 102 91" fill="none" xmlns="http://www.w3.org/2000/svg">
<path d="M84.1288 17.9299C89.3049 18.8964 98.5188 21.6885 100.001 32.2985C96.1133 28.7547 86.9853 26.1344 80.542 28.2822" stroke="#736AA4" stroke-width="3" stroke-linejoin="round"/>
<path d="M72.0369 21.6889C77.0842 12.7757 84.9235 6.33237 92.2259 4.24904C86.9854 -0.304232 75.4519 2.359 68.2998 9.51107" stroke="#736AA4" stroke-width="3" stroke-linejoin="round"/>
<path d="M64.8196 32.6855C61.3187 40.3531 59.8153 49.1804 59.8153 58.1151C54.6177 53.2397 51.4175 47.5911 52.0833 40.7397" stroke="#736AA4" stroke-width="3" stroke-linejoin="round"/>
<path d="M93.4279 90.5678C96.6495 58.3512 86.5765 37.9474 65.6357 25.1252" stroke="#736AA4" stroke-width="3" stroke-linejoin="round"/>
<path d="M69.8018 38.5488C76.4598 46.7533 85.91 58.3513 78.3928 90.5678" stroke="#736AA4" stroke-width="3" stroke-linejoin="round"/>
<path d="M56.9804 20.7653C45.0603 20.4002 33.7631 32.2559 36.6411 43.682C42.0534 37.4105 51.4392 30.6021 58.5483 29.6141" stroke="#736AA4" stroke-width="3" stroke-linejoin="round"/>
<path d="M64.819 19.09C62.7141 4.20592 47.2502 2.76691 38.5088 10.3485C44.9521 11.7016 49.9134 13.9138 51.2665 16.3408" stroke="#736AA4" stroke-width="3" stroke-linejoin="round"/>
<path d="M0 69.0901C3.58677 69.0901 7.15207 73.3856 10.7388 73.3856C14.3256 73.3856 17.8909 69.0901 21.4777 69.0901C25.0645 69.0901 28.6298 73.3856 32.2165 73.3856C35.8033 73.3856 39.3686 69.0901 42.9554 69.0901C46.5422 69.0901 50.1075 73.3856 53.6942 73.3856C57.281 73.3856 60.8463 69.0901 64.4331 69.0901C68.0198 69.0901 71.5851 73.3856 75.1719 73.3856" stroke="#736AA4" stroke-width="3" stroke-miterlimit="10"/>
<path d="M0 81.9766C3.58677 81.9766 7.15207 86.2721 10.7388 86.2721C14.3256 86.2721 17.8909 81.9766 21.4777 81.9766C25.0645 81.9766 28.6298 86.2721 32.2165 86.2721C35.8033 86.2721 39.3686 81.9766 42.9554 81.9766C46.5422 81.9766 50.1075 86.2721 53.6942 86.2721C57.281 86.2721 60.8463 81.9766 64.4331 81.9766C68.0198 81.9766 71.5851 86.2721 75.1719 86.2721" stroke="#736AA4" stroke-width="3" stroke-miterlimit="10"/>
<path d="M15.0347 30.4301C20.9656 30.4301 25.7736 25.6221 25.7736 19.6912C25.7736 13.7603 20.9656 8.95239 15.0347 8.95239C9.10384 8.95239 4.2959 13.7603 4.2959 19.6912C4.2959 25.6221 9.10384 30.4301 15.0347 30.4301Z" stroke="#736AA4" stroke-width="3" stroke-miterlimit="10"/>
</svg>
