<svg width="63" height="100" viewBox="0 0 63 100" fill="none" xmlns="http://www.w3.org/2000/svg">
 <path d="M44.5745 97.7446V70.085L33.4043 55.8935L35.4469 46.0637" stroke="currentColor" stroke-width="3" stroke-linecap="round" stroke-linejoin="round"/>
 <path d="M15.043 97.7446L24.1281 82.3829L27.0642 68.0637" stroke="currentColor" stroke-width="3" stroke-linecap="round" stroke-linejoin="round"/>
 <path d="M16.9362 56.7874L15.9149 77.4895L5.4043 97.7448" stroke="currentColor" stroke-width="3" stroke-linecap="round" stroke-linejoin="round"/>
 <path d="M31.8085 19.0213C36.5088 19.0213 40.3191 15.2109 40.3191 10.5106C40.3191 5.81034 36.5088 2 31.8085 2C27.1082 2 23.2979 5.81034 23.2979 10.5106C23.2979 15.2109 27.1082 19.0213 31.8085 19.0213Z" stroke="currentColor" stroke-width="3" stroke-linecap="round" stroke-linejoin="round"/>
 <path d="M29.6806 38.1703L40.3189 50.9362C40.3189 50.9362 50.404 50.8511 53.2551 50.8511C56.1061 50.8511 60.787 47.0852 61.4465 43.4894C58.8295 43.4894 44.5529 42.4256 44.5529 42.4256C44.5529 42.4256 37.9997 32.2554 35.021 28.1915C32.2125 24.3405 22.8295 23.6171 21.8083 29.6596L17.0636 54.6596C16.0848 61.0426 19.9997 62.6171 23.638 65.2128L36.0423 74.3405V97.7447" stroke="currentColor" stroke-width="3" stroke-linecap="round" stroke-linejoin="round"/>
 <path d="M56.2336 49.9148L50.957 97.7446" stroke="currentColor" stroke-width="3" stroke-linecap="round" stroke-linejoin="round"/>
 <path d="M59.0639 28.5957L57.1064 43.2978" stroke="currentColor" stroke-width="3" stroke-linecap="round" stroke-linejoin="round"/>
 <path d="M23.7016 26.2553C21.3612 18.8085 16.0846 16.7659 12.1059 17.8936C8.14844 19.0212 5.42503 22.4042 6.55269 26.9999C2.3612 32.5531 2.14844 53.8297 2.14844 53.8297C2.14844 53.8297 9.48886 58.3829 16.9782 56.0638" stroke="currentColor" stroke-width="3" stroke-linecap="round" stroke-linejoin="round"/>
 <path d="M6.74414 27.1914C8.25478 29.702 12.6165 30.8084 14.7229 28.5957" stroke="currentColor" stroke-width="3" stroke-linecap="round" stroke-linejoin="round"/>
</svg>