<svg width="102" height="76" viewBox="0 0 102 76" fill="none" xmlns="http://www.w3.org/2000/svg">
<path d="M100.108 48.0495C100.6 48.0495 100.996 47.6543 100.996 47.1623V32.467C100.996 31.975 100.6 31.5798 100.108 31.5798H90.9295L88.453 26.2692C88.2469 25.8278 87.7129 25.6385 87.2799 25.8404C84.6015 27.0765 81.3975 25.8866 80.1361 23.1956C79.5264 21.8669 79.4718 20.3827 79.9805 19.0162C80.4767 17.6749 81.4606 16.6111 82.7472 16.0266C82.9616 15.9299 83.1298 15.7449 83.2097 15.5263C83.2938 15.3034 83.2812 15.0596 83.1845 14.8451L76.97 1.51207C76.7597 1.06637 76.2299 0.877162 75.7927 1.08319L58.6418 9.04266H58.6333C58.6333 9.04266 58.6333 9.04686 58.6249 9.05107L1.51271 35.549C1.06702 35.755 0.877806 36.2806 1.07963 36.7263L7.26472 50.0636C7.47075 50.505 8.00054 50.6985 8.43783 50.4966C11.1288 49.2563 14.337 50.4462 15.5858 53.1498C16.8472 55.8366 15.6783 59.0532 12.9873 60.3188C12.5458 60.5248 12.3524 61.0504 12.5584 61.4919L18.7435 74.8291C18.7645 74.8796 18.8276 74.8922 18.8612 74.9343C18.9285 75.031 19.0042 75.094 19.1009 75.1571C19.1556 75.1949 19.1808 75.2664 19.2439 75.2874C19.3406 75.3211 19.4457 75.3421 19.5466 75.3421H100.108C100.6 75.3421 100.996 74.9469 100.996 74.4549V59.7596C100.996 59.2676 100.6 58.8724 100.108 58.8724C97.144 58.8724 94.7306 56.4463 94.7306 53.4651C94.7306 50.484 97.144 48.0579 100.108 48.0579V48.0495ZM17.192 52.3972C15.6657 49.0797 11.9067 47.4777 8.52613 48.5625L3.06424 36.781L58.5745 11.0273L60.0209 14.1387C60.1681 14.4625 60.4918 14.6517 60.824 14.6517C60.9501 14.6517 61.0763 14.6265 61.1982 14.5676C61.6439 14.3616 61.8331 13.836 61.6313 13.3903L60.1849 10.2746L75.738 3.0636L81.2209 14.8367C79.888 15.6608 78.8747 16.897 78.3155 18.3981C77.6427 20.2145 77.7142 22.1823 78.5257 23.9441C80.073 27.2447 83.8152 28.8509 87.1916 27.7703L92.6745 39.5266L77.1003 46.7545L75.6581 43.6472C75.4521 43.2057 74.9181 43.0123 74.4808 43.2141C74.0351 43.4202 73.8459 43.9457 74.0477 44.3914L75.4899 47.5029L19.9797 73.2692L14.5178 61.4877C17.5326 59.5914 18.7393 55.6894 17.192 52.393V52.3972ZM92.9562 53.4609C92.9562 57.119 95.6934 60.1464 99.2212 60.5879V73.5635H23.5663L77.0036 48.7601C77.0036 48.7601 77.033 48.7601 77.0499 48.7517C77.0583 48.7517 77.0583 48.7349 77.0667 48.7307L94.2302 40.7628C94.4446 40.6661 94.6086 40.4811 94.6927 40.2624C94.7726 40.0396 94.76 39.7957 94.6633 39.5813L91.7578 33.3583H99.2212V46.334C95.6934 46.7755 92.9562 49.8029 92.9562 53.4609V53.4609Z" fill="#736AA4" stroke="#736AA4"/>
<path d="M63.9862 22.6825C64.1334 23.0062 64.4571 23.1954 64.7893 23.1954C64.9154 23.1954 65.0416 23.1702 65.1635 23.1113C65.6092 22.9053 65.7984 22.3797 65.5966 21.934L63.776 18.0111C63.5699 17.5696 63.0359 17.3762 62.5987 17.578C62.153 17.784 61.9637 18.3096 62.1656 18.7553L63.9862 22.6783V22.6825Z" fill="#736AA4" stroke="#736AA4"/>
<path d="M67.9471 31.2266C68.0943 31.5504 68.4181 31.7396 68.7502 31.7396C68.8764 31.7396 69.0025 31.7143 69.1244 31.6555C69.5701 31.4494 69.7594 30.9239 69.5575 30.4782L67.7369 26.5552C67.5309 26.1095 66.9969 25.9203 66.5596 26.1221C66.1139 26.3281 65.9247 26.8537 66.1265 27.2994L67.9471 31.2224V31.2266Z" fill="#736AA4" stroke="#736AA4"/>
<path d="M71.912 39.7705C72.0591 40.0943 72.3829 40.2835 72.7151 40.2835C72.8412 40.2835 72.9673 40.2583 73.0893 40.1994C73.535 39.9934 73.7242 39.4678 73.5224 39.0221L71.7017 35.0991C71.4957 34.6534 70.9617 34.4642 70.5244 34.6661C70.0787 34.8721 69.8895 35.3977 70.0913 35.8434L71.912 39.7663V39.7705Z" fill="#736AA4" stroke="#736AA4"/>
<path d="M27.3887 45.0726L36.9922 46.9605L38.1654 56.6734C38.2116 57.056 38.4975 57.3629 38.8759 57.4386C38.9306 57.4512 38.9895 57.4554 39.0483 57.4554C39.3637 57.4554 39.6622 57.283 39.822 57.0013L44.5817 48.449L54.181 50.3369C54.5552 50.4084 54.9378 50.2318 55.127 49.8954C55.312 49.559 55.2616 49.1428 55.0009 48.8611L48.3407 41.6921L53.1004 33.1397C53.2854 32.8034 53.2349 32.3871 52.9742 32.1054C52.7094 31.8195 52.2973 31.7396 51.9525 31.9036L43.0764 36.0199L36.4162 28.851C36.1513 28.565 35.7435 28.4852 35.3945 28.6491C35.0455 28.8131 34.8394 29.1789 34.8899 29.5616L36.063 39.2744L27.1869 43.3908C26.8379 43.5547 26.6319 43.9205 26.6824 44.3032C26.7286 44.6858 27.0145 44.9927 27.393 45.0684L27.3887 45.0726ZM37.3959 40.6157C37.7449 40.4517 37.9509 40.0859 37.9005 39.7033L36.9754 32.0591L42.2145 37.7018C42.4752 37.9877 42.8872 38.0634 43.2362 37.9036L50.2244 34.6618L46.478 41.3893C46.293 41.7257 46.3435 42.142 46.6042 42.4237L51.8432 48.0664L44.2874 46.5821C43.9132 46.5064 43.5263 46.6872 43.3413 47.0236L39.5949 53.7511L38.6699 46.107C38.6237 45.7244 38.3377 45.4174 37.9593 45.3417L30.4035 43.8575L37.3917 40.6157H37.3959Z" fill="#736AA4" stroke="#736AA4"/>
</svg>
