<svg width="91" height="100" viewBox="0 0 91 100" fill="none" xmlns="http://www.w3.org/2000/svg">
<path d="M21.7393 97.6522V15.0435H69.5653V97.6522" stroke="#736AA4" stroke-width="3" stroke-linecap="round" stroke-linejoin="round"/>
<path d="M28.2607 15.0435V2H63.0434V15.0435" stroke="#736AA4" stroke-width="3" stroke-linecap="round" stroke-linejoin="round"/>
<path d="M39.1309 97.6523V86.7827H52.1743V97.6523" stroke="#736AA4" stroke-width="3" stroke-linecap="round" stroke-linejoin="round"/>
<path d="M32.6084 56.3479V49.8262H41.3041V56.3479" stroke="#736AA4" stroke-width="3" stroke-linecap="round" stroke-linejoin="round"/>
<path d="M32.6084 73.7393V67.2175H41.3041V73.7393" stroke="#736AA4" stroke-width="3" stroke-linecap="round" stroke-linejoin="round"/>
<path d="M50 56.3479V49.8262H58.6957V56.3479" stroke="#736AA4" stroke-width="3" stroke-linecap="round" stroke-linejoin="round"/>
<path d="M32.6084 38.9566V32.4348H41.3041V38.9566" stroke="#736AA4" stroke-width="3" stroke-linecap="round" stroke-linejoin="round"/>
<path d="M50 38.9566V32.4348H58.6957V38.9566" stroke="#736AA4" stroke-width="3" stroke-linecap="round" stroke-linejoin="round"/>
<path d="M50 73.7393V67.2175H58.6957V73.7393" stroke="#736AA4" stroke-width="3" stroke-linecap="round" stroke-linejoin="round"/>
<path d="M76.0869 62.8696H82.6087" stroke="#736AA4" stroke-width="3" stroke-linecap="round" stroke-linejoin="round"/>
<path d="M76.0869 71.5654H82.6087" stroke="#736AA4" stroke-width="3" stroke-linecap="round" stroke-linejoin="round"/>
<path d="M76.0869 80.261H82.6087" stroke="#736AA4" stroke-width="3" stroke-linecap="round" stroke-linejoin="round"/>
<path d="M76.0869 88.9565H82.6087" stroke="#736AA4" stroke-width="3" stroke-linecap="round" stroke-linejoin="round"/>
<path d="M89.1306 97.6521V54.1738H69.5654" stroke="#736AA4" stroke-width="3" stroke-linecap="round" stroke-linejoin="round"/>
<path d="M82.6089 54.174V43.3044H69.5654" stroke="#736AA4" stroke-width="3" stroke-linecap="round" stroke-linejoin="round"/>
<path d="M15.2171 62.8696H8.69531" stroke="#736AA4" stroke-width="3" stroke-linecap="round" stroke-linejoin="round"/>
<path d="M15.2171 71.5654H8.69531" stroke="#736AA4" stroke-width="3" stroke-linecap="round" stroke-linejoin="round"/>
<path d="M15.2171 80.261H8.69531" stroke="#736AA4" stroke-width="3" stroke-linecap="round" stroke-linejoin="round"/>
<path d="M15.2171 88.9565H8.69531" stroke="#736AA4" stroke-width="3" stroke-linecap="round" stroke-linejoin="round"/>
<path d="M2.17383 97.6521V54.1738H21.739" stroke="#736AA4" stroke-width="3" stroke-linecap="round" stroke-linejoin="round"/>
<path d="M8.69531 54.174V43.3044H21.7388" stroke="#736AA4" stroke-width="3" stroke-linecap="round" stroke-linejoin="round"/>
</svg>
