<svg viewBox="0 0 36 36" fill="currentcolor" xmlns="http://www.w3.org/2000/svg">
  <path d="M5 25.1111V10.8889C5 10.8889 5 10.7778 5 10.6667C5.325 9.22222 6.625 8 8.25 8C14.75 8 21.25 8 27.75 8C29.2667 8 30.4583 9.11111 30.8917 10.5556C30.8917 10.6667 31 10.7778 31 10.8889V25V25.1111C30.7833 26.4444 29.8083 27.5556 28.5083 27.7778C27.8583 28 27.2083 28 26.5583 28C20.4917 28 14.3167 28 8.25 28C6.73333 28 5.54167 27 5.10833 25.5556C5.10833 25.4444 5 25.2222 5 25.1111ZM13.8833 17.7778C13.45 18.2222 13.0167 18.5556 12.6917 19L8.575 23.2222C8.25 23.4444 8.14167 23.7778 8.25 24.1111C8.46667 24.7778 9.11667 24.8889 9.65833 24.4444C11.3917 22.6667 13.125 20.8889 14.8583 19.1111C14.9667 19 14.9667 19 15.075 18.8889C15.1833 19 15.2917 19.1111 15.2917 19.1111L17.35 21C17.7833 21.3333 18.1083 21.3333 18.5417 21C19.3 20.3333 19.95 19.6667 20.7083 19C20.8167 18.8889 20.8167 18.8889 20.925 18.7778C21.575 19.4444 22.225 20.1111 22.875 20.7778L26.3417 24.3333C26.5583 24.5556 26.8833 24.6667 27.2083 24.5556C27.8583 24.3333 27.9667 23.6667 27.5333 23.1111C26.3417 21.8889 25.2583 20.7778 24.0667 19.5556C23.4167 18.8889 22.875 18.3333 22.225 17.6667C22.225 17.6667 22.3333 17.5556 22.3333 17.5556L24.825 15.2222L27.425 12.7778C27.75 12.5556 27.8583 12.3333 27.75 12C27.6417 11.6667 27.425 11.4444 27.2083 11.4444C26.8833 11.3333 26.6667 11.4444 26.3417 11.6667C23.6333 14.2222 20.925 16.6667 18.2167 19.2222C18.1083 19.3333 18.1083 19.3333 18 19.4444L14.1 15.7778C12.5833 14.3333 11.175 13 9.65833 11.5556C9.44167 11.3333 9.11667 11.2222 8.79167 11.3333C8.575 11.4444 8.35833 11.6667 8.25 12C8.14167 12.3333 8.25 12.5556 8.575 12.7778C9.65833 13.7778 10.7417 14.7778 11.7167 15.7778L13.8833 17.7778Z"/>
</svg>
