<svg width="24" height="25" viewBox="0 0 24 25" fill="none" xmlns="http://www.w3.org/2000/svg">
<g clip-path="url(#clip0_2771_20936)">
<g clip-path="url(#clip1_2771_20936)">
<path d="M22.986 5.57639C22.5304 4.68523 21.8718 3.91359 21.0632 3.32371C20.2547 2.73383 19.3188 2.34221 18.3311 2.18043C17.3434 2.01865 16.3315 2.09124 15.377 2.39234C14.4225 2.69345 13.5521 3.21464 12.836 3.91389L11.9999 4.67223L11.193 3.93334C10.4763 3.22301 9.60066 2.69374 8.63861 2.3894C7.67656 2.08506 6.65583 2.01442 5.66103 2.18334C4.67182 2.33691 3.73376 2.72507 2.92526 3.31537C2.11677 3.90567 1.46135 4.68095 1.0138 5.57639C0.411589 6.75292 0.200931 8.09106 0.412543 9.39571C0.624155 10.7004 1.24697 11.9033 2.19019 12.8292L11.2999 22.2208C11.3906 22.3149 11.4993 22.3898 11.6196 22.4409C11.7399 22.492 11.8692 22.5184 11.9999 22.5184C12.1306 22.5184 12.2599 22.492 12.3802 22.4409C12.5005 22.3898 12.6092 22.3149 12.6999 22.2208L21.7999 12.8486C22.7464 11.9208 23.3718 10.715 23.5852 9.40695C23.7985 8.09888 23.5886 6.75685 22.986 5.57639Z" fill="#D00000"/>
</g>
</g>
<defs>
<clipPath id="clip0_2771_20936">
<rect width="24" height="24" fill="white" transform="translate(0 0.471191)"/>
</clipPath>
<clipPath id="clip1_2771_20936">
<rect width="23.3333" height="23.3333" fill="white" transform="translate(0.333252 0.637695)"/>
</clipPath>
</defs>
</svg>
