<svg viewBox="0 0 236 45" fill="currentcolor" xmlns="http://www.w3.org/2000/svg">
  <path d="M28.6027 15.1686C25.7727 15.8765 22.5384 13.045 21.5277 8.89895C20.517 4.75288 21.932 0.809057 24.8631 0.101192C27.693 -0.606673 30.9273 2.22479 31.938 6.37086C32.9487 10.5169 31.5337 14.4607 28.6027 15.1686Z"/>
  <path d="M35.677 24.5731C33.3524 24.3708 31.7353 21.3371 32.0385 17.8989C32.4428 14.4607 34.5652 11.9326 36.9909 12.1349C39.3156 12.3371 40.9327 15.3708 40.6295 18.809C40.2252 22.2472 38.0016 24.7753 35.677 24.5731Z"/>
  <path d="M16.2719 17.191C17.3837 16.0786 18.7987 15.573 20.2137 15.573H20.3148C21.7297 15.573 23.2458 16.1797 24.2565 17.191L37.1936 30.1348C38.0021 30.9438 38.3053 32.0561 38.0021 33.0674L35.8796 41.764C35.5764 43.1797 34.2625 44.191 32.8475 44.191H26.6822C25.0651 44.191 23.8522 42.8764 23.8522 41.3595V35.7977C23.8522 33.7752 22.2351 32.1573 20.2137 32.1573C18.1923 32.1573 16.5751 33.7752 16.5751 35.7977V41.3595C16.5751 42.9775 15.2612 44.191 13.7452 44.191H7.68092C6.26593 44.191 4.95202 43.1797 4.6488 41.764L2.52632 33.0674C2.32418 32.0561 2.62739 30.9438 3.33489 30.1348L16.2719 17.191Z"/>
  <path d="M12.0271 15.1686C9.09606 14.4607 7.68108 10.5169 8.69178 6.37086C9.70249 2.22479 12.9367 -0.606673 15.7667 0.101192C18.5967 0.809057 20.1128 4.75288 19.1021 8.89895C17.9903 13.045 14.8571 15.8765 12.0271 15.1686Z"/>
  <path d="M3.63796 12.1349C5.96259 11.9326 8.18614 14.4607 8.59042 17.8989C8.99471 21.3371 7.37758 24.2697 4.95188 24.5731C2.62725 24.7753 0.4037 22.2472 -0.000582404 18.809C-0.303794 15.3708 1.31334 12.4382 3.63796 12.1349Z"/>
  <path d="M51.748 40.0449H55.4877V17.3932H51.748V13.0449H66.8076C68.7279 13.0449 70.5472 13.146 72.1643 13.8539C75.6007 15.2696 77.8243 18.7078 77.8243 23.1573C77.8243 27.6067 75.4996 31.4494 71.8611 32.764C70.4461 33.2696 68.829 33.3708 67.0097 33.3708H61.3498V40.146H65.1904V44.4944H51.748V40.0449ZM66.1001 28.618C67.414 28.618 68.4247 28.4157 69.3343 28.0112C71.0525 27.2022 71.8611 25.382 71.8611 23.0562C71.8611 20.9326 71.0525 19.2135 69.5365 18.4045C68.7279 17.8989 67.6161 17.6966 66.1001 17.6966H61.1476V28.7191H66.1001V28.618Z"/>
  <path d="M91.2662 21.3372C97.7347 21.3372 101.272 26.09 101.272 32.0563C101.272 32.3596 101.272 32.8652 101.272 33.2697L101.171 33.9776H85.5052C85.9094 38.1237 88.8405 40.2473 92.2769 40.2473C94.1972 40.2473 95.7133 39.7417 96.9262 39.0338C97.6336 38.6293 98.2401 38.3259 98.8465 37.8203L100.969 41.7641C100.261 42.3709 99.4529 42.8765 98.5433 43.281C96.9261 44.09 94.7026 44.899 91.8726 44.899C84.3934 44.899 79.7441 39.4383 79.7441 33.0675C79.7441 26.1911 84.4945 21.3372 91.2662 21.3372ZM95.5112 30.6405C95.4101 27.5057 93.5908 25.6855 91.1651 25.6855C88.3351 25.6855 86.2127 27.6068 85.7073 30.6405H95.5112Z"/>
  <path d="M106.731 26.0898H103.295V21.8426H106.933V15.6741H112.391V21.8426H117.546V26.0898H112.391V35.5954C112.391 39.5392 115.322 39.9437 116.939 39.9437C117.243 39.9437 117.546 39.9437 117.647 39.9437H117.95V44.4943L117.445 44.5954C117.142 44.5954 116.737 44.5954 116.232 44.5954C112.998 44.5954 106.832 43.6853 106.832 36.101V26.0898H106.731Z"/>
  <path d="M122.396 40.0449H126.136V17.3932H122.396V13.0449H137.456C139.376 13.0449 141.196 13.146 142.813 13.8539C146.249 15.2696 148.473 18.7078 148.473 23.1573C148.473 27.6067 146.148 31.4494 142.51 32.764C141.095 33.2696 139.477 33.3708 137.658 33.3708H131.998V40.146H135.839V44.4944H122.498V40.0449H122.396ZM136.85 28.618C138.164 28.618 139.174 28.4157 140.084 28.0112C141.802 27.2022 142.611 25.382 142.611 23.0562C142.611 20.9326 141.802 19.2135 140.286 18.4045C139.477 17.8989 138.366 17.6966 136.85 17.6966H131.897V28.7191H136.85V28.618Z"/>
  <path d="M152.819 17.191H149.281V12.9438H158.378V36.9101C158.378 39.0337 158.782 40.045 160.702 40.045C161.005 40.045 161.309 40.045 161.41 40.045H161.713V44.4944L161.107 44.5955C160.702 44.5955 160.298 44.5955 159.692 44.5955C156.154 44.5955 152.819 43.382 152.819 37.2135V17.191Z"/>
  <path d="M177.076 30.4383H178.491V29.7305C178.491 26.899 176.672 25.7866 174.347 25.7866C172.629 25.7866 171.113 26.2923 169.9 26.899C169.193 27.2024 168.485 27.6069 167.98 28.0114L165.857 24.0675C166.565 23.5619 167.373 23.0563 168.283 22.6518C169.799 21.9439 172.124 21.2361 174.752 21.2361C180.816 21.2361 184.05 24.3709 184.05 30.135V39.135C184.05 39.8428 184.353 40.1462 185.061 40.1462H187.082V44.3934H181.725C179.603 44.3934 178.895 43.281 178.895 41.9664V41.6631C178.895 41.2586 178.895 41.0563 178.997 40.8541C178.997 40.7529 178.997 40.6518 178.997 40.5507H178.895C178.491 41.3597 177.986 42.0675 177.278 42.6743C176.065 43.7866 174.448 44.7979 171.719 44.7979C167.778 44.7979 164.24 42.5732 164.24 37.9215C164.442 31.1462 173.438 30.4383 177.076 30.4383ZM173.337 40.7529C176.369 40.7529 178.592 37.517 178.592 34.6855V33.9777H177.683C175.459 33.9777 170.102 34.3822 170.102 37.7192C170.102 39.3372 171.315 40.7529 173.337 40.7529Z"/>
  <path d="M201.837 21.3372C205.577 21.3372 211.136 22.7529 211.136 26.6967V29.8315H206.184V28.3147C206.184 26.7978 203.859 26.09 201.939 26.09C197.795 26.09 195.268 28.9214 195.268 33.0675C195.268 37.7192 198.502 40.2473 202.343 40.2473C205.577 40.2473 208.104 38.427 209.418 37.5169L211.439 41.4608C209.923 42.8765 206.386 45.0001 202.141 45.0001C195.571 45.0001 189.709 40.4495 189.709 33.1686C189.709 26.3933 194.864 21.3372 201.837 21.3372Z"/>
  <path d="M225.893 21.3372C232.362 21.3372 235.899 26.09 235.899 32.0563C235.899 32.3596 235.899 32.8652 235.899 33.2697L235.798 33.9776H220.132C220.536 38.1237 223.467 40.2473 226.904 40.2473C228.824 40.2473 230.34 39.7417 231.553 39.0338C232.261 38.6293 232.867 38.3259 233.473 37.8203L235.596 41.7641C234.888 42.3709 234.08 42.8765 233.17 43.281C231.553 44.09 229.33 44.899 226.5 44.899C219.02 44.899 214.371 39.4383 214.371 33.0675C214.472 26.1911 219.121 21.3372 225.893 21.3372ZM230.138 30.6405C230.037 27.5057 228.218 25.6855 225.792 25.6855C222.962 25.6855 220.84 27.6068 220.334 30.6405H230.138Z"/>
</svg>
