<svg width="16" height="16" viewBox="0 0 16 16" fill="none" xmlns="http://www.w3.org/2000/svg">
<g clip-path="url(#clip0_13330_7283)">
<path fill-rule="evenodd" clip-rule="evenodd" d="M0.666504 2.4C0.666504 1.07452 1.74102 0 3.0665 0H8.6665C9.99199 0 11.0665 1.07452 11.0665 2.4V4.85C11.0665 5.29183 10.7083 5.65 10.2665 5.65C9.82468 5.65 9.4665 5.29183 9.4665 4.85V2.4C9.4665 1.95817 9.10833 1.6 8.6665 1.6H3.0665C2.62468 1.6 2.2665 1.95817 2.2665 2.4V13.6C2.2665 14.0418 2.62468 14.4 3.0665 14.4H8.6665C9.10833 14.4 9.4665 14.0418 9.4665 13.6V11.6C9.4665 11.1582 9.82468 10.8 10.2665 10.8C10.7083 10.8 11.0665 11.1582 11.0665 11.6V13.6C11.0665 14.9255 9.99199 16 8.6665 16H3.0665C1.74102 16 0.666504 14.9255 0.666504 13.6V2.4ZM12.5008 5.43431C12.8132 5.1219 13.3198 5.1219 13.6322 5.43431L15.6322 7.43431C15.9446 7.74673 15.9446 8.25327 15.6322 8.56569L13.6322 10.5657C13.3198 10.8781 12.8132 10.8781 12.5008 10.5657C12.1884 10.2533 12.1884 9.74673 12.5008 9.43431L13.1351 8.8H7.0665C6.62468 8.8 6.2665 8.44183 6.2665 8C6.2665 7.55817 6.62468 7.2 7.0665 7.2H13.1351L12.5008 6.56569C12.1884 6.25327 12.1884 5.74673 12.5008 5.43431Z" fill="#2F2F33"/>
</g>
<defs>
<clipPath id="clip0_13330_7283">
<rect width="16" height="16" fill="white"/>
</clipPath>
</defs>
</svg>
