<svg width="30" height="28" viewBox="0 0 30 28" fill="none" xmlns="http://www.w3.org/2000/svg">
<path d="M21.3006 10.1095C19.3322 10.5811 17.0826 8.69488 16.3796 5.93296C15.6767 3.17104 16.6608 0.543837 18.6995 0.0722888C20.6678 -0.399259 22.9174 1.48693 23.6204 4.24886C24.3234 7.01077 23.3392 9.63795 21.3006 10.1095Z" fill="currentColor"/>
<path d="M26.4564 15.2666C24.8053 15.1564 23.6567 13.5038 23.8721 11.6309C24.1592 9.75798 25.6667 8.38084 27.3896 8.49104C29.0408 8.60118 30.1894 10.2537 29.974 12.1267C29.6869 13.9996 28.1075 15.3767 26.4564 15.2666Z" fill="currentColor"/>
<path d="M11.9649 11.1892C12.8044 10.4966 13.873 10.1818 14.9415 10.1818H15.0179C16.0863 10.1818 17.2312 10.5596 17.9944 11.1892L27.7639 19.2483C28.3744 19.752 28.6034 20.4446 28.3744 21.0742L26.7716 26.4889C26.5427 27.3703 25.5505 28 24.4819 28H19.8262C18.6051 28 17.6891 27.1815 17.6891 26.2371V22.7742C17.6891 21.5149 16.468 20.5076 14.9415 20.5076C13.4151 20.5076 12.1938 21.5149 12.1938 22.7742V26.2371C12.1938 27.2445 11.2016 28 10.0568 28H5.47738C4.40884 28 3.41664 27.3703 3.18767 26.4889L1.58488 21.0742C1.43223 20.4446 1.6612 19.752 2.19547 19.2483L11.9649 11.1892Z" fill="currentColor"/>
<path d="M8.70199 10.1095C6.66133 9.63795 5.67618 7.01077 6.37986 4.24886C7.08354 1.48693 9.33528 -0.399259 11.3056 0.0722888C13.2759 0.543837 14.3315 3.17104 13.6278 5.93296C12.8537 8.69488 10.6723 10.5811 8.70199 10.1095Z" fill="currentColor"/>
<path d="M2.60268 8.49104C4.24897 8.38084 5.82369 9.75798 6.11 11.6309C6.39632 13.5038 5.25107 15.1013 3.53319 15.2666C1.88689 15.3767 0.31218 13.9996 0.0258682 12.1267C-0.188866 10.2537 0.956385 8.65626 2.60268 8.49104Z" fill="currentColor"/>
</svg>