<?xml version="1.0" encoding="UTF-8" standalone="no"?>
<!-- Created with Inkscape (http://www.inkscape.org/) -->

<svg
   version="1.1"
   id="svg2"
   width="574.79999"
   height="104.94667"
   viewBox="0 0 574.79999 104.94667"
   sodipodi:docname="PetPlace_Logo_2C_R.eps"
   xmlns:inkscape="http://www.inkscape.org/namespaces/inkscape"
   xmlns:sodipodi="http://sodipodi.sourceforge.net/DTD/sodipodi-0.dtd"
   xmlns="http://www.w3.org/2000/svg"
   xmlns:svg="http://www.w3.org/2000/svg">
  <defs
     id="defs6" />
  <sodipodi:namedview
     id="namedview4"
     pagecolor="#ffffff"
     bordercolor="#000000"
     borderopacity="0.25"
     inkscape:showpageshadow="2"
     inkscape:pageopacity="0.0"
     inkscape:pagecheckerboard="0"
     inkscape:deskcolor="#d1d1d1" />
  <g
     id="g8"
     inkscape:groupmode="layer"
     inkscape:label="ink_ext_XXXXXX"
     transform="matrix(1.3333333,0,0,-1.3333333,0,104.94667)">
    <g
       id="g10"
       transform="scale(0.1)">
      <path
         d="m 511.043,516 c -51,-13 -108,37 -126,111 -19,74 8,145 59,158 51,13 108,-37 126,-111 19,-74 -8,-145 -59,-158"
         style="fill:#36173f;fill-opacity:1;fill-rule:nonzero;stroke:none"
         id="path12" />
      <path
         d="m 637.043,349 c -42,4 -71,57 -64,118 6,61 46,107 88,102 42,-4 71,-57 64,-118 -7,-61 -46,-107 -88,-102"
         style="fill:#36173f;fill-opacity:1;fill-rule:nonzero;stroke:none"
         id="path14" />
      <path
         d="m 291.043,481 c 19,19 46,29 71,30 h 1 c 25,-1 52,-11 71,-30 l 230,-230 c 14,-14 19,-34 15,-53 l -37,-155 c -6,-25 -28,-43 -54,-43 h -110 c -28,0 -51,23 -51,51 v 100 c 0,36 -29,64 -64,65 -36,0 -64,-29 -64,-65 V 51 c 0,-28 -23,-51 -51,-51 h -111 c -26,0 -48,18 -54,43 l -37,155 c -5,19 1,39 15,53 l 230,230"
         style="fill:#36173f;fill-opacity:1;fill-rule:nonzero;stroke:none"
         id="path16" />
      <path
         d="m 214.043,516 c -51,13 -77,83 -59,158 19,74 75,124 126,111 51,-13 77,-83 59,-158 -19,-74 -75,-124 -126,-111"
         style="fill:#36173f;fill-opacity:1;fill-rule:nonzero;stroke:none"
         id="path18" />
      <path
         d="m 65.043,570 c 42,4 81,-41 88,-102 6,-61 -22,-114 -64,-118 -42,-4 -81.00003,41 -88.00003,102 -7,60 22.00003,113 64.00003,118"
         style="fill:#36173f;fill-opacity:1;fill-rule:nonzero;stroke:none"
         id="path20" />
      <path
         d="m 861.043,91 h 63 v 406 h -63 c -2,0 -4,2 -4,4 v 69 c 0,2 2,4 4,4 h 264.997 c 34,0 67,-2 95,-14 61,-25 100,-87 100,-166 0,-80 -41,-148 -107,-171 -26,-9 -55,-11 -86,-11 h -100 V 90 h 64 c 2,0 4,-2 4,-4 V 17 c 0,-2 -2,-4 -4,-4 H 862.043 c -2,0 -4,2 -4,4 v 69 c -1,3 1,5 3,5 m 253.997,205 c 23,0 42,4 57,11 31,15 46,47 46,88 0,39 -15,69 -41,84 -15,9 -35,13 -61,13 h -88 V 296 h 87 v 0"
         style="fill:#776cb7;fill-opacity:1;fill-rule:nonzero;stroke:none"
         id="path22" />
      <path
         d="m 1563.04,426 c 116,0 180,-85 180,-191 0,-6 0,-14 -1,-21 l -2,-13 h -279 c 6,-74 60,-112 121,-112 34,0 62,9 83,21 11,5 21,12 30,18 2,2 5,1 7,-1 l 35,-63 c 1,-2 1,-4 -1,-6 -11,-9 -25,-17 -41,-25 -28,-15 -69,-28 -119,-28 -134,0 -217,97 -217,211 -1,123 83,210 204,210 m 76,-166 c -2,56 -35,89 -78,89 -51,0 -88,-35 -97,-89 h 175"
         style="fill:#776cb7;fill-opacity:1;fill-rule:nonzero;stroke:none"
         id="path24" />
      <path
         d="m 1834.04,342 h -57 c -2,0 -4,2 -4,4 v 66 c 0,2 2,4 4,4 h 60 v 106 c 0,2 2,4 4,4 h 88 c 2,0 4,-2 4,-4 V 416 h 87 c 2,0 4,-2 4,-4 v -66 c 0,-2 -2,-4 -4,-4 h -87 V 172 c 0,-70 52,-78 81,-78 3,0 9,0 14,1 3,0 5,-2 5,-4 V 17 c 0,-2 -2,-4 -4,-4 -5,-1 -15,-2 -27,-2 -57,-1 -169,17 -169,152 l 1,179 v 0"
         style="fill:#776cb7;fill-opacity:1;fill-rule:nonzero;stroke:none"
         id="path26" />
      <path
         d="m 2124.04,91 h 63 v 406 h -63 c -2,0 -4,2 -4,4 v 69 c 0,2 2,4 4,4 h 265 c 34,0 67,-2 95,-14 61,-25 100,-87 100,-166 0,-80 -41,-148 -107,-171 -26,-9 -55,-11 -86,-11 h -100 V 90 h 64 c 2,0 4,-2 4,-4 V 17 c 0,-2 -2,-4 -4,-4 h -230 c -2,0 -4,2 -4,4 v 69 c -1,3 1,5 3,5 m 254,205 c 23,0 42,4 57,11 31,15 46,47 46,88 0,39 -15,69 -41,84 -15,9 -35,13 -61,13 h -88 V 296 h 87 v 0"
         style="fill:#36173f;fill-opacity:1;fill-rule:nonzero;stroke:none"
         id="path28" />
      <path
         d="m 2671.04,500 h -58 c -2,0 -4,2 -4,4 v 66 c 0,2 2,4 4,4 h 158 V 147 c 0,-37 7,-55 41,-55 3,0 10,0 14,1 3,0 5,-2 5,-4 V 17 c 0,-2 -2,-4 -4,-4 -6,-1 -17,-2 -32,-2 -64,0 -123,21 -123,131 v 358 h -1 v 0"
         style="fill:#36173f;fill-opacity:1;fill-rule:nonzero;stroke:none"
         id="path30" />
      <path
         d="m 3539.04,426 c 67,0 165,-25 165,-97 v -51 c 0,-2 -2,-4 -4,-4 h -78 c -2,0 -4,2 -4,4 v 22 c 0,28 -41,40 -75,40 -74,0 -119,-51 -119,-124 0,-83 58,-128 127,-128 54,0 98,28 122,46 2,2 5,1 7,-2 l 32,-63 c 1,-2 1,-4 -1,-5 -29,-26 -89,-60 -165,-60 -118,0 -222,81 -222,210 -1,120 91,212 215,212"
         style="fill:#36173f;fill-opacity:1;fill-rule:nonzero;stroke:none"
         id="path32" />
      <path
         d="m 3970.04,426 c 116,0 180,-85 180,-191 0,-6 0,-14 -1,-21 l -2,-13 h -279 c 6,-74 60,-112 121,-112 34,0 62,9 83,21 11,5 21,12 30,18 2,2 5,1 7,-1 l 35,-63 c 1,-2 1,-4 -1,-6 -11,-9 -25,-17 -41,-25 -28,-15 -69,-28 -119,-28 -134,0 -217,97 -217,211 -1,123 83,210 204,210 m 76,-166 c -2,56 -35,89 -78,89 -51,0 -88,-35 -97,-89 h 175"
         style="fill:#36173f;fill-opacity:1;fill-rule:nonzero;stroke:none"
         id="path34" />
      <path
         d="m 3265.04,88 c -18,0 -29,6 -35,17 v 150 c 0,27 -4,51 -12,70 -8,19 -19,34 -33,46 -14,12 -31,20 -50,25 -20,5 -42,8 -65,8 -30,0 -59,-5 -86,-14 -24,-8 -47,-20 -70,-34 -2,-1 -3,-4 -2,-6 l 26,-55 c 1,-2 4,-3 6,-2 14,7 28,12 43,16 18,5 40,7 63,7 12,0 23,-1 32,-3 10,-2 19,-6 27,-11 8,-5 14,-12 18,-20 4,-8 6,-18 6,-29 v -21 l -6,1 c -12,3 -26,5 -40,7 -14,2 -30,3 -47,3 -23,0 -44,-3 -62,-9 -18,-6 -33,-14 -45,-25 -12,-10 -21,-23 -28,-37 -6,-15 -10,-31 -10,-48 0,-17 3,-33 9,-47 6,-14 15,-27 27,-38 12,-11 27,-19 44,-25 17,-6 38,-9 60,-9 9,0 17,1 24,2 7,1 14,3 21,5 7,2 14,5 21,9 7,4 15,9 23,14 l 10,7 11,7 c 23,-35 61,-44 102,-44 16,0 27,1 33,2 2,0 4,2 4,4 v 74 c 0,3 -2,5 -5,4 -4,-1 -10,-1 -14,-1 m -171,1 c -15,-6 -32,-9 -51,-9 -19,0 -33,5 -42,14 -10,9 -15,21 -15,35 0,8 2,14 5,20 3,6 7,11 12,14 5,4 11,7 17,9 6,2 12,3 19,3 h 96 v -61 l -3,-2 c -10,-9 -23,-17 -38,-23"
         style="fill:#36173f;fill-opacity:1;fill-rule:nonzero;stroke:none"
         id="path36" />
      <path
         d="m 4257.63,63.0977 c 7.45,0 11.65,3.8789 11.65,9.3828 0,6.1367 -4.2,9.375 -11.65,9.375 h -13.89 V 63.0977 Z m -24.89,22.957 c 0,2.9141 2.27,5.5039 5.5,5.5039 h 20.37 c 12.61,0 21.98,-6.1484 21.98,-18.1133 0,-8.7305 -4.84,-14.8789 -12.61,-17.7851 l 10.99,-12.9375 c 1.31,-1.6172 1.62,-2.9063 1.62,-4.1993 0,-2.914 -2.26,-5.4961 -5.17,-5.4961 -2.26,0 -3.88,1.2891 -5.18,2.9063 l -14.87,18.1133 h -11.63 V 38.8477 c 0,-3.2383 -2.59,-5.8204 -5.5,-5.8204 -3.23,0 -5.5,2.5821 -5.5,5.8204 z m 71.78,-24.25 v 0.3281 c 0,27.4766 -21.34,50.1212 -49.79,50.1212 -28.14,0 -49.79,-22.9649 -49.79,-50.4493 v -0.3242 c 0,-27.4883 21.34,-50.1211 49.79,-50.1211 28.14,0 49.79,22.957 49.79,50.4453 z m -106.05,-0.3242 v 0.3242 c 0,30.7187 24.89,56.5903 56.26,56.5903 31.69,0 56.26,-25.5473 56.26,-56.2622 v -0.3281 c 0,-30.7149 -24.89,-56.59376 -56.26,-56.59376 -31.69,0 -56.26,25.54686 -56.26,56.26956"
         style="fill:#36173f;fill-opacity:1;fill-rule:nonzero;stroke:none"
         id="path38" />
    </g>
  </g>
</svg>
