<svg width="39" height="33" viewBox="0 0 39 33" fill="none" xmlns="http://www.w3.org/2000/svg">
<path d="M27.6907 11.9148C25.1318 12.4706 22.2074 10.2475 21.2935 6.99242C20.3796 3.73729 21.6591 0.640951 24.3094 0.0851975C26.8682 -0.470556 29.7926 1.75246 30.7065 5.00759C31.6204 8.26269 30.3409 11.359 27.6907 11.9148Z" fill="#7069A7"/>
<path d="M34.3934 17.9927C32.2469 17.8629 30.7538 15.9152 31.0337 13.7078C31.407 11.5005 33.3668 9.8774 35.6065 10.0073C37.7531 10.1371 39.2462 12.0848 38.9663 14.2921C38.593 16.4995 36.5398 18.1225 34.3934 17.9927Z" fill="#7069A7"/>
<path d="M15.5543 13.1873C16.6458 12.371 18.0349 12 19.424 12H19.5232C20.9122 12 22.4006 12.4452 23.3928 13.1873L36.0931 22.6855C36.8868 23.2792 37.1844 24.0954 36.8868 24.8375L34.8031 31.2191C34.5055 32.2579 33.2156 33 31.8265 33H25.7741C24.1866 33 22.9959 32.0353 22.9959 30.9222V26.841C22.9959 25.3568 21.4084 24.1696 19.424 24.1696C17.4396 24.1696 15.852 25.3568 15.852 26.841V30.9222C15.852 32.1095 14.5621 33 13.0739 33H7.1206C5.73151 33 4.44165 32.2579 4.14398 31.2191L2.06035 24.8375C1.86191 24.0954 2.15957 23.2792 2.85412 22.6855L15.5543 13.1873Z" fill="#7069A7"/>
<path d="M11.3126 11.9148C8.6597 11.359 7.37901 8.26269 8.29379 5.00759C9.20857 1.75246 12.1358 -0.470556 14.6972 0.0851975C17.2587 0.640951 18.6309 3.73729 17.7161 6.99242C16.7098 10.2475 13.874 12.4706 11.3126 11.9148Z" fill="#7069A7"/>
<path d="M3.38348 10.0073C5.52367 9.8774 7.57079 11.5005 7.943 13.7078C8.31521 15.9152 6.82639 17.7979 4.59315 17.9927C2.45296 18.1225 0.405834 16.4995 0.0336287 14.2921C-0.245525 12.0848 1.2433 10.202 3.38348 10.0073Z" fill="#7069A7"/>
</svg>