<svg width="24" height="25" viewBox="0 0 24 25" fill="none" xmlns="http://www.w3.org/2000/svg">
<path d="M8 0.471069C5.87827 0.471069 3.84344 1.31392 2.34315 2.81422C0.842855 4.31451 0 6.34934 0 8.47107C0 11.8111 4.51 19.3811 6.58 22.6811C6.6385 22.7716 6.72471 22.8409 6.82578 22.8784C6.92684 22.916 7.03734 22.9199 7.1408 22.8895C7.24426 22.8592 7.33513 22.7962 7.39986 22.71C7.4646 22.6237 7.49972 22.5189 7.5 22.4111V16.4711C7.5002 16.099 7.60419 15.7343 7.80028 15.4181C7.99637 15.1019 8.27679 14.8466 8.61 14.6811L11.61 13.1811C11.8866 13.0436 12.1912 12.9721 12.5 12.9721C12.8088 12.9721 13.1134 13.0436 13.39 13.1811L13.94 13.4511C13.9999 13.4828 14.0657 13.5018 14.1333 13.5068C14.2008 13.5118 14.2687 13.5028 14.3326 13.4802C14.3966 13.4577 14.4551 13.4221 14.5045 13.3758C14.554 13.3295 14.5933 13.2734 14.62 13.2111C15.3681 11.7296 15.8359 10.1226 16 8.47107C16 6.34934 15.1571 4.31451 13.6569 2.81422C12.1566 1.31392 10.1217 0.471069 8 0.471069ZM8 11.4711C7.40666 11.4711 6.82664 11.2951 6.33329 10.9655C5.83994 10.6358 5.45542 10.1673 5.22836 9.61912C5.0013 9.07094 4.94189 8.46774 5.05764 7.8858C5.1734 7.30386 5.45912 6.76931 5.87868 6.34975C6.29824 5.93019 6.83279 5.64447 7.41473 5.52871C7.99667 5.41296 8.59987 5.47237 9.14805 5.69943C9.69623 5.92649 10.1648 6.31101 10.4944 6.80436C10.8241 7.29771 11 7.87773 11 8.47107C11 9.26672 10.6839 10.0298 10.1213 10.5924C9.55871 11.155 8.79565 11.4711 8 11.4711Z" fill="#302280"/>
<path d="M15.72 16.021L12.72 14.521C12.6517 14.4867 12.5764 14.4689 12.5 14.4689C12.4236 14.4689 12.3483 14.4867 12.28 14.521L9.28 16.021C9.19657 16.0632 9.12633 16.1274 9.07695 16.2068C9.02758 16.2862 9.00095 16.3776 9 16.471V23.971C9 24.1036 9.05268 24.2308 9.14645 24.3246C9.24021 24.4184 9.36739 24.471 9.5 24.471H11C11.1326 24.471 11.2598 24.4184 11.3536 24.3246C11.4473 24.2308 11.5 24.1036 11.5 23.971V22.971C11.5 22.8384 11.5527 22.7113 11.6464 22.6175C11.7402 22.5237 11.8674 22.471 12 22.471H13C13.1326 22.471 13.2598 22.5237 13.3536 22.6175C13.4473 22.7113 13.5 22.8384 13.5 22.971V23.971C13.5 24.1036 13.5527 24.2308 13.6464 24.3246C13.7402 24.4184 13.8674 24.471 14 24.471H15.5C15.6326 24.471 15.7598 24.4184 15.8536 24.3246C15.9473 24.2308 16 24.1036 16 23.971V16.471C15.999 16.3776 15.9724 16.2862 15.923 16.2068C15.8737 16.1274 15.8034 16.0632 15.72 16.021ZM14 20.471H11C10.8674 20.471 10.7402 20.4184 10.6464 20.3246C10.5527 20.2308 10.5 20.1036 10.5 19.971C10.5 19.8384 10.5527 19.7113 10.6464 19.6175C10.7402 19.5237 10.8674 19.471 11 19.471H14C14.1326 19.471 14.2598 19.5237 14.3536 19.6175C14.4473 19.7113 14.5 19.8384 14.5 19.971C14.5 20.1036 14.4473 20.2308 14.3536 20.3246C14.2598 20.4184 14.1326 20.471 14 20.471ZM14 17.971H11C10.8674 17.971 10.7402 17.9184 10.6464 17.8246C10.5527 17.7308 10.5 17.6036 10.5 17.471C10.5 17.3384 10.5527 17.2113 10.6464 17.1175C10.7402 17.0237 10.8674 16.971 11 16.971H14C14.1326 16.971 14.2598 17.0237 14.3536 17.1175C14.4473 17.2113 14.5 17.3384 14.5 17.471C14.5 17.6036 14.4473 17.7308 14.3536 17.8246C14.2598 17.9184 14.1326 17.971 14 17.971Z" fill="#302280"/>
<path d="M23.6899 12.471L17.6899 9.97104C17.6179 9.93165 17.537 9.91101 17.4549 9.91101C17.3728 9.91101 17.292 9.93165 17.2199 9.97104C17.1396 10.0249 17.0763 10.1006 17.0373 10.1891C16.9984 10.2776 16.9854 10.3754 16.9999 10.471V23.971C16.9999 24.1036 17.0526 24.2308 17.1464 24.3246C17.2401 24.4184 17.3673 24.471 17.4999 24.471H23.4999C23.6325 24.471 23.7597 24.4184 23.8535 24.3246C23.9472 24.2308 23.9999 24.1036 23.9999 23.971V12.971C24.0077 12.8656 23.9819 12.7605 23.9262 12.6706C23.8705 12.5808 23.7878 12.5109 23.6899 12.471ZM21.9999 20.471H18.9999C18.8673 20.471 18.7401 20.4184 18.6464 20.3246C18.5526 20.2308 18.4999 20.1036 18.4999 19.971C18.4999 19.8384 18.5526 19.7113 18.6464 19.6175C18.7401 19.5237 18.8673 19.471 18.9999 19.471H21.9999C22.1325 19.471 22.2597 19.5237 22.3535 19.6175C22.4472 19.7113 22.4999 19.8384 22.4999 19.971C22.4999 20.1036 22.4472 20.2308 22.3535 20.3246C22.2597 20.4184 22.1325 20.471 21.9999 20.471ZM21.9999 17.971H18.9999C18.8673 17.971 18.7401 17.9184 18.6464 17.8246C18.5526 17.7308 18.4999 17.6036 18.4999 17.471C18.4999 17.3384 18.5526 17.2113 18.6464 17.1175C18.7401 17.0237 18.8673 16.971 18.9999 16.971H21.9999C22.1325 16.971 22.2597 17.0237 22.3535 17.1175C22.4472 17.2113 22.4999 17.3384 22.4999 17.471C22.4999 17.6036 22.4472 17.7308 22.3535 17.8246C22.2597 17.9184 22.1325 17.971 21.9999 17.971ZM21.9999 15.471H18.9999C18.8673 15.471 18.7401 15.4184 18.6464 15.3246C18.5526 15.2308 18.4999 15.1036 18.4999 14.971C18.4999 14.8384 18.5526 14.7113 18.6464 14.6175C18.7401 14.5237 18.8673 14.471 18.9999 14.471H21.9999C22.1325 14.471 22.2597 14.5237 22.3535 14.6175C22.4472 14.7113 22.4999 14.8384 22.4999 14.971C22.4999 15.1036 22.4472 15.2308 22.3535 15.3246C22.2597 15.4184 22.1325 15.471 21.9999 15.471Z" fill="#302280"/>
</svg>
