<svg width="100" height="96" viewBox="0 0 100 96" fill="none" xmlns="http://www.w3.org/2000/svg">
 <path d="M52.3467 76.8367L64.061 57.1021L70.6732 61.449L79.5916 75.6735H85.714L89.7957 81.7959" stroke="currentColor" stroke-width="3" stroke-linecap="round" stroke-linejoin="round"/>
 <path d="M6.12207 77.5103L16.3262 59.143H20.4078L24.4894 53.0206L28.571 50.9797L38.7751 65.2655H44.8976L63.2649 93.8369" stroke="currentColor" stroke-width="3" stroke-linecap="round" stroke-linejoin="round"/>
 <path d="M73.4691 28.5305C68.9181 28.5305 65.3058 31.1224 65.3058 34.653C65.3058 31.1224 61.6936 28.5305 57.1426 28.5305" stroke="currentColor" stroke-width="3" stroke-linecap="round" stroke-linejoin="round"/>
 <path d="M89.7963 8.12231C85.2452 8.12231 81.633 10.7142 81.633 14.2448C81.633 10.7142 78.0207 8.12231 73.4697 8.12231" stroke="currentColor" stroke-width="3" stroke-linecap="round" stroke-linejoin="round"/>
 <path d="M97.9589 40.7756C92.2855 40.7756 87.7549 44.245 87.7549 48.9389C87.7549 44.245 83.2243 40.7756 77.5508 40.7756" stroke="currentColor" stroke-width="3" stroke-linecap="round" stroke-linejoin="round"/>
 <path d="M22.4494 30.5714C26.9578 30.5714 30.6127 26.9166 30.6127 22.4081C30.6127 17.8997 26.9578 14.2449 22.4494 14.2449C17.941 14.2449 14.2861 17.8997 14.2861 22.4081C14.2861 26.9166 17.941 30.5714 22.4494 30.5714Z" stroke="currentColor" stroke-width="3" stroke-linecap="round" stroke-linejoin="round"/>
 <path d="M22.4492 2V8.12245" stroke="currentColor" stroke-width="3" stroke-linecap="round" stroke-linejoin="round"/>
 <path d="M8.02051 7.97974L12.347 12.3063" stroke="currentColor" stroke-width="3" stroke-linecap="round" stroke-linejoin="round"/>
 <path d="M2.04102 22.4082H8.16346" stroke="currentColor" stroke-width="3" stroke-linecap="round" stroke-linejoin="round"/>
 <path d="M8.02051 36.8368L12.347 32.5103" stroke="currentColor" stroke-width="3" stroke-linecap="round" stroke-linejoin="round"/>
 <path d="M22.4492 42.8165V36.6941" stroke="currentColor" stroke-width="3" stroke-linecap="round" stroke-linejoin="round"/>
 <path d="M36.8773 36.8368L32.5508 32.5103" stroke="currentColor" stroke-width="3" stroke-linecap="round" stroke-linejoin="round"/>
 <path d="M42.8568 22.4082H36.7344" stroke="currentColor" stroke-width="3" stroke-linecap="round" stroke-linejoin="round"/>
 <path d="M36.8773 7.97974L32.5508 12.3063" stroke="currentColor" stroke-width="3" stroke-linecap="round" stroke-linejoin="round"/>
</svg>