<svg width="14" height="16" viewBox="0 0 14 16" fill="none" xmlns="http://www.w3.org/2000/svg">
<path fill-rule="evenodd" clip-rule="evenodd" d="M7.07034 1.68421C5.67509 1.68421 4.54402 2.81528 4.54402 4.21053C4.54402 5.60577 5.67509 6.73684 7.07034 6.73684C8.46558 6.73684 9.59665 5.60577 9.59665 4.21053C9.59665 2.81528 8.46558 1.68421 7.07034 1.68421ZM2.85981 4.21053C2.85981 1.88512 4.74493 0 7.07034 0C9.39575 0 11.2809 1.88512 11.2809 4.21053C11.2809 6.53594 9.39575 8.42105 7.07034 8.42105C4.74493 8.42105 2.85981 6.53594 2.85981 4.21053ZM5.38613 10.9474C3.5258 10.9474 2.01771 12.4555 2.01771 14.3158V15.1579C2.01771 15.623 1.64068 16 1.1756 16C0.710519 16 0.333496 15.623 0.333496 15.1579V14.3158C0.333496 11.5253 2.59564 9.26316 5.38613 9.26316H8.75455C11.545 9.26316 13.8072 11.5253 13.8072 14.3158V15.1579C13.8072 15.623 13.4302 16 12.9651 16C12.5 16 12.123 15.623 12.123 15.1579V14.3158C12.123 12.4555 10.6149 10.9474 8.75455 10.9474H5.38613Z" fill="#302280"/>
</svg>
