<svg width="16" height="16" viewBox="0 0 16 16" fill="none" xmlns="http://www.w3.org/2000/svg">
<g clip-path="url(#clip0_13330_7269)">
<g clip-path="url(#clip1_13330_7269)">
<path d="M6.85714 1.71429C6.85714 1.25963 6.67653 0.823594 6.35504 0.502103C6.03355 0.180612 5.59751 0 5.14286 0C4.6882 0 4.25217 0.180612 3.93067 0.502103C3.60918 0.823594 3.42857 1.25963 3.42857 1.71429C3.42857 2.16894 3.60918 2.60498 3.93067 2.92647C4.25217 3.24796 4.6882 3.42857 5.14286 3.42857C5.59751 3.42857 6.03355 3.24796 6.35504 2.92647C6.67653 2.60498 6.85714 2.16894 6.85714 1.71429ZM6.83214 6.93214C7.08571 6.52857 7.525 6.28571 8 6.28571C8.475 6.28571 8.91786 6.53214 9.16786 6.93214L10.925 9.73929C11.2357 10.2393 11.6714 10.5536 12.075 10.7429C12.7107 11.0429 13.1464 11.6857 13.1464 12.425C13.1464 13.45 12.3143 14.2821 11.2893 14.2821C10.8929 14.2821 10.5321 14.1607 10.2321 13.9536C9.53214 13.4679 8.66786 13.325 8.00357 13.325C7.33929 13.325 6.475 13.4679 5.775 13.9536C5.475 14.1607 5.11429 14.2821 4.71786 14.2821C3.69286 14.2821 2.86071 13.45 2.86071 12.425C2.86071 11.6821 3.29643 11.0393 3.93214 10.7429C4.33214 10.5536 4.76786 10.2393 5.08214 9.73929L6.83929 6.93214H6.83214ZM3.62143 8.83214C3.52143 8.99286 3.36786 9.11071 3.2 9.19286C1.98571 9.76429 1.14286 10.9964 1.14286 12.4286C1.14286 14.4 2.74286 16 4.71429 16C5.47143 16 6.17143 15.7643 6.74643 15.3643C7.36786 14.9357 8.63214 14.9357 9.25 15.3643C9.82857 15.7643 10.5286 16 11.2857 16C13.2571 16 14.8571 14.4 14.8571 12.4286C14.8571 10.9964 14.0143 9.76429 12.8 9.19286C12.6286 9.11429 12.4786 8.99286 12.3786 8.83214L10.625 6.025C10.0571 5.12143 9.06786 4.57143 8 4.57143C6.93214 4.57143 5.94286 5.12143 5.37857 6.025L3.62143 8.83214ZM10.8571 3.42857C11.3118 3.42857 11.7478 3.24796 12.0693 2.92647C12.3908 2.60498 12.5714 2.16894 12.5714 1.71429C12.5714 1.25963 12.3908 0.823594 12.0693 0.502103C11.7478 0.180612 11.3118 0 10.8571 0C10.4025 0 9.96645 0.180612 9.64496 0.502103C9.32347 0.823594 9.14286 1.25963 9.14286 1.71429C9.14286 2.16894 9.32347 2.60498 9.64496 2.92647C9.96645 3.24796 10.4025 3.42857 10.8571 3.42857ZM16 5.71429C16 5.48916 15.9557 5.26624 15.8695 5.05826C15.7834 4.85027 15.6571 4.66129 15.4979 4.5021C15.3387 4.34292 15.1497 4.21664 14.9417 4.13049C14.7338 4.04434 14.5108 4 14.2857 4C14.0606 4 13.8377 4.04434 13.6297 4.13049C13.4217 4.21664 13.2327 4.34292 13.0735 4.5021C12.9143 4.66129 12.7881 4.85027 12.7019 5.05826C12.6158 5.26624 12.5714 5.48916 12.5714 5.71429C12.5714 5.93941 12.6158 6.16233 12.7019 6.37031C12.7881 6.5783 12.9143 6.76728 13.0735 6.92647C13.2327 7.08566 13.4217 7.21193 13.6297 7.29808C13.8377 7.38423 14.0606 7.42857 14.2857 7.42857C14.5108 7.42857 14.7338 7.38423 14.9417 7.29808C15.1497 7.21193 15.3387 7.08566 15.4979 6.92647C15.6571 6.76728 15.7834 6.5783 15.8695 6.37031C15.9557 6.16233 16 5.93941 16 5.71429ZM1.71429 7.42857C2.16894 7.42857 2.60498 7.24796 2.92647 6.92647C3.24796 6.60498 3.42857 6.16894 3.42857 5.71429C3.42857 5.25963 3.24796 4.82359 2.92647 4.5021C2.60498 4.18061 2.16894 4 1.71429 4C1.25963 4 0.823594 4.18061 0.502103 4.5021C0.180612 4.82359 0 5.25963 0 5.71429C0 6.16894 0.180612 6.60498 0.502103 6.92647C0.823594 7.24796 1.25963 7.42857 1.71429 7.42857Z" fill="#2F2F33"/>
</g>
</g>
<defs>
<clipPath id="clip0_13330_7269">
<rect width="16" height="16" fill="white"/>
</clipPath>
<clipPath id="clip1_13330_7269">
<rect width="16" height="16" fill="white"/>
</clipPath>
</defs>
</svg>
