<svg viewBox="0 0 100 90" fill="none" xmlns="http://www.w3.org/2000/svg"><path d="M24.1793 51.2123L23.796 50.8912L24.1793 51.2123C31.4673 42.5127 40.642 37.7638 49.9999 37.7638C59.3578 37.7638 68.5323 42.5127 75.8208 51.2123C82.3769 59.0376 86.2725 68.8821 86.2722 77.5203C86.2722 81.6127 84.9857 84.675 82.5131 86.7073C79.8977 88.857 76.2858 89.5477 72.2117 89.484C68.1418 89.4203 63.7025 88.6069 59.4917 87.834L59.4014 88.3258L59.4916 87.834L59.4461 87.8256C55.8865 87.1724 52.4553 86.5427 50.0002 86.5427C47.1634 86.5427 43.5065 87.2059 39.7035 87.8956L39.6644 87.9027C35.2656 88.7004 30.8469 89.5 26.879 89.5C23.1519 89.5002 19.901 88.7933 17.4637 86.7856C15.0089 84.7636 13.7278 81.6769 13.7278 77.5203C13.7278 68.8821 17.6234 59.0376 24.1793 51.2123ZM25.7776 29.7397L25.3653 30.0226L25.7776 29.7397C23.5811 26.5382 22.3585 22.3117 22.3585 17.8342C22.3585 13.3566 23.5812 9.13008 25.7776 5.92863C28.1653 2.44841 31.5482 0.5 35.0366 0.5C38.5251 0.5 41.9078 2.44822 44.2956 5.92863C46.492 9.12988 47.7146 13.3566 47.7148 17.8342C47.7148 22.3119 46.492 26.5382 44.2956 29.7397C41.9078 33.2201 38.525 35.1685 35.0366 35.1685C31.5482 35.1685 28.1655 33.2201 25.7776 29.7397ZM74.2225 5.92888L74.6348 5.64601L74.2225 5.9289C76.419 9.13013 77.6416 13.3569 77.6416 17.8344C77.6416 22.3119 76.4188 26.5385 74.2225 29.7399C71.8346 33.2202 68.4519 35.1686 64.9635 35.1686C61.4752 35.1686 58.0923 33.2202 55.7045 29.7399C53.5079 26.5385 52.2853 22.3119 52.2853 17.8344C52.2853 13.3569 53.5081 9.13032 55.7044 5.92889C58.0923 2.44865 61.475 0.500244 64.9635 0.500244C68.4517 0.500244 71.8346 2.44847 74.2225 5.92888ZM86.2979 27.676L86.088 27.2222L86.298 27.676C88.6125 26.6051 91.0811 26.4744 93.2544 27.2814C95.9551 28.2843 97.9838 30.5728 98.9385 33.783C99.8032 36.6903 99.6683 40.0532 98.5394 43.2484C97.1567 47.1616 94.5086 50.2365 91.3095 51.7164L91.5195 52.1702L91.3095 51.7164C89.9899 52.3269 88.6198 52.6317 87.2847 52.6317C86.2775 52.6317 85.2887 52.4585 84.3529 52.111C81.652 51.1081 79.6232 48.8196 78.6686 45.6094C77.8041 42.7021 77.939 39.3396 79.068 36.1442C80.4508 32.2308 83.0989 29.1558 86.2979 27.676ZM13.7022 27.6758C16.9011 29.1556 19.5492 32.2304 20.9321 36.1437C22.061 39.3394 22.1959 42.7021 21.3317 45.6092C20.3771 48.8192 18.3486 51.1077 15.6474 52.1107C14.7116 52.4581 13.7226 52.6315 12.7155 52.6315C11.3804 52.6315 10.0105 52.3267 8.69066 51.7161C5.49185 50.2363 2.84385 47.1614 1.46073 43.248C0.331679 40.0527 0.196789 36.6901 1.06134 33.7828C2.01594 30.5728 4.0447 28.2843 6.74561 27.2812C8.91878 26.4744 11.3875 26.6049 13.7022 27.6758Z" stroke="#DCDDDF"/></svg>