<svg viewBox="0 0 100 90" fill="none" xmlns="http://www.w3.org/2000/svg"><path d="M24.1792 51.2123L24.1792 51.2123C31.4673 42.5127 40.642 37.7638 49.9999 37.7638C59.3578 37.7638 68.5323 42.5127 75.8208 51.2123C82.3769 59.0376 86.2724 68.8821 86.2722 77.5203C86.2722 81.6126 84.9856 84.675 82.513 86.7073C79.8977 88.857 76.2857 89.5477 72.2116 89.484C68.1417 89.4203 63.7024 88.6069 59.4916 87.834L59.4136 88.259L59.4916 87.834L59.446 87.8256C55.8865 87.1724 52.4552 86.5426 50.0001 86.5426C47.1633 86.5426 43.5063 87.2059 39.7033 87.8956L39.6644 87.9027C35.2656 88.7004 30.8469 89.5 26.8789 89.5C23.1519 89.5002 19.901 88.7933 17.4637 86.7856L17.1721 87.1395L17.4636 86.7856C15.0088 84.7636 13.7278 81.6769 13.7278 77.5203C13.7278 68.8821 17.6233 59.0376 24.1792 51.2123Z" fill="#DCDDDF" stroke="#DCDDDF"/><path d="M74.2225 5.92888L74.2226 5.9289C76.4191 9.13013 77.6417 13.3569 77.6417 17.8344C77.6417 22.3119 76.4189 26.5385 74.2225 29.7399C71.8347 33.2202 68.4519 35.1686 64.9635 35.1686C61.4753 35.1686 58.0924 33.2202 55.7045 29.7399C53.508 26.5385 52.2854 22.3119 52.2854 17.8344C52.2854 13.3569 53.5081 9.13034 55.7045 5.92889C58.0924 2.44865 61.4751 0.500244 64.9635 0.500244C68.4518 0.500244 71.8347 2.44847 74.2225 5.92888Z" fill="#DCDDDF" stroke="#DCDDDF"/><path d="M44.2955 5.92863C41.9077 2.44822 38.525 0.5 35.0365 0.5C31.5481 0.5 28.1652 2.44841 25.7775 5.92863C23.5812 9.13008 22.3584 13.3566 22.3584 17.8342C22.3584 22.3117 23.581 26.5382 25.7775 29.7397L25.3963 30.0013L25.7775 29.7397C28.1654 33.2201 31.5481 35.1685 35.0365 35.1685C38.5249 35.1685 41.9077 33.2201 44.2955 29.7397M44.2955 5.92863V29.7397M44.2955 5.92863C46.4919 9.12988 47.7145 13.3566 47.7147 17.8342C47.7147 22.3119 46.4919 26.5382 44.2955 29.7397M44.2955 5.92863L44.7078 30.0226L44.2955 29.7397" fill="#DCDDDF" stroke="#DCDDDF"/><path d="M98.9386 33.783L98.9386 33.783C99.8033 36.6903 99.6684 40.053 98.5396 43.2482L98.5239 43.2925C97.1369 47.1847 94.4966 50.2421 91.3097 51.7163L91.3096 51.7164C89.99 52.3269 88.62 52.6317 87.2848 52.6317C86.2776 52.6317 85.2889 52.4584 84.353 52.1109C81.6521 51.1081 79.6234 48.8196 78.6688 45.6093L78.2777 45.7256L78.6688 45.6093C77.8042 42.7021 77.9391 39.3396 79.0682 36.1441L78.5983 35.9781L79.0682 36.1441C80.4509 32.2308 83.0991 29.1558 86.2981 27.676L86.2981 27.676C88.6127 26.6051 91.0812 26.4744 93.2545 27.2814C95.9552 28.2842 97.984 30.5728 98.9386 33.783Z" fill="#DCDDDF" stroke="#DCDDDF"/><path d="M13.9122 27.222L13.7022 27.6758C11.3875 26.6049 8.91874 26.4744 6.74556 27.2812C4.04465 28.2842 2.01594 30.5728 1.06134 33.7828C0.196786 36.6901 0.33168 40.0527 1.46074 43.248L1.47633 43.2921C2.8637 47.1845 5.50381 50.2418 8.69064 51.7161C8.69065 51.7161 8.69065 51.7161 8.69066 51.7161L8.48072 52.1699C9.86276 52.8092 11.304 53.1315 12.7155 53.1315C13.7803 53.1315 14.8284 52.948 15.8214 52.5794C18.6917 51.5136 20.8186 49.0887 21.811 45.7516L13.9122 27.222ZM13.9122 27.222L13.7022 27.6758C16.9011 29.1556 19.5492 32.2304 20.9321 36.1437C22.061 39.3393 22.1959 42.702 21.3318 45.6091L13.9122 27.222ZM21.3317 45.6092C20.3771 48.8192 18.3486 51.1077 15.6473 52.1107L21.3317 45.6092Z" fill="#DCDDDF" stroke="#DCDDDF"/></svg>