<svg viewBox="0 0 26 24" fill="none" xmlns="http://www.w3.org/2000/svg">
    <path d="M19.8131 13.571C17.8989 11.2276 15.4794 9.93701 13 9.93701C10.5207 9.93701 8.10109 11.2276 6.187 13.571C4.46644 15.6773 3.43927 18.3319 3.43927 20.6721C3.43927 21.8088 3.78201 22.6747 4.45794 23.2457C5.12509 23.8094 6.0059 24 6.98856 24C8.03419 24 9.19523 23.7841 10.336 23.5719C11.3328 23.3865 12.2744 23.2114 13.0001 23.2114C13.6264 23.2114 14.5096 23.3776 15.4444 23.5535C17.6292 23.9648 20.1055 24.4309 21.536 23.2249C22.216 22.6516 22.5608 21.7927 22.5608 20.6721C22.5609 18.3319 21.5337 15.6773 19.8131 13.571Z" fill="currentColor"/>
    <path d="M19.405 1.50554C18.765 0.548717 17.8485 0 16.8905 0C15.9325 0 15.016 0.548769 14.376 1.50554C13.788 2.3845 13.4642 3.53878 13.4642 4.75577C13.4642 5.97276 13.788 7.12704 14.376 8.00601C15.016 8.96277 15.9325 9.51154 16.8905 9.51154C17.8485 9.51154 18.765 8.96277 19.405 8.00601C19.993 7.12704 20.3168 5.97276 20.3168 4.75577C20.3168 3.53878 19.993 2.38445 19.405 1.50554Z" fill="currentColor"/>
    <path d="M11.6241 1.50553C10.984 0.548717 10.0676 0 9.10955 0C8.15151 0 7.235 0.548768 6.59501 1.50553C6.00706 2.3845 5.68323 3.53878 5.68323 4.75577C5.68323 5.97276 6.00701 7.12704 6.59501 8.00601C7.23505 8.96282 8.15151 9.51159 9.10955 9.51159C10.0676 9.51159 10.984 8.96282 11.6241 8.00601C12.212 7.12704 12.5359 5.97281 12.5359 4.75577C12.5358 3.53878 12.212 2.38445 11.6241 1.50553Z" fill="currentColor"/>
    <path d="M25.8486 8.97069C25.5906 8.08076 25.0376 7.43411 24.2914 7.14994C23.691 6.92128 23.0132 6.96005 22.3829 7.25915C21.5143 7.67127 20.8043 8.52227 20.4351 9.59391C20.1334 10.4696 20.0958 11.3953 20.3293 12.2004C20.5873 13.0903 21.1403 13.737 21.8865 14.0211C22.1447 14.1195 22.4172 14.1683 22.694 14.1683C23.061 14.1683 23.4358 14.0824 23.7951 13.9119C24.6637 13.4998 25.3737 12.6488 25.7429 11.5772V11.5772C26.0445 10.7015 26.0821 9.77582 25.8486 8.97069Z" fill="currentColor"/>
    <path d="M5.56494 9.59384C5.19571 8.5222 4.48573 7.67124 3.61717 7.25913C2.98682 6.96003 2.30899 6.92131 1.7086 7.14992C0.962421 7.43414 0.409361 8.08079 0.151341 8.97067C-0.0821004 9.7758 -0.0444714 10.7015 0.257221 11.5771V11.5772C0.626502 12.6488 1.33643 13.4998 2.20499 13.9119C2.56432 14.0824 2.93903 14.1683 3.30603 14.1683C3.58289 14.1683 3.85538 14.1194 4.11356 14.0211C4.85984 13.7369 5.41285 13.0902 5.67087 12.2004C5.90421 11.3953 5.86658 10.4696 5.56494 9.59384Z" fill="currentColor"/>
</svg>
