<svg width="21" height="22" viewBox="0 0 21 22" fill="none" xmlns="http://www.w3.org/2000/svg">
<path d="M19.1583 2.50832C18.8744 2.22566 18.5374 2.00204 18.1666 1.85039C17.7958 1.69874 17.3986 1.62205 16.998 1.62476C16.5975 1.62748 16.2014 1.70953 15.8327 1.86619C15.464 2.02285 15.13 2.25101 14.85 2.53749L2.76663 14.6208L1.29163 20.375L7.04579 18.8992L19.1291 6.81582C19.4157 6.53593 19.6439 6.20202 19.8006 5.83338C19.9573 5.46475 20.0394 5.06871 20.0421 4.66815C20.0448 4.2676 19.9681 3.87048 19.8164 3.49976C19.6647 3.12904 19.441 2.79206 19.1583 2.50832Z" stroke="black" stroke-width="1.5" stroke-linecap="round" stroke-linejoin="round"/>
<path d="M14.5049 2.88336L18.7833 7.16169" stroke="black" stroke-width="1.5" stroke-linecap="round" stroke-linejoin="round"/>
<path d="M2.76746 14.62L7.04996 18.895" stroke="black" stroke-width="1.5" stroke-linecap="round" stroke-linejoin="round"/>
</svg>
