<svg width="14" height="16" viewBox="0 0 14 16" fill="none" xmlns="http://www.w3.org/2000/svg">
<path fill-rule="evenodd" clip-rule="evenodd" d="M2.7335 3.19998C2.29167 3.19998 1.9335 3.55815 1.9335 3.99998V13.6C1.9335 14.0418 2.29167 14.4 2.7335 14.4H10.7335C11.1753 14.4 11.5335 14.0418 11.5335 13.6V3.99998C11.5335 3.55815 11.1753 3.19998 10.7335 3.19998H9.1335C8.69167 3.19998 8.3335 2.8418 8.3335 2.39998C8.3335 1.95815 8.69167 1.59998 9.1335 1.59998H10.7335C12.059 1.59998 13.1335 2.67449 13.1335 3.99998V13.6C13.1335 14.9255 12.059 16 10.7335 16H2.7335C1.40801 16 0.333496 14.9255 0.333496 13.6V3.99998C0.333496 2.67449 1.40801 1.59998 2.7335 1.59998H4.3335C4.77532 1.59998 5.1335 1.95815 5.1335 2.39998C5.1335 2.8418 4.77532 3.19998 4.3335 3.19998H2.7335Z" fill="#2F2F33"/>
<path fill-rule="evenodd" clip-rule="evenodd" d="M3.53369 8.00001C3.53369 7.55818 3.89186 7.20001 4.33369 7.20001H9.13369C9.57552 7.20001 9.93369 7.55818 9.93369 8.00001C9.93369 8.44184 9.57552 8.80001 9.13369 8.80001H4.33369C3.89186 8.80001 3.53369 8.44184 3.53369 8.00001Z" fill="#2F2F33"/>
<path fill-rule="evenodd" clip-rule="evenodd" d="M3.53369 11.2C3.53369 10.7582 3.89186 10.4 4.33369 10.4H6.73369C7.17552 10.4 7.53369 10.7582 7.53369 11.2C7.53369 11.6419 7.17552 12 6.73369 12H4.33369C3.89186 12 3.53369 11.6419 3.53369 11.2Z" fill="#2F2F33"/>
<path fill-rule="evenodd" clip-rule="evenodd" d="M3.53369 2.4C3.53369 1.07452 4.60821 0 5.93369 0H7.53369C8.85918 0 9.93369 1.07452 9.93369 2.4V4C9.93369 4.44183 9.57552 4.8 9.13369 4.8H4.33369C3.89186 4.8 3.53369 4.44183 3.53369 4V2.4ZM5.93369 1.6C5.49186 1.6 5.13369 1.95817 5.13369 2.4V3.2H8.33369V2.4C8.33369 1.95817 7.97552 1.6 7.53369 1.6H5.93369Z" fill="#2F2F33"/>
</svg>
