<svg width="24" height="25" viewBox="0 0 24 25" fill="none" xmlns="http://www.w3.org/2000/svg">
<g clip-path="url(#clip0_245_12398)">
<path d="M22.6701 17.4711L20.2201 15.0211C19.9594 14.755 19.6482 14.5437 19.3048 14.3993C18.9613 14.255 18.5926 14.1807 18.2201 14.1807C17.8475 14.1807 17.4788 14.255 17.1354 14.3993C16.7919 14.5437 16.4808 14.755 16.2201 15.0211L15.7301 15.5111C13.2622 13.4516 10.9832 11.1759 8.92006 8.71112L9.42006 8.21112C9.95011 7.68048 10.2478 6.96114 10.2478 6.21112C10.2478 5.4611 9.95011 4.74176 9.42006 4.21112L7.00006 1.79112C6.46439 1.27065 5.74694 0.979492 5.00006 0.979492C4.25318 0.979492 3.53572 1.27065 3.00006 1.79112L1.66006 3.13112C1.01782 3.78189 0.617915 4.63303 0.526937 5.54281C0.43596 6.45258 0.659405 7.36606 1.16006 8.13112C5.15628 14.1474 10.3138 19.3049 16.3301 23.3011C17.0951 23.8018 18.0086 24.0252 18.9184 23.9342C19.8281 23.8433 20.6793 23.4434 21.3301 22.8011L22.6701 21.4711C22.9361 21.2104 23.1475 20.8992 23.2918 20.5558C23.4361 20.2124 23.5105 19.8436 23.5105 19.4711C23.5105 19.0986 23.4361 18.7298 23.2918 18.3864C23.1475 18.043 22.9361 17.7318 22.6701 17.4711Z" fill="#302280"/>
</g>
<defs>
<clipPath id="clip0_245_12398">
<rect width="24" height="24" fill="white" transform="translate(0 0.471191)"/>
</clipPath>
</defs>
</svg>
