<svg  viewBox="0 0 30 30" fill="none" xmlns="http://www.w3.org/2000/svg">
    <path d="M12 3C12 1.34315 13.3431 0 15 0C16.6569 0 18 1.34315 18 3V27C18 28.6569 16.6569 30 15 30C13.3431 30 12 28.6569 12 27V3Z"
          fill="currentColor"/>
    <path d="M27 12.0005C28.6569 12.0005 30 13.3436 30 15.0005C30 16.6573 28.6569 18.0005 27 18.0005L3 18.0005C1.34315 18.0005 -2.10538e-06 16.6573 -2.03492e-06 15.0005C-1.96447e-06 13.3436 1.34315 12.0005 3 12.0005L27 12.0005Z"
          fill="currentColor"/>
</svg>