<svg viewBox="0 0 19 19" xmlns="http://www.w3.org/2000/svg">
  <path fill-rule="evenodd" clip-rule="evenodd" d="M12.4836 7.05791C12.4836 9.84215 10.3078 12.0992 7.62393 12.0992C4.94003 12.0992 2.76429 9.84215 2.76429 7.05791C2.76429 4.27368 4.94003 2.0166 7.62393 2.0166C10.3078 2.0166 12.4836 4.27368 12.4836 7.05791ZM11.4422 12.8987C10.3532 13.6668 9.03804 14.1157 7.62186 14.1157C3.86439 14.1157 0.818359 10.9558 0.818359 7.05784C0.818359 3.1599 3.86439 0 7.62186 0C11.3793 0 14.4254 3.1599 14.4254 7.05784C14.4254 8.75664 13.8468 10.3152 12.8829 11.5332L17.9979 16.3972C18.3936 16.7735 18.4203 17.4113 18.0577 17.8217C17.6949 18.2322 17.0801 18.2599 16.6844 17.8838L11.4422 12.8987Z"/>
</svg>