<svg width="77" height="13" viewBox="0 0 77 13" fill="none" xmlns="http://www.w3.org/2000/svg">
<g clip-path="url(#clip0_40_1420)">
<path fill-rule="evenodd" clip-rule="evenodd" d="M6.49997 0.963608C6.32989 0.963608 6.16336 1.01227 6.02003 1.10384C5.87854 1.19424 5.76549 1.32274 5.69385 1.4745L4.33308 4.22172C4.3304 4.22712 4.32785 4.23258 4.3254 4.23809C4.3248 4.23945 4.32383 4.24064 4.32263 4.24152C4.32142 4.24241 4.31999 4.24296 4.31851 4.24313C4.31329 4.2437 4.30808 4.24438 4.30289 4.24515L1.30667 4.68903C1.14107 4.70514 0.983149 4.76728 0.850879 4.86859C0.714018 4.97343 0.610491 5.1157 0.552839 5.27817C0.495187 5.44064 0.485885 5.61635 0.526058 5.784C0.566076 5.951 0.653478 6.10288 0.777735 6.22138L2.97097 8.33751L2.97597 8.34225C2.9791 8.34518 2.98145 8.34884 2.98281 8.35291C2.98416 8.35698 2.98448 8.36132 2.98373 8.36554L2.98325 8.36834L2.46061 11.427L2.46048 11.4277C2.43177 11.5935 2.45008 11.764 2.51334 11.9198C2.57669 12.076 2.6826 12.2112 2.819 12.3101C2.95541 12.4089 3.11682 12.4675 3.28489 12.4792C3.45263 12.4908 3.62027 12.4553 3.76881 12.3766L3.76971 12.3761L6.46926 10.9494C6.47894 10.9452 6.48941 10.9429 6.49999 10.9429C6.51058 10.9429 6.52104 10.9452 6.53072 10.9494L9.23026 12.3761L9.23077 12.3763C9.3794 12.4553 9.54714 12.4909 9.71506 12.4792C9.88314 12.4675 10.0445 12.4089 10.1809 12.3101C10.3174 12.2112 10.4232 12.076 10.4866 11.9198C10.5498 11.764 10.5682 11.5936 10.5395 11.4279L10.5394 11.427L10.0167 8.36833L10.0163 8.36554C10.0155 8.36132 10.0158 8.35698 10.0171 8.35291C10.0185 8.34885 10.0209 8.34518 10.024 8.34225L10.0289 8.33751L12.2223 6.22135C12.3465 6.10285 12.4339 5.95099 12.4739 5.784C12.5141 5.61635 12.5048 5.44064 12.4471 5.27817C12.3894 5.1157 12.286 4.97343 12.1491 4.86859C12.0168 4.76728 11.8589 4.70514 11.6933 4.68903L8.69707 4.24515C8.69188 4.24438 8.68667 4.2437 8.68145 4.24313C8.67996 4.24296 8.67853 4.24241 8.67732 4.24152C8.67612 4.24064 8.67516 4.23945 8.67455 4.23809C8.67211 4.23258 8.66955 4.22712 8.66687 4.22172L7.3061 1.47449C7.23446 1.32274 7.12141 1.19424 6.97992 1.10384C6.83659 1.01227 6.67006 0.963608 6.49997 0.963608Z" fill="#333F48"/>
</g>
<g clip-path="url(#clip1_40_1420)">
<path fill-rule="evenodd" clip-rule="evenodd" d="M22.5 0.963608C22.3299 0.963608 22.1634 1.01227 22.02 1.10384C21.8785 1.19424 21.7655 1.32274 21.6938 1.4745L20.3331 4.22172C20.3304 4.22712 20.3278 4.23258 20.3254 4.23809C20.3248 4.23945 20.3238 4.24064 20.3226 4.24152C20.3214 4.24241 20.32 4.24296 20.3185 4.24313C20.3133 4.2437 20.3081 4.24438 20.3029 4.24515L17.3067 4.68903C17.1411 4.70514 16.9831 4.76728 16.8509 4.86859C16.714 4.97343 16.6105 5.1157 16.5528 5.27817C16.4952 5.44064 16.4859 5.61635 16.5261 5.784C16.5661 5.951 16.6535 6.10288 16.7777 6.22138L18.971 8.33751L18.976 8.34225C18.9791 8.34518 18.9815 8.34884 18.9828 8.35291C18.9842 8.35698 18.9845 8.36132 18.9837 8.36554L18.9832 8.36834L18.4606 11.427L18.4605 11.4277C18.4318 11.5935 18.4501 11.764 18.5133 11.9198C18.5767 12.076 18.6826 12.2112 18.819 12.3101C18.9554 12.4089 19.1168 12.4675 19.2849 12.4792C19.4526 12.4908 19.6203 12.4553 19.7688 12.3766L19.7697 12.3761L22.4693 10.9494C22.4789 10.9452 22.4894 10.9429 22.5 10.9429C22.5106 10.9429 22.521 10.9452 22.5307 10.9494L25.2303 12.3761L25.2308 12.3763C25.3794 12.4553 25.5471 12.4909 25.7151 12.4792C25.8831 12.4675 26.0445 12.4089 26.1809 12.3101C26.3174 12.2112 26.4232 12.076 26.4866 11.9198C26.5498 11.764 26.5682 11.5936 26.5395 11.4279L26.5394 11.427L26.0167 8.36833L26.0163 8.36554C26.0155 8.36132 26.0158 8.35698 26.0171 8.35291C26.0185 8.34885 26.0209 8.34518 26.024 8.34225L26.0289 8.33751L28.2223 6.22135C28.3465 6.10285 28.4339 5.95099 28.4739 5.784C28.5141 5.61635 28.5048 5.44064 28.4471 5.27817C28.3894 5.1157 28.286 4.97343 28.1491 4.86859C28.0168 4.76728 27.8589 4.70514 27.6933 4.68903L24.6971 4.24515C24.6919 4.24438 24.6867 4.2437 24.6814 4.24313C24.68 4.24296 24.6785 4.24241 24.6773 4.24152C24.6761 4.24064 24.6752 4.23945 24.6746 4.23809C24.6721 4.23258 24.6695 4.22712 24.6669 4.22172L23.3061 1.47449C23.2345 1.32274 23.1214 1.19424 22.9799 1.10384C22.8366 1.01227 22.6701 0.963608 22.5 0.963608Z" fill="#333F48"/>
</g>
<g clip-path="url(#clip2_40_1420)">
<path fill-rule="evenodd" clip-rule="evenodd" d="M38.5 0.963608C38.3299 0.963608 38.1634 1.01227 38.02 1.10384C37.8785 1.19424 37.7655 1.32274 37.6939 1.4745L36.3331 4.22172C36.3304 4.22712 36.3278 4.23258 36.3254 4.23809C36.3248 4.23945 36.3238 4.24064 36.3226 4.24152C36.3214 4.24241 36.32 4.24296 36.3185 4.24313C36.3133 4.2437 36.3081 4.24438 36.3029 4.24515L33.3067 4.68903C33.1411 4.70514 32.9832 4.76728 32.8509 4.86859C32.714 4.97343 32.6105 5.1157 32.5528 5.27817C32.4952 5.44064 32.4859 5.61635 32.5261 5.784C32.5661 5.951 32.6535 6.10288 32.7777 6.22138L34.971 8.33751L34.976 8.34225C34.9791 8.34518 34.9815 8.34884 34.9828 8.35291C34.9842 8.35698 34.9845 8.36132 34.9837 8.36554L34.9832 8.36834L34.4606 11.427L34.4605 11.4277C34.4318 11.5935 34.4501 11.764 34.5133 11.9198C34.5767 12.076 34.6826 12.2112 34.819 12.3101C34.9554 12.4089 35.1168 12.4675 35.2849 12.4792C35.4526 12.4908 35.6203 12.4553 35.7688 12.3766L35.7697 12.3761L38.4693 10.9494C38.4789 10.9452 38.4894 10.9429 38.5 10.9429C38.5106 10.9429 38.521 10.9452 38.5307 10.9494L41.2303 12.3761L41.2308 12.3763C41.3794 12.4553 41.5471 12.4909 41.7151 12.4792C41.8831 12.4675 42.0445 12.4089 42.1809 12.3101C42.3174 12.2112 42.4232 12.076 42.4866 11.9198C42.5498 11.764 42.5682 11.5936 42.5395 11.4279L42.5394 11.427L42.0167 8.36833L42.0163 8.36554C42.0155 8.36132 42.0158 8.35698 42.0171 8.35291C42.0185 8.34885 42.0209 8.34518 42.024 8.34225L42.0289 8.33751L44.2223 6.22135C44.3465 6.10285 44.4339 5.95099 44.4739 5.784C44.5141 5.61635 44.5048 5.44064 44.4471 5.27817C44.3894 5.1157 44.286 4.97343 44.1491 4.86859C44.0168 4.76728 43.8589 4.70514 43.6933 4.68903L40.6971 4.24515C40.6919 4.24438 40.6867 4.2437 40.6814 4.24313C40.68 4.24296 40.6785 4.24241 40.6773 4.24152C40.6761 4.24064 40.6752 4.23945 40.6746 4.23809C40.6721 4.23258 40.6695 4.22712 40.6669 4.22172L39.3061 1.47449C39.2345 1.32274 39.1214 1.19424 38.9799 1.10384C38.8366 1.01227 38.6701 0.963608 38.5 0.963608Z" fill="#333F48"/>
</g>
<g clip-path="url(#clip3_40_1420)">
<path fill-rule="evenodd" clip-rule="evenodd" d="M54.5 0.963608C54.3299 0.963608 54.1634 1.01227 54.02 1.10384C53.8785 1.19424 53.7655 1.32274 53.6939 1.4745L52.3331 4.22172C52.3304 4.22712 52.3278 4.23258 52.3254 4.23809C52.3248 4.23945 52.3238 4.24064 52.3226 4.24152C52.3214 4.24241 52.32 4.24296 52.3185 4.24313C52.3133 4.2437 52.3081 4.24438 52.3029 4.24515L49.3067 4.68903C49.1411 4.70514 48.9832 4.76728 48.8509 4.86859C48.714 4.97343 48.6105 5.1157 48.5528 5.27817C48.4952 5.44064 48.4859 5.61635 48.5261 5.784C48.5661 5.951 48.6535 6.10288 48.7777 6.22138L50.971 8.33751L50.976 8.34225C50.9791 8.34518 50.9815 8.34884 50.9828 8.35291C50.9842 8.35698 50.9845 8.36132 50.9837 8.36554L50.9832 8.36834L50.4606 11.427L50.4605 11.4277C50.4318 11.5935 50.4501 11.764 50.5133 11.9198C50.5767 12.076 50.6826 12.2112 50.819 12.3101C50.9554 12.4089 51.1168 12.4675 51.2849 12.4792C51.4526 12.4908 51.6203 12.4553 51.7688 12.3766L51.7697 12.3761L54.4693 10.9494C54.4789 10.9452 54.4894 10.9429 54.5 10.9429C54.5106 10.9429 54.521 10.9452 54.5307 10.9494L57.2303 12.3761L57.2308 12.3763C57.3794 12.4553 57.5471 12.4909 57.7151 12.4792C57.8831 12.4675 58.0445 12.4089 58.1809 12.3101C58.3174 12.2112 58.4232 12.076 58.4866 11.9198C58.5498 11.764 58.5682 11.5936 58.5395 11.4279L58.5394 11.427L58.0167 8.36833L58.0163 8.36554C58.0155 8.36132 58.0158 8.35698 58.0171 8.35291C58.0185 8.34885 58.0209 8.34518 58.024 8.34225L58.0289 8.33751L60.2223 6.22135C60.3465 6.10285 60.4339 5.95099 60.4739 5.784C60.5141 5.61635 60.5048 5.44064 60.4471 5.27817C60.3894 5.1157 60.286 4.97343 60.1491 4.86859C60.0168 4.76728 59.8589 4.70514 59.6933 4.68903L56.6971 4.24515C56.6919 4.24438 56.6867 4.2437 56.6814 4.24313C56.68 4.24296 56.6785 4.24241 56.6773 4.24152C56.6761 4.24064 56.6752 4.23945 56.6746 4.23809C56.6721 4.23258 56.6695 4.22712 56.6669 4.22172L55.3061 1.47449C55.2345 1.32274 55.1214 1.19424 54.9799 1.10384C54.8366 1.01227 54.6701 0.963608 54.5 0.963608Z" fill="#333F48"/>
</g>
<g clip-path="url(#clip4_40_1420)">
<path fill-rule="evenodd" clip-rule="evenodd" d="M70.5 0.963608C70.3299 0.963608 70.1634 1.01227 70.02 1.10384C69.8785 1.19424 69.7655 1.32274 69.6939 1.4745L68.3331 4.22172C68.3304 4.22712 68.3278 4.23258 68.3254 4.23809C68.3248 4.23945 68.3238 4.24064 68.3226 4.24152C68.3214 4.24241 68.32 4.24296 68.3185 4.24313C68.3133 4.2437 68.3081 4.24438 68.3029 4.24515L65.3067 4.68903C65.1411 4.70514 64.9832 4.76728 64.8509 4.86859C64.714 4.97343 64.6105 5.1157 64.5528 5.27817C64.4952 5.44064 64.4859 5.61635 64.5261 5.784C64.5661 5.951 64.6535 6.10288 64.7777 6.22138L66.971 8.33751L66.976 8.34225C66.9791 8.34518 66.9815 8.34884 66.9828 8.35291C66.9842 8.35698 66.9845 8.36132 66.9837 8.36554L66.9832 8.36834L66.4606 11.427L66.4605 11.4277C66.4318 11.5935 66.4501 11.764 66.5133 11.9198C66.5767 12.076 66.6826 12.2112 66.819 12.3101C66.9554 12.4089 67.1168 12.4675 67.2849 12.4792C67.4526 12.4908 67.6203 12.4553 67.7688 12.3766L67.7697 12.3761L70.4693 10.9494C70.4789 10.9452 70.4894 10.9429 70.5 10.9429C70.5106 10.9429 70.521 10.9452 70.5307 10.9494L73.2303 12.3761L73.2308 12.3763C73.3794 12.4553 73.5471 12.4909 73.7151 12.4792C73.8831 12.4675 74.0445 12.4089 74.1809 12.3101C74.3174 12.2112 74.4232 12.076 74.4866 11.9198C74.5498 11.764 74.5682 11.5936 74.5395 11.4279L74.5394 11.427L74.0167 8.36833L74.0163 8.36554C74.0155 8.36132 74.0158 8.35698 74.0171 8.35291C74.0185 8.34885 74.0209 8.34518 74.024 8.34225L74.0289 8.33751L76.2223 6.22135C76.3465 6.10285 76.4339 5.95099 76.4739 5.784C76.5141 5.61635 76.5048 5.44064 76.4471 5.27817C76.3894 5.1157 76.286 4.97343 76.1491 4.86859C76.0168 4.76728 75.8589 4.70514 75.6933 4.68903L72.6971 4.24515C72.6919 4.24438 72.6867 4.2437 72.6814 4.24313C72.68 4.24296 72.6785 4.24241 72.6773 4.24152C72.6761 4.24064 72.6752 4.23945 72.6746 4.23809C72.6721 4.23258 72.6695 4.22712 72.6669 4.22172L71.3061 1.47449C71.2345 1.32274 71.1214 1.19424 70.9799 1.10384C70.8366 1.01227 70.6701 0.963608 70.5 0.963608Z" fill="#333F48"/>
</g>
<defs>
<clipPath id="clip0_40_1420">
<rect width="12" height="12" fill="white" transform="translate(0.5 0.726303)"/>
</clipPath>
<clipPath id="clip1_40_1420">
<rect width="12" height="12" fill="white" transform="translate(16.5 0.726303)"/>
</clipPath>
<clipPath id="clip2_40_1420">
<rect width="12" height="12" fill="white" transform="translate(32.5 0.726303)"/>
</clipPath>
<clipPath id="clip3_40_1420">
<rect width="12" height="12" fill="white" transform="translate(48.5 0.726303)"/>
</clipPath>
<clipPath id="clip4_40_1420">
<rect width="12" height="12" fill="white" transform="translate(64.5 0.726303)"/>
</clipPath>
</defs>
</svg>
