<svg width="137" height="25" viewBox="0 0 137 25" fill="none" xmlns="http://www.w3.org/2000/svg">
<g clip-path="url(#clip0_40_1510)">
<path fill-rule="evenodd" clip-rule="evenodd" d="M12.4999 0.945679C12.1598 0.945679 11.8267 1.043 11.5401 1.22614C11.2571 1.40695 11.031 1.66395 10.8877 1.96747L8.16615 7.46191C8.1608 7.47271 8.15569 7.48361 8.1508 7.49464C8.14959 7.49736 8.14767 7.49974 8.14525 7.50151C8.14283 7.50328 8.13999 7.50439 8.13702 7.50472C8.12658 7.50586 8.11616 7.50722 8.10577 7.50876L2.11334 8.39652C1.78214 8.42873 1.4663 8.55302 1.20176 8.75565C0.928033 8.96532 0.72098 9.24986 0.605676 9.5748C0.490373 9.89974 0.471768 10.2512 0.552115 10.5865C0.63215 10.9205 0.806953 11.2242 1.05547 11.4612L5.44194 15.6935L5.45194 15.703C5.45819 15.7088 5.46291 15.7161 5.46562 15.7243C5.46832 15.7324 5.46896 15.7411 5.46745 15.7495L5.46649 15.7551L4.42122 21.8724L4.42096 21.8739C4.36354 22.2055 4.40015 22.5464 4.52668 22.8581C4.65339 23.1704 4.8652 23.4408 5.138 23.6386C5.41081 23.8363 5.73364 23.9535 6.06978 23.9768C6.40525 24.0002 6.74053 23.929 7.03762 23.7716L7.03942 23.7706L12.4385 20.9172C12.4579 20.9088 12.4788 20.9043 12.5 20.9043C12.5212 20.9043 12.5421 20.9088 12.5614 20.9172L17.9605 23.7706L17.9615 23.7711C18.2588 23.929 18.5943 24.0003 18.9301 23.9768C19.2663 23.9535 19.5891 23.8363 19.8618 23.6386C20.1347 23.4408 20.3465 23.1704 20.4731 22.8581C20.5997 22.5464 20.6363 22.2056 20.5789 21.8743L20.5787 21.8724L19.5334 15.7551L19.5325 15.7495C19.531 15.7411 19.5317 15.7324 19.5342 15.7243C19.537 15.7162 19.5418 15.7088 19.5479 15.703L19.5579 15.6935L23.9446 11.4612C24.193 11.2242 24.3678 10.9204 24.4477 10.5865C24.5281 10.2512 24.5096 9.89974 24.3942 9.5748C24.2789 9.24986 24.0719 8.96532 23.7982 8.75565C23.5337 8.55302 23.2177 8.42873 22.8865 8.39652L16.8941 7.50876C16.8838 7.50722 16.8733 7.50586 16.8629 7.50472C16.8599 7.50439 16.8571 7.50328 16.8546 7.50151C16.8522 7.49974 16.8503 7.49736 16.8491 7.49464C16.8442 7.48361 16.8391 7.47271 16.8337 7.46191L14.1122 1.96745C13.9689 1.66394 13.7428 1.40694 13.4598 1.22614C13.1732 1.043 12.8401 0.945679 12.4999 0.945679Z" fill="#7369AB"/>
</g>
<g clip-path="url(#clip1_40_1510)">
<path fill-rule="evenodd" clip-rule="evenodd" d="M40.5 0.945679C40.1598 0.945679 39.8267 1.043 39.5401 1.22614C39.2571 1.40695 39.031 1.66395 38.8877 1.96747L36.1662 7.46191C36.1608 7.47271 36.1557 7.48361 36.1508 7.49464C36.1496 7.49736 36.1477 7.49974 36.1453 7.50151C36.1428 7.50328 36.14 7.50439 36.137 7.50472C36.1266 7.50586 36.1162 7.50722 36.1058 7.50876L30.1133 8.39652C29.7821 8.42873 29.4663 8.55302 29.2018 8.75565C28.928 8.96532 28.721 9.24986 28.6057 9.5748C28.4904 9.89974 28.4718 10.2512 28.5521 10.5865C28.6322 10.9205 28.807 11.2242 29.0555 11.4612L33.4419 15.6935L33.4519 15.703C33.4582 15.7088 33.4629 15.7161 33.4656 15.7243C33.4683 15.7324 33.469 15.7411 33.4675 15.7495L33.4665 15.7551L32.4212 21.8724L32.421 21.8739C32.3635 22.2055 32.4002 22.5464 32.5267 22.8581C32.6534 23.1704 32.8652 23.4408 33.138 23.6386C33.4108 23.8363 33.7336 23.9535 34.0698 23.9768C34.4053 24.0002 34.7405 23.929 35.0376 23.7716L35.0394 23.7706L40.4385 20.9172C40.4579 20.9088 40.4788 20.9043 40.5 20.9043C40.5212 20.9043 40.5421 20.9088 40.5614 20.9172L45.9605 23.7706L45.9615 23.7711C46.2588 23.929 46.5943 24.0003 46.9301 23.9768C47.2663 23.9535 47.5891 23.8363 47.8618 23.6386C48.1347 23.4408 48.3465 23.1704 48.4731 22.8581C48.5997 22.5464 48.6363 22.2056 48.5789 21.8743L48.5787 21.8724L47.5334 15.7551L47.5325 15.7495C47.531 15.7411 47.5317 15.7324 47.5342 15.7243C47.537 15.7162 47.5418 15.7088 47.5479 15.703L47.5579 15.6935L51.9446 11.4612C52.193 11.2242 52.3678 10.9204 52.4477 10.5865C52.5281 10.2512 52.5096 9.89974 52.3942 9.5748C52.2789 9.24986 52.0719 8.96532 51.7982 8.75565C51.5337 8.55302 51.2177 8.42873 50.8865 8.39652L44.8941 7.50876C44.8838 7.50722 44.8733 7.50586 44.8629 7.50472C44.8599 7.50439 44.8571 7.50328 44.8546 7.50151C44.8522 7.49974 44.8503 7.49736 44.8491 7.49464C44.8442 7.48361 44.8391 7.47271 44.8337 7.46191L42.1122 1.96745C41.9689 1.66394 41.7428 1.40694 41.4598 1.22614C41.1732 1.043 40.8401 0.945679 40.5 0.945679Z" fill="#7369AB"/>
</g>
<g clip-path="url(#clip2_40_1510)">
<path fill-rule="evenodd" clip-rule="evenodd" d="M68.5 0.945679C68.1598 0.945679 67.8267 1.043 67.5401 1.22614C67.2571 1.40695 67.031 1.66395 66.8877 1.96747L64.1662 7.46191C64.1608 7.47271 64.1557 7.48361 64.1508 7.49464C64.1496 7.49736 64.1477 7.49974 64.1453 7.50151C64.1428 7.50328 64.14 7.50439 64.137 7.50472C64.1266 7.50586 64.1162 7.50722 64.1058 7.50876L58.1133 8.39652C57.7821 8.42873 57.4663 8.55302 57.2018 8.75565C56.928 8.96532 56.721 9.24986 56.6057 9.5748C56.4904 9.89974 56.4718 10.2512 56.5521 10.5865C56.6322 10.9205 56.807 11.2242 57.0555 11.4612L61.4419 15.6935L61.4519 15.703C61.4582 15.7088 61.4629 15.7161 61.4656 15.7243C61.4683 15.7324 61.469 15.7411 61.4675 15.7495L61.4665 15.7551L60.4212 21.8724L60.421 21.8739C60.3635 22.2055 60.4002 22.5464 60.5267 22.8581C60.6534 23.1704 60.8652 23.4408 61.138 23.6386C61.4108 23.8363 61.7336 23.9535 62.0698 23.9768C62.4053 24.0002 62.7405 23.929 63.0376 23.7716L63.0394 23.7706L68.4385 20.9172C68.4579 20.9088 68.4788 20.9043 68.5 20.9043C68.5212 20.9043 68.5421 20.9088 68.5614 20.9172L73.9605 23.7706L73.9615 23.7711C74.2588 23.929 74.5943 24.0003 74.9301 23.9768C75.2663 23.9535 75.5891 23.8363 75.8618 23.6386C76.1347 23.4408 76.3465 23.1704 76.4731 22.8581C76.5997 22.5464 76.6363 22.2056 76.5789 21.8743L76.5787 21.8724L75.5334 15.7551L75.5325 15.7495C75.531 15.7411 75.5317 15.7324 75.5342 15.7243C75.537 15.7162 75.5418 15.7088 75.5479 15.703L75.5579 15.6935L79.9446 11.4612C80.193 11.2242 80.3678 10.9204 80.4477 10.5865C80.5281 10.2512 80.5096 9.89974 80.3942 9.5748C80.2789 9.24986 80.0719 8.96532 79.7982 8.75565C79.5337 8.55302 79.2177 8.42873 78.8865 8.39652L72.8941 7.50876C72.8838 7.50722 72.8733 7.50586 72.8629 7.50472C72.8599 7.50439 72.8571 7.50328 72.8546 7.50151C72.8522 7.49974 72.8503 7.49736 72.8491 7.49464C72.8442 7.48361 72.8391 7.47271 72.8337 7.46191L70.1122 1.96745C69.9689 1.66394 69.7428 1.40694 69.4598 1.22614C69.1732 1.043 68.8401 0.945679 68.5 0.945679Z" fill="#7369AB"/>
</g>
<g clip-path="url(#clip3_40_1510)">
<path fill-rule="evenodd" clip-rule="evenodd" d="M96.5 0.945679C96.1598 0.945679 95.8267 1.043 95.5401 1.22614C95.2571 1.40695 95.031 1.66395 94.8877 1.96747L92.1662 7.46191C92.1608 7.47271 92.1557 7.48361 92.1508 7.49464C92.1496 7.49736 92.1477 7.49974 92.1453 7.50151C92.1428 7.50328 92.14 7.50439 92.137 7.50472C92.1266 7.50586 92.1162 7.50722 92.1058 7.50876L86.1133 8.39652C85.7821 8.42873 85.4663 8.55302 85.2018 8.75565C84.928 8.96532 84.721 9.24986 84.6057 9.5748C84.4904 9.89974 84.4718 10.2512 84.5521 10.5865C84.6322 10.9205 84.807 11.2242 85.0555 11.4612L89.4419 15.6935L89.4519 15.703C89.4582 15.7088 89.4629 15.7161 89.4656 15.7243C89.4683 15.7324 89.469 15.7411 89.4675 15.7495L89.4665 15.7551L88.4212 21.8724L88.421 21.8739C88.3635 22.2055 88.4002 22.5464 88.5267 22.8581C88.6534 23.1704 88.8652 23.4408 89.138 23.6386C89.4108 23.8363 89.7336 23.9535 90.0698 23.9768C90.4053 24.0002 90.7405 23.929 91.0376 23.7716L91.0394 23.7706L96.4385 20.9172C96.4579 20.9088 96.4788 20.9043 96.5 20.9043C96.5212 20.9043 96.5421 20.9088 96.5614 20.9172L101.961 23.7706L101.962 23.7711C102.259 23.929 102.594 24.0003 102.93 23.9768C103.266 23.9535 103.589 23.8363 103.862 23.6386C104.135 23.4408 104.346 23.1704 104.473 22.8581C104.6 22.5464 104.636 22.2056 104.579 21.8743L104.579 21.8724L103.533 15.7551L103.533 15.7495C103.531 15.7411 103.532 15.7324 103.534 15.7243C103.537 15.7162 103.542 15.7088 103.548 15.703L103.558 15.6935L107.945 11.4612C108.193 11.2242 108.368 10.9204 108.448 10.5865C108.528 10.2512 108.51 9.89974 108.394 9.5748C108.279 9.24986 108.072 8.96532 107.798 8.75565C107.534 8.55302 107.218 8.42873 106.887 8.39652L100.894 7.50876C100.884 7.50722 100.873 7.50586 100.863 7.50472C100.86 7.50439 100.857 7.50328 100.855 7.50151C100.852 7.49974 100.85 7.49736 100.849 7.49464C100.844 7.48361 100.839 7.47271 100.834 7.46191L98.1122 1.96745C97.9689 1.66394 97.7428 1.40694 97.4598 1.22614C97.1732 1.043 96.8401 0.945679 96.5 0.945679Z" fill="#7369AB"/>
</g>
<g clip-path="url(#clip4_40_1510)">
<path fill-rule="evenodd" clip-rule="evenodd" d="M124.5 0.945679C124.16 0.945679 123.827 1.043 123.54 1.22614C123.257 1.40695 123.031 1.66395 122.888 1.96747L120.166 7.46191C120.161 7.47271 120.156 7.48361 120.151 7.49464C120.15 7.49736 120.148 7.49974 120.145 7.50151C120.143 7.50328 120.14 7.50439 120.137 7.50472C120.127 7.50586 120.116 7.50722 120.106 7.50876L114.113 8.39652C113.782 8.42873 113.466 8.55302 113.202 8.75565C112.928 8.96532 112.721 9.24986 112.606 9.5748C112.49 9.89974 112.472 10.2512 112.552 10.5865C112.632 10.9205 112.807 11.2242 113.055 11.4612L117.442 15.6935L117.452 15.703C117.458 15.7088 117.463 15.7161 117.466 15.7243C117.468 15.7324 117.469 15.7411 117.467 15.7495L117.466 15.7551L116.421 21.8724L116.421 21.8739C116.364 22.2055 116.4 22.5464 116.527 22.8581C116.653 23.1704 116.865 23.4408 117.138 23.6386C117.411 23.8363 117.734 23.9535 118.07 23.9768C118.405 24.0002 118.741 23.929 119.038 23.7716L119.039 23.7706L124.439 20.9172C124.458 20.9088 124.479 20.9043 124.5 20.9043C124.521 20.9043 124.542 20.9088 124.561 20.9172L129.961 23.7706L129.962 23.7711C130.259 23.929 130.594 24.0003 130.93 23.9768C131.266 23.9535 131.589 23.8363 131.862 23.6386C132.135 23.4408 132.346 23.1704 132.473 22.8581C132.6 22.5464 132.636 22.2056 132.579 21.8743L132.579 21.8724L131.533 15.7551L131.533 15.7495C131.531 15.7411 131.532 15.7324 131.534 15.7243C131.537 15.7162 131.542 15.7088 131.548 15.703L131.558 15.6935L135.945 11.4612C136.193 11.2242 136.368 10.9204 136.448 10.5865C136.528 10.2512 136.51 9.89974 136.394 9.5748C136.279 9.24986 136.072 8.96532 135.798 8.75565C135.534 8.55302 135.218 8.42873 134.887 8.39652L128.894 7.50876C128.884 7.50722 128.873 7.50586 128.863 7.50472C128.86 7.50439 128.857 7.50328 128.855 7.50151C128.852 7.49974 128.85 7.49736 128.849 7.49464C128.844 7.48361 128.839 7.47271 128.834 7.46191L126.112 1.96745C125.969 1.66394 125.743 1.40694 125.46 1.22614C125.173 1.043 124.84 0.945679 124.5 0.945679Z" fill="#7369AB"/>
</g>
<defs>
<clipPath id="clip0_40_1510">
<rect width="24" height="24" fill="white" transform="translate(0.5 0.471069)"/>
</clipPath>
<clipPath id="clip1_40_1510">
<rect width="24" height="24" fill="white" transform="translate(28.5 0.471069)"/>
</clipPath>
<clipPath id="clip2_40_1510">
<rect width="24" height="24" fill="white" transform="translate(56.5 0.471069)"/>
</clipPath>
<clipPath id="clip3_40_1510">
<rect width="24" height="24" fill="white" transform="translate(84.5 0.471069)"/>
</clipPath>
<clipPath id="clip4_40_1510">
<rect width="24" height="24" fill="white" transform="translate(112.5 0.471069)"/>
</clipPath>
</defs>
</svg>
