<svg class="user-icon" version="1.1" id="Layer_1" xmlns="http://www.w3.org/2000/svg" xmlns:xlink="http://www.w3.org/1999/xlink" x="0px" y="0px"
	 viewBox="0 0 350 350" style="enable-background:new 0 0 350 350;" xml:space="preserve">
<g>
	<circle fill="currentColor" cx="175" cy="175" r="168.5"/>
	<path fill="currentColor" d="M175,312.1c28.3,0,54.8-7.7,77.5-21.1c7.9-4.7,24.1-17.8,23.2-27c0,0-42.3-47.2-80.8-50.8
		c-1.3-0.1-2.3-1.2-2.3-2.5v0c0-1,0.6-1.9,1.6-2.3c24.4-10.3,42-39.7,42-74.5c0-43.3-27.3-78.4-60.9-78.4
		c-33.7,0-60.9,35.1-60.9,78.4c0,34.8,17.6,64.2,42,74.5c0.9,0.4,1.6,1.3,1.6,2.3v0c0,1.3-1,2.4-2.3,2.5c-38.6,3.6-83,51-83,51
		c-0.9,9.2,17.4,22.4,25.4,27C120.5,304.5,146.9,312.1,175,312.1z"/>
</g>
</svg>
