<svg width="17" height="16" viewBox="0 0 17 16" fill="none" xmlns="http://www.w3.org/2000/svg">
<g id="Group 89">
<path id="Vector (Stroke)" fill-rule="evenodd" clip-rule="evenodd" d="M8.49995 3.19995C8.94178 3.19995 9.29995 3.55812 9.29995 3.99995V7.19995L12.5 7.19995C12.9418 7.19995 13.3 7.55812 13.3 7.99995C13.3 8.44178 12.9418 8.79995 12.5 8.79995H9.29995V12C9.29995 12.4418 8.94178 12.8 8.49995 12.8C8.05812 12.8 7.69995 12.4418 7.69995 12L7.69995 8.79995L4.49995 8.79995C4.05812 8.79995 3.69995 8.44178 3.69995 7.99995C3.69995 7.55812 4.05812 7.19995 4.49995 7.19995L7.69995 7.19995V3.99995C7.69995 3.55812 8.05812 3.19995 8.49995 3.19995Z" fill="white"/>
<path id="Ellipse 131 (Stroke)" fill-rule="evenodd" clip-rule="evenodd" d="M8.5 1.6C4.96538 1.6 2.1 4.46538 2.1 8C2.1 11.5346 4.96538 14.4 8.5 14.4C12.0346 14.4 14.9 11.5346 14.9 8C14.9 4.46538 12.0346 1.6 8.5 1.6ZM0.5 8C0.5 3.58172 4.08172 0 8.5 0C12.9183 0 16.5 3.58172 16.5 8C16.5 12.4183 12.9183 16 8.5 16C4.08172 16 0.5 12.4183 0.5 8Z" fill="white"/>
</g>
</svg>
