<svg xmlns="http://www.w3.org/2000/svg" width="17" height="16" viewBox="0 0 17 16" fill="none">
  <g clip-path="url(#clip0_8696_11483)">
    <path fill-rule="evenodd" clip-rule="evenodd" d="M0.5 1.77778C0.5 0.795938 1.29594 0 2.27778 0H5.83333C6.81517 0 7.61111 0.795938 7.61111 1.77778V5.33333C7.61111 6.31517 6.81517 7.11111 5.83333 7.11111H2.27778C1.29594 7.11111 0.5 6.31517 0.5 5.33333V1.77778ZM5.83333 1.77778H2.27778V5.33333H5.83333V1.77778ZM9.38889 1.77778C9.38889 0.795938 10.1848 0 11.1667 0H14.7222C15.7041 0 16.5 0.795938 16.5 1.77778V5.33333C16.5 6.31517 15.7041 7.11111 14.7222 7.11111H11.1667C10.1848 7.11111 9.38889 6.31517 9.38889 5.33333V1.77778ZM14.7222 1.77778H11.1667V5.33333H14.7222V1.77778ZM0.5 10.6667C0.5 9.68483 1.29594 8.88889 2.27778 8.88889H5.83333C6.81517 8.88889 7.61111 9.68483 7.61111 10.6667V14.2222C7.61111 15.2041 6.81517 16 5.83333 16H2.27778C1.29594 16 0.5 15.2041 0.5 14.2222V10.6667ZM5.83333 10.6667H2.27778V14.2222H5.83333V10.6667ZM9.38889 10.6667C9.38889 9.68483 10.1848 8.88889 11.1667 8.88889H14.7222C15.7041 8.88889 16.5 9.68483 16.5 10.6667V14.2222C16.5 15.2041 15.7041 16 14.7222 16H11.1667C10.1848 16 9.38889 15.2041 9.38889 14.2222V10.6667ZM14.7222 10.6667H11.1667V14.2222H14.7222V10.6667Z" fill="white"/>
  </g>
  <defs>
    <clipPath id="clip0_8696_11483">
      <rect width="16" height="16" fill="white" transform="translate(0.5)"/>
    </clipPath>
  </defs>
</svg>