<svg xmlns="http://www.w3.org/2000/svg" width="20" height="24" viewBox="0 0 20 24" fill="none">
  <path fill-rule="evenodd" clip-rule="evenodd" d="M9.6 3.60001C6.94904 3.60001 4.8 5.74905 4.8 8.40001V11.7076C4.8 13.2601 3.73136 14.4404 3.05966 15.1474C2.64974 15.5788 2.4 16.159 2.4 16.8H16.8C16.8 16.159 16.5503 15.5788 16.1403 15.1474C15.4686 14.4404 14.4 13.2601 14.4 11.7076V8.40001C14.4 5.74905 12.251 3.60001 9.6 3.60001ZM2.4 8.40001C2.4 4.42356 5.62355 1.20001 9.6 1.20001C13.5765 1.20001 16.8 4.42356 16.8 8.40001V11.7076C16.8 12.1895 17.1508 12.7265 17.8803 13.4943C18.697 14.354 19.2 15.5195 19.2 16.8C19.2 18.1255 18.1255 19.2 16.8 19.2H2.4C1.07452 19.2 0 18.1255 0 16.8C0 15.5195 0.502976 14.354 1.31971 13.4943C2.0492 12.7265 2.4 12.1895 2.4 11.7076V8.40001Z" fill="white"/>
  <path fill-rule="evenodd" clip-rule="evenodd" d="M6.91892 20.2986C7.52247 20.0249 8.23369 20.2922 8.50747 20.8957C8.60154 21.1031 8.75267 21.2794 8.94322 21.4041C9.13376 21.5288 9.35585 21.5967 9.58354 21.5999C9.81123 21.6031 10.0351 21.5414 10.2291 21.4221C10.423 21.3028 10.579 21.1307 10.6788 20.9261C10.9694 20.3304 11.6878 20.083 12.2834 20.3735C12.8791 20.6641 13.1265 21.3825 12.836 21.9781C12.5365 22.5921 12.0685 23.1083 11.4866 23.4662C10.9048 23.8242 10.2331 24.0092 9.55003 23.9997C8.86695 23.9901 8.20069 23.7864 7.62906 23.4124C7.05743 23.0383 6.60404 22.5093 6.32183 21.8872C6.04805 21.2836 6.31538 20.5724 6.91892 20.2986Z" fill="white"/>
  <path fill-rule="evenodd" clip-rule="evenodd" d="M9.5999 0C10.2626 0 10.7999 0.537258 10.7999 1.2V2.4C10.7999 3.06274 10.2626 3.6 9.5999 3.6C8.93716 3.6 8.3999 3.06274 8.3999 2.4V1.2C8.3999 0.537258 8.93716 0 9.5999 0Z" fill="white"/>
</svg>