<svg xmlns="http://www.w3.org/2000/svg" width="21" height="24" viewBox="0 0 21 24" fill="none">
  <path fill-rule="evenodd" clip-rule="evenodd" d="M0.439339 15.4393C1.02513 14.8536 1.97487 14.8536 2.56066 15.4393L6 18.8787L6 7.5C6 3.35786 9.35786 -4.09045e-07 13.5 -5.90104e-07L19.5 -8.52372e-07C20.3284 -8.88584e-07 21 0.671571 21 1.5C21 2.32843 20.3284 3 19.5 3L13.5 3C11.0147 3 9 5.01472 9 7.5L9 18.8787L12.4393 15.4393C13.0251 14.8536 13.9749 14.8536 14.5607 15.4393C15.1464 16.0251 15.1464 16.9749 14.5607 17.5607L8.56066 23.5607C7.97487 24.1464 7.02513 24.1464 6.43934 23.5607L0.43934 17.5607C-0.146447 16.9749 -0.146447 16.0251 0.439339 15.4393Z" fill="#7369AB"/>
</svg>