<svg width="24" height="24" viewBox="0 0 24 24" fill="none" xmlns="http://www.w3.org/2000/svg">
<g id="Group 83">
<path id="Vector 210 (Stroke)" fill-rule="evenodd" clip-rule="evenodd" d="M18.8486 7.55142C19.3172 8.02005 19.3172 8.77985 18.8486 9.24848L10.4486 17.6485C9.97995 18.1171 9.22015 18.1171 8.75152 17.6485L5.15152 14.0485C4.68289 13.5799 4.68289 12.8201 5.15152 12.3514C5.62015 11.8828 6.37995 11.8828 6.84858 12.3514L9.60005 15.1029L17.1515 7.55142C17.6201 7.08279 18.3799 7.08279 18.8486 7.55142Z" fill="white"/>
<path id="Ellipse 131 (Stroke)" fill-rule="evenodd" clip-rule="evenodd" d="M12 2.4C6.69807 2.4 2.4 6.69807 2.4 12C2.4 17.3019 6.69807 21.6 12 21.6C17.3019 21.6 21.6 17.3019 21.6 12C21.6 6.69807 17.3019 2.4 12 2.4ZM0 12C0 5.37258 5.37258 0 12 0C18.6274 0 24 5.37258 24 12C24 18.6274 18.6274 24 12 24C5.37258 24 0 18.6274 0 12Z" fill="white"/>
</g>
</svg>
