<svg xmlns="http://www.w3.org/2000/svg" width="17" height="17" viewBox="0 0 17 17" fill="none">
  <path fill-rule="evenodd" clip-rule="evenodd" d="M5.70111 5.45361C6.01353 5.14119 6.52006 5.14119 6.83248 5.45361L11.6325 10.2536C11.9449 10.566 11.9449 11.0726 11.6325 11.385C11.3201 11.6974 10.8135 11.6974 10.5011 11.385L5.70111 6.58498C5.38869 6.27257 5.38869 5.76603 5.70111 5.45361Z" fill="white"/>
  <path fill-rule="evenodd" clip-rule="evenodd" d="M11.6329 5.45361C11.9453 5.76603 11.9453 6.27257 11.6329 6.58498L6.83287 11.385C6.52045 11.6974 6.01392 11.6974 5.7015 11.385C5.38908 11.0726 5.38908 10.566 5.7015 10.2536L10.5015 5.45361C10.8139 5.14119 11.3205 5.14119 11.6329 5.45361Z" fill="white"/>
  <path fill-rule="evenodd" clip-rule="evenodd" d="M8.66699 2.01931C5.13237 2.01931 2.26699 4.88469 2.26699 8.41931C2.26699 11.9539 5.13237 14.8193 8.66699 14.8193C12.2016 14.8193 15.067 11.9539 15.067 8.41931C15.067 4.88469 12.2016 2.01931 8.66699 2.01931ZM0.666992 8.41931C0.666992 4.00103 4.24871 0.419312 8.66699 0.419312C13.0853 0.419312 16.667 4.00103 16.667 8.41931C16.667 12.8376 13.0853 16.4193 8.66699 16.4193C4.24871 16.4193 0.666992 12.8376 0.666992 8.41931Z" fill="white"/>
</svg>