<svg width="27" height="26" viewBox="0 0 27 26" fill="none" xmlns="http://www.w3.org/2000/svg">
<g id="Group 84">
<path id="Vector 211 (Stroke)" fill-rule="evenodd" clip-rule="evenodd" d="M8.78534 8.28534C9.28201 7.78868 10.0873 7.78868 10.5839 8.28534L18.2147 15.9161C18.7114 16.4128 18.7114 17.218 18.2147 17.7147C17.718 18.2114 16.9128 18.2114 16.4161 17.7147L8.78534 10.0839C8.28868 9.58726 8.28868 8.78201 8.78534 8.28534Z" fill="white"/>
<path id="Vector 212 (Stroke)" fill-rule="evenodd" clip-rule="evenodd" d="M18.2148 8.28534C18.7114 8.78201 18.7114 9.58726 18.2148 10.0839L10.584 17.7147C10.0873 18.2114 9.28209 18.2114 8.78542 17.7147C8.28876 17.218 8.28876 16.4128 8.78542 15.9161L16.4162 8.28534C16.9129 7.78868 17.7181 7.78868 18.2148 8.28534Z" fill="white"/>
<path id="Ellipse 131 (Stroke)" fill-rule="evenodd" clip-rule="evenodd" d="M13.5001 2.82557C7.88091 2.82557 3.32569 7.38079 3.32569 12.9999C3.32569 18.6191 7.88091 23.1743 13.5001 23.1743C19.1192 23.1743 23.6744 18.6191 23.6744 12.9999C23.6744 7.38079 19.1192 2.82557 13.5001 2.82557ZM0.782104 12.9999C0.782104 5.976 6.47612 0.281982 13.5001 0.281982C20.524 0.281982 26.218 5.976 26.218 12.9999C26.218 20.0239 20.524 25.7179 13.5001 25.7179C6.47612 25.7179 0.782104 20.0239 0.782104 12.9999Z" fill="white"/>
</g>
</svg>
