<svg width="14" height="14" viewBox="0 0 14 14" fill="none" xmlns="http://www.w3.org/2000/svg">
<g id="Group 80">
<path id="Vector 211 (Stroke)" fill-rule="evenodd" clip-rule="evenodd" d="M0.723532 0.723898C1.24423 0.203199 2.08845 0.203199 2.60915 0.723898L13.2758 11.3906C13.7965 11.9113 13.7965 12.7555 13.2758 13.2762C12.7551 13.7969 11.9109 13.7969 11.3902 13.2762L0.723532 2.60952C0.202833 2.08882 0.202833 1.2446 0.723532 0.723898Z" fill="white"/>
<path id="Vector 212 (Stroke)" fill-rule="evenodd" clip-rule="evenodd" d="M13.2755 0.723898C13.7962 1.2446 13.7962 2.08882 13.2755 2.60952L2.60882 13.2762C2.08812 13.7969 1.24391 13.7969 0.723206 13.2762C0.202508 12.7555 0.202508 11.9113 0.723206 11.3906L11.3899 0.723898C11.9106 0.203199 12.7548 0.203199 13.2755 0.723898Z" fill="white"/>
</g>
</svg>
