<svg width="15" height="16" viewBox="0 0 15 16" fill="none" xmlns="http://www.w3.org/2000/svg">
<g id="copy-regular (1) 1" clip-path="url(#clip0_10832_11259)">
<path id="Vector" d="M10.8151 1.14645L10.6686 1H10.4615H6.08337C5.53223 1 5.08337 1.44886 5.08337 2V10C5.08337 10.5511 5.53223 11 6.08337 11H12.0834C12.6345 11 13.0834 10.5511 13.0834 10V3.62188V3.41477L12.9369 3.26832L10.8151 1.14645ZM13.2889 2.91579L13.2892 2.91605C13.4777 3.10453 13.5834 3.359 13.5834 3.62188V10C13.5834 10.827 12.9104 11.5 12.0834 11.5H6.08337C5.25639 11.5 4.58337 10.827 4.58337 10V2C4.58337 1.17302 5.25639 0.5 6.08337 0.5H10.4646C10.7275 0.5 10.982 0.605705 11.1704 0.794178L13.2889 2.91579ZM0.583374 6C0.583374 5.17302 1.25639 4.5 2.08337 4.5H2.58337V5H2.08337C1.53223 5 1.08337 5.44886 1.08337 6V14C1.08337 14.5511 1.53223 15 2.08337 15H8.08337C8.63452 15 9.08337 14.5511 9.08337 14V13.5H9.58337V14C9.58337 14.827 8.91036 15.5 8.08337 15.5H2.08337C1.25639 15.5 0.583374 14.827 0.583374 14V6Z" fill="white" stroke="#C74D2F"/>
</g>
<defs>
<clipPath id="clip0_10832_11259">
<rect width="14" height="16" fill="white" transform="translate(0.083374)"/>
</clipPath>
</defs>
</svg>
