<svg xmlns="http://www.w3.org/2000/svg" width="24" height="24" viewBox="0 0 24 24" fill="none">
  <g clip-path="url(#clip0_8416_19788)">
    <path fill-rule="evenodd" clip-rule="evenodd" d="M18 3.42857H16.2857V0.857143C16.2857 0.384 15.9017 0 15.4286 0C14.9554 0 14.5714 0.384 14.5714 0.857143V3.42857H12.8571V0.857143C12.8571 0.384 12.4731 0 12 0C11.5269 0 11.1429 0.384 11.1429 0.857143V3.42857H9.42857V0.857143C9.42857 0.384 9.04457 0 8.57143 0C8.09829 0 7.71429 0.384 7.71429 0.857143V3.42857H6V0.857143C6 0.384 5.616 0 5.14286 0C4.66971 0 4.28571 0.384 4.28571 0.857143V4.08429C4.21457 4.14771 4.14771 4.21457 4.08429 4.28571H0.857143C0.384 4.28571 0 4.66971 0 5.14286C0 5.616 0.384 6 0.857143 6H3.42857V7.71429H0.857143C0.384 7.71429 0 8.09829 0 8.57143C0 9.04457 0.384 9.42857 0.857143 9.42857H3.42857V11.1429H0.857143C0.384 11.1429 0 11.5269 0 12C0 12.4731 0.384 12.8571 0.857143 12.8571H3.42857V14.5714H0.857143C0.384 14.5714 0 14.9554 0 15.4286C0 15.9017 0.384 16.2857 0.857143 16.2857H3.42857V18H0.857143C0.384 18 0 18.384 0 18.8571C0 19.3303 0.384 19.7143 0.857143 19.7143H4.08429C4.14771 19.7854 4.21457 19.8523 4.28571 19.9157V23.1429C4.28571 23.616 4.66971 24 5.14286 24C5.616 24 6 23.616 6 23.1429V20.5714H7.71429V23.1429C7.71429 23.616 8.09829 24 8.57143 24C9.04457 24 9.42857 23.616 9.42857 23.1429V20.5714H11.1429V23.1429C11.1429 23.616 11.5269 24 12 24C12.4731 24 12.8571 23.616 12.8571 23.1429V20.5714H14.5714V23.1429C14.5714 23.616 14.9554 24 15.4286 24C15.9017 24 16.2857 23.616 16.2857 23.1429V20.5714H18V23.1429C18 23.616 18.384 24 18.8571 24C19.3303 24 19.7143 23.616 19.7143 23.1429V19.9157C19.7854 19.8523 19.8523 19.7854 19.9157 19.7143H23.1429C23.616 19.7143 24 19.3303 24 18.8571C24 18.384 23.616 18 23.1429 18H20.5714V16.2857H23.1429C23.616 16.2857 24 15.9017 24 15.4286C24 14.9554 23.616 14.5714 23.1429 14.5714H20.5714V12.8571H23.1429C23.616 12.8571 24 12.4731 24 12C24 11.5269 23.616 11.1429 23.1429 11.1429H20.5714V9.42857H23.1429C23.616 9.42857 24 9.04457 24 8.57143C24 8.09829 23.616 7.71429 23.1429 7.71429H20.5714V6H23.1429C23.616 6 24 5.616 24 5.14286C24 4.66971 23.616 4.28571 23.1429 4.28571H19.9157C19.8523 4.21457 19.7854 4.14771 19.7143 4.08429V0.857143C19.7143 0.384 19.3303 0 18.8571 0C18.384 0 18 0.384 18 0.857143V3.42857ZM18.8571 6V18C18.8571 18.4731 18.4731 18.8571 18 18.8571H6C5.52686 18.8571 5.14286 18.4731 5.14286 18V6C5.14286 5.52686 5.52686 5.14286 6 5.14286H18C18.4731 5.14286 18.8571 5.52686 18.8571 6ZM17.1429 9.42857C17.1429 8.00914 15.9909 6.85714 14.5714 6.85714H9.42857C8.00914 6.85714 6.85714 8.00914 6.85714 9.42857V14.5714C6.85714 15.9909 8.00914 17.1429 9.42857 17.1429H14.5714C15.9909 17.1429 17.1429 15.9909 17.1429 14.5714V9.42857ZM15.4286 9.42857V14.5714C15.4286 15.0446 15.0446 15.4286 14.5714 15.4286H9.42857C8.95543 15.4286 8.57143 15.0446 8.57143 14.5714V9.42857C8.57143 8.95543 8.95543 8.57143 9.42857 8.57143H14.5714C15.0446 8.57143 15.4286 8.95543 15.4286 9.42857Z" fill="#7369AB"/>
  </g>
  <defs>
    <clipPath id="clip0_8416_19788">
      <rect width="24" height="24" fill="white"/>
    </clipPath>
  </defs>
</svg>