<svg width="14" height="14" viewBox="0 0 14 14" fill="none" xmlns="http://www.w3.org/2000/svg">
<g id="Group 19">
<path id="Vector 225 (Stroke)" fill-rule="evenodd" clip-rule="evenodd" d="M5.4832 6.30005C5.8698 6.30005 6.1832 6.61345 6.1832 7.00005V10.5C6.1832 10.8866 5.8698 11.2 5.4832 11.2C5.0966 11.2 4.7832 10.8866 4.7832 10.5V7.00005C4.7832 6.61345 5.0966 6.30005 5.4832 6.30005Z" fill="#C74D2F"/>
<path id="Vector 226 (Stroke)" fill-rule="evenodd" clip-rule="evenodd" d="M8.28398 6.30005C8.67058 6.30005 8.98398 6.61345 8.98398 7.00005V10.5C8.98398 10.8866 8.67058 11.2 8.28398 11.2C7.89739 11.2 7.58398 10.8866 7.58398 10.5V7.00005C7.58398 6.61345 7.89739 6.30005 8.28398 6.30005Z" fill="#C74D2F"/>
<path id="Vector 224 (Stroke)" fill-rule="evenodd" clip-rule="evenodd" d="M0.583984 3.50005C0.583984 3.11345 0.897385 2.80005 1.28398 2.80005H12.484C12.8706 2.80005 13.184 3.11345 13.184 3.50005C13.184 3.88665 12.8706 4.20005 12.484 4.20005H1.28398C0.897385 4.20005 0.583984 3.88665 0.583984 3.50005Z" fill="#C74D2F"/>
<path id="Rectangle 118 (Stroke)" fill-rule="evenodd" clip-rule="evenodd" d="M2.68437 4.90002C3.07097 4.90002 3.38437 5.21343 3.38437 5.60002V11.2C3.38437 11.9732 4.01118 12.6 4.78437 12.6H8.98437C9.75757 12.6 10.3844 11.9732 10.3844 11.2V5.60002C10.3844 5.21343 10.6978 4.90002 11.0844 4.90002C11.471 4.90002 11.7844 5.21343 11.7844 5.60002V11.2C11.7844 12.7464 10.5308 14 8.98437 14H4.78437C3.23798 14 1.98438 12.7464 1.98438 11.2V5.60002C1.98438 5.21343 2.29778 4.90002 2.68437 4.90002Z" fill="#C74D2F"/>
<path id="Rectangle 117 (Stroke)" fill-rule="evenodd" clip-rule="evenodd" d="M4.08398 2.1C4.08398 0.940202 5.02419 0 6.18398 0H7.58398C8.74378 0 9.68398 0.940202 9.68398 2.1V3.5C9.68398 3.8866 9.37058 4.2 8.98398 4.2H4.78398C4.39739 4.2 4.08398 3.8866 4.08398 3.5V2.1ZM6.18398 1.4C5.79739 1.4 5.48398 1.7134 5.48398 2.1V2.8H8.28398V2.1C8.28398 1.7134 7.97058 1.4 7.58398 1.4H6.18398Z" fill="#C74D2F"/>
</g>
</svg>
