<svg xmlns="http://www.w3.org/2000/svg" width="26" height="32" viewBox="0 0 26 32" fill="none">
  <path d="M2.58932 25.9329C3.63224 25.7636 4.34045 24.7809 4.17116 23.738C4.00187 22.6951 3.01919 21.9868 1.97627 22.1561C0.933347 22.3254 0.225128 23.3081 0.394417 24.351C0.563707 25.3939 1.5464 26.1022 2.58932 25.9329Z" fill="#5273A8"/>
  <path d="M2.2784 26.3282C1.0223 26.3282 0 25.3059 0 24.0498C0 22.7937 1.0223 21.7714 2.2784 21.7714C3.5345 21.7714 4.5568 22.7937 4.5568 24.0498C4.5568 25.3059 3.5345 26.3282 2.2784 26.3282ZM2.2784 22.502C1.4247 22.502 0.730616 23.1961 0.730616 24.0498C0.730616 24.9035 1.4247 25.5975 2.2784 25.5975C3.1321 25.5975 3.82618 24.9035 3.82618 24.0498C3.82618 23.1961 3.1321 22.502 2.2784 22.502Z" fill="#09090D"/>
  <path d="M16.3198 0.365553H7.0112C4.47035 0.365553 2.41113 2.42533 2.41113 4.96562V27.0336C2.41113 29.5745 4.47091 31.6337 7.0112 31.6337H20.2916C22.8324 31.6337 24.8916 29.5739 24.8916 27.0336V8.9368L16.3198 0.36499V0.365553Z" fill="white"/>
  <path d="M20.2907 31.9995H7.0103C4.27218 31.9995 2.04492 29.7722 2.04492 27.0341V4.96612C2.04492 2.22799 4.27218 0.000732422 7.0103 0.000732422H16.3189C16.4156 0.000732422 16.5089 0.0389506 16.5774 0.107516L25.1487 8.67933C25.2173 8.7479 25.2555 8.84063 25.2555 8.93786V27.0347C25.2555 29.7728 23.0282 32 20.2901 32L20.2907 31.9995ZM7.01087 0.730793C4.6757 0.730793 2.7761 2.63039 2.7761 4.96556V27.0335C2.7761 29.3687 4.6757 31.2683 7.01087 31.2683H20.2912C22.6264 31.2683 24.526 29.3687 24.526 27.0335V9.08848L16.1683 0.730793H7.01087Z" fill="#09090D"/>
  <path d="M16.3193 0.365479L24.8911 8.93729H18.1476C17.1382 8.93729 16.3193 8.119 16.3193 7.10907V0.365479Z" fill="#E4E4EB"/>
  <path d="M24.8923 9.30256C24.8923 9.30256 24.8918 9.30256 24.8912 9.30256H18.1476C16.9382 9.30256 15.9541 8.31848 15.9541 7.10903V0.365436C15.9541 0.217627 16.0429 0.0844293 16.1795 0.0276661C16.316 -0.0285352 16.4728 0.00237054 16.5774 0.106905L25.1323 8.66187C25.2088 8.72875 25.2571 8.82709 25.2571 8.93668C25.2571 9.13845 25.0935 9.30199 24.8918 9.30199L24.8923 9.30256ZM16.6847 1.24779V7.10959C16.6847 7.91608 17.3406 8.5725 18.1476 8.5725H24.0094L16.6853 1.24836L16.6847 1.24779Z" fill="#09090D"/>
  <path d="M2.45206 13.0175C1.31567 13.0175 0.394531 13.9386 0.394531 15.075V23.6912H0.432182C0.615398 22.7425 1.44943 22.0254 2.45206 22.0254H23.1723V13.0175H2.45206Z" fill="#5273A8"/>
  <path d="M0.432256 24.0566H0.394605C0.192843 24.0566 0.0292969 23.893 0.0292969 23.6913V15.0751C0.0292969 13.7392 1.11623 12.6522 2.45213 12.6522H23.1724C23.3742 12.6522 23.5377 12.8158 23.5377 13.0175V22.0255C23.5377 22.2272 23.3742 22.3908 23.1724 22.3908H2.45213C1.64283 22.3908 0.943687 22.9668 0.79082 23.7604C0.757661 23.9324 0.607041 24.0566 0.432256 24.0566ZM2.45213 13.3828C1.51919 13.3828 0.759913 14.1421 0.759913 15.0751V22.3497C1.20053 21.9204 1.80132 21.6602 2.45213 21.6602H22.8071V13.3828H2.45213Z" fill="#09090D"/>
  <path d="M4.85547 15.3109C4.85547 15.1586 4.97967 15.0344 5.12523 15.0344H6.53645C8.05838 15.0344 9.1099 16.0792 9.1099 17.4421V17.4561C9.1099 18.819 8.05838 19.8773 6.53645 19.8773H5.12523C4.97967 19.8773 4.85547 19.7525 4.85547 19.6008V15.3115V15.3109ZM6.53645 19.372C7.76108 19.372 8.54283 18.5419 8.54283 17.4696V17.4556C8.54283 16.3833 7.76108 15.5391 6.53645 15.5391H5.40174V19.3715H6.53645V19.372Z" fill="white"/>
  <path d="M10.0508 17.4697V17.4556C10.0508 16.1203 11.054 14.9513 12.5276 14.9513C14.0012 14.9513 14.9903 16.1068 14.9903 17.4416V17.4556C14.9903 18.791 13.9871 19.9599 12.5135 19.9599C11.0399 19.9599 10.0508 18.8045 10.0508 17.4697ZM14.4232 17.4697V17.4556C14.4232 16.3558 13.6207 15.4565 12.5141 15.4565C11.4075 15.4565 10.6184 16.3423 10.6184 17.4421V17.4562C10.6184 18.556 11.421 19.4553 12.5276 19.4553C13.6342 19.4553 14.4232 18.5695 14.4232 17.4697Z" fill="white"/>
  <path d="M15.9316 17.4697V17.4556C15.9316 16.086 16.9556 14.9513 18.3809 14.9513C19.1627 14.9513 19.6606 15.207 20.1102 15.5808C20.1658 15.6291 20.2209 15.705 20.2209 15.8022C20.2209 15.9472 20.0894 16.072 19.9444 16.072C19.8685 16.072 19.8062 16.0371 19.7646 16.0096C19.3908 15.6774 18.9688 15.456 18.3741 15.456C17.3018 15.456 16.4993 16.3277 16.4993 17.4416V17.4556C16.4993 18.5763 17.3086 19.4547 18.3741 19.4547C18.9761 19.4547 19.3981 19.2473 19.8129 18.8668C19.8545 18.8252 19.9169 18.791 19.986 18.791C20.1243 18.791 20.249 18.9152 20.249 19.054C20.249 19.1372 20.2074 19.2063 20.1591 19.2479C19.6819 19.6834 19.1559 19.9605 18.3607 19.9605C16.9629 19.9605 15.9322 18.8607 15.9322 17.4702L15.9316 17.4697Z" fill="white"/>
</svg>