<svg width="24" height="24" viewBox="0 0 24 24" fill="none" xmlns="http://www.w3.org/2000/svg">
<g id="Group 110">
<path id="Vector 109 (Stroke)" fill-rule="evenodd" clip-rule="evenodd" d="M11.5763 9.87868C12.7065 11.0503 12.7065 12.9497 11.5763 14.1213L2.47035 23.5607C1.90525 24.1464 0.989046 24.1464 0.423949 23.5607C-0.141149 22.9749 -0.141149 22.0251 0.423949 21.4393L9.52991 12L0.42395 2.56066C-0.141148 1.97487 -0.141148 1.02513 0.42395 0.439339C0.989047 -0.146447 1.90525 -0.146447 2.47035 0.439339L11.5763 9.87868Z" fill="white"/>
<path id="Vector 110 (Stroke)" fill-rule="evenodd" clip-rule="evenodd" d="M23.1525 9.87868C24.2827 11.0503 24.2827 12.9497 23.1525 14.1213L14.0465 23.5607C13.4814 24.1464 12.5652 24.1464 12.0001 23.5607C11.435 22.9749 11.435 22.0251 12.0001 21.4393L21.1061 12L12.0001 2.56066C11.435 1.97487 11.435 1.02513 12.0001 0.439339C12.5652 -0.146447 13.4814 -0.146447 14.0465 0.439339L23.1525 9.87868Z" fill="white"/>
</g>
</svg>
