<svg width="24" height="24" viewBox="0 0 24 24" fill="none" xmlns="http://www.w3.org/2000/svg">
<g id="Group 109">
<path id="Vector 109 (Stroke)" fill-rule="evenodd" clip-rule="evenodd" d="M12.4238 14.1213C11.2936 12.9497 11.2936 11.0503 12.4238 9.87868L21.5298 0.439341C22.0949 -0.146445 23.0111 -0.146445 23.5762 0.439341C24.1413 1.02513 24.1413 1.97488 23.5762 2.56066L14.4702 12L23.5762 21.4393C24.1413 22.0251 24.1413 22.9749 23.5762 23.5607C23.0111 24.1464 22.0949 24.1464 21.5298 23.5607L12.4238 14.1213Z" fill="white"/>
<path id="Vector 110 (Stroke)" fill-rule="evenodd" clip-rule="evenodd" d="M0.847647 14.1213C-0.28255 12.9497 -0.282546 11.0503 0.847647 9.87868L9.9536 0.439341C10.5187 -0.146446 11.4349 -0.146445 12 0.439341C12.5651 1.02513 12.5651 1.97488 12 2.56066L2.89404 12L12 21.4393C12.5651 22.0251 12.5651 22.9749 12 23.5607C11.4349 24.1464 10.5187 24.1464 9.9536 23.5607L0.847647 14.1213Z" fill="white"/>
</g>
</svg>
