<svg xmlns="http://www.w3.org/2000/svg" width="16" height="16" viewBox="0 0 16 16" fill="none">
  <path fill-rule="evenodd" clip-rule="evenodd" d="M8 2C8.36819 2 8.66667 2.29848 8.66667 2.66667V7.72386L9.19526 7.19526C9.45561 6.93491 9.87772 6.93491 10.1381 7.19526C10.3984 7.45561 10.3984 7.87772 10.1381 8.13807L8.47141 9.80474C8.21106 10.0651 7.78895 10.0651 7.5286 9.80474L5.86193 8.13807C5.60158 7.87772 5.60158 7.45561 5.86193 7.19526C6.12228 6.93491 6.54439 6.93491 6.80474 7.19526L7.33333 7.72386V2.66667C7.33333 2.29848 7.63181 2 8 2ZM4.78719 5.33333L5.33333 5.33333C5.70152 5.33333 6 5.63181 6 6C6 6.36819 5.70152 6.66667 5.33333 6.66667H4.81333C4.42248 6.66667 4.17011 6.6672 3.97815 6.68314C3.79417 6.69842 3.72616 6.72434 3.69268 6.74172C3.57092 6.80497 3.47164 6.90425 3.40839 7.02602C3.391 7.05949 3.36509 7.1275 3.34981 7.31148C3.33387 7.50344 3.33333 7.75582 3.33333 8.14667V11.1867C3.33333 11.5775 3.33387 11.8299 3.34981 12.0219C3.36509 12.2058 3.391 12.2738 3.40839 12.3073C3.47164 12.4291 3.57092 12.5284 3.69269 12.5916C3.72616 12.609 3.79417 12.6349 3.97815 12.6502C4.17011 12.6661 4.42248 12.6667 4.81333 12.6667H11.1867C11.5775 12.6667 11.8299 12.6661 12.0219 12.6502C12.2058 12.6349 12.2738 12.609 12.3073 12.5916C12.4291 12.5284 12.5284 12.4291 12.5916 12.3073C12.609 12.2738 12.6349 12.2058 12.6502 12.0219C12.6661 11.8299 12.6667 11.5775 12.6667 11.1867V8.14667C12.6667 7.75582 12.6661 7.50344 12.6502 7.31148C12.6349 7.1275 12.609 7.05949 12.5916 7.02602C12.5284 6.90425 12.4291 6.80497 12.3073 6.74172C12.2738 6.72434 12.2058 6.69842 12.0219 6.68314C11.8299 6.6672 11.5775 6.66667 11.1867 6.66667H10.6667C10.2985 6.66667 10 6.36819 10 6C10 5.63181 10.2985 5.33333 10.6667 5.33333L11.2128 5.33333C11.5702 5.33332 11.8784 5.33331 12.1322 5.35438C12.4001 5.37663 12.6664 5.42578 12.9219 5.55851C13.2872 5.74826 13.5851 6.0461 13.7748 6.41138C13.9076 6.66689 13.9567 6.93321 13.9789 7.20113C14 7.45492 14 7.76319 14 8.12055V11.2128C14 11.5701 14 11.8784 13.9789 12.1322C13.9567 12.4001 13.9076 12.6664 13.7748 12.9219C13.5851 13.2872 13.2872 13.5851 12.9219 13.7748C12.6664 13.9076 12.4001 13.9567 12.1322 13.9789C11.8784 14 11.5701 14 11.2128 14H4.78722C4.42986 14 4.12158 14 3.8678 13.9789C3.59988 13.9567 3.33356 13.9076 3.07805 13.7748C2.71277 13.5851 2.41493 13.2872 2.22517 12.9219C2.09245 12.6664 2.0433 12.4001 2.02105 12.1322C1.99998 11.8784 1.99999 11.5702 2 11.2128V8.12053C1.99999 7.76318 1.99998 7.45491 2.02105 7.20113C2.0433 6.93321 2.09245 6.6669 2.22517 6.41138C2.41493 6.0461 2.71277 5.74826 3.07805 5.55851C3.33356 5.42578 3.59988 5.37663 3.8678 5.35438C4.12158 5.33331 4.42985 5.33332 4.78719 5.33333Z" fill="white"/>
</svg>