<svg xmlns="http://www.w3.org/2000/svg" width="16" height="14" viewBox="0 0 16 14" fill="none">
  <path fill-rule="evenodd" clip-rule="evenodd" d="M15.0401 2.25364C15.3052 2.6071 15.2336 3.10854 14.8801 3.37364L9.9201 7.09367C8.78232 7.94701 7.21787 7.94701 6.08009 7.09367L1.1201 3.37368C0.766634 3.10858 0.694999 2.60714 0.960096 2.25368C1.22519 1.90022 1.72663 1.82858 2.0801 2.09368L7.04009 5.81367C7.60898 6.24034 8.39121 6.24034 8.96009 5.81367L13.9201 2.09364C14.2736 1.82854 14.775 1.90018 15.0401 2.25364Z" fill="white"/>
  <path fill-rule="evenodd" clip-rule="evenodd" d="M0 2.7335C0 1.40801 1.07452 0.333496 2.4 0.333496H13.6C14.9255 0.333496 16 1.40801 16 2.7335V6.7335C16 7.17532 15.6418 7.5335 15.2 7.5335C14.7582 7.5335 14.4 7.17532 14.4 6.7335V2.7335C14.4 2.29167 14.0418 1.9335 13.6 1.9335H2.4C1.95817 1.9335 1.6 2.29167 1.6 2.7335V10.7335C1.6 11.1753 1.95817 11.5335 2.4 11.5335H8.8C9.24183 11.5335 9.6 11.8917 9.6 12.3335C9.6 12.7753 9.24183 13.1335 8.8 13.1335H2.4C1.07452 13.1335 0 12.059 0 10.7335V2.7335Z" fill="white"/>
  <path fill-rule="evenodd" clip-rule="evenodd" d="M13.1999 7.53369C13.6417 7.53369 13.9999 7.89186 13.9999 8.33369V11.2023L14.6342 10.568C14.9466 10.2556 15.4532 10.2556 15.7656 10.568C16.078 10.8804 16.078 11.387 15.7656 11.6994L13.7656 13.6994C13.4532 14.0118 12.9466 14.0118 12.6342 13.6994L10.6342 11.6994C10.3218 11.387 10.3218 10.8804 10.6342 10.568C10.9466 10.2556 11.4532 10.2556 11.7656 10.568L12.3999 11.2023V8.33369C12.3999 7.89186 12.7581 7.53369 13.1999 7.53369Z" fill="white"/>
</svg>