<svg width="16" height="16" viewBox="0 0 16 16" fill="none" xmlns="http://www.w3.org/2000/svg">
<g id="Edit">
<path id="Vector 64 (Stroke)" fill-rule="evenodd" clip-rule="evenodd" d="M10.8382 2.33343C11.3589 1.81274 12.2031 1.81273 12.7238 2.33343L13.6666 3.27624C14.1873 3.79694 14.1873 4.64116 13.6666 5.16186L6.44722 12.3813C6.16802 12.6605 5.81242 12.8509 5.42524 12.9283L3.46408 13.3205C3.2455 13.3642 3.01954 13.2958 2.86193 13.1382C2.70431 12.9806 2.6359 12.7546 2.67961 12.5361L3.07185 10.5749C3.14928 10.1877 3.33959 9.83212 3.61878 9.55292L10.8382 2.33343ZM12.7238 4.21905L11.781 3.27624L11.3096 3.74765L12.2524 4.69046L12.7238 4.21905ZM11.3096 5.63327L10.3668 4.69046L4.5616 10.4957C4.46853 10.5888 4.4051 10.7073 4.37929 10.8364L4.18317 11.817L5.16375 11.6209C5.29281 11.595 5.41134 11.5316 5.50441 11.4385L11.3096 5.63327Z" fill="white"/>
</g>
</svg>
