<svg width="24" height="24" viewBox="0 0 24 24" fill="none" xmlns="http://www.w3.org/2000/svg">
<g clip-path="url(#clip0_1210_2618)">
<path fill-rule="evenodd" clip-rule="evenodd" d="M16.3905 3.39052C16.9112 2.86983 17.7554 2.86983 18.2761 3.39052L23.6095 8.72384C23.9908 9.10517 24.1049 9.67866 23.8985 10.1769C23.6921 10.6751 23.2059 11 22.6667 11H6.6667C5.93033 11 5.33337 10.403 5.33337 9.66665C5.33337 8.93027 5.93033 8.33332 6.6667 8.33332H19.4477L16.3905 5.27613C15.8698 4.75544 15.8698 3.91122 16.3905 3.39052Z" fill="white"/>
<path fill-rule="evenodd" clip-rule="evenodd" d="M7.60947 21.2761C7.08877 21.7968 6.24456 21.7968 5.72386 21.2761L0.390543 15.9428C0.00921493 15.5614 -0.10486 14.9879 0.101515 14.4897C0.307889 13.9915 0.79407 13.6666 1.33335 13.6666L17.3333 13.6666C18.0697 13.6666 18.6666 14.2636 18.6666 15C18.6666 15.7363 18.0697 16.3333 17.3333 16.3333L4.55229 16.3333L7.60947 19.3905C8.13017 19.9112 8.13017 20.7554 7.60947 21.2761Z" fill="white"/>
</g>
<defs>
<clipPath id="clip0_1210_2618">
<rect width="24" height="24" fill="white"/>
</clipPath>
</defs>
</svg>