<svg xmlns="http://www.w3.org/2000/svg" width="17" height="16" viewBox="0 0 17 16" fill="none">
  <g clip-path="url(#clip0_11541_963)">
    <path fill-rule="evenodd" clip-rule="evenodd" d="M8.49997 3.4046C5.56725 3.4046 3.06047 5.23641 2.065 7.82097C2.02067 7.93606 2.02067 8.06391 2.065 8.179C3.06047 10.7636 5.56725 12.5954 8.49997 12.5954C11.4327 12.5954 13.9395 10.7636 14.935 8.179C14.9793 8.06391 14.9793 7.93607 14.935 7.82098C13.9395 5.23641 11.4327 3.4046 8.49997 3.4046ZM0.635562 7.27041C1.85116 4.11433 4.91285 1.8728 8.49997 1.8728C12.0871 1.8728 15.1488 4.11434 16.3644 7.27041C16.5452 7.73986 16.5452 8.26012 16.3644 8.72956C15.1488 11.8856 12.0871 14.1272 8.49997 14.1272C4.91285 14.1272 1.85116 11.8856 0.635562 8.72956C0.454751 8.26011 0.454752 7.73986 0.635562 7.27041Z" fill="white"/>
    <path fill-rule="evenodd" clip-rule="evenodd" d="M8.50001 6.46814C7.65402 6.46814 6.96821 7.15394 6.96821 7.99993C6.96821 8.84592 7.65402 9.53173 8.50001 9.53173C9.346 9.53173 10.0318 8.84592 10.0318 7.99993C10.0318 7.15394 9.346 6.46814 8.50001 6.46814ZM5.43642 7.99993C5.43642 6.30796 6.80803 4.93634 8.50001 4.93634C10.192 4.93634 11.5636 6.30796 11.5636 7.99993C11.5636 9.69191 10.192 11.0635 8.50001 11.0635C6.80803 11.0635 5.43642 9.69191 5.43642 7.99993Z" fill="white"/>
  </g>
  <defs>
    <clipPath id="clip0_11541_963">
      <rect width="16" height="16" fill="white" transform="translate(0.5)"/>
    </clipPath>
  </defs>
</svg>