<svg xmlns="http://www.w3.org/2000/svg" width="16" height="16" viewBox="0 0 16 16" fill="none">
  <path fill-rule="evenodd" clip-rule="evenodd" d="M5.33329 2.66671C4.59691 2.66671 3.99996 3.26366 3.99996 4.00004V12C3.99996 12.7364 4.59691 13.3334 5.33329 13.3334H10.6666C11.403 13.3334 12 12.7364 12 12V6.41671H9.66663C8.93025 6.41671 8.33329 5.81975 8.33329 5.08337V2.66671H5.33329ZM9.66663 3.63544L11.0824 5.08337H9.66663V3.63544ZM2.66663 4.00004C2.66663 2.52728 3.86053 1.33337 5.33329 1.33337H8.99996C9.17937 1.33337 9.3512 1.40568 9.47663 1.53396L13.1433 5.28396C13.2651 5.40853 13.3333 5.57582 13.3333 5.75004V12C13.3333 13.4728 12.1394 14.6667 10.6666 14.6667H5.33329C3.86053 14.6667 2.66663 13.4728 2.66663 12V4.00004Z" fill="white"/>
  <path fill-rule="evenodd" clip-rule="evenodd" d="M5.33337 8.66667C5.33337 8.29848 5.63185 8 6.00004 8H10C10.3682 8 10.6667 8.29848 10.6667 8.66667C10.6667 9.03486 10.3682 9.33333 10 9.33333H6.00004C5.63185 9.33333 5.33337 9.03486 5.33337 8.66667Z" fill="white"/>
  <path fill-rule="evenodd" clip-rule="evenodd" d="M5.33337 11.3333C5.33337 10.9651 5.63185 10.6666 6.00004 10.6666H10C10.3682 10.6666 10.6667 10.9651 10.6667 11.3333C10.6667 11.7015 10.3682 12 10 12H6.00004C5.63185 12 5.33337 11.7015 5.33337 11.3333Z" fill="white"/>
</svg>