<svg width="17" height="16" viewBox="0 0 17 16" fill="none" xmlns="http://www.w3.org/2000/svg">
<g clip-path="url(#clip0_10832_11264)">
<path fill-rule="evenodd" clip-rule="evenodd" d="M0.760643 1.91095C0.6433 0.836468 1.51379 0 2.50525 0H4.42237C5.27393 0 6.00711 0.601064 6.17412 1.43609L6.82997 4.71538C6.94711 5.30108 6.76379 5.90658 6.34143 6.32893L4.70396 7.9664C5.76308 9.6726 7.2572 11.271 9.31725 12.4385L11.3112 10.4446C11.7549 10.0009 12.3989 9.82253 13.0076 9.97473L15.4133 10.5761C16.2086 10.775 16.7665 11.4895 16.7665 12.3092V14.232C16.7665 15.2512 15.8956 16.1091 14.8244 15.9887C12.6124 15.74 10.7084 15.1563 9.07907 14.3362C6.11071 12.8423 4.10437 10.5903 2.80358 8.25873C1.56788 6.04385 0.960908 3.74473 0.760643 1.91095ZM11.0302 13.252C12.1882 13.7051 13.4985 14.0382 14.98 14.2084V12.3092L12.5744 11.7078L11.0302 13.252ZM3.8234 6.32056L5.07823 5.06573L4.42237 1.78644H2.5443C2.69591 3.10761 3.0879 4.71037 3.8234 6.32056Z" fill="white"/>
<path fill-rule="evenodd" clip-rule="evenodd" d="M10.75 2.66667C10.75 2.29848 11.0485 2 11.4167 2H14.0834C14.4515 2 14.75 2.29848 14.75 2.66667V5.33333C14.75 5.70152 14.4515 6 14.0834 6C13.7152 6 13.4167 5.70152 13.4167 5.33333V4.27614L10.5548 7.13807C10.2944 7.39842 9.8723 7.39842 9.61195 7.13807C9.3516 6.87772 9.3516 6.45561 9.61195 6.19526L12.4739 3.33333H11.4167C11.0485 3.33333 10.75 3.03486 10.75 2.66667Z" fill="white"/>
</g>
<defs>
<clipPath id="clip0_10832_11264">
<rect width="16" height="16" fill="white" transform="translate(0.75)"/>
</clipPath>
</defs>
</svg>
