<svg width="18" height="18" viewBox="0 0 18 18" fill="none" xmlns="http://www.w3.org/2000/svg">
<g id="Information">
<path id="Vector" d="M10.5 12H10C9.7348 12 9.4804 11.8947 9.29287 11.7071C9.10533 11.5196 9 11.2652 9 11V8.5C9 8.3674 8.94733 8.2402 8.85353 8.14647C8.7598 8.05267 8.6326 8 8.5 8H8" stroke="white" stroke-width="1.5" stroke-linecap="round" stroke-linejoin="round"/>
<path id="Vector_2" d="M8.75 6C8.61193 6 8.5 5.88807 8.5 5.75C8.5 5.61193 8.61193 5.5 8.75 5.5" stroke="white" stroke-width="1.5"/>
<path id="Vector_3" d="M8.75 6C8.88807 6 9 5.88807 9 5.75C9 5.61193 8.88807 5.5 8.75 5.5" stroke="white" stroke-width="1.5"/>
<path id="Vector_4" d="M9 16.5C13.1421 16.5 16.5 13.1421 16.5 9C16.5 4.85787 13.1421 1.5 9 1.5C4.85787 1.5 1.5 4.85787 1.5 9C1.5 13.1421 4.85787 16.5 9 16.5Z" stroke="white" stroke-width="1.5" stroke-linecap="round" stroke-linejoin="round"/>
</g>
</svg>