<svg width="27" height="26" viewBox="0 0 27 26" fill="none" xmlns="http://www.w3.org/2000/svg">
<g id="Group 92">
<path id="Ellipse 26 (Stroke)" fill-rule="evenodd" clip-rule="evenodd" d="M13.5001 2.82569C7.88091 2.82569 3.32569 7.38091 3.32569 13.0001C3.32569 18.6192 7.88091 23.1744 13.5001 23.1744C19.1192 23.1744 23.6744 18.6192 23.6744 13.0001C23.6744 7.38091 19.1192 2.82569 13.5001 2.82569ZM0.782104 13.0001C0.782104 5.97612 6.47612 0.282104 13.5001 0.282104C20.524 0.282104 26.218 5.97612 26.218 13.0001C26.218 20.024 20.524 25.718 13.5001 25.718C6.47612 25.718 0.782104 20.024 0.782104 13.0001ZM13.5001 10.4565C14.2024 10.4565 14.7718 11.0259 14.7718 11.7283V18.0872C14.7718 18.7896 14.2024 19.359 13.5001 19.359C12.7977 19.359 12.2283 18.7896 12.2283 18.0872V11.7283C12.2283 11.0259 12.7977 10.4565 13.5001 10.4565Z" fill="#EBE8FC"/>
<path id="Ellipse 28" d="M14.7719 7.27692C14.7719 7.97932 14.2025 8.54872 13.5001 8.54872C12.7977 8.54872 12.2283 7.97932 12.2283 7.27692C12.2283 6.57453 12.7977 6.00513 13.5001 6.00513C14.2025 6.00513 14.7719 6.57453 14.7719 7.27692Z" fill="#EBE8FC"/>
</g>
</svg>
