<svg xmlns="http://www.w3.org/2000/svg" width="26" height="32" viewBox="0 0 26 32" fill="none">
  <path d="M4.05824 25.4021C4.80535 24.655 4.80535 23.4437 4.05825 22.6966C3.31114 21.9495 2.09985 21.9495 1.35275 22.6966C0.605645 23.4437 0.605648 24.655 1.35275 25.4021C2.09985 26.1492 3.31114 26.1492 4.05824 25.4021Z" fill="#4BA669"/>
  <path d="M2.70611 26.3282C1.45003 26.3282 0.427734 25.3059 0.427734 24.0499C0.427734 22.7938 1.45003 21.7715 2.70611 21.7715C3.9622 21.7715 4.98449 22.7938 4.98449 24.0499C4.98449 25.3059 3.9622 26.3282 2.70611 26.3282ZM2.70611 22.5015C1.85242 22.5015 1.15835 23.1956 1.15835 24.0493C1.15835 24.903 1.85242 25.5971 2.70611 25.5971C3.55981 25.5971 4.25388 24.903 4.25388 24.0493C4.25388 23.1956 3.55924 22.5015 2.70611 22.5015Z" fill="#09090D"/>
  <path d="M16.7465 0.365797H7.43793C4.89709 0.365797 2.83789 2.42556 2.83789 4.96583V27.0336C2.83789 29.5745 4.89765 31.6337 7.43793 31.6337H20.7182C23.259 31.6337 25.3182 29.5739 25.3182 27.0336V8.93698L16.7465 0.365234V0.365797Z" fill="white"/>
  <path d="M20.7183 31.9995H7.438C4.6999 31.9995 2.47266 29.7722 2.47266 27.0341V4.96632C2.47266 2.22821 4.6999 0.000976562 7.438 0.000976562H16.7465C16.8432 0.000976562 16.9365 0.0391911 17.0051 0.107756L25.5768 8.67951C25.6454 8.74807 25.6836 8.8408 25.6836 8.93803V27.0347C25.6836 29.7728 23.4564 32 20.7183 32V31.9995ZM7.438 0.731025C5.10286 0.731025 3.20327 2.63061 3.20327 4.96575V27.0336C3.20327 29.3687 5.10286 31.2683 7.438 31.2683H20.7183C23.0534 31.2683 24.953 29.3687 24.953 27.0336V9.08864L16.5954 0.731025H7.438Z" fill="#09090D"/>
  <path d="M16.7461 0.365601L25.3178 8.93735H18.5743C17.5649 8.93735 16.7461 8.11907 16.7461 7.10914V0.365601Z" fill="#E4E4EB"/>
  <path d="M25.319 9.30273H18.5744C17.3649 9.30273 16.3809 8.31866 16.3809 7.10922V0.365682C16.3809 0.217874 16.4697 0.0846775 16.6062 0.0279147C16.7428 -0.0288481 16.8996 0.00262285 17.0041 0.107156L25.559 8.66205C25.6354 8.72892 25.6838 8.82728 25.6838 8.93687C25.6838 9.13863 25.5202 9.30217 25.3185 9.30217L25.319 9.30273ZM17.1115 1.24747V7.10922C17.1115 7.9157 17.7673 8.57212 18.5744 8.57212H24.4361L17.112 1.24803L17.1115 1.24747Z" fill="#09090D"/>
  <path d="M2.87978 13.0177C1.7434 13.0177 0.822266 13.9388 0.822266 15.0752V23.6914H0.859923C1.04314 22.7427 1.87715 22.0256 2.87978 22.0256H23.5999V13.0177H2.87978Z" fill="#4BA669"/>
  <path d="M0.859994 24.0566H0.822337C0.620576 24.0566 0.457031 23.8931 0.457031 23.6913V15.0752C0.457031 13.7393 1.54395 12.6523 2.87985 12.6523H23.6C23.8017 12.6523 23.9653 12.8159 23.9653 13.0176V22.0255C23.9653 22.2273 23.8017 22.3908 23.6 22.3908H2.87985C2.07056 22.3908 1.37198 22.9669 1.21855 23.7604C1.18539 23.9324 1.03478 24.0566 0.859994 24.0566ZM2.87985 13.383C1.94691 13.383 1.18764 14.1422 1.18764 15.0752V22.3498C1.62826 21.9204 2.22904 21.6602 2.87985 21.6602H23.2347V13.383H2.87985Z" fill="#09090D"/>
  <path d="M6.0622 19.2301C6.02061 19.1885 5.98633 19.1194 5.98633 19.0435C5.98633 18.898 6.11109 18.7738 6.25609 18.7738C6.34601 18.7738 6.4084 18.8221 6.44998 18.8704C6.713 19.2301 6.99626 19.4167 7.44642 19.4167C7.9927 19.4167 8.39397 19.0222 8.39397 18.2545V15.2522C8.39397 15.0999 8.51874 14.9757 8.67048 14.9757C8.82222 14.9757 8.94024 15.1005 8.94024 15.2522V18.2477C8.94024 18.8148 8.77445 19.2442 8.49738 19.5207C8.22762 19.7837 7.86119 19.9219 7.43181 19.9219C6.79562 19.9219 6.3595 19.6314 6.0622 19.2301Z" fill="white"/>
  <path d="M10.2344 15.2865C10.2344 15.1342 10.3591 15.01 10.5041 15.01H12.0469C13.14 15.01 13.8593 15.5911 13.8593 16.546V16.56C13.8593 17.6048 12.9877 18.1443 11.9569 18.1443H10.7806V19.6112C10.7806 19.7635 10.6559 19.8877 10.5041 19.8877C10.3524 19.8877 10.2344 19.7629 10.2344 19.6112V15.2876V15.2865ZM11.9777 17.6458C12.7803 17.6458 13.3057 17.217 13.3057 16.5803V16.5662C13.3057 15.8744 12.787 15.5147 12.0053 15.5147H10.7806V17.6453H11.9777V17.6458Z" fill="white"/>
  <path d="M14.6406 17.4451V17.4311C14.6406 16.103 15.6163 14.9268 17.0691 14.9268C17.8025 14.9268 18.2796 15.1206 18.7225 15.4455C18.7849 15.4938 18.8332 15.5703 18.8332 15.6669C18.8332 15.8192 18.7084 15.9434 18.5634 15.9434C18.5011 15.9434 18.446 15.9159 18.3903 15.8743C18.0447 15.6113 17.6569 15.4314 17.0483 15.4314C15.976 15.4314 15.2083 16.3374 15.2083 17.417V17.4311C15.2083 18.5866 15.9484 19.4442 17.1247 19.4442C17.6783 19.4442 18.1903 19.2295 18.5219 18.9597V17.7559H17.2214C17.0899 17.7559 16.9791 17.6452 16.9791 17.5137C16.9791 17.3754 17.0899 17.2647 17.2214 17.2647H18.7781C18.9237 17.2647 19.0479 17.3895 19.0479 17.5412V19.0148C19.0479 19.1463 18.9855 19.2638 18.8613 19.347C18.4184 19.6724 17.8238 19.9348 17.1039 19.9348C15.582 19.9348 14.6412 18.8282 14.6412 17.4446L14.6406 17.4451Z" fill="white"/>
</svg>