<svg xmlns="http://www.w3.org/2000/svg" width="18" height="24" viewBox="0 0 18 24" fill="none">
  <path fill-rule="evenodd" clip-rule="evenodd" d="M1.49213 1.04345C1.49213 0.467167 1.95929 0 2.53557 0H15.2552C15.8315 0 16.2986 0.467167 16.2986 1.04345V4.59117C16.2986 5.16745 15.8315 5.63462 15.2552 5.63462H2.53557C1.95929 5.63462 1.49213 5.16745 1.49213 4.59117V1.04345ZM3.57902 2.08689V3.54772H14.2118V2.08689H3.57902Z" fill="white"/>
  <path fill-rule="evenodd" clip-rule="evenodd" d="M4.20987 3.82386C4.39965 3.65916 4.64249 3.56848 4.89377 3.56848H12.9074C13.1639 3.56848 13.4114 3.66294 13.6027 3.83383L15.3558 5.40019C16.1111 6.0411 16.7202 6.83657 17.1421 7.73298C17.566 8.63394 17.7908 9.6157 17.8012 10.6114L17.8013 10.6222L17.8012 20.6706L17.8012 20.6758C17.7975 21.4206 17.5192 22.1378 17.0197 22.6903C16.5209 23.2419 15.8364 23.5905 15.097 23.6696C13.0397 23.9003 10.9707 24.0104 8.90061 23.9992C6.83038 24.0104 4.76127 23.9003 2.70391 23.6695C1.96461 23.5904 1.28027 23.2418 0.781522 22.6903C0.281974 22.1378 0.00371611 21.4206 1.28742e-05 20.6758L0 20.6706V10.6193C0.00270607 9.6284 0.217948 8.64958 0.631192 7.74892C1.04432 6.84852 1.64572 6.04718 2.39485 5.39896C2.39463 5.39915 2.39506 5.39877 2.39485 5.39896L4.20987 3.82386ZM5.2834 5.65538L3.76085 6.97667C3.23715 7.42971 2.81674 7.98982 2.52796 8.6192C2.23938 9.24816 2.08898 9.93168 2.08689 10.6237V20.6675C2.08856 20.8979 2.17486 21.1197 2.32942 21.2906C2.48445 21.462 2.69727 21.5703 2.92713 21.5946L2.93369 21.5953C4.91284 21.8174 6.90331 21.9233 8.89485 21.9123L8.90636 21.9122C10.8979 21.9232 12.8884 21.8174 14.8675 21.5953L14.8741 21.5946C15.1039 21.5703 15.3168 21.462 15.4718 21.2906C15.6264 21.1197 15.7127 20.8979 15.7143 20.6675V10.6279C15.7064 9.93385 15.5494 9.24962 15.2538 8.62157C14.9575 7.99199 14.529 7.43366 13.9975 6.98462C13.9901 6.97839 13.9828 6.97207 13.9756 6.96564L12.5092 5.65538H5.2834Z" fill="white"/>
  <path fill-rule="evenodd" clip-rule="evenodd" d="M7.91412 10.4462C8.5809 9.78267 9.48332 9.41016 10.424 9.41016C11.359 9.41016 12.2561 9.77813 12.9217 10.4341C13.2649 10.7569 13.5402 11.1451 13.7314 11.5758C13.9249 12.0119 14.0283 12.4825 14.0352 12.9595C14.0421 13.4366 13.9524 13.91 13.7716 14.3515C13.5916 14.7911 13.3248 15.1899 12.9873 15.5242L11.7283 16.7935C11.4093 17.1153 10.919 17.1943 10.515 16.9891C9.64712 16.5483 8.85412 15.9736 8.16516 15.286C7.46954 14.598 6.89154 13.8005 6.45419 12.9253C6.25418 12.525 6.33164 12.0418 6.64673 11.7241L7.91412 10.4462ZM9.3883 11.9234L8.68502 12.6325C8.95697 13.0559 9.27513 13.4488 9.63412 13.8036L9.63792 13.8074C9.99507 14.1641 10.3883 14.4816 10.8109 14.755L11.517 14.043C11.6563 13.9056 11.7663 13.7415 11.8404 13.5605C11.9146 13.3795 11.9513 13.1854 11.9485 12.9898C11.9457 12.7942 11.9033 12.6012 11.8239 12.4224C11.7446 12.2436 11.6299 12.0827 11.4867 11.9494C11.4783 11.9416 11.47 11.9336 11.4618 11.9255C11.1861 11.6511 10.813 11.4971 10.424 11.4971C10.036 11.4971 9.6638 11.6503 9.3883 11.9234Z" fill="white"/>
  <path fill-rule="evenodd" clip-rule="evenodd" d="M7.54883 11.4069C7.87811 11.4584 8.16299 11.6641 8.31547 11.9605C8.6544 12.6192 9.09786 13.2186 9.6286 13.7355L9.63801 13.7446C10.1721 14.278 10.787 14.7239 11.46 15.0657C11.7613 15.2187 11.9699 15.5082 12.0196 15.8425C12.0693 16.1768 11.9541 16.5145 11.7103 16.7486L9.87097 18.5152C9.5432 18.8418 9.15468 19.1012 8.72727 19.2787C8.29604 19.4577 7.8337 19.5499 7.36677 19.5499C6.89983 19.5499 6.4375 19.4577 6.00627 19.2787C5.57579 19.0999 5.18477 18.8381 4.85553 18.5082C4.52565 18.1798 4.26382 17.7895 4.08506 17.3598C3.90597 16.9292 3.81378 16.4675 3.81378 16.0012C3.81378 15.5349 3.90597 15.0733 4.08506 14.6427C4.26392 14.2127 4.52594 13.8223 4.85607 13.4938L6.64981 11.7C6.88548 11.4644 7.21954 11.3555 7.54883 11.4069ZM7.19546 14.1057L6.32854 14.9726C6.19295 15.1074 6.08534 15.2677 6.01191 15.4442C5.93848 15.6207 5.90068 15.81 5.90068 16.0012C5.90068 16.1924 5.93848 16.3817 6.01191 16.5583C6.08534 16.7348 6.19294 16.8951 6.32854 17.0299L6.33202 17.0333C6.46774 17.1695 6.62899 17.2776 6.80656 17.3513C6.98413 17.425 7.17451 17.463 7.36677 17.463C7.55903 17.463 7.7494 17.425 7.92697 17.3513C8.10454 17.2776 8.2658 17.1695 8.40152 17.0333L8.41783 17.0173L9.29 16.1796C8.89189 15.8925 8.51661 15.5737 8.16795 15.226C7.81274 14.8796 7.48756 14.5048 7.19546 14.1057Z" fill="white"/>
</svg>