<svg xmlns="http://www.w3.org/2000/svg" width="24" height="24" viewBox="0 0 24 24" fill="none">
  <g clip-path="url(#clip0_8879_12024)">
    <path d="M10.2857 2.57143C10.2857 1.88944 10.0148 1.23539 9.53256 0.753154C9.05032 0.270918 8.39627 0 7.71429 0C7.0323 0 6.37825 0.270918 5.89601 0.753154C5.41377 1.23539 5.14286 1.88944 5.14286 2.57143C5.14286 3.25341 5.41377 3.90747 5.89601 4.3897C6.37825 4.87194 7.0323 5.14286 7.71429 5.14286C8.39627 5.14286 9.05032 4.87194 9.53256 4.3897C10.0148 3.90747 10.2857 3.25341 10.2857 2.57143ZM10.2482 10.3982C10.6286 9.79286 11.2875 9.42857 12 9.42857C12.7125 9.42857 13.3768 9.79821 13.7518 10.3982L16.3875 14.6089C16.8536 15.3589 17.5071 15.8304 18.1125 16.1143C19.0661 16.5643 19.7196 17.5286 19.7196 18.6375C19.7196 20.175 18.4714 21.4232 16.9339 21.4232C16.3393 21.4232 15.7982 21.2411 15.3482 20.9304C14.2982 20.2018 13.0018 19.9875 12.0054 19.9875C11.0089 19.9875 9.7125 20.2018 8.6625 20.9304C8.2125 21.2411 7.67143 21.4232 7.07679 21.4232C5.53929 21.4232 4.29107 20.175 4.29107 18.6375C4.29107 17.5232 4.94464 16.5589 5.89821 16.1143C6.49821 15.8304 7.15179 15.3589 7.62321 14.6089L10.2589 10.3982H10.2482ZM5.43214 13.2482C5.28214 13.4893 5.05179 13.6661 4.8 13.7893C2.97857 14.6464 1.71429 16.4946 1.71429 18.6429C1.71429 21.6 4.11429 24 7.07143 24C8.20714 24 9.25714 23.6464 10.1196 23.0464C11.0518 22.4036 12.9482 22.4036 13.875 23.0464C14.7429 23.6464 15.7929 24 16.9286 24C19.8857 24 22.2857 21.6 22.2857 18.6429C22.2857 16.4946 21.0214 14.6464 19.2 13.7893C18.9429 13.6714 18.7179 13.4893 18.5679 13.2482L15.9375 9.0375C15.0857 7.68214 13.6018 6.85714 12 6.85714C10.3982 6.85714 8.91429 7.68214 8.06786 9.0375L5.43214 13.2482ZM16.2857 5.14286C16.9677 5.14286 17.6218 4.87194 18.104 4.3897C18.5862 3.90747 18.8571 3.25341 18.8571 2.57143C18.8571 1.88944 18.5862 1.23539 18.104 0.753154C17.6218 0.270918 16.9677 0 16.2857 0C15.6037 0 14.9497 0.270918 14.4674 0.753154C13.9852 1.23539 13.7143 1.88944 13.7143 2.57143C13.7143 3.25341 13.9852 3.90747 14.4674 4.3897C14.9497 4.87194 15.6037 5.14286 16.2857 5.14286ZM24 8.57143C24 8.23374 23.9335 7.89937 23.8043 7.58739C23.675 7.27541 23.4856 6.99193 23.2468 6.75315C23.0081 6.51437 22.7246 6.32496 22.4126 6.19574C22.1006 6.06651 21.7663 6 21.4286 6C21.0909 6 20.7565 6.06651 20.4445 6.19574C20.1325 6.32496 19.8491 6.51437 19.6103 6.75315C19.3715 6.99193 19.1821 7.27541 19.0529 7.58739C18.9237 7.89937 18.8571 8.23374 18.8571 8.57143C18.8571 8.90911 18.9237 9.24349 19.0529 9.55547C19.1821 9.86745 19.3715 10.1509 19.6103 10.3897C19.8491 10.6285 20.1325 10.8179 20.4445 10.9471C20.7565 11.0763 21.0909 11.1429 21.4286 11.1429C21.7663 11.1429 22.1006 11.0763 22.4126 10.9471C22.7246 10.8179 23.0081 10.6285 23.2468 10.3897C23.4856 10.1509 23.675 9.86745 23.8043 9.55547C23.9335 9.24349 24 8.90911 24 8.57143ZM2.57143 11.1429C3.25341 11.1429 3.90747 10.8719 4.3897 10.3897C4.87194 9.90747 5.14286 9.25341 5.14286 8.57143C5.14286 7.88944 4.87194 7.23539 4.3897 6.75315C3.90747 6.27092 3.25341 6 2.57143 6C1.88944 6 1.23539 6.27092 0.753154 6.75315C0.270918 7.23539 0 7.88944 0 8.57143C0 9.25341 0.270918 9.90747 0.753154 10.3897C1.23539 10.8719 1.88944 11.1429 2.57143 11.1429Z" fill="white"/>
  </g>
  <defs>
    <clipPath id="clip0_8879_12024">
      <rect width="24" height="24" fill="white"/>
    </clipPath>
  </defs>
</svg>