<svg xmlns="http://www.w3.org/2000/svg" width="25" height="18" viewBox="0 0 25 18" fill="none">
  <path fill-rule="evenodd" clip-rule="evenodd" d="M0.833008 3.6C0.833008 1.61177 2.44478 0 4.43301 0H21.233C23.2212 0 24.833 1.61178 24.833 3.6V14.4C24.833 16.3882 23.2212 18 21.233 18H4.43301C2.44478 18 0.833008 16.3882 0.833008 14.4V3.6ZM4.43301 2.4C3.77027 2.4 3.23301 2.93726 3.23301 3.6V14.4C3.23301 15.0627 3.77027 15.6 4.43301 15.6H21.233C21.8958 15.6 22.433 15.0627 22.433 14.4V3.6C22.433 2.93726 21.8958 2.4 21.233 2.4H4.43301Z" fill="white"/>
  <path fill-rule="evenodd" clip-rule="evenodd" d="M0.833008 5.99999C0.833008 5.33725 1.37027 4.79999 2.03301 4.79999H23.033C23.6957 4.79999 24.233 5.33725 24.233 5.99999C24.233 6.66273 23.6957 7.19999 23.033 7.19999H2.03301C1.37027 7.19999 0.833008 6.66273 0.833008 5.99999Z" fill="white"/>
  <path fill-rule="evenodd" clip-rule="evenodd" d="M5.63281 12C5.63281 11.3372 6.17007 10.8 6.83281 10.8H9.23281C9.89555 10.8 10.4328 11.3372 10.4328 12C10.4328 12.6627 9.89555 13.2 9.23281 13.2H6.83281C6.17007 13.2 5.63281 12.6627 5.63281 12Z" fill="white"/>
</svg>