<svg xmlns="http://www.w3.org/2000/svg" width="26" height="32" viewBox="0 0 26 32" fill="none">
  <path d="M4.05828 25.4023C4.80539 24.6552 4.80539 23.4439 4.05828 22.6968C3.31118 21.9497 2.09987 21.9497 1.35276 22.6968C0.605653 23.4439 0.605653 24.6552 1.35276 25.4023C2.09987 26.1494 3.31118 26.1494 4.05828 25.4023Z" fill="#BA271A"/>
  <path d="M2.70516 26.3282C1.44906 26.3282 0.426758 25.3059 0.426758 24.0498C0.426758 22.7937 1.44906 21.7714 2.70516 21.7714C3.96126 21.7714 4.98356 22.7937 4.98356 24.0498C4.98356 25.3059 3.96126 26.3282 2.70516 26.3282ZM2.70516 22.502C1.85146 22.502 1.15737 23.1961 1.15737 24.0498C1.15737 24.9035 1.85146 25.5975 2.70516 25.5975C3.55886 25.5975 4.25294 24.9035 4.25294 24.0498C4.25294 23.1961 3.55886 22.502 2.70516 22.502Z" fill="#09090D"/>
  <path d="M16.7466 0.365553H7.43796C4.8971 0.365553 2.83789 2.42533 2.83789 4.96562V27.0336C2.83789 29.5745 4.89766 31.6337 7.43796 31.6337H20.7183C23.2592 31.6337 25.3184 29.5739 25.3184 27.0336V8.9368L16.7466 0.36499V0.365553Z" fill="white"/>
  <path d="M20.7174 31.9995H7.43705C4.69893 31.9995 2.47168 29.7722 2.47168 27.0341V4.96612C2.47168 2.22799 4.69893 0.000732422 7.43705 0.000732422H16.7457C16.8423 0.000732422 16.9356 0.0389506 17.0042 0.107516L25.5754 8.67933C25.644 8.7479 25.6822 8.84063 25.6822 8.93786V27.0347C25.6822 29.7728 23.455 32 20.7169 32L20.7174 31.9995ZM7.43705 0.730793C5.10189 0.730793 3.2023 2.63039 3.2023 4.96556V27.0335C3.2023 29.3687 5.10189 31.2683 7.43705 31.2683H20.7174C23.0526 31.2683 24.9522 29.3687 24.9522 27.0335V9.08848L16.5945 0.730793H7.43705Z" fill="#09090D"/>
  <path d="M16.7471 0.365479L25.3189 8.93729H18.5753C17.5659 8.93729 16.7471 8.119 16.7471 7.10907V0.365479Z" fill="#E4E4EB"/>
  <path d="M25.3191 9.30256C25.3191 9.30256 25.3185 9.30256 25.318 9.30256H18.5744C17.3649 9.30256 16.3809 8.31848 16.3809 7.10903V0.365436C16.3809 0.217627 16.4697 0.0844293 16.6062 0.0276661C16.7428 -0.0285352 16.8996 0.00237054 17.0041 0.106905L25.5591 8.66187C25.6355 8.72875 25.6839 8.82709 25.6839 8.93668C25.6839 9.13845 25.5203 9.30199 25.3185 9.30199L25.3191 9.30256ZM17.112 1.24779V7.10959C17.112 7.91608 17.7679 8.5725 18.575 8.5725H24.4368L17.1126 1.24836L17.112 1.24779Z" fill="#09090D"/>
  <path d="M2.87882 13.0176C1.74243 13.0176 0.821289 13.9387 0.821289 15.0751V23.6913H0.858953C1.04217 22.7426 1.87619 22.0255 2.87882 22.0255H23.5991V13.0176H2.87882Z" fill="#BA271A"/>
  <path d="M0.859027 24.0566H0.821363C0.6196 24.0566 0.456055 23.893 0.456055 23.6913V15.0751C0.456055 13.7392 1.54299 12.6522 2.8789 12.6522H23.5992C23.8009 12.6522 23.9645 12.8158 23.9645 13.0175V22.0255C23.9645 22.2272 23.8009 22.3908 23.5992 22.3908H2.8789C2.0696 22.3908 1.37101 22.9668 1.21758 23.7604C1.18443 23.9324 1.03381 24.0566 0.859027 24.0566ZM2.8789 13.3828C1.94596 13.3828 1.18667 14.1421 1.18667 15.0751V22.3497C1.62729 21.9204 2.22809 21.6602 2.8789 21.6602H23.2339V13.3828H2.8789Z" fill="#09090D"/>
  <path d="M6.33203 15.3111C6.33203 15.1588 6.45624 15.0345 6.6018 15.0345H8.14452C9.23764 15.0345 9.95701 15.6157 9.95701 16.5705V16.5846C9.95701 17.6294 9.08533 18.1689 8.05459 18.1689H6.87831V19.6357C6.87831 19.788 6.75411 19.9123 6.6018 19.9123C6.44949 19.9123 6.33203 19.7875 6.33203 19.6357V15.3122V15.3111ZM8.0754 17.6704C8.87795 17.6704 9.40342 17.2416 9.40342 16.6048V16.5908C9.40342 15.8989 8.88469 15.5392 8.10293 15.5392H6.87831V17.6698H8.07483L8.0754 17.6704Z" fill="white"/>
  <path d="M10.9531 15.3111C10.9531 15.1588 11.0773 15.0345 11.2229 15.0345H12.6341C14.156 15.0345 15.2076 16.0793 15.2076 17.4422V17.4563C15.2076 18.8191 14.156 19.8774 12.6341 19.8774H11.2229C11.0779 19.8774 10.9531 19.7526 10.9531 19.6009V15.3116V15.3111ZM12.6347 19.3722C13.8593 19.3722 14.6411 18.5421 14.6411 17.4698V17.4557C14.6411 16.3834 13.8593 15.5392 12.6347 15.5392H11.5V19.3716H12.6347V19.3722Z" fill="white"/>
  <path d="M16.3643 15.3111C16.3643 15.1588 16.4885 15.0345 16.634 15.0345H19.6296C19.7678 15.0345 19.8785 15.1453 19.8785 15.2835C19.8785 15.4218 19.7678 15.5392 19.6296 15.5392H16.9105V17.2685H19.3182C19.4565 17.2685 19.5672 17.3793 19.5672 17.5175C19.5672 17.6558 19.4565 17.7665 19.3182 17.7665H16.9105V19.6341C16.9105 19.7864 16.7863 19.9106 16.634 19.9106C16.4817 19.9106 16.3643 19.7858 16.3643 19.6341V15.3105V15.3111Z" fill="white"/>
</svg>