<svg xmlns="http://www.w3.org/2000/svg" width="16" height="16" viewBox="0 0 16 16" fill="none">
  <g clip-path="url(#clip0_10165_13129)">
    <path fill-rule="evenodd" clip-rule="evenodd" d="M0.0106434 1.91095C-0.1067 0.836468 0.763786 0 1.75525 0H3.67237C4.52393 0 5.25711 0.601064 5.42412 1.43609L6.07997 4.71538C6.19711 5.30108 6.01379 5.90658 5.59143 6.32893L3.95396 7.9664C5.01308 9.6726 6.5072 11.271 8.56725 12.4385L10.5612 10.4446C11.0049 10.0009 11.6489 9.82253 12.2576 9.97473L14.6633 10.5761C15.4586 10.775 16.0165 11.4895 16.0165 12.3092V14.232C16.0165 15.2512 15.1456 16.1091 14.0744 15.9887C11.8624 15.74 9.9584 15.1563 8.32907 14.3362C5.36071 12.8423 3.35437 10.5903 2.05358 8.25873C0.817882 6.04385 0.210908 3.74473 0.0106434 1.91095ZM10.2802 13.252C11.4382 13.7051 12.7485 14.0382 14.23 14.2084V12.3092L11.8244 11.7078L10.2802 13.252ZM3.0734 6.32056L4.32823 5.06573L3.67237 1.78644H1.7943C1.94591 3.10761 2.3379 4.71037 3.0734 6.32056Z" fill="white"/>
  </g>
  <defs>
    <clipPath id="clip0_10165_13129">
      <rect width="16" height="16" fill="white"/>
    </clipPath>
  </defs>
</svg>