<svg width="15" height="14" viewBox="0 0 15 14" fill="none" xmlns="http://www.w3.org/2000/svg">
<g id="Group 105">
<path id="Rectangle 111 (Stroke)" fill-rule="evenodd" clip-rule="evenodd" d="M6.625 1.98337C6.40467 1.98337 6.1972 2.08711 6.065 2.26337L5.33 3.24337C4.93341 3.77217 4.31099 4.08337 3.65 4.08337H2.6C2.2134 4.08337 1.9 4.39677 1.9 4.78337V11.0834C1.9 11.47 2.2134 11.7834 2.6 11.7834H12.4C12.7866 11.7834 13.1 11.47 13.1 11.0834V4.78337C13.1 4.39677 12.7866 4.08337 12.4 4.08337H11.35C10.689 4.08337 10.0666 3.77217 9.67 3.24337L8.935 2.26337C8.8028 2.08711 8.59533 1.98337 8.375 1.98337H6.625ZM4.945 1.42337C5.34159 0.894582 5.96401 0.583374 6.625 0.583374H8.375C9.03599 0.583374 9.65841 0.894582 10.055 1.42337L10.79 2.40337C10.9222 2.57964 11.1297 2.68337 11.35 2.68337H12.4C13.5598 2.68337 14.5 3.62358 14.5 4.78337V11.0834C14.5 12.2432 13.5598 13.1834 12.4 13.1834H2.6C1.4402 13.1834 0.5 12.2432 0.5 11.0834V4.78337C0.5 3.62358 1.4402 2.68337 2.6 2.68337H3.65C3.87033 2.68337 4.0778 2.57964 4.21 2.40337L4.945 1.42337Z" fill="#C74D2F"/>
<path id="Ellipse 130 (Stroke)" fill-rule="evenodd" clip-rule="evenodd" d="M7.5 5.48337C6.3402 5.48337 5.4 6.42358 5.4 7.58337C5.4 8.74317 6.3402 9.68337 7.5 9.68337C8.6598 9.68337 9.6 8.74317 9.6 7.58337C9.6 6.42358 8.6598 5.48337 7.5 5.48337ZM4 7.58337C4 5.65038 5.567 4.08337 7.5 4.08337C9.433 4.08337 11 5.65038 11 7.58337C11 9.51637 9.433 11.0834 7.5 11.0834C5.567 11.0834 4 9.51637 4 7.58337Z" fill="#C74D2F"/>
</g>
</svg>
