<svg xmlns="http://www.w3.org/2000/svg" width="24" height="24" viewBox="0 0 24 24" fill="none">
  <path fill-rule="evenodd" clip-rule="evenodd" d="M20.4872 3.50036C20.3947 3.40783 20.2847 3.33456 20.1637 3.28479C20.0427 3.23501 19.913 3.20971 19.7822 3.21037C19.6513 3.21102 19.5219 3.2376 19.4014 3.28858C19.2809 3.33956 19.1717 3.41392 19.0801 3.50737L19.0731 3.51444L19.0731 3.5144L16.7069 5.88062L18.107 7.28076L20.4872 4.90053C20.6729 4.71486 20.7772 4.46304 20.7772 4.20047C20.7772 3.93789 20.6729 3.68607 20.4872 3.5004L20.4872 3.50036ZM21.8874 2.10027C21.6098 1.82269 21.28 1.60289 20.917 1.45356C20.5539 1.30423 20.1649 1.22835 19.7723 1.2303C19.3798 1.23226 18.9915 1.31201 18.63 1.46494C18.2701 1.61717 17.9438 1.8389 17.6698 2.11742L14.6067 5.18056C14.2201 5.56719 14.2201 6.19405 14.6067 6.58069L17.407 9.38095C17.7936 9.76759 18.4205 9.76759 18.8071 9.38095L21.8874 6.30066C22.4444 5.74366 22.7573 4.98819 22.7573 4.20047C22.7573 3.41276 22.4444 2.65731 21.8874 2.1003" fill="white"/>
  <path fill-rule="evenodd" clip-rule="evenodd" d="M11.1765 7.27753C11.5631 6.89089 12.19 6.89089 12.5766 7.27753L16.715 11.4159C17.1012 11.8021 17.1017 12.4281 16.7161 12.815L7.12255 22.4382C6.9368 22.6245 6.68451 22.7292 6.4214 22.7292H6.3125C6.25696 22.7292 6.20151 22.7246 6.14675 22.7153C5.86249 22.667 5.57079 22.6876 5.29616 22.7755C5.02153 22.8633 4.772 23.0158 4.56851 23.22C4.48134 23.3075 4.37952 23.3771 4.26879 23.4262C4.05074 23.5995 3.80616 23.7376 3.54383 23.8349C3.18401 23.9684 2.79945 24.0219 2.41686 23.9918C2.03426 23.9617 1.66281 23.8486 1.32832 23.6604C0.993833 23.4723 0.704329 23.2135 0.479926 22.9022C0.473963 22.8939 0.468129 22.8856 0.462425 22.8771C0.107387 22.351 -0.0511758 21.7167 0.0145241 21.0854C0.0797509 20.4587 0.36189 19.8746 0.811937 19.434C1.01281 19.2283 1.16247 18.9781 1.24875 18.7038C1.33591 18.4267 1.3559 18.1328 1.30707 17.8464C1.2977 17.7914 1.29298 17.7358 1.29298 17.68V17.5711C1.29298 17.3085 1.39729 17.0567 1.58296 16.871L11.1765 7.27753ZM11.8765 9.37772L3.30756 17.9467C3.33241 18.4025 3.27527 18.8602 3.13761 19.2979C2.95623 19.8746 2.64026 20.3999 2.21579 20.8304L2.19983 20.8462C2.07796 20.9644 2.00154 21.1216 1.98397 21.2904C1.96694 21.4541 2.00628 21.6185 2.09521 21.7566C2.15018 21.8293 2.21959 21.8899 2.29913 21.9347C2.38307 21.9819 2.47628 22.0103 2.57229 22.0178C2.6683 22.0254 2.7648 22.012 2.85509 21.9785C2.94538 21.945 3.02729 21.8922 3.09514 21.8239C3.17816 21.7402 3.27456 21.6729 3.37934 21.6241C3.76283 21.2943 4.20936 21.0442 4.69296 20.8895C5.13032 20.7496 5.58831 20.6909 6.04446 20.715L14.6159 12.1171L11.8765 9.37772Z" fill="white"/>
  <path fill-rule="evenodd" clip-rule="evenodd" d="M13.1124 3.68664C13.499 3.3 14.1259 3.3 14.5125 3.68664L20.309 9.48318C20.6957 9.86982 20.6957 10.4967 20.309 10.8833L17.5438 13.6486C17.1572 14.0352 16.5303 14.0352 16.1437 13.6486L10.3471 7.85203C9.96048 7.46539 9.96048 6.83853 10.3471 6.4519L13.1124 3.68664ZM13.8124 5.78684L12.4473 7.15196L16.8437 11.5484L18.2089 10.1832L13.8124 5.78684Z" fill="white"/>
</svg>