<svg xmlns="http://www.w3.org/2000/svg" width="26" height="32" viewBox="0 0 26 32" fill="none">
  <path d="M4.17965 25.2495C4.84256 24.4268 4.71301 23.2225 3.89028 22.5596C3.06756 21.8967 1.86321 22.0262 1.2003 22.8489C0.537393 23.6717 0.666953 24.876 1.48968 25.5389C2.3124 26.2018 3.51674 26.0723 4.17965 25.2495Z" fill="#4BA669"/>
  <path d="M2.69049 26.3281C1.4344 26.3281 0.412109 25.3058 0.412109 24.0497C0.412109 22.7937 1.4344 21.7714 2.69049 21.7714C3.94658 21.7714 4.96887 22.7937 4.96887 24.0497C4.96887 25.3058 3.94658 26.3281 2.69049 26.3281ZM2.69049 22.5014C1.8368 22.5014 1.14272 23.1955 1.14272 24.0492C1.14272 24.9029 1.8368 25.5969 2.69049 25.5969C3.54418 25.5969 4.23826 24.9029 4.23826 24.0492C4.23826 23.1955 3.54418 22.5014 2.69049 22.5014Z" fill="#09090D"/>
  <path d="M16.7308 0.365797H7.4223C4.88146 0.365797 2.82227 2.42556 2.82227 4.96583V27.0336C2.82227 29.5745 4.88203 31.6337 7.4223 31.6337H20.7026C23.2434 31.6337 25.3026 29.5739 25.3026 27.0336V8.93698L16.7308 0.365234V0.365797Z" fill="white"/>
  <path d="M20.7026 31.9995H7.42237C4.68427 31.9995 2.45703 29.7722 2.45703 27.0341V4.96632C2.45703 2.22821 4.68427 0.000976562 7.42237 0.000976562H16.7309C16.8276 0.000976562 16.9209 0.0391911 16.9894 0.107756L25.5612 8.67951C25.6298 8.74807 25.668 8.8408 25.668 8.93803V27.0347C25.668 29.7728 23.4407 32 20.7026 32V31.9995ZM7.42237 0.731025C5.08723 0.731025 3.18764 2.63061 3.18764 4.96575V27.0336C3.18764 29.3687 5.08723 31.2683 7.42237 31.2683H20.7026C23.0378 31.2683 24.9374 29.3687 24.9374 27.0336V9.08864L16.5797 0.731025H7.42237Z" fill="#09090D"/>
  <path d="M16.7314 0.365601L25.3032 8.93735H18.5597C17.5503 8.93735 16.7314 8.11907 16.7314 7.10914V0.365601Z" fill="#E4E4EB"/>
  <path d="M25.3044 9.30273H18.5597C17.3503 9.30273 16.3662 8.31866 16.3662 7.10922V0.365682C16.3662 0.217874 16.455 0.0846775 16.5916 0.0279147C16.7281 -0.0288481 16.8849 0.00262285 16.9895 0.107156L25.5444 8.66205C25.6208 8.72892 25.6691 8.82728 25.6691 8.93687C25.6691 9.13863 25.5056 9.30217 25.3038 9.30217L25.3044 9.30273ZM17.0968 1.24747V7.10922C17.0968 7.9157 17.7527 8.57212 18.5597 8.57212H24.4215L17.0974 1.24803L17.0968 1.24747Z" fill="#09090D"/>
  <path d="M2.86415 13.0177C1.72777 13.0177 0.806641 13.9388 0.806641 15.0752V23.6914H0.844295C1.02751 22.7427 1.86153 22.0256 2.86415 22.0256H23.5843V13.0177H2.86415Z" fill="#4BA669"/>
  <path d="M0.844366 24.0566H0.806712C0.604951 24.0566 0.441406 23.8931 0.441406 23.6913V15.0752C0.441406 13.7393 1.52833 12.6523 2.86422 12.6523H23.5843C23.7861 12.6523 23.9496 12.8159 23.9496 13.0176V22.0255C23.9496 22.2273 23.7861 22.3908 23.5843 22.3908H2.86422C2.05493 22.3908 1.35636 22.9669 1.20293 23.7604C1.16977 23.9324 1.01915 24.0566 0.844366 24.0566ZM2.86422 13.383C1.93129 13.383 1.17202 14.1422 1.17202 15.0752V22.3498C1.61263 21.9204 2.21342 21.6602 2.86422 21.6602H23.219V13.383H2.86422Z" fill="#09090D"/>
  <path d="M5.50488 15.2865C5.50488 15.1342 5.62965 15.01 5.77465 15.01H7.31736C8.41047 15.01 9.12984 15.5911 9.12984 16.546V16.56C9.12984 17.6048 8.25816 18.1443 7.22744 18.1443H6.05115V19.6112C6.05115 19.7635 5.92639 19.8877 5.77465 19.8877C5.6229 19.8877 5.50488 19.7629 5.50488 19.6112V15.2876V15.2865ZM7.24823 17.6458C8.05078 17.6458 8.57626 17.217 8.57626 16.5803V16.5662C8.57626 15.8744 8.05752 15.5147 7.27577 15.5147H6.05115V17.6453H7.24767L7.24823 17.6458Z" fill="white"/>
  <path d="M10.1265 15.259C10.1265 15.1134 10.2513 14.9892 10.3963 14.9892H10.4722C10.5969 14.9892 10.6728 15.0516 10.7487 15.1482L13.6885 18.898V15.2455C13.6885 15.0999 13.806 14.9757 13.9583 14.9757C14.1106 14.9757 14.2213 15.1005 14.2213 15.2455V19.6173C14.2213 19.7629 14.1174 19.873 13.9724 19.873H13.9448C13.8274 19.873 13.7442 19.8039 13.661 19.7073L10.6588 15.8676V19.6173C10.6588 19.7629 10.5413 19.8871 10.389 19.8871C10.2367 19.8871 10.126 19.7623 10.126 19.6173V15.259H10.1265Z" fill="white"/>
  <path d="M15.377 17.4451V17.4311C15.377 16.103 16.3526 14.9268 17.8054 14.9268C18.5388 14.9268 19.016 15.1206 19.4588 15.4455C19.5212 15.4938 19.5695 15.5703 19.5695 15.6669C19.5695 15.8192 19.4448 15.9434 19.2998 15.9434C19.2374 15.9434 19.1823 15.9159 19.1267 15.8743C18.781 15.6113 18.3933 15.4314 17.7846 15.4314C16.7123 15.4314 15.9446 16.3374 15.9446 17.417V17.4311C15.9446 18.5866 16.6847 19.4442 17.861 19.4442C18.4146 19.4442 18.9266 19.2295 19.2582 18.9597V17.7559H17.9577C17.8262 17.7559 17.7155 17.6452 17.7155 17.5137C17.7155 17.3754 17.8262 17.2647 17.9577 17.2647H19.5145C19.6595 17.2647 19.7842 17.3895 19.7842 17.5412V19.0148C19.7842 19.1463 19.7218 19.2638 19.5976 19.347C19.1548 19.6724 18.5602 19.9348 17.8402 19.9348C16.3183 19.9348 15.3775 18.8282 15.3775 17.4446L15.377 17.4451Z" fill="white"/>
</svg>