<svg width="18" height="18" viewBox="0 0 18 18" fill="none" xmlns="http://www.w3.org/2000/svg">
<g id="Search">
<path id="Vector" d="M1.98135 9.90475C2.29169 10.635 2.74282 11.297 3.30899 11.8528C3.87516 12.4087 4.54528 12.8477 5.28108 13.1446C6.01688 13.4415 6.80396 13.5906 7.59737 13.5833C8.39079 13.576 9.175 13.4125 9.90524 13.1022C10.6355 12.7919 11.2974 12.3407 11.8533 11.7746C12.4092 11.2084 12.8481 10.5383 13.145 9.80246C13.442 9.06666 13.591 8.27958 13.5838 7.48617C13.5765 6.69275 13.413 5.90854 13.1027 5.1783C12.7923 4.44807 12.3412 3.7861 11.775 3.23021C11.2089 2.67432 10.5387 2.23539 9.80294 1.93848C9.06714 1.64157 8.28006 1.4925 7.48664 1.49977C6.69323 1.50704 5.90901 1.67051 5.17878 1.98085C4.44854 2.2912 3.78658 2.74233 3.23069 3.3085C2.6748 3.87467 2.23587 4.54479 1.93896 5.28059C1.64206 6.01639 1.49298 6.80347 1.50025 7.59689C1.50753 8.3903 1.671 9.17452 1.98135 9.90475Z" stroke="white" stroke-width="1.5" stroke-linecap="round" stroke-linejoin="round"/>
<path id="Vector_2" d="M11.814 11.8135L16.5 16.5001" stroke="white" stroke-width="1.5" stroke-linecap="round" stroke-linejoin="round"/>
</g>
</svg>