<svg width="24" height="24" viewBox="0 0 24 24" fill="none" xmlns="http://www.w3.org/2000/svg">
<g id="Shield Good" clip-path="url(#clip0_1210_832)">
<path id="Rectangle 13 (Stroke)" fill-rule="evenodd" clip-rule="evenodd" d="M11.0625 0.0935782C11.4993 -0.0312232 11.9624 -0.0312233 12.3992 0.0935782L19.6973 2.17876C20.7417 2.47715 21.4617 3.43171 21.4617 4.51787V10.7207C21.4617 15.0417 19.3749 19.0968 15.8587 21.6084L13.1448 23.5468C12.299 24.151 11.1627 24.151 10.3169 23.5468L7.60299 21.6084C4.08681 19.0968 2 15.0417 2 10.7207V4.51787C2 3.43171 2.72003 2.47715 3.76439 2.17876L11.0625 0.0935782ZM11.7308 2.43269L4.43271 4.51787V10.7207C4.43271 14.2561 6.1401 17.5739 9.01698 19.6288L11.7308 21.5673L14.4447 19.6288C17.3216 17.5739 19.029 14.2561 19.029 10.7207V4.51787L11.7308 2.43269ZM16.8482 8.02991C17.3232 8.50492 17.3232 9.27508 16.8482 9.75009L11.7988 14.7995C11.3238 15.2745 10.5536 15.2745 10.0786 14.7995L7.64589 12.3668C7.17088 11.8918 7.17088 11.1216 7.64589 10.6466C8.12091 10.1716 8.89106 10.1716 9.36608 10.6466L10.9387 12.2192L15.128 8.02991C15.603 7.55489 16.3732 7.55489 16.8482 8.02991Z" fill="white"/>
</g>
<defs>
<clipPath id="clip0_1210_832">
<rect width="24" height="24" fill="white" stroke="white"/>
</clipPath>
</defs>
</svg>
