<svg width="22" height="24" viewBox="0 0 22 24" fill="none" xmlns="http://www.w3.org/2000/svg">
<g id="Group 93">
<path id="Vector 11 (Stroke)" fill-rule="evenodd" clip-rule="evenodd" d="M0.355541 0.355541C0.829596 -0.118514 1.59819 -0.118514 2.07225 0.355541L21.4945 19.7778C21.9686 20.2519 21.9686 21.0205 21.4945 21.4945C21.0205 21.9686 20.2519 21.9686 19.7778 21.4945L0.355541 2.07225C-0.118514 1.59819 -0.118514 0.829596 0.355541 0.355541Z" fill="white"/>
<path id="Subtract" fill-rule="evenodd" clip-rule="evenodd" d="M2.7261 2.40806C1.93971 2.82105 1.4278 3.6424 1.4278 4.55731V10.7476C1.4278 15.0599 3.51038 19.1068 7.01945 21.6132L9.72782 23.5478C10.572 24.1507 11.7059 24.1507 12.5501 23.5478L15.2584 21.6132C16.5661 20.6792 17.6757 19.5312 18.5533 18.2352L16.7978 16.4797C16.0446 17.7019 15.048 18.78 13.8473 19.6377L11.1389 21.5722L8.43057 19.6377C5.55951 17.5869 3.85558 14.2758 3.85558 10.7476V4.55731L4.64874 4.3307L2.7261 2.40806ZM17.8846 14.1331C18.2366 13.0533 18.4223 11.9123 18.4223 10.7476V4.55731L11.1389 2.47635L7.31917 3.56772L5.35533 1.60388L10.472 0.141977C10.9079 0.0174278 11.37 0.0174276 11.8059 0.141977L19.0893 2.22294C20.1315 2.52072 20.8501 3.47335 20.8501 4.55731V10.7476C20.8501 12.5846 20.4722 14.3735 19.767 16.0156L17.8846 14.1331Z" fill="white"/>
</g>
</svg>
