<svg xmlns="http://www.w3.org/2000/svg" width="16" height="16" viewBox="0 0 16 16" fill="none">
  <path fill-rule="evenodd" clip-rule="evenodd" d="M0 0.8C0 0.358172 0.358172 0 0.8 0H1.89715C3.03521 0 4.0168 0.799287 4.24737 1.91375L6.11944 10.9621C6.1963 11.3336 6.5235 11.6 6.90285 11.6H12.4C12.8418 11.6 13.2 11.9582 13.2 12.4C13.2 12.8418 12.8418 13.2 12.4 13.2H6.90285C5.76479 13.2 4.7832 12.4007 4.55263 11.2863L2.68056 2.23792C2.6037 1.86643 2.2765 1.6 1.89715 1.6H0.8C0.358172 1.6 0 1.24183 0 0.8Z" fill="white"/>
  <path fill-rule="evenodd" clip-rule="evenodd" d="M3.05933 3.99995C3.05933 3.55812 3.4175 3.19995 3.85933 3.19995H14.1394C15.2024 3.19995 15.9698 4.2174 15.6778 5.23951L14.8665 8.07906C14.474 9.45282 13.2184 10.4 11.7896 10.4H5.02183C4.58 10.4 4.22183 10.0418 4.22183 9.59995C4.22183 9.15812 4.58 8.79995 5.02183 8.79995H11.7896C12.504 8.79995 13.1318 8.32639 13.3281 7.6395L14.1394 4.79995H3.85933C3.4175 4.79995 3.05933 4.44178 3.05933 3.99995Z" fill="white"/>
  <path d="M12 14.8C12 15.0209 11.8209 15.2 11.6 15.2C11.379 15.2 11.2 15.0209 11.2 14.8C11.2 14.5791 11.379 14.4 11.6 14.4C11.8209 14.4 12 14.5791 12 14.8Z" fill="white"/>
  <path fill-rule="evenodd" clip-rule="evenodd" d="M11.5999 15.2C11.8208 15.2 11.9999 15.0209 11.9999 14.8C11.9999 14.5791 11.8208 14.4 11.5999 14.4C11.379 14.4 11.1999 14.5791 11.1999 14.8C11.1999 15.0209 11.379 15.2 11.5999 15.2ZM10.3999 14.8C10.3999 14.1372 10.9372 13.6 11.5999 13.6C12.2626 13.6 12.7999 14.1372 12.7999 14.8C12.7999 15.4627 12.2626 16 11.5999 16C10.9372 16 10.3999 15.4627 10.3999 14.8Z" fill="white"/>
  <path d="M7.1999 14.8C7.1999 14.579 7.02082 14.4 6.7999 14.4C6.57899 14.4 6.3999 14.579 6.3999 14.8C6.3999 15.0209 6.57899 15.2 6.7999 15.2C7.02082 15.2 7.1999 15.0209 7.1999 14.8Z" fill="white"/>
  <path fill-rule="evenodd" clip-rule="evenodd" d="M6.8001 14.4C7.02101 14.4 7.2001 14.5791 7.2001 14.8C7.2001 15.0209 7.02101 15.2 6.8001 15.2C6.57918 15.2 6.4001 15.0209 6.4001 14.8C6.4001 14.5791 6.57918 14.4 6.8001 14.4ZM5.6001 14.8C5.6001 15.4627 6.13736 16 6.8001 16C7.46284 16 8.0001 15.4627 8.0001 14.8C8.0001 14.1373 7.46284 13.6 6.8001 13.6C6.13736 13.6 5.6001 14.1373 5.6001 14.8Z" fill="white"/>
</svg>