<svg xmlns="http://www.w3.org/2000/svg" width="20" height="24" viewBox="0 0 20 24" fill="none">
  <path fill-rule="evenodd" clip-rule="evenodd" d="M4.62182 0C5.19812 0 5.6653 0.467181 5.6653 1.04348V1.38453C5.69914 1.48729 5.71745 1.5971 5.71745 1.71119C5.71745 1.82528 5.69914 1.9351 5.6653 2.03785V2.37913C5.6653 2.95543 5.19812 3.42261 4.62182 3.42261C4.17791 3.42261 3.79874 3.14542 3.64796 2.75467H2.58701V7.82045C2.60206 9.17445 3.15251 10.4675 4.11816 11.4169C5.05088 12.334 6.2976 12.8583 7.60174 12.8859C7.6673 12.8729 7.73507 12.8662 7.80443 12.8662C7.87253 12.8662 7.93912 12.8727 8.00359 12.8852C8.59863 12.8669 9.18657 12.7451 9.74082 12.5245C10.3681 12.2749 10.9398 11.9038 11.4232 11.4325C11.9065 10.9612 12.292 10.3991 12.5574 9.77835C12.8221 9.15915 12.9622 8.49386 12.9696 7.82052V2.75467H11.867C11.7162 3.14542 11.337 3.42261 10.8931 3.42261C10.3168 3.42261 9.84963 2.95543 9.84963 2.37913V1.04348C9.84963 0.467181 10.3168 0 10.8931 0C11.3369 0 11.716 0.27709 11.8669 0.667715H14.0131C14.5894 0.667715 15.0566 1.1349 15.0566 1.71119V7.83645C15.0471 8.78647 14.8498 9.72525 14.4763 10.5988C14.1028 11.4724 13.5603 12.2635 12.8801 12.9268C12.1998 13.59 11.3952 14.1123 10.5125 14.4636C9.97721 14.6766 9.41964 14.8241 8.85183 14.9041C8.87751 15.5267 9.01656 16.1398 9.2626 16.7132C9.52851 17.333 9.91415 17.8941 10.3974 18.3645C10.8806 18.8348 11.452 19.2052 12.0787 19.4542C12.4192 19.5896 12.7725 19.6877 13.1323 19.7474C13.5896 18.5535 14.7616 17.7183 16.1105 17.7183C17.8487 17.7183 19.2931 19.1052 19.2931 20.8591C19.2931 22.6131 17.8487 24 16.1105 24C14.7162 24 13.511 23.1076 13.0886 21.8492C12.4794 21.7741 11.8809 21.6213 11.3079 21.3936C10.4259 21.0431 9.62186 20.5219 8.94177 19.86C8.26168 19.198 7.71896 18.4083 7.34474 17.5362C6.98815 16.7051 6.79123 15.8147 6.76384 14.9116C5.22172 14.7075 3.77696 14.0082 2.65502 12.9051C1.29433 11.5673 0.519435 9.74465 0.500107 7.83655L0.5 7.82598L0.500053 1.71119C0.500053 1.1349 0.967235 0.667715 1.54353 0.667715H3.64804C3.79888 0.27709 4.17799 0 4.62182 0ZM15.0628 21.1665C15.1976 21.5894 15.6035 21.913 16.1105 21.913C16.7351 21.913 17.2062 21.4219 17.2062 20.8591C17.2062 20.2964 16.7351 19.8052 16.1105 19.8052C15.6034 19.8052 15.1976 20.1289 15.0628 20.5519C15.0912 20.6441 15.1071 20.7419 15.1087 20.8433C15.1104 20.9558 15.0942 21.0644 15.0628 21.1665Z" fill="white"/>
</svg>