<svg xmlns="http://www.w3.org/2000/svg" width="24" height="24" viewBox="0 0 24 24" fill="none">
  <path fill-rule="evenodd" clip-rule="evenodd" d="M6.86136 4.60074C7.26874 4.19715 7.92547 4.19797 8.33184 4.60257L15.5102 11.7496C15.7066 11.9451 15.8171 12.2107 15.8174 12.4879C15.8177 12.765 15.7077 13.0308 15.5118 13.2268L13.279 15.4596C12.8722 15.8664 12.2128 15.8671 11.8051 15.4612L4.61629 8.30369C4.41931 8.10758 4.30874 7.84097 4.30908 7.56301C4.30943 7.28506 4.42067 7.01873 4.61813 6.8231L6.86136 4.60074ZM6.83307 7.56616L12.5396 13.2479L13.2969 12.4906L7.59385 6.81245L6.83307 7.56616Z" fill="white"/>
  <path fill-rule="evenodd" clip-rule="evenodd" d="M6.21544 2.97661C6.6229 3.38407 6.6229 4.0447 6.21544 4.45215L4.46259 6.20501C4.05513 6.61247 3.39451 6.61247 2.98705 6.20501C2.57959 5.79755 2.57959 5.13693 2.98705 4.72947L4.7399 2.97661C5.14736 2.56916 5.80798 2.56916 6.21544 2.97661Z" fill="white"/>
  <path fill-rule="evenodd" clip-rule="evenodd" d="M0.304512 0.306678C0.711372 -0.101378 1.37199 -0.102349 1.78005 0.304512L5.33792 3.85195C5.74598 4.25881 5.74695 4.91943 5.34009 5.32749C4.93323 5.73554 4.27261 5.73651 3.86455 5.32965L0.306678 1.78222C-0.101378 1.37536 -0.102349 0.714735 0.304512 0.306678Z" fill="white"/>
  <path fill-rule="evenodd" clip-rule="evenodd" d="M15.0501 10.7479C15.457 10.343 16.1145 10.3428 16.5216 10.7475L18.2536 12.469C18.4506 12.6648 18.5613 12.931 18.5614 13.2087C18.5615 13.4864 18.4509 13.7527 18.254 13.9486L13.9971 18.1846C13.5902 18.5895 12.9327 18.5897 12.5256 18.1851L10.7936 16.4635C10.5966 16.2677 10.4859 16.0015 10.4858 15.7238C10.4857 15.4461 10.5963 15.1798 10.7932 14.9839L15.0501 10.7479ZM15.7865 12.959L13.0087 15.7231L13.2607 15.9735L16.0385 13.2094L15.7865 12.959Z" fill="white"/>
  <path fill-rule="evenodd" clip-rule="evenodd" d="M21.6093 18.7621L18.8566 21.4955C18.8564 21.5003 18.8567 21.5051 18.8575 21.5099C18.8605 21.5285 18.8706 21.5451 18.8857 21.5564C18.9671 21.6176 19.0391 21.6904 19.0994 21.7724C19.1105 21.7875 19.1269 21.7977 19.1453 21.801C19.149 21.8017 19.1527 21.802 19.1563 21.8021L21.9129 19.0552C21.9135 19.05 21.9134 19.0446 21.9126 19.0392C21.9101 19.023 21.9014 19.0084 21.8883 18.9985C21.8111 18.9404 21.7423 18.8718 21.684 18.7947C21.671 18.7777 21.652 18.7662 21.6309 18.7628C21.6237 18.7616 21.6164 18.7614 21.6093 18.7621ZM20.3937 17.0528C20.8539 16.7387 21.4172 16.6135 21.9671 16.7033C22.4692 16.7853 22.925 17.0407 23.2564 17.4227C23.6437 17.7575 23.9001 18.2209 23.9763 18.7304C24.0597 19.2879 23.9208 19.856 23.5894 20.312C23.5569 20.3567 23.5209 20.3987 23.4818 20.4377L20.5082 23.4009C20.4585 23.4505 20.4038 23.4949 20.3451 23.5335C19.8829 23.8376 19.3216 23.9526 18.777 23.855C18.2828 23.7663 17.8365 23.5086 17.5132 23.1286C17.1341 22.7993 16.8803 22.3469 16.7984 21.8484C16.7081 21.2994 16.8332 20.7367 17.1476 20.2777C17.1847 20.2236 17.2268 20.1731 17.2733 20.1269L20.2469 17.1741C20.292 17.1293 20.3412 17.0887 20.3937 17.0528Z" fill="white"/>
  <path fill-rule="evenodd" clip-rule="evenodd" d="M14.6509 14.5901C15.0578 14.1821 15.7185 14.1813 16.1264 14.5882L20.2269 18.6782C20.6348 19.0852 20.6357 19.7458 20.2287 20.1537C19.8218 20.5617 19.1612 20.5626 18.7532 20.1556L14.6528 16.0656C14.2448 15.6587 14.244 14.9981 14.6509 14.5901Z" fill="white"/>
</svg>