<svg xmlns="http://www.w3.org/2000/svg" width="16" height="16" viewBox="0 0 16 16" fill="none">
  <path fill-rule="evenodd" clip-rule="evenodd" d="M6.2668 6.40002C6.70862 6.40002 7.0668 6.7582 7.0668 7.20002V12C7.0668 12.4419 6.70862 12.8 6.2668 12.8C5.82497 12.8 5.4668 12.4419 5.4668 12V7.20002C5.4668 6.7582 5.82497 6.40002 6.2668 6.40002Z" fill="white"/>
  <path fill-rule="evenodd" clip-rule="evenodd" d="M9.46699 6.40002C9.90882 6.40002 10.267 6.7582 10.267 7.20002V12C10.267 12.4419 9.90882 12.8 9.46699 12.8C9.02516 12.8 8.66699 12.4419 8.66699 12V7.20002C8.66699 6.7582 9.02516 6.40002 9.46699 6.40002Z" fill="white"/>
  <path fill-rule="evenodd" clip-rule="evenodd" d="M0.666992 3.99995C0.666992 3.55812 1.02516 3.19995 1.46699 3.19995H14.267C14.7088 3.19995 15.067 3.55812 15.067 3.99995C15.067 4.44178 14.7088 4.79995 14.267 4.79995H1.46699C1.02516 4.79995 0.666992 4.44178 0.666992 3.99995Z" fill="white"/>
  <path fill-rule="evenodd" clip-rule="evenodd" d="M2.2666 3.99995C2.2666 3.55812 2.62477 3.19995 3.0666 3.19995H12.6666C13.1084 3.19995 13.4666 3.55812 13.4666 3.99995V12.8C13.4666 14.5673 12.0339 16 10.2666 16H5.4666C3.69929 16 2.2666 14.5673 2.2666 12.8V3.99995ZM3.8666 4.79995V12.8C3.8666 13.6836 4.58295 14.4 5.4666 14.4H10.2666C11.1503 14.4 11.8666 13.6836 11.8666 12.8V4.79995H3.8666Z" fill="white"/>
  <path fill-rule="evenodd" clip-rule="evenodd" d="M4.66699 2.4C4.66699 1.07452 5.74151 0 7.06699 0H8.66699C9.99248 0 11.067 1.07452 11.067 2.4V4C11.067 4.44183 10.7088 4.8 10.267 4.8H5.46699C5.02516 4.8 4.66699 4.44183 4.66699 4V2.4ZM7.06699 1.6C6.62516 1.6 6.26699 1.95817 6.26699 2.4V3.2H9.46699V2.4C9.46699 1.95817 9.10882 1.6 8.66699 1.6H7.06699Z" fill="white"/>
</svg>