<svg xmlns="http://www.w3.org/2000/svg" width="26" height="32" viewBox="0 0 26 32" fill="none">
  <path d="M2.27835 25.9628C3.33493 25.9628 4.19144 25.1063 4.19144 24.0497C4.19144 22.9931 3.33493 22.1366 2.27835 22.1366C1.22176 22.1366 0.365234 22.9931 0.365234 24.0497C0.365234 25.1063 1.22176 25.9628 2.27835 25.9628Z" fill="#5273A8"/>
  <path d="M2.27842 26.3281C1.02231 26.3281 0 25.3058 0 24.0497C0 22.7936 1.02231 21.7712 2.27842 21.7712C3.53453 21.7712 4.55683 22.7936 4.55683 24.0497C4.55683 25.3058 3.53453 26.3281 2.27842 26.3281ZM2.27842 22.5019C1.42472 22.5019 0.730624 23.196 0.730624 24.0497C0.730624 24.9034 1.42472 25.5975 2.27842 25.5975C3.13213 25.5975 3.82621 24.9034 3.82621 24.0497C3.82621 23.196 3.13213 22.5019 2.27842 22.5019Z" fill="#09090D"/>
  <path d="M16.319 0.365723H7.01028C4.4694 0.365723 2.41016 2.42552 2.41016 4.96584V27.034C2.41016 29.5749 4.46996 31.6342 7.01028 31.6342H20.2908C22.8317 31.6342 24.8909 29.5744 24.8909 27.034V8.93762L16.319 0.365723Z" fill="white"/>
  <path d="M20.2908 31.9994H7.01036C4.2722 31.9994 2.04492 29.7722 2.04492 27.034V4.9658C2.04492 2.22764 4.2722 0.000366211 7.01036 0.000366211H16.3191C16.4157 0.000366211 16.509 0.0385834 16.5776 0.10715L25.1489 8.67905C25.2175 8.74762 25.2557 8.84035 25.2557 8.93758V27.0346C25.2557 29.7727 23.0284 32 20.2903 32L20.2908 31.9994ZM7.01036 0.73099C4.67517 0.73099 2.77555 2.63061 2.77555 4.9658V27.034C2.77555 29.3692 4.67517 31.2688 7.01036 31.2688H20.2908C22.626 31.2688 24.5256 29.3692 24.5256 27.034V9.08876L16.1679 0.73099H7.01036Z" fill="#09090D"/>
  <path d="M16.3193 0.365723L24.8912 8.93762H18.1476C17.1382 8.93762 16.3193 8.11932 16.3193 7.10938V0.365723Z" fill="#E4E4EB"/>
  <path d="M24.8924 9.3029C24.8924 9.3029 24.8919 9.3029 24.8913 9.3029H18.1477C16.9382 9.3029 15.9541 8.3188 15.9541 7.10934V0.365688C15.9541 0.217877 16.0429 0.0846786 16.1795 0.0279148C16.316 -0.028849 16.4728 0.00262401 16.5774 0.107159L25.1324 8.6622C25.2089 8.72908 25.2572 8.82743 25.2572 8.93702C25.2572 9.13879 25.0936 9.30234 24.8919 9.30234L24.8924 9.3029ZM16.6847 1.24749V7.10934C16.6847 7.91584 17.3406 8.57228 18.1477 8.57228H24.0095L16.6853 1.24806L16.6847 1.24749Z" fill="#09090D"/>
  <path d="M2.45305 13.0178C1.31665 13.0178 0.395508 13.939 0.395508 15.0754V23.6917H0.433159C0.616377 22.743 1.45041 22.0258 2.45305 22.0258H23.1735V13.0178H2.45305Z" fill="#5273A8"/>
  <path d="M0.433236 24.0564H0.395585C0.193821 24.0564 0.0302734 23.8929 0.0302734 23.6911V15.0748C0.0302734 13.7389 1.11721 12.652 2.45313 12.652H23.1736C23.3754 12.652 23.5389 12.8155 23.5389 13.0173V22.0253C23.5389 22.2271 23.3754 22.3906 23.1736 22.3906H2.45313C1.64382 22.3906 0.945228 22.9667 0.791797 23.7603C0.758638 23.9322 0.608024 24.0564 0.433236 24.0564ZM2.45313 13.3832C1.52018 13.3832 0.760897 14.1425 0.760897 15.0754V22.3502C1.20152 21.9208 1.80231 21.6606 2.45313 21.6606H22.8083V13.3832H2.45313Z" fill="#09090D"/>
  <path d="M7.43169 15.6014H6.02721C5.88895 15.6014 5.77148 15.4907 5.77148 15.3524C5.77148 15.2141 5.88895 15.0967 6.02721 15.0967H9.38919C9.52744 15.0967 9.64491 15.2141 9.64491 15.3524C9.64491 15.4907 9.52744 15.6014 9.38919 15.6014H7.98471V19.6968C7.98471 19.8491 7.85994 19.9733 7.7082 19.9733C7.55645 19.9733 7.43169 19.8485 7.43169 19.6968V15.6014Z" fill="white"/>
  <path d="M10.4827 19.5243L12.1013 17.4696L10.5653 15.5323C10.517 15.4699 10.4754 15.4075 10.4754 15.3249C10.4754 15.1867 10.5928 15.0619 10.7451 15.0619C10.8559 15.0619 10.9183 15.117 10.9874 15.2001L12.4469 17.0958L13.8857 15.2209C13.9616 15.131 14.0307 15.0619 14.1487 15.0619C14.2802 15.0619 14.3977 15.1726 14.3977 15.3176C14.3977 15.3867 14.3702 15.4559 14.3218 15.5115L12.7791 17.4623L14.3769 19.503C14.432 19.5653 14.4668 19.6277 14.4668 19.7036C14.4668 19.8492 14.3494 19.9734 14.1971 19.9734C14.0863 19.9734 14.024 19.9183 13.9548 19.8351L12.4261 17.8495L10.9183 19.8143C10.8424 19.9042 10.7733 19.9734 10.6485 19.9734C10.5237 19.9734 10.4062 19.8626 10.4062 19.7176C10.4062 19.6485 10.4338 19.5794 10.4821 19.5238L10.4827 19.5243Z" fill="white"/>
  <path d="M16.8887 15.6014H15.4842C15.346 15.6014 15.2285 15.4907 15.2285 15.3524C15.2285 15.2141 15.346 15.0967 15.4842 15.0967H18.8462C18.9845 15.0967 19.1019 15.2141 19.1019 15.3524C19.1019 15.4907 18.9845 15.6014 18.8462 15.6014H17.4417V19.6968C17.4417 19.8491 17.317 19.9733 17.1652 19.9733C17.0135 19.9733 16.8887 19.8485 16.8887 19.6968V15.6014Z" fill="white"/>
</svg>