<svg xmlns="http://www.w3.org/2000/svg" width="32" height="31" viewBox="0 0 32 31" fill="none">
  <path fill-rule="evenodd" clip-rule="evenodd" d="M16.0004 30.5555C15.0186 30.5555 14.2227 29.7596 14.2227 28.7778L14.2227 15.2919L12.8131 16.7015C12.1188 17.3958 10.9932 17.3958 10.2989 16.7015C9.60465 16.0072 9.60465 14.8816 10.2989 14.1874L14.7434 9.74291C15.4376 9.04864 16.5632 9.04864 17.2575 9.74291L21.702 14.1874C22.3962 14.8816 22.3962 16.0072 21.702 16.7015C21.0077 17.3958 19.8821 17.3958 19.1878 16.7015L17.7782 15.2919L17.7782 28.7778C17.7782 29.7596 16.9823 30.5555 16.0004 30.5555Z" fill="white"/>
  <path fill-rule="evenodd" clip-rule="evenodd" d="M5.90542 7.54628C7.34089 3.35042 11.3165 0.333374 16 0.333374C20.6835 0.333374 24.6591 3.35042 26.0946 7.54628C29.4477 8.11894 32 11.0392 32 14.5556C32 18.483 28.8162 21.6667 24.8889 21.6667H23.1111C22.1293 21.6667 21.3333 20.8708 21.3333 19.8889C21.3333 18.9071 22.1293 18.1112 23.1111 18.1112H24.8889C26.8526 18.1112 28.4444 16.5193 28.4444 14.5556C28.4444 12.5919 26.8526 11 24.8889 11C24.8491 11 24.8093 11.0007 24.7697 11.002C23.9025 11.0303 23.1416 10.4286 22.9693 9.57823C22.3115 6.33198 19.4391 3.88893 16 3.88893C12.561 3.88893 9.68852 6.33198 9.0307 9.57823C8.85839 10.4286 8.09747 11.0303 7.23033 11.002C7.19069 11.0007 7.15095 11 7.11111 11C5.14743 11 3.55556 12.5919 3.55556 14.5556C3.55556 16.5193 5.14743 18.1112 7.11111 18.1112H8.88889C9.87073 18.1112 10.6667 18.9071 10.6667 19.8889C10.6667 20.8708 9.87073 21.6667 8.88889 21.6667H7.11111C3.18375 21.6667 0 18.483 0 14.5556C0 11.0392 2.5523 8.11894 5.90542 7.54628Z" fill="white"/>
</svg>