<svg xmlns="http://www.w3.org/2000/svg" width="21" height="24" viewBox="0 0 21 24" fill="none">
  <path fill-rule="evenodd" clip-rule="evenodd" d="M10.7718 2.52632C8.6789 2.52632 6.98229 4.22292 6.98229 6.31579C6.98229 8.40866 8.6789 10.1053 10.7718 10.1053C12.8646 10.1053 14.5612 8.40866 14.5612 6.31579C14.5612 4.22292 12.8646 2.52632 10.7718 2.52632ZM4.45598 6.31579C4.45598 2.82768 7.28365 0 10.7718 0C14.2599 0 17.0876 2.82768 17.0876 6.31579C17.0876 9.8039 14.2599 12.6316 10.7718 12.6316C7.28365 12.6316 4.45598 9.8039 4.45598 6.31579ZM8.24545 16.4211C5.45496 16.4211 3.19282 18.6832 3.19282 21.4737V22.7368C3.19282 23.4345 2.62728 24 1.92966 24C1.23204 24 0.666504 23.4345 0.666504 22.7368V21.4737C0.666504 17.2879 4.05971 13.8947 8.24545 13.8947H13.2981C17.4838 13.8947 20.877 17.2879 20.877 21.4737V22.7368C20.877 23.4345 20.3115 24 19.6139 24C18.9162 24 18.3507 23.4345 18.3507 22.7368V21.4737C18.3507 18.6832 16.0886 16.4211 13.2981 16.4211H8.24545Z" fill="white"/>
</svg>