<svg width="17" height="16" viewBox="0 0 17 16" fill="none" xmlns="http://www.w3.org/2000/svg">
<g id="Group 85">
<path id="Ellipse 28" d="M9.31919 11.8986C9.31919 12.3509 8.9525 12.7176 8.50017 12.7176C8.04784 12.7176 7.68115 12.3509 7.68115 11.8986C7.68115 11.4463 8.04784 11.0796 8.50017 11.0796C8.9525 11.0796 9.31919 11.4463 9.31919 11.8986Z" fill="#C74D2F"/>
<path id="Vector 9 (Stroke)" fill-rule="evenodd" clip-rule="evenodd" d="M8.50017 5.34644C8.9525 5.34644 9.31919 5.71312 9.31919 6.16545L9.31919 9.44152C9.31919 9.89385 8.9525 10.2605 8.50017 10.2605C8.04784 10.2605 7.68115 9.89385 7.68115 9.44152L7.68115 6.16545C7.68115 5.71312 8.04784 5.34644 8.50017 5.34644Z" fill="#C74D2F"/>
<path id="Vector 213 (Stroke)" fill-rule="evenodd" clip-rule="evenodd" d="M9.23255 2.09078C8.93072 1.48712 8.06927 1.48712 7.76745 2.09077L2.22767 13.1703C1.95539 13.7149 2.35138 14.3556 2.96022 14.3556H14.0398C14.6486 14.3556 15.0446 13.7149 14.7723 13.1703L9.23255 2.09078ZM6.30234 1.35822C7.20783 -0.452747 9.79217 -0.452736 10.6977 1.35823L16.2374 12.4378C17.0543 14.0715 15.8663 15.9937 14.0398 15.9937H2.96022C1.13369 15.9937 -0.0542789 14.0715 0.762568 12.4378L6.30234 1.35822Z" fill="#C74D2F"/>
</g>
</svg>
