<svg width="24" height="24" viewBox="0 0 24 24" fill="none" xmlns="http://www.w3.org/2000/svg">
<g id="Group 85">
<path id="Ellipse 28" d="M13.2285 17.8479C13.2285 18.5264 12.6785 19.0764 12 19.0764C11.3215 19.0764 10.7715 18.5264 10.7715 17.8479C10.7715 17.1694 11.3215 16.6194 12 16.6194C12.6785 16.6194 13.2285 17.1694 13.2285 17.8479Z" fill="white"/>
<path id="Vector 9 (Stroke)" fill-rule="evenodd" clip-rule="evenodd" d="M12 8.01953C12.6785 8.01953 13.2285 8.56956 13.2285 9.24806L13.2285 14.1622C13.2285 14.8407 12.6785 15.3907 12 15.3907C11.3215 15.3907 10.7715 14.8407 10.7715 14.1622L10.7715 9.24806C10.7715 8.56956 11.3215 8.01953 12 8.01953Z" fill="white"/>
<path id="Vector 213 (Stroke)" fill-rule="evenodd" clip-rule="evenodd" d="M13.0988 3.13617C12.6461 2.23068 11.3539 2.23068 10.9012 3.13616L2.59151 19.7555C2.18308 20.5723 2.77707 21.5334 3.69033 21.5334H20.3097C21.2229 21.5334 21.8169 20.5723 21.4085 19.7555L13.0988 3.13617ZM8.70352 2.03733C10.0617 -0.67912 13.9383 -0.679105 15.2965 2.03734L23.6061 18.6567C24.8314 21.1072 23.0495 23.9905 20.3097 23.9905H3.69033C0.950534 23.9905 -0.831418 21.1072 0.393852 18.6567L8.70352 2.03733Z" fill="white"/>
</g>
</svg>
