<svg width="24" height="24" viewBox="0 0 24 24" fill="none" xmlns="http://www.w3.org/2000/svg">
<path fill-rule="evenodd" clip-rule="evenodd" d="M2 8C2 6.34315 3.34315 5 5 5H19C20.6569 5 22 6.34315 22 8V12.5C22 13.0523 21.5523 13.5 21 13.5C20.4477 13.5 20 13.0523 20 12.5V8C20 7.44772 19.5523 7 19 7H5C4.44772 7 4 7.44772 4 8V17C4 17.5523 4.44772 18 5 18H13C13.5523 18 14 18.4477 14 19C14 19.5523 13.5523 20 13 20H5C3.34315 20 2 18.6569 2 17V8Z" fill="#7369AB"/>
<path fill-rule="evenodd" clip-rule="evenodd" d="M18.5 14C19.0523 14 19.5 14.4477 19.5 15V16.5H21C21.5523 16.5 22 16.9477 22 17.5C22 18.0523 21.5523 18.5 21 18.5H19.5V20C19.5 20.5523 19.0523 21 18.5 21C17.9477 21 17.5 20.5523 17.5 20V18.5H16C15.4477 18.5 15 18.0523 15 17.5C15 16.9477 15.4477 16.5 16 16.5H17.5V15C17.5 14.4477 17.9477 14 18.5 14Z" fill="#7369AB"/>
<path fill-rule="evenodd" clip-rule="evenodd" d="M2 10C2 9.44772 2.44772 9 3 9H20.5C21.0523 9 21.5 9.44772 21.5 10C21.5 10.5523 21.0523 11 20.5 11H3C2.44772 11 2 10.5523 2 10Z" fill="#7369AB"/>
<path fill-rule="evenodd" clip-rule="evenodd" d="M6 15C6 14.4477 6.44772 14 7 14H9C9.55228 14 10 14.4477 10 15C10 15.5523 9.55228 16 9 16H7C6.44772 16 6 15.5523 6 15Z" fill="#7369AB"/>
</svg>
