<svg width="24" height="24" viewBox="0 0 24 24" fill="none" xmlns="http://www.w3.org/2000/svg">
<path fill-rule="evenodd" clip-rule="evenodd" d="M20.8001 6.39993C21.1314 6.84176 21.0419 7.46856 20.6001 7.79993L14.4001 12.45C12.9778 13.5166 11.0223 13.5166 9.60005 12.45L3.40006 7.79999C2.95823 7.46861 2.86869 6.84181 3.20006 6.39999C3.53143 5.95816 4.15823 5.86861 4.60006 6.19999L10.8001 10.85C11.5112 11.3833 12.4889 11.3833 13.2001 10.85L19.4001 6.19994C19.8419 5.86857 20.4687 5.95811 20.8001 6.39993Z" fill="#7369AB"/>
<path fill-rule="evenodd" clip-rule="evenodd" d="M2 7C2 5.34315 3.34315 4 5 4H19C20.6569 4 22 5.34315 22 7V12C22 12.5523 21.5523 13 21 13C20.4477 13 20 12.5523 20 12V7C20 6.44772 19.5523 6 19 6H5C4.44772 6 4 6.44772 4 7V17C4 17.5523 4.44772 18 5 18H13C13.5523 18 14 18.4477 14 19C14 19.5523 13.5523 20 13 20H5C3.34315 20 2 18.6569 2 17V7Z" fill="#7369AB"/>
<path fill-rule="evenodd" clip-rule="evenodd" d="M18.5 13C19.0523 13 19.5 13.4477 19.5 14V15.5H21C21.5523 15.5 22 15.9477 22 16.5C22 17.0523 21.5523 17.5 21 17.5H19.5V19C19.5 19.5523 19.0523 20 18.5 20C17.9477 20 17.5 19.5523 17.5 19V17.5H16C15.4477 17.5 15 17.0523 15 16.5C15 15.9477 15.4477 15.5 16 15.5H17.5V14C17.5 13.4477 17.9477 13 18.5 13Z" fill="#7369AB"/>
</svg>
