<svg width="24" height="24" viewBox="0 0 24 24" fill="none" xmlns="http://www.w3.org/2000/svg">
<path fill-rule="evenodd" clip-rule="evenodd" d="M2 10C2 7.79086 3.79086 6 6 6H14C16.2091 6 18 7.79086 18 10V18C18 20.2091 16.2091 22 14 22H6C3.79086 22 2 20.2091 2 18V10ZM6 8C4.89543 8 4 8.89543 4 10V18C4 19.1046 4.89543 20 6 20H14C15.1046 20 16 19.1046 16 18V10C16 8.89543 15.1046 8 14 8H6Z" fill="#7369AB"/>
<path fill-rule="evenodd" clip-rule="evenodd" d="M10 10C10.5523 10 11 10.4477 11 11V13H13C13.5523 13 14 13.4477 14 14C14 14.5523 13.5523 15 13 15H11V17C11 17.5523 10.5523 18 10 18C9.44772 18 9 17.5523 9 17V15H7C6.44772 15 6 14.5523 6 14C6 13.4477 6.44772 13 7 13H9V11C9 10.4477 9.44772 10 10 10Z" fill="#7369AB"/>
<path fill-rule="evenodd" clip-rule="evenodd" d="M6 3C6 2.44771 6.44771 2 7 2L18 2C20.2091 2 22 3.79086 22 6L22 17C22 17.5523 21.5523 18 21 18C20.4477 18 20 17.5523 20 17L20 6C20 4.89543 19.1046 4 18 4L7 4C6.44771 4 6 3.55229 6 3Z" fill="#7369AB"/>
</svg>
