<svg width="24" height="24" viewBox="0 0 24 24" fill="none" xmlns="http://www.w3.org/2000/svg">
<path fill-rule="evenodd" clip-rule="evenodd" d="M10.75 5C10.4352 5 10.1389 5.14819 9.95 5.4L8.9 6.8C8.33344 7.55542 7.44427 8 6.5 8H5C4.44772 8 4 8.44772 4 9V18C4 18.5523 4.44772 19 5 19H19C19.5523 19 20 18.5523 20 18V11C20 10.4477 20.4477 10 21 10C21.5523 10 22 10.4477 22 11V18C22 19.6569 20.6569 21 19 21H5C3.34315 21 2 19.6569 2 18V9C2 7.34315 3.34315 6 5 6H6.5C6.81476 6 7.11115 5.85181 7.3 5.6L8.35 4.2C8.91656 3.44458 9.80573 3 10.75 3H13.25C13.8023 3 14.25 3.44772 14.25 4C14.25 4.55228 13.8023 5 13.25 5H10.75Z" fill="#7369AB"/>
<path fill-rule="evenodd" clip-rule="evenodd" d="M18.5 3C19.0523 3 19.5 3.44772 19.5 4V5.5H21C21.5523 5.5 22 5.94772 22 6.5C22 7.05228 21.5523 7.5 21 7.5H19.5V9C19.5 9.55228 19.0523 10 18.5 10C17.9477 10 17.5 9.55228 17.5 9V7.5H16C15.4477 7.5 15 7.05228 15 6.5C15 5.94772 15.4477 5.5 16 5.5H17.5V4C17.5 3.44772 17.9477 3 18.5 3Z" fill="#7369AB"/>
<path fill-rule="evenodd" clip-rule="evenodd" d="M12 10C10.3431 10 9 11.3431 9 13C9 14.6569 10.3431 16 12 16C13.6569 16 15 14.6569 15 13C15 11.3431 13.6569 10 12 10ZM7 13C7 10.2386 9.23858 8 12 8C14.7614 8 17 10.2386 17 13C17 15.7614 14.7614 18 12 18C9.23858 18 7 15.7614 7 13Z" fill="#7369AB"/>
</svg>
