<svg width="24" height="24" viewBox="0 0 24 24" fill="none" xmlns="http://www.w3.org/2000/svg">
<g clip-path="url(#clip0_1210_2242)">
<path fill-rule="evenodd" clip-rule="evenodd" d="M12 0C13.1046 0 14 0.89543 14 2V10L22 10C23.1046 10 24 10.8954 24 12C24 13.1046 23.1046 14 22 14L14 14L14 22C14 23.1046 13.1046 24 12 24C10.8954 24 10 23.1046 10 22L10 14L2 14C0.895431 14 1.19209e-07 13.1046 0 12C0 10.8954 0.89543 10 2 10L10 10V2C10 0.89543 10.8954 0 12 0Z" fill="#7369AB"/>
</g>
<defs>
<clipPath id="clip0_1210_2242">
<rect width="24" height="24" fill="white"/>
</clipPath>
</defs>
</svg>
