<svg width="24" height="24" viewBox="0 0 24 24" fill="none" xmlns="http://www.w3.org/2000/svg">
<path fill-rule="evenodd" clip-rule="evenodd" d="M2 6C2 4.34315 3.34315 3 5 3H19C20.6569 3 22 4.34315 22 6V13C22 13.5523 21.5523 14 21 14C20.4477 14 20 13.5523 20 13V11H4V18C4 18.5523 4.44772 19 5 19H11C11.5523 19 12 19.4477 12 20C12 20.5523 11.5523 21 11 21H5C3.34315 21 2 19.6569 2 18V6ZM4 9H20V6C20 5.44772 19.5523 5 19 5H5C4.44772 5 4 5.44772 4 6V9Z" fill="#7369AB"/>
<path fill-rule="evenodd" clip-rule="evenodd" d="M17 13C17.5523 13 18 13.4477 18 14V16H20C20.5523 16 21 16.4477 21 17C21 17.5523 20.5523 18 20 18H18V20C18 20.5523 17.5523 21 17 21C16.4477 21 16 20.5523 16 20V18H14C13.4477 18 13 17.5523 13 17C13 16.4477 13.4477 16 14 16H16V14C16 13.4477 16.4477 13 17 13Z" fill="#7369AB"/>
<path d="M7 7C7 7.55228 6.55228 8 6 8C5.44772 8 5 7.55228 5 7C5 6.44772 5.44772 6 6 6C6.55228 6 7 6.44772 7 7Z" fill="#7369AB"/>
<path d="M10 7C10 7.55228 9.55228 8 9 8C8.44772 8 8 7.55228 8 7C8 6.44772 8.44772 6 9 6C9.55228 6 10 6.44772 10 7Z" fill="#7369AB"/>
</svg>
