<svg width="24" height="24" viewBox="0 0 24 24" fill="none" xmlns="http://www.w3.org/2000/svg">
<path fill-rule="evenodd" clip-rule="evenodd" d="M8 4C6.89543 4 6 4.89543 6 6V18C6 19.1046 6.89543 20 8 20H11C11.5523 20 12 20.4477 12 21C12 21.5523 11.5523 22 11 22H8C5.79086 22 4 20.2091 4 18V6C4 3.79086 5.79086 2 8 2H13.5C13.7691 2 14.0269 2.10847 14.215 2.30088L19.715 7.92588C19.8977 8.11273 20 8.36367 20 8.625V11.8125C20 12.3648 19.5523 12.8125 19 12.8125C18.4477 12.8125 18 12.3648 18 11.8125V9.625H14.5C13.3954 9.625 12.5 8.72957 12.5 7.625V4H8ZM14.5 5.4531L16.6236 7.625H14.5V5.4531Z" fill="#7369AB"/>
<path fill-rule="evenodd" clip-rule="evenodd" d="M17 14C17.5523 14 18 14.4477 18 15V17H20C20.5523 17 21 17.4477 21 18C21 18.5523 20.5523 19 20 19H18V21C18 21.5523 17.5523 22 17 22C16.4477 22 16 21.5523 16 21V19H14C13.4477 19 13 18.5523 13 18C13 17.4477 13.4477 17 14 17H16V15C16 14.4477 16.4477 14 17 14Z" fill="#7369AB"/>
</svg>
