<svg width="24" height="24" viewBox="0 0 24 24" fill="none" xmlns="http://www.w3.org/2000/svg">
<path fill-rule="evenodd" clip-rule="evenodd" d="M12 6C8.13401 6 5 9.13401 5 13C5 16.866 8.13401 20 12 20C15.866 20 19 16.866 19 13C19 9.13401 15.866 6 12 6ZM3 13C3 8.02944 7.02944 4 12 4C16.9706 4 21 8.02944 21 13C21 17.9706 16.9706 22 12 22C7.02944 22 3 17.9706 3 13Z" fill="#7369AB"/>
<path fill-rule="evenodd" clip-rule="evenodd" d="M12 8C12.5523 8 13 8.44772 13 9V12.4648L15.5547 14.1679C16.0142 14.4743 16.1384 15.0952 15.8321 15.5547C15.5257 16.0142 14.9048 16.1384 14.4453 15.8321L11.4453 13.8321C11.1671 13.6466 11 13.3344 11 13V9C11 8.44772 11.4477 8 12 8Z" fill="#7369AB"/>
<path fill-rule="evenodd" clip-rule="evenodd" d="M17.2929 2.29289C17.6834 1.90237 18.3166 1.90237 18.7071 2.29289L21.7071 5.29289C22.0976 5.68342 22.0976 6.31658 21.7071 6.70711C21.3166 7.09763 20.6834 7.09763 20.2929 6.70711L17.2929 3.70711C16.9024 3.31658 16.9024 2.68342 17.2929 2.29289Z" fill="#7369AB"/>
<path fill-rule="evenodd" clip-rule="evenodd" d="M6.70711 2.29289C6.31658 1.90237 5.68342 1.90237 5.29289 2.29289L2.29289 5.29289C1.90237 5.68342 1.90237 6.31658 2.29289 6.70711C2.68342 7.09763 3.31658 7.09763 3.70711 6.70711L6.70711 3.70711C7.09763 3.31658 7.09763 2.68342 6.70711 2.29289Z" fill="#7369AB"/>
</svg>
