<svg width="24" height="24" viewBox="0 0 24 24" fill="none" xmlns="http://www.w3.org/2000/svg">
<path fill-rule="evenodd" clip-rule="evenodd" d="M2 6C2 3.79086 3.79086 2 6 2H14C16.2091 2 18 3.79086 18 6V14C18 16.2091 16.2091 18 14 18H6C3.79086 18 2 16.2091 2 14V6ZM6 4C4.89543 4 4 4.89543 4 6V14C4 15.1046 4.89543 16 6 16H14C15.1046 16 16 15.1046 16 14V6C16 4.89543 15.1046 4 14 4H6Z" fill="#7369AB"/>
<path fill-rule="evenodd" clip-rule="evenodd" d="M21 6C21.5523 6 22 6.44772 22 7V18C22 20.2091 20.2091 22 18 22H7C6.44772 22 6 21.5523 6 21C6 20.4477 6.44772 20 7 20H18C19.1046 20 20 19.1046 20 18V7C20 6.44772 20.4477 6 21 6Z" fill="#7369AB"/>
<path fill-rule="evenodd" clip-rule="evenodd" d="M5.96078 8.00001C6.74183 7.21895 8.00817 7.21895 8.78922 8L10.875 10.0858L12.5233 8.43749C13.3044 7.65645 14.5707 7.65645 15.3517 8.43751L17.7071 10.7929C18.0976 11.1834 18.0976 11.8166 17.7071 12.2071C17.3166 12.5976 16.6834 12.5976 16.2929 12.2071L13.9375 9.85171L12.2892 11.5L13.5509 12.7616C13.9414 13.1522 13.9414 13.7853 13.5509 14.1759C13.1603 14.5664 12.5272 14.5664 12.1366 14.1759L7.375 9.41421L3.70711 13.0821C3.31659 13.4727 2.68342 13.4727 2.2929 13.0821C1.90237 12.6916 1.90237 12.0584 2.29289 11.6679L5.96078 8.00001Z" fill="#7369AB"/>
</svg>
