<svg width="16" height="18" viewBox="0 0 16 18" fill="none" xmlns="http://www.w3.org/2000/svg">
<path fill-rule="evenodd" clip-rule="evenodd" d="M8 0C8.55228 0 9 0.447715 9 1V10.5858L10.2929 9.29289C10.6834 8.90237 11.3166 8.90237 11.7071 9.29289C12.0976 9.68342 12.0976 10.3166 11.7071 10.7071L8.70711 13.7071C8.31658 14.0976 7.68342 14.0976 7.29289 13.7071L4.29289 10.7071C3.90237 10.3166 3.90237 9.68342 4.29289 9.29289C4.68342 8.90237 5.31658 8.90237 5.70711 9.29289L7 10.5858V1C7 0.447715 7.44772 0 8 0ZM0 17C0 16.4477 0.447715 16 1 16H15C15.5523 16 16 16.4477 16 17C16 17.5523 15.5523 18 15 18H1C0.447715 18 0 17.5523 0 17Z" fill="#7369AB"/>
</svg>
