<svg width="18" height="18" viewBox="0 0 18 18" fill="none" xmlns="http://www.w3.org/2000/svg">
<path fill-rule="evenodd" clip-rule="evenodd" d="M0 1C0 0.447715 0.447715 0 1 0H17C17.5523 0 18 0.447715 18 1C18 1.55228 17.5523 2 17 2H1C0.447715 2 0 1.55228 0 1ZM3.57755 4C3.58836 4 3.59917 4 3.61 4H5.39C5.40083 4 5.41164 4 5.42245 4C5.67907 3.99997 5.92899 3.99994 6.14053 4.0175C6.37295 4.03681 6.64705 4.08238 6.92195 4.22517C7.28723 4.41492 7.58508 4.71276 7.77483 5.07805C7.91762 5.35295 7.96319 5.62705 7.9825 5.85947C8.00006 6.07102 8.00003 6.32093 8 6.57756C8 6.58836 8 6.59918 8 6.61L8 11.4224C8.00003 11.6791 8.00006 11.929 7.9825 12.1405C7.96319 12.373 7.91762 12.6471 7.77483 12.9219C7.58507 13.2872 7.28723 13.5851 6.92195 13.7748C6.64705 13.9176 6.37295 13.9632 6.14053 13.9825C5.92899 14.0001 5.67908 14 5.42246 14H3.57754C3.32092 14 3.07101 14.0001 2.85947 13.9825C2.62705 13.9632 2.35295 13.9176 2.07805 13.7748C1.71277 13.5851 1.41493 13.2872 1.22517 12.9219C1.08238 12.6471 1.03681 12.373 1.0175 12.1405C0.999936 11.929 0.999966 11.6791 0.999997 11.4224L1 6.61C1 6.59918 1 6.58836 0.999997 6.57756C0.999966 6.32093 0.999936 6.07102 1.0175 5.85947C1.03681 5.62705 1.08238 5.35295 1.22517 5.07805C1.41492 4.71277 1.71276 4.41492 2.07805 4.22517C2.35295 4.08238 2.62705 4.03681 2.85947 4.0175C3.07101 3.99994 3.32093 3.99997 3.57755 4ZM3.01181 6.01181C3.01142 6.01596 3.01103 6.02035 3.01064 6.02499C3.0008 6.14347 3 6.30847 3 6.61V11.39C3 11.6915 3.0008 11.8565 3.01064 11.975C3.01103 11.9796 3.01142 11.984 3.01181 11.9882C3.01596 11.9886 3.02035 11.989 3.02499 11.9894C3.14347 11.9992 3.30847 12 3.61 12H5.39C5.69153 12 5.85653 11.9992 5.97501 11.9894C5.97965 11.989 5.98404 11.9886 5.98819 11.9882C5.98858 11.984 5.98897 11.9796 5.98936 11.975C5.9992 11.8565 6 11.6915 6 11.39V6.61C6 6.30847 5.9992 6.14347 5.98936 6.02499C5.98897 6.02035 5.98858 6.01596 5.98819 6.01181C5.98404 6.01142 5.97965 6.01103 5.97501 6.01064C5.85653 6.0008 5.69153 6 5.39 6H3.61C3.30847 6 3.14347 6.0008 3.02499 6.01064C3.02035 6.01103 3.01596 6.01142 3.01181 6.01181ZM12.5776 4H14.4224C14.6791 3.99997 14.929 3.99994 15.1405 4.0175C15.373 4.03681 15.6471 4.08238 15.9219 4.22517C16.2872 4.41493 16.5851 4.71277 16.7748 5.07805C16.9176 5.35295 16.9632 5.62705 16.9825 5.85947C17.0001 6.07102 17 6.32094 17 6.57758V15.4224C17 15.6791 17.0001 15.929 16.9825 16.1405C16.9632 16.373 16.9176 16.6471 16.7748 16.9219C16.5851 17.2872 16.2872 17.5851 15.9219 17.7748C15.6471 17.9176 15.373 17.9632 15.1405 17.9825C14.929 18.0001 14.6791 18 14.4224 18H12.5776C12.3209 18 12.071 18.0001 11.8595 17.9825C11.627 17.9632 11.3529 17.9176 11.0781 17.7748C10.7128 17.5851 10.4149 17.2872 10.2252 16.9219C10.0824 16.6471 10.0368 16.373 10.0175 16.1405C9.99994 15.929 9.99997 15.6791 10 15.4225V6.57754C9.99997 6.32092 9.99994 6.07101 10.0175 5.85947C10.0368 5.62705 10.0824 5.35295 10.2252 5.07805C10.4149 4.71277 10.7128 4.41493 11.0781 4.22517C11.3529 4.08238 11.627 4.03681 11.8595 4.0175C12.071 3.99994 12.3209 3.99997 12.5776 4ZM12.0118 6.01181C12.0114 6.01596 12.011 6.02035 12.0106 6.02499C12.0008 6.14347 12 6.30847 12 6.61V15.39C12 15.6915 12.0008 15.8565 12.0106 15.975C12.011 15.9796 12.0114 15.984 12.0118 15.9882C12.016 15.9886 12.0204 15.989 12.025 15.9894C12.1435 15.9992 12.3085 16 12.61 16H14.39C14.6915 16 14.8565 15.9992 14.975 15.9894C14.9796 15.989 14.984 15.9886 14.9882 15.9882C14.9886 15.984 14.989 15.9796 14.9894 15.975C14.9992 15.8565 15 15.6915 15 15.39V6.61C15 6.30847 14.9992 6.14347 14.9894 6.02499C14.989 6.02035 14.9886 6.01596 14.9882 6.01181C14.984 6.01142 14.9796 6.01103 14.975 6.01064C14.8565 6.0008 14.6915 6 14.39 6H12.61C12.3085 6 12.1435 6.0008 12.025 6.01064C12.0204 6.01103 12.016 6.01142 12.0118 6.01181Z" fill="#7369AB"/>
</svg>
