<svg width="18" height="16" viewBox="0 0 18 16" fill="none" xmlns="http://www.w3.org/2000/svg">
<path fill-rule="evenodd" clip-rule="evenodd" d="M1 0C1.55228 0 2 0.447715 2 1V15C2 15.5523 1.55228 16 1 16C0.447715 16 0 15.5523 0 15V1C0 0.447715 0.447715 0 1 0ZM8.70711 4.29289C9.09763 4.68342 9.09763 5.31658 8.70711 5.70711L7.41421 7H17C17.5523 7 18 7.44772 18 8C18 8.55228 17.5523 9 17 9H7.41421L8.70711 10.2929C9.09763 10.6834 9.09763 11.3166 8.70711 11.7071C8.31658 12.0976 7.68342 12.0976 7.29289 11.7071L4.29289 8.70711C3.90237 8.31658 3.90237 7.68342 4.29289 7.29289L7.29289 4.29289C7.68342 3.90237 8.31658 3.90237 8.70711 4.29289Z" fill="#7369AB"/>
</svg>
