<svg width="18" height="18" viewBox="0 0 18 18" fill="none" xmlns="http://www.w3.org/2000/svg">
<path fill-rule="evenodd" clip-rule="evenodd" d="M10 2C10 0.89543 10.8954 0 12 0H15C16.1046 0 17 0.895431 17 2V12C17 13.1046 16.1046 14 15 14H12C10.8954 14 10 13.1046 10 12V2ZM15 2L12 2V12H15V2ZM1 6C1 4.89543 1.89543 4 3 4H6C7.10457 4 8 4.89543 8 6V12C8 13.1046 7.10457 14 6 14H3C1.89543 14 1 13.1046 1 12V6ZM6 6H3V12H6V6ZM0 17C0 16.4477 0.447715 16 1 16H17C17.5523 16 18 16.4477 18 17C18 17.5523 17.5523 18 17 18H1C0.447715 18 0 17.5523 0 17Z" fill="#7369AB"/>
</svg>
