<svg width="18" height="16" viewBox="0 0 18 16" fill="none" xmlns="http://www.w3.org/2000/svg">
<path fill-rule="evenodd" clip-rule="evenodd" d="M17 0C17.5523 0 18 0.447715 18 1V15C18 15.5523 17.5523 16 17 16C16.4477 16 16 15.5523 16 15V1C16 0.447715 16.4477 0 17 0ZM9.29289 4.29289C9.68342 3.90237 10.3166 3.90237 10.7071 4.29289L13.7071 7.29289C13.8946 7.48043 14 7.73478 14 8C14 8.26522 13.8946 8.51957 13.7071 8.70711L10.7071 11.7071C10.3166 12.0976 9.68342 12.0976 9.29289 11.7071C8.90237 11.3166 8.90237 10.6834 9.29289 10.2929L10.5858 9H1C0.447715 9 0 8.55228 0 8C0 7.44772 0.447715 7 1 7L10.5858 7L9.29289 5.70711C8.90237 5.31658 8.90237 4.68342 9.29289 4.29289Z" fill="#7369AB"/>
</svg>
