<svg width="16" height="18" viewBox="0 0 16 18" fill="none" xmlns="http://www.w3.org/2000/svg">
<path fill-rule="evenodd" clip-rule="evenodd" d="M8 0C8.55228 0 9 0.447715 9 1V3.58579L9.29289 3.29289C9.68342 2.90237 10.3166 2.90237 10.7071 3.29289C11.0976 3.68342 11.0976 4.31658 10.7071 4.70711L8.70711 6.70711C8.31658 7.09763 7.68342 7.09763 7.29289 6.70711L5.29289 4.70711C4.90237 4.31658 4.90237 3.68342 5.29289 3.29289C5.68342 2.90237 6.31658 2.90237 6.70711 3.29289L7 3.58579V1C7 0.447715 7.44772 0 8 0ZM0 9C0 8.44772 0.447715 8 1 8H15C15.5523 8 16 8.44772 16 9C16 9.55229 15.5523 10 15 10H1C0.447715 10 0 9.55229 0 9ZM8 11C8.26522 11 8.51957 11.1054 8.70711 11.2929L10.7071 13.2929C11.0976 13.6834 11.0976 14.3166 10.7071 14.7071C10.3166 15.0976 9.68342 15.0976 9.29289 14.7071L9 14.4142V17C9 17.5523 8.55228 18 8 18C7.44772 18 7 17.5523 7 17L7 14.4142L6.70711 14.7071C6.31658 15.0976 5.68342 15.0976 5.29289 14.7071C4.90237 14.3166 4.90237 13.6834 5.29289 13.2929L7.29289 11.2929C7.48043 11.1054 7.73478 11 8 11Z" fill="#7369AB"/>
</svg>
