<svg width="16" height="14" viewBox="0 0 16 14" fill="none" xmlns="http://www.w3.org/2000/svg">
<path fill-rule="evenodd" clip-rule="evenodd" d="M0 1C0 0.447715 0.447715 0 1 0H15C15.5523 0 16 0.447715 16 1C16 1.55228 15.5523 2 15 2H1C0.447715 2 0 1.55228 0 1ZM2 5C2 4.44772 2.44772 4 3 4H13C13.5523 4 14 4.44772 14 5C14 5.55228 13.5523 6 13 6H3C2.44772 6 2 5.55228 2 5ZM0 9C0 8.44772 0.447715 8 1 8H15C15.5523 8 16 8.44772 16 9C16 9.55229 15.5523 10 15 10H1C0.447715 10 0 9.55229 0 9ZM2 13C2 12.4477 2.44772 12 3 12H13C13.5523 12 14 12.4477 14 13C14 13.5523 13.5523 14 13 14H3C2.44772 14 2 13.5523 2 13Z" fill="#7369AB"/>
</svg>
