<svg width="18" height="16" viewBox="0 0 18 16" fill="none" xmlns="http://www.w3.org/2000/svg">
<path fill-rule="evenodd" clip-rule="evenodd" d="M1 0C1.55228 0 2 0.447715 2 1V15C2 15.5523 1.55228 16 1 16C0.447715 16 0 15.5523 0 15V1C0 0.447715 0.447715 0 1 0ZM13.2929 4.29289C13.6834 3.90237 14.3166 3.90237 14.7071 4.29289L17.7071 7.29289C17.8946 7.48043 18 7.73478 18 8C18 8.26522 17.8946 8.51957 17.7071 8.70711L14.7071 11.7071C14.3166 12.0976 13.6834 12.0976 13.2929 11.7071C12.9024 11.3166 12.9024 10.6834 13.2929 10.2929L14.5858 9H5C4.44772 9 4 8.55228 4 8C4 7.44772 4.44772 7 5 7L14.5858 7L13.2929 5.70711C12.9024 5.31658 12.9024 4.68342 13.2929 4.29289Z" fill="#7369AB"/>
</svg>
