<svg width="18" height="14" viewBox="0 0 18 14" fill="none" xmlns="http://www.w3.org/2000/svg">
<path fill-rule="evenodd" clip-rule="evenodd" d="M10 2C10 0.89543 10.8954 0 12 0H15C16.1046 0 17 0.895431 17 2V6C17.5523 6 18 6.44772 18 7C18 7.55228 17.5523 8 17 8V12C17 13.1046 16.1046 14 15 14H12C10.8954 14 10 13.1046 10 12V8H8V10C8 11.1046 7.10457 12 6 12H3C1.89543 12 1 11.1046 1 10V8C0.447715 8 0 7.55228 0 7C0 6.44772 0.447715 6 1 6V4C1 2.89543 1.89543 2 3 2H6C7.10457 2 8 2.89543 8 4V6L10 6V2ZM12 12H15V2L12 2V12ZM6 4H3V10H6V4Z" fill="#7369AB"/>
</svg>
