<svg width="18" height="18" viewBox="0 0 18 18" fill="none" xmlns="http://www.w3.org/2000/svg">
<path fill-rule="evenodd" clip-rule="evenodd" d="M1 0C1.55228 0 2 0.447715 2 1V17C2 17.5523 1.55228 18 1 18C0.447715 18 0 17.5523 0 17V1C0 0.447715 0.447715 0 1 0ZM4 2C4 0.895431 4.89543 0 6 0H12C13.1046 0 14 0.895431 14 2V6C14 7.10457 13.1046 8 12 8H6C4.89543 8 4 7.10457 4 6V2ZM12 2H6V6H12V2ZM4 12C4 10.8954 4.89543 10 6 10H16C17.1046 10 18 10.8954 18 12V16C18 17.1046 17.1046 18 16 18H6C4.89543 18 4 17.1046 4 16V12ZM16 12H6V16H16V12Z" fill="#7369AB"/>
</svg>
