<svg width="18" height="18" viewBox="0 0 18 18" fill="none" xmlns="http://www.w3.org/2000/svg">
<path fill-rule="evenodd" clip-rule="evenodd" d="M4 2C4 0.895431 4.89543 0 6 0H12C13.1046 0 14 0.895431 14 2V6C14 7.10457 13.1046 8 12 8H6C4.89543 8 4 7.10457 4 6V2ZM12 2H6V6H12V2ZM17 0C17.5523 0 18 0.447715 18 1V17C18 17.5523 17.5523 18 17 18C16.4477 18 16 17.5523 16 17V1C16 0.447715 16.4477 0 17 0ZM0 12C0 10.8954 0.895431 10 2 10H12C13.1046 10 14 10.8954 14 12V16C14 17.1046 13.1046 18 12 18H2C0.89543 18 0 17.1046 0 16V12ZM12 12H2V16H12V12Z" fill="#7369AB"/>
</svg>
