<svg width="16" height="14" viewBox="0 0 16 14" fill="none" xmlns="http://www.w3.org/2000/svg">
<path fill-rule="evenodd" clip-rule="evenodd" d="M0 1C0 0.447715 0.447715 0 1 0H15C15.5523 0 16 0.447715 16 1C16 1.55228 15.5523 2 15 2H1C0.447715 2 0 1.55228 0 1ZM0 5C0 4.44772 0.447715 4 1 4H11C11.5523 4 12 4.44772 12 5C12 5.55228 11.5523 6 11 6H1C0.447715 6 0 5.55228 0 5ZM0 9C0 8.44772 0.447715 8 1 8H15C15.5523 8 16 8.44772 16 9C16 9.55229 15.5523 10 15 10H1C0.447715 10 0 9.55229 0 9ZM0 13C0 12.4477 0.447715 12 1 12H11C11.5523 12 12 12.4477 12 13C12 13.5523 11.5523 14 11 14H1C0.447715 14 0 13.5523 0 13Z" fill="#7369AB"/>
</svg>
