<svg width="14" height="18" viewBox="0 0 14 18" fill="none" xmlns="http://www.w3.org/2000/svg">
<path fill-rule="evenodd" clip-rule="evenodd" d="M7 0C7.55228 0 8 0.447715 8 1H10C11.1046 1 12 1.89543 12 3V6C12 7.10457 11.1046 8 10 8H8V10H12C13.1046 10 14 10.8954 14 12V15C14 16.1046 13.1046 17 12 17H8C8 17.5523 7.55228 18 7 18C6.44772 18 6 17.5523 6 17H2C0.89543 17 0 16.1046 0 15V12C0 10.8954 0.895431 10 2 10H6V8H4C2.89543 8 2 7.10457 2 6V3C2 1.89543 2.89543 1 4 1H6C6 0.447715 6.44772 0 7 0ZM4 3V6H10V3H4ZM2 12V15H12V12H2Z" fill="#7369AB"/>
</svg>
