<svg width="24" height="24" viewBox="0 0 24 24" fill="none" xmlns="http://www.w3.org/2000/svg">
<path fill-rule="evenodd" clip-rule="evenodd" d="M20 4C20.5523 4 21 4.44772 21 5V19C21 19.5523 20.5523 20 20 20C19.4477 20 19 19.5523 19 19V5C19 4.44772 19.4477 4 20 4ZM7.70711 8.29289C8.09763 8.68342 8.09763 9.31658 7.70711 9.70711L6.41421 11H16C16.5523 11 17 11.4477 17 12C17 12.5523 16.5523 13 16 13H6.41421L7.70711 14.2929C8.09763 14.6834 8.09763 15.3166 7.70711 15.7071C7.31658 16.0976 6.68342 16.0976 6.29289 15.7071L3.29289 12.7071C2.90237 12.3166 2.90237 11.6834 3.29289 11.2929L6.29289 8.29289C6.68342 7.90237 7.31658 7.90237 7.70711 8.29289Z" fill="#7369AB"/>
</svg>
