<svg width="24" height="24" viewBox="0 0 24 24" fill="none" xmlns="http://www.w3.org/2000/svg">
<path fill-rule="evenodd" clip-rule="evenodd" d="M8 7C8 5.89543 8.89543 5 10 5H20C21.1046 5 22 5.89543 22 7V17C22 17.5523 21.5523 18 21 18H19C18.4477 18 18 17.5523 18 17C18 16.4477 18.4477 16 19 16H20V7L10 7V16H16C16.5523 16 17 16.4477 17 17C17 17.5523 16.5523 18 16 18H9C8.44772 18 8 17.5523 8 17V7Z" fill="#7369AB"/>
<path fill-rule="evenodd" clip-rule="evenodd" d="M15 8C15.5523 8 16 8.44772 16 9V10L17 10C17.5523 10 18 10.4477 18 11C18 11.5523 17.5523 12 17 12L16 12L16 13C16 13.5523 15.5523 14 15 14C14.4477 14 14 13.5523 14 13L14 12H13C12.4477 12 12 11.5523 12 11C12 10.4477 12.4477 10 13 10L14 10V9C14 8.44772 14.4477 8 15 8Z" fill="#7369AB"/>
<path fill-rule="evenodd" clip-rule="evenodd" d="M5 8.58579C5.37507 8.21071 5.88378 8 6.41421 8H9C9.55228 8 10 8.44772 10 9C10 9.55228 9.55228 10 9 10H6.41421L4 12.4142V16H5C5.55228 16 6 16.4477 6 17C6 17.5523 5.55228 18 5 18H3C2.44772 18 2 17.5523 2 17V12.4142C2 11.8838 2.21071 11.3751 2.58579 11L5 8.58579Z" fill="#7369AB"/>
<path fill-rule="evenodd" clip-rule="evenodd" d="M17.5 17C17.2239 17 17 17.2239 17 17.5C17 17.7761 17.2239 18 17.5 18C17.7761 18 18 17.7761 18 17.5C18 17.2239 17.7761 17 17.5 17ZM15 17.5C15 16.1193 16.1193 15 17.5 15C18.8807 15 20 16.1193 20 17.5C20 18.8807 18.8807 20 17.5 20C16.1193 20 15 18.8807 15 17.5Z" fill="#7369AB"/>
<path fill-rule="evenodd" clip-rule="evenodd" d="M6.5 17C6.22386 17 6 17.2239 6 17.5C6 17.7761 6.22386 18 6.5 18C6.77614 18 7 17.7761 7 17.5C7 17.2239 6.77614 17 6.5 17ZM4 17.5C4 16.1193 5.11929 15 6.5 15C7.88071 15 9 16.1193 9 17.5C9 18.8807 7.88071 20 6.5 20C5.11929 20 4 18.8807 4 17.5Z" fill="#7369AB"/>
</svg>
