<svg width="24" height="24" viewBox="0 0 24 24" fill="none" xmlns="http://www.w3.org/2000/svg">
<g clip-path="url(#clip0_1210_971)">
<path fill-rule="evenodd" clip-rule="evenodd" d="M0 2.66667C0 1.19391 1.19391 0 2.66667 0H8C9.47276 0 10.6667 1.19391 10.6667 2.66667V8C10.6667 9.47276 9.47276 10.6667 8 10.6667H2.66667C1.19391 10.6667 0 9.47276 0 8V2.66667ZM8 2.66667H2.66667V8H8V2.66667ZM13.3333 2.66667C13.3333 1.19391 14.5272 0 16 0H21.3333C22.8061 0 24 1.19391 24 2.66667V8C24 9.47276 22.8061 10.6667 21.3333 10.6667H16C14.5272 10.6667 13.3333 9.47276 13.3333 8V2.66667ZM21.3333 2.66667H16V8H21.3333V2.66667ZM0 16C0 14.5272 1.19391 13.3333 2.66667 13.3333H8C9.47276 13.3333 10.6667 14.5272 10.6667 16V21.3333C10.6667 22.8061 9.47276 24 8 24H2.66667C1.19391 24 0 22.8061 0 21.3333V16ZM8 16H2.66667V21.3333H8V16ZM13.3333 16C13.3333 14.5272 14.5272 13.3333 16 13.3333H21.3333C22.8061 13.3333 24 14.5272 24 16V21.3333C24 22.8061 22.8061 24 21.3333 24H16C14.5272 24 13.3333 22.8061 13.3333 21.3333V16ZM21.3333 16H16V21.3333H21.3333V16Z" fill="#7369AB"/>
</g>
<defs>
<clipPath id="clip0_1210_971">
<rect width="24" height="24" fill="white"/>
</clipPath>
</defs>
</svg>
