<svg width="24" height="24" viewBox="0 0 24 24" fill="none" xmlns="http://www.w3.org/2000/svg">
<path fill-rule="evenodd" clip-rule="evenodd" d="M3 8C3 7.44772 3.44772 7 4 7H20C20.5523 7 21 7.44772 21 8V18C21 19.6569 19.6569 21 18 21H17C16.4477 21 16 20.5523 16 20C16 19.4477 16.4477 19 17 19H18C18.5523 19 19 18.5523 19 18V9H5V18C5 18.5523 5.44772 19 6 19H7C7.55228 19 8 19.4477 8 20C8 20.5523 7.55228 21 7 21H6C4.34315 21 3 19.6569 3 18V8Z" fill="#7369AB"/>
<path fill-rule="evenodd" clip-rule="evenodd" d="M5.10557 3.55279C5.27497 3.214 5.62123 3 6 3H18C18.3788 3 18.725 3.214 18.8944 3.55279L20.8944 7.55279C21.0494 7.86277 21.0329 8.23091 20.8507 8.52573C20.6684 8.82055 20.3466 9 20 9H4C3.65342 9 3.33156 8.82055 3.14935 8.52573C2.96714 8.23091 2.95058 7.86277 3.10557 7.55279L5.10557 3.55279ZM6.61804 5L5.61804 7H18.382L17.382 5H6.61804Z" fill="#7369AB"/>
<path fill-rule="evenodd" clip-rule="evenodd" d="M12 13C11.4477 13 11 13.4477 11 14L11 17.5858L10.2071 16.7929C9.81658 16.4024 9.18342 16.4024 8.79289 16.7929C8.40237 17.1834 8.40237 17.8166 8.79289 18.2071L11.2929 20.7071C11.6834 21.0976 12.3166 21.0976 12.7071 20.7071L15.2071 18.2071C15.5976 17.8166 15.5976 17.1834 15.2071 16.7929C14.8166 16.4024 14.1834 16.4024 13.7929 16.7929L13 17.5858L13 14C13 13.4477 12.5523 13 12 13Z" fill="#7369AB"/>
</svg>
