<svg width="24" height="24" viewBox="0 0 24 24" fill="none" xmlns="http://www.w3.org/2000/svg">
<path fill-rule="evenodd" clip-rule="evenodd" d="M4.29289 4.29289C4.68342 3.90237 5.31658 3.90237 5.70711 4.29289L8 6.58579V5C8 4.44772 8.44772 4 9 4C9.55228 4 10 4.44772 10 5V9C10 9.55228 9.55228 10 9 10H5C4.44772 10 4 9.55228 4 9C4 8.44772 4.44772 8 5 8H6.58579L4.29289 5.70711C3.90237 5.31658 3.90237 4.68342 4.29289 4.29289Z" fill="#7369AB"/>
<path fill-rule="evenodd" clip-rule="evenodd" d="M19.7071 4.29289C20.0976 4.68342 20.0976 5.31658 19.7071 5.70711L17.4142 8L19 8C19.5523 8 20 8.44772 20 9C20 9.55228 19.5523 10 19 10L15 10C14.4477 10 14 9.55228 14 9L14 5C14 4.44771 14.4477 4 15 4C15.5523 4 16 4.44772 16 5L16 6.58579L18.2929 4.29289C18.6834 3.90237 19.3166 3.90237 19.7071 4.29289Z" fill="#7369AB"/>
<path fill-rule="evenodd" clip-rule="evenodd" d="M4.29289 19.7071C3.90237 19.3166 3.90237 18.6834 4.29289 18.2929L6.58579 16L5 16C4.44772 16 4 15.5523 4 15C4 14.4477 4.44771 14 5 14L9 14C9.55228 14 10 14.4477 10 15L10 19C10 19.5523 9.55228 20 9 20C8.44772 20 8 19.5523 8 19L8 17.4142L5.70711 19.7071C5.31658 20.0976 4.68342 20.0976 4.29289 19.7071Z" fill="#7369AB"/>
<path fill-rule="evenodd" clip-rule="evenodd" d="M19.7071 19.7071C19.3166 20.0976 18.6834 20.0976 18.2929 19.7071L16 17.4142L16 19C16 19.5523 15.5523 20 15 20C14.4477 20 14 19.5523 14 19L14 15C14 14.4477 14.4477 14 15 14L19 14C19.5523 14 20 14.4477 20 15C20 15.5523 19.5523 16 19 16L17.4142 16L19.7071 18.2929C20.0976 18.6834 20.0976 19.3166 19.7071 19.7071Z" fill="#7369AB"/>
</svg>
