<svg width="24" height="24" viewBox="0 0 24 24" fill="none" xmlns="http://www.w3.org/2000/svg">
<path fill-rule="evenodd" clip-rule="evenodd" d="M21 12C21 12.2652 20.8946 12.5196 20.7071 12.7071L17.2071 16.2071C16.8166 16.5976 16.1834 16.5976 15.7929 16.2071C15.4024 15.8166 15.4024 15.1834 15.7929 14.7929L17.5858 13L6.41421 13L8.20711 14.7929C8.59763 15.1834 8.59763 15.8166 8.20711 16.2071C7.81658 16.5976 7.18342 16.5976 6.79289 16.2071L3.29289 12.7071C2.90237 12.3166 2.90237 11.6834 3.29289 11.2929L6.79289 7.79289C7.18342 7.40237 7.81658 7.40237 8.20711 7.79289C8.59763 8.18342 8.59763 8.81658 8.20711 9.20711L6.41421 11L17.5858 11L15.7929 9.20711C15.4024 8.81658 15.4024 8.18342 15.7929 7.79289C16.1834 7.40237 16.8166 7.40237 17.2071 7.79289L20.7071 11.2929C20.8946 11.4804 21 11.7348 21 12Z" fill="#7369AB"/>
</svg>
