<svg width="24" height="24" viewBox="0 0 24 24" fill="none" xmlns="http://www.w3.org/2000/svg">
<path fill-rule="evenodd" clip-rule="evenodd" d="M3 6C3.55228 6 4 6.44772 4 7V11H7.58579L6.29289 9.70711C5.90237 9.31658 5.90237 8.68342 6.29289 8.29289C6.68342 7.90237 7.31658 7.90237 7.70711 8.29289L10.7071 11.2929C11.0976 11.6834 11.0976 12.3166 10.7071 12.7071L7.70711 15.7071C7.31658 16.0976 6.68342 16.0976 6.29289 15.7071C5.90237 15.3166 5.90237 14.6834 6.29289 14.2929L7.58579 13H4V17C4 17.5523 3.55228 18 3 18C2.44772 18 2 17.5523 2 17V7C2 6.44772 2.44772 6 3 6Z" fill="#7369AB"/>
<path fill-rule="evenodd" clip-rule="evenodd" d="M21 6C20.4477 6 20 6.44772 20 7V11H16.4142L17.7071 9.70711C18.0976 9.31658 18.0976 8.68342 17.7071 8.29289C17.3166 7.90237 16.6834 7.90237 16.2929 8.29289L13.2929 11.2929C12.9024 11.6834 12.9024 12.3166 13.2929 12.7071L16.2929 15.7071C16.6834 16.0976 17.3166 16.0976 17.7071 15.7071C18.0976 15.3166 18.0976 14.6834 17.7071 14.2929L16.4142 13H20V17C20 17.5523 20.4477 18 21 18C21.5523 18 22 17.5523 22 17V7C22 6.44772 21.5523 6 21 6Z" fill="#7369AB"/>
</svg>
