<svg width="24" height="24" viewBox="0 0 24 24" fill="none" xmlns="http://www.w3.org/2000/svg">
<path fill-rule="evenodd" clip-rule="evenodd" d="M12 17C11.4477 17 11 16.5523 11 16L11 13L6.41422 13L7.20711 13.7929C7.59763 14.1834 7.59763 14.8166 7.20711 15.2071C6.81659 15.5976 6.18342 15.5976 5.7929 15.2071L3.29289 12.7071C2.90237 12.3166 2.90237 11.6834 3.29289 11.2929L5.79289 8.79289C6.18342 8.40237 6.81658 8.40237 7.20711 8.79289C7.59763 9.18342 7.59763 9.81658 7.20711 10.2071L6.41422 11L11 11L11 8C11 7.44771 11.4477 7 12 7C12.5523 7 13 7.44771 13 8L13 11L17.5858 11L16.7929 10.2071C16.4024 9.81658 16.4024 9.18342 16.7929 8.79289C17.1834 8.40237 17.8166 8.40237 18.2071 8.79289L20.7071 11.2929C20.8946 11.4804 21 11.7348 21 12C21 12.2652 20.8946 12.5196 20.7071 12.7071L18.2071 15.2071C17.8166 15.5976 17.1834 15.5976 16.7929 15.2071C16.4024 14.8166 16.4024 14.1834 16.7929 13.7929L17.5858 13L13 13L13 16C13 16.5523 12.5523 17 12 17Z" fill="#7369AB"/>
</svg>
