<svg width="24" height="24" viewBox="0 0 24 24" fill="none" xmlns="http://www.w3.org/2000/svg">
<path fill-rule="evenodd" clip-rule="evenodd" d="M18 21C18 21.5523 17.5523 22 17 22L7 22C6.44771 22 6 21.5523 6 21C6 20.4477 6.44771 20 7 20L17 20C17.5523 20 18 20.4477 18 21Z" fill="#7369AB"/>
<path fill-rule="evenodd" clip-rule="evenodd" d="M18 3C18 3.55228 17.5523 4 17 4L7 4C6.44771 4 6 3.55228 6 3C6 2.44771 6.44771 2 7 2L17 2C17.5523 2 18 2.44772 18 3Z" fill="#7369AB"/>
<path fill-rule="evenodd" clip-rule="evenodd" d="M15.2071 10.2071C14.8166 10.5976 14.1834 10.5976 13.7929 10.2071L13 9.41421L13 14.5858L13.7929 13.7929C14.1834 13.4024 14.8166 13.4024 15.2071 13.7929C15.5976 14.1834 15.5976 14.8166 15.2071 15.2071L12.7071 17.7071C12.3166 18.0976 11.6834 18.0976 11.2929 17.7071L8.79289 15.2071C8.40237 14.8166 8.40237 14.1834 8.79289 13.7929C9.18342 13.4024 9.81658 13.4024 10.2071 13.7929L11 14.5858L11 9.41421L10.2071 10.2071C9.81658 10.5976 9.18342 10.5976 8.79289 10.2071C8.40237 9.81658 8.40237 9.18342 8.79289 8.79289L11.2929 6.29289C11.6834 5.90237 12.3166 5.90237 12.7071 6.29289L15.2071 8.79289C15.5976 9.18342 15.5976 9.81658 15.2071 10.2071Z" fill="#7369AB"/>
</svg>
