<svg width="24" height="24" viewBox="0 0 24 24" fill="none" xmlns="http://www.w3.org/2000/svg">
<path fill-rule="evenodd" clip-rule="evenodd" d="M4.29289 4.29289C4.68342 3.90237 5.31658 3.90237 5.70711 4.29289L9 7.58579V5C9 4.44772 9.44772 4 10 4C10.5523 4 11 4.44772 11 5V10C11 10.5523 10.5523 11 10 11H5C4.44772 11 4 10.5523 4 10C4 9.44772 4.44772 9 5 9H7.58579L4.29289 5.70711C3.90237 5.31658 3.90237 4.68342 4.29289 4.29289Z" fill="#7369AB"/>
<path fill-rule="evenodd" clip-rule="evenodd" d="M19.7071 19.7071C19.3166 20.0976 18.6834 20.0976 18.2929 19.7071L15 16.4142L15 19C15 19.5523 14.5523 20 14 20C13.4477 20 13 19.5523 13 19L13 14C13 13.4477 13.4477 13 14 13L19 13C19.5523 13 20 13.4477 20 14C20 14.5523 19.5523 15 19 15L16.4142 15L19.7071 18.2929C20.0976 18.6834 20.0976 19.3166 19.7071 19.7071Z" fill="#7369AB"/>
</svg>
