<svg width="24" height="24" viewBox="0 0 24 24" fill="none" xmlns="http://www.w3.org/2000/svg">
<path fill-rule="evenodd" clip-rule="evenodd" d="M21 6C21.5523 6 22 6.44772 22 7V17C22 17.5523 21.5523 18 21 18C20.4477 18 20 17.5523 20 17V7C20 6.44772 20.4477 6 21 6Z" fill="#7369AB"/>
<path fill-rule="evenodd" clip-rule="evenodd" d="M3 6C3.55228 6 4 6.44772 4 7V17C4 17.5523 3.55228 18 3 18C2.44772 18 2 17.5523 2 17V7C2 6.44772 2.44772 6 3 6Z" fill="#7369AB"/>
<path fill-rule="evenodd" clip-rule="evenodd" d="M10.2071 8.79289C10.5976 9.18342 10.5976 9.81658 10.2071 10.2071L9.41421 11H14.5858L13.7929 10.2071C13.4024 9.81658 13.4024 9.18342 13.7929 8.79289C14.1834 8.40237 14.8166 8.40237 15.2071 8.79289L17.7071 11.2929C18.0976 11.6834 18.0976 12.3166 17.7071 12.7071L15.2071 15.2071C14.8166 15.5976 14.1834 15.5976 13.7929 15.2071C13.4024 14.8166 13.4024 14.1834 13.7929 13.7929L14.5858 13H9.41421L10.2071 13.7929C10.5976 14.1834 10.5976 14.8166 10.2071 15.2071C9.81658 15.5976 9.18342 15.5976 8.79289 15.2071L6.29289 12.7071C5.90237 12.3166 5.90237 11.6834 6.29289 11.2929L8.79289 8.79289C9.18342 8.40237 9.81658 8.40237 10.2071 8.79289Z" fill="#7369AB"/>
</svg>
