<svg width="24" height="24" viewBox="0 0 24 24" fill="none" xmlns="http://www.w3.org/2000/svg">
<path fill-rule="evenodd" clip-rule="evenodd" d="M12 10C11.4477 10 11 9.55229 11 9L11 5.75736L9.87868 6.87868C9.48816 7.26921 8.85499 7.26921 8.46447 6.87868C8.07394 6.48816 8.07394 5.85499 8.46447 5.46447L11.2929 2.63604C11.6834 2.24552 12.3166 2.24552 12.7071 2.63604L15.5355 5.46447C15.9261 5.85499 15.9261 6.48816 15.5355 6.87868C15.145 7.26921 14.5118 7.26921 14.1213 6.87868L13 5.75736L13 9C13 9.55229 12.5523 10 12 10Z" fill="#7369AB"/>
<path fill-rule="evenodd" clip-rule="evenodd" d="M14 12C14 11.4477 14.4477 11 15 11L18.2427 11L17.1213 9.87868C16.7308 9.48816 16.7308 8.85499 17.1213 8.46447C17.5119 8.07394 18.145 8.07394 18.5356 8.46447L21.364 11.2929C21.7545 11.6834 21.7545 12.3166 21.364 12.7071L18.5356 15.5355C18.145 15.9261 17.5119 15.9261 17.1213 15.5355C16.7308 15.145 16.7308 14.5118 17.1213 14.1213L18.2427 13L15 13C14.4477 13 14 12.5523 14 12Z" fill="#7369AB"/>
<path fill-rule="evenodd" clip-rule="evenodd" d="M9.99997 12C9.99997 12.5523 9.55226 13 8.99997 13L5.75733 13L6.87865 14.1213C7.26918 14.5118 7.26917 15.145 6.87865 15.5355C6.48813 15.9261 5.85496 15.9261 5.46444 15.5355L2.63601 12.7071C2.24549 12.3166 2.24549 11.6834 2.63601 11.2929L5.46444 8.46447C5.85496 8.07394 6.48813 8.07394 6.87865 8.46447C7.26917 8.85499 7.26918 9.48816 6.87865 9.87868L5.75733 11L8.99997 11C9.55226 11 9.99997 11.4477 9.99997 12Z" fill="#7369AB"/>
<path fill-rule="evenodd" clip-rule="evenodd" d="M12 14C12.5523 14 13 14.4477 13 15L13 18.2426L14.1213 17.1213C14.5118 16.7308 15.145 16.7308 15.5355 17.1213C15.9261 17.5118 15.9261 18.145 15.5355 18.5355L12.7071 21.364C12.3166 21.7545 11.6834 21.7545 11.2929 21.364L8.46447 18.5355C8.07394 18.145 8.07394 17.5118 8.46447 17.1213C8.85499 16.7308 9.48816 16.7308 9.87868 17.1213L11 18.2426L11 15C11 14.4477 11.4477 14 12 14Z" fill="#7369AB"/>
</svg>
