<svg width="24" height="24" viewBox="0 0 24 24" fill="none" xmlns="http://www.w3.org/2000/svg">
<path fill-rule="evenodd" clip-rule="evenodd" d="M7.70711 20.7071C7.31658 21.0976 6.68342 21.0976 6.29289 20.7071L3.29289 17.7071C2.90237 17.3166 2.90237 16.6834 3.29289 16.2929L6.29289 13.2929C6.68342 12.9024 7.31658 12.9024 7.70711 13.2929C8.09763 13.6834 8.09763 14.3166 7.70711 14.7071L6.41421 16L13 16C14.6569 16 16 14.6569 16 13L16 6.41421L14.7071 7.70711C14.3166 8.09763 13.6834 8.09763 13.2929 7.70711C12.9024 7.31658 12.9024 6.68342 13.2929 6.29289L16.2929 3.29289C16.6834 2.90237 17.3166 2.90237 17.7071 3.29289L20.7071 6.29289C21.0976 6.68342 21.0976 7.31658 20.7071 7.70711C20.3166 8.09763 19.6834 8.09763 19.2929 7.70711L18 6.41421L18 13C18 15.7614 15.7614 18 13 18L6.41421 18L7.70711 19.2929C8.09763 19.6834 8.09763 20.3166 7.70711 20.7071Z" fill="#7369AB"/>
</svg>
