<svg width="24" height="24" viewBox="0 0 24 24" fill="none" xmlns="http://www.w3.org/2000/svg">
<path fill-rule="evenodd" clip-rule="evenodd" d="M7 12C7 11.4477 7.44771 11 8 11L11 11L11 6.41421L10.2071 7.20711C9.81658 7.59763 9.18342 7.59763 8.79289 7.20711C8.40237 6.81659 8.40237 6.18342 8.79289 5.7929L11.2929 3.29289C11.6834 2.90237 12.3166 2.90237 12.7071 3.29289L15.2071 5.79289C15.5976 6.18342 15.5976 6.81658 15.2071 7.20711C14.8166 7.59763 14.1834 7.59763 13.7929 7.20711L13 6.41421L13 11L16 11C16.5523 11 17 11.4477 17 12C17 12.5523 16.5523 13 16 13L13 13L13 17.5858L13.7929 16.7929C14.1834 16.4024 14.8166 16.4024 15.2071 16.7929C15.5976 17.1834 15.5976 17.8166 15.2071 18.2071L12.7071 20.7071C12.5196 20.8946 12.2652 21 12 21C11.7348 21 11.4804 20.8946 11.2929 20.7071L8.79289 18.2071C8.40237 17.8166 8.40237 17.1834 8.79289 16.7929C9.18342 16.4024 9.81658 16.4024 10.2071 16.7929L11 17.5858L11 13L8 13C7.44771 13 7 12.5523 7 12Z" fill="#7369AB"/>
</svg>
