<svg width="24" height="24" viewBox="0 0 24 24" fill="none" xmlns="http://www.w3.org/2000/svg">
<path fill-rule="evenodd" clip-rule="evenodd" d="M16.2929 3.29289C16.6834 2.90237 17.3166 2.90237 17.7071 3.29289L20.7071 6.29289C21.0976 6.68342 21.0976 7.31658 20.7071 7.70711L17.7071 10.7071C17.3166 11.0976 16.6834 11.0976 16.2929 10.7071C15.9024 10.3166 15.9024 9.68342 16.2929 9.29289L17.5858 8H11C9.34315 8 8 9.34315 8 11V17.5858L9.29289 16.2929C9.68342 15.9024 10.3166 15.9024 10.7071 16.2929C11.0976 16.6834 11.0976 17.3166 10.7071 17.7071L7.70711 20.7071C7.31658 21.0976 6.68342 21.0976 6.29289 20.7071L3.29289 17.7071C2.90237 17.3166 2.90237 16.6834 3.29289 16.2929C3.68342 15.9024 4.31658 15.9024 4.70711 16.2929L6 17.5858V11C6 8.23858 8.23858 6 11 6H17.5858L16.2929 4.70711C15.9024 4.31658 15.9024 3.68342 16.2929 3.29289Z" fill="#7369AB"/>
</svg>
