<svg width="24" height="24" viewBox="0 0 24 24" fill="none" xmlns="http://www.w3.org/2000/svg">
<path fill-rule="evenodd" clip-rule="evenodd" d="M20.7071 16.2929C21.0976 16.6834 21.0976 17.3166 20.7071 17.7071L17.7071 20.7071C17.3166 21.0976 16.6834 21.0976 16.2929 20.7071L13.2929 17.7071C12.9024 17.3166 12.9024 16.6834 13.2929 16.2929C13.6834 15.9024 14.3166 15.9024 14.7071 16.2929L16 17.5858L16 11C16 9.34315 14.6569 8 13 8L6.41421 8L7.70711 9.29289C8.09763 9.68342 8.09763 10.3166 7.70711 10.7071C7.31658 11.0976 6.68342 11.0976 6.29289 10.7071L3.29289 7.70711C2.90237 7.31658 2.90237 6.68342 3.29289 6.29289L6.29289 3.29289C6.68342 2.90237 7.31658 2.90237 7.70711 3.29289C8.09763 3.68342 8.09763 4.31658 7.70711 4.70711L6.41421 6L13 6C15.7614 6 18 8.23858 18 11L18 17.5858L19.2929 16.2929C19.6834 15.9024 20.3166 15.9024 20.7071 16.2929Z" fill="#7369AB"/>
</svg>
