<svg width="24" height="24" viewBox="0 0 24 24" fill="none" xmlns="http://www.w3.org/2000/svg">
<path fill-rule="evenodd" clip-rule="evenodd" d="M3.29289 7.70711C2.90237 7.31658 2.90237 6.68342 3.29289 6.29289L6.29289 3.29289C6.68342 2.90237 7.31658 2.90237 7.70711 3.29289L10.7071 6.29289C11.0976 6.68342 11.0976 7.31658 10.7071 7.70711C10.3166 8.09763 9.68342 8.09763 9.29289 7.70711L8 6.41421L8 13C8 14.6569 9.34315 16 11 16L17.5858 16L16.2929 14.7071C15.9024 14.3166 15.9024 13.6834 16.2929 13.2929C16.6834 12.9024 17.3166 12.9024 17.7071 13.2929L20.7071 16.2929C21.0976 16.6834 21.0976 17.3166 20.7071 17.7071L17.7071 20.7071C17.3166 21.0976 16.6834 21.0976 16.2929 20.7071C15.9024 20.3166 15.9024 19.6834 16.2929 19.2929L17.5858 18L11 18C8.23858 18 6 15.7614 6 13L6 6.41421L4.70711 7.70711C4.31658 8.09763 3.68342 8.09763 3.29289 7.70711Z" fill="#7369AB"/>
</svg>
