<svg width="24" height="24" viewBox="0 0 24 24" fill="none" xmlns="http://www.w3.org/2000/svg">
<path fill-rule="evenodd" clip-rule="evenodd" d="M10.7071 10.7071C10.3166 11.0976 9.68342 11.0976 9.29289 10.7071L6 7.41421L6 10C6 10.5523 5.55228 11 5 11C4.44772 11 4 10.5523 4 10L4 5C4 4.44771 4.44772 4 5 4L10 4C10.5523 4 11 4.44772 11 5C11 5.55228 10.5523 6 10 6L7.41421 6L10.7071 9.29289C11.0976 9.68342 11.0976 10.3166 10.7071 10.7071Z" fill="#7369AB"/>
<path fill-rule="evenodd" clip-rule="evenodd" d="M13.2929 13.2929C13.6834 12.9024 14.3166 12.9024 14.7071 13.2929L18 16.5858V14C18 13.4477 18.4477 13 19 13C19.5523 13 20 13.4477 20 14V19C20 19.5523 19.5523 20 19 20H14C13.4477 20 13 19.5523 13 19C13 18.4477 13.4477 18 14 18H16.5858L13.2929 14.7071C12.9024 14.3166 12.9024 13.6834 13.2929 13.2929Z" fill="#7369AB"/>
</svg>
