<svg width="24" height="24" viewBox="0 0 24 24" fill="none" xmlns="http://www.w3.org/2000/svg">
<path fill-rule="evenodd" clip-rule="evenodd" d="M9.70711 9.70711C9.31658 10.0976 8.68342 10.0976 8.29289 9.70711L6 7.41421L6 9C6 9.55228 5.55228 10 5 10C4.44772 10 4 9.55228 4 9L4 5C4 4.44771 4.44772 4 5 4L9 4C9.55229 4 10 4.44772 10 5C10 5.55228 9.55229 6 9 6L7.41421 6L9.70711 8.29289C10.0976 8.68342 10.0976 9.31658 9.70711 9.70711Z" fill="#7369AB"/>
<path fill-rule="evenodd" clip-rule="evenodd" d="M14.2929 9.70711C13.9024 9.31658 13.9024 8.68342 14.2929 8.29289L16.5858 6L15 6C14.4477 6 14 5.55228 14 5C14 4.44772 14.4477 4 15 4L19 4C19.5523 4 20 4.44772 20 5L20 9C20 9.55228 19.5523 10 19 10C18.4477 10 18 9.55228 18 9L18 7.41421L15.7071 9.70711C15.3166 10.0976 14.6834 10.0976 14.2929 9.70711Z" fill="#7369AB"/>
<path fill-rule="evenodd" clip-rule="evenodd" d="M9.70711 14.2929C10.0976 14.6834 10.0976 15.3166 9.70711 15.7071L7.41421 18L9 18C9.55228 18 10 18.4477 10 19C10 19.5523 9.55228 20 9 20L5 20C4.44772 20 4 19.5523 4 19L4 15C4 14.4477 4.44772 14 5 14C5.55228 14 6 14.4477 6 15L6 16.5858L8.29289 14.2929C8.68342 13.9024 9.31658 13.9024 9.70711 14.2929Z" fill="#7369AB"/>
<path fill-rule="evenodd" clip-rule="evenodd" d="M14.2929 14.2929C14.6834 13.9024 15.3166 13.9024 15.7071 14.2929L18 16.5858L18 15C18 14.4477 18.4477 14 19 14C19.5523 14 20 14.4477 20 15L20 19C20 19.5523 19.5523 20 19 20L15 20C14.4477 20 14 19.5523 14 19C14 18.4477 14.4477 18 15 18L16.5858 18L14.2929 15.7071C13.9024 15.3166 13.9024 14.6834 14.2929 14.2929Z" fill="#7369AB"/>
</svg>
