<svg width="24" height="24" viewBox="0 0 24 24" fill="none" xmlns="http://www.w3.org/2000/svg">
<path fill-rule="evenodd" clip-rule="evenodd" d="M10 18C9.44772 18 9 17.5523 9 17L9 13L5.41421 13L6.70711 14.2929C7.09763 14.6834 7.09763 15.3166 6.70711 15.7071C6.31658 16.0976 5.68342 16.0976 5.29289 15.7071L2.29289 12.7071C1.90237 12.3166 1.90237 11.6834 2.29289 11.2929L5.29289 8.29289C5.68342 7.90237 6.31658 7.90237 6.70711 8.29289C7.09763 8.68342 7.09763 9.31658 6.70711 9.70711L5.41421 11L9 11L9 7C9 6.44771 9.44772 6 10 6C10.5523 6 11 6.44771 11 7L11 17C11 17.5523 10.5523 18 10 18Z" fill="#7369AB"/>
<path fill-rule="evenodd" clip-rule="evenodd" d="M14 18C14.5523 18 15 17.5523 15 17L15 13L18.5858 13L17.2929 14.2929C16.9024 14.6834 16.9024 15.3166 17.2929 15.7071C17.6834 16.0976 18.3166 16.0976 18.7071 15.7071L21.7071 12.7071C22.0976 12.3166 22.0976 11.6834 21.7071 11.2929L18.7071 8.29289C18.3166 7.90237 17.6834 7.90237 17.2929 8.29289C16.9024 8.68342 16.9024 9.31658 17.2929 9.70711L18.5858 11L15 11L15 7C15 6.44772 14.5523 6 14 6C13.4477 6 13 6.44771 13 7L13 17C13 17.5523 13.4477 18 14 18Z" fill="#7369AB"/>
</svg>
