<svg width="24" height="24" viewBox="0 0 24 24" fill="none" xmlns="http://www.w3.org/2000/svg">
<path fill-rule="evenodd" clip-rule="evenodd" d="M12 3C12.2652 3 12.5196 3.10536 12.7071 3.29289L16.2071 6.79289C16.5976 7.18342 16.5976 7.81658 16.2071 8.20711C15.8166 8.59763 15.1834 8.59763 14.7929 8.20711L13 6.41421V17.5858L14.7929 15.7929C15.1834 15.4024 15.8166 15.4024 16.2071 15.7929C16.5976 16.1834 16.5976 16.8166 16.2071 17.2071L12.7071 20.7071C12.3166 21.0976 11.6834 21.0976 11.2929 20.7071L7.79289 17.2071C7.40237 16.8166 7.40237 16.1834 7.79289 15.7929C8.18342 15.4024 8.81658 15.4024 9.20711 15.7929L11 17.5858V6.41421L9.20711 8.20711C8.81658 8.59763 8.18342 8.59763 7.79289 8.20711C7.40237 7.81658 7.40237 7.18342 7.79289 6.79289L11.2929 3.29289C11.4804 3.10536 11.7348 3 12 3Z" fill="#7369AB"/>
</svg>
