<svg width="24" height="24" viewBox="0 0 24 24" fill="none" xmlns="http://www.w3.org/2000/svg">
<path fill-rule="evenodd" clip-rule="evenodd" d="M9.83752 7.31572C11.1613 6.3702 13 7.31644 13 8.94319V15.0568C13 16.6836 11.1613 17.6298 9.83752 16.6843L5.55798 13.6275C4.44129 12.8298 4.44128 11.1702 5.55798 10.3725L9.83752 7.31572ZM11 8.94319L6.72046 12L11 15.0568V8.94319Z" fill="#7369AB"/>
<path fill-rule="evenodd" clip-rule="evenodd" d="M16.8375 7.31572C18.1613 6.3702 20 7.31644 20 8.94319V15.0568C20 16.6836 18.1613 17.6298 16.8375 16.6843L12.558 13.6275C11.4413 12.8298 11.4413 11.1702 12.558 10.3725L16.8375 7.31572ZM18 8.94319L13.7205 12L18 15.0568V8.94319Z" fill="#7369AB"/>
</svg>
