<svg width="24" height="24" viewBox="0 0 24 24" fill="none" xmlns="http://www.w3.org/2000/svg">
<path fill-rule="evenodd" clip-rule="evenodd" d="M5.64137 3.87678C6.10434 3.32122 6.79016 3 7.51334 3H19.1265C21.8181 3 24 5.18195 24 7.87352V15.1838C24 17.8754 21.8181 20.0573 19.1265 20.0573H7.51334C6.79016 20.0573 6.10434 19.7361 5.64137 19.1805L0.564789 13.0886C-0.188264 12.185 -0.188262 10.8723 0.564789 9.96868L5.64137 3.87678ZM19.1265 5.43676L7.51334 5.43676L2.43676 11.5287L7.51334 17.6206H19.1265C20.4723 17.6206 21.5632 16.5296 21.5632 15.1838V7.87352C21.5632 6.52773 20.4723 5.43676 19.1265 5.43676Z" fill="#7369AB"/>
<path fill-rule="evenodd" clip-rule="evenodd" d="M9.73625 8.23039C10.2121 7.75458 10.9835 7.75458 11.4593 8.23039L13.0345 9.80563L14.6098 8.23039C15.0856 7.75458 15.857 7.75458 16.3328 8.23039C16.8086 8.7062 16.8086 9.47763 16.3328 9.95344L14.7576 11.5287L16.3328 13.1039C16.8086 13.5797 16.8086 14.3512 16.3328 14.827C15.857 15.3028 15.0856 15.3028 14.6098 14.827L13.0345 13.2517L11.4593 14.827C10.9835 15.3028 10.2121 15.3028 9.73625 14.827C9.26044 14.3512 9.26044 13.5797 9.73625 13.1039L11.3115 11.5287L9.73625 9.95344C9.26044 9.47763 9.26044 8.7062 9.73625 8.23039Z" fill="#7369AB"/>
</svg>
