<svg width="24" height="24" viewBox="0 0 24 24" fill="none" xmlns="http://www.w3.org/2000/svg">
<g id="Group 28">
<path id="Vector (Stroke)" fill-rule="evenodd" clip-rule="evenodd" d="M3.95148 3.95145C4.42011 3.48282 5.1799 3.48282 5.64853 3.95145L20.0485 18.3514C20.5172 18.8201 20.5172 19.5799 20.0485 20.0485C19.5799 20.5171 18.8201 20.5171 18.3515 20.0485L3.95148 5.6485C3.48285 5.17987 3.48285 4.42008 3.95148 3.95145Z" fill="#7369AB"/>
<path id="Vector (Stroke)_2" fill-rule="evenodd" clip-rule="evenodd" d="M12.0439 0.000631246C12.7063 0.0219182 13.2261 0.576155 13.2048 1.23855C13.1643 2.49748 13.3822 3.7518 13.8457 4.92623C14.3089 6.09985 15.0081 7.16998 15.902 8.07194C16.795 8.96392 17.8648 9.66654 19.0456 10.1356C20.2273 10.6049 21.4945 10.8301 22.7687 10.7968C23.4312 10.7795 23.9823 11.3025 23.9996 11.965C24.0169 12.6275 23.4939 13.1786 22.8314 13.196C21.2334 13.2377 19.6434 12.9554 18.1597 12.366C16.6758 11.7767 15.3292 10.8926 14.2036 9.76765L14.1998 9.76382C13.0769 8.63155 12.1969 7.28586 11.6133 5.80732C11.0298 4.32873 10.755 2.74837 10.806 1.16147C10.8273 0.499068 11.3815 -0.0206558 12.0439 0.000631246Z" fill="#7369AB"/>
<path id="Vector (Stroke)_3" fill-rule="evenodd" clip-rule="evenodd" d="M1.16407 10.8053C2.76477 10.7573 4.3585 11.0368 5.84584 11.6267C7.33321 12.2165 8.68265 13.1042 9.80954 14.2348L9.81323 14.2385L9.81322 14.2385C10.9321 15.3709 11.8088 16.7164 12.39 18.1945C12.9712 19.6726 13.2448 21.2523 13.194 22.8384C13.1728 23.5008 12.6186 24.0206 11.9562 23.9994C11.2938 23.9782 10.7741 23.424 10.7953 22.7616C10.8356 21.5022 10.6184 20.2475 10.1565 19.0728C9.69485 17.8989 8.9982 16.8288 8.10779 15.9272C7.21417 15.0311 6.14312 14.3264 4.96111 13.8576C3.77826 13.3885 2.51009 13.166 1.23595 13.2042C0.57351 13.224 0.0204001 12.7031 0.000549021 12.0407C-0.019302 11.3782 0.501622 10.8251 1.16407 10.8053Z" fill="#7369AB"/>
<path id="Vector (Stroke)_4" fill-rule="evenodd" clip-rule="evenodd" d="M12 2.4C6.69806 2.4 2.4 6.69806 2.4 12C2.4 17.3019 6.69806 21.6 12 21.6C17.3019 21.6 21.6 17.3019 21.6 12C21.6 6.69806 17.3019 2.4 12 2.4ZM0 12C0 5.37258 5.37258 0 12 0C18.6274 0 24 5.37258 24 12C24 18.6274 18.6274 24 12 24C5.37258 24 0 18.6274 0 12Z" fill="#7369AB"/>
</g>
</svg>
