<svg width="24" height="24" viewBox="0 0 24 24" fill="none" xmlns="http://www.w3.org/2000/svg">
<path fill-rule="evenodd" clip-rule="evenodd" d="M9 4C9 3.44772 9.44772 3 10 3H14C14.5523 3 15 3.44772 15 4V20C15 20.5523 14.5523 21 14 21H10C9.44772 21 9 20.5523 9 20V4ZM11 5V19H13V5H11Z" fill="#7369AB"/>
<path fill-rule="evenodd" clip-rule="evenodd" d="M13 9C13 8.44772 13.4477 8 14 8H18C18.5523 8 19 8.44772 19 9V20C19 20.5523 18.5523 21 18 21H14C13.4477 21 13 20.5523 13 20V9ZM15 10V19H17V10H15Z" fill="#7369AB"/>
<path fill-rule="evenodd" clip-rule="evenodd" d="M5 13C5 12.4477 5.44772 12 6 12H10C10.5523 12 11 12.4477 11 13V20C11 20.5523 10.5523 21 10 21H6C5.44772 21 5 20.5523 5 20V13ZM7 14V19H9V14H7Z" fill="#7369AB"/>
<path fill-rule="evenodd" clip-rule="evenodd" d="M2 20C2 19.4477 2.44772 19 3 19H21C21.5523 19 22 19.4477 22 20C22 20.5523 21.5523 21 21 21H3C2.44772 21 2 20.5523 2 20Z" fill="#7369AB"/>
</svg>
