<svg width="24" height="24" viewBox="0 0 24 24" fill="none" xmlns="http://www.w3.org/2000/svg">
<path fill-rule="evenodd" clip-rule="evenodd" d="M9 9C9 8.44772 9.44772 8 10 8H14C14.5523 8 15 8.44772 15 9V19C15 19.5523 14.5523 20 14 20H10C9.44772 20 9 19.5523 9 19V9ZM11 10V18H13V10H11Z" fill="#7369AB"/>
<path fill-rule="evenodd" clip-rule="evenodd" d="M16 5C16 4.44772 16.4477 4 17 4H21C21.5523 4 22 4.44772 22 5V19C22 19.5523 21.5523 20 21 20H17C16.4477 20 16 19.5523 16 19V5ZM18 6V18H20V6H18Z" fill="#7369AB"/>
<path fill-rule="evenodd" clip-rule="evenodd" d="M2 14C2 13.4477 2.44772 13 3 13H7C7.55228 13 8 13.4477 8 14V19C8 19.5523 7.55228 20 7 20H3C2.44772 20 2 19.5523 2 19V14ZM4 15V18H6V15H4Z" fill="#7369AB"/>
</svg>
