<svg width="24" height="24" viewBox="0 0 24 24" fill="none" xmlns="http://www.w3.org/2000/svg">
<path fill-rule="evenodd" clip-rule="evenodd" d="M17 8C17.5523 8 18 8.44772 18 9V18C18 18.5523 17.5523 19 17 19C16.4477 19 16 18.5523 16 18V9C16 8.44772 16.4477 8 17 8Z" fill="#7369AB"/>
<path fill-rule="evenodd" clip-rule="evenodd" d="M12 5C12.5523 5 13 5.44772 13 6V18C13 18.5523 12.5523 19 12 19C11.4477 19 11 18.5523 11 18V6C11 5.44772 11.4477 5 12 5Z" fill="#7369AB"/>
<path fill-rule="evenodd" clip-rule="evenodd" d="M7 11C7.55228 11 8 11.4477 8 12L8 18C8 18.5523 7.55229 19 7 19C6.44772 19 6 18.5523 6 18L6 12C6 11.4477 6.44772 11 7 11Z" fill="#7369AB"/>
</svg>
