<svg width="24" height="24" viewBox="0 0 24 24" fill="none" xmlns="http://www.w3.org/2000/svg">
<path fill-rule="evenodd" clip-rule="evenodd" d="M12 9C12.5523 9 13 9.44772 13 10V19C13 19.5523 12.5523 20 12 20C11.4477 20 11 19.5523 11 19V10C11 9.44772 11.4477 9 12 9Z" fill="#7369AB"/>
<path fill-rule="evenodd" clip-rule="evenodd" d="M16 6C16.5523 6 17 6.44772 17 7V19C17 19.5523 16.5523 20 16 20C15.4477 20 15 19.5523 15 19V7C15 6.44772 15.4477 6 16 6Z" fill="#7369AB"/>
<path fill-rule="evenodd" clip-rule="evenodd" d="M8 13C8.55228 13 9 13.4477 9 14L9 19C9 19.5523 8.55228 20 8 20C7.44772 20 7 19.5523 7 19L7 14C7 13.4477 7.44772 13 8 13Z" fill="#7369AB"/>
<path fill-rule="evenodd" clip-rule="evenodd" d="M4 4C4.55228 4 5 4.44772 5 5V19H19C19.5523 19 20 19.4477 20 20C20 20.5523 19.5523 21 19 21H5C3.89543 21 3 20.1046 3 19V5C3 4.44772 3.44772 4 4 4Z" fill="#7369AB"/>
</svg>
