<svg width="24" height="24" viewBox="0 0 24 24" fill="none" xmlns="http://www.w3.org/2000/svg">
<path fill-rule="evenodd" clip-rule="evenodd" d="M16 10C16 9.44772 16.4477 9 17 9H21C21.5523 9 22 9.44772 22 10V19C22 19.5523 21.5523 20 21 20H17C16.4477 20 16 19.5523 16 19V10ZM18 11V18H20V11H18Z" fill="#7369AB"/>
<path fill-rule="evenodd" clip-rule="evenodd" d="M9 5C9 4.44772 9.44772 4 10 4H14C14.5523 4 15 4.44772 15 5V19C15 19.5523 14.5523 20 14 20H10C9.44772 20 9 19.5523 9 19V5ZM11 6V18H13V6H11Z" fill="#7369AB"/>
<path fill-rule="evenodd" clip-rule="evenodd" d="M2 13C2 12.4477 2.44772 12 3 12H7C7.55228 12 8 12.4477 8 13V19C8 19.5523 7.55228 20 7 20H3C2.44772 20 2 19.5523 2 19V13ZM4 14V18H6V14H4Z" fill="#7369AB"/>
</svg>
