<svg width="24" height="24" viewBox="0 0 24 24" fill="none" xmlns="http://www.w3.org/2000/svg">
<path fill-rule="evenodd" clip-rule="evenodd" d="M2 10C2 8.34315 3.34315 7 5 7H16C17.6569 7 19 8.34315 19 10V14C19 15.6569 17.6569 17 16 17H5C3.34315 17 2 15.6569 2 14V10ZM5 9C4.44772 9 4 9.44772 4 10V14C4 14.5523 4.44772 15 5 15H16C16.5523 15 17 14.5523 17 14V10C17 9.44772 16.5523 9 16 9H5Z" fill="#7369AB"/>
<path fill-rule="evenodd" clip-rule="evenodd" d="M21 10C21.5523 10 22 10.4477 22 11V13C22 13.5523 21.5523 14 21 14C20.4477 14 20 13.5523 20 13V11C20 10.4477 20.4477 10 21 10Z" fill="#7369AB"/>
</svg>
