<svg width="24" height="24" viewBox="0 0 24 24" fill="none" xmlns="http://www.w3.org/2000/svg">
<path fill-rule="evenodd" clip-rule="evenodd" d="M6.90904 5.82325C6.33296 6.7445 6 7.83337 6 9V11.7564C6 12.1579 5.70766 12.6054 5.09976 13.2452C4.41915 13.9616 4 14.9329 4 16C4 17.1046 4.89543 18 6 18H7H16C16.8342 18 17.5492 17.4892 17.8492 16.7634L16 14.9142V16H7H6C6 15.4658 6.20812 14.9823 6.54971 14.6228C7.10947 14.0336 8 13.05 8 11.7564V9C8 8.3901 8.1365 7.81208 8.38062 7.29483L6.90904 5.82325ZM16 12.0858V9C16 6.79086 14.2091 5 12 5C11.1288 5 10.3226 5.27854 9.66565 5.75143L8.23901 4.3248C9.26789 3.49606 10.576 3 12 3C15.3137 3 18 5.68629 18 9V14.0858L16 12.0858Z" fill="#7369AB"/>
<path fill-rule="evenodd" clip-rule="evenodd" d="M2.29289 2.29289C2.68342 1.90237 3.31658 1.90237 3.70711 2.29289L21.7071 20.2929C22.0976 20.6834 22.0976 21.3166 21.7071 21.7071C21.3166 22.0976 20.6834 22.0976 20.2929 21.7071L2.29289 3.70711C1.90237 3.31658 1.90237 2.68342 2.29289 2.29289Z" fill="#7369AB"/>
<path fill-rule="evenodd" clip-rule="evenodd" d="M9.76561 18.9155C10.2686 18.6874 10.8612 18.9101 11.0894 19.4131C11.1678 19.5859 11.2937 19.7329 11.4525 19.8368C11.6113 19.9407 11.7964 19.9972 11.9861 19.9999C12.1759 20.0025 12.3624 19.9512 12.5241 19.8517C12.6857 19.7523 12.8157 19.6089 12.8989 19.4384C13.141 18.942 13.7396 18.7358 14.236 18.9779C14.7324 19.22 14.9386 19.8187 14.6965 20.3151C14.4469 20.8268 14.0569 21.2569 13.572 21.5552C13.0872 21.8535 12.5274 22.0077 11.9582 21.9997C11.389 21.9918 10.8337 21.822 10.3574 21.5103C9.88103 21.1986 9.5032 20.7577 9.26803 20.2393C9.03988 19.7364 9.26265 19.1437 9.76561 18.9155Z" fill="#7369AB"/>
<path fill-rule="evenodd" clip-rule="evenodd" d="M12 2C12.5523 2 13 2.44772 13 3V4C13 4.55228 12.5523 5 12 5C11.4477 5 11 4.55228 11 4V3C11 2.44772 11.4477 2 12 2Z" fill="#7369AB"/>
</svg>
