<svg width="24" height="24" viewBox="0 0 24 24" fill="none" xmlns="http://www.w3.org/2000/svg">
<path fill-rule="evenodd" clip-rule="evenodd" d="M12 5C9.79086 5 8 6.79086 8 9V11.7564C8 13.05 7.10947 14.0336 6.54971 14.6228C6.20812 14.9823 6 15.4658 6 16H18C18 15.4658 17.7919 14.9823 17.4503 14.6228C16.8905 14.0336 16 13.05 16 11.7564V9C16 6.79086 14.2091 5 12 5ZM6 9C6 5.68629 8.68629 3 12 3C15.3137 3 18 5.68629 18 9V11.7564C18 12.1579 18.2923 12.6054 18.9002 13.2452C19.5809 13.9616 20 14.9329 20 16C20 17.1046 19.1046 18 18 18H6C4.89543 18 4 17.1046 4 16C4 14.9329 4.41915 13.9616 5.09976 13.2452C5.70766 12.6054 6 12.1579 6 11.7564V9Z" fill="#7369AB"/>
<path fill-rule="evenodd" clip-rule="evenodd" d="M9.76561 18.9155C10.2686 18.6874 10.8612 18.9101 11.0894 19.4131C11.1678 19.5859 11.2937 19.7329 11.4525 19.8368C11.6113 19.9407 11.7964 19.9972 11.9861 19.9999C12.1759 20.0025 12.3624 19.9512 12.5241 19.8517C12.6857 19.7523 12.8157 19.6089 12.8989 19.4384C13.141 18.942 13.7396 18.7358 14.236 18.9779C14.7324 19.22 14.9386 19.8187 14.6965 20.3151C14.4469 20.8268 14.0569 21.2569 13.572 21.5552C13.0872 21.8535 12.5274 22.0077 11.9582 21.9997C11.389 21.9918 10.8337 21.822 10.3574 21.5103C9.88103 21.1986 9.5032 20.7577 9.26803 20.2393C9.03988 19.7364 9.26265 19.1437 9.76561 18.9155Z" fill="#7369AB"/>
<path fill-rule="evenodd" clip-rule="evenodd" d="M12 2C12.5523 2 13 2.44772 13 3V4C13 4.55228 12.5523 5 12 5C11.4477 5 11 4.55228 11 4V3C11 2.44772 11.4477 2 12 2Z" fill="#7369AB"/>
</svg>
