<svg width="24" height="24" viewBox="0 0 24 24" fill="none" xmlns="http://www.w3.org/2000/svg">
<path fill-rule="evenodd" clip-rule="evenodd" d="M18.7071 9.70711C18.3166 10.0976 17.6834 10.0976 17.2929 9.70711L15 7.41421L15 15C15 17.7614 12.7614 20 10 20L6 20C5.44771 20 5 19.5523 5 19C5 18.4477 5.44771 18 6 18L10 18C11.6569 18 13 16.6569 13 15L13 7.41421L10.7071 9.70711C10.3166 10.0976 9.68342 10.0976 9.29289 9.70711C8.90237 9.31658 8.90237 8.68342 9.29289 8.29289L13.2929 4.29289C13.6834 3.90237 14.3166 3.90237 14.7071 4.29289L18.7071 8.29289C19.0976 8.68342 19.0976 9.31658 18.7071 9.70711Z" fill="#7369AB"/>
</svg>
