<svg width="24" height="24" viewBox="0 0 24 24" fill="none" xmlns="http://www.w3.org/2000/svg">
<path fill-rule="evenodd" clip-rule="evenodd" d="M5.29289 14.2929C5.68342 13.9024 6.31658 13.9024 6.70711 14.2929L9 16.5858L9 9C9 6.23858 11.2386 4 14 4L18 4C18.5523 4 19 4.44771 19 5C19 5.55228 18.5523 6 18 6L14 6C12.3431 6 11 7.34315 11 9L11 16.5858L13.2929 14.2929C13.6834 13.9024 14.3166 13.9024 14.7071 14.2929C15.0976 14.6834 15.0976 15.3166 14.7071 15.7071L10.7071 19.7071C10.3166 20.0976 9.68342 20.0976 9.29289 19.7071L5.29289 15.7071C4.90237 15.3166 4.90237 14.6834 5.29289 14.2929Z" fill="#7369AB"/>
</svg>
