<svg width="24" height="24" viewBox="0 0 24 24" fill="none" xmlns="http://www.w3.org/2000/svg">
<path fill-rule="evenodd" clip-rule="evenodd" d="M9.70711 5.29289C10.0976 5.68342 10.0976 6.31658 9.70711 6.70711L7.41421 9H15C17.7614 9 20 11.2386 20 14V18C20 18.5523 19.5523 19 19 19C18.4477 19 18 18.5523 18 18V14C18 12.3431 16.6569 11 15 11H7.41421L9.70711 13.2929C10.0976 13.6834 10.0976 14.3166 9.70711 14.7071C9.31658 15.0976 8.68342 15.0976 8.29289 14.7071L4.29289 10.7071C3.90237 10.3166 3.90237 9.68342 4.29289 9.29289L8.29289 5.29289C8.68342 4.90237 9.31658 4.90237 9.70711 5.29289Z" fill="#7369AB"/>
</svg>
