<svg width="18" height="24" viewBox="0 0 18 24" fill="none" xmlns="http://www.w3.org/2000/svg">
<g id="Group 29">
<path id="Vector (Stroke)" fill-rule="evenodd" clip-rule="evenodd" d="M8.9113 5.15471C7.25082 5.15471 5.65834 5.81433 4.4842 6.98847C3.31006 8.16261 2.65043 9.75509 2.65043 11.4156V21.913H15.1722V11.4156C15.1722 9.75509 14.5125 8.16261 13.3384 6.98847C12.1643 5.81433 10.5718 5.15471 8.9113 5.15471ZM3.0085 5.51277C4.57402 3.94725 6.69732 3.06775 8.9113 3.06775C11.1253 3.06775 13.2486 3.94725 14.8141 5.51277C16.3796 7.07829 17.2591 9.20159 17.2591 11.4156V22.9564C17.2591 23.5327 16.7919 23.9999 16.2157 23.9999H1.60695C1.03066 23.9999 0.563477 23.5327 0.563477 22.9564V11.4156C0.563477 9.20159 1.44298 7.07829 3.0085 5.51277Z" fill="#7369AB"/>
<path id="Vector (Stroke)_2" fill-rule="evenodd" clip-rule="evenodd" d="M8.91129 5.15471C8.10595 5.15471 7.3336 5.47462 6.76414 6.04408C6.19469 6.61354 5.87477 7.38589 5.87477 8.19123V21.9025H11.9478V8.19123C11.9478 7.38589 11.6279 6.61354 11.0584 6.04408C10.489 5.47462 9.71663 5.15471 8.91129 5.15471ZM5.28844 4.56838C6.24928 3.60754 7.55246 3.06775 8.91129 3.06775C10.2701 3.06775 11.5733 3.60754 12.5341 4.56838C13.495 5.52922 14.0348 6.8324 14.0348 8.19123V22.5912C14.0348 22.9621 13.8875 23.3177 13.6252 23.5799C13.363 23.8422 13.0073 23.9895 12.6365 23.9895H5.18607C4.81524 23.9895 4.45958 23.8422 4.19735 23.5799C3.93512 23.3177 3.78781 22.9621 3.78781 22.5912V8.19123C3.78781 6.8324 4.3276 5.52922 5.28844 4.56838Z" fill="#7369AB"/>
<path id="Vector (Stroke)_3" fill-rule="evenodd" clip-rule="evenodd" d="M8.91131 3.06775C9.4876 3.06775 9.95478 3.53493 9.95478 4.11123V22.9564C9.95478 23.5327 9.4876 23.9999 8.91131 23.9999C8.33501 23.9999 7.86783 23.5327 7.86783 22.9564V4.11123C7.86783 3.53493 8.33501 3.06775 8.91131 3.06775Z" fill="#7369AB"/>
<path id="Vector (Stroke)_4" fill-rule="evenodd" clip-rule="evenodd" d="M8.91128 2.08696C8.64042 2.08696 8.42085 2.30653 8.42085 2.57739C8.42085 2.84825 8.64042 3.06783 8.91128 3.06783C9.18214 3.06783 9.40172 2.84825 9.40172 2.57739C9.40172 2.30653 9.18214 2.08696 8.91128 2.08696ZM6.33389 2.57739C6.33389 1.15394 7.48783 0 8.91128 0C10.3347 0 11.4887 1.15394 11.4887 2.57739C11.4887 4.00085 10.3347 5.15478 8.91128 5.15478C7.48783 5.15478 6.33389 4.00085 6.33389 2.57739Z" fill="#7369AB"/>
<path id="Vector (Stroke)_5" fill-rule="evenodd" clip-rule="evenodd" d="M0 22.9565C0 22.3802 0.467181 21.913 1.04348 21.913H16.7791C17.3554 21.913 17.8226 22.3802 17.8226 22.9565C17.8226 23.5328 17.3554 24 16.7791 24H1.04348C0.467181 24 0 23.5328 0 22.9565Z" fill="#7369AB"/>
</g>
</svg>
