<svg width="24" height="24" viewBox="0 0 24 24" fill="none" xmlns="http://www.w3.org/2000/svg">
<path fill-rule="evenodd" clip-rule="evenodd" d="M7 6C7.55228 6 8 6.44772 8 7V17C8 17.5523 7.55228 18 7 18C6.44772 18 6 17.5523 6 17V7C6 6.44772 6.44772 6 7 6Z" fill="#7369AB"/>
<path fill-rule="evenodd" clip-rule="evenodd" d="M6 12C6 11.4477 6.44772 11 7 11H14.5C16.433 11 18 12.567 18 14.5C18 16.433 16.433 18 14.5 18H7C6.44772 18 6 17.5523 6 17V12ZM8 13V16H14.5C15.3284 16 16 15.3284 16 14.5C16 13.6716 15.3284 13 14.5 13H8Z" fill="#7369AB"/>
<path fill-rule="evenodd" clip-rule="evenodd" d="M6 7C6 6.44772 6.44772 6 7 6H14.5C16.433 6 18 7.567 18 9.5C18 11.433 16.433 13 14.5 13H7C6.44772 13 6 12.5523 6 12V7ZM8 8V11H14.5C15.3284 11 16 10.3284 16 9.5C16 8.67157 15.3284 8 14.5 8H8Z" fill="#7369AB"/>
<path fill-rule="evenodd" clip-rule="evenodd" d="M9 4C9.55228 4 10 4.44772 10 5L10 7C10 7.55228 9.55228 8 9 8C8.44772 8 8 7.55228 8 7L8 5C8 4.44772 8.44772 4 9 4Z" fill="#7369AB"/>
<path fill-rule="evenodd" clip-rule="evenodd" d="M9 16C9.55228 16 10 16.4477 10 17L10 19C10 19.5523 9.55228 20 9 20C8.44772 20 8 19.5523 8 19L8 17C8 16.4477 8.44772 16 9 16Z" fill="#7369AB"/>
<path fill-rule="evenodd" clip-rule="evenodd" d="M13 4C13.5523 4 14 4.44772 14 5L14 7C14 7.55228 13.5523 8 13 8C12.4477 8 12 7.55228 12 7L12 5C12 4.44772 12.4477 4 13 4Z" fill="#7369AB"/>
<path fill-rule="evenodd" clip-rule="evenodd" d="M13 16C13.5523 16 14 16.4477 14 17L14 19C14 19.5523 13.5523 20 13 20C12.4477 20 12 19.5523 12 19L12 17C12 16.4477 12.4477 16 13 16Z" fill="#7369AB"/>
</svg>
