<svg width="24" height="24" viewBox="0 0 24 24" fill="none" xmlns="http://www.w3.org/2000/svg">
<g id="Bone" clip-path="url(#clip0_1210_3115)">
<path id="Union (Stroke)" fill-rule="evenodd" clip-rule="evenodd" d="M17.5728 3.47737C16.7042 2.60872 15.2958 2.60872 14.4272 3.47737C13.5585 4.34603 13.5585 5.7544 14.4272 6.62305L15.1534 7.34933L7.37882 15.1239L6.65267 14.3978C5.78401 13.5291 4.37561 13.5291 3.50696 14.3977C2.6383 15.2664 2.6383 16.6748 3.50696 17.5434C3.97662 18.0131 4.60246 18.229 5.21946 18.1906L6.38071 18.1182L6.30831 19.2794C6.26984 19.8964 6.48579 20.5222 6.95545 20.9919C7.8241 21.8606 9.23247 21.8606 10.1011 20.9919C10.9698 20.1233 10.9698 18.7149 10.1012 17.8462L9.37503 17.1201L17.1495 9.34558L17.8757 10.0717C18.7444 10.9403 20.1527 10.9403 21.0213 10.0716C21.89 9.20299 21.89 7.79462 21.0213 6.92597C20.5517 6.4563 19.9258 6.24035 19.3088 6.27883L18.1475 6.35124L18.22 5.18995C18.2585 4.57293 18.0425 3.94705 17.5728 3.47737ZM12.9749 2.02508C14.6456 0.354339 17.3544 0.354339 19.0251 2.02508C19.6659 2.66584 20.0608 3.4601 20.2101 4.28873C21.0387 4.43805 21.8329 4.83294 22.4736 5.47367C24.1444 7.14441 24.1444 9.85321 22.4736 11.5239C21.0532 12.9443 18.8825 13.1572 17.2373 12.1624L12.1919 17.2078C13.1867 18.8531 12.9738 21.0238 11.5534 22.4442C9.88269 24.1149 7.17389 24.1149 5.50315 22.4442C4.86242 21.8035 4.46752 21.0093 4.31821 20.1807C3.48961 20.0314 2.6954 19.6365 2.05466 18.9957C0.383923 17.325 0.383923 14.6162 2.05466 12.9455C3.4751 11.525 5.64586 11.3122 7.29112 12.307L12.3365 7.26164C11.3416 5.61637 11.5544 3.44554 12.9749 2.02508Z" fill="#7369AB"/>
</g>
<defs>
<clipPath id="clip0_1210_3115">
<rect width="24" height="24" fill="white"/>
</clipPath>
</defs>
</svg>
