<svg width="24" height="24" viewBox="0 0 24 24" fill="none" xmlns="http://www.w3.org/2000/svg">
<path fill-rule="evenodd" clip-rule="evenodd" d="M10.1615 3H13.8385C14.3657 2.99998 14.8205 2.99997 15.195 3.03057C15.5904 3.06287 15.9836 3.13419 16.362 3.32698C16.9265 3.6146 17.3854 4.07354 17.673 4.63803C17.8658 5.01641 17.9371 5.40963 17.9694 5.80497C18 6.17955 18 6.63432 18 7.16148V20C18 20.3938 17.7689 20.7509 17.4097 20.9122C17.0504 21.0736 16.63 21.009 16.3356 20.7474L13.4616 18.1927C13.0739 17.8481 12.8251 17.6279 12.622 17.4737C12.4288 17.327 12.338 17.2888 12.2866 17.2734C12.0996 17.2175 11.9004 17.2175 11.7134 17.2734C11.662 17.2888 11.5712 17.327 11.378 17.4737C11.1749 17.6279 10.9261 17.8481 10.5384 18.1927L7.66437 20.7474C7.37004 21.009 6.94958 21.0736 6.59035 20.9122C6.23111 20.7509 6 20.3938 6 20L6 7.16146C5.99998 6.63431 5.99997 6.17955 6.03057 5.80497C6.06287 5.40963 6.13419 5.01641 6.32698 4.63803C6.6146 4.07354 7.07354 3.6146 7.63803 3.32698C8.01641 3.13419 8.40963 3.06287 8.80497 3.03057C9.17955 2.99997 9.63431 2.99998 10.1615 3ZM8.96784 5.02393C8.69617 5.04612 8.59546 5.0838 8.54601 5.109C8.35785 5.20487 8.20487 5.35785 8.109 5.54601C8.0838 5.59546 8.04612 5.69617 8.02393 5.96784C8.00078 6.25117 8 6.62345 8 7.2V17.7732L9.23644 16.6741C9.5897 16.3601 9.89647 16.0874 10.1687 15.8807C10.4577 15.6613 10.7673 15.4689 11.1403 15.3573C11.7011 15.1895 12.2989 15.1895 12.8597 15.3573C13.2327 15.4689 13.5423 15.6613 13.8313 15.8807C14.1035 16.0874 14.4103 16.3601 14.7636 16.6741L16 17.7732V7.2C16 6.62345 15.9992 6.25117 15.9761 5.96784C15.9539 5.69617 15.9162 5.59546 15.891 5.54601C15.7951 5.35785 15.6422 5.20487 15.454 5.109C15.4045 5.0838 15.3038 5.04612 15.0322 5.02393C14.7488 5.00078 14.3766 5 13.8 5H10.2C9.62345 5 9.25117 5.00078 8.96784 5.02393Z" fill="#7369AB"/>
</svg>
