<svg width="24" height="24" viewBox="0 0 24 24" fill="none" xmlns="http://www.w3.org/2000/svg">
<path fill-rule="evenodd" clip-rule="evenodd" d="M12 4C7.58172 4 4 7.58172 4 12C4 16.4183 7.58172 20 12 20C16.4183 20 20 16.4183 20 12C20 7.58172 16.4183 4 12 4ZM2 12C2 6.47715 6.47715 2 12 2C17.5228 2 22 6.47715 22 12C22 17.5228 17.5228 22 12 22C6.47715 22 2 17.5228 2 12Z" fill="#7369AB"/>
<path fill-rule="evenodd" clip-rule="evenodd" d="M8 12C8 11.4477 8.44772 11 9 11H14.25C15.7688 11 17 12.2312 17 13.75C17 15.2688 15.7688 16.5001 14.25 16.5001H9C8.44772 16.5001 8 16.0524 8 15.5001V12ZM10 13V14.5001H14.25C14.6642 14.5001 15 14.1643 15 13.75C15 13.3358 14.6642 13 14.25 13H10Z" fill="#7369AB"/>
<path fill-rule="evenodd" clip-rule="evenodd" d="M8 8.5C8 7.94772 8.44772 7.5 9 7.5H14.25C15.7688 7.5 17 8.73123 17 10.25C17 11.7688 15.7688 13.0001 14.25 13.0001H9C8.44772 13.0001 8 12.5524 8 12.0001V8.5ZM10 9.5V11.0001H14.25C14.6642 11.0001 15 10.6643 15 10.25C15 9.8358 14.6642 9.5 14.25 9.5H10Z" fill="#7369AB"/>
<path fill-rule="evenodd" clip-rule="evenodd" d="M11 6C11.5523 6 12 6.44772 12 7L12 8C12 8.55228 11.5523 9 11 9C10.4477 9 10 8.55228 10 8L10 7C10 6.44772 10.4477 6 11 6Z" fill="#7369AB"/>
<path fill-rule="evenodd" clip-rule="evenodd" d="M11 15C11.5523 15 12 15.4477 12 16L12 17C12 17.5523 11.5523 18 11 18C10.4477 18 10 17.5523 10 17L10 16C10 15.4477 10.4477 15 11 15Z" fill="#7369AB"/>
<path fill-rule="evenodd" clip-rule="evenodd" d="M14 6C14.5523 6 15 6.44772 15 7L15 8C15 8.55228 14.5523 9 14 9C13.4477 9 13 8.55228 13 8L13 7C13 6.44772 13.4477 6 14 6Z" fill="#7369AB"/>
<path fill-rule="evenodd" clip-rule="evenodd" d="M14 15C14.5523 15 15 15.4477 15 16L15 17C15 17.5523 14.5523 18 14 18C13.4477 18 13 17.5523 13 17L13 16C13 15.4477 13.4477 15 14 15Z" fill="#7369AB"/>
</svg>
