<svg width="24" height="24" viewBox="0 0 24 24" fill="none" xmlns="http://www.w3.org/2000/svg">
<path fill-rule="evenodd" clip-rule="evenodd" d="M2.74353 6.64931C3.01992 6.17116 3.6316 6.00761 4.10975 6.284L12.0004 10.8451L19.8875 6.29146C20.3658 6.01531 20.9774 6.17919 21.2535 6.65748C21.5297 7.13577 21.3658 7.74736 20.8875 8.0235L12.5001 12.866C12.1905 13.0448 11.8091 13.0447 11.4996 12.8658L3.10885 8.01553C2.6307 7.73914 2.46714 7.12746 2.74353 6.64931Z" fill="#7369AB"/>
<path fill-rule="evenodd" clip-rule="evenodd" d="M12 11C12.5523 11 13 11.4477 13 12V21C13 21.5523 12.5523 22 12 22C11.4477 22 11 21.5523 11 21V12C11 11.4477 11.4477 11 12 11Z" fill="#7369AB"/>
<path fill-rule="evenodd" clip-rule="evenodd" d="M10.5001 1.71131C11.4283 1.17541 12.5719 1.17541 13.5001 1.71131L20.1604 5.55661C21.0886 6.09251 21.6604 7.08289 21.6604 8.15469V15.8453C21.6604 16.9171 21.0886 17.9075 20.1604 18.4434L13.5001 22.2887C12.5719 22.8246 11.4283 22.8246 10.5001 22.2887L3.83984 18.4434C2.91164 17.9075 2.33984 16.9171 2.33984 15.8453V8.15469C2.33984 7.08289 2.91164 6.09251 3.83984 5.55661L10.5001 1.71131ZM12.5001 3.44336C12.1907 3.26473 11.8095 3.26473 11.5001 3.44336L4.83984 7.28866C4.53044 7.46729 4.33984 7.79742 4.33984 8.15469V15.8453C4.33984 16.2026 4.53044 16.5327 4.83984 16.7113L11.5001 20.5566C11.8095 20.7352 12.1907 20.7352 12.5001 20.5566L19.1604 16.7113C19.4698 16.5327 19.6604 16.2026 19.6604 15.8453V8.15469C19.6604 7.79742 19.4698 7.46729 19.1604 7.28866L12.5001 3.44336Z" fill="#7369AB"/>
<path fill-rule="evenodd" clip-rule="evenodd" d="M7.64241 3.98553C7.92656 3.51195 8.54082 3.35839 9.0144 3.64254L16.5144 8.14254C16.988 8.42668 17.1415 9.04094 16.8574 9.51452C16.5733 9.98811 15.959 10.1417 15.4854 9.85752L7.98541 5.35752C7.51183 5.07337 7.35827 4.45911 7.64241 3.98553Z" fill="#7369AB"/>
</svg>
