<svg width="24" height="24" viewBox="0 0 24 24" fill="none" xmlns="http://www.w3.org/2000/svg">
<path fill-rule="evenodd" clip-rule="evenodd" d="M2 6C2 4.34315 3.34315 3 5 3H19C20.6569 3 22 4.34315 22 6V12C22 12.5523 21.5523 13 21 13C20.4477 13 20 12.5523 20 12V11H4V18C4 18.5523 4.44772 19 5 19H11C11.5523 19 12 19.4477 12 20C12 20.5523 11.5523 21 11 21H5C3.34315 21 2 19.6569 2 18V6ZM4 9H20V6C20 5.44772 19.5523 5 19 5H5C4.44772 5 4 5.44772 4 6V9Z" fill="#7369AB"/>
<path d="M7 7C7 7.55228 6.55228 8 6 8C5.44772 8 5 7.55228 5 7C5 6.44772 5.44772 6 6 6C6.55228 6 7 6.44772 7 7Z" fill="#7369AB"/>
<path d="M10 7C10 7.55228 9.55228 8 9 8C8.44772 8 8 7.55228 8 7C8 6.44772 8.44772 6 9 6C9.55228 6 10 6.44772 10 7Z" fill="#7369AB"/>
<path fill-rule="evenodd" clip-rule="evenodd" d="M17.9999 13C18.5522 13 18.9999 13.4477 18.9999 14V14.9401C19.2554 15.0414 19.4917 15.1801 19.7023 15.3492L20.496 14.8862C20.9731 14.6079 21.5854 14.7691 21.8637 15.2461C22.142 15.7232 21.9808 16.3355 21.5038 16.6138L20.7005 17.0824C20.7212 17.2188 20.732 17.3583 20.732 17.5C20.732 17.6429 20.7216 17.7825 20.7015 17.9182L21.5038 18.3862C21.9808 18.6645 22.142 19.2768 21.8637 19.7539C21.5854 20.2309 20.9731 20.3921 20.496 20.1138L19.6864 19.6415C19.4751 19.8029 19.243 19.9313 18.9999 20.0257V21C18.9999 21.5523 18.5522 22 17.9999 22C17.4476 22 16.9999 21.5523 16.9999 21V20.0475C16.752 19.9544 16.5143 19.8229 16.2971 19.651L15.5038 20.1138C15.0267 20.3921 14.4144 20.2309 14.1361 19.7539C13.8579 19.2768 14.019 18.6645 14.496 18.3862L15.2993 17.9177C15.2786 17.7813 15.2679 17.6417 15.2679 17.5C15.2679 17.3583 15.2786 17.2187 15.2993 17.0823L14.496 16.6138C14.019 16.3355 13.8579 15.7232 14.1361 15.2461C14.4144 14.7691 15.0267 14.6079 15.5038 14.8862L16.2975 15.3492C16.5081 15.1801 16.7445 15.0414 16.9999 14.9401V14C16.9999 13.4477 17.4476 13 17.9999 13ZM17.9999 16.75C17.7353 16.75 17.4979 16.8941 17.3674 17.1218C17.3046 17.2316 17.2679 17.3597 17.2679 17.5C17.2679 17.6403 17.3046 17.7684 17.3674 17.8782C17.5069 18.1217 17.7265 18.2263 17.9796 18.2211C18.2689 18.2152 18.5215 18.0651 18.6401 17.8652C18.6926 17.7765 18.732 17.6592 18.732 17.5C18.732 17.3597 18.6953 17.2316 18.6324 17.1218C18.502 16.8941 18.2645 16.75 17.9999 16.75Z" fill="#7369AB"/>
</svg>
