<svg width="24" height="24" viewBox="0 0 24 24" fill="none" xmlns="http://www.w3.org/2000/svg">
<path fill-rule="evenodd" clip-rule="evenodd" d="M2 6C2 4.34315 3.34315 3 5 3H19C20.6569 3 22 4.34315 22 6V13C22 13.5523 21.5523 14 21 14C20.4477 14 20 13.5523 20 13V11H4V18C4 18.5523 4.44772 19 5 19H9C9.55228 19 10 19.4477 10 20C10 20.5523 9.55228 21 9 21H5C3.34315 21 2 19.6569 2 18V6ZM4 9H20V6C20 5.44772 19.5523 5 19 5H5C4.44772 5 4 5.44772 4 6V9Z" fill="#7369AB"/>
<path fill-rule="evenodd" clip-rule="evenodd" d="M15.7071 15.2929C16.0976 15.6834 16.0976 16.3166 15.7071 16.7071L14.4142 18L15.7071 19.2929C16.0976 19.6834 16.0976 20.3166 15.7071 20.7071C15.3166 21.0976 14.6834 21.0976 14.2929 20.7071L12.2929 18.7071C11.9024 18.3166 11.9024 17.6834 12.2929 17.2929L14.2929 15.2929C14.6834 14.9024 15.3166 14.9024 15.7071 15.2929Z" fill="#7369AB"/>
<path fill-rule="evenodd" clip-rule="evenodd" d="M18.2929 15.2929C17.9024 15.6834 17.9024 16.3166 18.2929 16.7071L19.5858 18L18.2929 19.2929C17.9024 19.6834 17.9024 20.3166 18.2929 20.7071C18.6834 21.0976 19.3166 21.0976 19.7071 20.7071L21.7071 18.7071C22.0976 18.3166 22.0976 17.6834 21.7071 17.2929L19.7071 15.2929C19.3166 14.9024 18.6834 14.9024 18.2929 15.2929Z" fill="#7369AB"/>
<path d="M7 7C7 7.55228 6.55228 8 6 8C5.44772 8 5 7.55228 5 7C5 6.44772 5.44772 6 6 6C6.55228 6 7 6.44772 7 7Z" fill="#7369AB"/>
<path d="M10 7C10 7.55228 9.55228 8 9 8C8.44772 8 8 7.55228 8 7C8 6.44772 8.44772 6 9 6C9.55228 6 10 6.44772 10 7Z" fill="#7369AB"/>
</svg>
