<svg width="24" height="24" viewBox="0 0 24 24" fill="none" xmlns="http://www.w3.org/2000/svg">
<path fill-rule="evenodd" clip-rule="evenodd" d="M17.4622 3.9381C19.0948 3.28505 20.7149 4.90521 20.0619 6.53784L20.0501 6.56728C19.9293 6.86938 19.7601 7.14981 19.5492 7.39758L14.0432 13.8665C14.0259 13.8868 14.0077 13.9065 13.9888 13.9254L10.7071 17.2071C10.3166 17.5976 9.68343 17.5976 9.2929 17.2071C8.90238 16.8166 8.90238 16.1834 9.2929 15.7929L12.2411 12.8447C12.1618 12.5078 11.9744 12.2825 11.747 12.1132C11.5509 11.9672 11.3235 11.8654 11.1136 11.8006L8.70711 14.2071C8.31658 14.5976 7.68342 14.5976 7.29289 14.2071C6.90237 13.8166 6.90237 13.1834 7.29289 12.7929L10.0746 10.0112C10.0935 9.9923 10.1132 9.97415 10.1335 9.95681L16.6024 4.45079C16.8502 4.2399 17.1306 4.07072 17.4327 3.94988L17.4622 3.9381ZM12.737 10.3672C12.8059 10.4118 12.8742 10.459 12.9413 10.509C13.2056 10.7057 13.4522 10.9457 13.66 11.231L18.0262 6.10127C18.0965 6.01868 18.1529 5.9252 18.1932 5.8245L18.2049 5.79506L18.1755 5.80683C18.0748 5.84711 17.9813 5.90351 17.8987 5.9738L12.737 10.3672Z" fill="#7369AB"/>
<path fill-rule="evenodd" clip-rule="evenodd" d="M3.50214 17.4706C3.07065 15.1459 4.85492 13 7.21935 13C9.30737 13 11 14.6927 11 16.7807V17C11 19.2091 9.20918 21 7.00004 21H3.92631C2.66693 21 2.13951 19.3913 3.15443 18.6457L3.65234 18.2799L3.50214 17.4706ZM7.21935 15C6.10571 15 5.26533 16.0107 5.46855 17.1057L5.68987 18.2981C5.73429 18.5374 5.71391 18.7787 5.63742 19H7.00004C8.10461 19 9.00004 18.1046 9.00004 17V16.7807C9.00004 15.7972 8.2028 15 7.21935 15Z" fill="#7369AB"/>
</svg>
