<svg width="24" height="24" viewBox="0 0 24 24" fill="none" xmlns="http://www.w3.org/2000/svg">
<path fill-rule="evenodd" clip-rule="evenodd" d="M3 17C3 14.7909 4.79086 13 7 13C9.20914 13 11 14.7909 11 17C11 19.2091 9.20914 21 7 21H4.54545C3.69192 21 3 20.3081 3 19.4545V17ZM7 15C5.89543 15 5 15.8954 5 17V19H7C8.10457 19 9 18.1046 9 17C9 15.8954 8.10457 15 7 15Z" fill="#7369AB"/>
<path fill-rule="evenodd" clip-rule="evenodd" d="M14.8465 4.65208C15.9963 3.37451 17.9823 3.32228 19.1977 4.53765L19.4624 4.8023C20.6777 6.01767 20.6255 8.00368 19.3479 9.1535L10.9148 16.7433C10.5043 17.1128 9.87202 17.0795 9.50256 16.669C9.13311 16.2585 9.16638 15.6262 9.57689 15.2567L18.01 7.66691C18.4359 7.28364 18.4533 6.62163 18.0481 6.21651L17.7835 5.95187C17.3784 5.54674 16.7164 5.56415 16.3331 5.99001L8.7433 14.4231C8.37384 14.8336 7.74155 14.8669 7.33104 14.4974C6.92053 14.128 6.88726 13.4957 7.25671 13.0852L14.8465 4.65208Z" fill="#7369AB"/>
</svg>
