<svg width="24" height="24" viewBox="0 0 24 24" fill="none" xmlns="http://www.w3.org/2000/svg">
<path fill-rule="evenodd" clip-rule="evenodd" d="M8 2C8.55228 2 9 2.44772 9 3V4H15V3C15 2.44772 15.4477 2 16 2C16.5523 2 17 2.44772 17 3V4H18C19.6569 4 21 5.34315 21 7V10.75C21 11.3023 20.5523 11.75 20 11.75C19.534 11.75 19.1425 11.4313 19.0315 11H5V19C5 19.5523 5.44772 20 6 20H12C12.5523 20 13 20.4477 13 21C13 21.5523 12.5523 22 12 22H6C4.34315 22 3 20.6569 3 19V7C3 5.34315 4.34315 4 6 4H7V3C7 2.44772 7.44772 2 8 2ZM7 6H6C5.44772 6 5 6.44772 5 7V9H19V7C19 6.44772 18.5523 6 18 6H17V7C17 7.55228 16.5523 8 16 8C15.4477 8 15 7.55228 15 7V6H9V7C9 7.55228 8.55228 8 8 8C7.44772 8 7 7.55228 7 7V6Z" fill="#7369AB"/>
<path fill-rule="evenodd" clip-rule="evenodd" d="M17.5355 13C18.0878 13 18.5355 13.4477 18.5355 14L18.5355 16.5355L21.0711 16.5355C21.6233 16.5355 22.0711 16.9832 22.0711 17.5355C22.0711 18.0878 21.6233 18.5355 21.0711 18.5355L18.5355 18.5355V21.0711C18.5355 21.6234 18.0878 22.0711 17.5355 22.0711C16.9832 22.0711 16.5355 21.6234 16.5355 21.0711V18.5355L14 18.5355C13.4477 18.5355 13 18.0878 13 17.5355C13 16.9832 13.4477 16.5355 14 16.5355L16.5355 16.5355L16.5355 14C16.5355 13.4477 16.9832 13 17.5355 13Z" fill="#7369AB"/>
</svg>
