<svg width="24" height="24" viewBox="0 0 24 24" fill="none" xmlns="http://www.w3.org/2000/svg">
<path fill-rule="evenodd" clip-rule="evenodd" d="M8 2C8.55228 2 9 2.44772 9 3V4H15V3C15 2.44772 15.4477 2 16 2C16.5523 2 17 2.44772 17 3V4H18C19.6569 4 21 5.34315 21 7V11.75C21 12.3023 20.5523 12.75 20 12.75C19.4477 12.75 19 12.3023 19 11.75V11H5V19C5 19.5523 5.44772 20 6 20H11C11.5523 20 12 20.4477 12 21C12 21.5523 11.5523 22 11 22H6C4.34315 22 3 20.6569 3 19V7C3 5.34315 4.34315 4 6 4H7V3C7 2.44772 7.44772 2 8 2ZM7 6H6C5.44772 6 5 6.44772 5 7V9H19V7C19 6.44772 18.5523 6 18 6H17V7C17 7.55228 16.5523 8 16 8C15.4477 8 15 7.55228 15 7V6H9V7C9 7.55228 8.55228 8 8 8C7.44772 8 7 7.55228 7 7V6Z" fill="#7369AB"/>
<path d="M16.723 13.666C16.8255 13.4196 17.1745 13.4196 17.277 13.666L18.2522 16.0105C18.2954 16.1144 18.393 16.1854 18.5052 16.1944L21.0363 16.3973C21.3023 16.4186 21.4102 16.7506 21.2075 16.9242L19.279 18.5761C19.1936 18.6493 19.1563 18.7641 19.1824 18.8735L19.7716 21.3435C19.8335 21.603 19.5511 21.8082 19.3234 21.6691L17.1564 20.3455C17.0604 20.2869 16.9396 20.2869 16.8436 20.3455L14.6766 21.6691C14.4489 21.8082 14.1665 21.603 14.2284 21.3435L14.8176 18.8735C14.8437 18.7641 14.8064 18.6493 14.721 18.5761L12.7925 16.9242C12.5899 16.7506 12.6977 16.4186 12.9637 16.3973L15.4948 16.1944C15.607 16.1854 15.7047 16.1144 15.7479 16.0105L16.723 13.666Z" fill="#7369AB"/>
</svg>
