<svg width="24" height="24" viewBox="0 0 24 24" fill="none" xmlns="http://www.w3.org/2000/svg">
<path fill-rule="evenodd" clip-rule="evenodd" d="M8 2C8.55228 2 9 2.44772 9 3V4H15V3C15 2.44772 15.4477 2 16 2C16.5523 2 17 2.44772 17 3V4H18C19.6569 4 21 5.34315 21 7V10C21 10.5523 20.5523 11 20 11H5V19C5 19.5523 5.44772 20 6 20H11C11.5523 20 12 20.4477 12 21C12 21.5523 11.5523 22 11 22H6C4.34315 22 3 20.6569 3 19V7C3 5.34315 4.34315 4 6 4H7V3C7 2.44772 7.44772 2 8 2ZM7 6H6C5.44772 6 5 6.44772 5 7V9H19V7C19 6.44772 18.5523 6 18 6H17V7C17 7.55228 16.5523 8 16 8C15.4477 8 15 7.55228 15 7V6H9V7C9 7.55228 8.55228 8 8 8C7.44772 8 7 7.55228 7 7V6Z" fill="#7369AB"/>
<path fill-rule="evenodd" clip-rule="evenodd" d="M17.4641 12C18.0164 12 18.4641 12.4477 18.4641 13V14.1708C18.8154 14.295 19.1364 14.4827 19.4135 14.7198L20.4282 14.134C20.9065 13.8578 21.5181 14.0217 21.7943 14.5C22.0704 14.9783 21.9065 15.5899 21.4282 15.866L20.414 16.4516C20.4469 16.6297 20.4641 16.813 20.4641 17C20.4641 17.1889 20.4475 17.3723 20.4155 17.5492L21.4282 18.134C21.9065 18.4101 22.0704 19.0217 21.7943 19.5C21.5181 19.9783 20.9065 20.1422 20.4282 19.866L19.3977 19.271C19.1167 19.4997 18.7986 19.6731 18.4641 19.7897V21C18.4641 21.5523 18.0164 22 17.4641 22C16.9119 22 16.4641 21.5523 16.4641 21V19.8131C16.1255 19.7005 15.8016 19.5246 15.5137 19.2808L14.5 19.866C14.0218 20.1422 13.4102 19.9783 13.134 19.5C12.8579 19.0217 13.0218 18.4101 13.5 18.134L14.5143 17.5484C14.4814 17.3703 14.4641 17.187 14.4641 17C14.4641 16.813 14.4814 16.6297 14.5143 16.4516L13.5 15.866C13.0218 15.5899 12.8579 14.9783 13.134 14.5C13.4102 14.0217 14.0218 13.8578 14.5 14.134L15.5147 14.7198C15.7918 14.4827 16.1129 14.295 16.4641 14.1708V13C16.4641 12.4477 16.9119 12 17.4641 12ZM17.4641 16C17.0953 16 16.7718 16.1992 16.5974 16.5006C16.5128 16.6467 16.4641 16.8162 16.4641 17C16.4641 17.1838 16.5128 17.3533 16.5974 17.4994C16.7873 17.8276 17.0966 17.9739 17.444 17.967C17.8302 17.9592 18.1737 17.7617 18.3387 17.4863C18.4125 17.3631 18.4641 17.2052 18.4641 17C18.4641 16.8162 18.4154 16.6467 18.3309 16.5006C18.1565 16.1992 17.833 16 17.4641 16Z" fill="#7369AB"/>
</svg>
