<svg width="24" height="24" viewBox="0 0 24 24" fill="none" xmlns="http://www.w3.org/2000/svg">
<path fill-rule="evenodd" clip-rule="evenodd" d="M2.29289 2.29289C2.68342 1.90237 3.31658 1.90237 3.70711 2.29289L21.7071 20.2929C22.0976 20.6834 22.0976 21.3166 21.7071 21.7071C21.3166 22.0976 20.6834 22.0976 20.2929 21.7071L2.29289 3.70711C1.90237 3.31658 1.90237 2.68342 2.29289 2.29289Z" fill="#7369AB"/>
<path fill-rule="evenodd" clip-rule="evenodd" d="M5.19501 4.10923C3.92908 4.46099 3 5.622 3 7V10V19C3 20.6569 4.34315 22 6 22H18C19.378 22 20.539 21.0709 20.8908 19.805L19 17.9142V19C19 19.5523 18.5523 20 18 20H6C5.44772 20 5 19.5523 5 19V11H12.0858L10.0858 9H5V7C5 6.44772 5.44772 6 6 6H7V7C7 7.55228 7.44772 8 8 8C8.29797 8 8.5655 7.86968 8.74871 7.66292L5.19501 4.10923ZM12.9142 9H19V7C19 6.44772 18.5523 6 18 6H17V7C17 7.55228 16.5523 8 16 8C15.4477 8 15 7.55228 15 7V6H9.91421L7 3.08579V3C7 2.44772 7.44772 2 8 2C8.55228 2 9 2.44772 9 3V4H15V3C15 2.44772 15.4477 2 16 2C16.5523 2 17 2.44772 17 3V4H18C19.6569 4 21 5.34315 21 7V10V17.0858L19 15.0858V11H14.9142L12.9142 9Z" fill="#7369AB"/>
</svg>
