<svg width="24" height="24" viewBox="0 0 24 24" fill="none" xmlns="http://www.w3.org/2000/svg">
<path fill-rule="evenodd" clip-rule="evenodd" d="M8 2C8.55228 2 9 2.44772 9 3V4H15V3C15 2.44772 15.4477 2 16 2C16.5523 2 17 2.44772 17 3V4H18C19.6569 4 21 5.34315 21 7V11.75C21 12.3023 20.5523 12.75 20 12.75C19.4477 12.75 19 12.3023 19 11.75V11H5V19C5 19.5523 5.44772 20 6 20H11C11.5523 20 12 20.4477 12 21C12 21.5523 11.5523 22 11 22H6C4.34315 22 3 20.6569 3 19V7C3 5.34315 4.34315 4 6 4H7V3C7 2.44772 7.44772 2 8 2ZM7 6H6C5.44772 6 5 6.44772 5 7V9H19V7C19 6.44772 18.5523 6 18 6H17V7C17 7.55228 16.5523 8 16 8C15.4477 8 15 7.55228 15 7V6H9V7C9 7.55228 8.55228 8 8 8C7.44772 8 7 7.55228 7 7V6Z" fill="#7369AB"/>
<path fill-rule="evenodd" clip-rule="evenodd" d="M21.7071 15.2929C22.0976 15.6834 22.0976 16.3166 21.7071 16.7071L16.7071 21.7071C16.3166 22.0976 15.6834 22.0976 15.2929 21.7071L13.2929 19.7071C12.9024 19.3166 12.9024 18.6834 13.2929 18.2929C13.6834 17.9024 14.3166 17.9024 14.7071 18.2929L16 19.5858L20.2929 15.2929C20.6834 14.9024 21.3166 14.9024 21.7071 15.2929Z" fill="#7369AB"/>
</svg>
