<svg width="24" height="24" viewBox="0 0 24 24" fill="none" xmlns="http://www.w3.org/2000/svg">
<path fill-rule="evenodd" clip-rule="evenodd" d="M8 2C8.55228 2 9 2.44772 9 3V4H15V3C15 2.44772 15.4477 2 16 2C16.5523 2 17 2.44772 17 3V4H18C19.6569 4 21 5.34315 21 7V11.75C21 12.3023 20.5523 12.75 20 12.75C19.4477 12.75 19 12.3023 19 11.75V11H5V19C5 19.5523 5.44772 20 6 20H12C12.5523 20 13 20.4477 13 21C13 21.5523 12.5523 22 12 22H6C4.34315 22 3 20.6569 3 19V7C3 5.34315 4.34315 4 6 4H7V3C7 2.44772 7.44772 2 8 2ZM7 6H6C5.44772 6 5 6.44772 5 7V9H19V7C19 6.44772 18.5523 6 18 6H17V7C17 7.55228 16.5523 8 16 8C15.4477 8 15 7.55228 15 7V6H9V7C9 7.55228 8.55228 8 8 8C7.44772 8 7 7.55228 7 7V6Z" fill="#7369AB"/>
<path fill-rule="evenodd" clip-rule="evenodd" d="M18 22C17.4477 22 17 21.5523 17 21L17 17.4142L16.2071 18.2071C15.8166 18.5976 15.1834 18.5976 14.7929 18.2071C14.4024 17.8166 14.4024 17.1834 14.7929 16.7929L17.2929 14.2929C17.6834 13.9024 18.3166 13.9024 18.7071 14.2929L21.2071 16.7929C21.5976 17.1834 21.5976 17.8166 21.2071 18.2071C20.8166 18.5976 20.1834 18.5976 19.7929 18.2071L19 17.4142L19 21C19 21.5523 18.5523 22 18 22Z" fill="#7369AB"/>
</svg>
