<svg width="24" height="24" viewBox="0 0 24 24" fill="none" xmlns="http://www.w3.org/2000/svg">
<path fill-rule="evenodd" clip-rule="evenodd" d="M8 2C8.55228 2 9 2.44772 9 3V4H15V3C15 2.44772 15.4477 2 16 2C16.5523 2 17 2.44772 17 3V4H18C19.6569 4 21 5.34315 21 7V11.75C21 12.3023 20.5523 12.75 20 12.75C19.4477 12.75 19 12.3023 19 11.75V11H5V19C5 19.5523 5.44772 20 6 20H12C12.5523 20 13 20.4477 13 21C13 21.5523 12.5523 22 12 22H6C4.34315 22 3 20.6569 3 19V7C3 5.34315 4.34315 4 6 4H7V3C7 2.44772 7.44772 2 8 2ZM7 6H6C5.44772 6 5 6.44772 5 7V9H19V7C19 6.44772 18.5523 6 18 6H17V7C17 7.55228 16.5523 8 16 8C15.4477 8 15 7.55228 15 7V6H9V7C9 7.55228 8.55228 8 8 8C7.44772 8 7 7.55228 7 7V6Z" fill="#7369AB"/>
<path fill-rule="evenodd" clip-rule="evenodd" d="M16.5862 15.172L19.828 18.4138C19.9391 18.1308 20 17.8227 20 17.5C20 16.1193 18.8807 15 17.5 15C17.1773 15 16.8692 15.0609 16.5862 15.172ZM18.4138 19.828L15.172 16.5862C15.0609 16.8692 15 17.1773 15 17.5C15 18.8807 16.1193 20 17.5 20C17.8227 20 18.1308 19.9391 18.4138 19.828ZM14.318 14.318C15.1313 13.5048 16.2576 13 17.5 13C19.9853 13 22 15.0147 22 17.5C22 18.7424 21.4952 19.8687 20.682 20.682C19.8687 21.4952 18.7424 22 17.5 22C15.0147 22 13 19.9853 13 17.5C13 16.2576 13.5048 15.1313 14.318 14.318Z" fill="#7369AB"/>
</svg>
