<svg width="24" height="24" viewBox="0 0 24 24" fill="none" xmlns="http://www.w3.org/2000/svg">
<path fill-rule="evenodd" clip-rule="evenodd" d="M12 16C12 14.8954 12.8954 14 14 14H20C21.1046 14 22 14.8954 22 16V20C22 21.1046 21.1046 22 20 22H14C12.8954 22 12 21.1046 12 20V16ZM20 16H14V20H20V16Z" fill="#7369AB"/>
<path fill-rule="evenodd" clip-rule="evenodd" d="M14 13C14 11.3431 15.3431 10 17 10C18.6569 10 20 11.3431 20 13V16H14V13ZM17 12C16.4477 12 16 12.4477 16 13V14H18V13C18 12.4477 17.5523 12 17 12Z" fill="#7369AB"/>
<path fill-rule="evenodd" clip-rule="evenodd" d="M9 3C9 2.44772 8.55228 2 8 2C7.44772 2 7 2.44772 7 3V4H6C4.34315 4 3 5.34315 3 7V10V19C3 20.6569 4.34315 22 6 22H9C9.55228 22 10 21.5523 10 21C10 20.4477 9.55228 20 9 20H6C5.44772 20 5 19.5523 5 19V11H12.9678C13.3941 10.1421 14.0862 9.43949 14.9364 9H5V7C5 6.44772 5.44772 6 6 6H7V7C7 7.55228 7.44772 8 8 8C8.55228 8 9 7.55228 9 7V6H15V7C15 7.55228 15.4477 8 16 8C16.5523 8 17 7.55228 17 7V6H18C18.5523 6 19 6.44772 19 7V8.96776C19.7399 9.33547 20.3643 9.90084 20.804 10.5948C20.9271 10.4286 21 10.2228 21 10V7C21 5.34315 19.6569 4 18 4H17V3C17 2.44772 16.5523 2 16 2C15.4477 2 15 2.44772 15 3V4H9V3Z" fill="#7369AB"/>
</svg>
