<svg width="24" height="24" viewBox="0 0 24 24" fill="none" xmlns="http://www.w3.org/2000/svg">
<path fill-rule="evenodd" clip-rule="evenodd" d="M8 2C8.55228 2 9 2.44772 9 3V4H15V3C15 2.44772 15.4477 2 16 2C16.5523 2 17 2.44772 17 3V4H18C19.6569 4 21 5.34315 21 7V19C21 20.6569 19.6569 22 18 22H6C4.34315 22 3 20.6569 3 19V7C3 5.34315 4.34315 4 6 4H7V3C7 2.44772 7.44772 2 8 2ZM7 6H6C5.44772 6 5 6.44772 5 7V9H19V7C19 6.44772 18.5523 6 18 6H17V7C17 7.55228 16.5523 8 16 8C15.4477 8 15 7.55228 15 7V6H9V7C9 7.55228 8.55228 8 8 8C7.44772 8 7 7.55228 7 7V6ZM19 11H5V19C5 19.5523 5.44772 20 6 20H18C18.5523 20 19 19.5523 19 19V11Z" fill="#7369AB"/>
<path d="M13 15C13 14.4477 13.4477 14 14 14H17C17.5523 14 18 14.4477 18 15V18C18 18.5523 17.5523 19 17 19H14C13.4477 19 13 18.5523 13 18V15Z" fill="#7369AB"/>
</svg>
