<svg width="24" height="13" viewBox="0 0 24 13" fill="none" xmlns="http://www.w3.org/2000/svg">
<g id="Group 31">
<path id="Vector (Stroke)" fill-rule="evenodd" clip-rule="evenodd" d="M0 1.04348C0 0.467181 0.467181 0 1.04348 0H22.9565C23.5328 0 24 0.467181 24 1.04348V4.45565C24 5.03195 23.5328 5.49913 22.9565 5.49913H1.04348C0.467181 5.49913 0 5.03195 0 4.45565V1.04348ZM2.08696 2.08696V3.41217H21.913V2.08696H2.08696Z" fill="#7369AB"/>
<path id="Vector (Stroke)_2" fill-rule="evenodd" clip-rule="evenodd" d="M0.678284 4.45565C0.678284 3.87935 1.14546 3.41217 1.72176 3.41217H22.2678C22.8441 3.41217 23.3113 3.87935 23.3113 4.45565V11.4156C23.3113 11.9919 22.8441 12.4591 22.2678 12.4591H1.72176C1.14546 12.4591 0.678284 11.9919 0.678284 11.4156V4.45565ZM2.76524 5.49913V10.3722H21.2244V5.49913H2.76524Z" fill="#7369AB"/>
</g>
</svg>
