<svg width="24" height="22" viewBox="0 0 24 22" fill="none" xmlns="http://www.w3.org/2000/svg">
<g id="Group 30">
<path id="Vector (Stroke)" fill-rule="evenodd" clip-rule="evenodd" d="M11.4057 14.4472C11.4057 14.4472 11.4056 14.4481 11.4054 14.4497L11.4057 14.4472ZM11.3341 14.848C11.1826 15.2374 10.8041 15.5133 10.3611 15.5133C9.78469 15.5133 9.31738 15.046 9.31738 14.4695C9.31738 14.1431 9.3816 13.7573 9.62973 13.4171C9.88827 13.0626 10.2394 12.9029 10.5231 12.8313C10.7858 12.765 11.0496 12.7591 11.235 12.7594C11.3273 12.7596 11.4224 12.7618 11.5073 12.7638C11.5136 12.7639 11.5198 12.7641 11.526 12.7642C11.6198 12.7664 11.7054 12.7682 11.7911 12.7682H12.2086C12.2942 12.7682 12.3798 12.7664 12.4736 12.7642C12.4798 12.7641 12.486 12.7639 12.4923 12.7638C12.5773 12.7618 12.6724 12.7596 12.7647 12.7594C12.9501 12.7591 13.2138 12.765 13.4766 12.8313C13.7602 12.9029 14.1114 13.0626 14.3699 13.4171C14.618 13.7573 14.6823 14.1431 14.6823 14.4695C14.6823 15.046 14.215 15.5133 13.6385 15.5133C13.1956 15.5133 12.8171 15.2374 12.6655 14.848C12.6252 14.8488 12.5819 14.8498 12.5337 14.8509L12.5219 14.8512C12.429 14.8533 12.3212 14.8557 12.2086 14.8557H11.7911C11.6784 14.8557 11.5706 14.8533 11.4777 14.8512L11.4659 14.8509C11.4177 14.8498 11.3744 14.8488 11.3341 14.848ZM12.594 14.4472C12.594 14.4472 12.5941 14.448 12.5942 14.4496L12.594 14.4472Z" fill="#7369AB"/>
<path id="Vector (Stroke)_2" fill-rule="evenodd" clip-rule="evenodd" d="M11.9998 12.7681C12.5763 12.7681 13.0436 13.2354 13.0436 13.8118V17.3293C13.0436 17.9057 12.5763 18.373 11.9998 18.373C11.4234 18.373 10.9561 17.9057 10.9561 17.3293V13.8118C10.9561 13.2354 11.4234 12.7681 11.9998 12.7681Z" fill="#7369AB"/>
<path id="Vector (Stroke)_3" fill-rule="evenodd" clip-rule="evenodd" d="M8.21102 8.70801C8.78746 8.70801 9.25477 9.17531 9.25477 9.75176V10.7642C9.25477 11.3406 8.78746 11.8079 8.21102 11.8079C7.63457 11.8079 7.16727 11.3406 7.16727 10.7642V9.75176C7.16727 9.17531 7.63457 8.70801 8.21102 8.70801Z" fill="#7369AB"/>
<path id="Vector (Stroke)_4" fill-rule="evenodd" clip-rule="evenodd" d="M15.7887 8.70801C16.3651 8.70801 16.8324 9.17531 16.8324 9.75176V10.7642C16.8324 11.3406 16.3651 11.8079 15.7887 11.8079C15.2122 11.8079 14.7449 11.3406 14.7449 10.7642V9.75176C14.7449 9.17531 15.2122 8.70801 15.7887 8.70801Z" fill="#7369AB"/>
<path id="Vector (Stroke)_5" fill-rule="evenodd" clip-rule="evenodd" d="M21.9445 12.446C22.1282 12.9924 21.8342 13.5842 21.2878 13.7679L16.4448 15.3962C15.8984 15.5799 15.3066 15.2859 15.1229 14.7395C14.9392 14.1931 15.2332 13.6012 15.7796 13.4175L20.6226 11.7893C21.169 11.6056 21.7608 11.8996 21.9445 12.446Z" fill="#7369AB"/>
<path id="Vector (Stroke)_6" fill-rule="evenodd" clip-rule="evenodd" d="M21.2116 15.7328C21.3381 16.2952 20.9848 16.8537 20.4225 16.9803L16.3414 17.8988C15.779 18.0254 15.2205 17.6721 15.0939 17.1097C14.9674 16.5473 15.3207 15.9888 15.883 15.8622L19.9641 14.9437C20.5265 14.8172 21.085 15.1704 21.2116 15.7328Z" fill="#7369AB"/>
<path id="Vector (Stroke)_7" fill-rule="evenodd" clip-rule="evenodd" d="M2.04448 12.4466C2.22782 11.9001 2.81949 11.6057 3.366 11.789L8.21943 13.4173C8.76595 13.6006 9.06035 14.1923 8.87701 14.7388C8.69366 15.2853 8.10199 15.5797 7.55548 15.3964L2.70205 13.7681C2.15553 13.5848 1.86113 12.9931 2.04448 12.4466Z" fill="#7369AB"/>
<path id="Vector (Stroke)_8" fill-rule="evenodd" clip-rule="evenodd" d="M2.78812 15.7328C2.91469 15.1704 3.47319 14.8172 4.03557 14.9437L8.11663 15.8622C8.67901 15.9888 9.03231 16.5473 8.90573 17.1097C8.77916 17.6721 8.22066 18.0254 7.65828 17.8988L3.57722 16.9803C3.01484 16.8537 2.66155 16.2952 2.78812 15.7328Z" fill="#7369AB"/>
<path id="Vector (Stroke)_9" fill-rule="evenodd" clip-rule="evenodd" d="M4.49814 0.488063C5.75288 0.962985 7.10628 1.71442 8.13425 2.33438C8.44654 2.52272 8.63789 2.86041 8.63896 3.22511C8.64002 3.5898 8.45066 3.92861 8.13947 4.11878C7.21841 4.68165 6.43163 5.43922 5.83432 6.33834C5.23702 7.23746 4.84364 8.25637 4.68179 9.3236C4.61604 9.7571 4.28638 10.1033 3.85662 10.1902C3.42685 10.277 2.98861 10.086 2.75967 9.7121C2.42238 9.16119 1.48421 7.46747 0.800857 5.72716C0.461145 4.86201 0.161152 3.92778 0.0483057 3.0905C-0.0527638 2.3406 -0.0609352 1.2633 0.697104 0.562253L0.699431 0.560101L0.699435 0.560104C1.27239 0.0334488 2.0199 -0.0351427 2.60844 0.012593C3.21887 0.062105 3.87481 0.252136 4.49814 0.488063ZM2.12302 2.1037C2.10333 2.16546 2.05613 2.35933 2.1171 2.81167C2.19702 3.40465 2.42738 4.15803 2.74393 4.96419C2.94304 5.47128 3.16708 5.9765 3.38948 6.44521C3.59184 6.00838 3.8277 5.58641 4.09554 5.18322C4.54812 4.50197 5.08554 3.8841 5.69319 3.34368C5.04702 2.99737 4.37836 2.67475 3.75918 2.44039C3.21742 2.23534 2.77025 2.12007 2.43967 2.09326C2.26397 2.07901 2.16806 2.09275 2.12302 2.1037Z" fill="#7369AB"/>
<path id="Vector (Stroke)_10" fill-rule="evenodd" clip-rule="evenodd" d="M21.3856 0.0125786C21.9759 -0.0351706 22.7221 0.0339451 23.2964 0.556583L23.3026 0.562233L23.3026 0.562258C24.0601 1.26284 24.0526 2.33815 23.9523 3.08672C23.8404 3.92194 23.5423 4.85392 23.2064 5.71656C22.5297 7.45465 21.6052 9.14535 21.3166 9.67011C21.1014 10.0614 20.6611 10.2724 20.2212 10.1951C19.7814 10.1177 19.4395 9.76915 19.3707 9.32792C19.2037 8.25669 18.8033 7.23525 18.1979 6.33584C17.5925 5.43644 16.7969 4.68104 15.8673 4.12309C15.5537 3.93486 15.3615 3.59622 15.3607 3.23046C15.3599 2.86471 15.5506 2.52523 15.8634 2.33562C16.8872 1.71494 18.2384 0.963215 19.4937 0.488068C20.1174 0.251998 20.774 0.0620503 21.3856 0.0125786ZM18.3158 3.33589C18.9288 3.87366 19.4717 4.48978 19.9297 5.17019C20.1968 5.567 20.4327 5.98235 20.6361 6.41244C20.8514 5.95022 21.068 5.45529 21.2612 4.95914C21.575 4.15308 21.804 3.40136 21.8833 2.80959C21.9434 2.3606 21.897 2.16715 21.8772 2.10466C21.8313 2.09321 21.7335 2.07875 21.5539 2.09328C21.2219 2.12013 20.7741 2.23548 20.2327 2.4404C19.6182 2.67299 18.9556 2.99258 18.3158 3.33589Z" fill="#7369AB"/>
<path id="Vector (Stroke)_11" fill-rule="evenodd" clip-rule="evenodd" d="M11.9988 3.04026C10.1434 3.03835 8.35389 3.72763 6.9792 4.97365C5.60452 6.21966 4.74327 7.93307 4.56342 9.77968C4.56055 9.80915 4.55643 9.83848 4.55107 9.8676L4.25932 11.4514C4.25924 11.4518 4.25916 11.4523 4.25907 11.4527C4.03699 12.6772 4.03281 13.4295 4.184 14.1002C4.34003 14.7924 4.67999 15.4885 5.32271 16.5927C6.36175 18.3529 7.66448 19.3541 8.86859 19.3541H15.1311C16.3018 19.3541 17.605 18.3562 18.6469 16.601C19.3077 15.4718 19.654 14.7738 19.813 14.0857C19.9663 13.4222 19.9628 12.683 19.7405 11.4625L19.4484 9.8664C19.4431 9.83768 19.4391 9.80875 19.4362 9.77968C19.2564 7.93307 18.3951 6.21966 17.0205 4.97365C15.6458 3.72763 13.8563 3.03835 12.0009 3.04026H11.9988ZM11.9998 0.952763C9.62589 0.950589 7.33622 1.83264 5.57728 3.42696C3.82936 5.01127 2.73008 7.18607 2.4903 9.53185L2.20586 11.0759L2.20536 11.0787C1.958 12.4419 1.91005 13.5054 2.1476 14.5592C2.38025 15.5913 2.86965 16.5281 3.52019 17.6456L3.52322 17.6507C4.67581 19.6047 6.52453 21.4416 8.86859 21.4416H15.1311C17.4459 21.4416 19.2941 19.6014 20.4438 17.6634L20.447 17.6581C21.1107 16.5239 21.6094 15.5838 21.8469 14.5555C22.0903 13.502 22.0415 12.446 21.7942 11.0884L21.5094 9.53247C21.2698 7.18645 20.1705 5.01141 18.4224 3.42696C16.6634 1.83264 14.3738 0.950589 11.9998 0.952763Z" fill="#7369AB"/>
</g>
</svg>
