<svg width="24" height="24" viewBox="0 0 24 24" fill="none" xmlns="http://www.w3.org/2000/svg">
<path fill-rule="evenodd" clip-rule="evenodd" d="M5 9C4.44772 9 4 9.44772 4 10V14C4 14.5523 4.44772 15 5 15H7.75C8.30228 15 8.75 15.4477 8.75 16C8.75 16.5523 8.30228 17 7.75 17H5C3.34315 17 2 15.6569 2 14V10C2 8.34315 3.34315 7 5 7H5.75C6.30228 7 6.75 7.44772 6.75 8C6.75 8.55228 6.30228 9 5.75 9H5ZM12.25 8C12.25 7.44772 12.6977 7 13.25 7H16C17.6569 7 19 8.34315 19 10V14C19 15.6569 17.6569 17 16 17H15.25C14.6977 17 14.25 16.5523 14.25 16C14.25 15.4477 14.6977 15 15.25 15H16C16.5523 15 17 14.5523 17 14V10C17 9.44772 16.5523 9 16 9H13.25C12.6977 9 12.25 8.55228 12.25 8Z" fill="#7369AB"/>
<path fill-rule="evenodd" clip-rule="evenodd" d="M21 10C21.5523 10 22 10.4477 22 11V13C22 13.5523 21.5523 14 21 14C20.4477 14 20 13.5523 20 13V11C20 10.4477 20.4477 10 21 10Z" fill="#7369AB"/>
<path fill-rule="evenodd" clip-rule="evenodd" d="M10.4472 7.10558C10.9412 7.35257 11.1414 7.95324 10.8944 8.44722L9.61804 11H13C13.3466 11 13.6684 11.1795 13.8507 11.4743C14.0329 11.7691 14.0494 12.1372 13.8944 12.4472L11.8944 16.4472C11.6474 16.9412 11.0468 17.1414 10.5528 16.8944C10.0588 16.6474 9.85858 16.0468 10.1056 15.5528L11.382 13H8C7.65342 13 7.33156 12.8206 7.14935 12.5257C6.96714 12.2309 6.95058 11.8628 7.10557 11.5528L9.10557 7.55279C9.35256 7.05881 9.95324 6.85859 10.4472 7.10558Z" fill="#7369AB"/>
</svg>
