<svg width="24" height="24" viewBox="0 0 24 24" fill="none" xmlns="http://www.w3.org/2000/svg">
<path fill-rule="evenodd" clip-rule="evenodd" d="M8 4C6.89543 4 6 4.89543 6 6V18C6 19.1046 6.89543 20 8 20H10C10.5523 20 11 20.4477 11 21C11 21.5523 10.5523 22 10 22H8C5.79086 22 4 20.2091 4 18V6C4 3.79086 5.79086 2 8 2H13.5C13.7691 2 14.0269 2.10847 14.215 2.30088L19.715 7.92588C19.8977 8.11273 20 8.36367 20 8.625V12.8125C20 13.3648 19.5523 13.8125 19 13.8125C18.4477 13.8125 18 13.3648 18 12.8125V9.625H14.5C13.3954 9.625 12.5 8.72957 12.5 7.625V4H8ZM14.5 5.4531L16.6236 7.625H14.5V5.4531Z" fill="#7369AB"/>
<path fill-rule="evenodd" clip-rule="evenodd" d="M20.7071 15.2929C21.0976 15.6834 21.0976 16.3166 20.7071 16.7071L15.7071 21.7071C15.3166 22.0976 14.6834 22.0976 14.2929 21.7071L12.2929 19.7071C11.9024 19.3166 11.9024 18.6834 12.2929 18.2929C12.6834 17.9024 13.3166 17.9024 13.7071 18.2929L15 19.5858L19.2929 15.2929C19.6834 14.9024 20.3166 14.9024 20.7071 15.2929Z" fill="#7369AB"/>
</svg>
