<svg width="24" height="24" viewBox="0 0 24 24" fill="none" xmlns="http://www.w3.org/2000/svg">
<path fill-rule="evenodd" clip-rule="evenodd" d="M20.8001 6.39995C21.1314 6.84178 21.0419 7.46858 20.6001 7.79995L14.4001 12.45C12.9778 13.5167 11.0223 13.5167 9.60005 12.45L3.40006 7.8C2.95823 7.46863 2.86869 6.84183 3.20006 6.4C3.53143 5.95817 4.15823 5.86863 4.60006 6.2L10.8001 10.85C11.5112 11.3833 12.4889 11.3833 13.2001 10.85L19.4001 6.19995C19.8419 5.86858 20.4687 5.95812 20.8001 6.39995Z" fill="#7369AB"/>
<path fill-rule="evenodd" clip-rule="evenodd" d="M2 7C2 5.34315 3.34315 4 5 4H19C20.6569 4 22 5.34315 22 7V12C22 12.5523 21.5523 13 21 13C20.4477 13 20 12.5523 20 12V7C20 6.44772 19.5523 6 19 6H5C4.44772 6 4 6.44772 4 7V17C4 17.5523 4.44772 18 5 18H12C12.5523 18 13 18.4477 13 19C13 19.5523 12.5523 20 12 20H5C3.34315 20 2 18.6569 2 17V7Z" fill="#7369AB"/>
<path fill-rule="evenodd" clip-rule="evenodd" d="M22.2071 15.2929C22.5976 15.6834 22.5976 16.3166 22.2071 16.7071L18.7071 20.2071C18.3166 20.5976 17.6834 20.5976 17.2929 20.2071L15.2929 18.2071C14.9024 17.8166 14.9024 17.1834 15.2929 16.7929C15.6834 16.4024 16.3166 16.4024 16.7071 16.7929L18 18.0858L20.7929 15.2929C21.1834 14.9024 21.8166 14.9024 22.2071 15.2929Z" fill="#7369AB"/>
</svg>
