<svg width="24" height="24" viewBox="0 0 24 24" fill="none" xmlns="http://www.w3.org/2000/svg">
<path fill-rule="evenodd" clip-rule="evenodd" d="M8 5C8 3.34315 9.34315 2 11 2H13C14.6569 2 16 3.34315 16 5V7C16 7.55228 15.5523 8 15 8H9C8.44772 8 8 7.55228 8 7V5ZM11 4C10.4477 4 10 4.44772 10 5V6H14V5C14 4.44772 13.5523 4 13 4H11Z" fill="#7369AB"/>
<path fill-rule="evenodd" clip-rule="evenodd" d="M7 6C6.44772 6 6 6.44772 6 7V19C6 19.5523 6.44772 20 7 20H10C10.5523 20 11 20.4477 11 21C11 21.5523 10.5523 22 10 22H7C5.34315 22 4 20.6569 4 19V7C4 5.34315 5.34315 4 7 4H9C9.55228 4 10 4.44772 10 5C10 5.55228 9.55228 6 9 6H7ZM14 5C14 4.44772 14.4477 4 15 4H17C18.6569 4 20 5.34315 20 7V12C20 12.5523 19.5523 13 19 13C18.4477 13 18 12.5523 18 12V7C18 6.44772 17.5523 6 17 6H15C14.4477 6 14 5.55228 14 5Z" fill="#7369AB"/>
<path fill-rule="evenodd" clip-rule="evenodd" d="M20.7071 15.2929C21.0976 15.6834 21.0976 16.3166 20.7071 16.7071L15.7071 21.7071C15.3166 22.0976 14.6834 22.0976 14.2929 21.7071L12.2929 19.7071C11.9024 19.3166 11.9024 18.6834 12.2929 18.2929C12.6834 17.9024 13.3166 17.9024 13.7071 18.2929L15 19.5858L19.2929 15.2929C19.6834 14.9024 20.3166 14.9024 20.7071 15.2929Z" fill="#7369AB"/>
</svg>
