<svg width="24" height="24" viewBox="0 0 24 24" fill="none" xmlns="http://www.w3.org/2000/svg">
<path fill-rule="evenodd" clip-rule="evenodd" d="M12 4C7.58172 4 4 7.58172 4 12C4 16.4183 7.58172 20 12 20C16.4183 20 20 16.4183 20 12C20 7.58172 16.4183 4 12 4ZM2 12C2 6.47715 6.47715 2 12 2C17.5228 2 22 6.47715 22 12C22 17.5228 17.5228 22 12 22C6.47715 22 2 17.5228 2 12Z" fill="#7369AB"/>
<path fill-rule="evenodd" clip-rule="evenodd" d="M10 7C10.5523 7 11 7.44772 11 8V16C11 16.5523 10.5523 17 10 17C9.44772 17 9 16.5523 9 16V8C9 7.44772 9.44772 7 10 7Z" fill="#7369AB"/>
<path fill-rule="evenodd" clip-rule="evenodd" d="M14 7C14.5523 7 15 7.44772 15 8V16C15 16.5523 14.5523 17 14 17C13.4477 17 13 16.5523 13 16V8C13 7.44772 13.4477 7 14 7Z" fill="#7369AB"/>
</svg>
