<svg width="24" height="24" viewBox="0 0 24 24" fill="none" xmlns="http://www.w3.org/2000/svg">
<path fill-rule="evenodd" clip-rule="evenodd" d="M12 4C7.58172 4 4 7.58172 4 12C4 16.4183 7.58172 20 12 20C16.4183 20 20 16.4183 20 12C20 7.58172 16.4183 4 12 4ZM2 12C2 6.47715 6.47715 2 12 2C17.5228 2 22 6.47715 22 12C22 17.5228 17.5228 22 12 22C6.47715 22 2 17.5228 2 12Z" fill="#7369AB"/>
<path fill-rule="evenodd" clip-rule="evenodd" d="M8.5 8.94319C8.5 7.31644 10.3387 6.3702 11.6625 7.31572L15.942 10.3725C17.0587 11.1702 17.0587 12.8298 15.942 13.6275L11.6625 16.6843C10.3387 17.6298 8.5 16.6836 8.5 15.0568V8.94319ZM14.7795 12L10.5 8.94319V15.0568L14.7795 12Z" fill="#7369AB"/>
</svg>
