<svg width="24" height="24" viewBox="0 0 24 24" fill="none" xmlns="http://www.w3.org/2000/svg">
<g clip-path="url(#clip0_1210_2213)">
<path fill-rule="evenodd" clip-rule="evenodd" d="M7.55142 7.55148C8.02005 7.08285 8.77985 7.08285 9.24848 7.55148L16.4485 14.7515C16.9171 15.2201 16.9171 15.9799 16.4485 16.4485C15.9799 16.9172 15.2201 16.9172 14.7514 16.4485L7.55142 9.24854C7.08279 8.77991 7.08279 8.02011 7.55142 7.55148Z" fill="#7369AB"/>
<path fill-rule="evenodd" clip-rule="evenodd" d="M16.4486 7.55148C16.9172 8.02011 16.9172 8.77991 16.4486 9.24854L9.24858 16.4485C8.77995 16.9172 8.02015 16.9172 7.55152 16.4485C7.08289 15.9799 7.08289 15.2201 7.55152 14.7515L14.7515 7.55148C15.2201 7.08285 15.9799 7.08285 16.4486 7.55148Z" fill="#7369AB"/>
<path fill-rule="evenodd" clip-rule="evenodd" d="M12 2.4C6.69807 2.4 2.4 6.69807 2.4 12C2.4 17.3019 6.69807 21.6 12 21.6C17.3019 21.6 21.6 17.3019 21.6 12C21.6 6.69807 17.3019 2.4 12 2.4ZM0 12C0 5.37258 5.37258 0 12 0C18.6274 0 24 5.37258 24 12C24 18.6274 18.6274 24 12 24C5.37258 24 0 18.6274 0 12Z" fill="#7369AB"/>
</g>
<defs>
<clipPath id="clip0_1210_2213">
<rect width="24" height="24" fill="white"/>
</clipPath>
</defs>
</svg>
