<svg width="24" height="24" viewBox="0 0 24 24" fill="none" xmlns="http://www.w3.org/2000/svg">
<path fill-rule="evenodd" clip-rule="evenodd" d="M2.29289 2.29289C2.68342 1.90237 3.31658 1.90237 3.70711 2.29289L21.7071 20.2929C22.0976 20.6834 22.0976 21.3166 21.7071 21.7071C21.3166 22.0976 20.6834 22.0976 20.2929 21.7071L2.29289 3.70711C1.90237 3.31658 1.90237 2.68342 2.29289 2.29289Z" fill="#7369AB"/>
<path fill-rule="evenodd" clip-rule="evenodd" d="M5.49186 4.40607C4.59965 4.92594 4 5.89294 4 7V19C4 20.6569 5.34315 22 7 22H12H17C18.6569 22 20 20.6569 20 19V18.9142L18 16.9142V19C18 19.5523 17.5523 20 17 20H12H7C6.44772 20 6 19.5523 6 19V7C6 6.44772 6.44772 6 7 6H7.08579L5.49186 4.40607ZM8 6.91421V7C8 7.55228 8.44772 8 9 8H9.08579L8 6.91421ZM18 14.0858V7C18 6.44772 17.5523 6 17 6H16V7C16 7.55228 15.5523 8 15 8H11.9142L7.91421 4H8.17071C8.58254 2.83481 9.69378 2 11 2H13C14.3062 2 15.4175 2.83481 15.8293 4H17C18.6569 4 20 5.34315 20 7V16.0858L18 14.0858ZM14 5V6H10V5C10 4.44772 10.4477 4 11 4H13C13.5523 4 14 4.44772 14 5Z" fill="#7369AB"/>
</svg>
