<svg width="24" height="24" viewBox="0 0 24 24" fill="none" xmlns="http://www.w3.org/2000/svg">
<path fill-rule="evenodd" clip-rule="evenodd" d="M2.58579 2.58579C3.36683 1.80474 4.63317 1.80474 5.41421 2.58579L21.4142 18.5858C22.1953 19.3668 22.1953 20.6332 21.4142 21.4142C20.6332 22.1953 19.3668 22.1953 18.5858 21.4142L2.58579 5.41421C1.80474 4.63317 1.80474 3.36683 2.58579 2.58579Z" fill="#7369AB"/>
<path fill-rule="evenodd" clip-rule="evenodd" d="M21.4142 2.58579C22.1953 3.36684 22.1953 4.63316 21.4142 5.41421L5.41421 21.4142C4.63316 22.1953 3.36683 22.1953 2.58578 21.4142C1.80474 20.6332 1.80474 19.3668 2.58579 18.5858L18.5858 2.58579C19.3668 1.80474 20.6332 1.80474 21.4142 2.58579Z" fill="#7369AB"/>
</svg>
