<svg width="24" height="24" viewBox="0 0 24 24" fill="none" xmlns="http://www.w3.org/2000/svg">
<path fill-rule="evenodd" clip-rule="evenodd" d="M6.947 5.86111C5.91359 6.87554 5.21764 8.23258 5.0431 9.74832C3.01755 10.4886 1.57153 12.4316 1.57153 14.7142C1.57153 17.6334 3.93803 19.9999 6.85725 19.9999H8.97083L9.00011 20H17.0001C18.1478 20 19.2052 19.6133 20.049 18.9631L18.6148 17.5289C18.1486 17.8271 17.5946 18 17.0001 18H9.00011L8.97797 17.9999V17.9999H8.97083H6.85725C5.0426 17.9999 3.57153 16.5288 3.57153 14.7142C3.57153 13.1257 4.69971 11.7986 6.19905 11.4942C6.66608 11.3994 7.00132 10.9882 7.00012 10.5117L7.00011 10.5C7.00011 9.23554 7.52163 8.09289 8.36131 7.27541L6.947 5.86111ZM19.851 15.9367C19.9478 15.642 20.0001 15.3271 20.0001 15C20.0001 13.3431 18.657 12 17.0001 12H16.9777C16.6969 12 16.429 11.8819 16.2395 11.6746C16.0501 11.4673 15.9565 11.1899 15.9817 10.9102C15.9939 10.7754 16.0001 10.6385 16.0001 10.5C16.0001 8.01472 13.9854 6 11.5001 6C11.0214 6 10.5602 6.07474 10.1275 6.21318L8.59704 4.68272C9.47081 4.24583 10.4567 4 11.5001 4C14.9548 4 17.78 6.69515 17.9879 10.0975C20.2762 10.5561 22.0001 12.5767 22.0001 15C22.0001 15.889 21.7681 16.7237 21.3614 17.4471L19.851 15.9367Z" fill="#7369AB"/>
<path fill-rule="evenodd" clip-rule="evenodd" d="M3.29289 3.29289C3.68342 2.90237 4.31658 2.90237 4.70711 3.29289L20.7071 19.2929C21.0976 19.6834 21.0976 20.3166 20.7071 20.7071C20.3166 21.0976 19.6834 21.0976 19.2929 20.7071L3.29289 4.70711C2.90237 4.31658 2.90237 3.68342 3.29289 3.29289Z" fill="#7369AB"/>
</svg>
