<svg width="24" height="24" viewBox="0 0 24 24" fill="none" xmlns="http://www.w3.org/2000/svg">
<path fill-rule="evenodd" clip-rule="evenodd" d="M5.0431 9.74832C5.41571 6.51255 8.16449 4 11.5001 4C14.9548 4 17.78 6.69515 17.9879 10.0975C20.2762 10.5561 22.0001 12.5767 22.0001 15C22.0001 17.3312 20.4057 19.2874 18.2494 19.8424C17.7145 19.9801 17.1693 19.6581 17.0317 19.1232C16.894 18.5884 17.216 18.0432 17.7509 17.9055C19.045 17.5725 20.0001 16.3965 20.0001 15C20.0001 13.3431 18.657 12 17.0001 12H16.9777C16.6969 12 16.429 11.8819 16.2395 11.6746C16.0501 11.4673 15.9565 11.1899 15.9817 10.9102C15.9939 10.7754 16.0001 10.6385 16.0001 10.5C16.0001 8.01472 13.9854 6 11.5001 6C9.01483 6 7.00011 8.01472 7.00011 10.5L7.00012 10.5117C7.00132 10.9882 6.66608 11.3994 6.19905 11.4942C4.69971 11.7986 3.57153 13.1257 3.57153 14.7142C3.57153 16.3026 4.69971 17.6298 6.19905 17.9342C6.7403 18.044 7.09 18.5719 6.98014 19.1131C6.87027 19.6543 6.34244 20.004 5.80119 19.8942C3.38811 19.4044 1.57153 17.2725 1.57153 14.7142C1.57153 12.4316 3.01755 10.4886 5.0431 9.74832Z" fill="#7369AB"/>
<path fill-rule="evenodd" clip-rule="evenodd" d="M11.9999 12C12.5522 12 12.9999 12.4477 12.9999 13V13.9401C13.2554 14.0414 13.4917 14.1801 13.7023 14.3492L14.496 13.8862C14.9731 13.6079 15.5854 13.7691 15.8637 14.2461C16.142 14.7232 15.9808 15.3355 15.5038 15.6138L14.7005 16.0824C14.7212 16.2188 14.732 16.3583 14.732 16.5C14.732 16.6429 14.7216 16.7825 14.7015 16.9182L15.5038 17.3862C15.9808 17.6645 16.142 18.2768 15.8637 18.7539C15.5854 19.2309 14.9731 19.3921 14.496 19.1138L13.6864 18.6415C13.4751 18.8029 13.243 18.9313 12.9999 19.0257V20C12.9999 20.5523 12.5522 21 11.9999 21C11.4476 21 10.9999 20.5523 10.9999 20V19.0475C10.752 18.9544 10.5143 18.8229 10.2971 18.651L9.50379 19.1138C9.02674 19.3921 8.41442 19.2309 8.13614 18.7539C7.85786 18.2768 8.019 17.6645 8.49605 17.3862L9.2993 16.9177C9.27859 16.7813 9.26786 16.6417 9.26786 16.5C9.26786 16.3583 9.27859 16.2187 9.2993 16.0823L8.49605 15.6138C8.019 15.3355 7.85786 14.7232 8.13614 14.2461C8.41442 13.7691 9.02674 13.6079 9.50379 13.8862L10.2975 14.3492C10.5081 14.1801 10.7445 14.0414 10.9999 13.9401V13C10.9999 12.4477 11.4476 12 11.9999 12ZM11.9999 15.75C11.7353 15.75 11.4979 15.8941 11.3674 16.1218C11.3046 16.2316 11.2679 16.3597 11.2679 16.5C11.2679 16.6403 11.3046 16.7684 11.3674 16.8782C11.5069 17.1217 11.7265 17.2263 11.9796 17.2211C12.2689 17.2152 12.5215 17.0651 12.6401 16.8652C12.6926 16.7765 12.732 16.6592 12.732 16.5C12.732 16.3597 12.6953 16.2316 12.6324 16.1218C12.502 15.8941 12.2645 15.75 11.9999 15.75Z" fill="#7369AB"/>
</svg>
