<svg width="24" height="24" viewBox="0 0 24 24" fill="none" xmlns="http://www.w3.org/2000/svg">
<path fill-rule="evenodd" clip-rule="evenodd" d="M5.0431 9.74832C5.41571 6.51255 8.16449 4 11.5001 4C14.9548 4 17.78 6.69515 17.9879 10.0975C20.2762 10.5561 22.0001 12.5767 22.0001 15C22.0001 17.7614 19.7615 20 17.0001 20H9.00011L8.97083 19.9999H6.85725C3.93803 19.9999 1.57153 17.6334 1.57153 14.7142C1.57153 12.4316 3.01755 10.4886 5.0431 9.74832ZM11.5001 6C9.01483 6 7.00011 8.01472 7.00011 10.5L7.00012 10.5117C7.00132 10.9882 6.66608 11.3994 6.19905 11.4942C4.69971 11.7986 3.57153 13.1257 3.57153 14.7142C3.57153 16.5288 5.0426 17.9999 6.85725 17.9999H8.97797L9.00011 18H17.0001C18.657 18 20.0001 16.6569 20.0001 15C20.0001 13.3431 18.657 12 17.0001 12H16.9777C16.6969 12 16.429 11.8819 16.2395 11.6746C16.0501 11.4673 15.9565 11.1899 15.9817 10.9102C15.9939 10.7754 16.0001 10.6385 16.0001 10.5C16.0001 8.01472 13.9854 6 11.5001 6Z" fill="#7369AB"/>
</svg>
