<svg width="24" height="24" viewBox="0 0 24 24" fill="none" xmlns="http://www.w3.org/2000/svg">
<path fill-rule="evenodd" clip-rule="evenodd" d="M6 5C5.44772 5 5 5.44772 5 6V14C5 14.5523 5.44772 15 6 15H18C18.5523 15 19 14.5523 19 14V12C19 11.4477 19.4477 11 20 11C20.5523 11 21 11.4477 21 12V14C21 15.6569 19.6569 17 18 17H6C4.34315 17 3 15.6569 3 14V6C3 4.34315 4.34315 3 6 3H9C9.55228 3 10 3.44772 10 4C10 4.55228 9.55228 5 9 5H6Z" fill="#7369AB"/>
<path fill-rule="evenodd" clip-rule="evenodd" d="M15.7071 3.29289C16.0976 3.68342 16.0976 4.31658 15.7071 4.70711L14.4142 6L15.7071 7.29289C16.0976 7.68342 16.0976 8.31658 15.7071 8.70711C15.3166 9.09763 14.6834 9.09763 14.2929 8.70711L12.2929 6.70711C11.9024 6.31658 11.9024 5.68342 12.2929 5.29289L14.2929 3.29289C14.6834 2.90237 15.3166 2.90237 15.7071 3.29289Z" fill="#7369AB"/>
<path fill-rule="evenodd" clip-rule="evenodd" d="M18.2929 3.29289C17.9024 3.68342 17.9024 4.31658 18.2929 4.70711L19.5858 6L18.2929 7.29289C17.9024 7.68342 17.9024 8.31658 18.2929 8.70711C18.6834 9.09763 19.3166 9.09763 19.7071 8.70711L21.7071 6.70711C22.0976 6.31658 22.0976 5.68342 21.7071 5.29289L19.7071 3.29289C19.3166 2.90237 18.6834 2.90237 18.2929 3.29289Z" fill="#7369AB"/>
<path fill-rule="evenodd" clip-rule="evenodd" d="M12 15C12.5523 15 13 15.4477 13 16V20C13 20.5523 12.5523 21 12 21C11.4477 21 11 20.5523 11 20V16C11 15.4477 11.4477 15 12 15Z" fill="#7369AB"/>
<path fill-rule="evenodd" clip-rule="evenodd" d="M7 20C7 19.4477 7.44772 19 8 19H16C16.5523 19 17 19.4477 17 20C17 20.5523 16.5523 21 16 21H8C7.44772 21 7 20.5523 7 20Z" fill="#7369AB"/>
</svg>
