<svg width="24" height="24" viewBox="0 0 24 24" fill="none" xmlns="http://www.w3.org/2000/svg">
<path fill-rule="evenodd" clip-rule="evenodd" d="M7 6C6.44772 6 6 6.44772 6 7V15H18V11.5C18 10.9477 18.4477 10.5 19 10.5C19.5523 10.5 20 10.9477 20 11.5V16C20 16.5523 19.5523 17 19 17H5C4.44772 17 4 16.5523 4 16V7C4 5.34315 5.34315 4 7 4H10C10.5523 4 11 4.44772 11 5C11 5.55228 10.5523 6 10 6H7Z" fill="#7369AB"/>
<path fill-rule="evenodd" clip-rule="evenodd" d="M15.7071 3.29289C16.0976 3.68342 16.0976 4.31658 15.7071 4.70711L14.4142 6L15.7071 7.29289C16.0976 7.68342 16.0976 8.31658 15.7071 8.70711C15.3166 9.09763 14.6834 9.09763 14.2929 8.70711L12.2929 6.70711C11.9024 6.31658 11.9024 5.68342 12.2929 5.29289L14.2929 3.29289C14.6834 2.90237 15.3166 2.90237 15.7071 3.29289Z" fill="#7369AB"/>
<path fill-rule="evenodd" clip-rule="evenodd" d="M18.2929 3.29289C17.9024 3.68342 17.9024 4.31658 18.2929 4.70711L19.5858 6L18.2929 7.29289C17.9024 7.68342 17.9024 8.31658 18.2929 8.70711C18.6834 9.09763 19.3166 9.09763 19.7071 8.70711L21.7071 6.70711C22.0976 6.31658 22.0976 5.68342 21.7071 5.29289L19.7071 3.29289C19.3166 2.90237 18.6834 2.90237 18.2929 3.29289Z" fill="#7369AB"/>
<path fill-rule="evenodd" clip-rule="evenodd" d="M2 16C2 15.4477 2.44772 15 3 15H21C21.5523 15 22 15.4477 22 16V17C22 18.6569 20.6569 20 19 20H5C3.34315 20 2 18.6569 2 17V16ZM4 17C4 17.5523 4.44772 18 5 18H19C19.5523 18 20 17.5523 20 17H4Z" fill="#7369AB"/>
</svg>
