<svg width="24" height="24" viewBox="0 0 24 24" fill="none" xmlns="http://www.w3.org/2000/svg">
<path fill-rule="evenodd" clip-rule="evenodd" d="M8 4C6.89543 4 6 4.89543 6 6V18C6 19.1046 6.89543 20 8 20H16C17.1046 20 18 19.1046 18 18V9.625H14.5C13.3954 9.625 12.5 8.72957 12.5 7.625V4H8ZM14.5 5.4531L16.6236 7.625H14.5V5.4531ZM4 6C4 3.79086 5.79086 2 8 2H13.5C13.7691 2 14.0269 2.10847 14.215 2.30088L19.715 7.92588C19.8977 8.11273 20 8.36367 20 8.625V18C20 20.2091 18.2091 22 16 22H8C5.79086 22 4 20.2091 4 18V6Z" fill="#7369AB"/>
<path fill-rule="evenodd" clip-rule="evenodd" d="M10.7071 11.2929C11.0976 11.6834 11.0976 12.3166 10.7071 12.7071L9.41421 14L10.7071 15.2929C11.0976 15.6834 11.0976 16.3166 10.7071 16.7071C10.3166 17.0976 9.68342 17.0976 9.29289 16.7071L7.29289 14.7071C6.90237 14.3166 6.90237 13.6834 7.29289 13.2929L9.29289 11.2929C9.68342 10.9024 10.3166 10.9024 10.7071 11.2929Z" fill="#7369AB"/>
<path fill-rule="evenodd" clip-rule="evenodd" d="M13.2929 11.2929C12.9024 11.6834 12.9024 12.3166 13.2929 12.7071L14.5858 14L13.2929 15.2929C12.9024 15.6834 12.9024 16.3166 13.2929 16.7071C13.6834 17.0976 14.3166 17.0976 14.7071 16.7071L16.7071 14.7071C17.0976 14.3166 17.0976 13.6834 16.7071 13.2929L14.7071 11.2929C14.3166 10.9024 13.6834 10.9024 13.2929 11.2929Z" fill="#7369AB"/>
</svg>
