<svg width="24" height="24" viewBox="0 0 24 24" fill="none" xmlns="http://www.w3.org/2000/svg">
<path fill-rule="evenodd" clip-rule="evenodd" d="M8 5C8 3.34315 9.34315 2 11 2H13C14.6569 2 16 3.34315 16 5V7C16 7.55228 15.5523 8 15 8H9C8.44772 8 8 7.55228 8 7V5ZM11 4C10.4477 4 10 4.44772 10 5V6H14V5C14 4.44772 13.5523 4 13 4H11Z" fill="#7369AB"/>
<path fill-rule="evenodd" clip-rule="evenodd" d="M7 6C6.44772 6 6 6.44772 6 7V19C6 19.5523 6.44772 20 7 20H17C17.5523 20 18 19.5523 18 19V7C18 6.44772 17.5523 6 17 6H15C14.4477 6 14 5.55228 14 5C14 4.44772 14.4477 4 15 4H17C18.6569 4 20 5.34315 20 7V19C20 20.6569 18.6569 22 17 22H7C5.34315 22 4 20.6569 4 19V7C4 5.34315 5.34315 4 7 4H9C9.55228 4 10 4.44772 10 5C10 5.55228 9.55228 6 9 6H7Z" fill="#7369AB"/>
<path fill-rule="evenodd" clip-rule="evenodd" d="M10.7071 11.2929C11.0976 11.6834 11.0976 12.3166 10.7071 12.7071L9.41421 14L10.7071 15.2929C11.0976 15.6834 11.0976 16.3166 10.7071 16.7071C10.3166 17.0976 9.68342 17.0976 9.29289 16.7071L7.29289 14.7071C6.90237 14.3166 6.90237 13.6834 7.29289 13.2929L9.29289 11.2929C9.68342 10.9024 10.3166 10.9024 10.7071 11.2929Z" fill="#7369AB"/>
<path fill-rule="evenodd" clip-rule="evenodd" d="M13.2929 11.2929C12.9024 11.6834 12.9024 12.3166 13.2929 12.7071L14.5858 14L13.2929 15.2929C12.9024 15.6834 12.9024 16.3166 13.2929 16.7071C13.6834 17.0976 14.3166 17.0976 14.7071 16.7071L16.7071 14.7071C17.0976 14.3166 17.0976 13.6834 16.7071 13.2929L14.7071 11.2929C14.3166 10.9024 13.6834 10.9024 13.2929 11.2929Z" fill="#7369AB"/>
</svg>
