<svg width="24" height="24" viewBox="0 0 24 24" fill="none" xmlns="http://www.w3.org/2000/svg">
<path fill-rule="evenodd" clip-rule="evenodd" d="M10 3C10 2.44772 10.4477 2 11 2H13C13.5523 2 14 2.44772 14 3C14 3.55228 13.5523 4 13 4V6C13 6.55228 12.5523 7 12 7C11.4477 7 11 6.55228 11 6V4C10.4477 4 10 3.55228 10 3Z" fill="#7369AB"/>
<path fill-rule="evenodd" clip-rule="evenodd" d="M14 21C14 21.5523 13.5523 22 13 22L11 22C10.4477 22 10 21.5523 10 21C10 20.4477 10.4477 20 11 20L11 18C11 17.4477 11.4477 17 12 17C12.5523 17 13 17.4477 13 18L13 20C13.5523 20 14 20.4477 14 21Z" fill="#7369AB"/>
<path fill-rule="evenodd" clip-rule="evenodd" d="M16.9496 4.22183C17.3402 3.83131 17.9733 3.83131 18.3638 4.22183L19.7781 5.63605C20.1686 6.02657 20.1686 6.65973 19.7781 7.05026C19.3875 7.44078 18.7544 7.44078 18.3638 7.05026L16.9496 8.46447C16.5591 8.855 15.9259 8.855 15.5354 8.46447C15.1449 8.07395 15.1449 7.44078 15.5354 7.05026L16.9496 5.63605C16.5591 5.24552 16.5591 4.61236 16.9496 4.22183Z" fill="#7369AB"/>
<path fill-rule="evenodd" clip-rule="evenodd" d="M7.05012 19.7782C6.6596 20.1687 6.02644 20.1687 5.63591 19.7782L4.2217 18.364C3.83117 17.9734 3.83117 17.3403 4.2217 16.9498C4.61222 16.5592 5.24539 16.5592 5.63591 16.9498L7.05012 15.5355C7.44065 15.145 8.07381 15.145 8.46434 15.5355C8.85486 15.9261 8.85486 16.5592 8.46434 16.9498L7.05012 18.364C7.44065 18.7545 7.44065 19.3877 7.05012 19.7782Z" fill="#7369AB"/>
<path fill-rule="evenodd" clip-rule="evenodd" d="M21 10C21.5523 10 22 10.4477 22 11L22 13C22 13.5523 21.5523 14 21 14C20.4477 14 20 13.5523 20 13L18 13C17.4477 13 17 12.5523 17 12C17 11.4477 17.4477 11 18 11L20 11C20 10.4477 20.4477 10 21 10Z" fill="#7369AB"/>
<path fill-rule="evenodd" clip-rule="evenodd" d="M3 14C2.44772 14 2 13.5523 2 13L2 11C2 10.4477 2.44772 10 3 10C3.55229 10 4 10.4477 4 11L6 11C6.55229 11 7 11.4477 7 12C7 12.5523 6.55228 13 6 13L4 13C4 13.5523 3.55228 14 3 14Z" fill="#7369AB"/>
<path fill-rule="evenodd" clip-rule="evenodd" d="M19.7782 16.9498C20.1688 17.3403 20.1688 17.9734 19.7782 18.364L18.364 19.7782C17.9735 20.1687 17.3403 20.1687 16.9498 19.7782C16.5593 19.3877 16.5593 18.7545 16.9498 18.364L15.5356 16.9498C15.1451 16.5592 15.1451 15.9261 15.5356 15.5355C15.9261 15.145 16.5593 15.145 16.9498 15.5355L18.364 16.9498C18.7546 16.5592 19.3877 16.5592 19.7782 16.9498Z" fill="#7369AB"/>
<path fill-rule="evenodd" clip-rule="evenodd" d="M4.222 7.05026C3.83148 6.65974 3.83148 6.02657 4.222 5.63605L5.63621 4.22183C6.02674 3.83131 6.6599 3.83131 7.05043 4.22183C7.44095 4.61236 7.44095 5.24552 7.05043 5.63605L8.46464 7.05026C8.85516 7.44079 8.85516 8.07395 8.46464 8.46448C8.07412 8.855 7.44095 8.855 7.05043 8.46448L5.63621 7.05026C5.24569 7.44079 4.61252 7.44079 4.222 7.05026Z" fill="#7369AB"/>
<path fill-rule="evenodd" clip-rule="evenodd" d="M12 7C9.23858 7 7 9.23858 7 12C7 14.7614 9.23858 17 12 17C14.7614 17 17 14.7614 17 12C17 9.23858 14.7614 7 12 7ZM5 12C5 8.13401 8.13401 5 12 5C15.866 5 19 8.13401 19 12C19 15.866 15.866 19 12 19C8.13401 19 5 15.866 5 12Z" fill="#7369AB"/>
<path d="M13 11C13 12.1046 12.1046 13 11 13C9.89543 13 9 12.1046 9 11C9 9.89543 9.89543 9 11 9C12.1046 9 13 9.89543 13 11Z" fill="#7369AB"/>
<path d="M15 14C15 14.5523 14.5523 15 14 15C13.4477 15 13 14.5523 13 14C13 13.4477 13.4477 13 14 13C14.5523 13 15 13.4477 15 14Z" fill="#7369AB"/>
</svg>
