<svg width="24" height="24" viewBox="0 0 24 24" fill="none" xmlns="http://www.w3.org/2000/svg">
<path fill-rule="evenodd" clip-rule="evenodd" d="M21 16C21 16.5523 20.5523 17 20 17L10 17C8.34315 17 7 15.6569 7 14L7 4C7 3.44771 7.44772 3 8 3C8.55229 3 9 3.44771 9 4L9 14C9 14.5523 9.44771 15 10 15L20 15C20.5523 15 21 15.4477 21 16Z" fill="#7369AB"/>
<path fill-rule="evenodd" clip-rule="evenodd" d="M17 13V10C17 8.34315 15.6569 7 14 7H11V9H14C14.5523 9 15 9.44772 15 10V13H17ZM9 9V7H4C3.44772 7 3 7.44772 3 8C3 8.55228 3.44772 9 4 9H9ZM15 15H17V20C17 20.5523 16.5523 21 16 21C15.4477 21 15 20.5523 15 20V15Z" fill="#7369AB"/>
</svg>
