<svg width="24" height="24" viewBox="0 0 24 24" fill="none" xmlns="http://www.w3.org/2000/svg">
<path fill-rule="evenodd" clip-rule="evenodd" d="M4.29289 4.29289C4.68342 3.90237 5.31658 3.90237 5.70711 4.29289L18 16.5858L18 15C18 14.4477 18.4477 14 19 14C19.5523 14 20 14.4477 20 15L20 19C20 19.5523 19.5523 20 19 20L15 20C14.4477 20 14 19.5523 14 19C14 18.4477 14.4477 18 15 18L16.5858 18L4.29289 5.70711C3.90237 5.31658 3.90237 4.68342 4.29289 4.29289Z" fill="#7369AB"/>
<path fill-rule="evenodd" clip-rule="evenodd" d="M19.7071 4.29289C20.0976 4.68342 20.0976 5.31658 19.7071 5.70711L15.3321 10.0821C14.9416 10.4726 14.3084 10.4726 13.9179 10.0821C13.5274 9.69158 13.5274 9.05842 13.9179 8.66789L18.2929 4.29289C18.6834 3.90237 19.3166 3.90237 19.7071 4.29289ZM10.0821 13.9179C10.4726 14.3084 10.4726 14.9416 10.0821 15.3321L7.41421 18H9C9.55228 18 10 18.4477 10 19C10 19.5523 9.55228 20 9 20L5 20C4.44772 20 4 19.5523 4 19L4 15C4 14.4477 4.44772 14 5 14C5.55228 14 6 14.4477 6 15L6 16.5858L8.66789 13.9179C9.05842 13.5274 9.69158 13.5274 10.0821 13.9179Z" fill="#7369AB"/>
</svg>
