<svg width="24" height="24" viewBox="0 0 24 24" fill="none" xmlns="http://www.w3.org/2000/svg">
<path fill-rule="evenodd" clip-rule="evenodd" d="M4.29289 19.7071C3.90237 19.3166 3.90237 18.6834 4.29289 18.2929L16.5858 6L15 6C14.4477 6 14 5.55228 14 5C14 4.44771 14.4477 4 15 4L19 4C19.5523 4 20 4.44771 20 5L20 9C20 9.55229 19.5523 10 19 10C18.4477 10 18 9.55229 18 9L18 7.41421L5.70711 19.7071C5.31658 20.0976 4.68342 20.0976 4.29289 19.7071Z" fill="#7369AB"/>
<path fill-rule="evenodd" clip-rule="evenodd" d="M4.2929 4.29289C4.68342 3.90237 5.31658 3.90237 5.70711 4.29289L10.0821 8.66789C10.4726 9.05842 10.4726 9.69158 10.0821 10.0821C9.69158 10.4726 9.05842 10.4726 8.66789 10.0821L4.2929 5.70711C3.90237 5.31658 3.90237 4.68342 4.2929 4.29289ZM13.9179 13.9179C14.3084 13.5274 14.9416 13.5274 15.3321 13.9179L18 16.5858L18 15C18 14.4477 18.4477 14 19 14C19.5523 14 20 14.4477 20 15L20 19C20 19.5523 19.5523 20 19 20L15 20C14.4477 20 14 19.5523 14 19C14 18.4477 14.4477 18 15 18L16.5858 18L13.9179 15.3321C13.5274 14.9416 13.5274 14.3084 13.9179 13.9179Z" fill="#7369AB"/>
</svg>
