<svg width="24" height="24" viewBox="0 0 24 24" fill="none" xmlns="http://www.w3.org/2000/svg">
<path fill-rule="evenodd" clip-rule="evenodd" d="M19.7071 4.29289C20.0976 4.68342 20.0976 5.31658 19.7071 5.70711L7.41421 18H9C9.55228 18 10 18.4477 10 19C10 19.5523 9.55228 20 9 20H5C4.44772 20 4 19.5523 4 19V15C4 14.4477 4.44772 14 5 14C5.55228 14 6 14.4477 6 15V16.5858L18.2929 4.29289C18.6834 3.90237 19.3166 3.90237 19.7071 4.29289Z" fill="#7369AB"/>
<path fill-rule="evenodd" clip-rule="evenodd" d="M19.7071 19.7071C19.3166 20.0976 18.6834 20.0976 18.2929 19.7071L13.9179 15.3321C13.5274 14.9416 13.5274 14.3084 13.9179 13.9179C14.3084 13.5274 14.9416 13.5274 15.3321 13.9179L19.7071 18.2929C20.0976 18.6834 20.0976 19.3166 19.7071 19.7071ZM10.0821 10.0821C9.69158 10.4726 9.05842 10.4726 8.66789 10.0821L6 7.41421L6 9C6 9.55228 5.55228 10 5 10C4.44771 10 4 9.55228 4 9L4 5C4 4.44771 4.44771 4 5 4L9 4C9.55229 4 10 4.44771 10 5C10 5.55228 9.55229 6 9 6L7.41421 6L10.0821 8.66789C10.4726 9.05842 10.4726 9.69158 10.0821 10.0821Z" fill="#7369AB"/>
</svg>
