<svg width="24" height="24" viewBox="0 0 24 24" fill="none" xmlns="http://www.w3.org/2000/svg">
<path fill-rule="evenodd" clip-rule="evenodd" d="M19.7071 19.7071C19.3166 20.0976 18.6834 20.0976 18.2929 19.7071L6 7.41421L6 9C6 9.55228 5.55228 10 5 10C4.44771 10 4 9.55228 4 9L4 5C4 4.44771 4.44771 4 5 4L9 4C9.55229 4 10 4.44771 10 5C10 5.55228 9.55229 6 9 6L7.41421 6L19.7071 18.2929C20.0976 18.6834 20.0976 19.3166 19.7071 19.7071Z" fill="#7369AB"/>
<path fill-rule="evenodd" clip-rule="evenodd" d="M4.29289 19.7071C3.90237 19.3166 3.90237 18.6834 4.29289 18.2929L8.66789 13.9179C9.05842 13.5274 9.69158 13.5274 10.0821 13.9179C10.4726 14.3084 10.4726 14.9416 10.0821 15.3321L5.70711 19.7071C5.31658 20.0976 4.68342 20.0976 4.29289 19.7071ZM13.9179 10.0821C13.5274 9.69158 13.5274 9.05842 13.9179 8.66789L16.5858 6L15 6C14.4477 6 14 5.55228 14 5C14 4.44771 14.4477 4 15 4L19 4C19.5523 4 20 4.44771 20 5L20 9C20 9.55229 19.5523 10 19 10C18.4477 10 18 9.55229 18 9L18 7.41421L15.3321 10.0821C14.9416 10.4726 14.3084 10.4726 13.9179 10.0821Z" fill="#7369AB"/>
</svg>
