<svg width="24" height="24" viewBox="0 0 24 24" fill="none" xmlns="http://www.w3.org/2000/svg">
<g id="Dashboard 3">
<path id="Ellipse 4 (Stroke)" fill-rule="evenodd" clip-rule="evenodd" d="M4.06189 11H5C5.55228 11 6 11.4477 6 12C6 12.5523 5.55228 13 5 13H4.06189C4.55399 16.9463 7.92038 20 12 20C16.0796 20 19.446 16.9463 19.9381 13H19C18.4477 13 18 12.5523 18 12C18 11.4477 18.4477 11 19 11H19.9381C19.4869 7.38128 16.6187 4.51314 13 4.06189V5C13 5.55228 12.5523 6 12 6C11.4477 6 11 5.55228 11 5V4.06189C7.38128 4.51314 4.51314 7.38128 4.06189 11ZM2 12C2 6.47715 6.47715 2 12 2C17.5228 2 22 6.47715 22 12C22 17.5228 17.5228 22 12 22C6.47715 22 2 17.5228 2 12ZM16.53 7.29289C16.9205 7.68342 16.9205 8.31658 16.53 8.70711L14.648 10.5892C14.8724 11.0096 15 11.4901 15 12C15 13.6569 13.6569 15 12 15C10.3431 15 9 13.6569 9 12C9 10.3431 10.3431 9 12 9C12.4151 9 12.8112 9.08469 13.1712 9.23751L15.1158 7.29289C15.5063 6.90237 16.1395 6.90237 16.53 7.29289ZM12 11C11.4477 11 11 11.4477 11 12C11 12.5523 11.4477 13 12 13C12.5523 13 13 12.5523 13 12C13 11.7015 12.8704 11.4344 12.6612 11.2497C12.4843 11.0936 12.2543 11 12 11Z" fill="#7369AB"/>
</g>
</svg>
