<svg width="24" height="24" viewBox="0 0 24 24" fill="none" xmlns="http://www.w3.org/2000/svg">
<g id="Dashboard 1">
<path id="Rectangle 9 (Stroke)" fill-rule="evenodd" clip-rule="evenodd" d="M3 5C3 3.89543 3.89543 3 5 3H9C10.1046 3 11 3.89543 11 5V12C11 13.1046 10.1046 14 9 14H5C3.89543 14 3 13.1046 3 12V5ZM9 5H5V12H9V5ZM12 5C12 3.89543 12.8954 3 14 3H19C20.1046 3 21 3.89543 21 5V7C21 8.10457 20.1046 9 19 9H14C12.8954 9 12 8.10457 12 7V5ZM19 5H14V7H19V5ZM12 12C12 10.8954 12.8954 10 14 10H19C20.1046 10 21 10.8954 21 12V19C21 20.1046 20.1046 21 19 21H14C12.8954 21 12 20.1046 12 19V12ZM19 12H14V19H19V12ZM3 17C3 15.8954 3.89543 15 5 15H9C10.1046 15 11 15.8954 11 17V19C11 20.1046 10.1046 21 9 21H5C3.89543 21 3 20.1046 3 19V17ZM9 17H5V19H9V17Z" fill="#7369AB"/>
</g>
</svg>
