<svg width="24" height="24" viewBox="0 0 24 24" fill="none" xmlns="http://www.w3.org/2000/svg">
<g id="Dashboard 2">
<path id="Rectangle 9 (Stroke)" fill-rule="evenodd" clip-rule="evenodd" d="M3 5C3 3.89543 3.89543 3 5 3H8C9.10457 3 10 3.89543 10 5V19C10 20.1046 9.10457 21 8 21H5C3.89543 21 3 20.1046 3 19V5ZM8 5H5V19H8V5ZM11 5C11 3.89543 11.8954 3 13 3H19C20.1046 3 21 3.89543 21 5V7C21 8.10457 20.1046 9 19 9H13C11.8954 9 11 8.10457 11 7V5ZM19 5H13V7H19V5ZM11 12C11 10.8954 11.8954 10 13 10H19C20.1046 10 21 10.8954 21 12V19C21 20.1046 20.1046 21 19 21H13C11.8954 21 11 20.1046 11 19V12ZM19 12H13V19H19V12Z" fill="#7369AB"/>
</g>
</svg>
