<svg width="24" height="24" viewBox="0 0 24 24" fill="none" xmlns="http://www.w3.org/2000/svg">
<path fill-rule="evenodd" clip-rule="evenodd" d="M1 6.00002C1 5.33728 1.53726 4.80002 2.2 4.80002H21.4001C22.0628 4.80002 22.6001 5.33728 22.6001 6.00002C22.6001 6.66277 22.0628 7.20003 21.4001 7.20003H2.2C1.53726 7.20003 1 6.66277 1 6.00002Z" fill="#7369AB"/>
<path fill-rule="evenodd" clip-rule="evenodd" d="M4.38533 8.41931C5.03738 8.30076 5.66209 8.73324 5.78064 9.3853L7.82234 20.6147C7.92609 21.1853 8.42305 21.6 9.00299 21.6H14.597C15.177 21.6 15.6739 21.1853 15.7777 20.6147L17.8194 9.3853C17.938 8.73324 18.5627 8.30076 19.2147 8.41931C19.8668 8.53787 20.2992 9.16257 20.1807 9.81463L18.139 21.044C17.8278 22.7558 16.3369 24 14.597 24H9.00299C7.26316 24 5.77228 22.7558 5.46105 21.044L3.41934 9.81463C3.30079 9.16257 3.73328 8.53787 4.38533 8.41931Z" fill="#7369AB"/>
<path fill-rule="evenodd" clip-rule="evenodd" d="M7 3.60001C7 1.61178 8.61178 0 10.6 0H13C14.9883 0 16.6 1.61178 16.6 3.60001V6.00002C16.6 6.66277 16.0628 7.20003 15.4 7.20003H8.2C7.53726 7.20003 7 6.66277 7 6.00002V3.60001ZM10.6 2.40001C9.93727 2.40001 9.40001 2.93727 9.40001 3.60001V4.80002H14.2V3.60001C14.2 2.93727 13.6628 2.40001 13 2.40001H10.6Z" fill="#7369AB"/>
</svg>
