<svg width="24" height="24" viewBox="0 0 24 24" fill="none" xmlns="http://www.w3.org/2000/svg">
<path fill-rule="evenodd" clip-rule="evenodd" d="M9.40001 10.8C10.0628 10.8 10.6 11.3372 10.6 12V18C10.6 18.6627 10.0628 19.2 9.40001 19.2C8.73727 19.2 8.20001 18.6627 8.20001 18V12C8.20001 11.3372 8.73727 10.8 9.40001 10.8Z" fill="#7369AB"/>
<path fill-rule="evenodd" clip-rule="evenodd" d="M14.2 10.8C14.8627 10.8 15.4 11.3372 15.4 12V18C15.4 18.6627 14.8627 19.2 14.2 19.2C13.5373 19.2 13 18.6627 13 18V12C13 11.3372 13.5373 10.8 14.2 10.8Z" fill="#7369AB"/>
<path fill-rule="evenodd" clip-rule="evenodd" d="M1 5.99999C1 5.33725 1.53726 4.79999 2.2 4.79999H21.4C22.0627 4.79999 22.6 5.33725 22.6 5.99999C22.6 6.66273 22.0627 7.19999 21.4 7.19999H2.2C1.53726 7.19999 1 6.66273 1 5.99999Z" fill="#7369AB"/>
<path fill-rule="evenodd" clip-rule="evenodd" d="M4.60002 8.39999C5.26277 8.39999 5.80002 8.93725 5.80002 9.59999V19.2C5.80002 20.5255 6.87454 21.6 8.20002 21.6H15.4C16.7255 21.6 17.8 20.5255 17.8 19.2V9.59999C17.8 8.93725 18.3373 8.39999 19 8.39999C19.6628 8.39999 20.2 8.93725 20.2 9.59999V19.2C20.2 21.851 18.051 24 15.4 24H8.20002C5.54906 24 3.40002 21.851 3.40002 19.2V9.59999C3.40002 8.93725 3.93728 8.39999 4.60002 8.39999Z" fill="#7369AB"/>
<path fill-rule="evenodd" clip-rule="evenodd" d="M7 3.6C7 1.61177 8.61178 0 10.6 0H13C14.9882 0 16.6 1.61177 16.6 3.6V6C16.6 6.66274 16.0627 7.2 15.4 7.2H8.2C7.53726 7.2 7 6.66274 7 6V3.6ZM10.6 2.4C9.93726 2.4 9.4 2.93726 9.4 3.6V4.8H14.2V3.6C14.2 2.93726 13.6627 2.4 13 2.4H10.6Z" fill="#7369AB"/>
</svg>
