<svg width="24" height="24" viewBox="0 0 24 24" fill="none" xmlns="http://www.w3.org/2000/svg">
<path fill-rule="evenodd" clip-rule="evenodd" d="M11 4C11 3.44772 11.4477 3 12 3H17C19.2091 3 21 4.79086 21 7V14C21 14.2791 20.8834 14.5455 20.6783 14.7348L14.1783 20.7348C13.9936 20.9053 13.7514 21 13.5 21H7C4.79086 21 3 19.2091 3 17V12C3 11.4477 3.44772 11 4 11C4.55228 11 5 11.4477 5 12V17C5 18.1046 5.89543 19 7 19H12.5V16C12.5 14.3431 13.8431 13 15.5 13H19V7C19 5.89543 18.1046 5 17 5H12C11.4477 5 11 4.55228 11 4ZM17.4424 15H15.5C14.9477 15 14.5 15.4477 14.5 16V17.716L17.4424 15Z" fill="#7369AB"/>
<path fill-rule="evenodd" clip-rule="evenodd" d="M3.29289 3.29289C3.68342 2.90237 4.31658 2.90237 4.70711 3.29289L6.5 5.08579L8.29289 3.29289C8.68342 2.90237 9.31658 2.90237 9.70711 3.29289C10.0976 3.68342 10.0976 4.31658 9.70711 4.70711L7.91421 6.5L9.70711 8.29289C10.0976 8.68342 10.0976 9.31658 9.70711 9.70711C9.31658 10.0976 8.68342 10.0976 8.29289 9.70711L6.5 7.91421L4.70711 9.70711C4.31658 10.0976 3.68342 10.0976 3.29289 9.70711C2.90237 9.31658 2.90237 8.68342 3.29289 8.29289L5.08579 6.5L3.29289 4.70711C2.90237 4.31658 2.90237 3.68342 3.29289 3.29289Z" fill="#7369AB"/>
</svg>
