<svg width="24" height="24" viewBox="0 0 24 24" fill="none" xmlns="http://www.w3.org/2000/svg">
<path fill-rule="evenodd" clip-rule="evenodd" d="M1 5.99999C1 5.33725 1.53726 4.79999 2.2 4.79999H21.4C22.0627 4.79999 22.6 5.33725 22.6 5.99999C22.6 6.66273 22.0627 7.19999 21.4 7.19999H2.2C1.53726 7.19999 1 6.66273 1 5.99999Z" fill="#7369AB"/>
<path fill-rule="evenodd" clip-rule="evenodd" d="M4.60002 4.79999C5.26277 4.79999 5.80002 5.33725 5.80002 5.99999V19.2C5.80002 20.5255 6.87454 21.6 8.20002 21.6H15.4C16.7255 21.6 17.8 20.5255 17.8 19.2V5.99999C17.8 5.33725 18.3373 4.79999 19 4.79999C19.6628 4.79999 20.2 5.33725 20.2 5.99999V19.2C20.2 21.851 18.051 24 15.4 24H8.20002C5.54906 24 3.40002 21.851 3.40002 19.2V5.99999C3.40002 5.33725 3.93728 4.79999 4.60002 4.79999Z" fill="#7369AB"/>
<path fill-rule="evenodd" clip-rule="evenodd" d="M7 3.6C7 1.61177 8.61178 0 10.6 0H13C14.9882 0 16.6 1.61177 16.6 3.6V6C16.6 6.66274 16.0627 7.2 15.4 7.2H8.2C7.53726 7.2 7 6.66274 7 6V3.6ZM10.6 2.4C9.93726 2.4 9.4 2.93726 9.4 3.6V4.8H14.2V3.6C14.2 2.93726 13.6627 2.4 13 2.4H10.6Z" fill="#7369AB"/>
</svg>
