<svg width="24" height="24" viewBox="0 0 24 24" fill="none" xmlns="http://www.w3.org/2000/svg">
<path fill-rule="evenodd" clip-rule="evenodd" d="M12 4C7.58172 4 4 7.58172 4 12C4 16.4183 7.58172 20 12 20C16.4183 20 20 16.4183 20 12C20 7.58172 16.4183 4 12 4ZM2 12C2 6.47715 6.47715 2 12 2C17.5228 2 22 6.47715 22 12C22 17.5228 17.5228 22 12 22C6.47715 22 2 17.5228 2 12Z" fill="#7369AB"/>
<path d="M11 9.5C11 10.3284 10.3284 11 9.5 11C8.67157 11 8 10.3284 8 9.5C8 8.67157 8.67157 8 9.5 8C10.3284 8 11 8.67157 11 9.5Z" fill="#7369AB"/>
<path d="M16 9.5C16 10.3284 15.3284 11 14.5 11C13.6716 11 13 10.3284 13 9.5C13 8.67157 13.6716 8 14.5 8C15.3284 8 16 8.67157 16 9.5Z" fill="#7369AB"/>
<path fill-rule="evenodd" clip-rule="evenodd" d="M16 17C16 17.5523 15.5523 18 15 18L9 18C8.44772 18 8 17.5523 8 17C8 16.4747 8.10346 15.9546 8.30448 15.4693C8.5055 14.984 8.80014 14.543 9.17157 14.1716C9.54301 13.8001 9.98396 13.5055 10.4693 13.3045C10.9546 13.1035 11.4747 13 12 13C12.5253 13 13.0454 13.1035 13.5307 13.3045C14.016 13.5055 14.457 13.8001 14.8284 14.1716C15.1999 14.543 15.4945 14.984 15.6955 15.4693C15.8965 15.9546 16 16.4747 16 17ZM13.7321 16C13.6448 15.849 13.5381 15.7096 13.4142 15.5858C13.2285 15.4001 13.008 15.2527 12.7654 15.1522C12.5227 15.0517 12.2626 15 12 15C11.7374 15 11.4773 15.0517 11.2346 15.1522C10.992 15.2527 10.7715 15.4001 10.5858 15.5858C10.4619 15.7096 10.3552 15.849 10.2679 16L13.7321 16Z" fill="#7369AB"/>
</svg>
