<svg width="24" height="24" viewBox="0 0 24 24" fill="none" xmlns="http://www.w3.org/2000/svg">
<path fill-rule="evenodd" clip-rule="evenodd" d="M6 5C5.44772 5 5 5.44772 5 6V14C5 14.5523 5.44772 15 6 15H18C18.5523 15 19 14.5523 19 14V13C19 12.4477 19.4477 12 20 12C20.5523 12 21 12.4477 21 13V14C21 15.6569 19.6569 17 18 17H6C4.34315 17 3 15.6569 3 14V6C3 4.34315 4.34315 3 6 3H10C10.5523 3 11 3.44772 11 4C11 4.55228 10.5523 5 10 5H6Z" fill="#7369AB"/>
<path fill-rule="evenodd" clip-rule="evenodd" d="M17.464 2C18.0163 2 18.464 2.44772 18.464 3V4.17081C18.8152 4.29501 19.1363 4.48271 19.4134 4.71981L20.4281 4.13397C20.9064 3.85783 21.518 4.02171 21.7942 4.5C22.0703 4.97829 21.9064 5.58988 21.4281 5.86603L20.4138 6.45163C20.4468 6.62967 20.464 6.813 20.464 7C20.464 7.18891 20.4474 7.37234 20.4153 7.54924L21.4281 8.13397C21.9064 8.41012 22.0703 9.02171 21.7942 9.5C21.518 9.97829 20.9064 10.1422 20.4281 9.86603L19.3976 9.27102C19.1166 9.49966 18.7984 9.67309 18.464 9.78966V11C18.464 11.5523 18.0163 12 17.464 12C16.9117 12 16.464 11.5523 16.464 11V9.81313C16.1254 9.70049 15.8015 9.52461 15.5136 9.28077L14.4999 9.86603C14.0216 10.1422 13.41 9.97829 13.1339 9.5C12.8578 9.02171 13.0216 8.41012 13.4999 8.13397L14.5142 7.54838C14.4812 7.37034 14.464 7.187 14.464 7C14.464 6.813 14.4812 6.62966 14.5142 6.45162L13.4999 5.86602C13.0216 5.58988 12.8578 4.97829 13.1339 4.5C13.41 4.02171 14.0216 3.85783 14.4999 4.13397L15.5146 4.71981C15.7917 4.48271 16.1128 4.29501 16.464 4.17081V3C16.464 2.44772 16.9117 2 17.464 2ZM17.464 6C17.0952 6 16.7717 6.19918 16.5972 6.50064C16.5127 6.64673 16.464 6.81616 16.464 7C16.464 7.18384 16.5127 7.35327 16.5972 7.49936C16.7871 7.82756 17.0965 7.97394 17.4439 7.96695C17.83 7.95918 18.1736 7.76167 18.3386 7.48629C18.4124 7.36309 18.464 7.20516 18.464 7C18.464 6.81616 18.4153 6.64673 18.3308 6.50064C18.1564 6.19918 17.8329 6 17.464 6Z" fill="#7369AB"/>
<path fill-rule="evenodd" clip-rule="evenodd" d="M12 15C12.5523 15 13 15.4477 13 16V20C13 20.5523 12.5523 21 12 21C11.4477 21 11 20.5523 11 20V16C11 15.4477 11.4477 15 12 15Z" fill="#7369AB"/>
<path fill-rule="evenodd" clip-rule="evenodd" d="M7 20C7 19.4477 7.44772 19 8 19H16C16.5523 19 17 19.4477 17 20C17 20.5523 16.5523 21 16 21H8C7.44772 21 7 20.5523 7 20Z" fill="#7369AB"/>
</svg>
