<svg width="32" height="32" viewBox="0 0 32 32" fill="none" xmlns="http://www.w3.org/2000/svg">
<path d="M5.58908 25.933C6.632 25.7637 7.34021 24.781 7.17092 23.7381C7.00163 22.6952 6.01894 21.987 4.97602 22.1562C3.9331 22.3255 3.22488 23.3082 3.39417 24.3511C3.56346 25.3941 4.54616 26.1023 5.58908 25.933Z" fill="#5273A8"/>
<path d="M5.2784 26.3282C4.0223 26.3282 3 25.3059 3 24.0498C3 22.7937 4.0223 21.7714 5.2784 21.7714C6.5345 21.7714 7.5568 22.7937 7.5568 24.0498C7.5568 25.3059 6.5345 26.3282 5.2784 26.3282ZM5.2784 22.502C4.4247 22.502 3.73062 23.1961 3.73062 24.0498C3.73062 24.9035 4.4247 25.5976 5.2784 25.5976C6.1321 25.5976 6.82618 24.9035 6.82618 24.0498C6.82618 23.1961 6.1321 22.502 5.2784 22.502Z" fill="#09090D"/>
<path d="M19.3193 0.365492H10.0107C7.46986 0.365492 5.41064 2.42527 5.41064 4.96556V27.0335C5.41064 29.5744 7.47042 31.6336 10.0107 31.6336H23.2911C25.8319 31.6336 27.8911 29.5738 27.8911 27.0335V8.93674L19.3193 0.364929V0.365492Z" fill="white"/>
<path d="M23.2904 31.9994H10.0101C7.27193 31.9994 5.04468 29.7722 5.04468 27.034V4.96606C5.04468 2.22793 7.27193 0.000671387 10.0101 0.000671387H19.3187C19.4153 0.000671387 19.5086 0.0388896 19.5772 0.107455L28.1485 8.67927C28.217 8.74784 28.2552 8.84057 28.2552 8.9378V27.0346C28.2552 29.7727 26.028 32 23.2899 32L23.2904 31.9994ZM10.0106 0.730732C7.67546 0.730732 5.77586 2.63033 5.77586 4.9655V27.0335C5.77586 29.3686 7.67546 31.2682 10.0106 31.2682H23.291C25.6261 31.2682 27.5257 29.3686 27.5257 27.0335V9.08842L19.1681 0.730732H10.0106Z" fill="#09090D"/>
<path d="M19.3191 0.365479L27.8909 8.93729H21.1473C20.1379 8.93729 19.3191 8.119 19.3191 7.10907V0.365479Z" fill="#E4E4EB"/>
<path d="M27.8921 9.30256C27.8921 9.30256 27.8915 9.30256 27.891 9.30256H21.1474C19.9379 9.30256 18.9539 8.31848 18.9539 7.10903V0.365436C18.9539 0.217627 19.0426 0.0844293 19.1792 0.0276661C19.3158 -0.0285352 19.4726 0.00237054 19.5771 0.106905L28.1321 8.66187C28.2085 8.72875 28.2568 8.82709 28.2568 8.93668C28.2568 9.13845 28.0933 9.30199 27.8915 9.30199L27.8921 9.30256ZM19.6845 1.24779V7.10959C19.6845 7.91608 20.3403 8.5725 21.1474 8.5725H27.0092L19.685 1.24836L19.6845 1.24779Z" fill="#09090D"/>
<path d="M5.45255 13.0175C4.31616 13.0175 3.39502 13.9386 3.39502 15.075V23.6912H3.43267C3.61589 22.7425 4.44992 22.0254 5.45255 22.0254H26.1728V13.0175H5.45255Z" fill="#5273A8"/>
<path d="M3.43274 24.0565H3.39509C3.19333 24.0565 3.02979 23.893 3.02979 23.6912V15.075C3.02979 13.7391 4.11672 12.6522 5.45262 12.6522H26.1729C26.3747 12.6522 26.5382 12.8157 26.5382 13.0175V22.0254C26.5382 22.2272 26.3747 22.3907 26.1729 22.3907H5.45262C4.64332 22.3907 3.94418 22.9668 3.79131 23.7603C3.75815 23.9323 3.60753 24.0565 3.43274 24.0565ZM5.45262 13.3828C4.51968 13.3828 3.7604 14.1421 3.7604 15.075V22.3497C4.20102 21.9203 4.80181 21.6601 5.45262 21.6601H25.8076V13.3828H5.45262Z" fill="#09090D"/>
<path d="M7.85522 15.3111C7.85522 15.1588 7.97943 15.0345 8.12499 15.0345H9.53621C11.0581 15.0345 12.1097 16.0793 12.1097 17.4422V17.4563C12.1097 18.8191 11.0581 19.8774 9.53621 19.8774H8.12499C7.97943 19.8774 7.85522 19.7526 7.85522 19.6009V15.3116V15.3111ZM9.53621 19.3722C10.7608 19.3722 11.5426 18.5421 11.5426 17.4698V17.4557C11.5426 16.3834 10.7608 15.5392 9.53621 15.5392H8.4015V19.3716H9.53621V19.3722Z" fill="white"/>
<path d="M13.0503 17.4697V17.4557C13.0503 16.1203 14.0535 14.9514 15.5271 14.9514C17.0007 14.9514 17.9898 16.1069 17.9898 17.4416V17.4557C17.9898 18.791 16.9866 19.96 15.513 19.96C14.0394 19.96 13.0503 18.8045 13.0503 17.4697ZM17.4227 17.4697V17.4557C17.4227 16.3558 16.6202 15.4566 15.5136 15.4566C14.407 15.4566 13.6179 16.3423 13.6179 17.4422V17.4562C13.6179 18.5561 14.4205 19.4553 15.5271 19.4553C16.6337 19.4553 17.4227 18.5696 17.4227 17.4697Z" fill="white"/>
<path d="M18.9314 17.4697V17.4557C18.9314 16.0861 19.9554 14.9514 21.3807 14.9514C22.1624 14.9514 22.6604 15.2071 23.11 15.5808C23.1656 15.6291 23.2207 15.705 23.2207 15.8022C23.2207 15.9472 23.0892 16.072 22.9442 16.072C22.8683 16.072 22.8059 16.0372 22.7643 16.0096C22.3906 15.6775 21.9685 15.456 21.3739 15.456C20.3016 15.456 19.499 16.3277 19.499 17.4416V17.4557C19.499 18.5763 20.3083 19.4548 21.3739 19.4548C21.9758 19.4548 22.3979 19.2474 22.8127 18.8669C22.8542 18.8253 22.9166 18.791 22.9858 18.791C23.124 18.791 23.2488 18.9152 23.2488 19.054C23.2488 19.1372 23.2072 19.2064 23.1589 19.2479C22.6817 19.6835 22.1557 19.9606 21.3604 19.9606C19.9627 19.9606 18.932 18.8607 18.932 17.4703L18.9314 17.4697Z" fill="white"/>
</svg>
