<svg width="33" height="32" viewBox="0 0 33 32" fill="none" xmlns="http://www.w3.org/2000/svg">
<path d="M8.05837 25.4025C8.80549 24.6554 8.80549 23.4441 8.05837 22.697C7.31125 21.9498 6.09991 21.9498 5.35279 22.697C4.60567 23.4441 4.60567 24.6554 5.35279 25.4025C6.09991 26.1497 7.31125 26.1497 8.05837 25.4025Z" fill="#5273A8"/>
<path d="M6.7057 26.3281C5.44957 26.3281 4.42725 25.3058 4.42725 24.0496C4.42725 22.7935 5.44957 21.7712 6.7057 21.7712C7.96182 21.7712 8.98415 22.7935 8.98415 24.0496C8.98415 25.3058 7.96182 26.3281 6.7057 26.3281ZM6.7057 22.5018C5.85198 22.5018 5.15788 23.1959 5.15788 24.0496C5.15788 24.9033 5.85198 25.5974 6.7057 25.5974C7.55941 25.5974 8.25351 24.9033 8.25351 24.0496C8.25351 23.1959 7.55941 22.5018 6.7057 22.5018Z" fill="#09090D"/>
<path d="M20.7471 0.36537H11.4383C8.89738 0.36537 6.83813 2.42519 6.83813 4.96555V27.034C6.83813 29.5749 8.89795 31.6342 11.4383 31.6342H24.7189C27.2599 31.6342 29.3191 29.5743 29.3191 27.034V8.93681L20.7471 0.364807V0.36537Z" fill="white"/>
<path d="M24.7183 31.9995H11.4376C8.69946 31.9995 6.47217 29.7722 6.47217 27.034V4.96555C6.47217 2.22737 8.69946 6.10352e-05 11.4376 6.10352e-05H20.7465C20.8431 6.10352e-05 20.9364 0.0382869 21.005 0.106854L29.5764 8.67885C29.645 8.74742 29.6832 8.84015 29.6832 8.93738V27.0346C29.6832 29.7728 27.4559 32.0001 24.7177 32.0001L24.7183 31.9995ZM11.4376 0.730693C9.10243 0.730693 7.2028 2.63034 7.2028 4.96555V27.034C7.2028 29.3692 9.10243 31.2689 11.4376 31.2689H24.7183C27.0535 31.2689 28.9532 29.3692 28.9532 27.034V9.08857L20.5953 0.730693H11.4376Z" fill="#09090D"/>
<path d="M20.7471 0.365356L29.3191 8.93736H22.5753C21.5659 8.93736 20.7471 8.11905 20.7471 7.10909V0.365356Z" fill="#E4E4EB"/>
<path d="M29.3195 9.30268C29.3195 9.30268 29.319 9.30268 29.3184 9.30268H22.5747C21.3652 9.30268 20.3811 8.31857 20.3811 7.1091V0.365366C20.3811 0.217554 20.4699 0.0843539 20.6065 0.0281514C20.743 -0.0280511 20.8999 0.00286908 21.0044 0.107406L29.5595 8.66254C29.636 8.72942 29.6843 8.82777 29.6843 8.93737C29.6843 9.13913 29.5207 9.30268 29.319 9.30268H29.3195ZM21.1123 1.24719V7.1091C21.1123 7.9156 21.7682 8.57205 22.5752 8.57205H28.4372L21.1129 1.24776L21.1123 1.24719Z" fill="#09090D"/>
<path d="M6.8796 13.0176C5.74319 13.0176 4.82202 13.9388 4.82202 15.0752V23.6916H4.85969C5.04291 22.7429 5.87695 22.0258 6.8796 22.0258H27.6003V13.0176H6.8796Z" fill="#5273A8"/>
<path d="M4.85977 24.0569H4.8221C4.62034 24.0569 4.45679 23.8934 4.45679 23.6916V15.0752C4.45679 13.7393 5.54375 12.6523 6.87968 12.6523H27.6004C27.8022 12.6523 27.9657 12.8159 27.9657 13.0177V22.0258C27.9657 22.2276 27.8022 22.3911 27.6004 22.3911H6.87968C6.07037 22.3911 5.37177 22.9672 5.21833 23.7608C5.18517 23.9327 5.03456 24.0569 4.85977 24.0569ZM6.87968 13.383C5.94672 13.383 5.18742 14.1423 5.18742 15.0752V22.3501C5.62805 21.9207 6.22886 21.6605 6.87968 21.6605H27.2351V13.383H6.87968Z" fill="#09090D"/>
<path d="M6.9668 15.3461C6.9668 15.1938 7.09099 15.0696 7.23656 15.0696H8.64781C10.1698 15.0696 11.2213 16.1144 11.2213 17.4773V17.4913C11.2213 18.8542 10.1698 19.9125 8.64781 19.9125H7.23656C7.09156 19.9125 6.9668 19.7878 6.9668 19.636V15.3467V15.3461ZM8.64781 19.4067C9.87246 19.4067 10.6542 18.5766 10.6542 17.5043V17.4902C10.6542 16.4179 9.87246 15.5737 8.64781 15.5737H7.51308V19.4062H8.64781V19.4067Z" fill="white"/>
<path d="M12.1621 17.5042V17.4902C12.1621 16.1548 13.1653 14.9858 14.639 14.9858C16.1126 14.9858 17.1017 16.1413 17.1017 17.4761V17.4902C17.1017 18.8255 16.0985 19.9945 14.6249 19.9945C13.1513 19.9945 12.1621 18.839 12.1621 17.5042ZM16.5347 17.5042V17.4902C16.5347 16.3903 15.7321 15.491 14.6255 15.491C13.5188 15.491 12.7297 16.3768 12.7297 17.4767V17.4907C12.7297 18.5906 13.5323 19.4898 14.639 19.4898C15.7456 19.4898 16.5347 18.6041 16.5347 17.5042Z" fill="white"/>
<path d="M18.0432 17.5042V17.4902C18.0432 16.1205 19.0672 14.9858 20.4925 14.9858C21.2743 14.9858 21.7723 15.2415 22.2219 15.6152C22.2769 15.6636 22.3326 15.74 22.3326 15.8367C22.3326 15.9817 22.2011 16.1065 22.0561 16.1065C21.9802 16.1065 21.9178 16.0716 21.8762 16.0441C21.5025 15.7119 21.0804 15.4905 20.4858 15.4905C19.4134 15.4905 18.6109 16.3622 18.6109 17.4761V17.4902C18.6109 18.6108 19.4202 19.4893 20.4858 19.4893C21.0877 19.4893 21.5098 19.2819 21.9246 18.9014C21.9661 18.8598 22.0285 18.8255 22.0977 18.8255C22.2359 18.8255 22.3607 18.9497 22.3607 19.0886C22.3607 19.1717 22.3191 19.2409 22.2708 19.2825C21.7936 19.718 21.2675 19.9951 20.4723 19.9951C19.0745 19.9951 18.0438 18.8952 18.0438 17.5048L18.0432 17.5042Z" fill="white"/>
<path d="M23.1419 19.4966L24.7605 17.4418L23.2245 15.5045C23.1762 15.4422 23.1346 15.3798 23.1346 15.2972C23.1346 15.1589 23.252 15.0341 23.4043 15.0341C23.5151 15.0341 23.5774 15.0892 23.6466 15.1724L25.1061 17.0681L26.5449 15.1932C26.6208 15.1033 26.6899 15.0341 26.8079 15.0341C26.9395 15.0341 27.0569 15.1448 27.0569 15.2898C27.0569 15.359 27.0294 15.4281 26.9811 15.4837L25.4383 17.4345L27.0361 19.4752C27.0912 19.5376 27.1261 19.6 27.1261 19.6759C27.1261 19.8214 27.0086 19.9457 26.8563 19.9457C26.7456 19.9457 26.6832 19.8906 26.614 19.8074L25.0853 17.8218L23.5774 19.7866C23.5016 19.8765 23.4319 19.9457 23.3077 19.9457C23.1835 19.9457 23.0654 19.8349 23.0654 19.6899C23.0654 19.6208 23.093 19.5517 23.1413 19.496L23.1419 19.4966Z" fill="white"/>
</svg>
