<svg width="24" height="19" viewBox="0 0 24 19" fill="none" xmlns="http://www.w3.org/2000/svg">
<g id="Group 23">
<path id="Vector (Stroke)" fill-rule="evenodd" clip-rule="evenodd" d="M16.6693 3.34849C16.8853 2.98664 17.2983 2.79081 17.7152 2.85249C18.9092 3.02914 20.0185 3.57345 20.8889 4.40974C21.7591 5.24583 22.3472 6.33223 22.5715 7.51794L23.8344 14.1707C23.8711 14.2448 23.8994 14.3239 23.9178 14.4069C24.1159 15.296 23.9526 16.2273 23.4639 16.996C22.9752 17.7648 22.2012 18.3079 21.3121 18.5059C20.423 18.7039 19.4916 18.5406 18.7229 18.0519C17.9542 17.5633 17.4111 16.7892 17.2131 15.9001C17.1418 15.5803 17.2254 15.2456 17.4385 14.9968C17.7742 14.6049 18.0263 14.1486 18.1793 13.6558C18.3324 13.163 18.3831 12.6441 18.3285 12.131L18.3279 12.1255L17.8491 7.39002C17.7445 6.34466 17.3571 5.34649 16.7288 4.50452C16.4767 4.16676 16.4532 3.71033 16.6693 3.34849ZM21.917 15.0916C21.8862 15.0211 21.863 14.9465 21.8482 14.8689L20.5265 7.90616C20.4129 7.30519 20.1535 6.74317 19.7744 6.26946C19.8406 6.56931 19.8894 6.87371 19.9202 7.18117C19.9201 7.18101 19.9202 7.18134 19.9202 7.18117L20.3986 11.9135C20.4828 12.7076 20.404 13.5105 20.1672 14.2731C19.9929 14.8346 19.7355 15.3655 19.4047 15.8486C19.5119 16.0277 19.6602 16.1812 19.8396 16.2953C20.1424 16.4878 20.5093 16.5521 20.8596 16.4741C21.2098 16.3961 21.5148 16.1822 21.7073 15.8794C21.8575 15.643 21.9297 15.3676 21.917 15.0916Z" fill="#7369AB"/>
<path id="Vector (Stroke)_2" fill-rule="evenodd" clip-rule="evenodd" d="M7.2995 3.34849C7.51556 3.71033 7.49207 4.16676 7.24001 4.50452C6.61166 5.34649 6.22438 6.34365 6.11973 7.38901L5.64021 12.1321C5.58427 12.6522 5.63662 13.1782 5.794 13.677C5.95138 14.1759 6.21036 14.6367 6.55462 15.0305C6.77268 15.28 6.85894 15.6184 6.78692 15.9418C6.5889 16.8309 6.04579 17.6049 5.27708 18.0936C4.50836 18.5822 3.57701 18.7455 2.6879 18.5475C1.79879 18.3495 1.02476 17.8064 0.536091 17.0377C0.050617 16.274 -0.113718 15.3498 0.0783081 14.466L1.39714 7.51874C1.39712 7.51886 1.39716 7.51862 1.39714 7.51874C1.62138 6.33286 2.20959 5.24593 3.07987 4.40974C3.95024 3.57345 5.05956 3.02914 6.25359 2.85249C6.67049 2.79081 7.08344 2.98664 7.2995 3.34849ZM4.19438 6.26946C3.8153 6.74317 3.55604 7.30439 3.44244 7.90536L2.12052 14.8689C2.11848 14.8796 2.11627 14.8903 2.11389 14.901C2.03589 15.2513 2.10021 15.6182 2.29272 15.921C2.48523 16.2238 2.79015 16.4378 3.1404 16.5158C3.49066 16.5938 3.85756 16.5295 4.16039 16.3369C4.33817 16.2239 4.48533 16.0722 4.59232 15.8952C4.25275 15.4084 3.98827 14.8718 3.80893 14.3033C3.56543 13.5315 3.48416 12.7177 3.57022 11.913L4.04856 7.18166C4.04854 7.18182 4.04857 7.18151 4.04856 7.18166C4.07936 6.87419 4.12819 6.56932 4.19438 6.26946Z" fill="#7369AB"/>
<path id="Vector (Stroke)_3" fill-rule="evenodd" clip-rule="evenodd" d="M11.9811 2.08155C10.5191 2.07695 9.10795 2.61812 8.02391 3.59915C6.93987 4.58018 6.26096 5.93045 6.12005 7.38568L6.11962 7.39006L5.6413 12.1211C5.64123 12.1218 5.64116 12.1225 5.6411 12.1232C5.58998 12.6542 5.65064 13.19 5.81919 13.6961C5.98796 14.2029 6.26114 14.6686 6.62109 15.0632C6.98103 15.4579 7.41975 15.7726 7.9089 15.9872C8.39805 16.2017 8.92676 16.3113 9.46089 16.3088L9.46574 16.3088L14.5079 16.3088C15.042 16.3113 15.5707 16.2017 16.0599 15.9872C16.549 15.7726 16.9877 15.4579 17.3477 15.0632C17.7076 14.6686 17.9808 14.2029 18.1496 13.6961C18.3181 13.19 18.3788 12.6542 18.3277 12.1233C18.3276 12.1226 18.3275 12.1219 18.3275 12.1211L17.8487 7.38568C17.7078 5.93045 17.0289 4.58018 15.9449 3.59915C14.8608 2.61812 13.4497 2.07695 11.9877 2.08155H11.9811ZM11.9844 2.98298e-05C10.0051 -0.00538862 8.09484 0.727611 6.6272 2.05579C5.15931 3.3842 4.23979 5.21239 4.04843 7.18281C4.04836 7.18356 4.04828 7.18431 4.04821 7.18506L3.56989 11.9162L3.56946 11.9205C3.48993 12.7419 3.58356 13.5708 3.8443 14.3538C4.10504 15.1367 4.52709 15.8563 5.08319 16.466C5.6393 17.0757 6.3171 17.5619 7.07282 17.8934C7.82772 18.2245 8.6436 18.3938 9.46789 18.3903H14.5009C15.3252 18.3938 16.141 18.2245 16.8959 17.8934C17.6517 17.5619 18.3295 17.0757 18.8856 16.466C19.4417 15.8563 19.8637 15.1367 20.1245 14.3538C20.3852 13.5708 20.4788 12.7419 20.3993 11.9205L19.9206 7.18506C19.9205 7.18427 19.9204 7.18348 19.9203 7.18269C19.7289 5.21232 18.8094 3.38417 17.3416 2.05579C15.8739 0.727611 13.9637 -0.00538886 11.9844 2.98298e-05Z" fill="#7369AB"/>
<path id="Vector (Stroke)_4" fill-rule="evenodd" clip-rule="evenodd" d="M11.6812 11.6941L11.9844 12.0355L12.2876 11.6941C12.2519 11.6764 12.2123 11.6669 12.1717 11.6669H11.797C11.7565 11.6669 11.7168 11.6764 11.6812 11.6941ZM10.1412 10.2713C10.5804 9.8321 11.176 9.58539 11.797 9.58539H12.1717C12.7928 9.58539 13.3884 9.8321 13.8276 10.2713C14.2667 10.7104 14.5134 11.306 14.5134 11.9271C14.5134 12.1819 14.42 12.4278 14.2508 12.6182L12.7625 14.2939C12.565 14.5162 12.2818 14.6435 11.9844 14.6435C11.687 14.6435 11.4037 14.5162 11.2062 14.2939L9.71794 12.6182C9.54876 12.4278 9.45532 12.1819 9.45532 11.9271C9.45532 11.306 9.70204 10.7104 10.1412 10.2713Z" fill="#7369AB"/>
<path id="Vector (Stroke)_5" fill-rule="evenodd" clip-rule="evenodd" d="M11.9844 12.5618C12.5592 12.5618 13.0251 13.0278 13.0251 13.6026V17.3493C13.0251 17.9241 12.5592 18.3901 11.9844 18.3901C11.4096 18.3901 10.9436 17.9241 10.9436 17.3493V13.6026C10.9436 13.0278 11.4096 12.5618 11.9844 12.5618Z" fill="#7369AB"/>
<path id="Vector (Stroke)_6" fill-rule="evenodd" clip-rule="evenodd" d="M8.70598 6.31726C9.28078 6.31726 9.74675 6.78323 9.74675 7.35802V8.23226C9.74675 8.80706 9.28078 9.27302 8.70598 9.27302C8.13119 9.27302 7.66522 8.80706 7.66522 8.23226V7.35802C7.66522 6.78323 8.13119 6.31726 8.70598 6.31726Z" fill="#7369AB"/>
<path id="Vector (Stroke)_7" fill-rule="evenodd" clip-rule="evenodd" d="M15.2628 6.31726C15.8376 6.31726 16.3036 6.78323 16.3036 7.35802V8.23226C16.3036 8.80706 15.8376 9.27302 15.2628 9.27302C14.688 9.27302 14.222 8.80706 14.222 8.23226V7.35802C14.222 6.78323 14.688 6.31726 15.2628 6.31726Z" fill="#7369AB"/>
</g>
</svg>
