<svg width="24" height="17" viewBox="0 0 24 17" fill="none" xmlns="http://www.w3.org/2000/svg">
<g id="Group 24">
<path id="Vector (Stroke)" fill-rule="evenodd" clip-rule="evenodd" d="M4.59566 0.958026C6.55142 0.355291 9.15329 0 11.9791 0C14.8065 0 17.4085 0.360864 19.3638 0.966252C20.337 1.26755 21.1995 1.64447 21.8556 2.10338C22.469 2.53245 23.0596 3.1471 23.1891 3.9742C23.2145 4.08664 23.2275 4.20163 23.2279 4.3171L23.2279 4.32002C23.2279 5.24416 22.6369 5.93854 22.011 6.40737C21.3663 6.89034 20.4993 7.28159 19.5208 7.59204C17.5518 8.21679 14.8943 8.58787 12 8.58787C9.10571 8.58787 6.4431 8.2168 4.46889 7.59079C3.48784 7.27971 2.61814 6.88748 1.9713 6.40296C1.35662 5.94253 0.776753 5.26594 0.752046 4.36916C0.743313 4.2615 0.745668 4.15317 0.75911 4.04588C0.86439 3.18021 1.46788 2.53974 2.1016 2.09531C2.75871 1.63447 3.62229 1.25801 4.59566 0.958026ZM2.83763 4.2754C2.83801 4.28679 2.83819 4.29819 2.83819 4.30959L2.8382 4.30972L2.83835 4.31086C2.83854 4.31208 2.83917 4.31543 2.84103 4.32123C2.84472 4.33273 2.85439 4.35719 2.87852 4.39454C2.9293 4.47312 3.03218 4.5901 3.22247 4.73263C3.60868 5.02192 4.23377 5.32687 5.09969 5.60144C6.81941 6.14675 9.25943 6.5009 12 6.5009C14.7405 6.5009 17.1752 6.14676 18.8897 5.6028C19.7529 5.3289 20.3755 5.02494 20.7599 4.73703C21.0355 4.53057 21.1123 4.39414 21.1334 4.34034C21.1312 4.32677 21.1293 4.31315 21.1276 4.2995C21.1275 4.29906 21.1273 4.29688 21.1261 4.29261C21.1249 4.28827 21.1226 4.28112 21.1182 4.271C21.1093 4.25058 21.0917 4.2176 21.058 4.17288C20.9883 4.08031 20.8641 3.9567 20.6594 3.8135C20.2455 3.52403 19.6061 3.22595 18.7466 2.95985C17.0367 2.43045 14.6509 2.08697 11.9791 2.08697C9.30576 2.08697 6.91979 2.42559 5.21031 2.95243C4.35107 3.21723 3.71269 3.51447 3.2999 3.80396C2.95002 4.04934 2.85979 4.21715 2.83763 4.2754Z" fill="#7369AB"/>
<path id="Vector (Stroke)_2" fill-rule="evenodd" clip-rule="evenodd" d="M22.064 3.13725C22.6315 3.07134 23.1466 3.47409 23.2194 4.04077C23.222 4.06086 23.2241 4.08098 23.2259 4.10113L23.9436 11.0152C23.9637 11.0805 23.9775 11.1483 23.9844 11.2177C24.0483 11.8563 23.9144 12.4991 23.6009 13.059C23.2873 13.6189 22.8092 14.069 22.2314 14.3482L19.8748 15.4847C19.8745 15.4849 19.8742 15.485 19.8738 15.4852C18.222 16.2869 16.4304 16.7606 14.5982 16.8802C13.6874 16.9669 12.764 16.9669 11.8687 16.9669H11.8435C11.4373 16.9669 11.0377 16.9502 10.6676 16.9346L10.6634 16.9345C10.2873 16.9187 9.94334 16.9043 9.61042 16.9043C9.59261 16.9043 9.5748 16.9038 9.55701 16.9029C7.68385 16.8069 5.84972 16.3313 4.16591 15.5051L1.76902 14.3484C1.19117 14.0692 0.712683 13.6189 0.399116 13.059C0.0948947 12.5158 -0.0402054 11.8945 0.0103766 11.2748V11.1547C0.0103766 11.1189 0.0122199 11.0831 0.0158992 11.0475L0.732203 4.1128C0.734027 4.09224 0.736256 4.0717 0.73889 4.05121C0.811695 3.48463 1.32653 3.0819 1.89398 3.14765C2.44831 3.21189 2.85153 3.69988 2.81515 4.25213C2.81651 4.27312 2.81724 4.29415 2.81734 4.31519C2.82031 4.33093 2.85638 4.47924 3.2001 4.73573C3.58657 5.02412 4.21204 5.32834 5.07821 5.60238C6.79834 6.1466 9.23866 6.50073 11.9791 6.50073C14.7197 6.50073 17.1597 6.14658 18.8794 5.60128C19.7453 5.3267 20.3704 5.02176 20.7566 4.73247C20.9469 4.58993 21.0498 4.47295 21.1006 4.39438C21.1247 4.35703 21.1344 4.33257 21.1381 4.32106C21.1399 4.31527 21.1406 4.31191 21.1408 4.31069L21.1409 4.30955C21.1409 4.28696 21.1416 4.26424 21.1431 4.2417C21.1067 3.68958 21.5098 3.20161 22.064 3.13725ZM21.4071 6.79251C20.8594 7.10297 20.2134 7.36765 19.5102 7.59063C17.536 8.21663 14.8734 8.5877 11.9791 8.5877C9.08479 8.5877 6.42248 8.21661 4.44868 7.59213C3.74592 7.36979 3.10039 7.10602 2.55303 6.79686L2.09734 11.2084V11.3216C2.09734 11.3563 2.09561 11.391 2.09216 11.4255C2.07085 11.6384 2.11549 11.8527 2.22001 12.0393C2.32453 12.2259 2.48389 12.376 2.67651 12.469L5.0825 13.6302C6.50563 14.329 8.05526 14.7327 9.63826 14.8173C10.0063 14.8181 10.3778 14.8337 10.7299 14.8485L10.755 14.8495C11.131 14.8653 11.4879 14.8799 11.8435 14.8799C12.7713 14.8799 13.6072 14.8791 14.4147 14.8012C14.4258 14.8002 14.4369 14.7993 14.4481 14.7986C16.0162 14.6981 17.5499 14.2934 18.9635 13.6073L18.9659 13.6061L21.3235 12.469C21.5161 12.376 21.6755 12.2259 21.78 12.0393C21.8621 11.8927 21.9072 11.7292 21.9125 11.5626C21.9009 11.5157 21.8924 11.4677 21.8874 11.4189L21.4071 6.79251Z" fill="#7369AB"/>
</g>
</svg>
