<svg width="24" height="24" viewBox="0 0 24 24" fill="none" xmlns="http://www.w3.org/2000/svg">
<path fill-rule="evenodd" clip-rule="evenodd" d="M12 4C7.58172 4 4 7.58172 4 12C4 16.4183 7.58172 20 12 20C16.4183 20 20 16.4183 20 12C20 7.58172 16.4183 4 12 4ZM2 12C2 6.47715 6.47715 2 12 2C17.5228 2 22 6.47715 22 12C22 17.5228 17.5228 22 12 22C6.47715 22 2 17.5228 2 12Z" fill="#7369AB"/>
<path fill-rule="evenodd" clip-rule="evenodd" d="M10.75 9.5C10.3358 9.5 10 9.83579 10 10.25C10 10.6642 10.3358 11 10.75 11H13.25C14.7688 11 16 12.2312 16 13.75C16 15.2688 14.7688 16.5 13.25 16.5H10.412C9.63096 16.5 8.88073 16.1954 8.32074 15.651L8.30292 15.6337C7.90694 15.2487 7.89802 14.6156 8.28301 14.2196C8.66799 13.8236 9.30109 13.8147 9.69708 14.1997L9.7149 14.217C9.90156 14.3985 10.1516 14.5 10.412 14.5H13.25C13.6642 14.5 14 14.1642 14 13.75C14 13.3358 13.6642 13 13.25 13H10.75C9.23122 13 8 11.7688 8 10.25C8 8.73122 9.23122 7.5 10.75 7.5H13.0759C13.7777 7.5 14.4573 7.74605 14.9965 8.19534L15.1402 8.31511C15.5645 8.66868 15.6218 9.29924 15.2682 9.72352C14.9147 10.1478 14.2841 10.2051 13.8598 9.85155L13.7161 9.73178C13.5364 9.58202 13.3098 9.5 13.0759 9.5H10.75Z" fill="#7369AB"/>
<path fill-rule="evenodd" clip-rule="evenodd" d="M12 6C12.5523 6 13 6.44772 13 7L13 8C13 8.55228 12.5523 9 12 9C11.4477 9 11 8.55228 11 8L11 7C11 6.44772 11.4477 6 12 6Z" fill="#7369AB"/>
<path fill-rule="evenodd" clip-rule="evenodd" d="M12 15C12.5523 15 13 15.4477 13 16V17C13 17.5523 12.5523 18 12 18C11.4477 18 11 17.5523 11 17V16C11 15.4477 11.4477 15 12 15Z" fill="#7369AB"/>
</svg>
