<svg width="24" height="24" viewBox="0 0 24 24" fill="none" xmlns="http://www.w3.org/2000/svg">
<path fill-rule="evenodd" clip-rule="evenodd" d="M9.75001 7.5C8.78351 7.5 8.00001 8.2835 8.00001 9.25C8.00001 10.2165 8.78351 11 9.75001 11H14.25C16.3211 11 18 12.6789 18 14.75C18 16.8211 16.3211 18.5 14.25 18.5H9.16696C8.16619 18.5 7.20178 18.1249 6.46406 17.4486L6.32428 17.3205C5.91716 16.9473 5.88966 16.3147 6.26285 15.9076C6.63604 15.5005 7.26861 15.473 7.67573 15.8462L7.81551 15.9743C8.18437 16.3124 8.66657 16.5 9.16696 16.5H14.25C15.2165 16.5 16 15.7165 16 14.75C16 13.7835 15.2165 13 14.25 13H9.75001C7.67894 13 6.00001 11.3211 6.00001 9.25C6.00001 7.17893 7.67894 5.5 9.75001 5.5H13.9624C14.8587 5.5 15.729 5.801 16.4337 6.35473L16.7845 6.63035C17.2188 6.97156 17.2942 7.60022 16.953 8.03449C16.6118 8.46876 15.9831 8.5442 15.5489 8.20298L15.1981 7.92736C14.8457 7.6505 14.4105 7.5 13.9624 7.5H9.75001Z" fill="#7369AB"/>
<path fill-rule="evenodd" clip-rule="evenodd" d="M12 4C12.5523 4 13 4.44772 13 5L13 19C13 19.5523 12.5523 20 12 20C11.4477 20 11 19.5523 11 19L11 5C11 4.44772 11.4477 4 12 4Z" fill="#7369AB"/>
</svg>
