<svg width="24" height="24" viewBox="0 0 24 24" fill="none" xmlns="http://www.w3.org/2000/svg">
<path fill-rule="evenodd" clip-rule="evenodd" d="M11 5.0718C10.1979 5.18757 9.41942 5.44213 8.70023 5.82655C7.685 6.3692 6.81926 7.15386 6.17972 8.11101C5.54017 9.06816 5.14654 10.1683 5.03371 11.3139C4.92088 12.4595 5.09232 13.6153 5.53285 14.6788C5.97337 15.7423 6.66939 16.6808 7.55925 17.4111C8.44911 18.1414 9.50533 18.6409 10.6344 18.8655C11.7634 19.0901 12.9304 19.0327 14.032 18.6986C14.8124 18.4619 15.5428 18.0914 16.1919 17.6061L14.1773 15.5915C13.8782 15.7729 13.5565 15.9168 13.2192 16.0191C12.5582 16.2196 11.858 16.254 11.1806 16.1193C10.5032 15.9846 9.86946 15.6848 9.33555 15.2466C8.80164 14.8085 8.38403 14.2454 8.11971 13.6073C7.85539 12.9692 7.75253 12.2757 7.82023 11.5883C7.88793 10.901 8.1241 10.2409 8.50783 9.6666C8.89156 9.09231 9.411 8.62152 10.0201 8.29593C10.331 8.12979 10.6603 8.00407 11 7.92078V5.0718ZM7.75743 4.06271C9.06273 3.36501 10.5199 3 12 3C12.5523 3 13 3.44772 13 4V8.8C13 9.06522 12.8946 9.31957 12.7071 9.50711C12.5196 9.69464 12.2652 9.8 12 9.8C11.6382 9.8 11.282 9.88923 10.9629 10.0598C10.6439 10.2303 10.3718 10.4769 10.1708 10.7777C9.96977 11.0786 9.84606 11.4243 9.8106 11.7844C9.77513 12.1444 9.82902 12.5077 9.96747 12.8419C10.1059 13.1762 10.3247 13.4711 10.6043 13.7006C10.884 13.9301 11.216 14.0871 11.5708 14.1577C11.9256 14.2283 12.2924 14.2103 12.6386 14.1053C12.9848 14.0002 13.2998 13.8115 13.5556 13.5556C13.7432 13.3681 13.9975 13.2627 14.2627 13.2627C14.528 13.2627 14.7823 13.3681 14.9699 13.5556L18.364 16.9497C18.7545 17.3403 18.7545 17.9734 18.364 18.364C17.3174 19.4105 16.0289 20.1828 14.6126 20.6125C13.1962 21.0421 11.6958 21.1158 10.2442 20.8271C8.79257 20.5383 7.43456 19.896 6.29046 18.9571C5.14636 18.0182 4.25148 16.8115 3.68509 15.4442C3.11869 14.0768 2.89827 12.5908 3.04334 11.1178C3.18841 9.64491 3.6945 8.23049 4.51678 6.99987C5.33905 5.76924 6.45214 4.7604 7.75743 4.06271Z" fill="#7369AB"/>
<path fill-rule="evenodd" clip-rule="evenodd" d="M11 4C11 3.44772 11.4477 3 12 3C13.78 3 15.5201 3.52784 17.0001 4.51677C18.4802 5.50571 19.6337 6.91131 20.3149 8.55585C20.9961 10.2004 21.1743 12.01 20.8271 13.7558C20.4798 15.5016 19.6226 17.1053 18.364 18.364C17.9734 18.7545 17.3403 18.7545 16.9497 18.364L13.5556 14.9698C13.1651 14.5793 13.1651 13.9462 13.5556 13.5556C13.8633 13.248 14.0728 12.856 14.1577 12.4292C14.2426 12.0024 14.199 11.5601 14.0325 11.1581C13.866 10.7561 13.584 10.4125 13.2223 10.1708C12.8605 9.92903 12.4351 9.8 12 9.8C11.4477 9.8 11 9.35228 11 8.8V4ZM13 5.07179V7.92078C13.4728 8.03669 13.9244 8.23453 14.3334 8.50783C15.0241 8.96933 15.5624 9.62528 15.8803 10.3927C16.1982 11.1602 16.2814 12.0047 16.1193 12.8194C16.0233 13.3019 15.8439 13.7611 15.5915 14.1773L17.6061 16.1919C18.2289 15.3589 18.6609 14.394 18.8655 13.3656C19.1356 12.0078 18.997 10.6003 18.4672 9.32122C17.9373 8.04213 17.0401 6.94888 15.889 6.17971C15.0172 5.5972 14.0294 5.22038 13 5.07179Z" fill="#7369AB"/>
</svg>
