<svg width="24" height="24" viewBox="0 0 24 24" fill="none" xmlns="http://www.w3.org/2000/svg">
<path fill-rule="evenodd" clip-rule="evenodd" d="M10.5858 12C11.3668 11.2189 12.6332 11.2189 13.4142 12L19.7071 18.2929C20.0976 18.6834 20.0976 19.3166 19.7071 19.7071C19.3166 20.0976 18.6834 20.0976 18.2929 19.7071L12 13.4142L5.70711 19.7071C5.31658 20.0976 4.68342 20.0976 4.29289 19.7071C3.90237 19.3166 3.90237 18.6834 4.29289 18.2929L10.5858 12Z" fill="#7369AB"/>
<path fill-rule="evenodd" clip-rule="evenodd" d="M10.5858 3.99997C11.3668 3.21892 12.6332 3.21892 13.4142 3.99997L19.7071 10.2929C20.0976 10.6834 20.0976 11.3166 19.7071 11.7071C19.3166 12.0976 18.6834 12.0976 18.2929 11.7071L12 5.41418L5.70711 11.7071C5.31658 12.0976 4.68342 12.0976 4.29289 11.7071C3.90237 11.3166 3.90237 10.6834 4.29289 10.2929L10.5858 3.99997Z" fill="#7369AB"/>
</svg>
