<svg width="24" height="24" viewBox="0 0 24 24" fill="none" xmlns="http://www.w3.org/2000/svg">
<path fill-rule="evenodd" clip-rule="evenodd" d="M13.4142 12C12.6332 12.7811 11.3668 12.7811 10.5858 12L4.29289 5.70713C3.90237 5.31661 3.90237 4.68345 4.29289 4.29292C4.68342 3.9024 5.31658 3.9024 5.70711 4.29292L12 10.5858L18.2929 4.29292C18.6834 3.9024 19.3166 3.9024 19.7071 4.29292C20.0976 4.68345 20.0976 5.31661 19.7071 5.70714L13.4142 12Z" fill="#7369AB"/>
<path fill-rule="evenodd" clip-rule="evenodd" d="M13.4142 20C12.6332 20.781 11.3668 20.781 10.5858 20L4.29289 13.7071C3.90237 13.3166 3.90237 12.6834 4.29289 12.2929C4.68342 11.9024 5.31658 11.9024 5.70711 12.2929L12 18.5858L18.2929 12.2929C18.6834 11.9024 19.3166 11.9024 19.7071 12.2929C20.0976 12.6834 20.0976 13.3166 19.7071 13.7071L13.4142 20Z" fill="#7369AB"/>
</svg>
