<svg width="24" height="24" viewBox="0 0 24 24" fill="none" xmlns="http://www.w3.org/2000/svg">
<path fill-rule="evenodd" clip-rule="evenodd" d="M12.5 10.5858C13.2811 11.3668 13.2811 12.6332 12.5 13.4142L6.20713 19.7071C5.81661 20.0976 5.18345 20.0976 4.79292 19.7071C4.4024 19.3166 4.4024 18.6834 4.79292 18.2929L11.0858 12L4.79292 5.70711C4.4024 5.31658 4.4024 4.68342 4.79292 4.29289C5.18345 3.90237 5.81661 3.90237 6.20714 4.29289L12.5 10.5858Z" fill="#7369AB"/>
<path fill-rule="evenodd" clip-rule="evenodd" d="M20.5 10.5858C21.2811 11.3668 21.2811 12.6332 20.5 13.4142L14.2071 19.7071C13.8166 20.0976 13.1834 20.0976 12.7929 19.7071C12.4024 19.3166 12.4024 18.6834 12.7929 18.2929L19.0858 12L12.7929 5.70711C12.4024 5.31658 12.4024 4.68342 12.7929 4.29289C13.1834 3.90237 13.8166 3.90237 14.2071 4.29289L20.5 10.5858Z" fill="#7369AB"/>
</svg>
