<svg width="24" height="24" viewBox="0 0 24 24" fill="none" xmlns="http://www.w3.org/2000/svg">
<path fill-rule="evenodd" clip-rule="evenodd" d="M8 5C8 3.34315 9.34315 2 11 2H13C14.6569 2 16 3.34315 16 5V7C16 7.55228 15.5523 8 15 8H9C8.44772 8 8 7.55228 8 7V5ZM11 4C10.4477 4 10 4.44772 10 5V6H14V5C14 4.44772 13.5523 4 13 4H11Z" fill="#7369AB"/>
<path fill-rule="evenodd" clip-rule="evenodd" d="M7 6C6.44772 6 6 6.44772 6 7V19C6 19.5523 6.44772 20 7 20H11C11.5523 20 12 20.4477 12 21C12 21.5523 11.5523 22 11 22H7C5.34315 22 4 20.6569 4 19V7C4 5.34315 5.34315 4 7 4H9C9.55228 4 10 4.44772 10 5C10 5.55228 9.55228 6 9 6H7ZM14 5C14 4.44772 14.4477 4 15 4H17C18.6569 4 20 5.34315 20 7V12C20 12.5523 19.5523 13 19 13C18.4477 13 18 12.5523 18 12V7C18 6.44772 17.5523 6 17 6H15C14.4477 6 14 5.55228 14 5Z" fill="#7369AB"/>
<path fill-rule="evenodd" clip-rule="evenodd" d="M16.5 14C17.0523 14 17.5 14.4477 17.5 15V18.5858L18.2929 17.7929C18.6834 17.4024 19.3166 17.4024 19.7071 17.7929C20.0976 18.1834 20.0976 18.8166 19.7071 19.2071L17.2071 21.7071C16.8166 22.0976 16.1834 22.0976 15.7929 21.7071L13.2929 19.2071C12.9024 18.8166 12.9024 18.1834 13.2929 17.7929C13.6834 17.4024 14.3166 17.4024 14.7071 17.7929L15.5 18.5858V15C15.5 14.4477 15.9477 14 16.5 14Z" fill="#7369AB"/>
</svg>
