<svg width="24" height="24" viewBox="0 0 24 24" fill="none" xmlns="http://www.w3.org/2000/svg">
<path fill-rule="evenodd" clip-rule="evenodd" d="M20.8001 6.39993C21.1314 6.84176 21.0419 7.46856 20.6001 7.79993L14.4001 12.45C12.9778 13.5166 11.0223 13.5166 9.60005 12.45L3.40006 7.79999C2.95823 7.46861 2.86869 6.84181 3.20006 6.39999C3.53143 5.95816 4.15823 5.86861 4.60006 6.19999L10.8001 10.85C11.5112 11.3833 12.4889 11.3833 13.2001 10.85L19.4001 6.19994C19.8419 5.86857 20.4687 5.95811 20.8001 6.39993Z" fill="#7369AB"/>
<path fill-rule="evenodd" clip-rule="evenodd" d="M2 7C2 5.34315 3.34315 4 5 4H19C20.6569 4 22 5.34315 22 7V12C22 12.5523 21.5523 13 21 13C20.4477 13 20 12.5523 20 12V7C20 6.44772 19.5523 6 19 6H5C4.44772 6 4 6.44772 4 7V17C4 17.5523 4.44772 18 5 18H13C13.5523 18 14 18.4477 14 19C14 19.5523 13.5523 20 13 20H5C3.34315 20 2 18.6569 2 17V7Z" fill="#7369AB"/>
<path fill-rule="evenodd" clip-rule="evenodd" d="M18.5 13C19.0523 13 19.5 13.4477 19.5 14V17.5858L20.2929 16.7929C20.6834 16.4024 21.3166 16.4024 21.7071 16.7929C22.0976 17.1834 22.0976 17.8166 21.7071 18.2071L19.2071 20.7071C18.8166 21.0976 18.1834 21.0976 17.7929 20.7071L15.2929 18.2071C14.9024 17.8166 14.9024 17.1834 15.2929 16.7929C15.6834 16.4024 16.3166 16.4024 16.7071 16.7929L17.5 17.5858V14C17.5 13.4477 17.9477 13 18.5 13Z" fill="#7369AB"/>
</svg>
