<svg width="16" height="16" viewBox="0 0 16 16" fill="none" xmlns="http://www.w3.org/2000/svg">
<path fill-rule="evenodd" clip-rule="evenodd" d="M8 0C8.55228 0 9 0.447715 9 1V8.58579L9.29289 8.29289C9.68342 7.90237 10.3166 7.90237 10.7071 8.29289C11.0976 8.68342 11.0976 9.31658 10.7071 9.70711L8.70711 11.7071C8.31658 12.0976 7.68342 12.0976 7.29289 11.7071L5.29289 9.70711C4.90237 9.31658 4.90237 8.68342 5.29289 8.29289C5.68342 7.90237 6.31658 7.90237 6.70711 8.29289L7 8.58579V1C7 0.447715 7.44772 0 8 0ZM1 10C1.55228 10 2 10.4477 2 11V13C2 13.5523 2.44772 14 3 14H13C13.5523 14 14 13.5523 14 13V11C14 10.4477 14.4477 10 15 10C15.5523 10 16 10.4477 16 11V13C16 14.6569 14.6569 16 13 16H3C1.34315 16 0 14.6569 0 13V11C0 10.4477 0.447715 10 1 10Z" fill="#7369AB"/>
</svg>
