<svg width="24" height="24" viewBox="0 0 24 24" fill="none" xmlns="http://www.w3.org/2000/svg">
<path fill-rule="evenodd" clip-rule="evenodd" d="M5 6C4.44772 6 4 6.44772 4 7V17C4 17.5523 4.44772 18 5 18H12C12.5523 18 13 18.4477 13 19C13 19.5523 12.5523 20 12 20H5C3.34315 20 2 18.6569 2 17V7C2 5.34315 3.34315 4 5 4H9.58579C10.1162 4 10.6249 4.21071 11 4.58579L12.4142 6H19C20.6569 6 22 7.34315 22 9V11C22 11.5523 21.5523 12 21 12C20.4477 12 20 11.5523 20 11V9C20 8.44772 19.5523 8 19 8H12C11.7348 8 11.4804 7.89464 11.2929 7.70711L9.58579 6H5Z" fill="#7369AB"/>
<path fill-rule="evenodd" clip-rule="evenodd" d="M18.5 13C19.0523 13 19.5 13.4477 19.5 14V17.5858L20.2929 16.7929C20.6834 16.4024 21.3166 16.4024 21.7071 16.7929C22.0976 17.1834 22.0976 17.8166 21.7071 18.2071L19.2071 20.7071C18.8166 21.0976 18.1834 21.0976 17.7929 20.7071L15.2929 18.2071C14.9024 17.8166 14.9024 17.1834 15.2929 16.7929C15.6834 16.4024 16.3166 16.4024 16.7071 16.7929L17.5 17.5858V14C17.5 13.4477 17.9477 13 18.5 13Z" fill="#7369AB"/>
</svg>
