<svg width="24" height="24" viewBox="0 0 24 24" fill="none" xmlns="http://www.w3.org/2000/svg">
<path fill-rule="evenodd" clip-rule="evenodd" d="M7 6C6.44772 6 6 6.44772 6 7V15H18V12.5C18 11.9477 18.4477 11.5 19 11.5C19.5523 11.5 20 11.9477 20 12.5V16C20 16.5523 19.5523 17 19 17H5C4.44772 17 4 16.5523 4 16V7C4 5.34315 5.34315 4 7 4H12C12.5523 4 13 4.44772 13 5C13 5.55228 12.5523 6 12 6H7Z" fill="#7369AB"/>
<path fill-rule="evenodd" clip-rule="evenodd" d="M2 16C2 15.4477 2.44772 15 3 15H21C21.5523 15 22 15.4477 22 16V17C22 18.6569 20.6569 20 19 20H5C3.34315 20 2 18.6569 2 17V16ZM4 17C4 17.5523 4.44772 18 5 18H19C19.5523 18 20 17.5523 20 17H4Z" fill="#7369AB"/>
<path fill-rule="evenodd" clip-rule="evenodd" d="M18.5 2C19.0523 2 19.5 2.44772 19.5 3V6.58579L20.2929 5.79289C20.6834 5.40237 21.3166 5.40237 21.7071 5.79289C22.0976 6.18342 22.0976 6.81658 21.7071 7.20711L19.2071 9.70711C18.8166 10.0976 18.1834 10.0976 17.7929 9.70711L15.2929 7.20711C14.9024 6.81658 14.9024 6.18342 15.2929 5.79289C15.6834 5.40237 16.3166 5.40237 16.7071 5.79289L17.5 6.58579V3C17.5 2.44772 17.9477 2 18.5 2Z" fill="#7369AB"/>
</svg>
