<svg width="24" height="24" viewBox="0 0 24 24" fill="none" xmlns="http://www.w3.org/2000/svg">
<path fill-rule="evenodd" clip-rule="evenodd" d="M6 5C5.44772 5 5 5.44772 5 6V14C5 14.5523 5.44772 15 6 15H18C18.5523 15 19 14.5523 19 14V12C19 11.4477 19.4477 11 20 11C20.5523 11 21 11.4477 21 12V14C21 15.6569 19.6569 17 18 17H6C4.34315 17 3 15.6569 3 14V6C3 4.34315 4.34315 3 6 3H12C12.5523 3 13 3.44772 13 4C13 4.55228 12.5523 5 12 5H6Z" fill="#7369AB"/>
<path fill-rule="evenodd" clip-rule="evenodd" d="M17.5 2C18.0523 2 18.5 2.44772 18.5 3V6.58579L19.2929 5.79289C19.6834 5.40237 20.3166 5.40237 20.7071 5.79289C21.0976 6.18342 21.0976 6.81658 20.7071 7.20711L18.2071 9.70711C17.8166 10.0976 17.1834 10.0976 16.7929 9.70711L14.2929 7.20711C13.9024 6.81658 13.9024 6.18342 14.2929 5.79289C14.6834 5.40237 15.3166 5.40237 15.7071 5.79289L16.5 6.58579V3C16.5 2.44772 16.9477 2 17.5 2Z" fill="#7369AB"/>
<path fill-rule="evenodd" clip-rule="evenodd" d="M12 15C12.5523 15 13 15.4477 13 16V20C13 20.5523 12.5523 21 12 21C11.4477 21 11 20.5523 11 20V16C11 15.4477 11.4477 15 12 15Z" fill="#7369AB"/>
<path fill-rule="evenodd" clip-rule="evenodd" d="M7 20C7 19.4477 7.44772 19 8 19H16C16.5523 19 17 19.4477 17 20C17 20.5523 16.5523 21 16 21H8C7.44772 21 7 20.5523 7 20Z" fill="#7369AB"/>
</svg>
