<svg width="24" height="24" viewBox="0 0 24 24" fill="none" xmlns="http://www.w3.org/2000/svg">
<path fill-rule="evenodd" clip-rule="evenodd" d="M8 4C6.89543 4 6 4.89543 6 6V18C6 19.1046 6.89543 20 8 20H12C12.5523 20 13 20.4477 13 21C13 21.5523 12.5523 22 12 22H8C5.79086 22 4 20.2091 4 18V6C4 3.79086 5.79086 2 8 2H13.5C13.7691 2 14.0269 2.10847 14.215 2.30088L19.715 7.92588C19.8977 8.11273 20 8.36367 20 8.625V11.8125C20 12.3648 19.5523 12.8125 19 12.8125C18.4477 12.8125 18 12.3648 18 11.8125V9.625H14.5C13.3954 9.625 12.5 8.72957 12.5 7.625V4H8ZM14.5 5.4531L16.6236 7.625H14.5V5.4531Z" fill="#7369AB"/>
<path fill-rule="evenodd" clip-rule="evenodd" d="M17.5 14C18.0523 14 18.5 14.4477 18.5 15V18.5858L19.2929 17.7929C19.6834 17.4024 20.3166 17.4024 20.7071 17.7929C21.0976 18.1834 21.0976 18.8166 20.7071 19.2071L18.2071 21.7071C17.8166 22.0976 17.1834 22.0976 16.7929 21.7071L14.2929 19.2071C13.9024 18.8166 13.9024 18.1834 14.2929 17.7929C14.6834 17.4024 15.3166 17.4024 15.7071 17.7929L16.5 18.5858V15C16.5 14.4477 16.9477 14 17.5 14Z" fill="#7369AB"/>
</svg>
