<svg width="24" height="24" viewBox="0 0 24 24" fill="none" xmlns="http://www.w3.org/2000/svg">
<path fill-rule="evenodd" clip-rule="evenodd" d="M12 4C7.58172 4 4 7.58172 4 12C4 16.4183 7.58172 20 12 20C16.4183 20 20 16.4183 20 12C20 7.58172 16.4183 4 12 4ZM2 12C2 6.47715 6.47715 2 12 2C17.5228 2 22 6.47715 22 12C22 17.5228 17.5228 22 12 22C6.47715 22 2 17.5228 2 12Z" fill="#7369AB"/>
<path fill-rule="evenodd" clip-rule="evenodd" d="M13.7652 2.40413C14.1208 2.82668 14.0665 3.45751 13.644 3.81314C13.3664 4.04679 13.1155 4.32314 12.9011 4.6413C11.6669 6.4735 12.1517 8.95934 13.9839 10.1936C14.1292 10.2915 14.2783 10.3784 14.4301 10.4546C15.1686 10.8251 15.6147 10.7602 16.0633 10.6656C16.1078 10.6562 16.1572 10.6446 16.2113 10.6318C16.697 10.5175 17.5514 10.3163 18.4222 10.9029C19.5891 11.689 19.8979 13.2722 19.1118 14.4392C18.9446 14.6873 18.7602 14.8954 18.6195 15.0533L18.6048 15.0697C18.4592 15.2331 18.3645 15.3392 18.2855 15.4504C18.1664 15.6178 18.0924 15.7747 18.1292 16.1063C18.1671 16.447 18.3896 16.8323 18.8586 17.2652C19.2644 17.6398 19.2897 18.2724 18.9151 18.6782C18.5405 19.0841 17.9079 19.1094 17.5021 18.7348C16.8776 18.1584 16.2563 17.36 16.1415 16.3273C16.043 15.442 16.2923 14.8022 16.6555 14.2914C16.8016 14.086 16.967 13.9009 17.093 13.7599C17.1046 13.747 17.1158 13.7345 17.1266 13.7223C17.269 13.5627 17.37 13.4451 17.453 13.3218C17.622 13.071 17.5556 12.7306 17.3048 12.5617C17.3015 12.5595 17.2984 12.5573 17.2953 12.5552C17.18 12.4771 17.1766 12.4748 16.476 12.6225C15.7615 12.7732 14.8131 12.8844 13.5331 12.2421C13.3054 12.1279 13.0827 11.998 12.8665 11.8523C10.1182 10.001 9.39104 6.27222 11.2424 3.52391C11.5616 3.05006 11.9377 2.63511 12.3561 2.28297C12.7787 1.92734 13.4095 1.98158 13.7652 2.40413Z" fill="#7369AB"/>
<path fill-rule="evenodd" clip-rule="evenodd" d="M3.02834 9.04359C3.15894 8.50697 3.69982 8.17781 4.23644 8.3084C5.53435 8.62426 6.73717 9.37458 7.60423 10.5236C8.52864 11.7486 8.91228 13.2157 8.79439 14.6333C8.78116 14.7924 8.91313 15.1102 9.22763 15.3163C9.57626 15.5449 9.89121 15.8358 10.1548 16.1851C11.3269 17.7384 11.0927 19.9135 9.66582 21.1868C9.25375 21.5546 8.62161 21.5186 8.25388 21.1066C7.88616 20.6945 7.9221 20.0624 8.33416 19.6946C8.99082 19.1086 9.09823 18.1053 8.5583 17.3898C8.43522 17.2267 8.29019 17.0932 8.13115 16.989C7.39495 16.5064 6.71038 15.5605 6.80127 14.4675C6.87999 13.521 6.62469 12.5458 6.00777 11.7283C5.42881 10.9611 4.62938 10.4624 3.76353 10.2517C3.22691 10.1211 2.89775 9.58022 3.02834 9.04359Z" fill="#7369AB"/>
</svg>
