<svg width="24" height="24" viewBox="0 0 24 24" fill="none" xmlns="http://www.w3.org/2000/svg">
<path fill-rule="evenodd" clip-rule="evenodd" d="M16.2573 3.49997C17.0383 2.71892 18.3047 2.71892 19.0857 3.49997L20.4999 4.91418C21.281 5.69523 21.281 6.96156 20.4999 7.74261L9.67084 18.5718C9.25203 18.9906 8.71863 19.2761 8.13785 19.3923L5.19612 19.9806C4.86826 20.0462 4.52932 19.9436 4.29289 19.7071C4.05647 19.4707 3.95385 19.1318 4.01942 18.8039L4.60777 15.8622C4.72392 15.2814 5.00938 14.748 5.42818 14.3292L16.2573 3.49997ZM19.0857 6.3284L17.6715 4.91418L16.9644 5.62129L18.3786 7.0355L19.0857 6.3284ZM16.9644 8.44972L15.5502 7.03551L6.8424 15.7434C6.7028 15.883 6.60765 16.0608 6.56893 16.2544L6.27476 17.7253L7.74562 17.4311C7.93921 17.3924 8.11701 17.2972 8.25661 17.1576L16.9644 8.44972Z" fill="#7369AB"/>
</svg>
