<svg width="24" height="24" viewBox="0 0 24 24" fill="none" xmlns="http://www.w3.org/2000/svg">
<path fill-rule="evenodd" clip-rule="evenodd" d="M3 5C3 4.44772 3.44772 4 4 4L15 4C15.5523 4 16 4.44772 16 5C16 5.55229 15.5523 6 15 6L4 6C3.44772 6 3 5.55228 3 5Z" fill="#7369AB"/>
<path fill-rule="evenodd" clip-rule="evenodd" d="M3 8C3 7.44772 3.44772 7 4 7H15C15.5523 7 16 7.44772 16 8C16 8.55228 15.5523 9 15 9H4C3.44772 9 3 8.55228 3 8Z" fill="#7369AB"/>
<path fill-rule="evenodd" clip-rule="evenodd" d="M3 11C3 10.4477 3.44772 10 4 10H11C11.5523 10 12 10.4477 12 11C12 11.5523 11.5523 12 11 12H4C3.44772 12 3 11.5523 3 11Z" fill="#7369AB"/>
<path fill-rule="evenodd" clip-rule="evenodd" d="M16.7313 9.55975C17.5123 8.7787 18.7787 8.7787 19.5597 9.55975L20.2921 10.2921C21.0732 11.0732 21.0732 12.3395 20.2921 13.1206L18.1455 10.974L17.7239 11.3956L18.4563 12.128L18.8779 11.7064L20.2921 13.1206L14.6339 18.7789C14.2151 19.1977 13.6817 19.4832 13.1009 19.5993L11.0114 20.0172C10.6836 20.0828 10.3446 19.9802 10.1082 19.7438C9.87178 19.5073 9.76916 19.1684 9.83473 18.8405L10.2526 16.7511C10.3688 16.1703 10.6542 15.6369 11.073 15.2181L16.7313 9.55975ZM17.042 13.5422L16.3097 12.8098L12.4873 16.6323C12.3477 16.7719 12.2525 16.9497 12.2138 17.1433L12.0901 17.7619L12.7087 17.6382C12.9022 17.5995 13.08 17.5043 13.2196 17.3647L17.042 13.5422Z" fill="#7369AB"/>
</svg>
