<svg width="24" height="24" viewBox="0 0 24 24" fill="none" xmlns="http://www.w3.org/2000/svg">
<path fill-rule="evenodd" clip-rule="evenodd" d="M7 6C6.44772 6 6 6.44772 6 7V19C6 19.5523 6.44772 20 7 20H9C9.55228 20 10 20.4477 10 21C10 21.5523 9.55228 22 9 22H7C5.34315 22 4 20.6569 4 19V7C4 5.34315 5.34315 4 7 4H9C9.55228 4 10 4.44772 10 5C10 5.55228 9.55228 6 9 6H7ZM14 5C14 4.44772 14.4477 4 15 4H17C18.6569 4 20 5.34315 20 7V9C20 9.55228 19.5523 10 19 10C18.4477 10 18 9.55228 18 9V7C18 6.44772 17.5523 6 17 6H15C14.4477 6 14 5.55228 14 5Z" fill="#7369AB"/>
<path fill-rule="evenodd" clip-rule="evenodd" d="M19.5 11C19.7652 11 20.0196 11.1054 20.2071 11.2929L22.194 13.2798C22.5845 13.6703 22.5845 14.3034 22.194 14.694L16.1201 20.7679C15.8409 21.0471 15.4853 21.2375 15.0981 21.3149L12.9114 21.7522C12.5836 21.8178 12.2446 21.7152 12.0082 21.4788C11.7718 21.2423 11.6691 20.9034 11.7347 20.5755L12.1721 18.3888C12.2495 18.0017 12.4398 17.6461 12.719 17.3669L18.7929 11.2929C18.9804 11.1054 19.2348 11 19.5 11ZM19.5 13.4142L14.1332 18.7811L13.9901 19.4969L14.7059 19.3537L20.0726 13.9869L19.5 13.4142Z" fill="#7369AB"/>
<path fill-rule="evenodd" clip-rule="evenodd" d="M8 5C8 3.34315 9.34315 2 11 2H13C14.6569 2 16 3.34315 16 5V7C16 7.55228 15.5523 8 15 8H9C8.44772 8 8 7.55228 8 7V5ZM11 4C10.4477 4 10 4.44772 10 5V6H14V5C14 4.44772 13.5523 4 13 4H11Z" fill="#7369AB"/>
</svg>
