<svg width="24" height="24" viewBox="0 0 24 24" fill="none" xmlns="http://www.w3.org/2000/svg">
<path fill-rule="evenodd" clip-rule="evenodd" d="M16.2573 3.5C17.0383 2.71895 18.3047 2.71895 19.0857 3.5L20.4999 4.91421C21.281 5.69526 21.281 6.96159 20.4999 7.74264L12.1709 16.0718C11.7521 16.4906 11.2187 16.7761 10.6379 16.8922L7.69617 17.4806C7.36831 17.5462 7.02937 17.4435 6.79295 17.2071C6.55653 16.9707 6.4539 16.6317 6.51948 16.3039L7.10783 13.3621C7.22398 12.7814 7.50944 12.248 7.92823 11.8292L16.2573 3.5ZM18.3786 7.03553L19.0857 6.32843L17.6715 4.91421L16.9644 5.62132L18.3786 7.03553ZM15.5502 7.03554L9.34246 13.2434C9.20286 13.383 9.10771 13.5608 9.06899 13.7544L8.77481 15.2252L10.2457 14.9311C10.4393 14.8924 10.6171 14.7972 10.7567 14.6576L16.9644 8.44975L15.5502 7.03554Z" fill="#7369AB"/>
<path fill-rule="evenodd" clip-rule="evenodd" d="M4 20C4 19.4477 4.44772 19 5 19H19C19.5523 19 20 19.4477 20 20C20 20.5523 19.5523 21 19 21H5C4.44772 21 4 20.5523 4 20Z" fill="#7369AB"/>
</svg>
