<svg width="24" height="24" viewBox="0 0 24 24" fill="none" xmlns="http://www.w3.org/2000/svg">
<path fill-rule="evenodd" clip-rule="evenodd" d="M15.9644 3.79294C17.136 2.62135 19.0355 2.62135 20.2071 3.79293C21.3786 4.96449 21.3786 6.86397 20.2071 8.03555L13.0851 15.1577C12.6663 15.5765 12.1329 15.8619 11.5521 15.9781L8.61034 16.5664C8.28248 16.632 7.94354 16.5294 7.70712 16.293C7.47069 16.0565 7.36807 15.7176 7.43364 15.3898L8.02199 12.448C8.13815 11.8672 8.42361 11.3338 8.8424 10.915L15.9644 3.79294ZM18.7928 5.20714C18.4023 4.81661 17.7692 4.81661 17.3786 5.20714L17 5.58577L18.4142 6.99999L18.7929 6.62135C19.1834 6.23082 19.1834 5.59766 18.7928 5.20714ZM17 8.41421L15.5858 7L10.2566 12.3292C10.117 12.4688 10.0219 12.6466 9.98315 12.8402L9.68898 14.3111L11.1598 14.0169C11.3534 13.9782 11.5312 13.8831 11.6708 13.7435L17 8.41421ZM6 5C5.44772 5 5 5.44772 5 6V18C5 18.5523 5.44772 19 6 19H18C18.5523 19 19 18.5523 19 18V12C19 11.4477 19.4477 11 20 11C20.5523 11 21 11.4477 21 12V18C21 19.6569 19.6569 21 18 21H6C4.34315 21 3 19.6569 3 18V6C3 4.34315 4.34315 3 6 3H12C12.5523 3 13 3.44772 13 4C13 4.55229 12.5523 5 12 5H6Z" fill="#7369AB"/>
</svg>
