<svg width="24" height="24" viewBox="0 0 24 24" fill="none" xmlns="http://www.w3.org/2000/svg">
<path fill-rule="evenodd" clip-rule="evenodd" d="M20.8001 8.39999C21.1314 8.84182 21.0419 9.46862 20.6001 9.8L14.4001 14.45C12.9778 15.5167 11.0223 15.5167 9.60005 14.45L3.40006 9.80005C2.95823 9.46868 2.86869 8.84187 3.20006 8.40005C3.53143 7.95822 4.15823 7.86868 4.60006 8.20005L10.8001 12.85C11.5112 13.3834 12.4889 13.3834 13.2001 12.85L19.4001 8.2C19.8419 7.86863 20.4687 7.95817 20.8001 8.39999Z" fill="#7369AB"/>
<path fill-rule="evenodd" clip-rule="evenodd" d="M12.4856 4.41375C12.1836 4.24596 11.8164 4.24596 11.5144 4.41375L4.51436 8.30263C4.19689 8.479 4 8.81362 4 9.17679V17C4 17.5523 4.44772 18 5 18H19C19.5523 18 20 17.5523 20 17V9.17679C20 8.81362 19.8031 8.479 19.4856 8.30263L12.4856 4.41375ZM10.5431 2.66543C11.4491 2.16206 12.5509 2.16206 13.4569 2.66543L20.4569 6.55432C21.4093 7.08343 22 8.08729 22 9.17679V17C22 18.6568 20.6569 20 19 20H5C3.34315 20 2 18.6568 2 17V9.17679C2 8.08729 2.59068 7.08343 3.54307 6.55432L10.5431 2.66543Z" fill="#7369AB"/>
</svg>
