<svg width="24" height="24" viewBox="0 0 24 24" fill="none" xmlns="http://www.w3.org/2000/svg">
<path fill-rule="evenodd" clip-rule="evenodd" d="M20.8001 6.39995C21.1314 6.84178 21.0419 7.46858 20.6001 7.79995L14.4001 12.45C12.9778 13.5167 11.0223 13.5167 9.60005 12.45L3.40006 7.8C2.95823 7.46863 2.86869 6.84183 3.20006 6.4C3.53143 5.95817 4.15823 5.86863 4.60006 6.2L10.8001 10.85C11.5112 11.3833 12.4889 11.3833 13.2001 10.85L19.4001 6.19995C19.8419 5.86858 20.4687 5.95812 20.8001 6.39995Z" fill="#7369AB"/>
<path fill-rule="evenodd" clip-rule="evenodd" d="M2 7C2 5.34315 3.34315 4 5 4H19C20.6569 4 22 5.34315 22 7V17C22 18.6569 20.6569 20 19 20H5C3.34315 20 2 18.6569 2 17V7ZM5 6C4.44772 6 4 6.44772 4 7V17C4 17.5523 4.44772 18 5 18H19C19.5523 18 20 17.5523 20 17V7C20 6.44772 19.5523 6 19 6H5Z" fill="#7369AB"/>
</svg>
