<svg width="24" height="24" viewBox="0 0 24 24" fill="none" xmlns="http://www.w3.org/2000/svg">
<path fill-rule="evenodd" clip-rule="evenodd" d="M7.07262 7.76781C10.372 6.67765 13.5204 6.85951 16.2047 7.62123C18.6518 8.31566 20.7274 9.49507 22.2184 10.655C23.2508 11.4582 23.2149 12.9145 22.3757 13.7537L21.246 14.8834C20.5233 15.6061 19.3909 15.7182 18.5405 15.1513L15.8865 13.3819C15.29 12.9842 14.9317 12.3148 14.9317 11.5979V9.35853C12.9352 8.89935 10.709 8.82798 8.38635 9.46016L8.38635 12.2197C8.38635 12.9729 7.99119 13.6708 7.34536 14.0583L5.38019 15.2374L4.86569 14.3799L5.38019 15.2374C4.53653 15.7436 3.45661 15.6107 2.76091 14.915L1.62615 13.7802C0.763187 12.9172 0.767639 11.4437 1.79529 10.6429C3.55097 9.27477 5.3246 8.34538 7.07262 7.76781L7.28243 8.40282L7.07262 7.76781ZM6.38635 10.1765C5.28175 10.6697 4.15638 11.3385 3.02464 12.2205C3.01373 12.229 3.00946 12.2357 3.00696 12.2407C3.00389 12.2468 3.00062 12.2567 3.00004 12.2707C2.99885 12.2994 3.00918 12.3348 3.04036 12.366L4.17513 13.5007C4.22189 13.5475 4.29449 13.5564 4.3512 13.5224L6.31637 12.3433C6.35979 12.3173 6.38635 12.2704 6.38635 12.2197L6.38635 10.1765ZM16.9317 9.9675V11.5979C16.9317 11.6461 16.9558 11.6911 16.9959 11.7178L19.6499 13.4872C19.7071 13.5253 19.7832 13.5178 19.8318 13.4692L20.9614 12.3395C20.9927 12.3083 21.0006 12.2754 20.9999 12.2549C20.9996 12.2453 20.9975 12.2409 20.9973 12.2405L20.9966 12.2394C20.9962 12.2389 20.9945 12.2369 20.9903 12.2336C19.9423 11.4182 18.5535 10.5842 16.9317 9.9675Z" fill="#7369AB"/>
</svg>
