<svg width="24" height="24" viewBox="0 0 24 24" fill="none" xmlns="http://www.w3.org/2000/svg">
<path fill-rule="evenodd" clip-rule="evenodd" d="M9.58584 4.92893C9.58584 4.37665 10.0336 3.92893 10.5858 3.92893L16.2427 3.92893C16.6472 3.92893 17.0118 4.17257 17.1666 4.54625C17.3214 4.91992 17.2358 5.35004 16.9498 5.63604L8.46452 14.1213C8.07399 14.5118 7.44083 14.5118 7.0503 14.1213C6.65978 13.7308 6.65978 13.0976 7.0503 12.7071L13.8285 5.92893L10.5858 5.92893C10.0336 5.92893 9.58584 5.48122 9.58584 4.92893Z" fill="#7369AB"/>
<path fill-rule="evenodd" clip-rule="evenodd" d="M14.4142 19.0711C14.4142 19.6234 13.9664 20.0711 13.4142 20.0711L7.75731 20.0711C7.35284 20.0711 6.98821 19.8274 6.83343 19.4538C6.67865 19.0801 6.7642 18.65 7.0502 18.364L15.5355 9.87868C15.926 9.48816 16.5592 9.48816 16.9497 9.87868C17.3402 10.2692 17.3402 10.9024 16.9497 11.2929L10.1715 18.0711L13.4142 18.0711C13.9664 18.0711 14.4142 18.5188 14.4142 19.0711Z" fill="#7369AB"/>
</svg>
