<svg width="24" height="24" viewBox="0 0 24 24" fill="none" xmlns="http://www.w3.org/2000/svg">
<path fill-rule="evenodd" clip-rule="evenodd" d="M15.2929 5.29289C15.6834 4.90237 16.3166 4.90237 16.7071 5.29289L20.7071 9.29289C20.9931 9.57889 21.0787 10.009 20.9239 10.3827C20.7691 10.7564 20.4045 11 20 11H8C7.44772 11 7 10.5523 7 10C7 9.44772 7.44772 9 8 9H17.5858L15.2929 6.70711C14.9024 6.31658 14.9024 5.68342 15.2929 5.29289Z" fill="#7369AB"/>
<path fill-rule="evenodd" clip-rule="evenodd" d="M8.70711 18.7071C8.31658 19.0976 7.68342 19.0976 7.29289 18.7071L3.29289 14.7071C3.0069 14.4211 2.92134 13.991 3.07612 13.6173C3.2309 13.2436 3.59554 13 4 13L16 13C16.5523 13 17 13.4477 17 14C17 14.5523 16.5523 15 16 15L6.41421 15L8.70711 17.2929C9.09763 17.6834 9.09763 18.3166 8.70711 18.7071Z" fill="#7369AB"/>
</svg>
