<svg width="24" height="24" viewBox="0 0 24 24" fill="none" xmlns="http://www.w3.org/2000/svg">
<path fill-rule="evenodd" clip-rule="evenodd" d="M5 6C4.44772 6 4 6.44772 4 7V17C4 17.5523 4.44772 18 5 18H13C13.5523 18 14 18.4477 14 19C14 19.5523 13.5523 20 13 20H5C3.34315 20 2 18.6569 2 17V7C2 5.34315 3.34315 4 5 4H9.58579C10.1162 4 10.6249 4.21071 11 4.58579L12.4142 6H19C20.6569 6 22 7.34315 22 9V11C22 11.5523 21.5523 12 21 12C20.4477 12 20 11.5523 20 11V9C20 8.44772 19.5523 8 19 8H12C11.7348 8 11.4804 7.89464 11.2929 7.70711L9.58579 6H5Z" fill="#7369AB"/>
<path fill-rule="evenodd" clip-rule="evenodd" d="M18 13C18.5523 13 19 13.4477 19 14V17C19 17.5523 18.5523 18 18 18C17.4477 18 17 17.5523 17 17V14C17 13.4477 17.4477 13 18 13Z" fill="#7369AB"/>
<path d="M19 20C19 20.5523 18.5523 21 18 21C17.4477 21 17 20.5523 17 20C17 19.4477 17.4477 19 18 19C18.5523 19 19 19.4477 19 20Z" fill="#7369AB"/>
</svg>
