<svg width="24" height="24" viewBox="0 0 24 24" fill="none" xmlns="http://www.w3.org/2000/svg">
<path d="M21 16C21 16.5523 20.5523 17 20 17C19.4477 17 19 16.5523 19 16C19 15.4477 19.4477 15 20 15C20.5523 15 21 15.4477 21 16Z" fill="#7369AB"/>
<path d="M21 20C21 20.5523 20.5523 21 20 21C19.4477 21 19 20.5523 19 20C19 19.4477 19.4477 19 20 19C20.5523 19 21 19.4477 21 20Z" fill="#7369AB"/>
<path d="M17 20C17 20.5523 16.5523 21 16 21C15.4477 21 15 20.5523 15 20C15 19.4477 15.4477 19 16 19C16.5523 19 17 19.4477 17 20Z" fill="#7369AB"/>
<path d="M9 4C9 4.55228 8.55228 5 8 5C7.44772 5 7 4.55228 7 4C7 3.44772 7.44772 3 8 3C8.55228 3 9 3.44772 9 4Z" fill="#7369AB"/>
<path d="M21 12C21 12.5523 20.5523 13 20 13C19.4477 13 19 12.5523 19 12C19 11.4477 19.4477 11 20 11C20.5523 11 21 11.4477 21 12Z" fill="#7369AB"/>
<path d="M13 4C13 4.55228 12.5523 5 12 5C11.4477 5 11 4.55228 11 4C11 3.44772 11.4477 3 12 3C12.5523 3 13 3.44772 13 4Z" fill="#7369AB"/>
<path d="M5 4C5 4.55228 4.55228 5 4 5C3.44772 5 3 4.55228 3 4C3 3.44772 3.44772 3 4 3C4.55228 3 5 3.44772 5 4Z" fill="#7369AB"/>
<path d="M5 8C5 8.55228 4.55228 9 4 9C3.44772 9 3 8.55228 3 8C3 7.44772 3.44772 7 4 7C4.55228 7 5 7.44772 5 8Z" fill="#7369AB"/>
<path fill-rule="evenodd" clip-rule="evenodd" d="M7.16146 11H8.83855C9.36569 11 9.82046 11 10.195 11.0306C10.5904 11.0629 10.9836 11.1342 11.362 11.327C11.9265 11.6146 12.3854 12.0735 12.673 12.638C12.8658 13.0164 12.9371 13.4096 12.9694 13.805C13 14.1796 13 14.6343 13 15.1615V16.8385C13 17.3657 13 17.8205 12.9694 18.195C12.9371 18.5904 12.8658 18.9836 12.673 19.362C12.3854 19.9265 11.9265 20.3854 11.362 20.673C10.9836 20.8658 10.5904 20.9371 10.195 20.9694C9.82045 21 9.36568 21 8.83852 21H7.16148C6.63432 21 6.17955 21 5.80497 20.9694C5.40963 20.9371 5.01641 20.8658 4.63803 20.673C4.07354 20.3854 3.6146 19.9265 3.32698 19.362C3.13419 18.9836 3.06287 18.5904 3.03057 18.195C2.99997 17.8205 2.99998 17.3657 3 16.8385V15.1615C2.99998 14.6343 2.99997 14.1795 3.03057 13.805C3.06287 13.4096 3.13419 13.0164 3.32698 12.638C3.6146 12.0735 4.07354 11.6146 4.63803 11.327C5.01641 11.1342 5.40963 11.0629 5.80497 11.0306C6.17955 11 6.63431 11 7.16146 11ZM5.96784 13.0239C5.69617 13.0461 5.59546 13.0838 5.54601 13.109C5.35785 13.2049 5.20487 13.3578 5.109 13.546C5.0838 13.5955 5.04612 13.6962 5.02393 13.9678C5.00078 14.2512 5 14.6234 5 15.2V16.8C5 17.3766 5.00078 17.7488 5.02393 18.0322C5.04612 18.3038 5.0838 18.4045 5.109 18.454C5.20487 18.6422 5.35785 18.7951 5.54601 18.891C5.59546 18.9162 5.69617 18.9539 5.96784 18.9761C6.25117 18.9992 6.62345 19 7.2 19H8.8C9.37656 19 9.74883 18.9992 10.0322 18.9761C10.3038 18.9539 10.4045 18.9162 10.454 18.891C10.6422 18.7951 10.7951 18.6422 10.891 18.454C10.9162 18.4045 10.9539 18.3038 10.9761 18.0322C10.9992 17.7488 11 17.3766 11 16.8V15.2C11 14.6234 10.9992 14.2512 10.9761 13.9678C10.9539 13.6962 10.9162 13.5955 10.891 13.546C10.7951 13.3578 10.6422 13.2049 10.454 13.109C10.4045 13.0838 10.3038 13.0461 10.0322 13.0239C9.74883 13.0008 9.37656 13 8.8 13H7.2C6.62345 13 6.25117 13.0008 5.96784 13.0239Z" fill="#7369AB"/>
<path fill-rule="evenodd" clip-rule="evenodd" d="M5.76329 14.6227C6.55653 14.0939 7.61277 14.1985 8.2869 14.8726L11.7072 18.2929C12.0977 18.6834 12.0977 19.3166 11.7072 19.7071C11.3167 20.0976 10.6835 20.0976 10.293 19.7071L6.87269 16.2868L4.55481 17.8321C4.09528 18.1384 3.47441 18.0142 3.16806 17.5547C2.8617 17.0952 2.98588 16.4743 3.44541 16.168L5.76329 14.6227Z" fill="#7369AB"/>
<path fill-rule="evenodd" clip-rule="evenodd" d="M15 4C15 3.44772 15.4477 3 16 3H20C20.5523 3 21 3.44772 21 4V8C21 8.55228 20.5523 9 20 9C19.4477 9 19 8.55228 19 8V6.41421L14.7071 10.7071C14.3166 11.0976 13.6834 11.0976 13.2929 10.7071C12.9024 10.3166 12.9024 9.68342 13.2929 9.29289L17.5858 5H16C15.4477 5 15 4.55228 15 4Z" fill="#7369AB"/>
</svg>
