<svg width="24" height="24" viewBox="0 0 24 24" fill="none" xmlns="http://www.w3.org/2000/svg">
<g clip-path="url(#clip0_1210_1188)">
<path fill-rule="evenodd" clip-rule="evenodd" d="M3.29289 3.29289C3.68342 2.90237 4.31658 2.90237 4.70711 3.29289L20.7071 19.2929C21.0976 19.6834 21.0976 20.3166 20.7071 20.7071C20.3166 21.0976 19.6834 21.0976 19.2929 20.7071L3.29289 4.70711C2.90237 4.31658 2.90237 3.68342 3.29289 3.29289Z" fill="#7369AB"/>
<path fill-rule="evenodd" clip-rule="evenodd" d="M5.3632 4.69027C3.02995 6.1331 1.20163 8.31378 0.203351 10.9056C-0.0678648 11.6098 -0.0678653 12.3902 0.203351 13.0944C2.02674 17.8285 6.61928 21.1908 12 21.1908C14.7826 21.1908 17.3544 20.2916 19.4414 18.7685L17.7925 17.1195C16.1397 18.2393 14.1458 18.8931 12 18.8931C7.60088 18.8931 3.84071 16.1454 2.3475 12.2685C2.28101 12.0959 2.28101 11.9041 2.3475 11.7315C3.23121 9.43709 4.90893 7.53817 7.04318 6.37025L5.3632 4.69027ZM9.10439 8.43145C8.06727 9.27402 7.40458 10.5596 7.40458 12C7.40458 14.538 9.46201 16.5954 12 16.5954C13.4403 16.5954 14.726 15.9327 15.5685 14.8956L13.9261 13.2532C13.5162 13.882 12.8066 14.2977 12 14.2977C10.731 14.2977 9.70227 13.269 9.70227 12C9.70227 11.1934 10.1179 10.4838 10.7468 10.0738L9.10439 8.43145ZM16.5525 12.6301L11.3698 7.44747C11.5758 7.41922 11.7862 7.40462 12 7.40462C14.5379 7.40462 16.5954 9.46205 16.5954 12C16.5954 12.2138 16.5808 12.4241 16.5525 12.6301ZM19.5454 15.623C20.4484 14.6597 21.1692 13.5233 21.6524 12.2685C21.7189 12.0959 21.7189 11.9041 21.6524 11.7315C20.1592 7.85464 16.3991 5.10693 12 5.10693C11.0903 5.10693 10.208 5.22441 9.36743 5.44507L7.54081 3.61844C8.9273 3.09545 10.4301 2.80923 12 2.80923C17.3807 2.80923 21.9732 6.17154 23.7966 10.9057C24.0678 11.6098 24.0678 12.3902 23.7966 13.0944C23.1971 14.6508 22.2983 16.059 21.1705 17.2482L19.5454 15.623Z" fill="#7369AB"/>
</g>
<defs>
<clipPath id="clip0_1210_1188">
<rect width="24" height="24" fill="white"/>
</clipPath>
</defs>
</svg>
