<svg width="24" height="24" viewBox="0 0 24 24" fill="none" xmlns="http://www.w3.org/2000/svg">
<g clip-path="url(#clip0_1210_1183)">
<path fill-rule="evenodd" clip-rule="evenodd" d="M12 5.10693C7.60088 5.10693 3.84071 7.85464 2.3475 11.7315C2.28101 11.9041 2.28101 12.0959 2.3475 12.2685C3.84071 16.1454 7.60088 18.8931 12 18.8931C16.3991 18.8931 20.1592 16.1454 21.6524 12.2685C21.7189 12.0959 21.7189 11.9041 21.6524 11.7315C20.1592 7.85464 16.3991 5.10693 12 5.10693ZM0.203351 10.9056C2.02674 6.17153 6.61928 2.80923 12 2.80923C17.3807 2.80923 21.9732 6.17154 23.7966 10.9057C24.0678 11.6098 24.0678 12.3902 23.7966 13.0944C21.9732 17.8285 17.3807 21.1908 12 21.1908C6.61928 21.1908 2.02674 17.8285 0.203351 13.0944C-0.0678653 12.3902 -0.0678648 11.6098 0.203351 10.9056Z" fill="#7369AB"/>
<path fill-rule="evenodd" clip-rule="evenodd" d="M12 9.7022C10.731 9.7022 9.7023 10.7309 9.7023 11.9999C9.7023 13.2689 10.731 14.2976 12 14.2976C13.269 14.2976 14.2977 13.2689 14.2977 11.9999C14.2977 10.7309 13.269 9.7022 12 9.7022ZM7.4046 11.9999C7.4046 9.46194 9.46203 7.40451 12 7.40451C14.538 7.40451 16.5954 9.46194 16.5954 11.9999C16.5954 14.5379 14.538 16.5953 12 16.5953C9.46203 16.5953 7.4046 14.5379 7.4046 11.9999Z" fill="#7369AB"/>
</g>
<defs>
<clipPath id="clip0_1210_1183">
<rect width="24" height="24" fill="white"/>
</clipPath>
</defs>
</svg>
