<svg width="24" height="24" viewBox="0 0 24 24" fill="none" xmlns="http://www.w3.org/2000/svg">
<path fill-rule="evenodd" clip-rule="evenodd" d="M13.1625 7.31572C11.8387 6.3702 10 7.31644 10 8.94319V15.0568C10 16.6836 11.8387 17.6298 13.1625 16.6843L17.442 13.6275C18.5587 12.8298 18.5587 11.1702 17.442 10.3725L13.1625 7.31572ZM12 8.94319L16.2795 12L12 15.0568V8.94319Z" fill="#7369AB"/>
<path fill-rule="evenodd" clip-rule="evenodd" d="M6.16248 7.31572C4.83875 6.3702 3.00001 7.31644 3.00001 8.94319V15.0568C3.00001 16.6836 4.83875 17.6298 6.16248 16.6843L10.442 13.6275C11.5587 12.8298 11.5587 11.1702 10.442 10.3725L6.16248 7.31572ZM5.00001 8.94319L9.27954 12L5.00001 15.0568V8.94319Z" fill="#7369AB"/>
<path fill-rule="evenodd" clip-rule="evenodd" d="M19 7C19.5523 7 20 7.44772 20 8V16C20 16.5523 19.5523 17 19 17C18.4477 17 18 16.5523 18 16V8C18 7.44772 18.4477 7 19 7Z" fill="#7369AB"/>
</svg>
