<svg width="24" height="24" viewBox="0 0 24 24" fill="none" xmlns="http://www.w3.org/2000/svg">
<path fill-rule="evenodd" clip-rule="evenodd" d="M10.8375 7.31572C12.1613 6.3702 14 7.31644 14 8.94319V15.0568C14 16.6836 12.1613 17.6298 10.8375 16.6843L6.55798 13.6275C5.44129 12.8298 5.44128 11.1702 6.55798 10.3725L10.8375 7.31572ZM12 8.94319L7.72046 12L12 15.0568V8.94319Z" fill="#7369AB"/>
<path fill-rule="evenodd" clip-rule="evenodd" d="M17.8375 7.31572C19.1613 6.3702 21 7.31644 21 8.94319V15.0568C21 16.6836 19.1613 17.6298 17.8375 16.6843L13.558 13.6275C12.4413 12.8298 12.4413 11.1702 13.558 10.3725L17.8375 7.31572ZM19 8.94319L14.7205 12L19 15.0568V8.94319Z" fill="#7369AB"/>
<path fill-rule="evenodd" clip-rule="evenodd" d="M5 7C5.55228 7 6 7.44772 6 8V16C6 16.5523 5.55228 17 5 17C4.44772 17 4 16.5523 4 16V8C4 7.44772 4.44772 7 5 7Z" fill="#7369AB"/>
</svg>
