<svg width="24" height="24" viewBox="0 0 24 24" fill="none" xmlns="http://www.w3.org/2000/svg">
<path fill-rule="evenodd" clip-rule="evenodd" d="M6 5C5.44772 5 5 5.44772 5 6V14C5 14.5523 5.44772 15 6 15H18C18.5523 15 19 14.5523 19 14V13C19 12.4477 19.4477 12 20 12C20.5523 12 21 12.4477 21 13V14C21 15.6569 19.6569 17 18 17H6C4.34315 17 3 15.6569 3 14V6C3 4.34315 4.34315 3 6 3H11C11.5523 3 12 3.44772 12 4C12 4.55228 11.5523 5 11 5H6Z" fill="#7369AB"/>
<path fill-rule="evenodd" clip-rule="evenodd" d="M17.2929 5.22185C16.9971 4.92605 16.5176 4.92607 16.2218 5.2218C15.9261 5.51757 15.9261 5.9971 16.2218 6.29287L18 8.07112L19.7782 6.29296C20.0739 5.99719 20.0739 5.51766 19.7782 5.22189C19.4824 4.92613 19.0029 4.92613 18.7071 5.22187C18.3166 5.61238 17.6835 5.61236 17.2929 5.22185ZM18.0001 3.29508C16.9659 2.77294 15.6715 2.94372 14.8076 3.80759C13.7308 4.8844 13.7308 6.63025 14.8076 7.70707C14.8076 7.70706 14.8076 7.70707 14.8076 7.70707L17.2929 10.1924C17.4804 10.38 17.7348 10.4853 18 10.4853C18.2652 10.4853 18.5196 10.38 18.7071 10.1925L21.1924 7.70717C22.2692 6.63036 22.2692 4.8845 21.1924 3.80768C20.3286 2.94386 19.0342 2.773 18.0001 3.29508Z" fill="#7369AB"/>
<path fill-rule="evenodd" clip-rule="evenodd" d="M12 15C12.5523 15 13 15.4477 13 16V20C13 20.5523 12.5523 21 12 21C11.4477 21 11 20.5523 11 20V16C11 15.4477 11.4477 15 12 15Z" fill="#7369AB"/>
<path fill-rule="evenodd" clip-rule="evenodd" d="M7 20C7 19.4477 7.44772 19 8 19H16C16.5523 19 17 19.4477 17 20C17 20.5523 16.5523 21 16 21H8C7.44772 21 7 20.5523 7 20Z" fill="#7369AB"/>
</svg>
