<svg width="24" height="24" viewBox="0 0 24 24" fill="none" xmlns="http://www.w3.org/2000/svg">
<path fill-rule="evenodd" clip-rule="evenodd" d="M8 4C6.89543 4 6 4.89543 6 6V18C6 19.1046 6.89543 20 8 20H11C11.5523 20 12 20.4477 12 21C12 21.5523 11.5523 22 11 22H8C5.79086 22 4 20.2091 4 18V6C4 3.79086 5.79086 2 8 2H13.5C13.7691 2 14.0269 2.10847 14.215 2.30088L19.715 7.92588C19.8977 8.11273 20 8.36367 20 8.625V11.8125C20 12.3648 19.5523 12.8125 19 12.8125C18.4477 12.8125 18 12.3648 18 11.8125V9.625H14.5C13.3954 9.625 12.5 8.72957 12.5 7.625V4H8ZM14.5 5.4531L16.6236 7.625H14.5V5.4531Z" fill="#7369AB"/>
<path fill-rule="evenodd" clip-rule="evenodd" d="M14.1213 15.5355C13.7308 15.9261 13.7308 16.5592 14.1213 16.9498L16.2427 19.0711L18.364 16.9498C18.7545 16.5592 18.7545 15.9261 18.364 15.5355C17.9735 15.145 17.3403 15.145 16.9498 15.5355C16.7622 15.7231 16.5079 15.8284 16.2427 15.8284C15.9775 15.8284 15.7231 15.7231 15.5356 15.5355C15.145 15.145 14.5119 15.145 14.1213 15.5355ZM12.7071 18.364C11.5356 17.1924 11.5356 15.2929 12.7071 14.1213C13.6644 13.1641 15.1076 12.989 16.2427 13.596C17.3777 12.989 18.8209 13.1641 19.7782 14.1213C20.9498 15.2929 20.9498 17.1924 19.7782 18.364L16.9498 21.1924C16.5593 21.5829 15.9261 21.5829 15.5356 21.1924L12.7071 18.364Z" fill="#7369AB"/>
</svg>
