<svg width="24" height="24" viewBox="0 0 24 24" fill="none" xmlns="http://www.w3.org/2000/svg">
<path fill-rule="evenodd" clip-rule="evenodd" d="M2 8C2 6.34315 3.34315 5 5 5H19C20.6569 5 22 6.34315 22 8V11.5C22 12.0523 21.5523 12.5 21 12.5C20.4477 12.5 20 12.0523 20 11.5V8C20 7.44772 19.5523 7 19 7H5C4.44772 7 4 7.44772 4 8V17C4 17.5523 4.44772 18 5 18H13C13.5523 18 14 18.4477 14 19C14 19.5523 13.5523 20 13 20H5C3.34315 20 2 18.6569 2 17V8Z" fill="#7369AB"/>
<path fill-rule="evenodd" clip-rule="evenodd" d="M2 10C2 9.44772 2.44772 9 3 9H20.5C21.0523 9 21.5 9.44772 21.5 10C21.5 10.5523 21.0523 11 20.5 11H3C2.44772 11 2 10.5523 2 10Z" fill="#7369AB"/>
<path fill-rule="evenodd" clip-rule="evenodd" d="M17.2929 15.2218C16.9971 14.926 16.5176 14.9261 16.2218 15.2218C15.9261 15.5176 15.9261 15.9971 16.2218 16.2929L18 18.0711L19.7782 16.293C20.0739 15.9972 20.0739 15.5177 19.7782 15.2219C19.4824 14.9261 19.0029 14.9261 18.7071 15.2219C18.3166 15.6124 17.6835 15.6124 17.2929 15.2218ZM18.0001 13.2951C16.9659 12.7729 15.6715 12.9437 14.8076 13.8076C13.7308 14.8844 13.7308 16.6303 14.8076 17.7071C14.8076 17.7071 14.8076 17.7071 14.8076 17.7071L17.2929 20.1924C17.4804 20.38 17.7348 20.4853 18 20.4853C18.2652 20.4853 18.5196 20.38 18.7071 20.1925L21.1924 17.7072C22.2692 16.6304 22.2692 14.8845 21.1924 13.8077C20.3286 12.9439 19.0342 12.773 18.0001 13.2951Z" fill="#7369AB"/>
<path fill-rule="evenodd" clip-rule="evenodd" d="M6 15C6 14.4477 6.44772 14 7 14H9C9.55228 14 10 14.4477 10 15C10 15.5523 9.55228 16 9 16H7C6.44772 16 6 15.5523 6 15Z" fill="#7369AB"/>
</svg>
