<svg width="24" height="24" viewBox="0 0 24 24" fill="none" xmlns="http://www.w3.org/2000/svg">
<path fill-rule="evenodd" clip-rule="evenodd" d="M5 6C4.44772 6 4 6.44772 4 7V17C4 17.5523 4.44772 18 5 18H11C11.5523 18 12 18.4477 12 19C12 19.5523 11.5523 20 11 20H5C3.34315 20 2 18.6569 2 17V7C2 5.34315 3.34315 4 5 4H9.58579C10.1162 4 10.6249 4.21071 11 4.58579L12.4142 6H19C20.6569 6 22 7.34315 22 9V10C22 10.5523 21.5523 11 21 11C20.4477 11 20 10.5523 20 10V9C20 8.44772 19.5523 8 19 8H12C11.7348 8 11.4804 7.89464 11.2929 7.70711L9.58579 6H5Z" fill="#7369AB"/>
<path fill-rule="evenodd" clip-rule="evenodd" d="M15.1213 14.5355C14.7308 14.926 14.7308 15.5592 15.1213 15.9497L17.2427 18.071L19.364 15.9497C19.7545 15.5592 19.7545 14.926 19.364 14.5355C18.9735 14.145 18.3403 14.145 17.9498 14.5355C17.7622 14.723 17.5079 14.8284 17.2427 14.8284C16.9775 14.8284 16.7231 14.723 16.5356 14.5355C16.145 14.145 15.5119 14.145 15.1213 14.5355ZM13.7071 17.3639C12.5356 16.1924 12.5356 14.2929 13.7071 13.1213C14.6644 12.164 16.1076 11.9889 17.2427 12.596C18.3777 11.9889 19.8209 12.164 20.7782 13.1213C21.9498 14.2929 21.9498 16.1924 20.7782 17.3639L17.9498 20.1924C17.5593 20.5829 16.9261 20.5829 16.5356 20.1924L13.7071 17.3639Z" fill="#7369AB"/>
</svg>
