<svg width="24" height="24" viewBox="0 0 24 24" fill="none" xmlns="http://www.w3.org/2000/svg">
<path fill-rule="evenodd" clip-rule="evenodd" d="M7 6C6.44772 6 6 6.44772 6 7V15H18V12.5C18 11.9477 18.4477 11.5 19 11.5C19.5523 11.5 20 11.9477 20 12.5V16C20 16.5523 19.5523 17 19 17H5C4.44772 17 4 16.5523 4 16V7C4 5.34315 5.34315 4 7 4H12C12.5523 4 13 4.44772 13 5C13 5.55228 12.5523 6 12 6H7Z" fill="#7369AB"/>
<path fill-rule="evenodd" clip-rule="evenodd" d="M2 16C2 15.4477 2.44772 15 3 15H21C21.5523 15 22 15.4477 22 16V17C22 18.6569 20.6569 20 19 20H5C3.34315 20 2 18.6569 2 17V16ZM4 17C4 17.5523 4.44772 18 5 18H19C19.5523 18 20 17.5523 20 17H4Z" fill="#7369AB"/>
<path fill-rule="evenodd" clip-rule="evenodd" d="M17.2929 5.22185C16.9971 4.92605 16.5176 4.92607 16.2218 5.2218C15.9261 5.51757 15.9261 5.9971 16.2218 6.29287L18 8.07112L19.7782 6.29296C20.0739 5.99719 20.0739 5.51766 19.7782 5.22189C19.4824 4.92613 19.0029 4.92613 18.7071 5.22187C18.3166 5.61238 17.6835 5.61236 17.2929 5.22185ZM18.0001 3.29508C16.9659 2.77294 15.6715 2.94372 14.8076 3.80759C13.7308 4.8844 13.7308 6.63025 14.8076 7.70707C14.8076 7.70706 14.8076 7.70707 14.8076 7.70707L17.2929 10.1924C17.4804 10.38 17.7348 10.4853 18 10.4853C18.2652 10.4853 18.5196 10.38 18.7071 10.1925L21.1924 7.70717C22.2692 6.63036 22.2692 4.8845 21.1924 3.80768C20.3286 2.94386 19.0342 2.773 18.0001 3.29508Z" fill="#7369AB"/>
</svg>
