<svg width="24" height="24" viewBox="0 0 24 24" fill="none" xmlns="http://www.w3.org/2000/svg">
<path fill-rule="evenodd" clip-rule="evenodd" d="M8.7587 3L11 3C11.5523 3 12 3.44772 12 4C12 4.55229 11.5523 5 11 5H8.8C7.94342 5 7.36113 5.00078 6.91104 5.03755C6.47262 5.07337 6.24842 5.1383 6.09202 5.21799C5.7157 5.40973 5.40973 5.7157 5.21799 6.09202C5.1383 6.24842 5.07337 6.47262 5.03755 6.91104C5.00078 7.36113 5 7.94342 5 8.8V15.2C5 16.0566 5.00078 16.6389 5.03755 17.089C5.07337 17.5274 5.1383 17.7516 5.21799 17.908C5.40973 18.2843 5.7157 18.5903 6.09202 18.782C6.24842 18.8617 6.47262 18.9266 6.91104 18.9624C7.36113 18.9992 7.94342 19 8.8 19H15.2C16.0566 19 16.6389 18.9992 17.089 18.9624C17.5274 18.9266 17.7516 18.8617 17.908 18.782C18.2843 18.5903 18.5903 18.2843 18.782 17.908C18.8617 17.7516 18.9266 17.5274 18.9624 17.089C18.9992 16.6389 19 16.0566 19 15.2V12C19 11.4477 19.4477 11 20 11C20.5523 11 21 11.4477 21 12V15.2413C21 16.0463 21 16.7106 20.9558 17.2518C20.9099 17.8139 20.8113 18.3306 20.564 18.816C20.1805 19.5686 19.5686 20.1805 18.816 20.564C18.3306 20.8113 17.8139 20.9099 17.2518 20.9558C16.7106 21 16.0463 21 15.2413 21H8.75868C7.95372 21 7.28936 21 6.74817 20.9558C6.18608 20.9099 5.66937 20.8113 5.18404 20.564C4.43139 20.1805 3.81947 19.5686 3.43597 18.816C3.18868 18.3306 3.09012 17.8139 3.04419 17.2518C2.99998 16.7106 2.99999 16.0463 3 15.2413V8.7587C2.99999 7.95373 2.99998 7.28937 3.04419 6.74817C3.09012 6.18608 3.18868 5.66937 3.43597 5.18404C3.81947 4.43139 4.43139 3.81947 5.18404 3.43597C5.66937 3.18868 6.18608 3.09012 6.74817 3.04419C7.28937 2.99998 7.95373 2.99999 8.7587 3Z" fill="#7369AB"/>
<path fill-rule="evenodd" clip-rule="evenodd" d="M7.58578 11C8.36683 10.2189 9.63317 10.2189 10.4142 11L13 13.5858L15.0858 11.5C15.8669 10.7189 17.1332 10.7189 17.9142 11.5L20.7071 14.2929C21.0976 14.6834 21.0976 15.3166 20.7071 15.7071C20.3166 16.0976 19.6834 16.0976 19.2929 15.7071L16.5 12.9142L14.4142 15L15.9571 16.5429C16.3476 16.9334 16.3476 17.5666 15.9571 17.9571C15.5666 18.3476 14.9334 18.3476 14.5429 17.9571L9 12.4142L4.70711 16.7071C4.31659 17.0976 3.68342 17.0976 3.2929 16.7071C2.90237 16.3166 2.90237 15.6834 3.29289 15.2929L7.58578 11Z" fill="#7369AB"/>
<path fill-rule="evenodd" clip-rule="evenodd" d="M17.2929 4.22185C16.9971 3.92605 16.5176 3.92607 16.2218 4.2218C15.9261 4.51757 15.9261 4.9971 16.2218 5.29287L18 7.07112L19.7782 5.29296C20.0739 4.99719 20.0739 4.51766 19.7782 4.22189C19.4824 3.92613 19.0029 3.92613 18.7071 4.22187C18.3166 4.61238 17.6835 4.61236 17.2929 4.22185ZM18.0001 2.29508C16.9659 1.77294 15.6715 1.94372 14.8076 2.80759C13.7308 3.8844 13.7308 5.63025 14.8076 6.70707C14.8076 6.70706 14.8076 6.70707 14.8076 6.70707L17.2929 9.19244C17.4804 9.37998 17.7348 9.48534 18 9.48535C18.2652 9.48535 18.5196 9.37999 18.7071 9.19245L21.1924 6.70717C22.2692 5.63036 22.2692 3.8845 21.1924 2.80768C20.3286 1.94386 19.0342 1.773 18.0001 2.29508Z" fill="#7369AB"/>
</svg>
