<svg width="24" height="24" viewBox="0 0 24 24" fill="none" xmlns="http://www.w3.org/2000/svg">
<path fill-rule="evenodd" clip-rule="evenodd" d="M20.8001 6.39995C21.1314 6.84178 21.0419 7.46858 20.6001 7.79995L14.4001 12.45C12.9778 13.5167 11.0223 13.5167 9.60005 12.45L3.40006 7.8C2.95823 7.46863 2.86869 6.84183 3.20006 6.4C3.53143 5.95817 4.15823 5.86863 4.60006 6.2L10.8001 10.85C11.5112 11.3833 12.4889 11.3833 13.2001 10.85L19.4001 6.19995C19.8419 5.86858 20.4687 5.95812 20.8001 6.39995Z" fill="#7369AB"/>
<path fill-rule="evenodd" clip-rule="evenodd" d="M2 7C2 5.34315 3.34315 4 5 4H19C20.6569 4 22 5.34315 22 7V11C22 11.5523 21.5523 12 21 12C20.4477 12 20 11.5523 20 11V7C20 6.44772 19.5523 6 19 6H5C4.44772 6 4 6.44772 4 7V17C4 17.5523 4.44772 18 5 18H12C12.5523 18 13 18.4477 13 19C13 19.5523 12.5523 20 12 20H5C3.34315 20 2 18.6569 2 17V7Z" fill="#7369AB"/>
<path fill-rule="evenodd" clip-rule="evenodd" d="M17.2929 15.2218C16.9971 14.926 16.5176 14.9261 16.2218 15.2218C15.9261 15.5176 15.9261 15.9971 16.2218 16.2929L18 18.0711L19.7782 16.293C20.0739 15.9972 20.0739 15.5177 19.7782 15.2219C19.4824 14.9261 19.0029 14.9261 18.7071 15.2219C18.3166 15.6124 17.6835 15.6124 17.2929 15.2218ZM18.0001 13.2951C16.9659 12.7729 15.6715 12.9437 14.8076 13.8076C13.7308 14.8844 13.7308 16.6303 14.8076 17.7071C14.8076 17.7071 14.8076 17.7071 14.8076 17.7071L17.2929 20.1924C17.4804 20.38 17.7348 20.4853 18 20.4853C18.2652 20.4853 18.5196 20.38 18.7071 20.1925L21.1924 17.7072C22.2692 16.6304 22.2692 14.8845 21.1924 13.8077C20.3286 12.9439 19.0342 12.773 18.0001 13.2951Z" fill="#7369AB"/>
</svg>
