<svg width="15" height="24" viewBox="0 0 15 24" fill="none" xmlns="http://www.w3.org/2000/svg">
<g id="Group 25">
<path id="Vector (Stroke)" fill-rule="evenodd" clip-rule="evenodd" d="M3.02156 8.58439C3.14847 8.03471 3.69694 7.69199 4.24662 7.81889L12.3383 9.68699C12.8879 9.81389 13.2307 10.3624 13.1038 10.912L10.6107 21.7108C10.4705 22.318 10.0949 22.8445 9.56648 23.1747C9.03807 23.5049 8.40014 23.6117 7.79302 23.4715L2.28912 22.2008C1.682 22.0607 1.15543 21.685 0.825243 21.1566C0.495057 20.6282 0.388302 19.9903 0.528467 19.3832L3.02156 8.58439ZM4.78235 10.0392L2.51903 19.8427C2.50075 19.9219 2.51467 20.0051 2.55774 20.0741C2.60081 20.143 2.66949 20.192 2.74868 20.2103L8.25258 21.4809C8.33177 21.4992 8.41497 21.4853 8.4839 21.4422C8.55282 21.3992 8.60181 21.3305 8.62009 21.2513L10.8834 11.4478L4.78235 10.0392Z" fill="#7369AB"/>
<path id="Vector (Stroke)_2" fill-rule="evenodd" clip-rule="evenodd" d="M4.7487 7.12887C4.68304 7.1133 4.61718 7.15391 4.60161 7.21957L4.47005 7.77443C4.45448 7.8401 4.49509 7.90595 4.56075 7.92152L11.8333 9.64595C11.899 9.66152 11.9649 9.62091 11.9804 9.55524L12.112 9.00039C12.1276 8.93472 12.087 8.86887 12.0213 8.8533L4.7487 7.12887ZM2.61998 6.7497C2.89505 5.58961 4.05848 4.87216 5.21857 5.14723L12.4912 6.87166C13.6513 7.14674 14.3687 8.31017 14.0936 9.47026L13.9621 10.0251C13.687 11.1852 12.5236 11.9027 11.3635 11.6276L4.09088 9.90315C2.93079 9.62808 2.21334 8.46465 2.48841 7.30456L2.61998 6.7497Z" fill="#7369AB"/>
<path id="Vector (Stroke)_3" fill-rule="evenodd" clip-rule="evenodd" d="M10.2403 0.0541853C10.5477 0.120102 10.839 0.246821 11.0968 0.426904C11.3554 0.607514 11.5751 0.838134 11.743 1.10513C11.911 1.37213 12.0237 1.67008 12.0744 1.98138C12.1252 2.29267 12.1131 2.61099 12.0388 2.91752C12.0281 2.96144 12.0145 3.00461 11.9982 3.04674C11.9981 3.04696 11.9983 3.04652 11.9982 3.04674L11.9968 3.05043L11.9897 3.069C11.9833 3.08621 11.9737 3.11228 11.9622 3.14473C11.9388 3.21078 11.9094 3.29773 11.8831 3.3873C11.8682 3.438 11.8563 3.48294 11.8472 3.52089C11.9163 3.68437 12.0061 3.85534 12.1162 4.04801C12.1574 4.12021 12.2068 4.20403 12.2598 4.29405C12.3699 4.48095 12.4958 4.69458 12.5974 4.88644C12.9285 5.51162 13.2502 6.33594 13.0132 7.35397L12.8927 7.91636C12.8353 8.18403 12.6729 8.41748 12.4419 8.56435C12.2109 8.71121 11.9306 8.7592 11.6639 8.69755L5.30016 7.22665C5.03604 7.16561 4.80703 7.00208 4.66355 6.77209C4.52007 6.5421 4.47389 6.2645 4.53519 6.00045L4.6673 5.43139C4.66742 5.43086 4.66754 5.43032 4.66767 5.42978C4.90335 4.40305 5.56958 3.80351 6.13065 3.39255C6.27038 3.2902 6.46747 3.15631 6.63772 3.04066C6.74397 2.96847 6.83977 2.90339 6.90466 2.8575C7.09172 2.72523 7.24112 2.60756 7.3622 2.48927C7.36781 2.45996 7.37365 2.42336 7.379 2.37977C7.38887 2.29946 7.39423 2.21969 7.39696 2.15817C7.39829 2.1282 7.39892 2.10438 7.39922 2.08925L7.39945 2.07381C7.39947 1.99853 7.40782 1.92351 7.42433 1.85007C7.56166 1.23915 7.93519 0.70741 8.46332 0.371022C8.99068 0.0351266 9.62937 -0.0787287 10.2403 0.0541853ZM9.43845 2.23544C9.43826 2.23985 9.43807 2.24433 9.43786 2.24888C9.43358 2.34537 9.42488 2.48074 9.40667 2.62898C9.38907 2.77218 9.35928 2.95554 9.30487 3.13774C9.26253 3.27949 9.16585 3.56367 8.93524 3.80098C8.65924 4.10034 8.35378 4.33487 8.08419 4.52551C7.92854 4.63558 7.81368 4.71265 7.70888 4.78296C7.5876 4.86433 7.47979 4.93667 7.33783 5.04065C7.11432 5.20436 6.95694 5.34518 6.84779 5.48759L11.0321 6.45475C10.9984 6.27844 10.9201 6.08437 10.792 5.84249C10.7094 5.68645 10.6294 5.55128 10.5375 5.39573C10.4787 5.29627 10.4149 5.18849 10.3424 5.06159C10.1756 4.76961 9.99212 4.42385 9.85648 4.03346C9.85644 4.03336 9.85652 4.03357 9.85648 4.03346C9.74378 3.70914 9.79601 3.38562 9.81351 3.27718C9.84047 3.11021 9.88429 2.94333 9.92303 2.81146C9.96311 2.67503 10.0053 2.55067 10.0368 2.4619C10.0454 2.43763 10.0533 2.41562 10.0604 2.3963C10.0589 2.40963 10.0566 2.42289 10.0534 2.43598L11.0461 2.67675C10.0943 2.30593 10.0943 2.30602 10.0942 2.30612L10.0935 2.30794L10.0923 2.31112L10.0886 2.32085L10.0764 2.35301C10.0718 2.36531 10.0664 2.37983 10.0604 2.3963C10.0636 2.36775 10.0628 2.33883 10.0582 2.31035C10.0514 2.26858 10.0362 2.22859 10.0137 2.19276C9.99118 2.15693 9.96169 2.12598 9.92699 2.10174C9.89228 2.0775 9.85308 2.06047 9.81168 2.05165L9.80629 2.05048C9.72192 2.03202 9.63367 2.0477 9.56082 2.0941C9.50674 2.12855 9.46441 2.17785 9.43845 2.23544ZM7.39945 2.07381L7.39947 2.07242C7.39947 2.07239 7.39946 2.07248 7.39945 2.07381ZM11.7861 3.36264C11.7861 3.36253 11.7862 3.36274 11.7861 3.36264V3.36264Z" fill="#7369AB"/>
<path id="Vector (Stroke)_4" fill-rule="evenodd" clip-rule="evenodd" d="M6.89471 12.2213C7.02209 11.6718 7.57087 11.3295 8.12044 11.4569L9.66284 11.8144C10.2124 11.9418 10.5547 12.4906 10.4273 13.0401C10.2999 13.5897 9.75111 13.932 9.20155 13.8046L7.65914 13.4471C7.10958 13.3197 6.76733 12.7709 6.89471 12.2213Z" fill="#7369AB"/>
<path id="Vector (Stroke)_5" fill-rule="evenodd" clip-rule="evenodd" d="M6.35221 14.5859C6.47692 14.0357 7.02403 13.6908 7.57421 13.8155L9.1064 14.1628C9.65658 14.2875 10.0015 14.8346 9.87678 15.3848C9.75208 15.9349 9.20497 16.2799 8.65479 16.1551L7.1226 15.8079C6.57242 15.6831 6.22751 15.136 6.35221 14.5859Z" fill="#7369AB"/>
<path id="Vector (Stroke)_6" fill-rule="evenodd" clip-rule="evenodd" d="M5.81229 16.9289C5.94048 16.3795 6.48975 16.0381 7.03913 16.1663L8.57132 16.5238C9.1207 16.652 9.46215 17.2013 9.33396 17.7506C9.20577 18.3 8.65649 18.6415 8.10711 18.5133L6.57492 18.1558C6.02554 18.0276 5.6841 17.4783 5.81229 16.9289Z" fill="#7369AB"/>
</g>
</svg>
