<svg width="24" height="24" viewBox="0 0 24 24" fill="none" xmlns="http://www.w3.org/2000/svg">
<path fill-rule="evenodd" clip-rule="evenodd" d="M1.71094 4.83614C0.0820706 2.93579 1.43235 0 3.93525 0H21.0024C23.5053 0 24.8556 2.93579 23.2267 4.83614L16.8632 12.2602V21.0666C16.8632 23.2444 14.5714 24.6609 12.6235 23.6869L9.69387 22.2221C8.70138 21.7259 8.07444 20.7115 8.07444 19.6018V12.2602L1.71094 4.83614ZM21.0024 2.92959H3.93525L10.2987 10.3537C10.7539 10.8846 11.004 11.5609 11.004 12.2602V19.6018L13.9336 21.0666V12.2602C13.9336 11.5609 14.1838 10.8846 14.6389 10.3537L21.0024 2.92959Z" fill="#7369AB"/>
</svg>
