<svg width="24" height="24" viewBox="0 0 24 24" fill="none" xmlns="http://www.w3.org/2000/svg">
<path fill-rule="evenodd" clip-rule="evenodd" d="M0 5.33333C0 4.59695 0.596954 4 1.33333 4H22.6667C23.403 4 24 4.59695 24 5.33333C24 6.06971 23.403 6.66667 22.6667 6.66667H1.33333C0.596954 6.66667 0 6.06971 0 5.33333Z" fill="#7369AB"/>
<path fill-rule="evenodd" clip-rule="evenodd" d="M4 12C4 11.2636 4.59695 10.6667 5.33333 10.6667L18.6667 10.6667C19.403 10.6667 20 11.2636 20 12C20 12.7364 19.403 13.3334 18.6667 13.3334L5.33333 13.3334C4.59695 13.3334 4 12.7364 4 12Z" fill="#7369AB"/>
<path fill-rule="evenodd" clip-rule="evenodd" d="M9.33325 18.6666C9.33325 17.9303 9.93021 17.3333 10.6666 17.3333H13.3333C14.0696 17.3333 14.6666 17.9303 14.6666 18.6666C14.6666 19.403 14.0696 20 13.3333 20H10.6666C9.93021 20 9.33325 19.403 9.33325 18.6666Z" fill="#7369AB"/>
</svg>
