<svg width="20" height="24" viewBox="0 0 20 24" fill="none" xmlns="http://www.w3.org/2000/svg">
<path fill-rule="evenodd" clip-rule="evenodd" d="M1.99997 4.25606C1.99997 3.58255 2.54596 3.03656 3.21947 3.03656H15.9145C16.588 3.03656 17.134 3.58255 17.134 4.25606V22.7803C17.134 23.4538 16.588 23.9998 15.9145 23.9998H3.21947C2.54596 23.9998 1.99997 23.4538 1.99997 22.7803V4.25606ZM4.43897 5.47556V21.5608H14.695V5.47556H4.43897Z" fill="#7369AB"/>
<path fill-rule="evenodd" clip-rule="evenodd" d="M5.78761 11.7681C6.6512 10.9101 7.81912 10.4286 9.0365 10.4286C10.1027 10.4286 11.1309 10.7979 11.95 11.466L12.002 11.4091C12.4562 10.9118 13.2276 10.877 13.7249 11.3313C14.2221 11.7856 14.2569 12.5569 13.8027 13.0542L13.3458 13.5542L13.8068 14.0213C14.28 14.5006 14.2749 15.2728 13.7956 15.7459C13.3162 16.219 12.5441 16.214 12.071 15.7346L11.9951 15.6577C11.6371 15.96 11.2343 16.2062 10.8003 16.3871C10.2415 16.62 9.64197 16.7399 9.0365 16.7399C8.43102 16.7399 7.83154 16.62 7.27265 16.3871C6.71546 16.1549 6.20961 15.8149 5.78412 15.3868C5.54663 15.1507 5.35797 14.8701 5.22895 14.5611C5.09909 14.25 5.03223 13.9163 5.03223 13.5792C5.03223 13.2421 5.09909 12.9084 5.22895 12.5973C5.3586 12.2867 5.54847 12.0049 5.78761 11.7681ZM10.5617 13.4938C10.1555 13.0926 9.60757 12.8676 9.0365 12.8676C8.46299 12.8676 7.91278 13.0946 7.50607 13.4989L7.50381 13.5011L7.50381 13.5011C7.49349 13.5113 7.48529 13.5235 7.4797 13.5369C7.47411 13.5503 7.47123 13.5647 7.47123 13.5792C7.47123 13.5937 7.47411 13.6081 7.4797 13.6215C7.48529 13.6349 7.49349 13.647 7.50381 13.6572L7.51234 13.6656L7.5123 13.6657C7.71184 13.867 7.94926 14.0267 8.21087 14.1357C8.47247 14.2448 8.75308 14.3009 9.0365 14.3009C9.31991 14.3009 9.60052 14.2448 9.86213 14.1357C10.1237 14.0267 10.3612 13.867 10.5607 13.6657L10.5644 13.662L10.5644 13.662L10.6463 13.5801L10.5617 13.4938Z" fill="#7369AB"/>
<path fill-rule="evenodd" clip-rule="evenodd" d="M4.43242 0.160364C5.01748 -0.173285 5.76224 0.0305244 6.09589 0.615585L7.82758 3.65214C8.16123 4.2372 7.95742 4.98197 7.37236 5.31562C6.7873 5.64927 6.04254 5.44546 5.70889 4.86039L3.9772 1.82384C3.64355 1.23878 3.84736 0.494013 4.43242 0.160364Z" fill="#7369AB"/>
<path fill-rule="evenodd" clip-rule="evenodd" d="M0 22.7805C0 22.107 0.545989 21.561 1.2195 21.561H17.9023C18.5758 21.561 19.1218 22.107 19.1218 22.7805C19.1218 23.454 18.5758 24 17.9023 24H1.2195C0.545989 24 0 23.454 0 22.7805Z" fill="#7369AB"/>
<path fill-rule="evenodd" clip-rule="evenodd" d="M0 4.25606C0 3.58255 0.545989 3.03656 1.2195 3.03656H17.9023C18.5758 3.03656 19.1218 3.58255 19.1218 4.25606C19.1218 4.92957 18.5758 5.47556 17.9023 5.47556H1.2195C0.545989 5.47556 0 4.92957 0 4.25606Z" fill="#7369AB"/>
</svg>
