<svg width="24" height="13" viewBox="0 0 24 13" fill="none" xmlns="http://www.w3.org/2000/svg">
<path fill-rule="evenodd" clip-rule="evenodd" d="M5.12594 5.98311C5.34369 6.2412 5.6824 6.38895 6.04304 6.34765C6.61567 6.28207 7.02671 5.7647 6.96114 5.19208C6.90954 4.74151 6.69399 4.32567 6.35555 4.02378C6.01712 3.72189 5.57946 3.55505 5.12594 3.55505C4.67243 3.55505 4.23476 3.72189 3.89633 4.02378C3.5579 4.32567 3.34235 4.74151 3.29075 5.19208C3.22517 5.7647 3.63622 6.28207 4.20884 6.34765C4.56948 6.38895 4.9082 6.2412 5.12594 5.98311Z" fill="#7369AB"/>
<path fill-rule="evenodd" clip-rule="evenodd" d="M5.8044 0.317985C7.28816 -0.0896034 8.85224 -0.105632 10.344 0.271462C11.8358 0.648555 13.2044 1.40589 14.3163 2.46959L14.3218 2.4749L17.5465 5.60575C17.749 5.80227 17.8632 6.07238 17.8632 6.35451C17.8632 6.63664 17.749 6.90675 17.5465 7.10328L14.3141 10.2416C13.1998 11.3012 11.8301 12.0541 10.3385 12.427C8.84676 12.8 7.28391 12.7802 5.80215 12.3695C5.42143 12.264 5.13292 11.9526 5.05679 11.5649C4.98066 11.1773 5.12996 10.7799 5.44251 10.5382C6.08324 10.0428 6.60196 9.40722 6.95884 8.68018C7.31573 7.95313 7.50129 7.15399 7.50129 6.34408C7.50129 5.53417 7.31573 4.73502 6.95884 4.00798C6.60196 3.28094 6.08324 2.64533 5.44251 2.14993C5.12963 1.90803 4.98037 1.51005 5.05702 1.12206C5.13367 0.734073 5.42304 0.422744 5.8044 0.317985ZM8.23934 2.08765C8.46239 2.40415 8.66087 2.73862 8.8325 3.08826C9.32989 4.10153 9.58851 5.2153 9.58851 6.34408C9.58851 7.47285 9.32989 8.58662 8.8325 9.5999C8.65999 9.95133 8.46035 10.2874 8.23589 10.6054C8.77197 10.6009 9.30784 10.5332 9.83223 10.4021C10.9725 10.1171 12.0196 9.54197 12.8719 8.7327L15.3214 6.35451L12.8707 3.97521C12.02 3.16226 10.9733 2.58341 9.83252 2.29503C9.30933 2.16278 8.77452 2.09369 8.23934 2.08765Z" fill="#7369AB"/>
<path fill-rule="evenodd" clip-rule="evenodd" d="M5.81554 0.325247C6.13015 0.242554 6.46533 0.311295 6.722 0.511151C7.61121 1.20355 8.33128 2.08915 8.8277 3.10092C9.32413 4.1127 9.5839 5.22414 9.58735 6.35113L9.58737 6.35583C9.58574 7.48487 9.32686 8.5987 8.83037 9.61272C8.33387 10.6267 7.61283 11.5143 6.722 12.208C6.46475 12.4083 6.12867 12.4768 5.81351 12.3933C4.37653 12.0125 3.06138 11.2692 1.99401 10.2345C1.96405 10.2054 1.93586 10.1746 1.90959 10.1422L0.931881 8.93567C0.329545 8.20634 0 7.28993 0 6.3439C0 5.39627 0.330664 4.47835 0.934951 3.74842C0.935213 3.7481 0.935475 3.74779 0.935737 3.74747L1.91522 2.55958C1.94048 2.52895 1.96746 2.49979 1.99604 2.47223C3.06473 1.44182 4.37977 0.702623 5.81554 0.325247ZM3.48628 3.93511L2.54309 5.07897C2.24845 5.43466 2.08722 5.88203 2.08722 6.3439C2.08722 6.80577 2.24845 7.25314 2.54309 7.60883L2.55028 7.6175L3.49033 8.77766C4.16404 9.41891 4.96445 9.90918 5.83798 10.2182C6.2971 9.78181 6.67602 9.26627 6.95579 8.69488C7.31247 7.96639 7.49862 7.16627 7.50013 6.35516C7.49729 5.54555 7.31051 4.74716 6.95388 4.02031C6.67408 3.45005 6.29549 2.93553 5.83697 2.49995C4.96283 2.80699 4.16139 3.29542 3.48628 3.93511Z" fill="#7369AB"/>
<path fill-rule="evenodd" clip-rule="evenodd" d="M16.0574 5.64157C16.3198 5.36096 16.7152 5.24725 17.0866 5.34557L20.9922 6.37939C22.3202 6.73441 23.2471 7.52145 23.6966 8.61306C24.127 9.65821 24.0615 10.8395 23.7373 11.9319C23.5768 12.473 23.0152 12.7884 22.4696 12.6439L18.962 11.7148C18.2125 11.5154 17.6571 11.1717 17.2695 10.5974C16.995 10.1907 16.8328 9.68432 16.7022 9.2768C16.6821 9.21377 16.6626 9.15311 16.6436 9.09555L15.8308 6.6883C15.7079 6.32428 15.7949 5.92217 16.0574 5.64157ZM18.4295 7.86014L18.6247 8.43812C18.6537 8.52603 18.6792 8.60497 18.7027 8.67739C18.7566 8.8434 18.7993 8.97523 18.8467 9.10287C18.9106 9.275 18.9589 9.36956 18.9996 9.42977C19.0398 9.48943 19.1107 9.59449 19.4982 9.69765C19.4981 9.69761 19.4984 9.69768 19.4982 9.69765L21.9109 10.3367C21.9237 9.97348 21.8709 9.66101 21.7666 9.40777C21.5952 8.99157 21.2336 8.60472 20.4543 8.39611C20.4539 8.39601 20.4535 8.39591 20.4532 8.39581L18.4295 7.86014Z" fill="#7369AB"/>
<path fill-rule="evenodd" clip-rule="evenodd" d="M22.4696 0.064808C23.0152 -0.0797031 23.5768 0.235704 23.7373 0.776775C24.0615 1.86926 24.127 3.05051 23.6966 4.09566C23.2471 5.18727 22.3202 5.97431 20.9922 6.32932L20.9897 6.32998L17.0866 7.36315C16.7152 7.46147 16.3198 7.34776 16.0574 7.06715C15.7949 6.78655 15.7079 6.38444 15.8308 6.02042L16.6436 3.61317C16.6626 3.55561 16.6821 3.49495 16.7022 3.43192C16.8328 3.0244 16.995 2.518 17.2695 2.11132C17.6571 1.53699 18.2125 1.19332 18.962 0.993914L22.4696 0.064808ZM21.9109 2.37201L19.4986 3.01096C19.4985 3.01101 19.4988 3.01092 19.4986 3.01096C19.1112 3.11411 19.0399 3.21922 18.9996 3.27886C18.959 3.33908 18.9106 3.43372 18.8467 3.60585C18.7993 3.73349 18.7566 3.86532 18.7027 4.03133C18.6792 4.10375 18.6536 4.18268 18.6246 4.2706L18.6224 4.27743L18.4295 4.84858L20.4532 4.31291C20.4536 4.3128 20.454 4.31269 20.4544 4.31258C21.2336 4.10397 21.5952 3.71714 21.7666 3.30095C21.8709 3.04771 21.9237 2.73524 21.9109 2.37201Z" fill="#7369AB"/>
</svg>
