<svg width="24" height="24" viewBox="0 0 24 24" fill="none" xmlns="http://www.w3.org/2000/svg">
<path fill-rule="evenodd" clip-rule="evenodd" d="M3.51987 16.0257C2.9889 16.5904 2.44618 17.757 2.20677 19.0162C2.08796 19.6412 2.0573 20.2243 2.11606 20.6965C2.17653 21.1826 2.31698 21.445 2.43621 21.5651C2.55517 21.685 2.81127 21.8242 3.28523 21.8842C3.74696 21.9426 4.31833 21.9119 4.93193 21.7924C6.16815 21.5517 7.31349 21.0067 7.86882 20.4734C8.34572 19.8654 8.59041 19.1066 8.55772 18.3334C8.52447 17.5469 8.20646 16.7994 7.66319 16.2301C7.11168 15.6915 6.3807 15.3753 5.61024 15.3422C4.85313 15.3097 4.11057 15.553 3.51987 16.0257ZM2.14614 14.453C3.14157 13.6278 4.40793 13.2016 5.69972 13.2571C6.99151 13.3125 8.21671 13.8456 9.13779 14.753C9.14438 14.7595 9.15089 14.7661 9.15731 14.7728C10.0596 15.7102 10.588 16.9453 10.6429 18.2453C10.6979 19.5452 10.2756 20.8205 9.45572 21.8308C9.43376 21.8578 9.41047 21.8838 9.38592 21.9085C8.44472 22.8563 6.82723 23.5497 5.3308 23.841C4.56433 23.9903 3.76215 24.0483 3.02318 23.9547C2.29642 23.8628 1.52465 23.6094 0.954877 23.0353C0.385372 22.4615 0.135802 21.6842 0.044969 20.9542C-0.0475876 20.2104 0.00914865 19.4011 0.156438 18.6264C0.443926 17.1143 1.12932 15.4767 2.06909 14.5237C2.09358 14.4988 2.11929 14.4752 2.14614 14.453Z" fill="#7369AB"/>
<path fill-rule="evenodd" clip-rule="evenodd" d="M17.477 6.3227C17.8868 6.72794 17.8905 7.38865 17.4852 7.79845L9.14745 16.2302C8.74221 16.64 8.08149 16.6437 7.67169 16.2384C7.2619 15.8332 7.25819 15.1725 7.66343 14.7627L16.0012 6.33097C16.4065 5.92117 17.0672 5.91747 17.477 6.3227Z" fill="#7369AB"/>
<path fill-rule="evenodd" clip-rule="evenodd" d="M6.38834 9.77668C6.79824 9.37155 7.45895 9.37541 7.86409 9.78531L14.0731 16.0674C14.4782 16.4773 14.4744 17.138 14.0645 17.5431C13.6546 17.9482 12.9938 17.9444 12.5887 17.5345L6.37971 11.2524C5.97458 10.8425 5.97844 10.1818 6.38834 9.77668Z" fill="#7369AB"/>
<path fill-rule="evenodd" clip-rule="evenodd" d="M9.27923 8.13793C9.68931 7.73298 10.35 7.73713 10.755 8.14721L15.7013 13.1562C16.1063 13.5662 16.1021 14.2269 15.692 14.6319C15.2819 15.0369 14.6212 15.0327 14.2163 14.6226L9.26995 9.61368C8.865 9.2036 8.86915 8.54288 9.27923 8.13793Z" fill="#7369AB"/>
<path fill-rule="evenodd" clip-rule="evenodd" d="M12.1589 6.49998C12.5687 6.09476 13.2294 6.09848 13.6347 6.5083L17.3183 10.2337C17.7235 10.6435 17.7198 11.3042 17.31 11.7094C16.9002 12.1147 16.2395 12.1109 15.8342 11.7011L12.1506 7.97573C11.7454 7.56592 11.7491 6.90521 12.1589 6.49998Z" fill="#7369AB"/>
<path fill-rule="evenodd" clip-rule="evenodd" d="M18.6526 4.46441e-08C18.9311 -8.13741e-05 19.1982 0.111205 19.3942 0.309083C20.0549 0.975948 20.5825 1.81909 20.7076 2.7702C20.839 3.76978 20.5057 4.75009 19.6966 5.56623L17.4846 7.79911C17.2127 8.07354 16.8115 8.17533 16.4417 8.06371C16.0719 7.95208 15.794 7.6453 15.7194 7.26629L15.322 5.24821C15.3129 5.20099 15.3027 5.15031 15.2918 5.09676C15.2242 4.76308 15.134 4.31784 15.162 3.90064C15.2027 3.29595 15.4623 2.78671 15.9264 2.31515L15.9284 2.31309L17.9111 0.309516C18.1071 0.111524 18.374 8.14634e-05 18.6526 4.46441e-08ZM18.5284 2.65291L17.4131 3.77998C17.3105 3.8843 17.2738 3.94713 17.261 3.97346C17.2513 3.99325 17.2465 4.00873 17.2444 4.04062C17.2414 4.08424 17.2439 4.1588 17.2665 4.30144C17.2831 4.40602 17.3035 4.5092 17.3298 4.64137C17.3422 4.70376 17.3558 4.7726 17.371 4.8511L17.3869 4.93218L18.2142 4.09713C18.6051 3.70277 18.6791 3.3523 18.6383 3.04226C18.6224 2.92144 18.5865 2.79073 18.5284 2.65291Z" fill="#7369AB"/>
<path fill-rule="evenodd" clip-rule="evenodd" d="M20.9915 3.08291C21.9396 3.20334 22.7786 3.72909 23.4431 4.39981C23.8452 4.80562 23.8462 5.45926 23.4455 5.86634L21.457 7.88618C20.9904 8.35284 20.4842 8.62128 19.8744 8.66054C19.4676 8.68672 19.0281 8.59537 18.7065 8.52852C18.6493 8.51663 18.5959 8.50552 18.547 8.49598L18.5391 8.49444L16.5355 8.08743C16.1598 8.01111 15.8562 7.73489 15.7448 7.36803C15.6333 7.00117 15.7321 6.60275 16.0019 6.33037L18.2241 4.08724C19.0301 3.29524 19.9982 2.95675 20.9915 3.08291ZM19.6915 5.5715L18.8443 6.42671L18.9507 6.44833C19.0434 6.46644 19.1211 6.48227 19.1902 6.49633C19.3059 6.51991 19.3974 6.53853 19.4946 6.5547C19.635 6.57802 19.7034 6.58016 19.7403 6.57779C19.7641 6.57625 19.773 6.57337 19.7885 6.56567C19.8115 6.55418 19.8732 6.518 19.9787 6.41294L21.1121 5.26156C20.9758 5.20352 20.847 5.16838 20.7285 5.15333C20.429 5.11529 20.0836 5.18821 19.6915 5.5715Z" fill="#7369AB"/>
<path d="M5.92184 17.3123C5.92184 17.8886 5.45463 18.3558 4.87831 18.3558C4.30198 18.3558 3.83478 17.8886 3.83478 17.3123C3.83478 16.7359 4.30198 16.2687 4.87831 16.2687C5.45463 16.2687 5.92184 16.7359 5.92184 17.3123Z" fill="#7369AB"/>
</svg>
