<svg width="24" height="21" viewBox="0 0 24 21" fill="none" xmlns="http://www.w3.org/2000/svg">
<path fill-rule="evenodd" clip-rule="evenodd" d="M3.62269 0.375502C3.82094 0.137572 4.11465 0 4.42435 0H19.5757C19.8854 0 20.1791 0.137572 20.3773 0.375502C22.6346 3.08456 23.911 6.47646 23.9997 10.0016C23.9999 10.0103 24 10.0191 24 10.0278C24 13.2195 22.1668 16.4383 20.1078 18.8954C19.5746 19.5455 18.9051 20.0705 18.1466 20.4332C17.3861 20.7969 16.5548 20.9887 15.7119 20.9948L15.7043 20.9948H8.29565C7.44624 20.9943 6.60696 20.8053 5.83945 20.4414C5.07264 20.0778 4.39602 19.5487 3.85829 18.8922C1.83369 16.4387 0 13.2193 0 10.0278C0 10.0191 0.000109963 10.0103 0.000329888 10.0016C0.0889922 6.47646 1.36539 3.08456 3.62269 0.375502ZM4.92425 2.08696C3.15883 4.36549 2.1625 7.15112 2.08697 10.0407C2.09205 12.5008 3.55322 15.244 5.46913 17.5654L5.47188 17.5687C5.81422 17.987 6.24513 18.3241 6.73355 18.5557C7.22196 18.7873 7.75569 18.9075 8.29622 18.9078H15.7004C16.2356 18.9034 16.7633 18.7815 17.2461 18.5505C17.7301 18.3191 18.1571 17.9839 18.4968 17.5687L18.5047 17.5591C20.4477 15.2417 21.908 12.4994 21.913 10.0407C21.8375 7.15111 20.8412 4.36549 19.0758 2.08696H4.92425Z" fill="#7369AB"/>
<path fill-rule="evenodd" clip-rule="evenodd" d="M1.04349 1.04348C1.04349 0.467181 1.51067 0 2.08697 0H21.9131C22.4893 0 22.9565 0.467181 22.9565 1.04348C22.9565 1.61978 22.4893 2.08696 21.9131 2.08696H2.08697C1.51067 2.08696 1.04349 1.61978 1.04349 1.04348Z" fill="#7369AB"/>
<path fill-rule="evenodd" clip-rule="evenodd" d="M6.44772 8.51985L6.45154 8.51599C7.49654 7.47101 8.91384 6.88395 10.3917 6.88395C11.8695 6.88395 13.2868 7.47101 14.3318 8.516L15.5566 9.74083C15.9641 10.1483 15.9641 10.809 15.5566 11.2165L14.2949 12.4783C13.2499 13.5232 11.8326 14.1103 10.3548 14.1103C8.87695 14.1103 7.45964 13.5232 6.41466 12.4783C6.40608 12.4697 6.39765 12.461 6.38938 12.4521C5.88942 11.916 5.61627 11.2072 5.62714 10.4742C5.63802 9.74124 5.93207 9.04089 6.44772 8.51985ZM7.92946 9.98949C7.79397 10.1272 7.71674 10.3119 7.71387 10.5052C7.71107 10.6941 7.77951 10.8768 7.90522 11.0173C8.55736 11.6617 9.43743 12.0234 10.3548 12.0234C11.2791 12.0234 12.1656 11.6562 12.8192 11.0026L13.3431 10.4787L12.8561 9.9917C12.2025 9.3381 11.316 8.9709 10.3917 8.9709C9.46838 8.9709 8.58286 9.33727 7.92946 9.98949Z" fill="#7369AB"/>
<path fill-rule="evenodd" clip-rule="evenodd" d="M17.2352 8.1108C17.6427 8.51831 17.6427 9.179 17.2352 9.5865L16.3244 10.4973L17.2457 11.4186C17.6532 11.8261 17.6532 12.4868 17.2457 12.8943C16.8382 13.3018 16.1775 13.3018 15.77 12.8943L14.1108 11.2352C13.7033 10.8277 13.7033 10.167 14.1108 9.7595L15.7595 8.1108C16.167 7.7033 16.8277 7.7033 17.2352 8.1108Z" fill="#7369AB"/>
</svg>
