<svg width="24" height="24" viewBox="0 0 24 24" fill="none" xmlns="http://www.w3.org/2000/svg">
<path fill-rule="evenodd" clip-rule="evenodd" d="M4 4C4 3.44772 4.44772 3 5 3H19C19.3844 3 19.7348 3.22035 19.9013 3.56681C20.0678 3.91328 20.021 4.32453 19.7809 4.6247L16.2806 9L19.7809 13.3753C20.021 13.6755 20.0678 14.0867 19.9013 14.4332C19.7348 14.7797 19.3844 15 19 15H6V20C6 20.5523 5.55228 21 5 21C4.44772 21 4 20.5523 4 20V4ZM6 13H16.9194L14.2191 9.62469C13.927 9.25948 13.927 8.74052 14.2191 8.37531L16.9194 5H6V13Z" fill="#7369AB"/>
</svg>
