<svg width="24" height="24" viewBox="0 0 24 24" fill="none" xmlns="http://www.w3.org/2000/svg">
<path fill-rule="evenodd" clip-rule="evenodd" d="M7.64766 6.07569C7.74044 5.77762 7.9671 5.53997 8.26046 5.43319L11.0795 4.40713C11.3449 4.31055 11.6387 4.33067 11.8885 4.46252L15.4148 6.32443L16.1296 6.01249C18.52 4.96933 21.2949 6.15932 22.1869 8.61013C22.4233 9.25964 22.0884 9.97783 21.4389 10.2142L8.04972 15.0875C7.69379 15.217 7.29521 15.1344 7.02017 14.874L6.21225 14.109C6.21093 14.1078 6.20962 14.1065 6.20831 14.1053L4.58457 12.5679L4.58456 12.5679L2.96084 11.0305C2.70917 10.7923 2.59883 10.4407 2.66921 10.1013C2.7396 9.76195 2.98068 9.48323 3.30635 9.3647L6.12543 8.33864C6.48136 8.20909 6.87994 8.29176 7.15498 8.55218L8.15036 9.49462L9.25332 9.01329L7.78758 6.95248C7.60664 6.69808 7.55488 6.37377 7.64766 6.07569ZM7.57947 12.6493C7.58078 12.6505 7.58209 12.6518 7.58339 12.653L7.94644 12.9967L19.9456 8.62941C19.2616 7.72935 18.0234 7.3682 16.9296 7.84555L15.7735 8.35002C15.4947 8.4717 15.1757 8.45984 14.9067 8.3178L11.3468 6.4382L10.1785 6.86343L11.5969 8.85765C11.7715 9.10313 11.8261 9.41423 11.7456 9.7045C11.6651 9.99478 11.4581 10.2333 11.182 10.3538L8.34353 11.5925C7.97567 11.753 7.54748 11.678 7.25603 11.4021L6.2287 10.4294L5.51084 10.6907L5.95963 11.1156L5.95963 11.1156L7.57947 12.6493Z" fill="#7369AB"/>
<path fill-rule="evenodd" clip-rule="evenodd" d="M3 19C3 18.4477 3.44772 18 4 18L20 18C20.5523 18 21 18.4477 21 19C21 19.5523 20.5523 20 20 20L4 20C3.44772 20 3 19.5523 3 19Z" fill="#7369AB"/>
</svg>
