<svg width="24" height="24" viewBox="0 0 24 24" fill="none" xmlns="http://www.w3.org/2000/svg">
<path fill-rule="evenodd" clip-rule="evenodd" d="M10.4562 3.8214C10.7188 3.6527 11.0452 3.61635 11.3386 3.72312L14.1577 4.74918C14.423 4.84577 14.6352 5.05005 14.7417 5.31158L16.2463 9.00457L16.9943 9.22508C19.496 9.96249 20.8568 12.6577 19.9648 15.1085C19.7284 15.7581 19.0102 16.093 18.3607 15.8565L4.97148 10.9833C4.61555 10.8537 4.36336 10.5342 4.32006 10.1579L4.19285 9.05262C4.19264 9.05083 4.19243 9.04904 4.19222 9.04725L3.93658 6.82581L3.93658 6.82581L3.68093 4.60441C3.64131 4.2601 3.78279 3.91983 4.05484 3.70511C4.32689 3.49039 4.69072 3.43185 5.0164 3.55039L7.83547 4.57645C8.1914 4.70599 8.44359 5.02552 8.4869 5.40181L8.64361 6.76358L9.79792 7.10383L9.99976 4.583C10.0247 4.27181 10.1935 3.99011 10.4562 3.8214ZM6.17849 8.81324C6.17871 8.81503 6.17892 8.81681 6.17912 8.8186L6.23628 9.31528L18.2354 13.6826C18.29 12.5534 17.5736 11.4809 16.4289 11.1435L15.219 10.7869C14.9272 10.7008 14.6905 10.4867 14.5757 10.205L13.0569 6.47688L11.8886 6.05165L11.6932 8.49103C11.6692 8.7913 11.5111 9.06473 11.2628 9.23535C11.0146 9.40597 10.7026 9.45558 10.4137 9.37041L7.44312 8.49479C7.05813 8.38131 6.7783 8.04865 6.73241 7.64992L6.57067 6.24445L5.85281 5.98317L5.92346 6.59715L5.92346 6.59716L6.17849 8.81324Z" fill="#7369AB"/>
<path fill-rule="evenodd" clip-rule="evenodd" d="M3 19C3 18.4477 3.44772 18 4 18L20 18C20.5523 18 21 18.4477 21 19C21 19.5523 20.5523 20 20 20L4 20C3.44772 20 3 19.5523 3 19Z" fill="#7369AB"/>
</svg>
