<svg width="24" height="24" viewBox="0 0 24 24" fill="none" xmlns="http://www.w3.org/2000/svg">
<path fill-rule="evenodd" clip-rule="evenodd" d="M20 12C20 12.5523 19.5523 13 19 13L17 13C16.4477 13 16 12.5523 16 12C16 11.4477 16.4477 11 17 11L19 11C19.5523 11 20 11.4477 20 12ZM14 12C14 12.5523 13.5523 13 13 13L11 13C10.4477 13 10 12.5523 10 12C10 11.4477 10.4477 11 11 11L13 11C13.5523 11 14 11.4477 14 12ZM8 12C8 12.5523 7.55229 13 7 13L5 13C4.44771 13 4 12.5523 4 12C4 11.4477 4.44771 11 5 11L7 11C7.55229 11 8 11.4477 8 12Z" fill="#7369AB"/>
<path fill-rule="evenodd" clip-rule="evenodd" d="M17.9239 20.3827C17.7691 20.7564 17.4044 21 17 21L6.99997 21C6.59551 21 6.23087 20.7564 6.07609 20.3827C5.92131 20.009 6.00687 19.5789 6.29286 19.2929L11.2929 14.2929C11.4804 14.1054 11.7348 14 12 14C12.2652 14 12.5195 14.1054 12.7071 14.2929L17.7071 19.2929C17.9931 19.5789 18.0786 20.009 17.9239 20.3827ZM12 16.4142L9.41418 19L14.5858 19L12 16.4142Z" fill="#7369AB"/>
<path fill-rule="evenodd" clip-rule="evenodd" d="M17.9239 3.61732C17.7691 3.24364 17.4044 3 17 3L6.99997 3C6.59551 3 6.23087 3.24364 6.07609 3.61732C5.92131 3.99099 6.00687 4.42111 6.29286 4.70711L11.2929 9.70711C11.6834 10.0976 12.3166 10.0976 12.7071 9.70711L17.7071 4.70711C17.9931 4.42111 18.0786 3.99099 17.9239 3.61732ZM12 7.58579L9.41418 5L14.5858 5L12 7.58579Z" fill="#7369AB"/>
</svg>
