<svg width="24" height="24" viewBox="0 0 24 24" fill="none" xmlns="http://www.w3.org/2000/svg">
<path fill-rule="evenodd" clip-rule="evenodd" d="M19 13C19.5523 13 20 13.4477 20 14L20 16C20 16.4226 19.7343 16.7996 19.3363 16.9417L5.33634 21.9417C5.03008 22.0511 4.68977 22.0047 4.42395 21.8174C4.15813 21.6301 4 21.3252 4 21L4 14C4 13.4477 4.44771 13 5 13L19 13ZM18 15L6 15L6 19.581L18 15.2953L18 15Z" fill="#7369AB"/>
<path fill-rule="evenodd" clip-rule="evenodd" d="M19 11C19.5523 11 20 10.5523 20 10L20 8C20 7.57739 19.7343 7.2004 19.3363 7.05826L5.33634 2.05826C5.03008 1.94888 4.68977 1.99526 4.42395 2.18259C4.15813 2.36992 4 2.6748 4 3L4 10C4 10.5523 4.44771 11 5 11L19 11ZM18 9L6 9L6 4.41901L18 8.70472L18 9Z" fill="#7369AB"/>
</svg>
