<svg width="24" height="24" viewBox="0 0 24 24" fill="none" xmlns="http://www.w3.org/2000/svg">
<path fill-rule="evenodd" clip-rule="evenodd" d="M11 2C11.5523 2 12 2.44772 12 3L12 21C12 21.5523 11.5523 22 11 22C10.4477 22 10 21.5523 10 21L10 3C10 2.44772 10.4477 2 11 2Z" fill="#7369AB"/>
<path fill-rule="evenodd" clip-rule="evenodd" d="M20 8.2L20 8.16146C20 7.63431 20 7.17955 19.9694 6.80497C19.9371 6.40963 19.8658 6.01641 19.673 5.63803C19.3854 5.07354 18.9265 4.6146 18.362 4.32698C17.9836 4.13419 17.5904 4.06287 17.195 4.03057C16.8205 3.99997 16.3657 3.99998 15.8385 4L15.8 4L14 4L14 6L15.8 6C16.3766 6 16.7488 6.00078 17.0322 6.02393C17.3038 6.04612 17.4045 6.0838 17.454 6.10899C17.6422 6.20487 17.7951 6.35785 17.891 6.54601C17.9162 6.59545 17.9539 6.69617 17.9761 6.96784C17.9992 7.25117 18 7.62345 18 8.2L18 15.8C18 16.3766 17.9992 16.7488 17.9761 17.0322C17.9539 17.3038 17.9162 17.4045 17.891 17.454C17.7951 17.6422 17.6422 17.7951 17.454 17.891C17.4045 17.9162 17.3038 17.9539 17.0322 17.9761C16.7488 17.9992 16.3766 18 15.8 18L14 18L14 20L15.8 20L15.8385 20C16.3657 20 16.8204 20 17.195 19.9694C17.5904 19.9371 17.9836 19.8658 18.362 19.673C18.9265 19.3854 19.3854 18.9265 19.673 18.362C19.8658 17.9836 19.9371 17.5904 19.9694 17.195C20 16.8205 20 16.3657 20 15.8385L20 15.8L20 8.2ZM12 20L12 18L8.2 18C7.62344 18 7.25117 17.9992 6.96783 17.9761C6.69617 17.9539 6.59545 17.9162 6.54601 17.891C6.35785 17.7951 6.20486 17.6422 6.10899 17.454C6.0838 17.4045 6.04612 17.3038 6.02393 17.0322C6.00078 16.7488 6 16.3766 6 15.8L6 8.2C6 7.62345 6.00078 7.25117 6.02393 6.96784C6.04612 6.69617 6.0838 6.59545 6.10899 6.54601C6.20487 6.35785 6.35785 6.20487 6.54601 6.10899C6.59545 6.0838 6.69617 6.04612 6.96783 6.02393C7.25117 6.00078 7.62345 6 8.2 6L12 6L12 4L8.2 4L8.16146 4C7.63431 3.99998 7.17954 3.99997 6.80497 4.03057C6.40963 4.06287 6.01641 4.13419 5.63803 4.32698C5.07354 4.6146 4.6146 5.07354 4.32698 5.63803C4.13419 6.01641 4.06287 6.40963 4.03057 6.80497C3.99997 7.17955 3.99998 7.63432 4 8.16148L4 8.2L4 15.8L4 15.8385C3.99998 16.3657 3.99997 16.8205 4.03057 17.195C4.06287 17.5904 4.13419 17.9836 4.32698 18.362C4.6146 18.9265 5.07354 19.3854 5.63803 19.673C6.01641 19.8658 6.40963 19.9371 6.80497 19.9694C7.17955 20 7.63432 20 8.16148 20L8.2 20L12 20Z" fill="#7369AB"/>
</svg>
