<svg width="24" height="24" viewBox="0 0 24 24" fill="none" xmlns="http://www.w3.org/2000/svg">
<path fill-rule="evenodd" clip-rule="evenodd" d="M12 4C12.5523 4 13 4.44772 13 5V7C13 7.55228 12.5523 8 12 8C11.4477 8 11 7.55228 11 7V5C11 4.44772 11.4477 4 12 4ZM12 10C12.5523 10 13 10.4477 13 11V13C13 13.5523 12.5523 14 12 14C11.4477 14 11 13.5523 11 13V11C11 10.4477 11.4477 10 12 10ZM12 16C12.5523 16 13 16.4477 13 17V19C13 19.5523 12.5523 20 12 20C11.4477 20 11 19.5523 11 19V17C11 16.4477 11.4477 16 12 16Z" fill="#7369AB"/>
<path fill-rule="evenodd" clip-rule="evenodd" d="M20.3827 6.07612C20.7564 6.2309 21 6.59554 21 7V17C21 17.4045 20.7564 17.7691 20.3827 17.9239C20.009 18.0787 19.5789 17.9931 19.2929 17.7071L14.2929 12.7071C13.9024 12.3166 13.9024 11.6834 14.2929 11.2929L19.2929 6.29289C19.5789 6.00689 20.009 5.92134 20.3827 6.07612ZM16.4142 12L19 14.5858V9.41421L16.4142 12Z" fill="#7369AB"/>
<path fill-rule="evenodd" clip-rule="evenodd" d="M3.61732 6.07612C3.24364 6.2309 3 6.59554 3 7V17C3 17.4045 3.24364 17.7691 3.61732 17.9239C3.99099 18.0787 4.42111 17.9931 4.70711 17.7071L9.70711 12.7071C10.0976 12.3166 10.0976 11.6834 9.70711 11.2929L4.70711 6.29289C4.42111 6.00689 3.99099 5.92134 3.61732 6.07612ZM7.58579 12L5 14.5858V9.41421L7.58579 12Z" fill="#7369AB"/>
</svg>
