<svg width="24" height="24" viewBox="0 0 24 24" fill="none" xmlns="http://www.w3.org/2000/svg">
<path fill-rule="evenodd" clip-rule="evenodd" d="M11 5C11 4.44772 10.5523 4 10 4H8C7.57739 4 7.2004 4.26567 7.05826 4.66366L2.05826 18.6637C1.94888 18.9699 1.99525 19.3102 2.18258 19.576C2.36992 19.8419 2.6748 20 3 20H10C10.5523 20 11 19.5523 11 19V5ZM9 6V18H4.419L8.70472 6H9Z" fill="#7369AB"/>
<path fill-rule="evenodd" clip-rule="evenodd" d="M13 5C13 4.44772 13.4477 4 14 4H16C16.4226 4 16.7996 4.26567 16.9417 4.66366L21.9417 18.6637C22.0511 18.9699 22.0047 19.3102 21.8174 19.576C21.6301 19.8419 21.3252 20 21 20H14C13.4477 20 13 19.5523 13 19V5ZM15 6V18H19.581L15.2953 6H15Z" fill="#7369AB"/>
</svg>
