<svg width="24" height="24" viewBox="0 0 24 24" fill="none" xmlns="http://www.w3.org/2000/svg">
<path fill-rule="evenodd" clip-rule="evenodd" d="M5 6C4.44772 6 4 6.44772 4 7V17C4 17.5523 4.44772 18 5 18H19C19.5523 18 20 17.5523 20 17V9C20 8.44772 19.5523 8 19 8H12C11.7348 8 11.4804 7.89464 11.2929 7.70711L9.58579 6H5ZM2 7C2 5.34315 3.34315 4 5 4H9.58579C10.1162 4 10.6249 4.21071 11 4.58579L12.4142 6H19C20.6569 6 22 7.34315 22 9V17C22 18.6569 20.6569 20 19 20H5C3.34315 20 2 18.6569 2 17V7Z" fill="#7369AB"/>
</svg>
