<svg width="24" height="24" viewBox="0 0 24 24" fill="none" xmlns="http://www.w3.org/2000/svg">
<path fill-rule="evenodd" clip-rule="evenodd" d="M2.29289 2.29289C2.68342 1.90237 3.31658 1.90237 3.70711 2.29289L21.7071 20.2929C22.0976 20.6834 22.0976 21.3166 21.7071 21.7071C21.3166 22.0976 20.6834 22.0976 20.2929 21.7071L2.29289 3.70711C1.90237 3.31658 1.90237 2.68342 2.29289 2.29289Z" fill="#7369AB"/>
<path fill-rule="evenodd" clip-rule="evenodd" d="M4.88783 4.00206C3.28295 4.06105 2 5.3807 2 7V17C2 18.6569 3.34315 20 5 20H19C19.5582 20 20.0807 19.8476 20.5283 19.5821C20.4437 19.5368 20.3642 19.4785 20.2929 19.4071L18.8858 18H5C4.44772 18 4 17.5523 4 17V7C4 6.44772 4.44772 6 5 6H6.88577L4.88783 4.00206ZM20 16.2858V9C20 8.44772 19.5523 8 19 8H12C11.8799 8 11.762 7.97839 11.6515 7.93732L7.7142 4H9.58579C10.1162 4 10.6249 4.21071 11 4.58579L12.4142 6H19C20.6569 6 22 7.34315 22 9V17C22 17.3856 21.9272 17.7542 21.7947 18.0929C21.7681 18.0581 21.7389 18.0247 21.7071 17.9929L20 16.2858Z" fill="#7369AB"/>
</svg>
