<svg width="24" height="24" viewBox="0 0 24 24" fill="none" xmlns="http://www.w3.org/2000/svg">
<path fill-rule="evenodd" clip-rule="evenodd" d="M3.08076 5.1394C2.94939 3.93647 3.92394 3 5.03393 3H7.18024C8.1336 3 8.95443 3.67292 9.1414 4.60777L9.87567 8.27909C10.0068 8.93481 9.80157 9.61269 9.32872 10.0855L7.4955 11.9188C8.68123 13.8289 10.354 15.6184 12.6603 16.9255L14.8926 14.6933C15.3893 14.1965 16.1103 13.9968 16.7919 14.1672L19.4851 14.8405C20.3755 15.0631 21 15.863 21 16.7808V18.9334C21 20.0745 20.025 21.0349 18.8258 20.9001C16.3494 20.6216 14.2177 19.9682 12.3936 19.0501C9.07042 17.3775 6.82422 14.8563 5.36793 12.246C3.98451 9.76638 3.30497 7.1924 3.08076 5.1394ZM14.578 17.8363C15.8745 18.3435 17.3414 18.7165 19 18.907V16.7808L16.3068 16.1075L14.578 17.8363ZM6.50966 10.0762L7.91451 8.67132L7.18024 5H5.07765C5.24739 6.47912 5.68624 8.27348 6.50966 10.0762Z" fill="#7369AB"/>
<path fill-rule="evenodd" clip-rule="evenodd" d="M15 4C15 3.44772 15.4477 3 16 3H20C20.5523 3 21 3.44772 21 4V8C21 8.55228 20.5523 9 20 9C19.4477 9 19 8.55228 19 8V6.41421L14.7071 10.7071C14.3166 11.0976 13.6834 11.0976 13.2929 10.7071C12.9024 10.3166 12.9024 9.68342 13.2929 9.29289L17.5858 5H16C15.4477 5 15 4.55228 15 4Z" fill="#7369AB"/>
</svg>
