<svg width="24" height="24" viewBox="0 0 24 24" fill="none" xmlns="http://www.w3.org/2000/svg">
<path fill-rule="evenodd" clip-rule="evenodd" d="M14.1625 7.31572C12.8387 6.3702 11 7.31644 11 8.94319V15.0568C11 16.6836 12.8387 17.6298 14.1625 16.6843L18.442 13.6275C19.5587 12.8298 19.5587 11.1702 18.442 10.3725L14.1625 7.31572ZM13 8.94319L17.2795 12L13 15.0568V8.94319Z" fill="#7369AB"/>
<path fill-rule="evenodd" clip-rule="evenodd" d="M7.16248 7.31572C5.83875 6.3702 4.00001 7.31644 4.00001 8.94319V15.0568C4.00001 16.6836 5.83875 17.6298 7.16248 16.6843L11.442 13.6275C12.5587 12.8298 12.5587 11.1702 11.442 10.3725L7.16248 7.31572ZM6.00001 8.94319L10.2795 12L6.00001 15.0568V8.94319Z" fill="#7369AB"/>
</svg>
