<svg width="24" height="24" viewBox="0 0 24 24" fill="none" xmlns="http://www.w3.org/2000/svg">
<path fill-rule="evenodd" clip-rule="evenodd" d="M1 9C1 7.34315 2.34315 6 4 6H20C21.6569 6 23 7.34315 23 9V10C23 11.6569 21.6569 13 20 13H4C2.34315 13 1 11.6569 1 10V9ZM4 8C3.44772 8 3 8.44772 3 9V10C3 10.5523 3.44772 11 4 11H20C20.5523 11 21 10.5523 21 10V9C21 8.44772 20.5523 8 20 8H4Z" fill="#7369AB"/>
<path fill-rule="evenodd" clip-rule="evenodd" d="M3 12C3 11.4477 3.44772 11 4 11H20C20.5523 11 21 11.4477 21 12V19C21 20.6569 19.6569 22 18 22H6C4.34315 22 3 20.6569 3 19V12ZM5 13V19C5 19.5523 5.44772 20 6 20H18C18.5523 20 19 19.5523 19 19V13H5Z" fill="#7369AB"/>
<path fill-rule="evenodd" clip-rule="evenodd" d="M12 6C12.5523 6 13 6.44772 13 7V21C13 21.5523 12.5523 22 12 22C11.4477 22 11 21.5523 11 21V7C11 6.44772 11.4477 6 12 6Z" fill="#7369AB"/>
<path fill-rule="evenodd" clip-rule="evenodd" d="M4 5.23438C4 3.45616 5.44076 2 7.22727 2H8.12903C10.8192 2 13 4.18081 13 6.87097C13 7.49451 12.4945 8 11.871 8H6.76C5.23155 8 4 6.75454 4 5.23438ZM7.22727 4C6.55361 4 6 4.55243 6 5.23438C6 5.65827 6.34441 6 6.76 6H10.8655C10.4967 4.84022 9.41099 4 8.12903 4H7.22727Z" fill="#7369AB"/>
<path fill-rule="evenodd" clip-rule="evenodd" d="M20 5.23438C20 3.45616 18.5592 2 16.7727 2H15.871C13.1808 2 11 4.18081 11 6.87097C11 7.49451 11.5055 8 12.129 8H17.24C18.7684 8 20 6.75454 20 5.23438ZM16.7727 4C17.4464 4 18 4.55243 18 5.23438C18 5.65827 17.6556 6 17.24 6H13.1345C13.5033 4.84022 14.589 4 15.871 4H16.7727Z" fill="#7369AB"/>
</svg>
