<svg width="24" height="24" viewBox="0 0 24 24" fill="none" xmlns="http://www.w3.org/2000/svg">
<path fill-rule="evenodd" clip-rule="evenodd" d="M12.5 6C10.567 6 9 7.567 9 9.5C9 11.433 10.567 13 12.5 13C14.433 13 16 11.433 16 9.5C16 7.567 14.433 6 12.5 6ZM7 9.5C7 6.46243 9.46243 4 12.5 4C15.5376 4 18 6.46243 18 9.5C18 12.5376 15.5376 15 12.5 15C9.46243 15 7 12.5376 7 9.5Z" fill="#7369AB"/>
<path fill-rule="evenodd" clip-rule="evenodd" d="M8.44514 3.11187C8.80014 3.53495 8.74496 4.1657 8.32188 4.52071C7.66799 5.06939 7.12858 5.74148 6.73443 6.49863C6.34029 7.25577 6.09913 8.08314 6.02473 8.93348C5.95034 9.78383 6.04416 10.6405 6.30084 11.4546C6.55752 12.2687 6.97203 13.0242 7.52071 13.6781C8.06939 14.332 8.74149 14.8714 9.49863 15.2656C10.2558 15.6597 11.0831 15.9009 11.9335 15.9753C12.7838 16.0497 13.6405 15.9558 14.4546 15.6992C15.2687 15.4425 16.0242 15.028 16.6781 14.4793C17.1012 14.1243 17.732 14.1795 18.087 14.6025C18.442 15.0256 18.3868 15.6564 17.9637 16.0114C17.1086 16.7289 16.1206 17.2709 15.056 17.6066C13.9914 17.9422 12.8712 18.0649 11.7592 17.9677C10.6472 17.8704 9.56525 17.555 8.57514 17.0396C7.58502 16.5242 6.70613 15.8188 5.98862 14.9637C5.27112 14.1086 4.72906 13.1206 4.39341 12.056C4.05775 10.9914 3.93506 9.87116 4.03235 8.75917C4.12963 7.64718 4.44499 6.56524 4.96041 5.57513C5.47583 4.58502 6.18122 3.70612 7.03631 2.98862C7.45938 2.63362 8.09014 2.6888 8.44514 3.11187Z" fill="#7369AB"/>
<path fill-rule="evenodd" clip-rule="evenodd" d="M12 16C12.5523 16 13 16.4477 13 17V19H14C14.5523 19 15 19.4477 15 20C15 20.5523 14.5523 21 14 21H12.0005H9.5C8.94772 21 8.5 20.5523 8.5 20C8.5 19.4477 8.94772 19 9.5 19H11V17C11 16.4477 11.4477 16 12 16Z" fill="#7369AB"/>
</svg>
