<svg width="24" height="24" viewBox="0 0 24 24" fill="none" xmlns="http://www.w3.org/2000/svg">
<path fill-rule="evenodd" clip-rule="evenodd" d="M8 4C6.89543 4 6 4.89543 6 6V18C6 19.1046 6.89543 20 8 20H16C17.1046 20 18 19.1046 18 18V9.625H14.5C13.3954 9.625 12.5 8.72957 12.5 7.625V4H8ZM14.5 5.4531L16.6236 7.625H14.5V5.4531ZM4 6C4 3.79086 5.79086 2 8 2H13.5C13.7691 2 14.0269 2.10847 14.215 2.30088L19.715 7.92588C19.8977 8.11273 20 8.36367 20 8.625V18C20 20.2091 18.2091 22 16 22H8C5.79086 22 4 20.2091 4 18V6Z" fill="#7369AB"/>
<path fill-rule="evenodd" clip-rule="evenodd" d="M14.7929 12.7929C15.1834 12.4024 15.8166 12.4024 16.2071 12.7929C16.5976 13.1834 16.5976 13.8166 16.2071 14.2071L13.7071 16.7071C13.3166 17.0976 12.6834 17.0976 12.2929 16.7071L11.5 15.9142L9.70711 17.7071C9.31658 18.0976 8.68342 18.0976 8.29289 17.7071C7.90237 17.3166 7.90237 16.6834 8.29289 16.2929L10.7929 13.7929C11.1834 13.4024 11.8166 13.4024 12.2071 13.7929L13 14.5858L14.7929 12.7929Z" fill="#7369AB"/>
</svg>
