<svg width="24" height="24" viewBox="0 0 24 24" fill="none" xmlns="http://www.w3.org/2000/svg">
<path fill-rule="evenodd" clip-rule="evenodd" d="M4 4C4.55228 4 5 4.44772 5 5V19H19C19.5523 19 20 19.4477 20 20C20 20.5523 19.5523 21 19 21H5C3.89543 21 3 20.1046 3 19V5C3 4.44772 3.44772 4 4 4Z" fill="#7369AB"/>
<path fill-rule="evenodd" clip-rule="evenodd" d="M18.7071 8.2929C19.0976 8.68343 19.0976 9.31659 18.7071 9.70711L13.7071 14.707C13.5196 14.8945 13.2652 14.9999 13 14.9999C12.7348 14.9999 12.4804 14.8945 12.2929 14.707L10.5 12.914L7.70711 15.7069C7.31658 16.0974 6.68342 16.0974 6.29289 15.7069C5.90237 15.3164 5.90237 14.6832 6.29289 14.2927L9.79289 10.7927C9.98043 10.6051 10.2348 10.4998 10.5 10.4998C10.7652 10.4998 11.0196 10.6052 11.2071 10.7927L13 12.5857L17.2929 8.29289C17.6834 7.90237 18.3166 7.90237 18.7071 8.2929Z" fill="#7369AB"/>
</svg>
