<svg width="24" height="24" viewBox="0 0 24 24" fill="none" xmlns="http://www.w3.org/2000/svg">
<path fill-rule="evenodd" clip-rule="evenodd" d="M2.29289 2.29289C2.68342 1.90237 3.31658 1.90237 3.70711 2.29289L21.7071 20.2929C22.0976 20.6834 22.0976 21.3166 21.7071 21.7071C21.3166 22.0976 20.6834 22.0976 20.2929 21.7071L2.29289 3.70711C1.90237 3.31658 1.90237 2.68342 2.29289 2.29289Z" fill="#7369AB"/>
<path fill-rule="evenodd" clip-rule="evenodd" d="M4.19177 3.60598C3.46779 4.15368 3 5.02221 3 6V9.33333V14.6667V18C3 19.6569 4.34315 21 6 21H9.33333H14.6667H18C18.9814 21 19.8527 20.5288 20.4001 19.8002C20.3627 19.7721 20.3269 19.7411 20.2929 19.7071L18.9367 18.3509C18.7946 18.7301 18.4288 19 18 19H15.6667V15.6667H16.2525L13.6667 13.0809V13.6667H10.3333V10.3333H10.9191L8.33333 7.74755V8.33333H5V6C5 5.57119 5.2699 5.20542 5.64909 5.0633L4.19177 3.60598ZM21 17.5858V14.6667V9.33333V6C21 4.34315 19.6569 3 18 3H14.6667H9.33333H6.41421L10.3333 6.91912V5H13.6667V8.33333H11.7475L15.6667 12.2525V10.3333H19V13.6667H17.0809L21 17.5858ZM15.6667 8.33333V5H18C18.5523 5 19 5.44772 19 6V8.33333H15.6667ZM13.6667 15.6667V19H10.3333V15.6667H13.6667ZM8.33333 15.6667V19H6C5.44772 19 5 18.5523 5 18V15.6667H8.33333ZM8.33333 13.6667H5V10.3333H8.33333V13.6667Z" fill="#7369AB"/>
</svg>
