<svg width="24" height="24" viewBox="0 0 24 24" fill="none" xmlns="http://www.w3.org/2000/svg">
<path fill-rule="evenodd" clip-rule="evenodd" d="M6 5C5.44772 5 5 5.44772 5 6V8.33333H8.33333V5H6ZM10.3333 5V8.33333H13.6667V5H10.3333ZM15.6667 5V8.33333H19V6C19 5.44772 18.5523 5 18 5H15.6667ZM19 10.3333H15.6667V13.6667H19V10.3333ZM19 15.6667H15.6667V19H18C18.5523 19 19 18.5523 19 18V15.6667ZM13.6667 19V15.6667H10.3333V19H13.6667ZM8.33333 19V15.6667H5V18C5 18.5523 5.44772 19 6 19H8.33333ZM5 13.6667H8.33333V10.3333H5V13.6667ZM10.3333 10.3333V13.6667H13.6667V10.3333H10.3333ZM3 6C3 4.34315 4.34315 3 6 3H18C19.6569 3 21 4.34315 21 6V18C21 19.6569 19.6569 21 18 21H6C4.34315 21 3 19.6569 3 18V6Z" fill="#7369AB"/>
</svg>
