<svg width="24" height="24" viewBox="0 0 24 24" fill="none" xmlns="http://www.w3.org/2000/svg">
<path fill-rule="evenodd" clip-rule="evenodd" d="M12 4C7.58172 4 4 7.58172 4 12C4 16.4183 7.58172 20 12 20C16.4183 20 20 16.4183 20 12C20 7.58172 16.4183 4 12 4ZM2 12C2 6.47715 6.47715 2 12 2C17.5228 2 22 6.47715 22 12C22 17.5228 17.5228 22 12 22C6.47715 22 2 17.5228 2 12Z" fill="#7369AB"/>
<path d="M11 9.5C11 10.3284 10.3284 11 9.5 11C8.67157 11 8 10.3284 8 9.5C8 8.67157 8.67157 8 9.5 8C10.3284 8 11 8.67157 11 9.5Z" fill="#7369AB"/>
<path d="M16 9.5C16 10.3284 15.3284 11 14.5 11C13.6716 11 13 10.3284 13 9.5C13 8.67157 13.6716 8 14.5 8C15.3284 8 16 8.67157 16 9.5Z" fill="#7369AB"/>
<path fill-rule="evenodd" clip-rule="evenodd" d="M8 14C8 13.4477 8.44772 13 9 13L15 13C15.5523 13 16 13.4477 16 14C16 14.5253 15.8965 15.0454 15.6955 15.5307C15.4945 16.016 15.1999 16.457 14.8284 16.8284C14.457 17.1999 14.016 17.4945 13.5307 17.6955C13.0454 17.8965 12.5253 18 12 18C11.4747 18 10.9546 17.8965 10.4693 17.6955C9.98396 17.4945 9.54301 17.1999 9.17157 16.8284C8.80014 16.457 8.5055 16.016 8.30448 15.5307C8.10346 15.0454 8 14.5253 8 14ZM10.2679 15C10.3552 15.151 10.4619 15.2904 10.5858 15.4142C10.7715 15.5999 10.992 15.7472 11.2346 15.8478C11.4773 15.9483 11.7374 16 12 16C12.2626 16 12.5227 15.9483 12.7654 15.8478C13.008 15.7472 13.2285 15.5999 13.4142 15.4142C13.5381 15.2904 13.6448 15.151 13.7321 15L10.2679 15Z" fill="#7369AB"/>
</svg>
