<svg width="24" height="12" viewBox="0 0 24 12" fill="none" xmlns="http://www.w3.org/2000/svg">
<path fill-rule="evenodd" clip-rule="evenodd" d="M13.1244 2.75736C13.0308 2.68869 12.917 2.65319 12.8009 2.65649C12.7827 2.65701 12.7645 2.65705 12.7463 2.65662C12.6273 2.65377 12.5106 2.69014 12.4143 2.76014C12.4074 2.76515 12.4004 2.77008 12.3934 2.77492C11.6769 3.2693 10.8239 3.52717 9.95387 3.51275C9.54603 3.51951 9.14193 3.46644 8.75388 3.35721V6.0169H22.4129V3.35721C22.0243 3.46659 21.6197 3.51966 21.2113 3.51273C20.3455 3.52462 19.4974 3.26699 18.7843 2.77526C18.673 2.69874 18.5411 2.65777 18.406 2.65777C18.2708 2.65777 18.1387 2.69883 18.0273 2.77552L18.0092 2.78773C17.2905 3.26065 16.449 3.51268 15.5886 3.51268C14.7283 3.51268 13.8868 3.26065 13.1681 2.78773C13.1533 2.77798 13.1387 2.76786 13.1244 2.75736ZM14.3327 1.05574C13.8772 0.730126 13.3289 0.559699 12.7689 0.569757C12.2068 0.562135 11.6569 0.734881 11.2 1.0628C10.8403 1.30849 10.4126 1.4355 9.97692 1.42587C9.96156 1.42553 9.94619 1.42553 9.93082 1.42587C9.49182 1.43557 9.06095 1.30655 8.69952 1.05718C8.68721 1.04868 8.67472 1.04045 8.66205 1.0325C8.49032 0.9246 8.31059 0.830002 8.12442 0.749532C7.80193 0.610135 7.43094 0.642382 7.13733 0.835331C6.84373 1.02828 6.66693 1.35602 6.66693 1.70735V7.06037C6.66693 7.63666 7.13411 8.10384 7.7104 8.10384H23.4564C24.0327 8.10384 24.4999 7.63666 24.4999 7.06037V1.70735C24.4999 1.35602 24.3231 1.02828 24.0295 0.835331C23.7359 0.642382 23.3649 0.610135 23.0424 0.749532C22.8562 0.830003 22.6765 0.924601 22.5048 1.0325C22.4921 1.04045 22.4796 1.04868 22.4673 1.05718C22.1059 1.30655 21.675 1.43557 21.236 1.42587C21.2218 1.42556 21.2075 1.42553 21.1933 1.4258C20.7566 1.43404 20.3284 1.30508 19.9689 1.05711L19.9682 1.05658C19.5086 0.740209 18.9639 0.57082 18.406 0.57082C17.8525 0.57082 17.312 0.737543 16.8548 1.0491C16.4783 1.29484 16.0383 1.42573 15.5886 1.42573C15.143 1.42573 14.7069 1.29719 14.3327 1.05574Z" fill="#7369AB"/>
<path fill-rule="evenodd" clip-rule="evenodd" d="M22.4129 9.80466V8.09336L3.44259 8.09336C3.21566 8.09336 2.99803 8.18351 2.83756 8.34397C2.6771 8.50444 2.58695 8.72208 2.58695 8.94901C2.58695 9.17594 2.6771 9.39358 2.83756 9.55404C2.99803 9.71451 3.21566 9.80466 3.44259 9.80466L22.4129 9.80466ZM22.4132 7.47374L22.4131 7.48815C22.4131 7.48335 22.4131 7.47854 22.4132 7.47374ZM24.0659 11.4576C23.788 11.7355 23.4111 11.8916 23.0181 11.8916L3.44259 11.8916C2.66217 11.8916 1.91371 11.5816 1.36187 11.0297C0.810022 10.4779 0.5 9.72943 0.5 8.94901C0.5 8.16858 0.810022 7.42012 1.36187 6.86828C1.91371 6.31644 2.66217 6.00641 3.44259 6.00641L23.0178 6.00641C23.0179 6.00641 23.018 6.00641 23.0181 6.00641C23.2156 6.0064 23.4111 6.04586 23.5932 6.12248C23.7753 6.19914 23.9402 6.31145 24.0783 6.4528C24.2163 6.59415 24.3247 6.76169 24.3971 6.94555C24.4675 7.12442 24.5024 7.31523 24.4999 7.50733V10.4099C24.4999 10.8029 24.3438 11.1797 24.0659 11.4576Z" fill="#7369AB"/>
</svg>
