<svg width="21" height="24" viewBox="0 0 21 24" fill="none" xmlns="http://www.w3.org/2000/svg">
<path fill-rule="evenodd" clip-rule="evenodd" d="M10.4139 2.08696C5.81508 2.08696 2.08696 5.81508 2.08696 10.4139C2.08696 15.0128 5.81508 18.7409 10.4139 18.7409C15.0128 18.7409 18.7409 15.0128 18.7409 10.4139C18.7409 5.81508 15.0128 2.08696 10.4139 2.08696ZM0 10.4139C0 4.66248 4.66248 0 10.4139 0C16.1654 0 20.8279 4.66248 20.8279 10.4139C20.8279 16.1654 16.1654 20.8279 10.4139 20.8279C4.66248 20.8279 0 16.1654 0 10.4139Z" fill="#7369AB"/>
<path fill-rule="evenodd" clip-rule="evenodd" d="M10.4139 9.02599C9.82612 9.02599 9.3496 9.50252 9.3496 10.0903C9.3496 10.6782 9.82612 11.1547 10.4139 11.1547C11.0018 11.1547 11.4783 10.6782 11.4783 10.0903C11.4783 9.50252 11.0018 9.02599 10.4139 9.02599ZM7.26263 10.0903C7.26263 8.34992 8.67353 6.93903 10.4139 6.93903C12.1544 6.93903 13.5653 8.34992 13.5653 10.0903C13.5653 11.8308 12.1544 13.2417 10.4139 13.2417C8.67353 13.2417 7.26263 11.8308 7.26263 10.0903Z" fill="#7369AB"/>
<path fill-rule="evenodd" clip-rule="evenodd" d="M7.85297 11.0966C8.29545 10.9749 8.6201 10.5693 8.61914 10.0883C8.61798 9.51196 8.14986 9.04572 7.57356 9.04688C7.14885 9.04773 6.73837 9.20005 6.4159 9.47644C6.09344 9.75284 5.88014 10.1352 5.81434 10.5548C5.8119 10.5703 5.80982 10.5859 5.80809 10.6015L4.54687 21.9838C4.51461 22.2299 4.53406 22.4801 4.60406 22.7185C4.6759 22.9631 4.79933 23.1895 4.96603 23.3823C5.13273 23.5752 5.33882 23.7302 5.57044 23.8367C5.80206 23.9432 6.05381 23.9989 6.30875 24L14.5148 24L14.5191 24C14.774 23.9989 15.0258 23.9432 15.2574 23.8367C15.489 23.7302 15.6951 23.5752 15.8618 23.3823C16.0285 23.1895 16.152 22.9631 16.2238 22.7185C16.2938 22.4801 16.3132 22.2299 16.281 21.9838L15.0198 10.6015C15.018 10.5859 15.016 10.5703 15.0135 10.5548C14.9477 10.1352 14.7344 9.75284 14.412 9.47644C14.0895 9.20005 13.679 9.04773 13.2543 9.04688C12.678 9.04572 12.2099 9.51196 12.2087 10.0883C12.2078 10.5693 12.5324 10.9749 12.9749 11.0966L14.1734 21.913H6.65444L7.85297 11.0966Z" fill="#7369AB"/>
</svg>
