<svg width="24" height="24" viewBox="0 0 24 24" fill="none" xmlns="http://www.w3.org/2000/svg">
<g id="Headset Mic 2">
<path id="Rectangle 24 (Stroke)" fill-rule="evenodd" clip-rule="evenodd" d="M4 9.5C4 5.35786 7.35786 2 11.5 2H12.5C16.6421 2 20 5.35786 20 9.5V17C20 17.1075 19.9827 17.2143 19.9487 17.3162L19.4045 18.9487C18.9962 20.1737 17.8498 21 16.5585 21H13C12.4477 21 12 20.5523 12 20C12 19.4477 12.4477 19 13 19H16.5585C16.9889 19 17.3711 18.7246 17.5072 18.3162L17.6126 18H17C15.3431 18 14 16.6569 14 15V13C14 11.3431 15.3431 10 17 10H18V9.5C18 6.46243 15.5376 4 12.5 4H11.5C8.46243 4 6 6.46243 6 9.5V10H7C8.65685 10 10 11.3431 10 13V15C10 16.6569 8.65685 18 7 18H5C4.44772 18 4 17.5523 4 17V9.5ZM6 12V16H7C7.55228 16 8 15.5523 8 15V13C8 12.4477 7.55228 12 7 12H6ZM18 12H17C16.4477 12 16 12.4477 16 13V15C16 15.5523 16.4477 16 17 16H18V12Z" fill="#7369AB"/>
</g>
</svg>
