<svg width="24" height="24" viewBox="0 0 24 24" fill="none" xmlns="http://www.w3.org/2000/svg">
<g id="Headset Off">
<path id="Vector 11 (Stroke)" fill-rule="evenodd" clip-rule="evenodd" d="M4.29289 4.29289C4.68342 3.90237 5.31658 3.90237 5.70711 4.29289L21.7071 20.2929C22.0976 20.6834 22.0976 21.3166 21.7071 21.7071C21.3166 22.0976 20.6834 22.0976 20.2929 21.7071L4.29289 5.70711C3.90237 5.31658 3.90237 4.68342 4.29289 4.29289Z" fill="#7369AB"/>
<path id="Subtract" fill-rule="evenodd" clip-rule="evenodd" d="M6.84745 6.26167C5.70041 7.50834 5 9.17237 5 11V11.5C5 11.5113 5.00019 11.5226 5.00056 11.5339C5.00019 11.5451 5 11.5564 5 11.5677V12C5 12.042 5.00259 12.0834 5.00762 12.1241C3.27853 12.5655 2 14.1334 2 16C2 18.2091 3.79086 20 6 20H6.75C7.99264 20 9 18.9926 9 17.75V14.25C9 13.0918 8.12494 12.138 6.99991 12.0137L7 12V11.5677C7 11.5564 6.99981 11.5451 6.99944 11.5339C6.99981 11.5226 7 11.5113 7 11.5V11C7 9.72468 7.47747 8.56088 8.26339 7.67761L6.84745 6.26167ZM15.8796 12.4654C16.1969 12.2213 16.5812 12.06 17.0001 12.0137L17 12V11.5V11C17 8.23858 14.7614 6 12 6C11.2434 6 10.526 6.16807 9.88313 6.46891L8.40603 4.99182C9.45659 4.36204 10.686 4 12 4C15.866 4 19 7.13401 19 11V11.5V12C19 12.042 18.9974 12.0834 18.9924 12.1241C20.7215 12.5655 22 14.1334 22 16C22 16.7418 21.7981 17.4365 21.4462 18.032L19.9323 16.518C19.9764 16.3528 20 16.1792 20 16C20 14.8954 19.1046 14 18 14H17.4142L15.8796 12.4654ZM15 14.4142V17.75C15 18.9926 16.0074 20 17.25 20H18C18.7418 20 19.4365 19.7981 20.032 19.4462L18.518 17.9323C18.3528 17.9764 18.1792 18 18 18H17.25C17.1119 18 17 17.8881 17 17.75V16.4142L15 14.4142ZM6 14C4.89543 14 4 14.8954 4 16C4 17.1046 4.89543 18 6 18H6.75C6.88807 18 7 17.8881 7 17.75V14.25C7 14.1119 6.88807 14 6.75 14H6Z" fill="#7369AB"/>
</g>
</svg>
