<svg width="24" height="24" viewBox="0 0 24 24" fill="none" xmlns="http://www.w3.org/2000/svg">
<g id="Headset Mic 1">
<path id="Rectangle 22 (Stroke)" fill-rule="evenodd" clip-rule="evenodd" d="M5 9C5 5.13401 8.13401 2 12 2C15.866 2 19 5.13401 19 9V9.12602C20.7252 9.57006 22 11.1362 22 13C22 14.9349 20.6262 16.5489 18.8008 16.9198L18.3489 18.7276C18.015 20.0631 16.815 21 15.4384 21H13C12.4477 21 12 20.5523 12 20C12 19.4477 12.4477 19 13 19H15.4384C15.8973 19 16.2973 18.6877 16.4086 18.2425L16.7341 16.9406C15.7401 16.7074 15 15.8151 15 14.75V11.25C15 10.0919 15.875 9.13809 17 9.01373V9C17 6.23858 14.7614 4 12 4C9.23858 4 7 6.23858 7 9V9.01373C8.12499 9.13809 9 10.0919 9 11.25V14.75C9 15.9926 7.99264 17 6.75 17H6C3.79086 17 2 15.2091 2 13C2 11.1362 3.27477 9.57006 5 9.12602V9ZM6 11C4.89543 11 4 11.8954 4 13C4 14.1046 4.89543 15 6 15H6.75C6.88807 15 7 14.8881 7 14.75V11.25C7 11.1119 6.88807 11 6.75 11H6ZM17.25 11C17.1119 11 17 11.1119 17 11.25V14.75C17 14.8881 17.1119 15 17.25 15H18C19.1046 15 20 14.1046 20 13C20 11.8954 19.1046 11 18 11H17.25Z" fill="#7369AB"/>
</g>
</svg>
