<svg width="24" height="24" viewBox="0 0 24 24" fill="none" xmlns="http://www.w3.org/2000/svg">
<g id="Headset">
<path id="Rectangle 22 (Stroke)" fill-rule="evenodd" clip-rule="evenodd" d="M5 11C5 7.13401 8.13401 4 12 4C15.866 4 19 7.13401 19 11V12.126C20.7252 12.5701 22 14.1362 22 16C22 18.2091 20.2091 20 18 20H17.25C16.0074 20 15 18.9926 15 17.75V14.25C15 13.0919 15.875 12.1381 17 12.0137V11C17 8.23858 14.7614 6 12 6C9.23858 6 7 8.23858 7 11V12.0137C8.12499 12.1381 9 13.0919 9 14.25V17.75C9 18.9926 7.99264 20 6.75 20H6C3.79086 20 2 18.2091 2 16C2 14.1362 3.27477 12.5701 5 12.126V11ZM6 14C4.89543 14 4 14.8954 4 16C4 17.1046 4.89543 18 6 18H6.75C6.88807 18 7 17.8881 7 17.75V14.25C7 14.1119 6.88807 14 6.75 14H6ZM17.25 14C17.1119 14 17 14.1119 17 14.25V17.75C17 17.8881 17.1119 18 17.25 18H18C19.1046 18 20 17.1046 20 16C20 14.8954 19.1046 14 18 14H17.25Z" fill="#7369AB"/>
</g>
</svg>
