<svg width="24" height="24" viewBox="0 0 24 24" fill="none" xmlns="http://www.w3.org/2000/svg">
<path fill-rule="evenodd" clip-rule="evenodd" d="M2 6C2 3.79086 3.79086 2 6 2H18C20.2091 2 22 3.79086 22 6V7.5C22 8.05228 21.5523 8.5 21 8.5C20.4477 8.5 20 8.05228 20 7.5V6C20 4.89543 19.1046 4 18 4H6C4.89543 4 4 4.89543 4 6V7.5C4 8.05228 3.55228 8.5 3 8.5C2.44772 8.5 2 8.05228 2 7.5V6ZM3 15.5C3.55228 15.5 4 15.9477 4 16.5V18C4 19.1046 4.89543 20 6 20H18C19.1046 20 20 19.1046 20 18V16.5C20 15.9477 20.4477 15.5 21 15.5C21.5523 15.5 22 15.9477 22 16.5V18C22 20.2091 20.2091 22 18 22H6C3.79086 22 2 20.2091 2 18V16.5C2 15.9477 2.44772 15.5 3 15.5Z" fill="#7369AB"/>
<path fill-rule="evenodd" clip-rule="evenodd" d="M10.1419 7.01012C10.5035 7.06195 10.8081 7.30684 10.9363 7.64888L13.2953 13.9396L15.2 11.4C15.3889 11.1482 15.6852 11 16 11H21C21.5523 11 22 11.4477 22 12C22 12.5523 21.5523 13 21 13H16.5L13.8 16.6C13.5808 16.8922 13.2197 17.0417 12.8581 16.9899C12.4965 16.9381 12.1919 16.6932 12.0637 16.3511L9.70467 10.0605L7.8 12.6C7.61115 12.8518 7.31476 13 7 13H3C2.44772 13 2 12.5523 2 12C2 11.4477 2.44772 11 3 11H6.5L9.2 7.40001C9.41918 7.10776 9.78028 6.95829 10.1419 7.01012Z" fill="#7369AB"/>
</svg>
