<svg width="24" height="24" viewBox="0 0 24 24" fill="none" xmlns="http://www.w3.org/2000/svg">
<path fill-rule="evenodd" clip-rule="evenodd" d="M13.3957 6.13313C14.9065 4.62229 17.356 4.62229 18.8669 6.13313C19.6489 6.91514 20.0261 7.94679 19.9986 8.97321C19.9838 9.52529 20.4194 9.98484 20.9715 9.99964C21.5235 10.0144 21.9831 9.57888 21.9979 9.02679C22.0395 7.47441 21.4672 5.90503 20.2811 4.71891C17.9954 2.43321 14.2933 2.42704 12 4.70043C9.70666 2.42705 6.00462 2.43321 3.71891 4.71891C1.42703 7.0108 1.42703 10.7267 3.71891 13.0186L11.2929 20.5925C11.4804 20.7801 11.7348 20.8854 12 20.8854C12.2652 20.8854 12.5196 20.7801 12.7071 20.5925L14.6006 18.699C14.9911 18.3085 14.9911 17.6754 14.6006 17.2848C14.2101 16.8943 13.5769 16.8943 13.1864 17.2848L12 18.4712L5.13313 11.6044C3.62229 10.0935 3.62229 7.64396 5.13313 6.13313C6.64397 4.62229 9.09352 4.62229 10.6044 6.13313L11.2929 6.82167C11.4804 7.00921 11.7348 7.11456 12 7.11456C12.2652 7.11456 12.5196 7.00921 12.7071 6.82167L13.3957 6.13313Z" fill="#7369AB"/>
<path fill-rule="evenodd" clip-rule="evenodd" d="M13.8086 9.01012C14.1702 9.06195 14.4747 9.30684 14.603 9.64888L15.962 13.2729L16.8667 12.0667C17.0555 11.8149 17.3519 11.6667 17.6667 11.6667H21C21.5523 11.6667 22 12.1144 22 12.6667C22 13.219 21.5523 13.6667 21 13.6667H18.1667L16.4667 15.9333C16.2475 16.2256 15.8864 16.3751 15.5248 16.3232C15.1632 16.2714 14.8586 16.0265 14.7303 15.6845L13.3713 12.0605L12.4667 13.2667C12.2778 13.5185 11.9814 13.6667 11.6667 13.6667H9C8.44772 13.6667 8 13.219 8 12.6667C8 12.1144 8.44772 11.6667 9 11.6667H11.1667L12.8667 9.40001C13.0858 9.10776 13.4469 8.95829 13.8086 9.01012Z" fill="#7369AB"/>
</svg>
