<svg width="24" height="24" viewBox="0 0 24 24" fill="none" xmlns="http://www.w3.org/2000/svg">
<g id="Help Question">
<path id="Ellipse 29 (Stroke)" fill-rule="evenodd" clip-rule="evenodd" d="M2 7C2 4.23858 4.23858 2 7 2H17C19.7614 2 22 4.23858 22 7V15C22 17.7614 19.7614 20 17 20H14.75L13.6 21.5333C12.8 22.6 11.2 22.6 10.4 21.5333L9.25 20H7C4.23858 20 2 17.7614 2 15V7ZM7 4C5.34315 4 4 5.34315 4 7V15C4 16.6569 5.34315 18 7 18H9.75C10.0648 18 10.3611 18.1482 10.55 18.4L12 20.3333L13.45 18.4C13.6389 18.1482 13.9352 18 14.25 18H17C18.6569 18 20 16.6569 20 15V7C20 5.34315 18.6569 4 17 4H7ZM12.1951 8.01922C12.0011 7.98063 11.8 8.00043 11.6173 8.07612C11.4346 8.15181 11.2784 8.27998 11.1685 8.44443C11.0586 8.60888 11 8.80222 11 9C11 9.55229 10.5523 10 10 10C9.44772 10 9 9.55229 9 9C9 8.40666 9.17595 7.82664 9.50559 7.33329C9.83524 6.83994 10.3038 6.45543 10.8519 6.22836C11.4001 6.0013 12.0033 5.94189 12.5853 6.05764C13.1672 6.1734 13.7018 6.45912 14.1213 6.87868C14.5409 7.29824 14.8266 7.83279 14.9424 8.41473C15.0581 8.99667 14.9987 9.59987 14.7716 10.1481C14.5446 10.6962 14.1601 11.1648 13.6667 11.4944C13.4581 11.6338 13.234 11.7457 13 11.8284V12C13 12.5523 12.5523 13 12 13C11.4477 13 11 12.5523 11 12V11C11 10.7348 11.1054 10.4804 11.2929 10.2929C11.4804 10.1054 11.7348 10 12 10C12.1978 10 12.3911 9.94135 12.5556 9.83147C12.72 9.72159 12.8482 9.56541 12.9239 9.38268C12.9996 9.19996 13.0194 8.99889 12.9808 8.80491C12.9422 8.61093 12.847 8.43275 12.7071 8.29289C12.5673 8.15304 12.3891 8.0578 12.1951 8.01922Z" fill="#7369AB"/>
<path id="Ellipse 30" d="M13 15C13 15.5523 12.5523 16 12 16C11.4477 16 11 15.5523 11 15C11 14.4477 11.4477 14 12 14C12.5523 14 13 14.4477 13 15Z" fill="#7369AB"/>
</g>
</svg>
