<svg width="24" height="24" viewBox="0 0 24 24" fill="none" xmlns="http://www.w3.org/2000/svg">
<path fill-rule="evenodd" clip-rule="evenodd" d="M11 3.42264C11.6188 3.06538 12.3812 3.06538 13 3.42264L18.9282 6.84529C19.547 7.20256 19.9282 7.86281 19.9282 8.57734V15.4226C19.9282 16.1372 19.547 16.7974 18.9282 17.1547L13 20.5773C12.3812 20.9346 11.6188 20.9346 11 20.5773L5.07178 17.1547C4.45297 16.7974 4.07178 16.1372 4.07178 15.4226V8.57734C4.07178 7.86281 4.45298 7.20256 5.07178 6.84529L11 3.42264ZM12 5.15469L6.07178 8.57734V15.4226L12 18.8453L17.9282 15.4226V8.57734L12 5.15469Z" fill="#7369AB"/>
</svg>
