<svg width="24" height="24" viewBox="0 0 24 24" fill="none" xmlns="http://www.w3.org/2000/svg">
<g clip-path="url(#clip0_1210_1662)">
<path fill-rule="evenodd" clip-rule="evenodd" d="M11.1656 3.6427C13.1988 3.22165 15.3156 3.54841 17.1272 4.56294C18.9387 5.57747 20.3234 7.21164 21.0267 9.1652C21.73 11.1188 21.7048 13.2605 20.9557 15.197C20.2065 17.1334 18.7837 18.7345 16.9488 19.7061C15.1138 20.6776 12.9899 20.9544 10.9672 20.4856C8.94447 20.0168 7.15889 18.8338 5.93847 17.154C5.5386 16.6037 4.76829 16.4816 4.21793 16.8815C3.66757 17.2814 3.54556 18.0517 3.94542 18.602C5.51454 20.7618 7.81029 22.2827 10.4109 22.8855C13.0115 23.4883 15.7423 23.1324 18.1015 21.8833C20.4608 20.6341 22.29 18.5756 23.2532 16.0858C24.2164 13.5961 24.2489 10.8424 23.3446 8.33071C22.4403 5.81898 20.6601 3.71792 18.3309 2.41352C16.0017 1.10912 13.2801 0.689006 10.666 1.23036C8.05195 1.7717 5.721 3.23816 4.10143 5.3603C3.06716 6.71552 2.36737 8.28002 2.04031 9.9277C1.55643 9.50585 0.82151 9.52529 0.360775 9.98602C-0.120258 10.4671 -0.120258 11.247 0.360777 11.728L2.20843 13.5757C2.68946 14.0567 3.46937 14.0567 3.95041 13.5757L5.79806 11.728C6.27909 11.247 6.27909 10.4671 5.79806 9.98602C5.48409 9.67205 5.04278 9.56301 4.64037 9.6589C4.93541 8.6531 5.41369 7.70149 6.0598 6.85488C7.31947 5.20433 9.13243 4.06375 11.1656 3.6427Z" fill="#7369AB"/>
<path fill-rule="evenodd" clip-rule="evenodd" d="M12.9141 5.92706C13.5944 5.92706 14.1459 6.47854 14.1459 7.15883V11.5757L17.4804 14.9102C17.9615 15.3912 17.9615 16.1711 17.4804 16.6522C16.9994 17.1332 16.2195 17.1332 15.7384 16.6522L12.0431 12.9569C11.8121 12.7259 11.6824 12.4126 11.6824 12.0859V7.15883C11.6824 6.47854 12.2339 5.92706 12.9141 5.92706Z" fill="#7369AB"/>
</g>
<defs>
<clipPath id="clip0_1210_1662">
<rect width="24" height="24" fill="white"/>
</clipPath>
</defs>
</svg>
