<svg width="24" height="24" viewBox="0 0 24 24" fill="none" xmlns="http://www.w3.org/2000/svg">
<g id="Home 1">
<path id="Rectangle 5 (Stroke)" fill-rule="evenodd" clip-rule="evenodd" d="M10.5858 3.99997C11.3668 3.21892 12.6332 3.21892 13.4142 3.99997L16.5 7.08576V5.99997C16.5 5.44769 16.9477 4.99997 17.5 4.99997C18.0523 4.99997 18.5 5.44769 18.5 5.99997V9.08576L20.7071 11.2929C21.0976 11.6834 21.0976 12.3166 20.7071 12.7071C20.3166 13.0976 19.6834 13.0976 19.2929 12.7071L19.2222 12.6364V18C19.2222 19.6568 17.8791 21 16.2222 21H7.77778C6.12092 21 4.77778 19.6568 4.77778 18V12.6364L4.70711 12.7071C4.31658 13.0976 3.68342 13.0976 3.29289 12.7071C2.90237 12.3166 2.90237 11.6834 3.29289 11.2929L10.5858 3.99997ZM6.77778 10.6364V18C6.77778 18.5523 7.22549 19 7.77778 19H11V15C11 14.4477 11.4477 14 12 14C12.5523 14 13 14.4477 13 15V19H16.2222C16.7745 19 17.2222 18.5523 17.2222 18V10.6364L12 5.41418L6.77778 10.6364Z" fill="#7369AB"/>
</g>
</svg>
