<svg width="24" height="24" viewBox="0 0 24 24" fill="none" xmlns="http://www.w3.org/2000/svg">
<g id="Home 2">
<path id="Rectangle 5 (Stroke)" fill-rule="evenodd" clip-rule="evenodd" d="M10.5858 3.99997C11.3668 3.21892 12.6332 3.21892 13.4142 3.99997L18.3435 8.9293C18.9061 9.49191 19.2222 10.255 19.2222 11.0506V18C19.2222 19.6568 17.8791 21 16.2222 21H7.77777C6.12091 21 4.77777 19.6568 4.77777 18V11.0506C4.77777 10.255 5.09384 9.49191 5.65645 8.9293L10.5858 3.99997ZM12 5.41418L7.07066 10.3435C6.88313 10.531 6.77777 10.7854 6.77777 11.0506V18C6.77777 18.5523 7.22549 19 7.77777 19H16.2222C16.7745 19 17.2222 18.5523 17.2222 18V11.0506C17.2222 10.7854 17.1169 10.5311 16.9293 10.3435L12 5.41418Z" fill="#7369AB"/>
</g>
</svg>
