<svg width="24" height="24" viewBox="0 0 24 24" fill="none" xmlns="http://www.w3.org/2000/svg">
<path fill-rule="evenodd" clip-rule="evenodd" d="M5 3C5.55228 3 6 3.44772 6 4V20C6 20.5523 5.55228 21 5 21C4.44772 21 4 20.5523 4 20V4C4 3.44772 4.44772 3 5 3ZM19 3C19.5523 3 20 3.44772 20 4V20C20 20.5523 19.5523 21 19 21C18.4477 21 18 20.5523 18 20V4C18 3.44772 18.4477 3 19 3ZM9 8C9 6.89543 9.89543 6 11 6H13C14.1046 6 15 6.89543 15 8V16C15 17.1046 14.1046 18 13 18H11C9.89543 18 9 17.1046 9 16V8ZM13 8H11V16H13V8Z" fill="#7369AB"/>
</svg>
