<svg width="24" height="24" viewBox="0 0 24 24" fill="none" xmlns="http://www.w3.org/2000/svg">
<path fill-rule="evenodd" clip-rule="evenodd" d="M6 3C6 2.44772 6.44772 2 7 2H17C17.5523 2 18 2.44772 18 3V7C18 10.3137 15.3137 13 12 13C8.68629 13 6 10.3137 6 7V3ZM8 4V7C8 9.20914 9.79086 11 12 11C14.2091 11 16 9.20914 16 7V4H8Z" fill="#7369AB"/>
<path fill-rule="evenodd" clip-rule="evenodd" d="M18 21C18 21.5523 17.5523 22 17 22L7 22C6.44771 22 6 21.5523 6 21L6 17C6 13.6863 8.68629 11 12 11C15.3137 11 18 13.6863 18 17L18 21ZM16 20L16 17C16 14.7909 14.2091 13 12 13C9.79086 13 8 14.7909 8 17L8 20L16 20Z" fill="#7369AB"/>
<path fill-rule="evenodd" clip-rule="evenodd" d="M5 21C5 20.4477 5.44772 20 6 20H18C18.5523 20 19 20.4477 19 21C19 21.5523 18.5523 22 18 22H6C5.44772 22 5 21.5523 5 21Z" fill="#7369AB"/>
<path fill-rule="evenodd" clip-rule="evenodd" d="M5 3C5 2.44772 5.44772 2 6 2H18C18.5523 2 19 2.44772 19 3C19 3.55228 18.5523 4 18 4H6C5.44772 4 5 3.55228 5 3Z" fill="#7369AB"/>
</svg>
