<svg width="24" height="24" viewBox="0 0 24 24" fill="none" xmlns="http://www.w3.org/2000/svg">
<path fill-rule="evenodd" clip-rule="evenodd" d="M3.29289 3.29289C3.68342 2.90237 4.31658 2.90237 4.70711 3.29289L21.7071 20.2929C22.0976 20.6834 22.0976 21.3166 21.7071 21.7071C21.3166 22.0976 20.6834 22.0976 20.2929 21.7071L3.29289 4.70711C2.90237 4.31658 2.90237 3.68342 3.29289 3.29289Z" fill="#7369AB"/>
<path fill-rule="evenodd" clip-rule="evenodd" d="M6 4.91421V7C6 9.08697 7.06551 10.9251 8.68221 12C7.06551 13.0749 6 14.913 6 17V20C5.44772 20 5 20.4477 5 21C5 21.5523 5.44772 22 6 22H7H17H18C18.5523 22 19 21.5523 19 21C19 20.4477 18.5523 20 18 20V17C18 16.9712 17.9998 16.9424 17.9994 16.9136L12.0849 10.9991C12.0567 10.9997 12.0284 11 12 11C9.79086 11 8 9.20914 8 7V6.91421L6 4.91421ZM14.2332 10.319C15.299 9.60047 16 8.3821 16 7V4H8V4.08579L5.91756 2.00335C5.94475 2.00113 5.97224 2 6 2H7H17H18C18.5523 2 19 2.44772 19 3C19 3.55228 18.5523 4 18 4V7C18 8.93361 17.0853 10.6536 15.6651 11.7509L14.2332 10.319ZM8 17C8 14.7909 9.79086 13 12 13C14.2091 13 16 14.7909 16 17V20H8L8 17Z" fill="#7369AB"/>
</svg>
