<svg width="24" height="24" viewBox="0 0 24 24" fill="none" xmlns="http://www.w3.org/2000/svg">
<path fill-rule="evenodd" clip-rule="evenodd" d="M3.18591 5.30013C3.00221 4.08985 3.93912 3 5.16326 3H18.8368C20.0609 3 20.9978 4.08985 20.8141 5.30013L19.0688 16.799C18.9687 17.4584 18.5465 18.0245 17.943 18.3085L12.8516 20.7044C12.3123 20.9583 11.6878 20.9583 11.1484 20.7044L6.05703 18.3085C5.45356 18.0245 5.03136 17.4584 4.93127 16.799L3.18591 5.30013ZM18.8368 5L5.16326 5L6.90862 16.4989L12 18.8948L17.0914 16.4989L18.8368 5Z" fill="#7369AB"/>
<path fill-rule="evenodd" clip-rule="evenodd" d="M8.50002 7.5C8.50002 6.94772 8.94774 6.5 9.50002 6.5H15C15.5523 6.5 16 6.94772 16 7.5C16 8.05228 15.5523 8.5 15 8.5H10.5V10H14.5C15.0523 10 15.5 10.4477 15.5 11V14.5C15.5 14.9089 15.2511 15.2766 14.8714 15.4285L12.7428 16.2799C12.266 16.4706 11.7341 16.4706 11.2572 16.2799L9.12863 15.4285C8.61585 15.2234 8.36643 14.6414 8.57155 14.1286C8.77666 13.6158 9.35863 13.3664 9.87141 13.5715L12 14.423L13.5 13.823V12H9.50002C8.94774 12 8.50002 11.5523 8.50002 11V7.5Z" fill="#7369AB"/>
</svg>
