<svg width="24" height="24" viewBox="0 0 24 24" fill="none" xmlns="http://www.w3.org/2000/svg">
<path fill-rule="evenodd" clip-rule="evenodd" d="M3 7C3 4.79086 4.79086 3 7 3H17C19.2091 3 21 4.79086 21 7V17C21 19.2091 19.2091 21 17 21H7C4.79086 21 3 19.2091 3 17V7ZM7 5C5.89543 5 5 5.89543 5 7V17C5 18.1046 5.89543 19 7 19H17C18.1046 19 19 18.1046 19 17V7C19 5.89543 18.1046 5 17 5H7Z" fill="#7369AB"/>
<path fill-rule="evenodd" clip-rule="evenodd" d="M3 14C3 13.4477 3.44772 13 4 13H9C9.55228 13 10 13.4477 10 14C10 14.5523 9.55228 15 9 15H4C3.44772 15 3 14.5523 3 14Z" fill="#7369AB"/>
<path fill-rule="evenodd" clip-rule="evenodd" d="M14 14C14 13.4477 14.4477 13 15 13H20C20.5523 13 21 13.4477 21 14C21 14.5523 20.5523 15 20 15H15C14.4477 15 14 14.5523 14 14Z" fill="#7369AB"/>
<path fill-rule="evenodd" clip-rule="evenodd" d="M8.8384 13.0643C9.35869 12.879 9.93065 13.1506 10.1159 13.6709C10.254 14.0587 10.5084 14.3944 10.8443 14.6323C11.1803 14.8701 11.5814 14.9985 11.993 15C12.4047 15.0014 12.8067 14.8758 13.1443 14.6403C13.4819 14.4048 13.7386 14.0708 13.8794 13.684C14.0683 13.1651 14.6421 12.8975 15.1611 13.0864C15.6801 13.2753 15.9477 13.8491 15.7588 14.3681C15.4772 15.1417 14.9638 15.8096 14.2886 16.2806C13.6134 16.7516 12.8093 17.0028 11.9861 17C11.1628 16.9971 10.3605 16.7403 9.6886 16.2645C9.0167 15.7888 8.50796 15.1174 8.2318 14.3418C8.04653 13.8215 8.31812 13.2496 8.8384 13.0643Z" fill="#7369AB"/>
</svg>
