<svg width="24" height="24" viewBox="0 0 24 24" fill="none" xmlns="http://www.w3.org/2000/svg">
<path fill-rule="evenodd" clip-rule="evenodd" d="M3.08076 5.1394C2.94939 3.93647 3.92394 3 5.03393 3H7.18024C8.1336 3 8.95443 3.67292 9.1414 4.60777L9.87567 8.27909C10.0068 8.93481 9.80157 9.61269 9.32872 10.0855L7.4955 11.9188C8.68123 13.8289 10.354 15.6184 12.6603 16.9255L14.8926 14.6933C15.3893 14.1965 16.1103 13.9968 16.7919 14.1672L19.4851 14.8405C20.3755 15.0631 21 15.863 21 16.7808V18.9334C21 20.0745 20.025 21.0349 18.8258 20.9001C16.3494 20.6216 14.2177 19.9682 12.3936 19.0501C9.07042 17.3775 6.82422 14.8563 5.36793 12.246C3.98451 9.76638 3.30497 7.1924 3.08076 5.1394ZM14.578 17.8363C15.8745 18.3435 17.3414 18.7165 19 18.907V16.7808L16.3068 16.1075L14.578 17.8363ZM6.50966 10.0762L7.91451 8.67132L7.18024 5H5.07765C5.24739 6.47912 5.68624 8.27348 6.50966 10.0762Z" fill="#7369AB"/>
<path fill-rule="evenodd" clip-rule="evenodd" d="M19 10C19 10.5523 18.5523 11 18 11H14C13.4477 11 13 10.5523 13 10V6C13 5.44772 13.4477 5 14 5C14.5523 5 15 5.44772 15 6V7.58579L19.2929 3.29289C19.6834 2.90237 20.3166 2.90237 20.7071 3.29289C21.0976 3.68342 21.0976 4.31658 20.7071 4.70711L16.4142 9H18C18.5523 9 19 9.44772 19 10Z" fill="#7369AB"/>
</svg>
