<svg width="24" height="24" viewBox="0 0 24 24" fill="none" xmlns="http://www.w3.org/2000/svg">
<g id="Group 92">
<path id="Ellipse 26 (Stroke)" fill-rule="evenodd" clip-rule="evenodd" d="M12 2.4C6.69807 2.4 2.4 6.69807 2.4 12C2.4 17.3019 6.69807 21.6 12 21.6C17.3019 21.6 21.6 17.3019 21.6 12C21.6 6.69807 17.3019 2.4 12 2.4ZM0 12C0 5.37258 5.37258 0 12 0C18.6274 0 24 5.37258 24 12C24 18.6274 18.6274 24 12 24C5.37258 24 0 18.6274 0 12ZM12 9.6C12.6627 9.6 13.2 10.1373 13.2 10.8V16.8C13.2 17.4627 12.6627 18 12 18C11.3373 18 10.8 17.4627 10.8 16.8V10.8C10.8 10.1373 11.3373 9.6 12 9.6Z" fill="#7369AB"/>
<path id="Ellipse 28" d="M13.2 6.59999C13.2 7.26274 12.6627 7.79999 12 7.79999C11.3372 7.79999 10.8 7.26274 10.8 6.59999C10.8 5.93725 11.3372 5.39999 12 5.39999C12.6627 5.39999 13.2 5.93725 13.2 6.59999Z" fill="#7369AB"/>
</g>
</svg>
