<svg width="24" height="24" viewBox="0 0 24 24" fill="none" xmlns="http://www.w3.org/2000/svg">
<path fill-rule="evenodd" clip-rule="evenodd" d="M3 15C3 14.4477 3.44772 14 4 14L20 14C20.5523 14 21 14.4477 21 15C21 15.5523 20.5523 16 20 16L4 16C3.44772 16 3 15.5523 3 15Z" fill="#7369AB"/>
<path fill-rule="evenodd" clip-rule="evenodd" d="M3 9C3 8.44772 3.44772 8 4 8L20 8C20.5523 8 21 8.44772 21 9C21 9.55229 20.5523 10 20 10L4 10C3.44772 10 3 9.55228 3 9Z" fill="#7369AB"/>
<path fill-rule="evenodd" clip-rule="evenodd" d="M12 4C7.58172 4 4 7.58172 4 12C4 16.4183 7.58172 20 12 20C16.4183 20 20 16.4183 20 12C20 7.58172 16.4183 4 12 4ZM2 12C2 6.47715 6.47715 2 12 2C17.5228 2 22 6.47715 22 12C22 17.5228 17.5228 22 12 22C6.47715 22 2 17.5228 2 12Z" fill="#7369AB"/>
<path fill-rule="evenodd" clip-rule="evenodd" d="M11.9999 2.18184C12.2686 2.18184 12.5261 2.29 12.7141 2.48194C15.1168 4.93385 16.5999 8.29473 16.5999 12C16.5999 15.7053 15.1168 19.0662 12.7141 21.5181C12.5261 21.71 12.2686 21.8182 11.9999 21.8182C11.7312 21.8182 11.4737 21.71 11.2857 21.5181C8.88299 19.0662 7.3999 15.7053 7.3999 12C7.3999 8.29473 8.88299 4.93385 11.2857 2.48194C11.4737 2.29 11.7312 2.18184 11.9999 2.18184ZM11.9999 4.68087C10.3737 6.67775 9.3999 9.22438 9.3999 12C9.3999 14.7756 10.3737 17.3223 11.9999 19.3191C13.6261 17.3223 14.5999 14.7756 14.5999 12C14.5999 9.22438 13.6261 6.67775 11.9999 4.68087Z" fill="#7369AB"/>
</svg>
