<svg width="32" height="32" viewBox="0 0 32 32" fill="none" xmlns="http://www.w3.org/2000/svg">
<path d="M7.05824 25.4021C7.80535 24.655 7.80535 23.4437 7.05825 22.6966C6.31114 21.9495 5.09985 21.9495 4.35275 22.6966C3.60565 23.4437 3.60565 24.655 4.35275 25.4021C5.09985 26.1492 6.31114 26.1492 7.05824 25.4021Z" fill="#4BA669"/>
<path d="M5.70563 26.3282C4.44954 26.3282 3.42725 25.3059 3.42725 24.0499C3.42725 22.7938 4.44954 21.7715 5.70563 21.7715C6.96171 21.7715 7.98401 22.7938 7.98401 24.0499C7.98401 25.3059 6.96171 26.3282 5.70563 26.3282ZM5.70563 22.5015C4.85194 22.5015 4.15786 23.1956 4.15786 24.0493C4.15786 24.903 4.85194 25.5971 5.70563 25.5971C6.55932 25.5971 7.2534 24.903 7.2534 24.0493C7.2534 23.1956 6.55875 22.5015 5.70563 22.5015Z" fill="#09090D"/>
<path d="M19.7462 0.365736H10.4377C7.89685 0.365736 5.83765 2.42549 5.83765 4.96577V27.0336C5.83765 29.5744 7.89741 31.6336 10.4377 31.6336H23.7179C26.2588 31.6336 28.318 29.5739 28.318 27.0336V8.93692L19.7462 0.365173V0.365736Z" fill="white"/>
<path d="M23.718 31.9994H10.4378C7.69965 31.9994 5.47241 29.7722 5.47241 27.0341V4.96626C5.47241 2.22815 7.69965 0.000915527 10.4378 0.000915527H19.7463C19.843 0.000915527 19.9363 0.03913 20.0048 0.107695L28.5766 8.67944C28.6451 8.74801 28.6834 8.84074 28.6834 8.93797V27.0346C28.6834 29.7727 26.4561 32 23.718 32V31.9994ZM10.4378 0.730964C8.10261 0.730964 6.20302 2.63055 6.20302 4.96569V27.0335C6.20302 29.3687 8.10261 31.2682 10.4378 31.2682H23.718C26.0532 31.2682 27.9527 29.3687 27.9527 27.0335V9.08858L19.5951 0.730964H10.4378Z" fill="#09090D"/>
<path d="M19.7463 0.365662L28.3181 8.93741H21.5745C20.5652 8.93741 19.7463 8.11913 19.7463 7.1092V0.365662Z" fill="#E4E4EB"/>
<path d="M28.3193 9.30273H21.5746C20.3652 9.30273 19.3811 8.31866 19.3811 7.10922V0.365682C19.3811 0.217874 19.4699 0.0846775 19.6065 0.0279147C19.743 -0.0288481 19.8998 0.00262285 20.0044 0.107156L28.5593 8.66205C28.6357 8.72892 28.684 8.82728 28.684 8.93687C28.684 9.13863 28.5205 9.30217 28.3187 9.30217L28.3193 9.30273ZM20.1117 1.24747V7.10922C20.1117 7.9157 20.7676 8.57212 21.5746 8.57212H27.4364L20.1123 1.24803L20.1117 1.24747Z" fill="#09090D"/>
<path d="M5.87978 13.0176C4.7434 13.0176 3.82227 13.9387 3.82227 15.0751V23.6912H3.85992C4.04314 22.7426 4.87715 22.0254 5.87978 22.0254H26.5999V13.0176H5.87978Z" fill="#4BA669"/>
<path d="M3.85999 24.0566H3.82234C3.62058 24.0566 3.45703 23.893 3.45703 23.6913V15.0751C3.45703 13.7392 4.54395 12.6523 5.87985 12.6523H26.6C26.8017 12.6523 26.9653 12.8158 26.9653 13.0176V22.0255C26.9653 22.2272 26.8017 22.3908 26.6 22.3908H5.87985C5.07056 22.3908 4.37198 22.9668 4.21855 23.7604C4.18539 23.9324 4.03478 24.0566 3.85999 24.0566ZM5.87985 13.3829C4.94691 13.3829 4.18764 14.1422 4.18764 15.0751V22.3497C4.62826 21.9204 5.22904 21.6602 5.87985 21.6602H26.2347V13.3829H5.87985Z" fill="#09090D"/>
<path d="M9.06269 19.2301C9.0211 19.1885 8.98682 19.1193 8.98682 19.0435C8.98682 18.8979 9.11158 18.7737 9.25658 18.7737C9.3465 18.7737 9.40888 18.822 9.45047 18.8704C9.71349 19.2301 9.99674 19.4166 10.4469 19.4166C10.9932 19.4166 11.3945 19.0221 11.3945 18.2544V15.2522C11.3945 15.0999 11.5192 14.9756 11.671 14.9756C11.8227 14.9756 11.9407 15.1004 11.9407 15.2522V18.2477C11.9407 18.8147 11.7749 19.2441 11.4979 19.5206C11.2281 19.7836 10.8617 19.9219 10.4323 19.9219C9.79611 19.9219 9.35999 19.6313 9.06269 19.2301Z" fill="white"/>
<path d="M13.2344 15.2865C13.2344 15.1342 13.3591 15.0099 13.5041 15.0099H15.0469C16.14 15.0099 16.8593 15.5911 16.8593 16.5459V16.56C16.8593 17.6047 15.9877 18.1443 14.9569 18.1443H13.7806V19.6111C13.7806 19.7634 13.6559 19.8876 13.5041 19.8876C13.3524 19.8876 13.2344 19.7628 13.2344 19.6111V15.2876V15.2865ZM14.9777 17.6458C15.7803 17.6458 16.3057 17.217 16.3057 16.5802V16.5661C16.3057 15.8743 15.787 15.5146 15.0053 15.5146H13.7806V17.6452H14.9777V17.6458Z" fill="white"/>
<path d="M17.6411 17.4451V17.4311C17.6411 16.103 18.6168 14.9268 20.0696 14.9268C20.803 14.9268 21.2801 15.1206 21.723 15.4455C21.7854 15.4938 21.8337 15.5703 21.8337 15.6669C21.8337 15.8192 21.7089 15.9434 21.5639 15.9434C21.5015 15.9434 21.4465 15.9159 21.3908 15.8743C21.0452 15.6113 20.6574 15.4314 20.0488 15.4314C18.9764 15.4314 18.2087 16.3374 18.2087 17.417V17.4311C18.2087 18.5866 18.9489 19.4442 20.1252 19.4442C20.6788 19.4442 21.1908 19.2295 21.5223 18.9597V17.7559H20.2219C20.0903 17.7559 19.9796 17.6452 19.9796 17.5137C19.9796 17.3754 20.0903 17.2647 20.2219 17.2647H21.7786C21.9242 17.2647 22.0484 17.3895 22.0484 17.5412V19.0148C22.0484 19.1463 21.986 19.2638 21.8618 19.347C21.4189 19.6724 20.8243 19.9348 20.1044 19.9348C18.5825 19.9348 17.6417 18.8282 17.6417 17.4446L17.6411 17.4451Z" fill="white"/>
</svg>
