<svg width="24" height="24" viewBox="0 0 24 24" fill="none" xmlns="http://www.w3.org/2000/svg">
<path fill-rule="evenodd" clip-rule="evenodd" d="M11.6795 13.0425C11.168 13.0401 10.6611 13.1323 10.1879 13.3137C9.71472 13.4952 9.28467 13.7624 8.92253 14.0998C8.5604 14.4372 8.27333 14.8383 8.07789 15.2799C7.88244 15.7214 7.78248 16.1947 7.78376 16.6725L7.78377 16.6756L7.78377 22.433H16.1309V16.6635C16.1309 15.7031 15.7225 14.7821 14.9955 14.1031C14.2686 13.424 13.2826 13.0425 12.2545 13.0425L11.6795 13.0425Z" fill="#7369AB"/>
<path fill-rule="evenodd" clip-rule="evenodd" d="M2.93195 20.0123C2.93195 19.436 3.39909 18.9689 3.97534 18.9689H7.53332C8.10957 18.9689 8.57671 19.436 8.57671 20.0123C8.57671 20.5885 8.10957 21.0557 7.53332 21.0557H3.97534C3.39909 21.0557 2.93195 20.5885 2.93195 20.0123Z" fill="#7369AB"/>
<path fill-rule="evenodd" clip-rule="evenodd" d="M15.3379 20.0123C15.3379 19.436 15.805 18.9689 16.3813 18.9689H19.9393C20.5155 18.9689 20.9827 19.436 20.9827 20.0123C20.9827 20.5885 20.5155 21.0557 19.9393 21.0557H16.3813C15.805 21.0557 15.3379 20.5885 15.3379 20.0123Z" fill="#7369AB"/>
<path fill-rule="evenodd" clip-rule="evenodd" d="M11.331 0.208871C11.7021 -0.0696235 12.2125 -0.0696235 12.5836 0.208871L23.4975 8.39952C23.7956 8.62325 23.9518 8.98902 23.9071 9.35906C23.8625 9.7291 23.6238 10.0472 23.281 10.1936L20.3491 11.4457C20.0062 11.5921 19.6113 11.5445 19.3131 11.3207L11.9573 5.80148L4.60156 11.3207C4.30336 11.5445 3.90843 11.5921 3.56557 11.4457L0.633635 10.1936C0.290853 10.0472 0.0521905 9.7291 0.00753239 9.35906C-0.0371257 8.98901 0.119004 8.62325 0.417119 8.39952L11.331 0.208871ZM3.11479 8.98407L3.83105 9.28994L11.3311 3.66245C11.7022 3.38403 12.2125 3.38403 12.5835 3.66245L20.0836 9.28994L20.7999 8.98407L11.9573 2.34794L3.11479 8.98407Z" fill="#7369AB"/>
<path fill-rule="evenodd" clip-rule="evenodd" d="M11.3311 3.66248C11.7022 3.38407 12.2125 3.38407 12.5835 3.66248L20.5655 9.65157C20.8281 9.84863 20.9827 10.1578 20.9827 10.4862V21.494C20.9827 21.5146 20.9821 21.5352 20.9809 21.5558C20.9403 22.2389 20.6319 22.8784 20.1226 23.3355C19.6204 23.7862 18.9629 24.0235 18.2894 23.9981H5.62523C4.9517 24.0235 4.29419 23.7862 3.79201 23.3355C3.2827 22.8784 2.9743 22.2389 2.93378 21.5558C2.93256 21.5352 2.93195 21.5146 2.93195 21.494V10.4862C2.93195 10.1578 3.0865 9.84863 3.34913 9.65157L11.3311 3.66248ZM5.01874 11.0077V21.4547C5.03179 21.5806 5.09118 21.6975 5.18579 21.7824C5.28602 21.8724 5.41768 21.9191 5.55219 21.9126C5.56912 21.9117 5.58608 21.9113 5.60304 21.9113H18.3116C18.3285 21.9113 18.3455 21.9117 18.3624 21.9126C18.4969 21.9191 18.6286 21.8724 18.7288 21.7824C18.8235 21.6975 18.8828 21.5806 18.8959 21.4547V11.0077L11.9573 5.80152L5.01874 11.0077Z" fill="#7369AB"/>
</svg>
