<svg width="24" height="24" viewBox="0 0 24 24" fill="none" xmlns="http://www.w3.org/2000/svg">
<g id="Key 2">
<path id="Ellipse 9 (Stroke)" fill-rule="evenodd" clip-rule="evenodd" d="M19.1999 4.78575C19.5944 5.17229 19.6008 5.80542 19.2142 6.19989L18.676 6.74917L20.7197 8.79289C21.1103 9.18342 21.1103 9.81658 20.7197 10.2071C20.3292 10.5976 19.696 10.5976 19.3055 10.2071L17.2762 8.17774L16.745 8.71977L16.4458 9.01894L17.7197 10.2929C18.1103 10.6834 18.1103 11.3166 17.7197 11.7071C17.3292 12.0976 16.696 12.0976 16.3055 11.7071L15.0316 10.4332L11.3292 14.1355C11.7542 14.8225 12 15.6331 12 16.5C12 18.9853 9.98528 21 7.5 21C5.01472 21 3 18.9853 3 16.5C3 14.0147 5.01472 12 7.5 12C8.39325 12 9.22647 12.2609 9.92649 12.7098L15.3271 7.30915L17.7858 4.80011C18.1723 4.40564 18.8054 4.39921 19.1999 4.78575ZM7.5 14C6.11929 14 5 15.1193 5 16.5C5 17.8807 6.11929 19 7.5 19C8.88071 19 10 17.8807 10 16.5C10 15.8185 9.72861 15.2023 9.28576 14.7504C8.83084 14.2862 8.19974 14 7.5 14Z" fill="#7369AB"/>
</g>
</svg>
