<svg width="24" height="24" viewBox="0 0 24 24" fill="none" xmlns="http://www.w3.org/2000/svg">
<g id="Key 1">
<path id="Ellipse 9 (Stroke)" fill-rule="evenodd" clip-rule="evenodd" d="M16.6363 6C17.4173 5.21895 18.6837 5.21895 19.4647 6L20.7576 7.29289C21.1481 7.68342 21.1481 8.31658 20.7576 8.70711C20.3671 9.09763 19.7339 9.09763 19.3434 8.70711L18.0505 7.41422L16.4458 9.01894L17.7071 10.2803C18.0976 10.6708 18.0976 11.304 17.7071 11.6945C17.3166 12.085 16.6834 12.085 16.2929 11.6945L15.0316 10.4332L11.3292 14.1355C11.7542 14.8225 12 15.6331 12 16.5C12 18.9853 9.98528 21 7.5 21C5.01472 21 3 18.9853 3 16.5C3 14.0147 5.01472 12 7.5 12C8.39325 12 9.22647 12.2609 9.92649 12.7098L16.6363 6ZM7.5 14C6.11929 14 5 15.1193 5 16.5C5 17.8807 6.11929 19 7.5 19C8.88071 19 10 17.8807 10 16.5C10 15.8185 9.72861 15.2023 9.28576 14.7504C8.83084 14.2862 8.19974 14 7.5 14Z" fill="#7369AB"/>
</g>
</svg>
