<svg width="24" height="24" viewBox="0 0 24 24" fill="none" xmlns="http://www.w3.org/2000/svg">
<path fill-rule="evenodd" clip-rule="evenodd" d="M7 6C6.44772 6 6 6.44772 6 7V15H18V13.5C18 12.9477 18.4477 12.5 19 12.5C19.5523 12.5 20 12.9477 20 13.5V16C20 16.5523 19.5523 17 19 17H5C4.44772 17 4 16.5523 4 16V7C4 5.34315 5.34315 4 7 4H10C10.5523 4 11 4.44772 11 5C11 5.55228 10.5523 6 10 6H7Z" fill="#7369AB"/>
<path fill-rule="evenodd" clip-rule="evenodd" d="M17.464 2C18.0163 2 18.464 2.44772 18.464 3V4.17081C18.8152 4.29501 19.1363 4.48271 19.4134 4.71981L20.4281 4.13397C20.9064 3.85783 21.518 4.02171 21.7942 4.5C22.0703 4.97829 21.9064 5.58988 21.4281 5.86603L20.4138 6.45163C20.4468 6.62967 20.464 6.813 20.464 7C20.464 7.18891 20.4474 7.37234 20.4153 7.54924L21.4281 8.13397C21.9064 8.41012 22.0703 9.02171 21.7942 9.5C21.518 9.97829 20.9064 10.1422 20.4281 9.86603L19.3976 9.27102C19.1166 9.49966 18.7984 9.67309 18.464 9.78966V11C18.464 11.5523 18.0163 12 17.464 12C16.9117 12 16.464 11.5523 16.464 11V9.81313C16.1254 9.70049 15.8015 9.52461 15.5136 9.28077L14.4999 9.86603C14.0216 10.1422 13.41 9.97829 13.1339 9.5C12.8578 9.02171 13.0216 8.41012 13.4999 8.13397L14.5142 7.54838C14.4812 7.37034 14.464 7.187 14.464 7C14.464 6.813 14.4812 6.62966 14.5142 6.45162L13.4999 5.86602C13.0216 5.58988 12.8578 4.97829 13.1339 4.5C13.41 4.02171 14.0216 3.85783 14.4999 4.13397L15.5146 4.71981C15.7917 4.48271 16.1128 4.29501 16.464 4.17081V3C16.464 2.44772 16.9117 2 17.464 2ZM17.464 6C17.0952 6 16.7717 6.19918 16.5972 6.50064C16.5127 6.64673 16.464 6.81616 16.464 7C16.464 7.18384 16.5127 7.35327 16.5972 7.49936C16.7871 7.82756 17.0965 7.97394 17.4439 7.96695C17.83 7.95918 18.1736 7.76167 18.3386 7.48629C18.4124 7.36309 18.464 7.20516 18.464 7C18.464 6.81616 18.4153 6.64673 18.3308 6.50064C18.1564 6.19918 17.8329 6 17.464 6Z" fill="#7369AB"/>
<path fill-rule="evenodd" clip-rule="evenodd" d="M2 16C2 15.4477 2.44772 15 3 15H21C21.5523 15 22 15.4477 22 16V17C22 18.6569 20.6569 20 19 20H5C3.34315 20 2 18.6569 2 17V16ZM4 17C4 17.5523 4.44772 18 5 18H19C19.5523 18 20 17.5523 20 17H4Z" fill="#7369AB"/>
</svg>
