<svg width="24" height="24" viewBox="0 0 24 24" fill="none" xmlns="http://www.w3.org/2000/svg">
<path fill-rule="evenodd" clip-rule="evenodd" d="M4 7C4 5.34315 5.34315 4 7 4H17C18.6569 4 20 5.34315 20 7V16C20 16.5523 19.5523 17 19 17H5C4.44772 17 4 16.5523 4 16V7ZM7 6C6.44772 6 6 6.44772 6 7V15H18V7C18 6.44772 17.5523 6 17 6H7Z" fill="#7369AB"/>
<path fill-rule="evenodd" clip-rule="evenodd" d="M2 16C2 15.4477 2.44772 15 3 15H21C21.5523 15 22 15.4477 22 16V17C22 18.6569 20.6569 20 19 20H5C3.34315 20 2 18.6569 2 17V16ZM4 17C4 17.5523 4.44772 18 5 18H19C19.5523 18 20 17.5523 20 17H4Z" fill="#7369AB"/>
</svg>
