<svg width="24" height="24" viewBox="0 0 24 24" fill="none" xmlns="http://www.w3.org/2000/svg">
<g id="Launch 1">
<path id="Vector (Stroke)" fill-rule="evenodd" clip-rule="evenodd" d="M7 6C6.44772 6 6 6.44772 6 7V17C6 17.5523 6.44772 18 7 18H17C17.5523 18 18 17.5523 18 17V12.25C18 11.6977 18.4477 11.25 19 11.25C19.5523 11.25 20 11.6977 20 12.25V17C20 18.6569 18.6569 20 17 20H7C5.34315 20 4 18.6569 4 17V7C4 5.34315 5.34315 4 7 4H11C11.5523 4 12 4.44772 12 5C12 5.55228 11.5523 6 11 6H7ZM15 6C14.4477 6 14 5.55228 14 5C14 4.44772 14.4477 4 15 4H19C19.5523 4 20 4.44772 20 5V9C20 9.55228 19.5523 10 19 10C18.4477 10 18 9.55228 18 9V7.41421L9.70711 15.7071C9.31658 16.0976 8.68342 16.0976 8.29289 15.7071C7.90237 15.3166 7.90237 14.6834 8.29289 14.2929L16.5858 6H15Z" fill="#7369AB"/>
</g>
</svg>
