<svg width="24" height="24" viewBox="0 0 24 24" fill="none" xmlns="http://www.w3.org/2000/svg">
<path fill-rule="evenodd" clip-rule="evenodd" d="M2 6C2 3.79086 3.79086 2 6 2H14C16.2091 2 18 3.79086 18 6V14C18 16.2091 16.2091 18 14 18H6C3.79086 18 2 16.2091 2 14V6ZM6 4C4.89543 4 4 4.89543 4 6V14C4 15.1046 4.89543 16 6 16H14C15.1046 16 16 15.1046 16 14V6C16 4.89543 15.1046 4 14 4H6Z" fill="#7369AB"/>
<path fill-rule="evenodd" clip-rule="evenodd" d="M13.7071 7.29289C14.0976 7.68342 14.0976 8.31658 13.7071 8.70711L9.20711 13.2071C8.81658 13.5976 8.18342 13.5976 7.79289 13.2071L6.29289 11.7071C5.90237 11.3166 5.90237 10.6834 6.29289 10.2929C6.68342 9.90237 7.31658 9.90237 7.70711 10.2929L8.5 11.0858L12.2929 7.29289C12.6834 6.90237 13.3166 6.90237 13.7071 7.29289Z" fill="#7369AB"/>
<path fill-rule="evenodd" clip-rule="evenodd" d="M21 6C21.5523 6 22 6.44772 22 7V18C22 20.2091 20.2091 22 18 22H7C6.44772 22 6 21.5523 6 21C6 20.4477 6.44772 20 7 20H18C19.1046 20 20 19.1046 20 18V7C20 6.44772 20.4477 6 21 6Z" fill="#7369AB"/>
</svg>
