<svg width="24" height="24" viewBox="0 0 24 24" fill="none" xmlns="http://www.w3.org/2000/svg">
<path fill-rule="evenodd" clip-rule="evenodd" d="M11.47 4.152C11.7943 3.94933 12.2057 3.94933 12.53 4.152L20.53 9.152C20.8224 9.33474 21 9.65521 21 10C21 10.3448 20.8224 10.6653 20.53 10.848L12.53 15.848C12.2057 16.0507 11.7943 16.0507 11.47 15.848L3.47 10.848C3.17762 10.6653 3 10.3448 3 10C3 9.65521 3.17762 9.33474 3.47 9.152L11.47 4.152ZM5.8868 10L12 13.8208L18.1132 10L12 6.17925L5.8868 10Z" fill="#7369AB"/>
<path fill-rule="evenodd" clip-rule="evenodd" d="M3.15201 13.47C3.44472 13.0017 4.06167 12.8593 4.53001 13.152L12 17.8208L19.47 13.152C19.9383 12.8593 20.5553 13.0017 20.848 13.47C21.1407 13.9383 20.9983 14.5553 20.53 14.848L12.53 19.848C12.2057 20.0507 11.7943 20.0507 11.47 19.848L3.47001 14.848C3.00168 14.5553 2.8593 13.9383 3.15201 13.47Z" fill="#7369AB"/>
</svg>
