<svg width="24" height="24" viewBox="0 0 24 24" fill="none" xmlns="http://www.w3.org/2000/svg">
<path fill-rule="evenodd" clip-rule="evenodd" d="M11.5528 3.10557C11.8343 2.96481 12.1657 2.96481 12.4472 3.10557L20.4472 7.10557C20.786 7.27496 21 7.62123 21 8C21 8.37877 20.786 8.72504 20.4472 8.89443L12.4472 12.8944C12.1657 13.0352 11.8343 13.0352 11.5528 12.8944L3.55279 8.89443C3.214 8.72504 3 8.37877 3 8C3 7.62123 3.214 7.27496 3.55279 7.10557L11.5528 3.10557ZM6.23607 8L12 10.882L17.7639 8L12 5.11803L6.23607 8Z" fill="#7369AB"/>
<path fill-rule="evenodd" clip-rule="evenodd" d="M3.10555 11.5528C3.35254 11.0588 3.95321 10.8586 4.44719 11.1055L12 14.8819L19.5528 11.1055C20.0467 10.8586 20.6474 11.0588 20.8944 11.5528C21.1414 12.0467 20.9412 12.6474 20.4472 12.8944L12.4472 16.8944C12.1657 17.0352 11.8343 17.0352 11.5528 16.8944L3.55276 12.8944C3.05878 12.6474 2.85856 12.0467 3.10555 11.5528Z" fill="#7369AB"/>
<path fill-rule="evenodd" clip-rule="evenodd" d="M3.10555 15.5528C3.35254 15.0588 3.95321 14.8586 4.44719 15.1055L12 18.8819L19.5528 15.1055C20.0467 14.8586 20.6474 15.0588 20.8944 15.5528C21.1414 16.0467 20.9412 16.6474 20.4472 16.8944L12.4472 20.8944C12.1657 21.0352 11.8343 21.0352 11.5528 20.8944L3.55276 16.8944C3.05878 16.6474 2.85856 16.0467 3.10555 15.5528Z" fill="#7369AB"/>
</svg>
