<svg width="24" height="24" viewBox="0 0 24 24" fill="none" xmlns="http://www.w3.org/2000/svg">
<path fill-rule="evenodd" clip-rule="evenodd" d="M3.29289 3.29289C3.68342 2.90237 4.31658 2.90237 4.70711 3.29289L20.7071 19.2929C21.0976 19.6834 21.0976 20.3166 20.7071 20.7071C20.3166 21.0976 19.6834 21.0976 19.2929 20.7071L3.29289 4.70711C2.90237 4.31658 2.90237 3.68342 3.29289 3.29289Z" fill="#7369AB"/>
<path fill-rule="evenodd" clip-rule="evenodd" d="M7.32711 6.74132L3.47001 9.152C3.17763 9.33474 3.00001 9.65521 3.00001 10C3.00001 10.3448 3.17763 10.6653 3.47001 10.848L11.47 15.848C11.7943 16.0507 12.2057 16.0507 12.53 15.848L14.9323 14.3465L13.481 12.8952L12 13.8208L5.88681 10L8.77849 8.1927L7.32711 6.74132ZM15.2215 11.8073L18.1132 10L12 6.17925L10.5191 7.10484L9.06768 5.65346L11.47 4.152C11.7943 3.94933 12.2057 3.94933 12.53 4.152L20.53 9.152C20.8224 9.33474 21 9.65521 21 10C21 10.3448 20.8224 10.6653 20.53 10.848L16.6729 13.2587L15.2215 11.8073ZM15.9425 15.3567L12 17.8208L4.53001 13.152C4.06167 12.8593 3.44472 13.0017 3.15201 13.47C2.8593 13.9383 3.00168 14.5553 3.47001 14.848L11.47 19.848C11.7943 20.0507 12.2057 20.0507 12.53 19.848L17.3939 16.8081L15.9425 15.3567ZM19.1344 15.7202L17.6831 14.2688L19.47 13.152C19.9383 12.8593 20.5553 13.0017 20.848 13.47C21.1407 13.9383 20.9983 14.5553 20.53 14.848L19.1344 15.7202Z" fill="#7369AB"/>
</svg>
