<svg width="24" height="24" viewBox="0 0 24 24" fill="none" xmlns="http://www.w3.org/2000/svg">
<path fill-rule="evenodd" clip-rule="evenodd" d="M3.29289 3.29289C3.68342 2.90237 4.31658 2.90237 4.70711 3.29289L20.7071 19.2929C21.0976 19.6834 21.0976 20.3166 20.7071 20.7071C20.3166 21.0976 19.6834 21.0976 19.2929 20.7071L3.29289 4.70711C2.90237 4.31658 2.90237 3.68342 3.29289 3.29289Z" fill="#7369AB"/>
<path fill-rule="evenodd" clip-rule="evenodd" d="M6.51183 5.62604L3.55276 7.10557C3.21398 7.27496 2.99997 7.62123 2.99997 8C2.99997 8.37877 3.21398 8.72504 3.55276 8.89443L11.5528 12.8944C11.8343 13.0352 12.1657 13.0352 12.4472 12.8944L13.3359 12.4501L11.5355 10.6497L6.23604 8L8.00254 7.11675L6.51183 5.62604ZM13.7308 10.0166L17.7639 8L12 5.11803L9.88816 6.17394L8.39744 4.68323L11.5528 3.10557C11.8343 2.96481 12.1657 2.96481 12.4472 3.10557L20.4472 7.10557C20.786 7.27496 21 7.62123 21 8C21 8.37877 20.786 8.72504 20.4472 8.89443L15.2215 11.5073L13.7308 10.0166ZM14.5118 13.626L12 14.882L4.44719 11.1056C3.95321 10.8586 3.35254 11.0588 3.10555 11.5528C2.85856 12.0468 3.05878 12.6474 3.55276 12.8944L11.5528 16.8944C11.8343 17.0352 12.1657 17.0352 12.4472 16.8944L16.0025 15.1168L14.5118 13.626ZM17.8882 14.1739L16.3974 12.6832L19.5528 11.1056C20.0467 10.8586 20.6474 11.0588 20.8944 11.5528C21.1414 12.0468 20.9412 12.6474 20.4472 12.8944L17.8882 14.1739ZM17.1785 16.2927L12 18.882L4.44719 15.1056C3.95321 14.8586 3.35254 15.0588 3.10555 15.5528C2.85856 16.0468 3.05878 16.6474 3.55276 16.8944L11.5528 20.8944C11.8343 21.0352 12.1657 21.0352 12.4472 20.8944L18.6692 17.7834L17.1785 16.2927ZM20.5497 16.8355L19.0641 15.3499L19.5528 15.1056C20.0467 14.8586 20.6474 15.0588 20.8944 15.5528C21.1235 16.011 20.9678 16.5611 20.5497 16.8355Z" fill="#7369AB"/>
</svg>
