<svg width="24" height="24" viewBox="0 0 24 24" fill="none" xmlns="http://www.w3.org/2000/svg">
<path fill-rule="evenodd" clip-rule="evenodd" d="M5.99997 13.4142C5.21892 12.6332 5.21892 11.3668 5.99997 10.5858L12.2929 4.29289C12.6834 3.90237 13.3166 3.90237 13.7071 4.29289C14.0976 4.68342 14.0976 5.31658 13.7071 5.70711L7.41418 12L13.7071 18.2929C14.0976 18.6834 14.0976 19.3166 13.7071 19.7071C13.3166 20.0976 12.6834 20.0976 12.2929 19.7071L5.99997 13.4142Z" fill="#7369AB"/>
<path fill-rule="evenodd" clip-rule="evenodd" d="M18 20C17.4477 20 17 19.5523 17 19L17 5C17 4.44771 17.4477 4 18 4C18.5523 4 19 4.44771 19 5L19 19C19 19.5523 18.5523 20 18 20Z" fill="#7369AB"/>
</svg>
