<svg width="24" height="24" viewBox="0 0 24 24" fill="none" xmlns="http://www.w3.org/2000/svg">
<path fill-rule="evenodd" clip-rule="evenodd" d="M18 10.5858C18.7811 11.3668 18.7811 12.6332 18 13.4142L11.7071 19.7071C11.3166 20.0976 10.6834 20.0976 10.2929 19.7071C9.9024 19.3166 9.9024 18.6834 10.2929 18.2929L16.5858 12L10.2929 5.70711C9.9024 5.31658 9.9024 4.68342 10.2929 4.29289C10.6834 3.90237 11.3166 3.90237 11.7071 4.29289L18 10.5858Z" fill="#7369AB"/>
<path fill-rule="evenodd" clip-rule="evenodd" d="M6 4C6.55228 4 7 4.44772 7 5L7 19C7 19.5523 6.55228 20 6 20C5.44771 20 5 19.5523 5 19L5 5C5 4.44772 5.44772 4 6 4Z" fill="#7369AB"/>
</svg>
