<svg width="24" height="24" viewBox="0 0 24 24" fill="none" xmlns="http://www.w3.org/2000/svg">
<path fill-rule="evenodd" clip-rule="evenodd" d="M10.5858 6C11.3668 5.21895 12.6332 5.21895 13.4142 6L19.7071 12.2929C20.0976 12.6834 20.0976 13.3166 19.7071 13.7071C19.3166 14.0976 18.6834 14.0976 18.2929 13.7071L12 7.41422L5.70711 13.7071C5.31658 14.0976 4.68342 14.0976 4.29289 13.7071C3.90237 13.3166 3.90237 12.6834 4.29289 12.2929L10.5858 6Z" fill="#7369AB"/>
<path fill-rule="evenodd" clip-rule="evenodd" d="M4 18C4 17.4477 4.44772 17 5 17H19C19.5523 17 20 17.4477 20 18C20 18.5523 19.5523 19 19 19H5C4.44772 19 4 18.5523 4 18Z" fill="#7369AB"/>
</svg>
