<svg width="24" height="24" viewBox="0 0 24 24" fill="none" xmlns="http://www.w3.org/2000/svg">
<path fill-rule="evenodd" clip-rule="evenodd" d="M13.4142 18C12.6332 18.781 11.3668 18.781 10.5858 18L4.29289 11.7071C3.90237 11.3166 3.90237 10.6834 4.29289 10.2929C4.68342 9.90237 5.31658 9.90237 5.70711 10.2929L12 16.5858L18.2929 10.2929C18.6834 9.90237 19.3166 9.90237 19.7071 10.2929C20.0976 10.6834 20.0976 11.3166 19.7071 11.7071L13.4142 18Z" fill="#7369AB"/>
<path fill-rule="evenodd" clip-rule="evenodd" d="M20 6C20 6.55228 19.5523 7 19 7L5 7C4.44771 7 4 6.55228 4 6C4 5.44771 4.44771 5 5 5L19 5C19.5523 5 20 5.44772 20 6Z" fill="#7369AB"/>
</svg>
