<svg width="24" height="24" viewBox="0 0 24 24" fill="none" xmlns="http://www.w3.org/2000/svg">
<g id="Link Off 2">
<path id="Rectangle 25 (Stroke)" fill-rule="evenodd" clip-rule="evenodd" d="M4.2929 4.29289C4.68342 3.90237 5.31659 3.90237 5.70711 4.29289L19.7071 18.2929C20.0976 18.6834 20.0976 19.3166 19.7071 19.7071C19.3166 20.0976 18.6834 20.0976 18.2929 19.7071L4.2929 5.70711C3.90237 5.31658 3.90237 4.68342 4.2929 4.29289ZM7.75737 10.5858C8.14789 10.9763 8.14789 11.6095 7.75737 12L5.63605 14.1213C4.855 14.9024 4.855 16.1687 5.63605 16.9497L7.05026 18.3639C7.83131 19.145 9.09764 19.145 9.87869 18.3639L12 16.2426C12.3905 15.8521 13.0237 15.8521 13.4142 16.2426C13.8047 16.6332 13.8047 17.2663 13.4142 17.6568L11.2929 19.7782C9.73081 21.3403 7.19814 21.3403 5.63605 19.7782L4.22183 18.3639C2.65974 16.8019 2.65974 14.2692 4.22184 12.7071L6.34316 10.5858C6.73368 10.1953 7.36684 10.1953 7.75737 10.5858Z" fill="#7369AB"/>
<path id="Subtract" fill-rule="evenodd" clip-rule="evenodd" d="M11.8358 10.75L9.17156 13.4142C8.78103 13.8047 8.78103 14.4379 9.17156 14.8284C9.56208 15.2189 10.1952 15.2189 10.5858 14.8284L13.25 12.1642L11.8358 10.75ZM17.4926 13.5784L16.0784 12.1642L16.2426 12L17.6568 10.5858L18.3639 9.87869C19.145 9.09764 19.145 7.83131 18.3639 7.05026L16.9497 5.63605C16.1687 4.855 14.9024 4.855 14.1213 5.63605L13.4142 6.34316L12 7.75737L11.8358 7.92158L10.4216 6.50737L10.5858 6.34316L12 4.92894L12.7071 4.22184C14.2692 2.65974 16.8019 2.65974 18.3639 4.22184L19.7782 5.63605C21.3403 7.19815 21.3403 9.73081 19.7782 11.2929L19.0711 12L17.6568 13.4142L17.4926 13.5784ZM13.25 9.33578L13.4142 9.17156C13.8047 8.78104 14.4379 8.78104 14.8284 9.17156C15.2189 9.56209 15.2189 10.1953 14.8284 10.5858L14.6642 10.75L13.25 9.33578Z" fill="#7369AB"/>
</g>
</svg>
