<svg width="24" height="24" viewBox="0 0 24 24" fill="none" xmlns="http://www.w3.org/2000/svg">
<g id="Link Broke">
<path id="Vector (Stroke)" fill-rule="evenodd" clip-rule="evenodd" d="M9.35119 3C9.90347 3 10.3512 3.44772 10.3512 4V5.87299C10.3512 6.42528 9.90347 6.87299 9.35119 6.87299C8.7989 6.87299 8.35119 6.42528 8.35119 5.87299V4C8.35119 3.44772 8.7989 3 9.35119 3ZM13.3216 4.70711C14.4931 3.53554 16.3926 3.53553 17.5642 4.7071L19.1061 6.249C20.2777 7.42057 20.2777 9.32007 19.1061 10.4916L16.15 13.4477C15.7595 13.8383 15.1263 13.8383 14.7358 13.4477C14.3452 13.0572 14.3452 12.4241 14.7358 12.0335L17.6919 9.07743C18.0824 8.6869 18.0824 8.05374 17.6919 7.66321L16.15 6.12132C15.7595 5.7308 15.1263 5.73079 14.7358 6.12132L11.7797 9.07743C11.3891 9.46795 10.756 9.46795 10.3654 9.07743C9.97492 8.6869 9.97492 8.05374 10.3654 7.66321L13.3216 4.70711ZM4.17585 4.17585C4.56637 3.78532 5.19954 3.78532 5.59006 4.17585L7.35594 5.94173C7.74646 6.33225 7.74646 6.96541 7.35594 7.35594C6.96541 7.74646 6.33225 7.74646 5.94173 7.35594L4.17585 5.59006C3.78532 5.19954 3.78532 4.56637 4.17585 4.17585ZM3 9.35119C3 8.7989 3.44772 8.35119 4 8.35119H5.87299C6.42528 8.35119 6.87299 8.7989 6.87299 9.35119C6.87299 9.90347 6.42528 10.3512 5.87299 10.3512H4C3.44772 10.3512 3 9.90347 3 9.35119ZM9.07743 10.3654C9.46795 10.756 9.46795 11.3891 9.07743 11.7797L6.12132 14.7358C5.73079 15.1263 5.7308 15.7595 6.12132 16.15L7.66321 17.6919C8.05374 18.0824 8.6869 18.0824 9.07743 17.6919L12.0335 14.7358C12.4241 14.3452 13.0572 14.3452 13.4477 14.7358C13.8383 15.1263 13.8383 15.7595 13.4477 16.15L10.4916 19.1061C9.32007 20.2777 7.42057 20.2777 6.249 19.1061L4.7071 17.5642C3.53553 16.3926 3.53554 14.4931 4.70711 13.3216L7.66321 10.3654C8.05374 9.97492 8.6869 9.97492 9.07743 10.3654ZM17.127 14.6488C17.127 14.0965 17.5747 13.6488 18.127 13.6488H20C20.5523 13.6488 21 14.0965 21 14.6488C21 15.2011 20.5523 15.6488 20 15.6488H18.127C17.5747 15.6488 17.127 15.2011 17.127 14.6488ZM16.6262 16.6262C17.0167 16.2357 17.6499 16.2357 18.0404 16.6262L19.8063 18.3921C20.1968 18.7826 20.1968 19.4158 19.8063 19.8063C19.4158 20.1968 18.7826 20.1968 18.3921 19.8063L16.6262 18.0404C16.2357 17.6499 16.2357 17.0167 16.6262 16.6262ZM14.6488 17.127C15.2011 17.127 15.6488 17.5747 15.6488 18.127V20C15.6488 20.5523 15.2011 21 14.6488 21C14.0965 21 13.6488 20.5523 13.6488 20V18.127C13.6488 17.5747 14.0965 17.127 14.6488 17.127Z" fill="#7369AB"/>
</g>
</svg>
