<svg width="24" height="24" viewBox="0 0 24 24" fill="none" xmlns="http://www.w3.org/2000/svg">
<g id="Link Off 1">
<path id="Vector 11 (Stroke)" fill-rule="evenodd" clip-rule="evenodd" d="M4.29289 4.29289C4.68342 3.90237 5.31658 3.90237 5.70711 4.29289L19.7071 18.2929C20.0976 18.6834 20.0976 19.3166 19.7071 19.7071C19.3166 20.0976 18.6834 20.0976 18.2929 19.7071L4.29289 5.70711C3.90237 5.31658 3.90237 4.68342 4.29289 4.29289Z" fill="#7369AB"/>
<path id="Subtract" fill-rule="evenodd" clip-rule="evenodd" d="M7.58579 7H7H6C3.79086 7 2 8.79086 2 11V13C2 15.2091 3.79086 17 6 17H7H9H10C10.5523 17 11 16.5523 11 16C11 15.4477 10.5523 15 10 15H9H7H6C4.89543 15 4 14.1046 4 13V11C4 9.89543 4.89543 9 6 9H7H9H9.58579L7.58579 7ZM11.5858 11H9C8.44772 11 8 11.4477 8 12C8 12.5523 8.44772 13 9 13H13.5858L11.5858 11ZM15.5858 15H15H14C13.4477 15 13 15.4477 13 16C13 16.5523 13.4477 17 14 17H15H17H17.5858L15.5858 15ZM19.9227 16.5085L18.3785 14.9642C19.3021 14.7873 20 13.9752 20 13V11C20 9.89543 19.1046 9 18 9H17H15H14C13.4477 9 13 8.55228 13 8C13 7.44772 13.4477 7 14 7H15H17H18C20.2091 7 22 8.79086 22 11V13C22 14.5123 21.1608 15.8285 19.9227 16.5085ZM15.8834 12.4691L14.4142 11H15C15.5523 11 16 11.4477 16 12C16 12.1695 15.9578 12.3292 15.8834 12.4691Z" fill="#7369AB"/>
</g>
</svg>
