<svg width="24" height="24" viewBox="0 0 24 24" fill="none" xmlns="http://www.w3.org/2000/svg">
<g id="Link 1">
<path id="Rectangle 25 (Stroke)" fill-rule="evenodd" clip-rule="evenodd" d="M6 9C4.89543 9 4 9.89543 4 11V13C4 14.1046 4.89543 15 6 15H10C10.5523 15 11 15.4477 11 16C11 16.5523 10.5523 17 10 17H6C3.79086 17 2 15.2091 2 13V11C2 8.79086 3.79086 7 6 7H10C10.5523 7 11 7.44772 11 8C11 8.55228 10.5523 9 10 9H6ZM13 8C13 7.44772 13.4477 7 14 7H18C20.2091 7 22 8.79086 22 11V13C22 15.2091 20.2091 17 18 17H14C13.4477 17 13 16.5523 13 16C13 15.4477 13.4477 15 14 15H18C19.1046 15 20 14.1046 20 13V11C20 9.89543 19.1046 9 18 9H14C13.4477 9 13 8.55228 13 8ZM8 12C8 11.4477 8.44772 11 9 11H15C15.5523 11 16 11.4477 16 12C16 12.5523 15.5523 13 15 13H9C8.44772 13 8 12.5523 8 12Z" fill="#7369AB"/>
</g>
</svg>
