<svg width="24" height="24" viewBox="0 0 24 24" fill="none" xmlns="http://www.w3.org/2000/svg">
<g id="Link 2">
<path id="Rectangle 25 (Stroke)" fill-rule="evenodd" clip-rule="evenodd" d="M12.7071 4.22184C14.2692 2.65974 16.8019 2.65974 18.364 4.22183L19.7782 5.63605C21.3403 7.19815 21.3403 9.73081 19.7782 11.2929L16.9497 14.1213C16.5592 14.5119 15.9261 14.5119 15.5355 14.1213C15.145 13.7308 15.145 13.0976 15.5355 12.7071L18.364 9.87869C19.145 9.09764 19.145 7.83131 18.364 7.05026L16.9497 5.63605C16.1687 4.855 14.9024 4.855 14.1213 5.63605L11.2929 8.46448C10.9024 8.855 10.2692 8.855 9.87867 8.46448C9.48815 8.07395 9.48815 7.44079 9.87867 7.05026L12.7071 4.22184ZM14.8284 9.1716C15.219 9.56212 15.219 10.1953 14.8284 10.5858L10.5858 14.8284C10.1953 15.219 9.56211 15.219 9.17159 14.8284C8.78107 14.4379 8.78107 13.8048 9.17159 13.4142L13.4142 9.1716C13.8048 8.78107 14.4379 8.78107 14.8284 9.1716ZM8.46448 9.87867C8.855 10.2692 8.855 10.9024 8.46448 11.2929L5.63605 14.1213C4.855 14.9024 4.855 16.1687 5.63605 16.9497L7.05026 18.364C7.83131 19.145 9.09764 19.145 9.87869 18.364L12.7071 15.5355C13.0976 15.145 13.7308 15.145 14.1213 15.5355C14.5119 15.9261 14.5119 16.5592 14.1213 16.9497L11.2929 19.7782C9.73081 21.3403 7.19815 21.3403 5.63605 19.7782L4.22184 18.364C2.65974 16.8019 2.65974 14.2692 4.22184 12.7071L7.05026 9.87867C7.44079 9.48815 8.07395 9.48815 8.46448 9.87867Z" fill="#7369AB"/>
</g>
</svg>
