<svg width="24" height="24" viewBox="0 0 24 24" fill="none" xmlns="http://www.w3.org/2000/svg">
<g id="Link 3">
<path id="Rectangle 29 (Stroke)" fill-rule="evenodd" clip-rule="evenodd" d="M13.8787 4.70711C15.0502 3.53554 16.9497 3.53554 18.1213 4.70711L19.2929 5.87868C20.4645 7.05025 20.4645 8.94974 19.2929 10.1213L17.7071 11.7071C17.3166 12.0976 16.6834 12.0976 16.2929 11.7071C15.9024 11.3166 15.9024 10.6834 16.2929 10.2929L17.8787 8.7071C18.2692 8.31658 18.2692 7.68342 17.8787 7.29289L16.7071 6.12132C16.3166 5.7308 15.6834 5.7308 15.2929 6.12132L10.788 10.6262C10.3975 11.0167 10.3975 11.6499 10.788 12.0404L11.3738 12.6262C11.7643 13.0167 11.7643 13.6499 11.3738 14.0404C10.9833 14.431 10.3501 14.431 9.95956 14.0404L9.37378 13.4546C8.20221 12.2831 8.20221 10.3836 9.37378 9.21201L13.8787 4.70711ZM12.6262 9.95957C13.0167 9.56905 13.6499 9.56905 14.0404 9.95957L14.6262 10.5454C15.7978 11.7169 15.7978 13.6164 14.6262 14.788L10.1213 19.2929C8.94975 20.4645 7.05025 20.4645 5.87868 19.2929L4.70711 18.1213C3.53554 16.9498 3.53554 15.0503 4.70711 13.8787L6.29289 12.2929C6.68342 11.9024 7.31658 11.9024 7.70711 12.2929C8.09763 12.6834 8.09763 13.3166 7.70711 13.7071L6.12132 15.2929C5.7308 15.6834 5.7308 16.3166 6.12132 16.7071L7.29289 17.8787C7.68342 18.2692 8.31658 18.2692 8.70711 17.8787L13.212 13.3738C13.6025 12.9833 13.6025 12.3501 13.212 11.9596L12.6262 11.3738C12.2357 10.9833 12.2357 10.3501 12.6262 9.95957Z" fill="#7369AB"/>
</g>
</svg>
