<svg width="24" height="24" viewBox="0 0 24 24" fill="none" xmlns="http://www.w3.org/2000/svg">
<path fill-rule="evenodd" clip-rule="evenodd" d="M7 6C6.44772 6 6 6.44772 6 7V19C6 19.5523 6.44772 20 7 20H17C17.5523 20 18 19.5523 18 19V7C18 6.44772 17.5523 6 17 6H15C14.4477 6 14 5.55228 14 5C14 4.44772 14.4477 4 15 4H17C18.6569 4 20 5.34315 20 7V19C20 20.6569 18.6569 22 17 22H7C5.34315 22 4 20.6569 4 19V7C4 5.34315 5.34315 4 7 4H9C9.55228 4 10 4.44772 10 5C10 5.55228 9.55228 6 9 6H7Z" fill="#7369AB"/>
<path fill-rule="evenodd" clip-rule="evenodd" d="M11 12C11 11.4477 11.4477 11 12 11H15C15.5523 11 16 11.4477 16 12C16 12.5523 15.5523 13 15 13H12C11.4477 13 11 12.5523 11 12Z" fill="#7369AB"/>
<path fill-rule="evenodd" clip-rule="evenodd" d="M11 16C11 15.4477 11.4477 15 12 15H15C15.5523 15 16 15.4477 16 16C16 16.5523 15.5523 17 15 17H12C11.4477 17 11 16.5523 11 16Z" fill="#7369AB"/>
<path fill-rule="evenodd" clip-rule="evenodd" d="M8 5C8 3.34315 9.34315 2 11 2H13C14.6569 2 16 3.34315 16 5V7C16 7.55228 15.5523 8 15 8H9C8.44772 8 8 7.55228 8 7V5ZM11 4C10.4477 4 10 4.44772 10 5V6H14V5C14 4.44772 13.5523 4 13 4H11Z" fill="#7369AB"/>
<path d="M10 12C10 12.5523 9.55228 13 9 13C8.44772 13 8 12.5523 8 12C8 11.4477 8.44772 11 9 11C9.55228 11 10 11.4477 10 12Z" fill="#7369AB"/>
<path d="M10 16C10 16.5523 9.55228 17 9 17C8.44772 17 8 16.5523 8 16C8 15.4477 8.44772 15 9 15C9.55228 15 10 15.4477 10 16Z" fill="#7369AB"/>
</svg>
