<svg width="24" height="24" viewBox="0 0 24 24" fill="none" xmlns="http://www.w3.org/2000/svg">
<path fill-rule="evenodd" clip-rule="evenodd" d="M12 8C10.8954 8 10 8.89543 10 10C10 11.1046 10.8954 12 12 12C13.1046 12 14 11.1046 14 10C14 8.89543 13.1046 8 12 8ZM8 10C8 7.79086 9.79086 6 12 6C14.2091 6 16 7.79086 16 10C16 12.2091 14.2091 14 12 14C9.79086 14 8 12.2091 8 10Z" fill="#7369AB"/>
<path fill-rule="evenodd" clip-rule="evenodd" d="M12 4C8.6517 4 6 6.60833 6 9.75C6 12.192 7.54738 14.77 9.26962 16.8459C10.1113 17.8603 10.9556 18.7087 11.5902 19.3037C11.7398 19.4439 11.8773 19.5697 12 19.6799C12.1227 19.5697 12.2602 19.4439 12.4098 19.3037C13.0444 18.7087 13.8887 17.8603 14.7304 16.8459C16.4526 14.77 18 12.192 18 9.75C18 6.60833 15.3483 4 12 4ZM12 21C11.3736 21.7795 11.3734 21.7793 11.3732 21.7791L11.3708 21.7773L11.3655 21.773L11.3474 21.7583C11.3321 21.7458 11.3104 21.7279 11.2826 21.7048C11.227 21.6586 11.1472 21.5916 11.0468 21.5051C10.8459 21.3322 10.5619 21.0811 10.2223 20.7627C9.54444 20.1272 8.63875 19.2178 7.73038 18.1229C5.95262 15.98 4 12.933 4 9.75C4 5.43583 7.61631 2 12 2C16.3837 2 20 5.43583 20 9.75C20 12.933 18.0474 15.98 16.2696 18.1229C15.3613 19.2178 14.4556 20.1272 13.7777 20.7627C13.4381 21.0811 13.1541 21.3322 12.9532 21.5051C12.8528 21.5916 12.773 21.6586 12.7174 21.7048C12.6896 21.7279 12.6679 21.7458 12.6526 21.7583L12.6345 21.773L12.6292 21.7773L12.6275 21.7787C12.6272 21.7788 12.6264 21.7795 12 21ZM12 21L12.6264 21.7795C12.2605 22.0735 11.739 22.0731 11.3732 21.7791L12 21Z" fill="#7369AB"/>
</svg>
