<svg width="24" height="24" viewBox="0 0 24 24" fill="none" xmlns="http://www.w3.org/2000/svg">
<path fill-rule="evenodd" clip-rule="evenodd" d="M5.0431 9.74832C5.41571 6.51255 8.16449 4 11.5001 4C14.9548 4 17.78 6.69515 17.9879 10.0975C20.2762 10.5561 22.0001 12.5767 22.0001 15C22.0001 17.3312 20.4057 19.2874 18.2494 19.8424C17.7145 19.9801 17.1693 19.6581 17.0317 19.1232C16.894 18.5884 17.216 18.0432 17.7509 17.9055C19.045 17.5725 20.0001 16.3965 20.0001 15C20.0001 13.3431 18.657 12 17.0001 12H16.9777C16.6969 12 16.429 11.8819 16.2395 11.6746C16.0501 11.4673 15.9565 11.1899 15.9817 10.9102C15.9939 10.7754 16.0001 10.6385 16.0001 10.5C16.0001 8.01472 13.9854 6 11.5001 6C9.01483 6 7.00011 8.01472 7.00011 10.5L7.00012 10.5117C7.00132 10.9882 6.66608 11.3994 6.19905 11.4942C4.69971 11.7986 3.57153 13.1257 3.57153 14.7142C3.57153 16.3026 4.69971 17.6298 6.19905 17.9342C6.7403 18.044 7.09 18.5719 6.98014 19.1131C6.87027 19.6543 6.34244 20.004 5.80119 19.8942C3.38811 19.4044 1.57153 17.2725 1.57153 14.7142C1.57153 12.4316 3.01755 10.4886 5.0431 9.74832Z" fill="#7369AB"/>
<path fill-rule="evenodd" clip-rule="evenodd" d="M9.71429 14.2857C9.71429 13.0233 10.7376 12 12 12C13.2624 12 14.2857 13.0233 14.2857 14.2857V14.5768C15.2446 14.6498 16 15.451 16 16.4286V19.1429C16 20.1685 15.1685 21 14.1429 21H9.85714C8.83147 21 8 20.1685 8 19.1429V16.4286C8 15.451 8.75536 14.6498 9.71429 14.5768V14.2857ZM11.7143 14.5714H12.2857V14.2857C12.2857 14.1279 12.1578 14 12 14C11.8422 14 11.7143 14.1279 11.7143 14.2857V14.5714ZM10 16.5714V19H14V16.5714H10Z" fill="#7369AB"/>
</svg>
