<svg width="24" height="24" viewBox="0 0 24 24" fill="none" xmlns="http://www.w3.org/2000/svg">
<g id="Lock 2">
<path id="Ellipse 7 (Stroke)" fill-rule="evenodd" clip-rule="evenodd" d="M7 7C7 4.23858 9.23858 2 12 2C14.7614 2 17 4.23858 17 7V10C17 10.0325 16.9984 10.0646 16.9954 10.0963C18.2353 11.3593 19 13.0903 19 15C19 18.866 15.866 22 12 22C8.13401 22 5 18.866 5 15C5 13.0903 5.7647 11.3593 7.00458 10.0963C7.00155 10.0646 7 10.0325 7 10V7ZM9 8.67363C9.90926 8.24169 10.9264 8 12 8C13.0736 8 14.0907 8.24169 15 8.67363V7C15 5.34315 13.6569 4 12 4C10.3431 4 9 5.34315 9 7V8.67363ZM12 10C9.23858 10 7 12.2386 7 15C7 17.7614 9.23858 20 12 20C14.7614 20 17 17.7614 17 15C17 12.2386 14.7614 10 12 10ZM10 14C10 12.8954 10.8954 12 12 12C13.1046 12 14 12.8954 14 14C14 14.7403 13.5978 15.3866 13 15.7324V17C13 17.5523 12.5523 18 12 18C11.4477 18 11 17.5523 11 17V15.7324C10.4022 15.3866 10 14.7403 10 14Z" fill="#7369AB"/>
</g>
</svg>
