<svg width="24" height="24" viewBox="0 0 24 24" fill="none" xmlns="http://www.w3.org/2000/svg">
<path fill-rule="evenodd" clip-rule="evenodd" d="M20.8001 6.39995C21.1314 6.84178 21.0419 7.46858 20.6001 7.79995L14.4001 12.45C12.9778 13.5167 11.0223 13.5167 9.60005 12.45L3.40006 7.8C2.95823 7.46863 2.86869 6.84183 3.20006 6.4C3.53143 5.95817 4.15823 5.86863 4.60006 6.2L10.8001 10.85C11.5112 11.3833 12.4889 11.3833 13.2001 10.85L19.4001 6.19995C19.8419 5.86858 20.4687 5.95812 20.8001 6.39995Z" fill="#7369AB"/>
<path fill-rule="evenodd" clip-rule="evenodd" d="M2 7C2 5.34315 3.34315 4 5 4H19C20.6569 4 22 5.34315 22 7V12C22 12.5523 21.5523 13 21 13C20.4477 13 20 12.5523 20 12V7C20 6.44772 19.5523 6 19 6H5C4.44772 6 4 6.44772 4 7V17C4 17.5523 4.44772 18 5 18H12C12.5523 18 13 18.4477 13 19C13 19.5523 12.5523 20 12 20H5C3.34315 20 2 18.6569 2 17V7Z" fill="#7369AB"/>
<path fill-rule="evenodd" clip-rule="evenodd" d="M15.7143 15.2857C15.7143 14.0233 16.7376 13 18 13C19.2624 13 20.2857 14.0233 20.2857 15.2857V15.5768C21.2446 15.6498 22 16.451 22 17.4286V19.1429C22 20.1685 21.1685 21 20.1429 21H15.8571C14.8315 21 14 20.1685 14 19.1429V17.4286C14 16.451 14.7554 15.6498 15.7143 15.5768V15.2857ZM17.7143 15.5714H18.2857V15.2857C18.2857 15.1279 18.1578 15 18 15C17.8422 15 17.7143 15.1279 17.7143 15.2857V15.5714ZM16 17.5714V19H20V17.5714H16Z" fill="#7369AB"/>
</svg>
