<svg width="24" height="24" viewBox="0 0 24 24" fill="none" xmlns="http://www.w3.org/2000/svg">
<g id="Lock Pattern">
<path id="Ellipse 15 (Stroke)" fill-rule="evenodd" clip-rule="evenodd" d="M5 4.5C4.72386 4.5 4.5 4.72386 4.5 5C4.5 5.27614 4.72386 5.5 5 5.5C5.27614 5.5 5.5 5.27614 5.5 5C5.5 4.72386 5.27614 4.5 5 4.5ZM2.5 5C2.5 3.61929 3.61929 2.5 5 2.5C6.38071 2.5 7.5 3.61929 7.5 5C7.5 6.02516 6.88295 6.9062 6 7.29198V9.70802C6.88295 10.0938 7.5 10.9748 7.5 12C7.5 13.0252 6.88295 13.9062 6 14.292V16.708C6.57672 16.96 7.04 17.4233 7.29198 18H9.70802C10.0938 17.117 10.9748 16.5 12 16.5C13.0252 16.5 13.9062 17.117 14.292 18H16.708C17.0938 17.117 17.9748 16.5 19 16.5C20.3807 16.5 21.5 17.6193 21.5 19C21.5 20.3807 20.3807 21.5 19 21.5C17.9748 21.5 17.0938 20.883 16.708 20H14.292C13.9062 20.883 13.0252 21.5 12 21.5C10.9748 21.5 10.0938 20.883 9.70802 20H7.29198C6.9062 20.883 6.02516 21.5 5 21.5C3.61929 21.5 2.5 20.3807 2.5 19C2.5 17.9748 3.11705 17.0938 4 16.708V14.292C3.11705 13.9062 2.5 13.0252 2.5 12C2.5 10.9748 3.11705 10.0938 4 9.70802V7.29198C3.11705 6.9062 2.5 6.02516 2.5 5ZM5 11.5C4.72386 11.5 4.5 11.7239 4.5 12C4.5 12.2761 4.72386 12.5 5 12.5C5.27614 12.5 5.5 12.2761 5.5 12C5.5 11.7239 5.27614 11.5 5 11.5ZM5 18.5C4.72386 18.5 4.5 18.7239 4.5 19C4.5 19.2761 4.72386 19.5 5 19.5C5.27614 19.5 5.5 19.2761 5.5 19C5.5 18.7239 5.27614 18.5 5 18.5ZM11.5 19C11.5 19.2761 11.7239 19.5 12 19.5C12.2761 19.5 12.5 19.2761 12.5 19C12.5 18.7239 12.2761 18.5 12 18.5C11.7239 18.5 11.5 18.7239 11.5 19ZM18.5 19C18.5 19.2761 18.7239 19.5 19 19.5C19.2761 19.5 19.5 19.2761 19.5 19C19.5 18.7239 19.2761 18.5 19 18.5C18.7239 18.5 18.5 18.7239 18.5 19ZM12 4.5C11.7239 4.5 11.5 4.72386 11.5 5C11.5 5.27614 11.7239 5.5 12 5.5C12.2761 5.5 12.5 5.27614 12.5 5C12.5 4.72386 12.2761 4.5 12 4.5ZM9.5 5C9.5 3.61929 10.6193 2.5 12 2.5C13.3807 2.5 14.5 3.61929 14.5 5C14.5 6.38071 13.3807 7.5 12 7.5C10.6193 7.5 9.5 6.38071 9.5 5ZM19 4.5C18.7239 4.5 18.5 4.72386 18.5 5C18.5 5.27614 18.7239 5.5 19 5.5C19.2761 5.5 19.5 5.27614 19.5 5C19.5 4.72386 19.2761 4.5 19 4.5ZM16.5 5C16.5 3.61929 17.6193 2.5 19 2.5C20.3807 2.5 21.5 3.61929 21.5 5C21.5 6.38071 20.3807 7.5 19 7.5C17.6193 7.5 16.5 6.38071 16.5 5ZM12 11.5C11.7239 11.5 11.5 11.7239 11.5 12C11.5 12.2761 11.7239 12.5 12 12.5C12.2761 12.5 12.5 12.2761 12.5 12C12.5 11.7239 12.2761 11.5 12 11.5ZM9.5 12C9.5 10.6193 10.6193 9.5 12 9.5C13.3807 9.5 14.5 10.6193 14.5 12C14.5 13.3807 13.3807 14.5 12 14.5C10.6193 14.5 9.5 13.3807 9.5 12ZM19 11.5C18.7239 11.5 18.5 11.7239 18.5 12C18.5 12.2761 18.7239 12.5 19 12.5C19.2761 12.5 19.5 12.2761 19.5 12C19.5 11.7239 19.2761 11.5 19 11.5ZM16.5 12C16.5 10.6193 17.6193 9.5 19 9.5C20.3807 9.5 21.5 10.6193 21.5 12C21.5 13.3807 20.3807 14.5 19 14.5C17.6193 14.5 16.5 13.3807 16.5 12Z" fill="#7369AB"/>
</g>
</svg>
