<svg width="24" height="24" viewBox="0 0 24 24" fill="none" xmlns="http://www.w3.org/2000/svg">
<path fill-rule="evenodd" clip-rule="evenodd" d="M5 6C4.44772 6 4 6.44772 4 7V17C4 17.5523 4.44772 18 5 18H11C11.5523 18 12 18.4477 12 19C12 19.5523 11.5523 20 11 20H5C3.34315 20 2 18.6569 2 17V7C2 5.34315 3.34315 4 5 4H9.58579C10.1162 4 10.6249 4.21071 11 4.58579L12.4142 6H19C20.6569 6 22 7.34315 22 9V10C22 10.5523 21.5523 11 21 11C20.4477 11 20 10.5523 20 10V9C20 8.44772 19.5523 8 19 8H12C11.7348 8 11.4804 7.89464 11.2929 7.70711L9.58579 6H5Z" fill="#7369AB"/>
<path fill-rule="evenodd" clip-rule="evenodd" d="M13 16C13 14.8954 13.8954 14 15 14H20C21.1046 14 22 14.8954 22 16V19C22 20.1046 21.1046 21 20 21H15C13.8954 21 13 20.1046 13 19V16ZM20 16H15V19H20V16Z" fill="#7369AB"/>
<path fill-rule="evenodd" clip-rule="evenodd" d="M15 13.5C15 12.1193 16.1193 11 17.5 11C18.8807 11 20 12.1193 20 13.5V15C20 15.5523 19.5523 16 19 16H16C15.4477 16 15 15.5523 15 15V13.5ZM17.5 13C17.2239 13 17 13.2239 17 13.5V14H18V13.5C18 13.2239 17.7761 13 17.5 13Z" fill="#7369AB"/>
</svg>
