<svg width="24" height="24" viewBox="0 0 24 24" fill="none" xmlns="http://www.w3.org/2000/svg">
<path fill-rule="evenodd" clip-rule="evenodd" d="M8 4C6.89543 4 6 4.89543 6 6V18C6 19.1046 6.89543 20 8 20H10C10.5523 20 11 20.4477 11 21C11 21.5523 10.5523 22 10 22H8C5.79086 22 4 20.2091 4 18V6C4 3.79086 5.79086 2 8 2H13.5C13.7691 2 14.0269 2.10847 14.215 2.30088L19.715 7.92588C19.8977 8.11273 20 8.36367 20 8.625V11.8125C20 12.3648 19.5523 12.8125 19 12.8125C18.4477 12.8125 18 12.3648 18 11.8125V9.625H14.5C13.3954 9.625 12.5 8.72957 12.5 7.625V4H8ZM14.5 5.4531L16.6236 7.625H14.5V5.4531Z" fill="#7369AB"/>
<path fill-rule="evenodd" clip-rule="evenodd" d="M12 18C12 16.8954 12.8954 16 14 16H19C20.1046 16 21 16.8954 21 18V20C21 21.1046 20.1046 22 19 22H14C12.8954 22 12 21.1046 12 20V18ZM19 18H14V20H19V18Z" fill="#7369AB"/>
<path fill-rule="evenodd" clip-rule="evenodd" d="M14 15.5C14 14.1193 15.1193 13 16.5 13C17.8807 13 19 14.1193 19 15.5V17C19 17.5523 18.5523 18 18 18H15C14.4477 18 14 17.5523 14 17V15.5ZM16.5 15C16.2239 15 16 15.2239 16 15.5V16H17V15.5C17 15.2239 16.7761 15 16.5 15Z" fill="#7369AB"/>
</svg>
