<svg width="24" height="24" viewBox="0 0 24 24" fill="none" xmlns="http://www.w3.org/2000/svg">
<path fill-rule="evenodd" clip-rule="evenodd" d="M2 8C2 6.34315 3.34315 5 5 5H19C20.6569 5 22 6.34315 22 8V10.5C22 11.0523 21.5523 11.5 21 11.5C20.4477 11.5 20 11.0523 20 10.5V8C20 7.44772 19.5523 7 19 7H5C4.44772 7 4 7.44772 4 8V17C4 17.5523 4.44772 18 5 18H12C12.5523 18 13 18.4477 13 19C13 19.5523 12.5523 20 12 20H5C3.34315 20 2 18.6569 2 17V8Z" fill="#7369AB"/>
<path fill-rule="evenodd" clip-rule="evenodd" d="M15.7143 14.2857C15.7143 13.0233 16.7376 12 18 12C19.2624 12 20.2857 13.0233 20.2857 14.2857V14.5768C21.2446 14.6498 22 15.451 22 16.4286V19.1429C22 20.1685 21.1685 21 20.1429 21H15.8571C14.8315 21 14 20.1685 14 19.1429V16.4286C14 15.451 14.7554 14.6498 15.7143 14.5768V14.2857ZM17.7143 14.5714H18.2857V14.2857C18.2857 14.1279 18.1578 14 18 14C17.8422 14 17.7143 14.1279 17.7143 14.2857V14.5714ZM16 16.5714V19H20V16.5714H16Z" fill="#7369AB"/>
<path fill-rule="evenodd" clip-rule="evenodd" d="M2 10C2 9.44772 2.44772 9 3 9H20.5C21.0523 9 21.5 9.44772 21.5 10C21.5 10.5523 21.0523 11 20.5 11H3C2.44772 11 2 10.5523 2 10Z" fill="#7369AB"/>
<path fill-rule="evenodd" clip-rule="evenodd" d="M6 15C6 14.4477 6.44772 14 7 14H9C9.55228 14 10 14.4477 10 15C10 15.5523 9.55228 16 9 16H7C6.44772 16 6 15.5523 6 15Z" fill="#7369AB"/>
</svg>
