<svg width="24" height="24" viewBox="0 0 24 24" fill="none" xmlns="http://www.w3.org/2000/svg">
<path fill-rule="evenodd" clip-rule="evenodd" d="M7 6C6.44772 6 6 6.44772 6 7V15H18V13.5C18 12.9477 18.4477 12.5 19 12.5C19.5523 12.5 20 12.9477 20 13.5V16C20 16.5523 19.5523 17 19 17H5C4.44772 17 4 16.5523 4 16V7C4 5.34315 5.34315 4 7 4H11C11.5523 4 12 4.44772 12 5C12 5.55228 11.5523 6 11 6H7Z" fill="#7369AB"/>
<path fill-rule="evenodd" clip-rule="evenodd" d="M15.7143 4.28571C15.7143 3.02335 16.7376 2 18 2C19.2624 2 20.2857 3.02335 20.2857 4.28571V4.57684C21.2446 4.64979 22 5.45097 22 6.42857V9.14286C22 10.1685 21.1685 11 20.1429 11H15.8571C14.8315 11 14 10.1685 14 9.14286V6.42857C14 5.45097 14.7554 4.64979 15.7143 4.57684V4.28571ZM17.7143 4.57143H18.2857V4.28571C18.2857 4.12792 18.1578 4 18 4C17.8422 4 17.7143 4.12792 17.7143 4.28571V4.57143ZM16 6.57143V9H20V6.57143H16Z" fill="#7369AB"/>
<path fill-rule="evenodd" clip-rule="evenodd" d="M2 16C2 15.4477 2.44772 15 3 15H21C21.5523 15 22 15.4477 22 16V17C22 18.6569 20.6569 20 19 20H5C3.34315 20 2 18.6569 2 17V16ZM4 17C4 17.5523 4.44772 18 5 18H19C19.5523 18 20 17.5523 20 17H4Z" fill="#7369AB"/>
</svg>
