<svg width="24" height="24" viewBox="0 0 24 24" fill="none" xmlns="http://www.w3.org/2000/svg">
<path fill-rule="evenodd" clip-rule="evenodd" d="M6 5C5.44772 5 5 5.44772 5 6V14C5 14.5523 5.44772 15 6 15H18C18.5523 15 19 14.5523 19 14V13C19 12.4477 19.4477 12 20 12C20.5523 12 21 12.4477 21 13V14C21 15.6569 19.6569 17 18 17H6C4.34315 17 3 15.6569 3 14V6C3 4.34315 4.34315 3 6 3H10C10.5523 3 11 3.44772 11 4C11 4.55228 10.5523 5 10 5H6Z" fill="#7369AB"/>
<path fill-rule="evenodd" clip-rule="evenodd" d="M14.7143 4.28571C14.7143 3.02335 15.7376 2 17 2C18.2624 2 19.2857 3.02335 19.2857 4.28571V4.57684C20.2446 4.64979 21 5.45097 21 6.42857V9.14286C21 10.1685 20.1685 11 19.1429 11H14.8571C13.8315 11 13 10.1685 13 9.14286V6.42857C13 5.45097 13.7554 4.64979 14.7143 4.57684V4.28571ZM16.7143 4.57143H17.2857V4.28571C17.2857 4.12792 17.1578 4 17 4C16.8422 4 16.7143 4.12792 16.7143 4.28571V4.57143ZM15 6.57143V9H19V6.57143H15Z" fill="#7369AB"/>
<path fill-rule="evenodd" clip-rule="evenodd" d="M12 15C12.5523 15 13 15.4477 13 16V20C13 20.5523 12.5523 21 12 21C11.4477 21 11 20.5523 11 20V16C11 15.4477 11.4477 15 12 15Z" fill="#7369AB"/>
<path fill-rule="evenodd" clip-rule="evenodd" d="M7 20C7 19.4477 7.44772 19 8 19H16C16.5523 19 17 19.4477 17 20C17 20.5523 16.5523 21 16 21H8C7.44772 21 7 20.5523 7 20Z" fill="#7369AB"/>
</svg>
