<svg width="20" height="24" viewBox="0 0 20 24" fill="none" xmlns="http://www.w3.org/2000/svg">
<g id="Group 94">
<path id="Rectangle 12 (Stroke)" fill-rule="evenodd" clip-rule="evenodd" d="M3.6 4.8C3.6 2.14903 5.74903 0 8.4 0H10.8C13.451 0 15.6 2.14903 15.6 4.8V7.35122C17.6703 7.88407 19.2 9.76339 19.2 12V19.2C19.2 21.851 17.051 24 14.4 24H4.8C2.14903 24 0 21.851 0 19.2V12C0 9.76339 1.52973 7.88407 3.6 7.35122V4.8ZM6 7.2H13.2V4.8C13.2 3.47452 12.1255 2.4 10.8 2.4H8.4C7.07452 2.4 6 3.47452 6 4.8V7.2ZM4.8 9.6C3.47452 9.6 2.4 10.6745 2.4 12V19.2C2.4 20.5255 3.47452 21.6 4.8 21.6H14.4C15.7255 21.6 16.8 20.5255 16.8 19.2V12C16.8 10.6745 15.7255 9.6 14.4 9.6H4.8ZM7.2 14.4C7.2 13.0745 8.27452 12 9.6 12C10.9255 12 12 13.0745 12 14.4C12 15.2883 11.5174 16.064 10.8 16.4789V18C10.8 18.6627 10.2627 19.2 9.6 19.2C8.93726 19.2 8.4 18.6627 8.4 18V16.4789C7.68264 16.064 7.2 15.2883 7.2 14.4Z" fill="#7369AB"/>
</g>
</svg>
