<svg width="24" height="24" viewBox="0 0 24 24" fill="none" xmlns="http://www.w3.org/2000/svg">
<path fill-rule="evenodd" clip-rule="evenodd" d="M2 6C2 4.34315 3.34315 3 5 3H19C20.6569 3 22 4.34315 22 6V12C22 12.5523 21.5523 13 21 13C20.4477 13 20 12.5523 20 12V11H4V18C4 18.5523 4.44772 19 5 19H10C10.5523 19 11 19.4477 11 20C11 20.5523 10.5523 21 10 21H5C3.34315 21 2 19.6569 2 18V6ZM4 9H20V6C20 5.44772 19.5523 5 19 5H5C4.44772 5 4 5.44772 4 6V9Z" fill="#7369AB"/>
<path fill-rule="evenodd" clip-rule="evenodd" d="M14.7143 15.2857C14.7143 14.0233 15.7376 13 17 13C18.2624 13 19.2857 14.0233 19.2857 15.2857V15.5768C20.2446 15.6498 21 16.451 21 17.4286V20.1429C21 21.1685 20.1685 22 19.1429 22H14.8571C13.8315 22 13 21.1685 13 20.1429V17.4286C13 16.451 13.7554 15.6498 14.7143 15.5768V15.2857ZM16.7143 15.5714H17.2857V15.2857C17.2857 15.1279 17.1578 15 17 15C16.8422 15 16.7143 15.1279 16.7143 15.2857V15.5714ZM15 17.5714V20H19V17.5714H15Z" fill="#7369AB"/>
<path d="M7 7C7 7.55228 6.55228 8 6 8C5.44772 8 5 7.55228 5 7C5 6.44772 5.44772 6 6 6C6.55228 6 7 6.44772 7 7Z" fill="#7369AB"/>
<path d="M10 7C10 7.55228 9.55228 8 9 8C8.44772 8 8 7.55228 8 7C8 6.44772 8.44772 6 9 6C9.55228 6 10 6.44772 10 7Z" fill="#7369AB"/>
</svg>
