<svg width="24" height="24" viewBox="0 0 24 24" fill="none" xmlns="http://www.w3.org/2000/svg">
<g id="Login">
<path id="Rectangle 16 (Stroke)" fill-rule="evenodd" clip-rule="evenodd" d="M3 5C3 3.34315 4.34315 2 6 2H13C14.6569 2 16 3.34315 16 5V8.0625C16 8.61478 15.5523 9.0625 15 9.0625C14.4477 9.0625 14 8.61478 14 8.0625V5C14 4.44772 13.5523 4 13 4H6C5.44772 4 5 4.44772 5 5V19C5 19.5523 5.44772 20 6 20H13C13.5523 20 14 19.5523 14 19V16.5C14 15.9477 14.4477 15.5 15 15.5C15.5523 15.5 16 15.9477 16 16.5V19C16 20.6569 14.6569 22 13 22H6C4.34315 22 3 20.6569 3 19V5ZM12.2071 8.79289C12.5976 9.18342 12.5976 9.81658 12.2071 10.2071L11.4142 11L20 11C20.5523 11 21 11.4477 21 12C21 12.5523 20.5523 13 20 13L11.4142 13L12.2071 13.7929C12.5976 14.1834 12.5976 14.8166 12.2071 15.2071C11.8166 15.5976 11.1834 15.5976 10.7929 15.2071L8.29289 12.7071C8.10536 12.5196 8 12.2652 8 12C8 11.7348 8.10536 11.4804 8.29289 11.2929L10.7929 8.79289C11.1834 8.40237 11.8166 8.40237 12.2071 8.79289Z" fill="#7369AB"/>
</g>
</svg>
