<svg width="24" height="24" viewBox="0 0 24 24" fill="none" xmlns="http://www.w3.org/2000/svg">
<g id="Logout">
<path id="Rectangle 16 (Stroke)" fill-rule="evenodd" clip-rule="evenodd" d="M3 5C3 3.34315 4.34315 2 6 2H13C14.6569 2 16 3.34315 16 5V8.0625C16 8.61478 15.5523 9.0625 15 9.0625C14.4477 9.0625 14 8.61478 14 8.0625V5C14 4.44772 13.5523 4 13 4H6C5.44772 4 5 4.44772 5 5V19C5 19.5523 5.44772 20 6 20H13C13.5523 20 14 19.5523 14 19V16.5C14 15.9477 14.4477 15.5 15 15.5C15.5523 15.5 16 15.9477 16 16.5V19C16 20.6569 14.6569 22 13 22H6C4.34315 22 3 20.6569 3 19V5ZM17.7929 8.79289C18.1834 8.40237 18.8166 8.40237 19.2071 8.79289L21.7071 11.2929C22.0976 11.6834 22.0976 12.3166 21.7071 12.7071L19.2071 15.2071C18.8166 15.5976 18.1834 15.5976 17.7929 15.2071C17.4024 14.8166 17.4024 14.1834 17.7929 13.7929L18.5858 13H11C10.4477 13 10 12.5523 10 12C10 11.4477 10.4477 11 11 11H18.5858L17.7929 10.2071C17.4024 9.81658 17.4024 9.18342 17.7929 8.79289Z" fill="#7369AB"/>
</g>
</svg>
