<svg width="24" height="24" viewBox="0 0 24 24" fill="none" xmlns="http://www.w3.org/2000/svg">
<path fill-rule="evenodd" clip-rule="evenodd" d="M5 9C5 7.34315 6.34315 6 8 6H16C17.6569 6 19 7.34315 19 9V18C19 19.6569 17.6569 21 16 21H8C6.34315 21 5 19.6569 5 18V9ZM8 8C7.44772 8 7 8.44772 7 9V18C7 18.5523 7.44772 19 8 19H16C16.5523 19 17 18.5523 17 18V9C17 8.44772 16.5523 8 16 8H8Z" fill="#7369AB"/>
<path fill-rule="evenodd" clip-rule="evenodd" d="M10 10C10.5523 10 11 10.4477 11 11V16C11 16.5523 10.5523 17 10 17C9.44772 17 9 16.5523 9 16V11C9 10.4477 9.44772 10 10 10Z" fill="#7369AB"/>
<path fill-rule="evenodd" clip-rule="evenodd" d="M14 10C14.5523 10 15 10.4477 15 11V16C15 16.5523 14.5523 17 14 17C13.4477 17 13 16.5523 13 16V11C13 10.4477 13.4477 10 14 10Z" fill="#7369AB"/>
<path fill-rule="evenodd" clip-rule="evenodd" d="M16 19C16.5523 19 17 19.4477 17 20L17 21C17 21.5523 16.5523 22 16 22C15.4477 22 15 21.5523 15 21L15 20C15 19.4477 15.4477 19 16 19Z" fill="#7369AB"/>
<path fill-rule="evenodd" clip-rule="evenodd" d="M8 19C8.55228 19 9 19.4477 9 20L9 21C9 21.5523 8.55228 22 8 22C7.44772 22 7 21.5523 7 21L7 20C7 19.4477 7.44772 19 8 19Z" fill="#7369AB"/>
<path fill-rule="evenodd" clip-rule="evenodd" d="M9 4C9 2.89543 9.89543 2 11 2H13C14.1046 2 15 2.89543 15 4V7C15 7.55228 14.5523 8 14 8H10C9.44772 8 9 7.55228 9 7V4ZM13 4H11V6H13V4Z" fill="#7369AB"/>
</svg>
