<svg width="24" height="24" viewBox="0 0 24 24" fill="none" xmlns="http://www.w3.org/2000/svg">
<path fill-rule="evenodd" clip-rule="evenodd" d="M8.05132 2.26213C8.66712 2.05687 9.33288 2.05687 9.94868 2.26213L14.6838 3.8405C14.889 3.90892 15.111 3.90892 15.3162 3.8405L19.3675 2.49006C20.6626 2.05837 22 3.02231 22 4.38743V17.382C22 18.1395 21.572 18.832 20.8944 19.1708L16.3416 21.4472C15.4971 21.8695 14.5029 21.8695 13.6584 21.4472L9.44721 19.3416C9.16569 19.2009 8.83431 19.2009 8.55279 19.3416L4.89443 21.1708C3.56462 21.8357 2 20.8687 2 19.382V5.72076C2 4.8599 2.55086 4.09562 3.36754 3.82339L8.05132 2.26213ZM9.31623 4.1595C9.11096 4.09108 8.88904 4.09108 8.68377 4.1595L4 5.72076V19.382L7.65836 17.5528C8.50294 17.1305 9.49706 17.1305 10.3416 17.5528L14.5528 19.6584C14.8343 19.7991 15.1657 19.7991 15.4472 19.6584L20 17.382V4.38743L15.9487 5.73786C15.3329 5.94313 14.6671 5.94313 14.0513 5.73786L9.31623 4.1595Z" fill="#7369AB"/>
<path fill-rule="evenodd" clip-rule="evenodd" d="M15 4.00006C15.5523 4.00006 16 4.44778 16 5.00006V20.5001C16 21.0523 15.5523 21.5001 15 21.5001C14.4477 21.5001 14 21.0523 14 20.5001V5.00006C14 4.44778 14.4477 4.00006 15 4.00006Z" fill="#7369AB"/>
<path fill-rule="evenodd" clip-rule="evenodd" d="M9 3.00003C9.55228 3.00003 10 3.44775 10 4.00003L10 18C10 18.5523 9.55229 19 9 19C8.44772 19 8 18.5523 8 18L8 4.00003C8 3.44775 8.44772 3.00003 9 3.00003Z" fill="#7369AB"/>
</svg>
