<svg width="24" height="24" viewBox="0 0 24 24" fill="none" xmlns="http://www.w3.org/2000/svg">
<path fill-rule="evenodd" clip-rule="evenodd" d="M10.6584 5.55279C11.5029 5.1305 12.4971 5.1305 13.3416 5.55279L17.3416 7.55279C18.358 8.06096 19 9.09975 19 10.2361V14.6115C19 17.0557 17.2329 19.1416 14.822 19.5435L12.822 19.8768C12.2778 19.9675 11.7222 19.9675 11.178 19.8768L9.178 19.5435C6.76706 19.1416 5 17.0557 5 14.6115V10.2361C5 9.09975 5.64201 8.06096 6.65836 7.55279L10.6584 5.55279ZM12.4472 7.34164C12.1657 7.20088 11.8343 7.20088 11.5528 7.34164L7.55279 9.34164C7.214 9.51103 7 9.8573 7 10.2361V14.6115C7 16.078 8.06024 17.3296 9.5068 17.5707L11.5068 17.904C11.8333 17.9584 12.1667 17.9584 12.4932 17.904L14.4932 17.5707C15.9398 17.3296 17 16.078 17 14.6115V10.2361C17 9.8573 16.786 9.51103 16.4472 9.34164L12.4472 7.34164Z" fill="#7369AB"/>
<path fill-rule="evenodd" clip-rule="evenodd" d="M2 11.1623C2 8.92401 4.19282 7.34351 6.31623 8.05132C6.84017 8.22597 7.12333 8.79229 6.94868 9.31623C6.77404 9.84017 6.20772 10.1233 5.68377 9.94868C4.85542 9.67257 4 10.2891 4 11.1623V11.6082C4 12.1434 4.26747 12.6431 4.71276 12.94L6.5547 14.168C7.01423 14.4743 7.1384 15.0952 6.83205 15.5547C6.5257 16.0142 5.90483 16.1384 5.4453 15.8321L3.60336 14.6041C2.60167 13.9363 2 12.8121 2 11.6082V11.1623Z" fill="#7369AB"/>
<path fill-rule="evenodd" clip-rule="evenodd" d="M22 11.1623C22 8.92401 19.8072 7.34351 17.6838 8.05132C17.1598 8.22597 16.8767 8.79229 17.0513 9.31623C17.226 9.84017 17.7923 10.1233 18.3162 9.94868C19.1446 9.67257 20 10.2891 20 11.1623V11.6082C20 12.1434 19.7325 12.6431 19.2872 12.94L17.4453 14.168C16.9858 14.4743 16.8616 15.0952 17.1679 15.5547C17.4743 16.0142 18.0952 16.1384 18.5547 15.8321L20.3966 14.6041C21.3983 13.9363 22 12.8121 22 11.6082V11.1623Z" fill="#7369AB"/>
<path fill-rule="evenodd" clip-rule="evenodd" d="M12.3163 12.1595C12.111 12.0911 11.8891 12.0911 11.6838 12.1595L9.31625 12.9487C8.79231 13.1233 8.22599 12.8402 8.05134 12.3162C7.8767 11.7923 8.15986 11.226 8.6838 11.0513L11.0513 10.2621C11.6671 10.0569 12.3329 10.0569 12.9487 10.2621L15.3163 11.0513C15.8402 11.226 16.1234 11.7923 15.9487 12.3162C15.7741 12.8402 15.2077 13.1233 14.6838 12.9487L12.3163 12.1595Z" fill="#7369AB"/>
<path fill-rule="evenodd" clip-rule="evenodd" d="M12.2425 15.5914C12.0833 15.5516 11.9167 15.5516 11.7575 15.5914L10.2425 15.9701C9.70673 16.1041 9.1638 15.7783 9.02985 15.2425C8.8959 14.7067 9.22166 14.1638 9.75746 14.0299L11.2724 13.6511C11.7501 13.5317 12.2499 13.5317 12.7276 13.6511L14.2425 14.0299C14.7783 14.1638 15.1041 14.7067 14.9701 15.2425C14.8362 15.7783 14.2933 16.1041 13.7575 15.9701L12.2425 15.5914Z" fill="#7369AB"/>
</svg>
