<svg width="24" height="24" viewBox="0 0 24 24" fill="none" xmlns="http://www.w3.org/2000/svg">
<path fill-rule="evenodd" clip-rule="evenodd" d="M3 5C3 3.89543 3.89543 3 5 3H15C16.1046 3 17 3.89543 17 5V6C17 7.10457 16.1046 8 15 8H5C3.89543 8 3 7.10457 3 6V5ZM15 5H5V6H15V5Z" fill="#7369AB"/>
<path fill-rule="evenodd" clip-rule="evenodd" d="M5.83409 6.34638C6.02404 6.12643 6.30029 6 6.59091 6H13.4091C13.6997 6 13.976 6.12643 14.1659 6.34638L16.5136 9.06481C16.8274 9.42807 17 9.89206 17 10.372V14C17 14.5523 16.5523 15 16 15C15.4477 15 15 14.5523 15 14V10.372L12.9514 8H7.04859L5 10.372V18C5 18.5523 5.44772 19 6 19H16C16.5523 19 17 19.4477 17 20C17 20.5523 16.5523 21 16 21H6C4.34315 21 3 19.6569 3 18V10.372C3 9.89206 3.17262 9.42807 3.48635 9.06481L5.83409 6.34638Z" fill="#7369AB"/>
<path fill-rule="evenodd" clip-rule="evenodd" d="M10 10C10.5523 10 11 10.4477 11 11V12L12 12C12.5523 12 13 12.4477 13 13C13 13.5523 12.5523 14 12 14L11 14L11 15C11 15.5523 10.5523 16 10 16C9.44772 16 9 15.5523 9 15L9 14H8C7.44772 14 7 13.5523 7 13C7 12.4477 7.44772 12 8 12L9 12V11C9 10.4477 9.44772 10 10 10Z" fill="#7369AB"/>
<path fill-rule="evenodd" clip-rule="evenodd" d="M17 15C15.8954 15 15 15.8954 15 17C15 18.1046 15.8954 19 17 19C18.1046 19 19 18.1046 19 17C19 15.8954 18.1046 15 17 15ZM13 17C13 14.7909 14.7909 13 17 13C19.2091 13 21 14.7909 21 17C21 19.2091 19.2091 21 17 21C14.7909 21 13 19.2091 13 17Z" fill="#7369AB"/>
<path fill-rule="evenodd" clip-rule="evenodd" d="M19.0001 13.5359C19.4784 13.812 19.6422 14.4236 19.3661 14.9019L16.3661 20.0981C16.0899 20.5764 15.4784 20.7402 15.0001 20.4641C14.5218 20.188 14.3579 19.5764 14.634 19.0981L17.634 13.9019C17.9102 13.4236 18.5218 13.2598 19.0001 13.5359Z" fill="#7369AB"/>
</svg>
