<svg width="18" height="16" viewBox="0 0 18 16" fill="none" xmlns="http://www.w3.org/2000/svg">
<path fill-rule="evenodd" clip-rule="evenodd" d="M1 0C1.55229 5.96047e-08 2 0.447715 2 1L2 7H4.58579L4.29289 6.70711C3.90237 6.31658 3.90237 5.68342 4.29289 5.29289C4.68342 4.90237 5.31658 4.90237 5.70711 5.29289L7.70711 7.29289C8.09763 7.68342 8.09763 8.31658 7.70711 8.70711L5.70711 10.7071C5.31658 11.0976 4.68342 11.0976 4.29289 10.7071C3.90237 10.3166 3.90237 9.68342 4.29289 9.29289L4.58579 9H2V15C2 15.5523 1.55228 16 1 16C0.447715 16 0 15.5523 0 15L1.2517e-06 1C1.2517e-06 0.447715 0.447717 0 1 0ZM17 0C17.5523 5.96047e-08 18 0.447715 18 1L18 15C18 15.5523 17.5523 16 17 16C16.4477 16 16 15.5523 16 15V9H13.4142L13.7071 9.29289C14.0976 9.68342 14.0976 10.3166 13.7071 10.7071C13.3166 11.0976 12.6834 11.0976 12.2929 10.7071L10.2929 8.70711C9.90237 8.31658 9.90237 7.68342 10.2929 7.29289L12.2929 5.29289C12.6834 4.90237 13.3166 4.90237 13.7071 5.29289C14.0976 5.68342 14.0976 6.31658 13.7071 6.70711L13.4142 7H16L16 1C16 0.447715 16.4477 -1.19209e-07 17 0Z" fill="#7369AB"/>
</svg>
