<svg width="24" height="24" viewBox="0 0 24 24" fill="none" xmlns="http://www.w3.org/2000/svg">
<path fill-rule="evenodd" clip-rule="evenodd" d="M12 16C12.5523 16 13 16.4477 13 17V20H15C15.5523 20 16 20.4477 16 21C16 21.5523 15.5523 22 15 22H9C8.44772 22 8 21.5523 8 21C8 20.4477 8.44772 20 9 20H11V17C11 16.4477 11.4477 16 12 16Z" fill="#7369AB"/>
<path fill-rule="evenodd" clip-rule="evenodd" d="M9 5C9 3.34315 10.3431 2 12 2C13.6569 2 15 3.34315 15 5V11C15 12.6569 13.6569 14 12 14C10.3431 14 9 12.6569 9 11V5ZM12 4C11.4477 4 11 4.44772 11 5V11C11 11.5523 11.4477 12 12 12C12.5523 12 13 11.5523 13 11V5C13 4.44772 12.5523 4 12 4Z" fill="#7369AB"/>
<path fill-rule="evenodd" clip-rule="evenodd" d="M18.0302 11.7979C18.5584 11.9594 18.8556 12.5185 18.6942 13.0466C18.262 14.4603 17.3933 15.7008 16.2127 16.5905C15.0322 17.4801 13.6002 17.9731 12.1222 17.9989C10.6442 18.0247 9.19592 17.582 7.98501 16.7341C6.77409 15.8862 5.86269 14.6767 5.38141 13.279C5.20161 12.7568 5.47917 12.1877 6.00136 12.0079C6.52356 11.8281 7.09264 12.1056 7.27245 12.6278C7.61622 13.6262 8.26722 14.4901 9.13216 15.0958C9.9971 15.7014 11.0316 16.0177 12.0873 15.9992C13.143 15.9808 14.1658 15.6286 15.0091 14.9932C15.8524 14.3577 16.4729 13.4716 16.7816 12.4619C16.943 11.9337 17.5021 11.6365 18.0302 11.7979Z" fill="#7369AB"/>
</svg>
