<svg width="24" height="24" viewBox="0 0 24 24" fill="none" xmlns="http://www.w3.org/2000/svg">
<path fill-rule="evenodd" clip-rule="evenodd" d="M7.07262 12.7678C10.372 11.6776 13.5204 11.8595 16.2047 12.6212C18.6518 13.3157 20.7274 14.4951 22.2184 15.655C23.2508 16.4582 23.2149 17.9145 22.3757 18.7537L21.246 19.8834C20.5233 20.6061 19.3909 20.7182 18.5405 20.1513L15.8865 18.3819C15.29 17.9842 14.9317 17.3148 14.9317 16.5979V14.3585C12.9352 13.8993 10.709 13.828 8.38635 14.4602L8.38635 17.2197C8.38635 17.9729 7.99119 18.6708 7.34536 19.0583L5.38019 20.2374L4.86569 19.3799L5.38019 20.2374C4.53653 20.7436 3.45661 20.6107 2.76091 19.915L1.62615 18.7802C0.763187 17.9172 0.767639 16.4437 1.79529 15.6429C3.55097 14.2748 5.3246 13.3454 7.07262 12.7678L7.28243 13.4028L7.07262 12.7678ZM6.38635 15.1765C5.28175 15.6697 4.15638 16.3385 3.02464 17.2205C3.01373 17.229 3.00946 17.2357 3.00696 17.2407C3.00389 17.2468 3.00062 17.2567 3.00004 17.2707C2.99885 17.2994 3.00918 17.3348 3.04036 17.366L4.17513 18.5007C4.22189 18.5475 4.29449 18.5564 4.3512 18.5224L6.31637 17.3433C6.35979 17.3173 6.38635 17.2704 6.38635 17.2197L6.38635 15.1765ZM16.9317 14.9675V16.5979C16.9317 16.6461 16.9558 16.6911 16.9959 16.7178L19.6499 18.4872C19.7071 18.5253 19.7832 18.5178 19.8318 18.4692L20.9614 17.3395C20.9927 17.3083 21.0006 17.2754 20.9999 17.2549C20.9996 17.2453 20.9975 17.2409 20.9973 17.2405L20.9966 17.2394C20.9962 17.2389 20.9945 17.2369 20.9903 17.2336C19.9423 16.4182 18.5535 15.5842 16.9317 14.9675Z" fill="#7369AB"/>
<path fill-rule="evenodd" clip-rule="evenodd" d="M6 4C6 3.44772 6.44772 3 7 3H10C10.5523 3 11 3.44772 11 4C11 4.55228 10.5523 5 10 5H9.41421L12 7.58579L15.7929 3.79289C16.1834 3.40237 16.8166 3.40237 17.2071 3.79289C17.5976 4.18342 17.5976 4.81658 17.2071 5.20711L13.4142 9C12.6332 9.78105 11.3668 9.78105 10.5858 9L8 6.41421V7C8 7.55228 7.55228 8 7 8C6.44772 8 6 7.55228 6 7V4Z" fill="#7369AB"/>
</svg>
