<svg width="24" height="24" viewBox="0 0 24 24" fill="none" xmlns="http://www.w3.org/2000/svg">
<path fill-rule="evenodd" clip-rule="evenodd" d="M5 6C5 3.79086 6.79086 2 9 2H15C17.2091 2 19 3.79086 19 6V18C19 20.2091 17.2091 22 15 22H9C6.79086 22 5 20.2091 5 18V6ZM9 4C7.89543 4 7 4.89543 7 6V18C7 19.1046 7.89543 20 9 20H15C16.1046 20 17 19.1046 17 18V6C17 4.89543 16.1046 4 15 4H9ZM10 17C10 16.4477 10.4477 16 11 16H13C13.5523 16 14 16.4477 14 17C14 17.5523 13.5523 18 13 18H11C10.4477 18 10 17.5523 10 17Z" fill="#7369AB"/>
</svg>
