<svg width="24" height="24" viewBox="0 0 24 24" fill="none" xmlns="http://www.w3.org/2000/svg">
<path fill-rule="evenodd" clip-rule="evenodd" d="M1 6C1 5.44772 1.44772 5 2 5H22C22.5523 5 23 5.44772 23 6V18C23 18.5523 22.5523 19 22 19H2C1.44772 19 1 18.5523 1 18V6ZM3 7V17H21V7H3Z" fill="#7369AB"/>
<path fill-rule="evenodd" clip-rule="evenodd" d="M17 6C17 5.44772 17.4477 5 18 5L22 5C22.5523 5 23 5.44772 23 6V10C23 10.5523 22.5523 11 22 11C21.3434 11 20.6932 10.8707 20.0866 10.6194C19.48 10.3681 18.9288 9.99983 18.4645 9.53553C18.0002 9.07124 17.6319 8.52005 17.3806 7.91342C17.1293 7.30679 17 6.65661 17 6ZM19.1716 7C19.1892 7.04979 19.2081 7.09915 19.2284 7.14805C19.3791 7.51203 19.6001 7.84274 19.8787 8.12132C20.1573 8.3999 20.488 8.62087 20.8519 8.77164C20.9008 8.79189 20.9502 8.81083 21 8.82843L21 7L19.1716 7Z" fill="#7369AB"/>
<path fill-rule="evenodd" clip-rule="evenodd" d="M21 15.1716C20.5821 15.3193 20.1981 15.5593 19.8787 15.8787C19.5593 16.1981 19.3193 16.5821 19.1716 17L21 17V15.1716ZM18.4645 14.4645C19.4021 13.5268 20.6739 13 22 13C22.2652 13 22.5196 13.1054 22.7071 13.2929C22.8946 13.4804 23 13.7348 23 14V18C23 18.2652 22.8946 18.5196 22.7071 18.7071C22.5196 18.8946 22.2652 19 22 19L18 19C17.7348 19 17.4804 18.8946 17.2929 18.7071C17.1054 18.5196 17 18.2652 17 18C17 16.6739 17.5268 15.4021 18.4645 14.4645Z" fill="#7369AB"/>
<path fill-rule="evenodd" clip-rule="evenodd" d="M1 14C1 13.4477 1.44772 13 2 13C3.32608 13 4.59785 13.5268 5.53553 14.4645C6.47322 15.4021 7 16.6739 7 18C7 18.2652 6.89464 18.5196 6.70711 18.7071C6.51957 18.8946 6.26522 19 6 19L2 19C1.73478 19 1.48043 18.8946 1.29289 18.7071C1.10536 18.5196 1 18.2652 1 18V14ZM3 15.1716V17L4.82843 17C4.68067 16.5821 4.44072 16.1981 4.12132 15.8787C3.80192 15.5593 3.4179 15.3193 3 15.1716Z" fill="#7369AB"/>
<path fill-rule="evenodd" clip-rule="evenodd" d="M1.29289 5.29289C1.48043 5.10536 1.73478 5 2 5H6C6.26522 5 6.51957 5.10536 6.70711 5.29289C6.89464 5.48043 7 5.73478 7 6C7 7.32608 6.47322 8.59785 5.53553 9.53553C4.59785 10.4732 3.32608 11 2 11C1.73479 11 1.48043 10.8946 1.29289 10.7071C1.10536 10.5196 1 10.2652 1 10L1 6C1 5.73478 1.10536 5.48043 1.29289 5.29289ZM3 7L3 8.82843C3.4179 8.68067 3.80192 8.44072 4.12132 8.12132C4.44073 7.80192 4.68067 7.4179 4.82843 7H3Z" fill="#7369AB"/>
<path fill-rule="evenodd" clip-rule="evenodd" d="M12 11C11.4477 11 11 11.4477 11 12C11 12.5523 11.4477 13 12 13C12.5523 13 13 12.5523 13 12C13 11.4477 12.5523 11 12 11ZM9 12C9 10.3431 10.3431 9 12 9C13.6569 9 15 10.3431 15 12C15 13.6569 13.6569 15 12 15C10.3431 15 9 13.6569 9 12Z" fill="#7369AB"/>
</svg>
