<svg width="32" height="32" viewBox="0 0 32 32" fill="none" xmlns="http://www.w3.org/2000/svg">
<path d="M5.27837 25.9628C6.33496 25.9628 7.1915 25.1063 7.1915 24.0497C7.1915 22.9931 6.33496 22.1365 5.27837 22.1365C4.22177 22.1365 3.36523 22.9931 3.36523 24.0497C3.36523 25.1063 4.22177 25.9628 5.27837 25.9628Z" fill="#3C0040"/>
<path d="M5.27845 26.3281C4.02232 26.3281 3 25.3058 3 24.0496C3 22.7935 4.02232 21.7712 5.27845 21.7712C6.53457 21.7712 7.55689 22.7935 7.55689 24.0496C7.55689 25.3058 6.53457 26.3281 5.27845 26.3281ZM5.27845 22.5018C4.42473 22.5018 3.73063 23.1959 3.73063 24.0496C3.73063 24.9033 4.42473 25.5974 5.27845 25.5974C6.13216 25.5974 6.82626 24.9033 6.82626 24.0496C6.82626 23.1959 6.1316 22.5018 5.27845 22.5018Z" fill="#09090D"/>
<path d="M19.3194 0.36537H10.0106C7.46966 0.36537 5.4104 2.42518 5.4104 4.96553V27.034C5.4104 29.5749 7.47022 31.6342 10.0106 31.6342H23.2912C25.8321 31.6342 27.8914 29.5743 27.8914 27.034V8.9368L19.3194 0.364807V0.36537Z" fill="white"/>
<path d="M23.2913 31.9995H10.0107C7.27247 31.9995 5.04517 29.7722 5.04517 27.034V4.96554C5.04517 2.22736 7.27247 6.10352e-05 10.0107 6.10352e-05H19.3195C19.4161 6.10352e-05 19.5094 0.0382732 19.578 0.10684L28.15 8.67884C28.2186 8.74741 28.2568 8.84014 28.2568 8.93737V27.0346C28.2568 29.7728 26.0295 32.0001 23.2913 32.0001V31.9995ZM10.0107 0.730693C7.67544 0.730693 5.7758 2.63033 5.7758 4.96554V27.034C5.7758 29.3692 7.67544 31.2689 10.0107 31.2689H23.2913C25.6265 31.2689 27.5262 29.3692 27.5262 27.034V9.08856L19.1683 0.730693H10.0107Z" fill="#09090D"/>
<path d="M19.3193 0.365356L27.8913 8.93735H21.1476C20.1382 8.93735 19.3193 8.11905 19.3193 7.10909V0.365356Z" fill="#E4E4EB"/>
<path d="M27.8925 9.30268H21.1477C19.9382 9.30268 18.9541 8.31859 18.9541 7.10911V0.365375C18.9541 0.217563 19.0429 0.0843631 19.1795 0.0281606C19.316 -0.0286039 19.4728 0.00286452 19.5774 0.107401L28.1325 8.66254C28.209 8.72942 28.2573 8.82777 28.2573 8.93736C28.2573 9.13913 28.0937 9.30268 27.892 9.30268H27.8925ZM19.6847 1.24719V7.10911C19.6847 7.91562 20.3406 8.57205 21.1477 8.57205H27.0096L19.6853 1.24775L19.6847 1.24719Z" fill="#09090D"/>
<path d="M5.45284 13.0176C4.31642 13.0176 3.39526 13.9388 3.39526 15.0752V23.6916H3.43292C3.61614 22.7429 4.45018 22.0258 5.45284 22.0258H26.1736V13.0176H5.45284Z" fill="#3C0040"/>
<path d="M3.43276 24.0564H3.3951C3.19333 24.0564 3.02979 23.8928 3.02979 23.6911V15.0747C3.02979 13.7388 4.11674 12.6518 5.45267 12.6518H26.1734C26.3752 12.6518 26.5387 12.8153 26.5387 13.0171V22.0252C26.5387 22.227 26.3752 22.3906 26.1734 22.3906H5.45267C4.64336 22.3906 3.94476 22.9666 3.79133 23.7602C3.75817 23.9322 3.60755 24.0564 3.43276 24.0564ZM5.45267 13.383C4.51971 13.383 3.76042 14.1423 3.76042 15.0753V22.3501C4.20104 21.9207 4.80185 21.6605 5.45267 21.6605H25.8081V13.383H5.45267Z" fill="#09090D"/>
<path d="M7.52473 15.2933C7.52473 15.1483 7.6495 15.0235 7.7945 15.0235H7.85689C7.97435 15.0235 8.05753 15.0859 8.11261 15.1685L9.84196 17.7696L11.5713 15.1685C11.6264 15.0786 11.7169 15.0235 11.827 15.0235H11.8894C12.035 15.0235 12.1592 15.1483 12.1592 15.2933V19.6445C12.1592 19.7968 12.0344 19.921 11.8894 19.921C11.7444 19.921 11.6129 19.7895 11.6129 19.6445V16.0335L10.0634 18.3097C10.001 18.3996 9.93188 18.4479 9.83522 18.4479C9.73855 18.4479 9.66211 18.3996 9.59973 18.3097L8.05697 16.0408V19.6518C8.05697 19.8041 7.93951 19.9216 7.7872 19.9216C7.63489 19.9216 7.52417 19.8041 7.52417 19.6518V15.2933H7.52473Z" fill="white"/>
<path d="M13.3152 17.4795V17.4655C13.3152 16.1301 14.3184 14.9611 15.792 14.9611C17.2657 14.9611 18.2548 16.1166 18.2548 17.4514V17.4655C18.2548 18.8009 17.2516 19.9699 15.778 19.9699C14.3043 19.9699 13.3152 18.8144 13.3152 17.4795ZM17.6877 17.4795V17.4655C17.6877 16.3656 16.8852 15.4664 15.7785 15.4664C14.6719 15.4664 13.8828 16.3521 13.8828 17.452V17.4661C13.8828 18.5659 14.6854 19.4652 15.792 19.4652C16.8987 19.4652 17.6877 18.5794 17.6877 17.4795Z" fill="white"/>
<path d="M20.7184 19.7142L18.8508 15.404C18.83 15.3624 18.8232 15.3281 18.8232 15.2792C18.8232 15.141 18.948 15.0095 19.0998 15.0095C19.238 15.0095 19.3352 15.0994 19.3836 15.2169L21.0579 19.2292L22.7389 15.2028C22.7872 15.1062 22.8839 15.0089 23.0086 15.0089C23.161 15.0089 23.2784 15.1337 23.2784 15.2719C23.2784 15.3135 23.2717 15.3478 23.2576 15.3827L21.3827 19.7136C21.3203 19.8519 21.2237 19.9418 21.0646 19.9418H21.0371C20.878 19.9418 20.774 19.8519 20.719 19.7136L20.7184 19.7142Z" fill="white"/>
</svg>
