<svg width="24" height="24" viewBox="0 0 24 24" fill="none" xmlns="http://www.w3.org/2000/svg">
<path fill-rule="evenodd" clip-rule="evenodd" d="M13 4C13 3.44772 13.4477 3 14 3H20C20.5523 3 21 3.44772 21 4V10C21 10.5523 20.5523 11 20 11H14C13.4477 11 13 10.5523 13 10V4ZM15 5V9H19V5H15Z" fill="#7369AB"/>
<path fill-rule="evenodd" clip-rule="evenodd" d="M13 14C13 13.4477 13.4477 13 14 13H20C20.5523 13 21 13.4477 21 14V20C21 20.5523 20.5523 21 20 21H14C13.4477 21 13 20.5523 13 20V14ZM15 15V19H19V15H15Z" fill="#7369AB"/>
<path fill-rule="evenodd" clip-rule="evenodd" d="M5.05025 8.42354C3.7375 9.7363 3 11.5168 3 13.3733C3 15.2298 3.7375 17.0103 5.05025 18.323C6.36301 19.6358 8.14349 20.3733 10 20.3733C10.5523 20.3733 11 19.9256 11 19.3733C11 18.821 10.5523 18.3733 10 18.3733C8.67392 18.3733 7.40215 17.8465 6.46447 16.9088C5.52679 15.9711 5 14.6994 5 13.3733C5 12.0472 5.52678 10.7754 6.46447 9.83776C7.40215 8.90008 8.67392 8.37329 10 8.37329C10.5523 8.37329 11 7.92557 11 7.37329C11 6.82101 10.5523 6.37329 10 6.37329C8.14348 6.37329 6.36301 7.11079 5.05025 8.42354Z" fill="#7369AB"/>
<path fill-rule="evenodd" clip-rule="evenodd" d="M7.52672 5.04999C7.25347 5.52995 7.42105 6.14054 7.90101 6.41378L9.56162 7.35917L8.61623 9.01978C8.34299 9.49974 8.51057 10.1103 8.99052 10.3836C9.47048 10.6568 10.0811 10.4892 10.3543 10.0093L11.7944 7.47962C12.0677 6.99967 11.9001 6.38908 11.4202 6.11584L8.8905 4.6757C8.41054 4.40246 7.79996 4.57004 7.52672 5.04999Z" fill="#7369AB"/>
</svg>
