<svg width="24" height="24" viewBox="0 0 24 24" fill="none" xmlns="http://www.w3.org/2000/svg">
<path fill-rule="evenodd" clip-rule="evenodd" d="M13 4C13 3.44772 13.4477 3 14 3H20C20.5523 3 21 3.44772 21 4V10C21 10.5523 20.5523 11 20 11H14C13.4477 11 13 10.5523 13 10V4ZM15 5V9H19V5H15Z" fill="#7369AB"/>
<path fill-rule="evenodd" clip-rule="evenodd" d="M13 14C13 13.4477 13.4477 13 14 13H20C20.5523 13 21 13.4477 21 14V20C21 20.5523 20.5523 21 20 21H14C13.4477 21 13 20.5523 13 20V14ZM15 15V19H19V15H15Z" fill="#7369AB"/>
<path fill-rule="evenodd" clip-rule="evenodd" d="M5.05025 15.9497C3.7375 14.637 3 12.8565 3 11C3 9.14348 3.7375 7.36301 5.05025 6.05025C6.36301 4.7375 8.14348 4 10 4C10.5523 4 11 4.44771 11 5C11 5.55229 10.5523 6 10 6C8.67392 6 7.40215 6.52678 6.46447 7.46447C5.52678 8.40215 5 9.67392 5 11C5 12.3261 5.52678 13.5979 6.46447 14.5355C7.40215 15.4732 8.67392 16 10 16C10.5523 16 11 16.4477 11 17C11 17.5523 10.5523 18 10 18C8.14348 18 6.36301 17.2625 5.05025 15.9497Z" fill="#7369AB"/>
<path fill-rule="evenodd" clip-rule="evenodd" d="M7.52684 19.3233C7.2536 18.8433 7.42117 18.2328 7.90113 17.9595L9.56174 17.0141L8.61635 15.3535C8.34311 14.8736 8.51069 14.263 8.99064 13.9897C9.4706 13.7165 10.0812 13.8841 10.3544 14.364L11.7946 16.8937C12.0678 17.3736 11.9002 17.9842 11.4203 18.2575L8.89062 19.6976C8.41066 19.9708 7.80008 19.8033 7.52684 19.3233Z" fill="#7369AB"/>
</svg>
