<svg width="32" height="32" viewBox="0 0 32 32" fill="none" xmlns="http://www.w3.org/2000/svg">
<path d="M7.26704 24.7817C7.67137 23.8056 7.20783 22.6865 6.23168 22.2821C5.25554 21.8778 4.13644 22.3413 3.73211 23.3175C3.32778 24.2936 3.79132 25.4127 4.76747 25.8171C5.74361 26.2214 6.86271 25.7579 7.26704 24.7817Z" fill="#3C0040"/>
<path d="M5.49959 26.3282C4.24349 26.3282 3.22119 25.3059 3.22119 24.0498C3.22119 22.7937 4.24349 21.7714 5.49959 21.7714C6.75569 21.7714 7.77799 22.7937 7.77799 24.0498C7.77799 25.3059 6.75569 26.3282 5.49959 26.3282ZM5.49959 22.5015C4.6459 22.5015 3.95181 23.1956 3.95181 24.0493C3.95181 24.903 4.6459 25.597 5.49959 25.597C6.35329 25.597 7.04737 24.903 7.04737 24.0493C7.04737 23.1956 6.35329 22.5015 5.49959 22.5015Z" fill="#09090D"/>
<path d="M19.5405 0.365492H10.2319C7.69105 0.365492 5.63184 2.42527 5.63184 4.96556V27.0335C5.63184 29.5744 7.69161 31.6336 10.2319 31.6336H23.5123C26.0531 31.6336 28.1123 29.5738 28.1123 27.0335V8.93675L19.5405 0.364929V0.365492Z" fill="white"/>
<path d="M23.5116 31.9994H10.2312C7.49312 31.9994 5.26587 29.7722 5.26587 27.034V4.96605C5.26587 2.22793 7.49312 0.000671387 10.2312 0.000671387H19.5399C19.6365 0.000671387 19.7298 0.0388862 19.7984 0.107452L28.3696 8.67927C28.4382 8.74783 28.4764 8.84056 28.4764 8.93779V27.0346C28.4764 29.7727 26.2492 32 23.511 32L23.5116 31.9994ZM10.2318 0.730725C7.89665 0.730725 5.99705 2.63033 5.99705 4.96549V27.0335C5.99705 29.3686 7.89665 31.2682 10.2318 31.2682H23.5122C25.8473 31.2682 27.7469 29.3686 27.7469 27.0335V9.08841L19.3892 0.730725H10.2318Z" fill="#09090D"/>
<path d="M19.5403 0.365479L28.1121 8.93729H21.3685C20.3591 8.93729 19.5403 8.119 19.5403 7.10907V0.365479Z" fill="#E4E4EB"/>
<path d="M28.1133 9.30256C28.1133 9.30256 28.1127 9.30256 28.1122 9.30256H21.3686C20.1591 9.30256 19.175 8.31847 19.175 7.10902V0.365435C19.175 0.217626 19.2638 0.0844284 19.4004 0.0276652C19.537 -0.0285361 19.6938 0.00237309 19.7983 0.106907L28.3533 8.66186C28.4297 8.72874 28.478 8.8271 28.478 8.93669C28.478 9.13845 28.3145 9.302 28.1127 9.302L28.1133 9.30256ZM19.9057 1.24723V7.10902C19.9057 7.91551 20.5615 8.57194 21.3686 8.57194H27.2304L19.9062 1.24779L19.9057 1.24723Z" fill="#09090D"/>
<path d="M5.67398 13.0175C4.53759 13.0175 3.61646 13.9387 3.61646 15.075V23.6913H3.65411C3.83732 22.7426 4.67135 22.0255 5.67398 22.0255H26.3943V13.0175H5.67398Z" fill="#3C0040"/>
<path d="M3.65418 24.0565H3.61653C3.41477 24.0565 3.25122 23.893 3.25122 23.6912V15.075C3.25122 13.7391 4.33815 12.6522 5.67406 12.6522H26.3943C26.5961 12.6522 26.7596 12.8157 26.7596 13.0175V22.0254C26.7596 22.2272 26.5961 22.3907 26.3943 22.3907H5.67406C4.86476 22.3907 4.16561 22.9668 4.01274 23.7603C3.97958 23.9323 3.82897 24.0565 3.65418 24.0565ZM5.67406 13.3828C4.74112 13.3828 3.98184 14.1421 3.98184 15.075V22.3497C4.42245 21.9203 5.02325 21.6601 5.67406 21.6601H26.029V13.3828H5.67406Z" fill="#09090D"/>
<path d="M8.64014 15.2588C8.64014 15.1132 8.76434 14.989 8.9099 14.989H8.97228C9.08974 14.989 9.17292 15.0514 9.228 15.134L10.9573 17.735L12.6866 15.134C12.7417 15.0441 12.8316 14.989 12.9423 14.989H13.0047C13.1497 14.989 13.2745 15.1138 13.2745 15.2588V19.6104C13.2745 19.7627 13.1497 19.887 13.0047 19.887C12.8597 19.887 12.7282 19.7554 12.7282 19.6104V15.9995L11.1787 18.2757C11.1164 18.3656 11.0472 18.4139 10.9506 18.4139C10.8539 18.4139 10.7775 18.3656 10.7156 18.2757L9.17292 16.0068V19.6177C9.17292 19.7701 9.05546 19.8875 8.90315 19.8875C8.75085 19.8875 8.64014 19.7701 8.64014 19.6177V15.2593V15.2588Z" fill="white"/>
<path d="M14.6455 15.2863C14.6455 15.134 14.7697 15.0098 14.9153 15.0098H16.458C17.5511 15.0098 18.2705 15.5909 18.2705 16.5458V16.5599C18.2705 17.6046 17.3988 18.1442 16.3681 18.1442H15.1918V19.611C15.1918 19.7633 15.0676 19.8875 14.9153 19.8875C14.763 19.8875 14.6455 19.7628 14.6455 19.611V15.2875V15.2863ZM16.3889 17.6457C17.1914 17.6457 17.7169 17.2169 17.7169 16.5801V16.566C17.7169 15.8742 17.1982 15.5145 16.4164 15.5145H15.1918V17.6451H16.3883L16.3889 17.6457Z" fill="white"/>
<path d="M21.5704 18.7039H19.1627C19.0037 18.7039 18.8862 18.5932 18.8862 18.4409C18.8862 18.3442 18.9211 18.2678 18.9902 18.1779L21.5086 15.1065C21.5918 15.0025 21.6676 14.9407 21.8132 14.9407C21.979 14.9407 22.1038 15.0654 22.1038 15.2245V18.2476H22.65C22.7742 18.2476 22.8849 18.3515 22.8849 18.483C22.8849 18.6078 22.7742 18.7045 22.65 18.7045H22.1038V19.6245C22.1038 19.7695 21.9863 19.8875 21.834 19.8875C21.6817 19.8875 21.571 19.77 21.571 19.6245V18.7045L21.5704 18.7039ZM21.5704 18.2476V15.75L19.5365 18.2476H21.5704Z" fill="white"/>
</svg>
