<svg width="32" height="32" viewBox="0 0 32 32" fill="none" xmlns="http://www.w3.org/2000/svg">
<path d="M7.05828 25.4026C7.80539 24.6555 7.80538 23.4442 7.05827 22.6971C6.31117 21.95 5.09987 21.95 4.35276 22.6971C3.60565 23.4442 3.60565 24.6555 4.35276 25.4026C5.09987 26.1497 6.31118 26.1497 7.05828 25.4026Z" fill="#3C0040"/>
<path d="M5.70516 26.3282C4.44906 26.3282 3.42676 25.3059 3.42676 24.0498C3.42676 22.7937 4.44906 21.7714 5.70516 21.7714C6.96126 21.7714 7.98355 22.7937 7.98355 24.0498C7.98355 25.3059 6.96126 26.3282 5.70516 26.3282ZM5.70516 22.502C4.85146 22.502 4.15737 23.1961 4.15737 24.0498C4.15737 24.9035 4.85146 25.5976 5.70516 25.5976C6.55886 25.5976 7.25293 24.9035 7.25293 24.0498C7.25293 23.1961 6.55886 22.502 5.70516 22.502Z" fill="#09090D"/>
<path d="M19.7458 0.365492H10.4372C7.89638 0.365492 5.83716 2.42527 5.83716 4.96556V27.0335C5.83716 29.5744 7.89694 31.6336 10.4372 31.6336H23.7176C26.2585 31.6336 28.3177 29.5738 28.3177 27.0335V8.93674L19.7458 0.364929V0.365492Z" fill="white"/>
<path d="M23.7177 31.9994H10.4373C7.69919 31.9994 5.47192 29.7722 5.47192 27.034V4.96606C5.47192 2.22793 7.69919 0.000671387 10.4373 0.000671387H19.7459C19.8426 0.000671387 19.9359 0.0388896 20.0045 0.107455L28.5757 8.67927C28.6443 8.74784 28.6825 8.84057 28.6825 8.9378V27.0346C28.6825 29.7727 26.4552 32 23.7171 32L23.7177 31.9994ZM10.4373 0.730732C8.10215 0.730732 6.20254 2.63033 6.20254 4.9655V27.0335C6.20254 29.3686 8.10215 31.2682 10.4373 31.2682H23.7177C26.0528 31.2682 27.9524 29.3686 27.9524 27.0335V9.08842L19.5947 0.730732H10.4373Z" fill="#09090D"/>
<path d="M19.7458 0.365479L28.3177 8.93729H21.5741C20.5647 8.93729 19.7458 8.119 19.7458 7.10907V0.365479Z" fill="#E4E4EB"/>
<path d="M28.3189 9.30256C28.3189 9.30256 28.3183 9.30256 28.3177 9.30256H21.5742C20.3647 9.30256 19.3806 8.31848 19.3806 7.10903V0.365436C19.3806 0.217627 19.4694 0.0844293 19.606 0.0276661C19.7426 -0.0285352 19.8994 0.00237054 20.0039 0.106905L28.5588 8.66187C28.6353 8.72875 28.6836 8.82709 28.6836 8.93668C28.6836 9.13845 28.5201 9.30199 28.3183 9.30199L28.3189 9.30256ZM20.1112 1.24779V7.10959C20.1112 7.91608 20.7671 8.5725 21.5742 8.5725H27.4359L20.1118 1.24836L20.1112 1.24779Z" fill="#09090D"/>
<path d="M5.87954 13.0175C4.74315 13.0175 3.82202 13.9386 3.82202 15.075V23.6912H3.85967C4.04289 22.7425 4.87691 22.0254 5.87954 22.0254H26.5998V13.0175H5.87954Z" fill="#3C0040"/>
<path d="M3.85975 24.0565H3.8221C3.62033 24.0565 3.45679 23.893 3.45679 23.6912V15.075C3.45679 13.7391 4.54371 12.6522 5.87962 12.6522H26.5999C26.8017 12.6522 26.9652 12.8157 26.9652 13.0175V22.0254C26.9652 22.2272 26.8017 22.3907 26.5999 22.3907H5.87962C5.07032 22.3907 4.37173 22.9668 4.2183 23.7603C4.18514 23.9323 4.03453 24.0565 3.85975 24.0565ZM5.87962 13.3828C4.94667 13.3828 4.1874 14.1421 4.1874 15.075V22.3497C4.62802 21.9203 5.22881 21.6601 5.87962 21.6601H26.2346V13.3828H5.87962Z" fill="#09090D"/>
<path d="M8.52319 15.2836C8.52319 15.1386 8.6474 15.0138 8.79296 15.0138H8.85534C8.9728 15.0138 9.05598 15.0762 9.11106 15.1588L10.8404 17.7598L12.5697 15.1588C12.6248 15.0689 12.7147 15.0138 12.8254 15.0138H12.8878C13.0328 15.0138 13.1575 15.1386 13.1575 15.2836V19.6347C13.1575 19.787 13.0328 19.9112 12.8878 19.9112C12.7428 19.9112 12.6113 19.7797 12.6113 19.6347V16.0237L11.0618 18.2999C10.9994 18.3898 10.9303 18.4381 10.8336 18.4381C10.737 18.4381 10.6605 18.3898 10.5987 18.2999L9.05598 16.031V19.642C9.05598 19.7943 8.93852 19.9117 8.78621 19.9117C8.63391 19.9117 8.52319 19.7943 8.52319 19.642V15.2836Z" fill="white"/>
<path d="M14.5286 15.3111C14.5286 15.1588 14.6528 15.0345 14.7983 15.0345H16.3411C17.4342 15.0345 18.1535 15.6157 18.1535 16.5705V16.5846C18.1535 17.6294 17.2819 18.1689 16.2511 18.1689H15.0748V19.6357C15.0748 19.788 14.9506 19.9123 14.7983 19.9123C14.646 19.9123 14.5286 19.7875 14.5286 19.6357V15.3122V15.3111ZM16.2719 17.6704C17.0745 17.6704 17.6 17.2416 17.6 16.6048V16.5908C17.6 15.8989 17.0812 15.5392 16.2995 15.5392H15.0748V17.6698H16.2714L16.2719 17.6704Z" fill="white"/>
<path d="M18.9355 17.4697V17.4557C18.9355 16.1277 19.9112 14.9514 21.364 14.9514C22.0974 14.9514 22.5746 15.1452 23.0174 15.4701C23.0798 15.5184 23.1282 15.5949 23.1282 15.6915C23.1282 15.8438 23.0034 15.968 22.8584 15.968C22.796 15.968 22.7409 15.9405 22.6853 15.8989C22.3391 15.6359 21.9519 15.456 21.3432 15.456C20.2709 15.456 19.5032 16.362 19.5032 17.4416V17.4557C19.5032 18.6112 20.2433 19.4688 21.4196 19.4688C21.9732 19.4688 22.4852 19.2541 22.8168 18.9844V17.7805H21.5163C21.3848 17.7805 21.2741 17.6698 21.2741 17.5383C21.2741 17.4 21.3848 17.2893 21.5163 17.2893H23.0731C23.2181 17.2893 23.3428 17.4141 23.3428 17.5658V19.0394C23.3428 19.1709 23.2805 19.2884 23.1563 19.3716C22.7134 19.697 22.1188 19.9594 21.3989 19.9594C19.8769 19.9594 18.9361 18.8523 18.9361 17.4692L18.9355 17.4697Z" fill="white"/>
</svg>
