<svg width="24" height="24" viewBox="0 0 24 24" fill="none" xmlns="http://www.w3.org/2000/svg">
<path fill-rule="evenodd" clip-rule="evenodd" d="M12 10.75C11.3096 10.75 10.75 11.3096 10.75 12C10.75 12.6904 11.3096 13.25 12 13.25C12.6904 13.25 13.25 12.6904 13.25 12C13.25 11.3096 12.6904 10.75 12 10.75ZM8.75 12C8.75 10.2051 10.2051 8.75 12 8.75C13.7949 8.75 15.25 10.2051 15.25 12C15.25 13.7949 13.7949 15.25 12 15.25C10.2051 15.25 8.75 13.7949 8.75 12Z" fill="#7369AB"/>
<path fill-rule="evenodd" clip-rule="evenodd" d="M12 6.25C8.82436 6.25 6.25 8.82436 6.25 12C6.25 15.1756 8.82436 17.75 12 17.75C15.1756 17.75 17.75 15.1756 17.75 12C17.75 8.82436 15.1756 6.25 12 6.25ZM4.25 12C4.25 7.71979 7.71979 4.25 12 4.25C16.2802 4.25 19.75 7.71979 19.75 12C19.75 16.2802 16.2802 19.75 12 19.75C7.71979 19.75 4.25 16.2802 4.25 12Z" fill="#7369AB"/>
<path fill-rule="evenodd" clip-rule="evenodd" d="M12 2C12.5523 2 13 2.44772 13 3V5.25C13 5.80228 12.5523 6.25 12 6.25C11.4477 6.25 11 5.80228 11 5.25V3C11 2.44772 11.4477 2 12 2Z" fill="#7369AB"/>
<path fill-rule="evenodd" clip-rule="evenodd" d="M17.75 12C17.75 11.4477 18.1977 11 18.75 11H21C21.5523 11 22 11.4477 22 12C22 12.5523 21.5523 13 21 13H18.75C18.1977 13 17.75 12.5523 17.75 12Z" fill="#7369AB"/>
<path fill-rule="evenodd" clip-rule="evenodd" d="M12 17.75C12.5523 17.75 13 18.1977 13 18.75V21C13 21.5523 12.5523 22 12 22C11.4477 22 11 21.5523 11 21V18.75C11 18.1977 11.4477 17.75 12 17.75Z" fill="#7369AB"/>
<path fill-rule="evenodd" clip-rule="evenodd" d="M2 12C2 11.4477 2.44772 11 3 11H5.25C5.80228 11 6.25 11.4477 6.25 12C6.25 12.5523 5.80228 13 5.25 13H3C2.44772 13 2 12.5523 2 12Z" fill="#7369AB"/>
</svg>
