<svg width="24" height="24" viewBox="0 0 24 24" fill="none" xmlns="http://www.w3.org/2000/svg">
<path fill-rule="evenodd" clip-rule="evenodd" d="M12.8943 6.02493C12.5258 5.28787 11.474 5.28788 11.1055 6.02492L5.3648 17.5063C4.94652 18.3429 5.80317 19.2446 6.66004 18.8697L11.1983 16.8842C11.7093 16.6606 12.2905 16.6606 12.8016 16.8842L17.3398 18.8697C18.1967 19.2446 19.0533 18.3429 18.635 17.5063L12.8943 6.02493ZM9.31664 5.13049C10.4222 2.91935 13.5776 2.91936 14.6832 5.1305L20.4239 16.6119C21.6787 19.1215 19.1088 21.8266 16.5382 20.702L11.9999 18.7165L7.46168 20.702C4.89104 21.8267 2.32112 19.1215 3.57595 16.6119L9.31664 5.13049Z" fill="#7369AB"/>
</svg>
