<svg width="24" height="24" viewBox="0 0 24 24" fill="none" xmlns="http://www.w3.org/2000/svg">
<path fill-rule="evenodd" clip-rule="evenodd" d="M3 7C3 4.79086 4.79086 3 7 3H17C19.2091 3 21 4.79086 21 7V14C21 14.2791 20.8834 14.5455 20.6783 14.7348L14.1783 20.7348C13.9936 20.9053 13.7514 21 13.5 21H7C4.79086 21 3 19.2091 3 17V7ZM7 5C5.89543 5 5 5.89543 5 7V17C5 18.1046 5.89543 19 7 19H12.5V16C12.5 14.3431 13.8431 13 15.5 13H19V7C19 5.89543 18.1046 5 17 5H7ZM17.4424 15H15.5C14.9477 15 14.5 15.4477 14.5 16V17.716L17.4424 15Z" fill="#7369AB"/>
</svg>
