<svg width="24" height="24" viewBox="0 0 24 24" fill="none" xmlns="http://www.w3.org/2000/svg">
<path fill-rule="evenodd" clip-rule="evenodd" d="M2 6C2 3.79086 3.79086 2 6 2H18C20.2091 2 22 3.79086 22 6V18C22 20.2091 20.2091 22 18 22H6C3.79086 22 2 20.2091 2 18V6ZM6 4C4.89543 4 4 4.89543 4 6V18C4 19.1046 4.89543 20 6 20H18C19.1046 20 20 19.1046 20 18V6C20 4.89543 19.1046 4 18 4H6Z" fill="#7369AB"/>
<path fill-rule="evenodd" clip-rule="evenodd" d="M9 2C9.55228 2 10 2.44772 10 3V7.13148L11.4453 6.16795C11.7812 5.94402 12.2188 5.94402 12.5547 6.16795L14 7.13148V3C14 2.44772 14.4477 2 15 2C15.5523 2 16 2.44772 16 3V9C16 9.3688 15.797 9.70766 15.4719 9.88167C15.1467 10.0557 14.7522 10.0366 14.4453 9.83205L12 8.20185L9.5547 9.83205C9.24784 10.0366 8.8533 10.0557 8.52814 9.88167C8.20298 9.70766 8 9.3688 8 9V3C8 2.44772 8.44772 2 9 2Z" fill="#7369AB"/>
</svg>
