<svg width="24" height="24" viewBox="0 0 24 24" fill="none" xmlns="http://www.w3.org/2000/svg">
<g id="Password 2">
<path id="Rectangle 17 (Stroke)" fill-rule="evenodd" clip-rule="evenodd" d="M2 6C2 4.34315 3.34315 3 5 3H19C20.6569 3 22 4.34315 22 6V8.5C22 9.05228 21.5523 9.5 21 9.5C20.4477 9.5 20 9.05228 20 8.5V6C20 5.44772 19.5523 5 19 5H5C4.44772 5 4 5.44772 4 6V11C4 11.5523 4.44772 12 5 12H10.875C11.4273 12 11.875 12.4477 11.875 13C11.875 13.5523 11.4273 14 10.875 14H5C3.34315 14 2 12.6569 2 11V6ZM14 12C14 10.3431 15.3431 9 17 9C18.6569 9 20 10.3431 20 12V13C21.1046 13 22 13.8954 22 15V19C22 20.1046 21.1046 21 20 21H14C12.8954 21 12 20.1046 12 19V15C12 13.8954 12.8954 13 14 13V12ZM14 15V19H20V15H14ZM18 13H16V12C16 11.4477 16.4477 11 17 11C17.5523 11 18 11.4477 18 12V13Z" fill="#7369AB"/>
<path id="Ellipse 11" d="M9 8.5C9 9.32843 8.32843 10 7.5 10C6.67157 10 6 9.32843 6 8.5C6 7.67157 6.67157 7 7.5 7C8.32843 7 9 7.67157 9 8.5Z" fill="#7369AB"/>
<path id="Ellipse 12" d="M13.5 8.5C13.5 9.32843 12.8284 10 12 10C11.1716 10 10.5 9.32843 10.5 8.5C10.5 7.67157 11.1716 7 12 7C12.8284 7 13.5 7.67157 13.5 8.5Z" fill="#7369AB"/>
</g>
</svg>
