<svg width="24" height="24" viewBox="0 0 24 24" fill="none" xmlns="http://www.w3.org/2000/svg">
<g id="Password Key">
<path id="Rectangle 17 (Stroke)" fill-rule="evenodd" clip-rule="evenodd" d="M2 6C2 4.34315 3.34315 3 5 3H19C20.6569 3 22 4.34315 22 6V9C22 10.6569 20.6569 12 19 12H5C3.34315 12 2 10.6569 2 9V6ZM5 5C4.44772 5 4 5.44772 4 6V9C4 9.55228 4.44772 10 5 10H19C19.5523 10 20 9.55228 20 9V6C20 5.44772 19.5523 5 19 5H5ZM6.5 16C5.67157 16 5 16.6716 5 17.5C5 18.3284 5.67157 19 6.5 19C7.32843 19 8 18.3284 8 17.5C8 16.6716 7.32843 16 6.5 16ZM3 17.5C3 15.567 4.567 14 6.5 14C8.08551 14 9.42479 15.0543 9.85506 16.5H18.75C19.4404 16.5 20 17.0596 20 17.75V20C20 20.5523 19.5523 21 19 21C18.4477 21 18 20.5523 18 20V18.5H16.125V20C16.125 20.5523 15.6773 21 15.125 21C14.5727 21 14.125 20.5523 14.125 20V18.5H9.85506C9.42479 19.9457 8.08551 21 6.5 21C4.567 21 3 19.433 3 17.5Z" fill="#7369AB"/>
<path id="Ellipse 11" d="M9 7.5C9 8.32843 8.32843 9 7.5 9C6.67157 9 6 8.32843 6 7.5C6 6.67157 6.67157 6 7.5 6C8.32843 6 9 6.67157 9 7.5Z" fill="#7369AB"/>
<path id="Ellipse 12" d="M13.5 7.5C13.5 8.32843 12.8284 9 12 9C11.1716 9 10.5 8.32843 10.5 7.5C10.5 6.67157 11.1716 6 12 6C12.8284 6 13.5 6.67157 13.5 7.5Z" fill="#7369AB"/>
<path id="Ellipse 13" d="M18 7.5C18 8.32843 17.3284 9 16.5 9C15.6716 9 15 8.32843 15 7.5C15 6.67157 15.6716 6 16.5 6C17.3284 6 18 6.67157 18 7.5Z" fill="#7369AB"/>
</g>
</svg>
