<svg width="24" height="24" viewBox="0 0 24 24" fill="none" xmlns="http://www.w3.org/2000/svg">
<g id="Password">
<path id="Rectangle 17 (Stroke)" fill-rule="evenodd" clip-rule="evenodd" d="M9 5C9 3.34315 10.3431 2 12 2C13.6569 2 15 3.34315 15 5C16.1046 5 17 5.89543 17 7V10C17 11.1046 16.1046 12 15 12H9C7.89543 12 7 11.1046 7 10V7C7 5.89543 7.89543 5 9 5ZM9 7V10H15V7H9ZM13 5H11C11 4.44772 11.4477 4 12 4C12.5523 4 13 4.44772 13 5ZM2 16C2 14.3431 3.34315 13 5 13H19C20.6569 13 22 14.3431 22 16V19C22 20.6569 20.6569 22 19 22H5C3.34315 22 2 20.6569 2 19V16ZM5 15C4.44772 15 4 15.4477 4 16V19C4 19.5523 4.44772 20 5 20H19C19.5523 20 20 19.5523 20 19V16C20 15.4477 19.5523 15 19 15H5Z" fill="#7369AB"/>
<path id="Ellipse 11" d="M9 17.5C9 18.3284 8.32843 19 7.5 19C6.67157 19 6 18.3284 6 17.5C6 16.6716 6.67157 16 7.5 16C8.32843 16 9 16.6716 9 17.5Z" fill="#7369AB"/>
<path id="Ellipse 12" d="M13.5 17.5C13.5 18.3284 12.8284 19 12 19C11.1716 19 10.5 18.3284 10.5 17.5C10.5 16.6716 11.1716 16 12 16C12.8284 16 13.5 16.6716 13.5 17.5Z" fill="#7369AB"/>
<path id="Ellipse 13" d="M18 17.5C18 18.3284 17.3284 19 16.5 19C15.6716 19 15 18.3284 15 17.5C15 16.6716 15.6716 16 16.5 16C17.3284 16 18 16.6716 18 17.5Z" fill="#7369AB"/>
</g>
</svg>
