<svg width="24" height="24" viewBox="0 0 24 24" fill="none" xmlns="http://www.w3.org/2000/svg">
<path fill-rule="evenodd" clip-rule="evenodd" d="M2 8C2 6.34315 3.34315 5 5 5H19C20.6569 5 22 6.34315 22 8V17C22 18.6569 20.6569 20 19 20H5C3.34315 20 2 18.6569 2 17V8ZM5 7C4.44772 7 4 7.44772 4 8V17C4 17.5523 4.44772 18 5 18H19C19.5523 18 20 17.5523 20 17V8C20 7.44772 19.5523 7 19 7H5Z" fill="#7369AB"/>
<path fill-rule="evenodd" clip-rule="evenodd" d="M2 10C2 9.44772 2.44772 9 3 9H20.5C21.0523 9 21.5 9.44772 21.5 10C21.5 10.5523 21.0523 11 20.5 11H3C2.44772 11 2 10.5523 2 10Z" fill="#7369AB"/>
<path fill-rule="evenodd" clip-rule="evenodd" d="M6 15C6 14.4477 6.44772 14 7 14H9C9.55228 14 10 14.4477 10 15C10 15.5523 9.55228 16 9 16H7C6.44772 16 6 15.5523 6 15Z" fill="#7369AB"/>
</svg>
