<svg width="32" height="32" viewBox="0 0 32 32" fill="none" xmlns="http://www.w3.org/2000/svg">
<path d="M7.05828 25.4023C7.80539 24.6552 7.80539 23.4439 7.05828 22.6968C6.31118 21.9497 5.09987 21.9497 4.35276 22.6968C3.60565 23.4439 3.60565 24.6552 4.35276 25.4023C5.09987 26.1494 6.31118 26.1494 7.05828 25.4023Z" fill="#BA271A"/>
<path d="M5.7054 26.3282C4.44931 26.3282 3.427 25.3059 3.427 24.0498C3.427 22.7937 4.44931 21.7714 5.7054 21.7714C6.9615 21.7714 7.9838 22.7937 7.9838 24.0498C7.9838 25.3059 6.9615 26.3282 5.7054 26.3282ZM5.7054 22.502C4.85171 22.502 4.15762 23.1961 4.15762 24.0498C4.15762 24.9035 4.85171 25.5976 5.7054 25.5976C6.5591 25.5976 7.25319 24.9035 7.25319 24.0498C7.25319 23.1961 6.5591 22.502 5.7054 22.502Z" fill="#09090D"/>
<path d="M19.7463 0.365492H10.4377C7.89685 0.365492 5.83765 2.42527 5.83765 4.96556V27.0335C5.83765 29.5744 7.89741 31.6336 10.4377 31.6336H23.7181C26.2589 31.6336 28.3182 29.5738 28.3182 27.0335V8.93674L19.7463 0.364929V0.365492Z" fill="white"/>
<path d="M23.7174 31.9994H10.4371C7.69893 31.9994 5.47168 29.7722 5.47168 27.034V4.96606C5.47168 2.22793 7.69893 0.000671387 10.4371 0.000671387H19.7457C19.8423 0.000671387 19.9356 0.0388896 20.0042 0.107455L28.5754 8.67927C28.644 8.74784 28.6822 8.84057 28.6822 8.9378V27.0346C28.6822 29.7727 26.455 32 23.7169 32L23.7174 31.9994ZM10.4371 0.730732C8.10189 0.730732 6.2023 2.63033 6.2023 4.9655V27.0335C6.2023 29.3686 8.10189 31.2682 10.4371 31.2682H23.7174C26.0526 31.2682 27.9522 29.3686 27.9522 27.0335V9.08842L19.5945 0.730732H10.4371Z" fill="#09090D"/>
<path d="M19.7463 0.365479L28.3182 8.93729H21.5746C20.5652 8.93729 19.7463 8.119 19.7463 7.10907V0.365479Z" fill="#E4E4EB"/>
<path d="M28.3186 9.30256C28.3186 9.30256 28.3181 9.30256 28.3175 9.30256H21.5739C20.3645 9.30256 19.3804 8.31848 19.3804 7.10903V0.365436C19.3804 0.217627 19.4692 0.0844293 19.6057 0.0276661C19.7423 -0.0285352 19.8991 0.00237054 20.0036 0.106905L28.5586 8.66187C28.635 8.72875 28.6834 8.82709 28.6834 8.93668C28.6834 9.13845 28.5198 9.30199 28.3181 9.30199L28.3186 9.30256ZM20.1116 1.24779V7.10959C20.1116 7.91608 20.7674 8.5725 21.5745 8.5725H27.4363L20.1121 1.24836L20.1116 1.24779Z" fill="#09090D"/>
<path d="M5.87931 13.0175C4.74292 13.0175 3.82178 13.9386 3.82178 15.075V23.6912H3.85944C4.04266 22.7425 4.87668 22.0254 5.87931 22.0254H26.5996V13.0175H5.87931Z" fill="#BA271A"/>
<path d="M3.85952 24.0565H3.82185C3.62009 24.0565 3.45654 23.893 3.45654 23.6912V15.075C3.45654 13.7391 4.54348 12.6522 5.87939 12.6522H26.5997C26.8014 12.6522 26.965 12.8157 26.965 13.0175V22.0254C26.965 22.2272 26.8014 22.3907 26.5997 22.3907H5.87939C5.07009 22.3907 4.3715 22.9668 4.21807 23.7603C4.18491 23.9323 4.0343 24.0565 3.85952 24.0565ZM5.87939 13.3828C4.94644 13.3828 4.18716 14.1421 4.18716 15.075V22.3497C4.62778 21.9203 5.22857 21.6601 5.87939 21.6601H26.2344V13.3828H5.87939Z" fill="#09090D"/>
<path d="M9.33179 15.3111C9.33179 15.1588 9.45599 15.0345 9.60156 15.0345H11.1443C12.2374 15.0345 12.9568 15.6157 12.9568 16.5705V16.5846C12.9568 17.6294 12.0851 18.1689 11.0544 18.1689H9.87806V19.6357C9.87806 19.788 9.75386 19.9123 9.60156 19.9123C9.44925 19.9123 9.33179 19.7875 9.33179 19.6357V15.3122V15.3111ZM11.0752 17.6704C11.8777 17.6704 12.4032 17.2416 12.4032 16.6048V16.5908C12.4032 15.8989 11.8844 15.5392 11.1027 15.5392H9.87806V17.6698H11.0746L11.0752 17.6704Z" fill="white"/>
<path d="M13.9531 15.3111C13.9531 15.1588 14.0773 15.0345 14.2229 15.0345H15.6341C17.156 15.0345 18.2076 16.0793 18.2076 17.4422V17.4563C18.2076 18.8191 17.156 19.8774 15.6341 19.8774H14.2229C14.0779 19.8774 13.9531 19.7526 13.9531 19.6009V15.3116V15.3111ZM15.6347 19.3722C16.8593 19.3722 17.6411 18.5421 17.6411 17.4698V17.4557C17.6411 16.3834 16.8593 15.5392 15.6347 15.5392H14.5V19.3716H15.6347V19.3722Z" fill="white"/>
<path d="M19.3638 15.3111C19.3638 15.1588 19.488 15.0345 19.6335 15.0345H22.6291C22.7673 15.0345 22.878 15.1453 22.878 15.2835C22.878 15.4218 22.7673 15.5392 22.6291 15.5392H19.91V17.2685H22.3177C22.456 17.2685 22.5667 17.3793 22.5667 17.5175C22.5667 17.6558 22.456 17.7665 22.3177 17.7665H19.91V19.6341C19.91 19.7864 19.7858 19.9106 19.6335 19.9106C19.4812 19.9106 19.3638 19.7858 19.3638 19.6341V15.3105V15.3111Z" fill="white"/>
</svg>
