<svg width="24" height="21" viewBox="0 0 24 21" fill="none" xmlns="http://www.w3.org/2000/svg">
<path fill-rule="evenodd" clip-rule="evenodd" d="M1.00061 4.45658C1.55976 4.43359 2.03749 4.85579 2.08343 5.41352C2.10343 5.6563 2.17732 5.89157 2.29973 6.1022C2.42213 6.31282 2.58996 6.49349 2.79101 6.63106C2.8108 6.6446 2.83013 6.65883 2.84894 6.6737C4.37734 7.88221 7.80366 8.91136 12 8.91136C14.0722 8.91136 15.9851 8.66955 17.5789 8.26061C19.1895 7.84741 20.404 7.28167 21.1395 6.68294C21.162 6.66469 21.1851 6.64738 21.209 6.63106C21.41 6.49349 21.5779 6.31281 21.7003 6.1022C21.8227 5.89157 21.8966 5.65631 21.9166 5.41352C21.9625 4.85579 22.4402 4.43359 22.9994 4.45658C23.5585 4.47957 24 4.93956 24 5.49918V9.45396C24 10.4451 23.5058 11.2882 22.8197 11.9493C22.1374 12.6067 21.2052 13.1484 20.1397 13.5802C18.0036 14.4459 15.1251 14.9531 12 14.9531C8.87347 14.9531 5.99484 14.4402 3.85916 13.5719C2.79396 13.1388 1.86264 12.5967 1.18102 11.9412C0.496444 11.2828 0 10.4422 0 9.45396V5.49918C0 4.93956 0.441461 4.47957 1.00061 4.45658ZM2.08696 8.69171V9.45396C2.08696 9.69701 2.20356 10.0291 2.62768 10.437C3.05475 10.8477 3.72778 11.2656 4.64519 11.6386C6.47472 12.3825 9.07436 12.8661 12 12.8661C14.9271 12.8661 17.5268 12.3873 19.3559 11.646C20.273 11.2743 20.9452 10.8573 21.3716 10.4465C21.7942 10.0393 21.913 9.70453 21.913 9.45396V8.70016C20.9007 9.37118 19.5803 9.90168 18.0976 10.2821C16.3158 10.7393 14.2269 10.9983 12 10.9983C7.95124 10.9983 4.25741 10.1034 2.08696 8.69171Z" fill="#7369AB"/>
<path fill-rule="evenodd" clip-rule="evenodd" d="M3.85916 1.38119C5.99484 0.512866 8.87347 0 12 0C15.1265 0 18.0052 0.512866 20.1408 1.38119C21.206 1.81428 22.1374 2.35637 22.819 3.01193C23.5036 3.67033 24 4.51088 24 5.49913C24 5.52772 23.9988 5.5563 23.9965 5.58479C23.951 6.13686 23.783 6.67183 23.5047 7.15076C23.2263 7.6297 22.8447 8.04053 22.3875 8.35334C22.0093 8.61212 21.5066 8.59388 21.1481 8.30838C19.621 7.09202 16.197 6.06261 12 6.06261C9.92778 6.06261 8.01517 6.30443 6.4218 6.71447C4.81177 7.12879 3.59828 7.69662 2.86327 8.29915C2.50469 8.59311 1.99513 8.61519 1.61247 8.35334C1.15532 8.04052 0.773679 7.62969 0.495348 7.15076C0.217016 6.67183 0.0489963 6.13686 0.00352211 5.58479C0.00117501 5.5563 0 5.52772 0 5.49913C0 4.51088 0.496444 3.67033 1.18102 3.01193C1.86264 2.35637 2.79396 1.81428 3.85916 1.38119ZM2.08795 5.46011C2.11312 5.68635 2.18518 5.90504 2.29973 6.10214C2.30584 6.11266 2.31206 6.12309 2.31839 6.13345C3.29722 5.52856 4.5302 5.0463 5.90168 4.69336C7.68396 4.23471 9.77309 3.97565 12 3.97565C15.9033 3.97565 19.4789 4.80742 21.6767 6.14151C21.6847 6.12851 21.6926 6.11539 21.7003 6.10214C21.8148 5.90504 21.8869 5.68635 21.9121 5.46011C21.9 5.221 21.7742 4.9026 21.3723 4.51611C20.9452 4.10537 20.2722 3.68746 19.3548 3.31446C17.5253 2.57061 14.9256 2.08696 12 2.08696C9.07436 2.08696 6.47472 2.57061 4.64519 3.31446C3.72778 3.68746 3.05475 4.10537 2.62768 4.51611C2.22583 4.9026 2.10005 5.221 2.08795 5.46011Z" fill="#7369AB"/>
<path fill-rule="evenodd" clip-rule="evenodd" d="M12 11.301C12.5763 11.301 13.0435 11.7681 13.0435 12.3444V16.5392C13.0435 17.1155 12.5763 17.5827 12 17.5827C11.4237 17.5827 10.9565 17.1155 10.9565 16.5392V12.3444C10.9565 11.7681 11.4237 11.301 12 11.301Z" fill="#7369AB"/>
<path fill-rule="evenodd" clip-rule="evenodd" d="M12 17.5722C11.6666 17.5722 11.3635 17.853 11.3635 18.2401C11.3635 18.6271 11.6666 18.9079 12 18.9079C12.3335 18.9079 12.6365 18.6271 12.6365 18.2401C12.6365 17.853 12.3335 17.5722 12 17.5722ZM9.27655 18.2401C9.27655 16.7369 10.4778 15.4853 12 15.4853C13.5222 15.4853 14.7235 16.7369 14.7235 18.2401C14.7235 19.7433 13.5222 20.9949 12 20.9949C10.4778 20.9949 9.27655 19.7433 9.27655 18.2401Z" fill="#7369AB"/>
</svg>
