<svg width="22" height="24" viewBox="0 0 22 24" fill="none" xmlns="http://www.w3.org/2000/svg">
<path fill-rule="evenodd" clip-rule="evenodd" d="M1.39864 4.47579C1.5022 3.99525 1.92711 3.65216 2.41869 3.65216H19.0621C19.5576 3.65216 19.9848 4.0007 20.0843 4.48616L20.346 5.76315C20.9099 8.57027 21.1689 11.4301 21.1183 14.2927L21.4711 19.8325C21.5001 20.3718 21.4183 20.9114 21.2308 21.418C21.0434 21.9245 20.7541 22.3873 20.3809 22.7778C20.0077 23.1682 19.5585 23.4781 19.0609 23.6883C18.5648 23.8979 18.0311 24.0039 17.4926 23.9999H3.92347C3.38168 23.9956 2.84655 23.88 2.35128 23.6603C1.85601 23.4407 1.41116 23.1216 1.04433 22.7228C0.6775 22.3241 0.39651 21.8542 0.218795 21.3424C0.0418033 20.8327 -0.0289927 20.2921 0.0107356 19.754L0.362443 14.2301C0.311917 11.3675 0.57086 8.50767 1.13479 5.70054L1.13767 5.6862L1.39864 4.47579ZM3.26123 5.73911L3.17942 6.11872C2.64341 8.78956 2.39877 11.5107 2.44981 14.2343C2.45035 14.2629 2.4497 14.2916 2.44789 14.3202L2.09232 19.9046C2.07305 20.1597 2.10635 20.4161 2.19028 20.6579C2.27422 20.8996 2.40693 21.1215 2.58018 21.3098C2.75343 21.4982 2.96353 21.6489 3.19745 21.7526C3.43027 21.8559 3.68174 21.9104 3.93639 21.9129H17.5059C17.761 21.9151 18.0138 21.8651 18.2488 21.7658C18.4838 21.6666 18.696 21.5202 18.8722 21.3358C19.0485 21.1514 19.1851 20.9328 19.2737 20.6936C19.3617 20.4558 19.4003 20.2025 19.3873 19.9493L19.0329 14.3828C19.0311 14.3542 19.0304 14.3255 19.031 14.2969C19.082 11.5716 18.8371 8.84871 18.3003 6.17625C18.3002 6.17556 18.3001 6.17488 18.2999 6.17419L18.2108 5.73911H3.26123Z" fill="#7369AB"/>
<path fill-rule="evenodd" clip-rule="evenodd" d="M1.37518 1.04347C1.37518 0.467179 1.84236 0 2.41866 0H19.0099C19.5862 0 20.0534 0.467179 20.0534 1.04347V4.64346C20.0534 5.21975 19.5862 5.68693 19.0099 5.68693H2.41866C1.84236 5.68693 1.37518 5.21975 1.37518 4.64346V1.04347ZM3.46213 2.08695V3.59998H17.9664V2.08695H3.46213Z" fill="#7369AB"/>
<path fill-rule="evenodd" clip-rule="evenodd" d="M10.2589 14.6326C10.013 14.9178 9.84014 15.2801 9.7853 15.5481C9.78326 15.5581 9.78107 15.5681 9.77873 15.578L9.70008 15.9123C9.69797 15.9268 9.69897 15.9417 9.70303 15.9559C9.70768 15.9722 9.7162 15.987 9.72786 15.9993C9.73952 16.0115 9.75398 16.0207 9.76999 16.0261C9.786 16.0315 9.80308 16.0329 9.81976 16.0303L9.82187 16.0299L10.5523 15.9152C10.6596 15.8983 10.7689 15.8983 10.8763 15.9152L11.6088 16.0303C11.6255 16.0329 11.6426 16.0315 11.6586 16.0261C11.6746 16.0207 11.6891 16.0115 11.7007 15.9993C11.7124 15.987 11.7209 15.9722 11.7255 15.9559C11.7296 15.9417 11.7306 15.9268 11.7285 15.9123L11.6499 15.578C11.6477 15.5689 11.6457 15.5597 11.6438 15.5505C11.5873 15.2775 11.4168 14.9135 11.1765 14.6309C10.9204 14.3295 10.7436 14.2956 10.7143 14.2956C10.7021 14.2956 10.5244 14.3247 10.2589 14.6326ZM8.67835 13.2698C9.11465 12.7638 9.81865 12.2086 10.7143 12.2086C11.6241 12.2086 12.329 12.7643 12.7668 13.2794C13.2169 13.809 13.5507 14.4819 13.6842 15.1125L13.7648 15.4548C13.7669 15.4637 13.7689 15.4727 13.7707 15.4816C13.8429 15.829 13.8296 16.1887 13.732 16.5298C13.6345 16.871 13.4555 17.1833 13.2106 17.44C12.9657 17.6967 12.6621 17.89 12.3259 18.0035C11.9901 18.1168 11.6319 18.147 11.2819 18.0915C11.2815 18.0914 11.281 18.0913 11.2806 18.0913L10.7143 18.0023L10.148 18.0913C10.1475 18.0913 10.1471 18.0914 10.1467 18.0915C9.79669 18.147 9.43846 18.1168 9.1027 18.0035C8.76653 17.89 8.46293 17.6967 8.218 17.44C7.97306 17.1833 7.79412 16.871 7.69655 16.5298C7.59898 16.1887 7.5857 15.829 7.65785 15.4816C7.65971 15.4727 7.66169 15.4637 7.66378 15.4548L7.7441 15.1135C7.87957 14.4683 8.22635 13.7941 8.67835 13.2698Z" fill="#7369AB"/>
<path d="M15.556 12.6052C15.556 13.1815 15.0888 13.6487 14.5125 13.6487C13.9362 13.6487 13.4691 13.1815 13.4691 12.6052C13.4691 12.0289 13.9362 11.5618 14.5125 11.5618C15.0888 11.5618 15.556 12.0289 15.556 12.6052Z" fill="#7369AB"/>
<path d="M13.2186 10.5183C13.2186 11.0946 12.7514 11.5617 12.1751 11.5617C11.5988 11.5617 11.1317 11.0946 11.1317 10.5183C11.1317 9.94197 11.5988 9.47479 12.1751 9.47479C12.7514 9.47479 13.2186 9.94197 13.2186 10.5183Z" fill="#7369AB"/>
<path d="M7.95951 12.6052C7.95951 13.1815 7.49233 13.6487 6.91603 13.6487C6.33974 13.6487 5.87256 13.1815 5.87256 12.6052C5.87256 12.0289 6.33974 11.5618 6.91603 11.5618C7.49233 11.5618 7.95951 12.0289 7.95951 12.6052Z" fill="#7369AB"/>
<path d="M10.2969 10.5183C10.2969 11.0946 9.82973 11.5617 9.25343 11.5617C8.67714 11.5617 8.20996 11.0946 8.20996 10.5183C8.20996 9.94197 8.67714 9.47479 9.25343 9.47479C9.82973 9.47479 10.2969 9.94197 10.2969 10.5183Z" fill="#7369AB"/>
</svg>
