<svg width="18" height="24" viewBox="0 0 18 24" fill="none" xmlns="http://www.w3.org/2000/svg">
<path fill-rule="evenodd" clip-rule="evenodd" d="M8.58754 4.68797C6.79791 4.83572 5.13079 5.65745 3.92351 6.98747C2.71155 8.32266 2.05417 10.0696 2.08528 11.8726L2.08544 11.8906V17.3408L2.08529 17.3586C2.07522 17.9492 2.18202 18.5359 2.39953 19.0851C2.61705 19.6343 2.94099 20.135 3.35273 20.5585C3.76446 20.9821 4.25587 21.32 4.79869 21.5529C5.3398 21.7851 5.92135 21.9084 6.51009 21.9157H11.3332C11.9198 21.9084 12.4993 21.7859 13.0387 21.5553C13.5798 21.324 14.0701 20.9883 14.4815 20.5675C14.8929 20.1467 15.2174 19.6489 15.4364 19.1027C15.6555 18.5565 15.7647 17.9724 15.758 17.384L15.7579 17.3721L15.758 11.6718C15.7673 10.7345 15.5861 9.80499 15.2253 8.93981C14.8645 8.07463 14.3317 7.29178 13.6592 6.63875C12.9867 5.98573 12.1885 5.47615 11.3131 5.14095C10.4442 4.80824 9.51721 4.6542 8.58754 4.68797ZM8.48473 2.60614C9.70353 2.55819 10.9194 2.75837 12.0584 3.19454C13.1975 3.63071 14.2361 4.29377 15.1112 5.14348C15.9862 5.9932 16.6795 7.01185 17.149 8.13763C17.6178 9.26176 17.8536 10.4693 17.8422 11.6871V17.3664C17.8512 18.2265 17.6911 19.08 17.3709 19.8784C17.05 20.6787 16.5746 21.4079 15.9719 22.0245C15.3691 22.6411 14.6508 23.1328 13.858 23.4718C13.0652 23.8107 12.2133 23.9902 11.3511 23.9999L11.3394 24L6.49236 23.9999C5.627 23.9903 4.77209 23.8095 3.97681 23.4683C3.18152 23.127 2.46155 22.6319 1.85831 22.0114C1.25506 21.3909 0.78045 20.6572 0.461765 19.8526C0.144218 19.0509 -0.0122679 18.1945 0.00121159 17.3323V11.8993C-0.0366459 9.56935 0.8139 7.31223 2.38025 5.58663C3.94867 3.85875 6.11681 2.79376 8.44303 2.60862C8.45691 2.60752 8.47081 2.60669 8.48473 2.60614Z" fill="#7369AB"/>
<path fill-rule="evenodd" clip-rule="evenodd" d="M8.92171 7.49274C7.848 7.49273 6.81815 7.91869 6.05815 8.67714C5.29839 9.43535 4.87035 10.4639 4.86789 11.5373V17.8618C4.86789 18.1768 4.99305 18.479 5.21585 18.7018C5.43865 18.9246 5.74082 19.0498 6.0559 19.0498H11.7875C12.1026 19.0498 12.4048 18.9246 12.6276 18.7018C12.8504 18.479 12.9755 18.1768 12.9755 17.8618V11.5466C12.9755 10.4714 12.5484 9.44031 11.7882 8.68007C11.028 7.91983 9.99685 7.49274 8.92171 7.49274ZM4.58589 7.20186C5.73664 6.05347 7.29597 5.4085 8.92171 5.40851C10.5496 5.40851 12.1109 6.05519 13.262 7.2063C14.4131 8.35741 15.0598 9.91865 15.0598 11.5466V17.8618C15.0598 18.7296 14.715 19.5619 14.1013 20.1756C13.4877 20.7893 12.6554 21.134 11.7875 21.134H6.0559C5.18805 21.134 4.35574 20.7893 3.74208 20.1756C3.12841 19.5619 2.78366 18.7296 2.78366 17.8618V11.5361L2.78366 11.534C2.78699 9.90827 3.43514 8.35026 4.58589 7.20186Z" fill="#7369AB"/>
<path fill-rule="evenodd" clip-rule="evenodd" d="M8.92171 2.08444C8.90131 2.08563 8.88125 2.09033 8.86243 2.09836C8.84091 2.10754 8.82142 2.12089 8.80509 2.13765C8.78876 2.1544 8.77591 2.17422 8.76728 2.19597C8.75865 2.21771 8.75442 2.24095 8.75482 2.26434L8.75497 2.28219V3.64736C8.75497 4.22291 8.2884 4.68948 7.71286 4.68948C7.13731 4.68948 6.67074 4.22291 6.67074 3.64736V2.28975C6.66703 1.99464 6.72112 1.70162 6.83 1.42724C6.94014 1.14966 7.10417 0.896649 7.31263 0.682807C7.52108 0.468965 7.76982 0.298528 8.04449 0.181333C8.31917 0.0641387 8.61433 0.00250857 8.91295 0H8.93046C9.22908 0.00250857 9.52425 0.0641387 9.79892 0.181333C10.0736 0.298528 10.3223 0.468965 10.5308 0.682807C10.7392 0.896649 10.9033 1.14966 11.0134 1.42724C11.1223 1.70163 11.1764 1.99465 11.1727 2.28976V3.64736C11.1727 4.22291 10.7061 4.68948 10.1306 4.68948C9.55502 4.68948 9.08845 4.22291 9.08845 3.64736V2.28219L9.0886 2.26434C9.089 2.24095 9.08476 2.21771 9.07613 2.19597C9.06751 2.17422 9.05466 2.1544 9.03833 2.13765C9.02199 2.12089 9.00251 2.10754 8.98099 2.09836C8.96216 2.09033 8.9421 2.08563 8.92171 2.08444Z" fill="#7369AB"/>
<path d="M7.65033 17.4033C7.65033 17.9788 7.18376 18.4454 6.60822 18.4454C6.03267 18.4454 5.5661 17.9788 5.5661 17.4033C5.5661 16.8277 6.03267 16.3611 6.60822 16.3611C7.18376 16.3611 7.65033 16.8277 7.65033 17.4033Z" fill="#7369AB"/>
<path d="M12.2773 17.4033C12.2773 17.9788 11.8107 18.4454 11.2352 18.4454C10.6597 18.4454 10.1931 17.9788 10.1931 17.4033C10.1931 16.8277 10.6597 16.3611 11.2352 16.3611C11.8107 16.3611 12.2773 16.8277 12.2773 17.4033Z" fill="#7369AB"/>
<path d="M9.96381 17.4033C9.96381 17.9788 9.49724 18.4454 8.92169 18.4454C8.34615 18.4454 7.87958 17.9788 7.87958 17.4033C7.87958 16.8277 8.34615 16.3611 8.92169 16.3611C9.49724 16.3611 9.96381 16.8277 9.96381 17.4033Z" fill="#7369AB"/>
</svg>
