<svg width="24" height="23" viewBox="0 0 24 23" fill="none" xmlns="http://www.w3.org/2000/svg">
<path fill-rule="evenodd" clip-rule="evenodd" d="M11.8122 12.72C11.0318 12.72 10.2833 13.03 9.73148 13.5819C9.17963 14.1337 8.86961 14.8822 8.86961 15.6626V20.3687H15.1305V15.6626C15.1305 14.8848 14.8226 14.1387 14.2741 13.5873C13.7261 13.0365 12.9826 12.7247 12.2058 12.72H11.8122ZM11.8122 10.6331H11.7913H11.8122ZM11.7736 10.6332C10.4536 10.6433 9.18989 11.1721 8.25578 12.1062C7.31255 13.0494 6.78265 14.3287 6.78265 15.6626V21.4122C6.78265 21.9885 7.24983 22.4556 7.82613 22.4556H16.1739C16.7502 22.4556 17.2174 21.9885 17.2174 21.4122V15.6626C17.2174 14.3333 16.6912 13.0579 15.7536 12.1155C14.8161 11.173 13.5435 10.64 12.2142 10.6331L11.8122 10.6331" fill="#7369AB"/>
<path fill-rule="evenodd" clip-rule="evenodd" d="M3.65218 7.21027C4.22848 7.21027 4.69566 7.67745 4.69566 8.25374V19.8304C4.70948 19.9757 4.77633 20.1112 4.88388 20.2107C4.99693 20.3153 5.14613 20.3719 5.3001 20.3687L5.32174 20.3685H18.6365C18.6526 20.3685 18.6686 20.3689 18.6847 20.3696C18.8412 20.3769 18.9943 20.322 19.1106 20.217C19.2215 20.117 19.2905 19.9791 19.3043 19.831V8.25374C19.3043 7.67745 19.7715 7.21027 20.3478 7.21027C20.9241 7.21027 21.3913 7.67745 21.3913 8.25374V19.8676C21.3913 19.8872 21.3907 19.9068 21.3896 19.9263C21.3499 20.6318 21.0333 21.293 20.5088 21.7664C19.991 22.2337 19.3117 22.4806 18.6154 22.4555H5.33121C4.64133 22.4666 3.97349 22.2115 3.46675 21.7427C2.95704 21.2713 2.65006 20.6204 2.61041 19.9272C2.60927 19.9074 2.6087 19.8875 2.6087 19.8676V8.25374C2.6087 7.67745 3.07588 7.21027 3.65218 7.21027Z" fill="#7369AB"/>
<path fill-rule="evenodd" clip-rule="evenodd" d="M11.3196 0.252328C11.7108 -0.0841094 12.2892 -0.0841094 12.6804 0.252328L23.6369 9.67492C24.0738 10.0507 24.1234 10.7095 23.7477 11.1465C23.3719 11.5834 22.7131 11.633 22.2761 11.2572L12 2.41976L1.72388 11.2572C1.28694 11.633 0.628114 11.5834 0.252346 11.1465C-0.123422 10.7095 -0.0738323 10.0507 0.363107 9.67492L11.3196 0.252328Z" fill="#7369AB"/>
<path fill-rule="evenodd" clip-rule="evenodd" d="M12 10.6331C12.5763 10.6331 13.0435 11.1002 13.0435 11.6765V21.4122C13.0435 21.9885 12.5763 22.4556 12 22.4556C11.4237 22.4556 10.9565 21.9885 10.9565 21.4122V11.6765C10.9565 11.1002 11.4237 10.6331 12 10.6331Z" fill="#7369AB"/>
<path d="M11.0818 17.5826C11.0818 18.1589 10.6146 18.6261 10.0383 18.6261C9.46199 18.6261 8.99481 18.1589 8.99481 17.5826C8.99481 17.0063 9.46199 16.5391 10.0383 16.5391C10.6146 16.5391 11.0818 17.0063 11.0818 17.5826Z" fill="#7369AB"/>
<path d="M14.953 17.5826C14.953 18.1589 14.4859 18.6261 13.9096 18.6261C13.3333 18.6261 12.8661 18.1589 12.8661 17.5826C12.8661 17.0063 13.3333 16.5391 13.9096 16.5391C14.4859 16.5391 14.953 17.0063 14.953 17.5826Z" fill="#7369AB"/>
</svg>
