<svg width="24" height="19" viewBox="0 0 24 19" fill="none" xmlns="http://www.w3.org/2000/svg">
<path fill-rule="evenodd" clip-rule="evenodd" d="M0 9.84491C0 9.26151 0.472939 8.78857 1.05634 8.78857H22.9437C23.5271 8.78857 24 9.26151 24 9.84491C24 10.4283 23.5271 10.9013 22.9437 10.9013H1.05634C0.472939 10.9013 0 10.4283 0 9.84491Z" fill="#7369AB"/>
<path fill-rule="evenodd" clip-rule="evenodd" d="M1.26354 9.20255C1.46343 8.9416 1.77341 8.78857 2.10212 8.78857H21.8979C22.226 8.78857 22.5355 8.94104 22.7354 9.20118C22.9354 9.46133 23.0031 9.79962 22.9187 10.1167L21.6172 15.0051C21.3081 16.13 20.6352 17.121 19.7036 17.8233C18.7736 18.5244 17.638 18.8984 16.4735 18.8872H7.52448C6.34878 18.8943 5.20428 18.5089 4.27232 17.792C3.34095 17.0755 2.67513 16.069 2.38013 14.9317L1.08224 10.12C0.99663 9.80264 1.06365 9.46351 1.26354 9.20255ZM3.48115 10.9013L4.42428 14.3977C4.60082 15.0815 5.00066 15.6868 5.56044 16.1174C6.12022 16.548 6.80779 16.7793 7.51401 16.7745L7.52114 16.7745L16.4902 16.7745C17.1902 16.782 17.8729 16.5576 18.4319 16.1362C18.9898 15.7157 19.393 15.1225 19.579 14.4492L20.5235 10.9013H3.48115Z" fill="#7369AB"/>
<path fill-rule="evenodd" clip-rule="evenodd" d="M8.0295 4.812C8.71632 4.32324 9.54472 4.07374 10.3872 4.10188C11.2297 4.13001 12.0396 4.43424 12.6923 4.96773C13.0339 5.24692 13.3225 5.5808 13.548 5.9532C13.7695 5.90816 13.9959 5.88467 14.2239 5.8836L14.2289 5.88358C15.1664 5.88359 16.1816 6.35513 16.9284 6.93458C17.6473 7.49243 18.4542 8.41746 18.4542 9.54908C18.4542 9.67015 18.4409 9.77501 18.4328 9.83447C18.4284 9.86726 18.4255 9.88778 18.4233 9.90262C18.4203 9.92354 18.419 9.93317 18.4173 9.94997C18.3633 10.49 17.9089 10.9012 17.3662 10.9012H3.54929C2.96589 10.9012 2.49295 10.4283 2.49295 9.84486V9.54908C2.49295 8.42367 3.28399 7.49903 4.00439 6.93655C4.75187 6.35292 5.76739 5.88359 6.7183 5.88359H6.72703C6.81974 5.88436 6.91224 5.88897 7.00429 5.89731C7.27015 5.47472 7.6175 5.10519 8.0295 4.812ZM10.3167 6.21337C9.93712 6.2007 9.56388 6.31311 9.25443 6.53332C8.94499 6.75353 8.71648 7.06933 8.60408 7.43212C8.516 7.71644 8.31205 7.9504 8.0424 8.07645C7.77276 8.2025 7.46245 8.20894 7.18781 8.09418C7.03767 8.03145 6.87687 7.99821 6.71419 7.99628C6.38629 7.99795 5.81989 8.1994 5.30457 8.60176C5.22328 8.66523 5.15068 8.7277 5.08599 8.78852H15.8514C15.7867 8.7284 15.7143 8.6666 15.6332 8.60372C15.1084 8.1965 14.5405 7.99724 14.2311 7.99627C13.9819 7.99792 13.7379 8.06789 13.5257 8.19857C13.2371 8.37627 12.8808 8.40471 12.5677 8.27505C12.2546 8.14539 12.0227 7.87337 11.9442 7.54367C11.8563 7.17419 11.6493 6.84385 11.3553 6.60349C11.0612 6.36312 10.6963 6.22605 10.3167 6.21337Z" fill="#7369AB"/>
<path fill-rule="evenodd" clip-rule="evenodd" d="M17.8732 2.11268C17.384 2.11268 17.0282 2.49436 17.0282 2.91549C17.0282 3.33662 17.384 3.71831 17.8732 3.71831C18.3625 3.71831 18.7183 3.33662 18.7183 2.91549C18.7183 2.49436 18.3625 2.11268 17.8732 2.11268ZM14.9155 2.91549C14.9155 1.28306 16.2622 0 17.8732 0C19.4843 0 20.831 1.28306 20.831 2.91549C20.831 4.54793 19.4843 5.83099 17.8732 5.83099C16.2622 5.83099 14.9155 4.54793 14.9155 2.91549Z" fill="#7369AB"/>
</svg>
