<svg width="24" height="18" viewBox="0 0 24 18" fill="none" xmlns="http://www.w3.org/2000/svg">
<path fill-rule="evenodd" clip-rule="evenodd" d="M9.12 0H14.8864C16.8241 0.0104038 18.7037 0.662993 20.2309 1.85559C21.7581 3.04819 22.8468 4.7135 23.3266 6.59087C23.4184 6.94996 23.3391 7.3313 23.1118 7.62402C22.8844 7.91674 22.5346 8.088 22.164 8.088H18.828V12.108C18.828 12.7707 18.2907 13.308 17.628 13.308H6.372C5.70926 13.308 5.172 12.7707 5.172 12.108V8.088H1.836C1.46537 8.088 1.11555 7.91674 0.888223 7.62402C0.660901 7.3313 0.581596 6.94996 0.673364 6.59087C1.15315 4.7135 2.24186 3.04819 3.76909 1.85559C5.29632 0.662993 7.17587 0.0104211 9.11355 1.73092e-05L9.12 0ZM9.12336 2.4C7.71764 2.40823 6.35421 2.88195 5.24621 3.74718C4.56493 4.27919 4.00384 4.94076 3.59164 5.688H6.372C7.03474 5.688 7.572 6.22526 7.572 6.888V10.908H16.428V6.888C16.428 6.22526 16.9653 5.688 17.628 5.688H20.4083C19.9962 4.94076 19.4351 4.27919 18.7538 3.74718C17.6458 2.88195 16.2824 2.40823 14.8766 2.4H9.12336Z" fill="#7369AB"/>
<path fill-rule="evenodd" clip-rule="evenodd" d="M0 7.03215C0 6.36941 0.537258 5.83215 1.2 5.83215H6.6C7.26274 5.83215 7.8 6.36941 7.8 7.03215V10.6322H16.8V7.03215C16.8 6.36941 17.3373 5.83215 18 5.83215H22.8C23.4627 5.83215 24 6.36941 24 7.03215V16.0322C24 16.6949 23.4627 17.2322 22.8 17.2322H1.2C0.537258 17.2322 0 16.6949 0 16.0322V7.03215ZM2.4 8.23215V14.8322H21.6V8.23215H19.2V11.8322C19.2 12.4949 18.6627 13.0322 18 13.0322H6.6C5.93726 13.0322 5.4 12.4949 5.4 11.8322V8.23215H2.4Z" fill="#7369AB"/>
<path d="M16.176 5.73601C16.176 6.39875 15.6387 6.93601 14.976 6.93601C14.3133 6.93601 13.776 6.39875 13.776 5.73601C13.776 5.07327 14.3133 4.53601 14.976 4.53601C15.6387 4.53601 16.176 5.07327 16.176 5.73601Z" fill="#7369AB"/>
<path d="M14.34 4.10417C14.34 4.76692 13.8027 5.30417 13.14 5.30417C12.4773 5.30417 11.94 4.76692 11.94 4.10417C11.94 3.44143 12.4773 2.90417 13.14 2.90417C13.8027 2.90417 14.34 3.44143 14.34 4.10417Z" fill="#7369AB"/>
<path d="M10.224 5.73601C10.224 6.39875 9.68675 6.93601 9.02401 6.93601C8.36126 6.93601 7.82401 6.39875 7.82401 5.73601C7.82401 5.07327 8.36126 4.53601 9.02401 4.53601C9.68675 4.53601 10.224 5.07327 10.224 5.73601Z" fill="#7369AB"/>
<path d="M12.06 4.10417C12.06 4.76692 11.5227 5.30417 10.86 5.30417C10.1973 5.30417 9.66 4.76692 9.66 4.10417C9.66 3.44143 10.1973 2.90417 10.86 2.90417C11.5227 2.90417 12.06 3.44143 12.06 4.10417Z" fill="#7369AB"/>
<path fill-rule="evenodd" clip-rule="evenodd" d="M12 5.5321C12.6627 5.5321 13.2 6.06936 13.2 6.7321V8.7361C13.2 9.39885 12.6627 9.9361 12 9.9361C11.3372 9.9361 10.8 9.39885 10.8 8.7361V6.7321C10.8 6.06936 11.3372 5.5321 12 5.5321Z" fill="#7369AB"/>
</svg>
