<svg width="12" height="24" viewBox="0 0 12 24" fill="none" xmlns="http://www.w3.org/2000/svg">
<path fill-rule="evenodd" clip-rule="evenodd" d="M8.56473 5.98634C8.38001 5.91822 8.18306 5.88958 7.98659 5.90227C7.9642 5.90372 7.94176 5.90444 7.91932 5.90444H3.74649C3.72422 5.90444 3.70195 5.90373 3.67972 5.9023C3.48532 5.88983 3.29044 5.91783 3.10741 5.98452C2.92439 6.05121 2.75718 6.15515 2.61637 6.28976C2.47557 6.42437 2.36422 6.58673 2.28936 6.76658C2.22058 6.93184 2.18399 7.10856 2.18139 7.28726C2.44869 9.43143 2.78674 12.4426 2.78674 13.8641C2.78674 15.4967 2.36528 19.0903 2.08647 21.2441C2.08754 21.3282 2.10424 21.4114 2.13582 21.4896C2.17188 21.5788 2.22652 21.6593 2.2961 21.7258C2.36568 21.7923 2.44862 21.8432 2.53939 21.8751C2.63017 21.9071 2.7267 21.9193 2.82258 21.9111C2.85229 21.9085 2.8821 21.9072 2.91193 21.9072H8.75389C8.78348 21.9072 8.81305 21.9085 8.84253 21.911C8.93699 21.9191 9.03209 21.9072 9.12169 21.8762C9.2113 21.8453 9.2934 21.7959 9.36272 21.7312C9.43204 21.6665 9.48702 21.588 9.52413 21.5008C9.55541 21.4273 9.57339 21.3489 9.57738 21.2693C9.29897 19.0774 8.87907 15.4934 8.87907 13.9058C8.87907 12.4821 9.21819 9.4637 9.48569 7.3189C9.48715 7.13551 9.45278 6.95346 9.38436 6.78303C9.31102 6.60032 9.20018 6.43502 9.059 6.29779C8.91782 6.16057 8.74944 6.05447 8.56473 5.98634ZM7.88863 3.81803C8.36401 3.79231 8.83978 3.86399 9.28669 4.02882C9.74506 4.19788 10.1629 4.46116 10.5132 4.80168C10.8636 5.1422 11.1386 5.55239 11.3206 6.00578C11.5026 6.45917 11.5875 6.94568 11.5699 7.43391C11.5688 7.46458 11.5663 7.49518 11.5625 7.52562C11.2885 9.71762 10.9655 12.6288 10.9655 13.9058C10.9655 15.3472 11.371 18.8381 11.6561 21.0765C11.6609 21.1148 11.6637 21.1533 11.6643 21.1919C11.6704 21.5783 11.5954 21.9618 11.4441 22.3174C11.2928 22.6731 11.0686 22.9931 10.786 23.2568C10.5034 23.5204 10.1686 23.7219 9.80336 23.8482C9.4537 23.969 9.08351 24.0184 8.71472 23.9936H2.95139C2.57696 24.019 2.20109 23.9679 1.84676 23.8432C1.47668 23.713 1.13857 23.5054 0.854883 23.2344C0.5712 22.9634 0.348448 22.6351 0.201434 22.2714C0.0544191 21.9077 -0.0134913 21.5168 0.0022169 21.1248C0.0034567 21.0939 0.00607367 21.063 0.0100599 21.0323C0.294705 18.8394 0.700329 15.3468 0.700329 13.8641C0.700329 12.5871 0.377324 9.67589 0.103325 7.48389C0.098783 7.44756 0.0961573 7.41101 0.0954589 7.3744C0.0862396 6.89109 0.177385 6.41113 0.363135 5.96485C0.548884 5.51857 0.825198 5.11568 1.17461 4.78164C1.52402 4.4476 1.93893 4.18968 2.39311 4.02419C2.8359 3.86285 3.30662 3.79277 3.77696 3.81803H7.88863Z" fill="#7369AB"/>
<path fill-rule="evenodd" clip-rule="evenodd" d="M3.12054 1.04321C3.12054 0.46706 3.5876 0 4.16375 0H7.50201C8.07816 0 8.54522 0.46706 8.54522 1.04321V4.86134C8.54522 5.43749 8.07816 5.90455 7.50201 5.90455H4.16375C3.5876 5.90455 3.12054 5.43749 3.12054 4.86134V1.04321ZM5.20696 2.08641V3.81814H6.45881V2.08641H5.20696Z" fill="#7369AB"/>
</svg>
