<svg width="24" height="24" viewBox="0 0 24 24" fill="none" xmlns="http://www.w3.org/2000/svg">
<g clip-path="url(#clip0_1210_1800)">
<path fill-rule="evenodd" clip-rule="evenodd" d="M0.0159651 2.86643C-0.160049 1.2547 1.14568 0 2.63288 0H5.50856C6.7859 0 7.88567 0.901595 8.13618 2.15413L9.11996 7.07307C9.29567 7.95162 9.02068 8.85986 8.38715 9.4934L5.93095 11.9496C7.51963 14.5089 9.7608 16.9064 12.8509 18.6578L15.8418 15.6669C16.5073 15.0014 17.4733 14.7338 18.3865 14.9621L21.995 15.8642C23.1879 16.1624 24.0247 17.2343 24.0247 18.4639V21.348C24.0247 22.8769 22.7183 24.1637 21.1116 23.983C17.7937 23.6099 14.9376 22.7344 12.4936 21.5044C8.04107 19.2634 5.03156 15.8854 3.08037 12.3881C1.22682 9.06578 0.316361 5.61709 0.0159651 2.86643ZM15.4203 19.878C17.1573 20.5577 19.1228 21.0574 21.3451 21.3126V18.4639L17.7366 17.5617L15.4203 19.878ZM4.61009 9.48085L6.49235 7.5986L5.50856 2.67965H2.69144C2.91886 4.66142 3.50686 7.06556 4.61009 9.48085Z" fill="#7369AB"/>
</g>
<defs>
<clipPath id="clip0_1210_1800">
<rect width="24" height="24" fill="white"/>
</clipPath>
</defs>
</svg>
