<svg width="24" height="24" viewBox="0 0 24 24" fill="none" xmlns="http://www.w3.org/2000/svg">
<path fill-rule="evenodd" clip-rule="evenodd" d="M3.08076 5.1394C2.94939 3.93647 3.92394 3 5.03393 3H7.18024C8.1336 3 8.95443 3.67292 9.1414 4.60777L9.87567 8.27909C10.0068 8.93481 9.80157 9.61269 9.32872 10.0855L7.4955 11.9188C8.68123 13.8289 10.354 15.6184 12.6603 16.9255L14.8926 14.6933C15.3893 14.1965 16.1103 13.9968 16.7919 14.1672L19.4851 14.8405C20.3755 15.0631 21 15.863 21 16.7808V18.9334C21 20.0745 20.025 21.0349 18.8258 20.9001C16.3494 20.6216 14.2177 19.9682 12.3936 19.0501C9.07042 17.3775 6.82422 14.8563 5.36793 12.246C3.98451 9.76638 3.30497 7.1924 3.08076 5.1394ZM14.578 17.8363C15.8745 18.3435 17.3414 18.7165 19 18.907V16.7808L16.3068 16.1075L14.578 17.8363ZM6.50966 10.0762L7.91451 8.67132L7.18024 5H5.07765C5.24739 6.47912 5.68624 8.27348 6.50966 10.0762Z" fill="#7369AB"/>
<path fill-rule="evenodd" clip-rule="evenodd" d="M12.1043 2.94522C12.1716 2.39705 12.6705 2.00724 13.2187 2.07454C15.4214 2.345 17.4716 3.34052 19.0463 4.9043C20.6211 6.46808 21.6309 8.51126 21.9167 10.7121C21.9878 11.2597 21.6015 11.7614 21.0538 11.8325C20.5062 11.9036 20.0045 11.5173 19.9334 10.9696C19.7047 9.20901 18.8969 7.57446 17.6371 6.32344C16.3773 5.07242 14.7371 4.276 12.975 4.05963C12.4268 3.99233 12.037 3.49339 12.1043 2.94522ZM11.9724 6.9011C12.0778 6.35897 12.6027 6.00491 13.1449 6.11029C14.3255 6.33978 15.4099 6.91881 16.2574 7.77224C17.1049 8.62568 17.6764 9.71412 17.8976 10.8963C17.9992 11.4392 17.6415 11.9616 17.0986 12.0632C16.5558 12.1648 16.0333 11.8071 15.9317 11.2642C15.7842 10.4761 15.4033 9.75047 14.8383 9.18151C14.2733 8.61256 13.5503 8.22654 12.7632 8.07354C12.2211 7.96816 11.867 7.44324 11.9724 6.9011Z" fill="#7369AB"/>
</svg>
