<svg width="24" height="24" viewBox="0 0 24 24" fill="none" xmlns="http://www.w3.org/2000/svg">
<path fill-rule="evenodd" clip-rule="evenodd" d="M19.7071 4.29289C20.0976 4.68342 20.0976 5.31658 19.7071 5.70711L5.70711 19.7071C5.31658 20.0976 4.68342 20.0976 4.29289 19.7071C3.90237 19.3166 3.90237 18.6834 4.29289 18.2929L18.2929 4.29289C18.6834 3.90237 19.3166 3.90237 19.7071 4.29289Z" fill="#7369AB"/>
<path fill-rule="evenodd" clip-rule="evenodd" d="M7.96074 12.6251C7.79794 12.392 7.64295 12.1563 7.4955 11.9188L9.32872 10.0855C9.80157 9.61269 10.0068 8.93481 9.87567 8.27909L9.1414 4.60777C8.95443 3.67292 8.1336 3 7.18024 3H5.03393C3.92394 3 2.94939 3.93647 3.08076 5.1394C3.30497 7.1924 3.98451 9.76638 5.36793 12.246C5.7096 12.8585 6.09474 13.466 6.52708 14.0588L7.96074 12.6251ZM9.22026 14.194L7.80505 15.6092C9.03531 16.9311 10.5485 18.1214 12.3936 19.0501C14.2177 19.9682 16.3494 20.6216 18.8258 20.9001C20.025 21.0349 21 20.0745 21 18.9334V16.7808C21 15.863 20.3755 15.0631 19.4851 14.8405L16.7919 14.1672C16.1103 13.9968 15.3893 14.1965 14.8926 14.6933L12.6603 16.9255C11.3046 16.1572 10.1679 15.2222 9.22026 14.194ZM19 18.907C17.3414 18.7165 15.8745 18.3435 14.578 17.8363L16.3068 16.1075L19 16.7808V18.907ZM7.91451 8.67132L6.50966 10.0762C5.68624 8.27348 5.24739 6.47912 5.07765 5H7.18024L7.91451 8.67132Z" fill="#7369AB"/>
</svg>
