<svg width="24" height="24" viewBox="0 0 24 24" fill="none" xmlns="http://www.w3.org/2000/svg">
<path fill-rule="evenodd" clip-rule="evenodd" d="M10.75 5C10.4352 5 10.1389 5.14819 9.95 5.4L8.9 6.8C8.33344 7.55542 7.44427 8 6.5 8H5C4.44772 8 4 8.44772 4 9V18C4 18.5523 4.44772 19 5 19H19C19.5523 19 20 18.5523 20 18V9C20 8.44772 19.5523 8 19 8H17.5C16.5557 8 15.6666 7.55542 15.1 6.8L14.05 5.4C13.8611 5.14819 13.5648 5 13.25 5H10.75ZM8.35 4.2C8.91656 3.44458 9.80573 3 10.75 3H13.25C14.1943 3 15.0834 3.44458 15.65 4.2L16.7 5.6C16.8889 5.85181 17.1852 6 17.5 6H19C20.6569 6 22 7.34315 22 9V18C22 19.6569 20.6569 21 19 21H5C3.34315 21 2 19.6569 2 18V9C2 7.34315 3.34315 6 5 6H6.5C6.81476 6 7.11115 5.85181 7.3 5.6L8.35 4.2Z" fill="#7369AB"/>
<path fill-rule="evenodd" clip-rule="evenodd" d="M12 10C10.3431 10 9 11.3431 9 13C9 14.6569 10.3431 16 12 16C13.6569 16 15 14.6569 15 13C15 11.3431 13.6569 10 12 10ZM7 13C7 10.2386 9.23858 8 12 8C14.7614 8 17 10.2386 17 13C17 15.7614 14.7614 18 12 18C9.23858 18 7 15.7614 7 13Z" fill="#7369AB"/>
</svg>
