<svg width="24" height="24" viewBox="0 0 24 24" fill="none" xmlns="http://www.w3.org/2000/svg">
<path fill-rule="evenodd" clip-rule="evenodd" d="M2.29289 2.29289C2.68342 1.90237 3.31658 1.90237 3.70711 2.29289L21.7071 20.2929C22.0976 20.6834 22.0976 21.3166 21.7071 21.7071C21.3166 22.0976 20.6834 22.0976 20.2929 21.7071L2.29289 3.70711C1.90237 3.31658 1.90237 2.68342 2.29289 2.29289Z" fill="#7369AB"/>
<path fill-rule="evenodd" clip-rule="evenodd" d="M4.76761 3.6809C4.20533 4.05908 3.74601 4.57557 3.43598 5.18404C3.18869 5.66938 3.09012 6.18608 3.0442 6.74818C2.99998 7.28937 2.99999 7.95373 3 8.7587L3 8.8V15.2L3 15.2413C3 15.4903 3 15.7259 3.0013 15.9486C2.99932 15.9874 2.9996 16.0263 3.00212 16.0651C3.00584 16.5135 3.01607 16.9076 3.0442 17.2518C3.09012 17.8139 3.18869 18.3306 3.43598 18.816C3.81947 19.5686 4.43139 20.1805 5.18404 20.564C5.66938 20.8113 6.18608 20.9099 6.74818 20.9558C7.28937 21 7.95372 21 8.75868 21H8.8H15.2H15.2413C16.0463 21 16.7106 21 17.2518 20.9558C17.8139 20.9099 18.3306 20.8113 18.816 20.564C19.4242 20.2541 19.9406 19.795 20.3187 19.233L18.8447 17.7589C18.8251 17.8159 18.8041 17.8646 18.782 17.908C18.5903 18.2843 18.2843 18.5903 17.908 18.782C17.7516 18.8617 17.5274 18.9266 17.089 18.9625C16.6389 18.9992 16.0566 19 15.2 19H8.8C7.94343 19 7.36113 18.9992 6.91104 18.9625C6.47263 18.9266 6.24842 18.8617 6.09202 18.782C5.7157 18.5903 5.40974 18.2843 5.21799 17.908C5.1383 17.7516 5.07338 17.5274 5.03756 17.089C5.02093 16.8855 5.01167 16.6551 5.0065 16.3845L9.79344 11.2077L13.0858 14.5L15.3358 16.75C15.7263 17.1405 16.3595 17.1405 16.75 16.75C16.9681 16.5319 17.0644 16.2381 17.0389 15.9531L10.3809 9.29507C9.69594 9.0851 8.92053 9.25105 8.37868 9.7929C8.36946 9.80212 8.36043 9.81151 8.35158 9.82109L5 13.4456V8.8C5 7.94342 5.00078 7.36113 5.03756 6.91104C5.07338 6.47262 5.1383 6.24842 5.21799 6.09202C5.40974 5.7157 5.7157 5.40974 6.09202 5.21799C6.13545 5.19586 6.1841 5.17487 6.24112 5.15533L4.79289 3.70711C4.78427 3.69849 4.77584 3.68975 4.76761 3.6809ZM15.2594 11.3452C16.0445 10.7229 17.1887 10.7745 17.9143 11.5L19 12.5857V8.8C19 7.94342 18.9992 7.36113 18.9625 6.91104C18.9266 6.47262 18.8617 6.24842 18.782 6.09202C18.5903 5.7157 18.2843 5.40974 17.908 5.21799C17.7516 5.1383 17.5274 5.07337 17.089 5.03755C16.6389 5.00078 16.0566 5 15.2 5H8.91421L6.94455 3.03034C7.44781 2.99998 8.04853 2.99999 8.75869 3H8.75871H8.8H15.2H15.2413H15.2413C16.0463 2.99999 16.7106 2.99998 17.2518 3.04419C17.8139 3.09012 18.3306 3.18868 18.816 3.43598C19.5686 3.81947 20.1805 4.43139 20.564 5.18404C20.8113 5.66938 20.9099 6.18608 20.9558 6.74818C21 7.28937 21 7.95372 21 8.75868V8.8V14.9992V15.0007V15.2V15.2413C21 15.9515 21 16.5522 20.9697 17.0555L15.2594 11.3452Z" fill="#7369AB"/>
</svg>
