<svg width="24" height="24" viewBox="0 0 24 24" fill="none" xmlns="http://www.w3.org/2000/svg">
<g clip-path="url(#clip0_1210_1742)">
<path fill-rule="evenodd" clip-rule="evenodd" d="M7.67827 5.75055e-07H16.3217C17.395 -1.64321e-05 18.2808 -3.04182e-05 19.0024 0.058926C19.7519 0.12016 20.4408 0.251579 21.0879 0.5813C22.0915 1.09262 22.9074 1.90852 23.4187 2.91205C23.7484 3.55917 23.8798 4.2481 23.9411 4.99757C24 5.71915 24 6.60496 24 7.67824V16.3218C24 17.395 24 18.2808 23.9411 19.0024C23.8798 19.7519 23.7484 20.4408 23.4187 21.0879C22.9074 22.0915 22.0915 22.9074 21.0879 23.4187C20.4408 23.7484 19.7519 23.8798 19.0024 23.9411C18.2808 24 17.395 24 16.3218 24H7.67823C6.60496 24 5.71915 24 4.99757 23.9411C4.2481 23.8798 3.55917 23.7484 2.91205 23.4187C1.90852 22.9074 1.09262 22.0915 0.5813 21.0879C0.251579 20.4408 0.12016 19.7519 0.058926 19.0024C-3.04182e-05 18.2808 -1.64321e-05 17.395 5.75055e-07 16.3217V7.67827C-1.64321e-05 6.60497 -3.04182e-05 5.71916 0.058926 4.99757C0.12016 4.2481 0.251579 3.55917 0.5813 2.91205C1.09262 1.90852 1.90852 1.09262 2.91205 0.5813C3.55917 0.251579 4.2481 0.12016 4.99757 0.058926C5.71916 -3.04182e-05 6.60497 -1.64321e-05 7.67827 5.75055e-07ZM5.21472 2.71674C4.63016 2.7645 4.33123 2.85106 4.12269 2.95732C3.62093 3.21298 3.21298 3.62093 2.95732 4.12269C2.85106 4.33123 2.7645 4.63016 2.71674 5.21472C2.6677 5.81484 2.66667 6.59123 2.66667 7.73333V16.2667C2.66667 17.4088 2.6677 18.1852 2.71674 18.7853C2.7645 19.3698 2.85106 19.6688 2.95732 19.8773C3.21298 20.3791 3.62093 20.787 4.12269 21.0427C4.33123 21.1489 4.63016 21.2355 5.21472 21.2833C5.81484 21.3323 6.59123 21.3333 7.73333 21.3333H16.2667C17.4088 21.3333 18.1852 21.3323 18.7853 21.2833C19.3698 21.2355 19.6688 21.1489 19.8773 21.0427C20.3791 20.787 20.787 20.3791 21.0427 19.8773C21.1489 19.6688 21.2355 19.3698 21.2833 18.7853C21.3323 18.1852 21.3333 17.4088 21.3333 16.2667V7.73333C21.3333 6.59123 21.3323 5.81484 21.2833 5.21472C21.2355 4.63016 21.1489 4.33123 21.0427 4.12269C20.787 3.62093 20.3791 3.21298 19.8773 2.95732C19.6688 2.85106 19.3698 2.7645 18.7853 2.71674C18.1852 2.6677 17.4088 2.66667 16.2667 2.66667H7.73333C6.59123 2.66667 5.81484 2.6677 5.21472 2.71674Z" fill="#7369AB"/>
<path fill-rule="evenodd" clip-rule="evenodd" d="M6.11438 10.6666C7.15578 9.62524 8.84422 9.62524 9.88562 10.6666L13.3333 14.1144L16.1144 11.3333C17.1558 10.2919 18.8443 10.2919 19.8857 11.3333L23.6095 15.0572C24.1302 15.5779 24.1302 16.4221 23.6095 16.9428C23.0888 17.4635 22.2445 17.4635 21.7239 16.9428L18 13.2189L15.219 16L17.2761 18.0572C17.7968 18.5779 17.7968 19.4221 17.2761 19.9428C16.7554 20.4635 15.9112 20.4635 15.3905 19.9428L8 12.5523L2.27615 18.2761C1.75545 18.7969 0.911228 18.7969 0.390527 18.2762C-0.130173 17.7555 -0.130176 16.9112 0.390521 16.3905L6.11438 10.6666Z" fill="#7369AB"/>
</g>
<defs>
<clipPath id="clip0_1210_1742">
<rect width="24" height="24" fill="white"/>
</clipPath>
</defs>
</svg>
