<svg width="24" height="24" viewBox="0 0 24 24" fill="none" xmlns="http://www.w3.org/2000/svg">
<path fill-rule="evenodd" clip-rule="evenodd" d="M4.29289 4.29289C4.68342 3.90237 5.31658 3.90237 5.70711 4.29289L19.7071 18.2929C20.0976 18.6834 20.0976 19.3166 19.7071 19.7071C19.3166 20.0976 18.6834 20.0976 18.2929 19.7071L4.29289 5.70711C3.90237 5.31658 3.90237 4.68342 4.29289 4.29289Z" fill="#7369AB"/>
<path fill-rule="evenodd" clip-rule="evenodd" d="M19.0857 3.5C18.3047 2.71895 17.0384 2.71895 16.2573 3.5L14.1716 5.58572L12.8788 4.2929C12.4882 3.90237 11.8551 3.90237 11.4645 4.2929C11.074 4.68342 11.074 5.31659 11.4645 5.70711L12.7574 6.99994L11.5858 8.17156L13 9.58577L14.1716 8.41416L15.5858 9.82837L14.4142 11L15.8284 12.4142L17 11.2426L18.2929 12.5355C18.6834 12.926 19.3166 12.926 19.7071 12.5355C20.0976 12.1449 20.0976 11.5118 19.7071 11.1213L18.4142 9.82836L20.5 7.74264C21.281 6.96159 21.281 5.69526 20.5 4.91422L19.0857 3.5ZM14.4142 13.8284L13 12.4142L8.25663 17.1577C8.18184 17.2324 8.09609 17.2945 8.00282 17.3419L6.64191 16.0307C6.69107 15.9245 6.75876 15.8271 6.84242 15.7434L11.5858 11L10.1716 9.58578L5.42819 14.3292C5.0094 14.748 4.72394 15.2814 4.60779 15.8622L4.54977 16.1523L4.37299 17.0362L4.01944 18.8039C3.95386 19.1318 4.05649 19.4707 4.29291 19.7072C4.52933 19.9436 4.86827 20.0462 5.19613 19.9806L7.91442 19.437L8.13787 19.3923C8.71865 19.2761 9.25205 18.9907 9.67085 18.5719L14.4142 13.8284ZM15.5858 6.99994L17 8.41415L19.0857 6.32843L17.6715 4.91422L15.5858 6.99994Z" fill="#7369AB"/>
</svg>
