<svg width="24" height="24" viewBox="0 0 24 24" fill="none" xmlns="http://www.w3.org/2000/svg">
<path fill-rule="evenodd" clip-rule="evenodd" d="M16.2573 3.49999C17.0383 2.71894 18.3047 2.71894 19.0857 3.49999L20.4999 4.91421C21.281 5.69525 21.281 6.96158 20.4999 7.74263L18.4142 9.82836L19.7071 11.1212C20.0976 11.5118 20.0976 12.1449 19.7071 12.5355C19.3166 12.926 18.6834 12.926 18.2929 12.5355L17 11.2426L9.67083 18.5718C9.25203 18.9907 8.71863 19.2761 8.13785 19.3923L5.19611 19.9806C4.86825 20.0462 4.52931 19.9436 4.29289 19.7072C4.05646 19.4707 3.95384 19.1318 4.01941 18.8039L4.60776 15.8622C4.72392 15.2814 5.00938 14.748 5.42817 14.3292L12.7574 6.99993L11.4645 5.7071C11.074 5.31658 11.074 4.68341 11.4645 4.29289C11.8551 3.90236 12.4882 3.90236 12.8787 4.29289L14.1716 5.58571L16.2573 3.49999ZM14.1716 8.41415L6.84239 15.7434C6.75874 15.8271 6.69104 15.9245 6.64189 16.0307L8.0028 17.3419C8.09607 17.2945 8.18182 17.2324 8.25661 17.1576L15.5858 9.82836L14.1716 8.41415ZM17 8.41414L15.5858 6.99993L17.6715 4.91421L19.0857 6.32842L17 8.41414Z" fill="#7369AB"/>
</svg>
