<svg width="24" height="24" viewBox="0 0 24 24" fill="none" xmlns="http://www.w3.org/2000/svg">
<path fill-rule="evenodd" clip-rule="evenodd" d="M11 5.07177C9.51321 5.28635 8.12499 5.97552 7.05025 7.05025C5.7375 8.36301 5 10.1435 5 12C5 13.8565 5.7375 15.637 7.05025 16.9497C8.12499 18.0245 9.51321 18.7137 11 18.9282L11 5.07177ZM5.63604 5.63604C7.32387 3.94821 9.61305 3 12 3C12.2652 3 12.5196 3.10536 12.7071 3.29289C12.8946 3.48043 13 3.73478 13 4V20C13 20.2652 12.8946 20.5196 12.7071 20.7071C12.5196 20.8946 12.2652 21 12 21C9.61305 21 7.32387 20.0518 5.63604 18.364C3.94821 16.6761 3 14.3869 3 12C3 9.61305 3.94821 7.32387 5.63604 5.63604Z" fill="#7369AB"/>
<path fill-rule="evenodd" clip-rule="evenodd" d="M11.2929 3.29289C11.4804 3.10536 11.7348 3 12 3C13.1819 3 14.3522 3.23279 15.4442 3.68508C16.5361 4.13738 17.5282 4.80031 18.364 5.63604C19.1997 6.47177 19.8626 7.46392 20.3149 8.55585C20.7672 9.64778 21 10.8181 21 12C21 12.2652 20.8946 12.5196 20.7071 12.7071C20.5196 12.8946 20.2652 13 20 13L12 13C11.4477 13 11 12.5523 11 12V4C11 3.73478 11.1054 3.48043 11.2929 3.29289ZM13 5.0718V11L18.9282 11C18.8452 10.4247 18.6906 9.86065 18.4672 9.32122C18.1154 8.47194 17.5998 7.70026 16.9497 7.05025C16.2997 6.40024 15.5281 5.88463 14.6788 5.53284C14.1393 5.3094 13.5753 5.15484 13 5.0718Z" fill="#7369AB"/>
<path fill-rule="evenodd" clip-rule="evenodd" d="M20.7071 11.2929C20.8946 11.4804 21 11.7348 21 12C21 13.1819 20.7672 14.3522 20.3149 15.4442C19.8626 16.5361 19.1997 17.5282 18.364 18.364C17.5282 19.1997 16.5361 19.8626 15.4441 20.3149C14.3522 20.7672 13.1819 21 12 21C11.7348 21 11.4804 20.8946 11.2929 20.7071C11.1054 20.5196 11 20.2652 11 20L11 12C11 11.4477 11.4477 11 12 11L20 11C20.2652 11 20.5196 11.1054 20.7071 11.2929ZM18.9282 13L13 13L13 18.9282C13.5753 18.8452 14.1393 18.6906 14.6788 18.4672C15.5281 18.1154 16.2997 17.5998 16.9497 16.9497C17.5998 16.2997 18.1154 15.5281 18.4672 14.6788C18.6906 14.1393 18.8452 13.5753 18.9282 13Z" fill="#7369AB"/>
</svg>
