<svg width="24" height="24" viewBox="0 0 24 24" fill="none" xmlns="http://www.w3.org/2000/svg">
<path fill-rule="evenodd" clip-rule="evenodd" d="M11 5.0718C10.1979 5.18757 9.41942 5.44213 8.70023 5.82655C7.685 6.3692 6.81926 7.15386 6.17972 8.11101C5.54017 9.06816 5.14654 10.1683 5.03371 11.3139C4.92088 12.4595 5.09232 13.6153 5.53285 14.6788C5.97337 15.7423 6.66939 16.6808 7.55925 17.4111C8.44911 18.1414 9.50533 18.6409 10.6344 18.8655C11.7634 19.0901 12.9304 19.0327 14.032 18.6986C14.8124 18.4619 15.5428 18.0914 16.1919 17.6061L11.2929 12.7071C11.1054 12.5196 11 12.2652 11 12V5.0718ZM7.75743 4.06271C9.06273 3.36501 10.5199 3 12 3C12.5523 3 13 3.44772 13 4V11.5858L18.364 16.9497C18.7545 17.3403 18.7545 17.9734 18.364 18.364C17.3174 19.4105 16.0289 20.1828 14.6126 20.6125C13.1962 21.0421 11.6958 21.1158 10.2442 20.8271C8.79257 20.5383 7.43456 19.896 6.29046 18.9571C5.14636 18.0182 4.25148 16.8115 3.68509 15.4442C3.11869 14.0768 2.89827 12.5908 3.04334 11.1178C3.18841 9.64491 3.6945 8.23049 4.51678 6.99987C5.33905 5.76924 6.45214 4.7604 7.75743 4.06271Z" fill="#7369AB"/>
<path fill-rule="evenodd" clip-rule="evenodd" d="M11 4C11 3.44772 11.4477 3 12 3C13.78 3 15.5201 3.52784 17.0001 4.51677C18.4802 5.50571 19.6337 6.91131 20.3149 8.55585C20.9961 10.2004 21.1743 12.01 20.8271 13.7558C20.4798 15.5016 19.6226 17.1053 18.364 18.364C17.9734 18.7545 17.3403 18.7545 16.9497 18.364L11.2929 12.7071C11.1054 12.5196 11 12.2652 11 12V4ZM13 5.07179V11.5858L17.6061 16.1919C18.2289 15.3589 18.6609 14.394 18.8655 13.3656C19.1356 12.0078 18.997 10.6003 18.4672 9.32122C17.9373 8.04213 17.0401 6.94888 15.889 6.17971C15.0172 5.5972 14.0294 5.22038 13 5.07179Z" fill="#7369AB"/>
</svg>
