<svg width="24" height="18" viewBox="0 0 24 18" fill="none" xmlns="http://www.w3.org/2000/svg">
<path fill-rule="evenodd" clip-rule="evenodd" d="M5.22323 2.58248e-10C3.84069 3.41808e-06 2.51479 0.549214 1.53719 1.52681L5.22323 2.58248e-10ZM5.22324 2.08514C4.39372 2.08514 3.59817 2.41467 3.01161 3.00123C2.42505 3.58779 2.09552 4.38334 2.09552 5.21286V7.46344C3.11091 7.72245 4.15726 7.84595 5.20725 7.82984C5.21768 7.82968 5.22811 7.82968 5.23853 7.82983C6.28873 7.84524 7.33524 7.7216 8.35096 7.46299V5.2285C8.35302 4.81645 8.27365 4.40805 8.11739 4.02677C7.96113 3.64549 7.73107 3.29885 7.44043 3.00675C7.14979 2.71466 6.8043 2.48288 6.4238 2.32472C6.0433 2.16656 5.63529 2.08514 5.22324 2.08514ZM5.22323 2.58248e-10C5.90998 -6.83538e-06 6.58999 0.135687 7.22414 0.399284C7.8583 0.662883 8.43412 1.04919 8.91852 1.53602C9.40292 2.02284 9.78636 2.60058 10.0468 3.23605C10.3069 3.87067 10.4392 4.55037 10.4361 5.2362V8.24675C10.4361 8.69907 10.1444 9.0998 9.71401 9.23884C8.26398 9.70725 6.7472 9.93562 5.2236 9.91497C3.69946 9.93664 2.18205 9.70817 0.731809 9.23863C0.30172 9.09938 0.010376 8.69882 0.010376 8.24675V5.21286C0.010376 3.83033 0.559587 2.50441 1.53719 1.52681" fill="#7369AB"/>
<path fill-rule="evenodd" clip-rule="evenodd" d="M0.429324 7.40354C0.699063 7.20735 1.04639 7.15206 1.36371 7.2548C2.60123 7.65547 3.89626 7.84973 5.19687 7.82978C5.2073 7.82962 5.21773 7.82961 5.22816 7.82977C6.52917 7.84885 7.82452 7.65455 9.06267 7.25459C9.37995 7.1521 9.72711 7.20754 9.99668 7.40375C10.2663 7.59996 10.4257 7.91326 10.4257 8.24668V8.96606C10.4257 9.32553 10.2405 9.65964 9.93571 9.85016C9.48497 10.1319 9.11346 10.5238 8.85625 10.989C8.59904 11.4541 8.46462 11.9772 8.46569 12.5087L8.46571 12.5229L8.46562 12.5229C8.45719 13.2472 8.70039 13.9519 9.15371 14.5169C9.46323 14.9026 9.45918 15.4527 9.14401 15.8338C8.66645 16.4113 8.07 16.879 7.39532 17.2051C6.72063 17.5312 5.98357 17.708 5.23437 17.7234L5.21286 17.7237C3.83033 17.7237 2.50441 17.1745 1.52681 16.1969C1.04275 15.7128 0.658776 15.1381 0.396805 14.5057C0.134835 13.8732 0 13.1954 0 12.5108V8.24668C0 7.91314 0.159586 7.59973 0.429324 7.40354ZM5.21321 9.91491C4.16068 9.92987 3.11135 9.82554 2.08514 9.60491V12.5108C2.08514 12.9215 2.16605 13.3283 2.32323 13.7077C2.48041 14.0872 2.7108 14.432 3.00123 14.7224C3.58526 15.3065 4.37646 15.6357 5.20211 15.6385C5.64793 15.6278 6.08634 15.5218 6.48793 15.3277C6.66754 15.2409 6.83791 15.1374 6.99691 15.0188C6.58592 14.2507 6.37148 13.387 6.38054 12.5058C6.37997 11.6223 6.60395 10.7532 7.03148 9.97999C7.06335 9.92236 7.09626 9.8654 7.13021 9.80915C6.49541 9.88813 5.85491 9.9236 5.21321 9.91491Z" fill="#7369AB"/>
<path fill-rule="evenodd" clip-rule="evenodd" d="M14.8231 8.02208C14.9615 7.59066 15.3627 7.29803 15.8158 7.29803H18.7871C20.1696 7.29803 21.4956 7.84725 22.4732 8.82485C23.4508 9.80245 24 11.1284 24 12.5109C24 13.8912 23.4526 15.2151 22.4778 16.1923C21.503 17.1696 20.1804 17.7203 18.8001 17.7238L18.7975 17.7238H15.8158C15.3627 17.7238 14.9615 17.4311 14.8231 16.9997C14.3578 15.5495 14.1297 14.0337 14.1476 12.5109C14.1297 10.9881 14.3578 9.47227 14.8231 8.02208ZM16.6009 9.38318C16.3434 10.3999 16.2194 11.4468 16.2327 12.4977C16.2328 12.5065 16.2328 12.5153 16.2327 12.5241C16.2194 13.575 16.3434 14.6219 16.6009 15.6386H18.7962C19.6239 15.6362 20.4169 15.3058 21.0015 14.7198C21.5864 14.1334 21.9148 13.3391 21.9148 12.5109C21.9148 11.6814 21.5853 10.8858 20.9987 10.2993C20.4122 9.71271 19.6166 9.38318 18.7871 9.38318H16.6009Z" fill="#7369AB"/>
<path fill-rule="evenodd" clip-rule="evenodd" d="M7.89693 8.80397C8.87453 7.82637 10.2004 7.27716 11.583 7.27716H15.8158C16.1489 7.27716 16.4619 7.43629 16.6582 7.70537C16.8544 7.97446 16.9103 8.32112 16.8085 8.63826C16.4107 9.87829 16.2162 11.1746 16.2328 12.4768C16.2329 12.4856 16.2329 12.4944 16.2328 12.5033C16.2162 13.8055 16.4107 15.1018 16.8085 16.3418C16.9103 16.6589 16.8544 17.0056 16.6582 17.2747C16.4619 17.5438 16.1489 17.7029 15.8158 17.7029H11.583C10.2004 17.7029 8.87453 17.1537 7.89693 16.1761C6.91933 15.1985 6.37012 13.8726 6.37012 12.49C6.37012 11.1075 6.91933 9.78157 7.89693 8.80397ZM11.583 9.36231C10.7535 9.36231 9.95791 9.69183 9.37135 10.2784C8.78479 10.865 8.45526 11.6605 8.45526 12.49C8.45526 13.3195 8.78479 14.1151 9.37135 14.7017C9.95791 15.2882 10.7535 15.6177 11.583 15.6177H14.46C14.2403 14.5914 14.1352 13.5424 14.1476 12.49C14.1352 11.4376 14.2403 10.3886 14.46 9.36231H11.583Z" fill="#7369AB"/>
</svg>
