<svg width="32" height="32" viewBox="0 0 32 32" fill="none" xmlns="http://www.w3.org/2000/svg">
<path d="M7.17965 25.2497C7.84256 24.4269 7.71301 23.2226 6.89028 22.5597C6.06756 21.8968 4.86321 22.0263 4.2003 22.8491C3.53739 23.6718 3.66695 24.8761 4.48968 25.539C5.3124 26.202 6.51674 26.0724 7.17965 25.2497Z" fill="#4BA669"/>
<path d="M5.69049 26.3282C4.4344 26.3282 3.41211 25.3059 3.41211 24.0499C3.41211 22.7938 4.4344 21.7715 5.69049 21.7715C6.94658 21.7715 7.96887 22.7938 7.96887 24.0499C7.96887 25.3059 6.94658 26.3282 5.69049 26.3282ZM5.69049 22.5015C4.8368 22.5015 4.14272 23.1956 4.14272 24.0493C4.14272 24.903 4.8368 25.5971 5.69049 25.5971C6.54418 25.5971 7.23826 24.903 7.23826 24.0493C7.23826 23.1956 6.54418 22.5015 5.69049 22.5015Z" fill="#09090D"/>
<path d="M19.7311 0.365736H10.4225C7.88171 0.365736 5.82251 2.42549 5.82251 4.96577V27.0336C5.82251 29.5744 7.88227 31.6336 10.4225 31.6336H23.7028C26.2436 31.6336 28.3028 29.5739 28.3028 27.0336V8.93692L19.7311 0.365173V0.365736Z" fill="white"/>
<path d="M23.7029 31.9994H10.4226C7.68451 31.9994 5.45728 29.7722 5.45728 27.0341V4.96626C5.45728 2.22815 7.68451 0.000915527 10.4226 0.000915527H19.7312C19.8278 0.000915527 19.9211 0.03913 19.9897 0.107695L28.5614 8.67944C28.63 8.74801 28.6682 8.84074 28.6682 8.93797V27.0346C28.6682 29.7727 26.441 32 23.7029 32V31.9994ZM10.4226 0.730964C8.08747 0.730964 6.18789 2.63055 6.18789 4.96569V27.0335C6.18789 29.3687 8.08747 31.2682 10.4226 31.2682H23.7029C26.038 31.2682 27.9376 29.3687 27.9376 27.0335V9.08858L19.58 0.730964H10.4226Z" fill="#09090D"/>
<path d="M19.731 0.365662L28.3027 8.93741H21.5592C20.5498 8.93741 19.731 8.11913 19.731 7.1092V0.365662Z" fill="#E4E4EB"/>
<path d="M28.3039 9.30273H21.5592C20.3498 9.30273 19.3657 8.31866 19.3657 7.10922V0.365682C19.3657 0.217874 19.4545 0.0846775 19.5911 0.0279147C19.7277 -0.0288481 19.8845 0.00262285 19.989 0.107156L28.5439 8.66205C28.6203 8.72892 28.6686 8.82728 28.6686 8.93687C28.6686 9.13863 28.5051 9.30217 28.3033 9.30217L28.3039 9.30273ZM20.0963 1.24747V7.10922C20.0963 7.9157 20.7522 8.57212 21.5592 8.57212H27.421L20.0969 1.24803L20.0963 1.24747Z" fill="#09090D"/>
<path d="M5.86464 13.0176C4.72826 13.0176 3.80713 13.9387 3.80713 15.0751V23.6912H3.84478C4.028 22.7426 4.86202 22.0254 5.86464 22.0254H26.5848V13.0176H5.86464Z" fill="#4BA669"/>
<path d="M3.84485 24.0566H3.8072C3.60544 24.0566 3.44189 23.893 3.44189 23.6913V15.0751C3.44189 13.7392 4.52882 12.6523 5.86471 12.6523H26.5848C26.7866 12.6523 26.9501 12.8158 26.9501 13.0176V22.0255C26.9501 22.2272 26.7866 22.3908 26.5848 22.3908H5.86471C5.05542 22.3908 4.35684 22.9668 4.20342 23.7604C4.17026 23.9324 4.01964 24.0566 3.84485 24.0566ZM5.86471 13.3829C4.93178 13.3829 4.17251 14.1422 4.17251 15.0751V22.3497C4.61312 21.9204 5.21391 21.6602 5.86471 21.6602H26.2195V13.3829H5.86471Z" fill="#09090D"/>
<path d="M8.50488 15.2865C8.50488 15.1342 8.62965 15.0099 8.77465 15.0099H10.3174C11.4105 15.0099 12.1298 15.5911 12.1298 16.5459V16.56C12.1298 17.6047 11.2582 18.1443 10.2274 18.1443H9.05115V19.6111C9.05115 19.7634 8.92639 19.8876 8.77465 19.8876C8.6229 19.8876 8.50488 19.7628 8.50488 19.6111V15.2876V15.2865ZM10.2482 17.6458C11.0508 17.6458 11.5763 17.217 11.5763 16.5802V16.5661C11.5763 15.8743 11.0575 15.5146 10.2758 15.5146H9.05115V17.6452H10.2477L10.2482 17.6458Z" fill="white"/>
<path d="M13.1265 15.2589C13.1265 15.1133 13.2513 14.9891 13.3963 14.9891H13.4722C13.5969 14.9891 13.6728 15.0515 13.7487 15.1482L16.6885 18.8979V15.2454C16.6885 15.0999 16.806 14.9756 16.9583 14.9756C17.1106 14.9756 17.2213 15.1004 17.2213 15.2454V19.6173C17.2213 19.7628 17.1174 19.873 16.9724 19.873H16.9448C16.8274 19.873 16.7442 19.8039 16.661 19.7072L13.6588 15.8676V19.6173C13.6588 19.7628 13.5413 19.887 13.389 19.887C13.2367 19.887 13.126 19.7623 13.126 19.6173V15.2589H13.1265Z" fill="white"/>
<path d="M18.3772 17.4451V17.4311C18.3772 16.103 19.3528 14.9268 20.8056 14.9268C21.5391 14.9268 22.0162 15.1206 22.4591 15.4455C22.5214 15.4938 22.5698 15.5703 22.5698 15.6669C22.5698 15.8192 22.445 15.9434 22.3 15.9434C22.2376 15.9434 22.1826 15.9159 22.1269 15.8743C21.7813 15.6113 21.3935 15.4314 20.7848 15.4314C19.7125 15.4314 18.9448 16.3374 18.9448 17.417V17.4311C18.9448 18.5866 19.685 19.4442 20.8613 19.4442C21.4149 19.4442 21.9268 19.2295 22.2584 18.9597V17.7559H20.9579C20.8264 17.7559 20.7157 17.6452 20.7157 17.5137C20.7157 17.3754 20.8264 17.2647 20.9579 17.2647H22.5147C22.6597 17.2647 22.7845 17.3895 22.7845 17.5412V19.0148C22.7845 19.1463 22.7221 19.2638 22.5979 19.347C22.155 19.6724 21.5604 19.9348 20.8405 19.9348C19.3186 19.9348 18.3778 18.8282 18.3778 17.4446L18.3772 17.4451Z" fill="white"/>
</svg>
