<svg width="24" height="24" viewBox="0 0 24 24" fill="none" xmlns="http://www.w3.org/2000/svg">
<g id="Poop" clip-path="url(#clip0_1210_3246)">
<path id="Vector (Stroke)" fill-rule="evenodd" clip-rule="evenodd" d="M13.5452 1.17148C13.5453 1.17109 13.5453 1.17071 13.5454 1.17033C13.5958 0.758131 13.3971 0.355178 13.0392 0.144378C12.681 -0.0666172 12.2317 -0.0448422 11.8956 0.199805L12.5096 1.04348C11.8956 0.199805 11.8957 0.199732 11.8956 0.199805L11.8919 0.202494L11.8833 0.208768L11.852 0.231752C11.8251 0.251607 11.7862 0.280403 11.7368 0.317289C11.6382 0.391033 11.4974 0.49728 11.3267 0.629215C10.9858 0.892553 10.5216 1.26083 10.0312 1.67908C9.54277 2.09563 9.0167 2.57152 8.55702 3.04962C8.1128 3.51165 7.66779 4.03932 7.40498 4.55775C7.38554 4.59609 7.36849 4.63561 7.35392 4.67606C7.08763 5.41563 6.94866 6.19282 6.94085 6.97474C6.03105 7.34443 5.22665 7.94393 4.61004 8.72093C3.81069 9.72821 3.37352 10.9751 3.36877 12.2608C3.36141 12.7102 3.40727 13.1578 3.50465 13.5944C2.8745 14.0216 2.33351 14.5723 1.91636 15.2166C1.33115 16.1204 1.01352 17.1713 1.00013 18.2479L1.00006 18.2562C0.996695 19.0093 1.14212 19.7556 1.42798 20.4523C1.71385 21.1491 2.13452 21.7824 2.66584 22.3161C3.19717 22.8498 3.82868 23.2733 4.52412 23.5623C5.21956 23.8513 5.96523 24 6.71832 24H17.3826C18.1357 24 18.8814 23.8513 19.5768 23.5623C20.2723 23.2733 20.9038 22.8498 21.4351 22.3161C21.9664 21.7824 22.3871 21.1491 22.673 20.4523C22.9588 19.7556 23.1043 19.0093 23.1009 18.2562L23.1008 18.2479C23.0874 17.1713 22.7698 16.1204 22.1846 15.2166C21.7691 14.575 21.2309 14.026 20.604 13.5996C20.7027 13.1765 20.753 12.7426 20.7531 12.3061C20.7618 11.0085 20.328 9.74654 19.5233 8.72843C18.8733 7.90612 18.0127 7.28256 17.0394 6.91969C16.902 6.31115 16.6153 5.74173 16.2 5.26525C15.6115 4.59005 14.8029 4.14534 13.9178 4.00983C13.9052 4.00746 13.8999 4.00462 13.8881 3.99453C13.8676 3.97699 13.8237 3.93005 13.771 3.82581C13.6586 3.60364 13.5743 3.25919 13.5308 2.83073C13.4888 2.41729 13.4917 1.99927 13.5068 1.67699C13.5142 1.51795 13.5244 1.387 13.5324 1.2976C13.5365 1.253 13.54 1.21902 13.5423 1.19737L13.5449 1.17445L13.5452 1.17148ZM11.4715 3.19388C11.4429 3.21807 11.4142 3.24245 11.3854 3.26701C10.9256 3.65916 10.4558 4.08588 10.0614 4.49604C9.68094 4.89179 9.4234 5.2186 9.29401 5.44972C9.05639 6.14071 8.97609 6.87639 9.05935 7.60294C9.11958 8.12853 8.77695 8.61603 8.26202 8.73739C7.46469 8.92531 6.75401 9.37656 6.24479 10.0182C5.73557 10.6599 5.45757 11.4545 5.4557 12.2737L5.45553 12.2899C5.44696 12.772 5.53504 13.2509 5.71458 13.6984C5.92124 14.2135 5.6885 14.8003 5.18492 15.0337C4.56521 15.3209 4.03938 15.7776 3.66815 16.3509C3.29767 16.9231 3.09624 17.5882 3.08698 18.2697C3.08539 18.7465 3.17773 19.219 3.35874 19.6601C3.54028 20.1026 3.80742 20.5048 4.14483 20.8437C4.48224 21.1827 4.88327 21.4516 5.3249 21.6351C5.76653 21.8186 6.24006 21.913 6.7183 21.913H17.3827C17.8609 21.913 18.3344 21.8186 18.7761 21.6351C19.2177 21.4516 19.6187 21.1826 19.9561 20.8437C20.2935 20.5048 20.5607 20.1026 20.7422 19.6601C20.9232 19.2189 21.0156 18.7464 21.014 18.2696C21.0047 17.5881 20.8033 16.923 20.4328 16.3509C20.0616 15.7776 19.5357 15.3209 18.916 15.0337C18.4083 14.7984 18.1766 14.2043 18.3909 13.6874C18.5728 13.2485 18.6663 12.7781 18.6661 12.3031L18.6661 12.2948C18.6723 11.4707 18.3971 10.6691 17.886 10.0226C17.375 9.376 16.6586 8.92313 15.8553 8.73878C15.3858 8.63101 15.051 8.21577 15.0453 7.73402C15.0406 7.33008 14.8922 6.94101 14.6268 6.63648C14.3614 6.33195 13.9962 6.13183 13.5967 6.07195L13.5808 6.06945C12.7216 5.92712 12.1986 5.34117 11.9086 4.76757C11.6548 4.26564 11.5326 3.69509 11.4715 3.19388Z" fill="#7369AB"/>
</g>
<defs>
<clipPath id="clip0_1210_3246">
<rect width="24" height="24" fill="white"/>
</clipPath>
</defs>
</svg>
