<svg width="24" height="24" viewBox="0 0 24 24" fill="none" xmlns="http://www.w3.org/2000/svg">
<path fill-rule="evenodd" clip-rule="evenodd" d="M6 6C6 4.34315 7.34315 3 9 3H15C16.6569 3 18 4.34315 18 6V8C18 8.55228 17.5523 9 17 9H7C6.44772 9 6 8.55228 6 8V6ZM9 5C8.44772 5 8 5.44772 8 6V7H16V6C16 5.44772 15.5523 5 15 5H9Z" fill="#7369AB"/>
<path fill-rule="evenodd" clip-rule="evenodd" d="M6 14C6 13.4477 6.44772 13 7 13H17C17.5523 13 18 13.4477 18 14V18C18 19.6569 16.6569 21 15 21H9C7.34315 21 6 19.6569 6 18V14ZM8 15V18C8 18.5523 8.44772 19 9 19H15C15.5523 19 16 18.5523 16 18V15H8Z" fill="#7369AB"/>
<path fill-rule="evenodd" clip-rule="evenodd" d="M2 10C2 8.34315 3.34315 7 5 7H19C20.6569 7 22 8.34315 22 10V17C22 17.5523 21.5523 18 21 18H18C17.4477 18 17 17.5523 17 17C17 16.4477 17.4477 16 18 16H20V10C20 9.44772 19.5523 9 19 9H5C4.44772 9 4 9.44772 4 10V16H6C6.55228 16 7 16.4477 7 17C7 17.5523 6.55228 18 6 18H3C2.44772 18 2 17.5523 2 17V10Z" fill="#7369AB"/>
<path fill-rule="evenodd" clip-rule="evenodd" d="M15 11C15 10.4477 15.4477 10 16 10L18 10C18.5523 10 19 10.4477 19 11C19 11.5523 18.5523 12 18 12L16 12C15.4477 12 15 11.5523 15 11Z" fill="#7369AB"/>
</svg>
