<svg width="24" height="24" viewBox="0 0 24 24" fill="none" xmlns="http://www.w3.org/2000/svg">
<path fill-rule="evenodd" clip-rule="evenodd" d="M8.84699 5H8C7.44772 5 7 4.55228 7 4C7 3.44772 7.44772 3 8 3H10H14H16C16.5523 3 17 3.44772 17 4C17 4.55228 16.5523 5 16 5H15.153L15.8666 9.99517C16.2261 10.1989 16.5668 10.4329 16.8828 10.6962C18.2091 11.8015 19 13.3437 19 15C19 15.5523 18.5523 16 18 16H12L6 16C5.44772 16 5 15.5523 5 15C5 13.3437 5.79093 11.8015 7.11718 10.6962C7.43316 10.4329 7.77385 10.1989 8.13339 9.99517L8.84699 5ZM10.8673 5L10.0406 10.7872C9.99294 11.1205 9.78085 11.4074 9.47623 11.5507C9.07954 11.7373 8.71669 11.9667 8.39754 12.2327C7.78492 12.7432 7.3704 13.3553 7.16053 14L12 14H16.8395C16.6296 13.3553 16.2151 12.7432 15.6025 12.2327C15.2833 11.9667 14.9205 11.7373 14.5238 11.5507C14.2191 11.4074 14.0071 11.1205 13.9594 10.7872L13.1327 5H10.8673Z" fill="#7369AB"/>
<path fill-rule="evenodd" clip-rule="evenodd" d="M12 14C12.5523 14 13 14.4477 13 15V20C13 20.5523 12.5523 21 12 21C11.4477 21 11 20.5523 11 20V15C11 14.4477 11.4477 14 12 14Z" fill="#7369AB"/>
</svg>
