<svg width="32" height="32" viewBox="0 0 32 32" fill="none" xmlns="http://www.w3.org/2000/svg">
<path d="M7.05824 25.4017C7.80534 24.6546 7.80535 23.4433 7.05825 22.6962C6.31114 21.9491 5.09985 21.9491 4.35275 22.6962C3.60564 23.4433 3.60565 24.6546 4.35275 25.4017C5.09985 26.1488 6.31114 26.1488 7.05824 25.4017Z" fill="#FA7D59"/>
<path d="M5.70587 26.3282C4.44978 26.3282 3.42749 25.3059 3.42749 24.0499C3.42749 22.7938 4.44978 21.7715 5.70587 21.7715C6.96196 21.7715 7.98425 22.7938 7.98425 24.0499C7.98425 25.3059 6.96196 26.3282 5.70587 26.3282ZM5.70587 22.5015C4.85218 22.5015 4.1581 23.1956 4.1581 24.0493C4.1581 24.903 4.85218 25.5971 5.70587 25.5971C6.55956 25.5971 7.25364 24.903 7.25364 24.0493C7.25364 23.1956 6.55956 22.5015 5.70587 22.5015Z" fill="#09090D"/>
<path d="M19.7465 0.365736H10.4379C7.89709 0.365736 5.83789 2.42549 5.83789 4.96577V27.0336C5.83789 29.5744 7.89765 31.6336 10.4379 31.6336H23.7182C26.259 31.6336 28.3182 29.5739 28.3182 27.0336V8.93692L19.7465 0.365173V0.365736Z" fill="white"/>
<path d="M23.7175 31.9994H10.4373C7.69916 31.9994 5.47192 29.7722 5.47192 27.0341V4.96626C5.47192 2.22815 7.69916 0.000915527 10.4373 0.000915527H19.7458C19.8425 0.000915527 19.9358 0.03913 20.0043 0.107695L28.5761 8.67944C28.6446 8.74801 28.6829 8.84074 28.6829 8.93797V27.0346C28.6829 29.7727 26.4556 32 23.7175 32V31.9994ZM10.4373 0.730964C8.10212 0.730964 6.20253 2.63055 6.20253 4.96569V27.0335C6.20253 29.3687 8.10212 31.2682 10.4373 31.2682H23.7175C26.0527 31.2682 27.9523 29.3687 27.9523 27.0335V9.08858L19.5946 0.730964H10.4373Z" fill="#09090D"/>
<path d="M19.7466 0.365662L28.3183 8.93741H21.5748C20.5654 8.93741 19.7466 8.11913 19.7466 7.1092V0.365662Z" fill="#E4E4EB"/>
<path d="M28.3188 9.30273H21.5741C20.3647 9.30273 19.3806 8.31866 19.3806 7.10922V0.365682C19.3806 0.217874 19.4694 0.0846775 19.606 0.0279147C19.7425 -0.0288481 19.8993 0.00262285 20.0039 0.107156L28.5588 8.66205C28.6352 8.72892 28.6835 8.82728 28.6835 8.93687C28.6835 9.13863 28.52 9.30217 28.3182 9.30217L28.3188 9.30273ZM20.1118 1.24747V7.10922C20.1118 7.9157 20.7676 8.57212 21.5747 8.57212H27.4364L20.1124 1.24803L20.1118 1.24747Z" fill="#09090D"/>
<path d="M5.87954 13.0176C4.74316 13.0176 3.82202 13.9387 3.82202 15.0751V23.6912H3.85968C4.04289 22.7426 4.87692 22.0254 5.87954 22.0254H26.5997V13.0176H5.87954Z" fill="#FA7D59"/>
<path d="M3.85975 24.0566H3.82209C3.62033 24.0566 3.45679 23.893 3.45679 23.6913V15.0751C3.45679 13.7392 4.54372 12.6523 5.87961 12.6523H26.5997C26.8015 12.6523 26.965 12.8158 26.965 13.0176V22.0255C26.965 22.2272 26.8015 22.3908 26.5997 22.3908H5.87961C5.07032 22.3908 4.37174 22.9668 4.21831 23.7604C4.18515 23.9324 4.03453 24.0566 3.85975 24.0566ZM5.87961 13.3829C4.94668 13.3829 4.1874 14.1422 4.1874 15.0751V22.3497C4.62801 21.9204 5.2288 21.6602 5.87961 21.6602H26.2344V13.3829H5.87961Z" fill="#09090D"/>
<path d="M8.698 15.2865C8.698 15.1342 8.82277 15.0099 8.96776 15.0099H10.7802C11.3754 15.0099 11.8526 15.1898 12.1572 15.4944C12.3926 15.7299 12.5309 16.0688 12.5309 16.4492V16.4633C12.5309 17.2591 11.9914 17.7222 11.2372 17.8678L12.441 19.4172C12.4961 19.4796 12.5309 19.542 12.5309 19.6178C12.5309 19.7634 12.3926 19.8876 12.2544 19.8876C12.1437 19.8876 12.0605 19.8252 11.9987 19.7421L10.6358 17.9712H9.24539V19.6105C9.24539 19.7628 9.12063 19.8871 8.96889 19.8871C8.81715 19.8871 8.69912 19.7623 8.69912 19.6105V15.287L8.698 15.2865ZM10.7319 17.4794C11.458 17.4794 11.9773 17.1057 11.9773 16.483V16.4689C11.9773 15.8738 11.521 15.5141 10.7392 15.5141H9.24484V17.4789H10.7319V17.4794Z" fill="white"/>
<path d="M13.4028 19.4925L15.3676 15.1965C15.4367 15.0442 15.5407 14.9543 15.7133 14.9543H15.7408C15.9066 14.9543 16.0173 15.0442 16.0797 15.1965L18.0445 19.4858C18.0653 19.5341 18.0793 19.5824 18.0793 19.624C18.0793 19.769 17.9618 19.887 17.8163 19.887C17.6848 19.887 17.5949 19.7971 17.5465 19.6864L17.0413 18.5725H14.3847L13.8794 19.6999C13.8311 19.8173 13.7412 19.8865 13.6164 19.8865C13.4781 19.8865 13.3674 19.7758 13.3674 19.6375C13.3674 19.5959 13.3742 19.5476 13.4023 19.4925H13.4028ZM16.8272 18.0746L15.7133 15.5978L14.5993 18.0746H16.8272Z" fill="white"/>
<path d="M19.1238 15.2865C19.1238 15.1342 19.2485 15.0099 19.3935 15.0099H21.206C21.8012 15.0099 22.2783 15.1898 22.5829 15.4944C22.8184 15.7299 22.9567 16.0688 22.9567 16.4492V16.4633C22.9567 17.2591 22.4172 17.7222 21.6629 17.8678L22.8668 19.4172C22.9218 19.4796 22.9567 19.542 22.9567 19.6178C22.9567 19.7634 22.8184 19.8876 22.6802 19.8876C22.5695 19.8876 22.4863 19.8252 22.4245 19.7421L21.0616 17.9712H19.6712V19.6105C19.6712 19.7628 19.5464 19.8871 19.3947 19.8871C19.2429 19.8871 19.1249 19.7623 19.1249 19.6105V15.287L19.1238 15.2865ZM21.1577 17.4794C21.8838 17.4794 22.4031 17.1057 22.4031 16.483V16.4689C22.4031 15.8738 21.9468 15.5141 21.165 15.5141H19.6706V17.4789H21.1577V17.4794Z" fill="white"/>
</svg>
