<svg width="24" height="24" viewBox="0 0 24 24" fill="none" xmlns="http://www.w3.org/2000/svg">
<path fill-rule="evenodd" clip-rule="evenodd" d="M2 6C2 4.34315 3.34315 3 5 3H19C20.6569 3 22 4.34315 22 6V12C22 12.5523 21.5523 13 21 13C20.4477 13 20 12.5523 20 12V11H4V18C4 18.5523 4.44772 19 5 19H12C12.5523 19 13 19.4477 13 20C13 20.5523 12.5523 21 12 21H5C3.34315 21 2 19.6569 2 18V6ZM4 9H20V6C20 5.44772 19.5523 5 19 5H5C4.44772 5 4 5.44772 4 6V9Z" fill="#7369AB"/>
<path fill-rule="evenodd" clip-rule="evenodd" d="M17.4818 15.0676L19.9324 17.5182C19.9765 17.353 20 17.1793 20 17C20 15.8954 19.1046 15 18 15C17.8207 15 17.647 15.0235 17.4818 15.0676ZM18.5182 18.9324L16.0676 16.4818C16.0235 16.647 16 16.8207 16 17C16 18.1046 16.8954 19 18 19C18.1793 19 18.353 18.9765 18.5182 18.9324ZM15.1716 14.1716C15.8943 13.4488 16.8957 13 18 13C20.2091 13 22 14.7909 22 17C22 18.1043 21.5512 19.1057 20.8284 19.8284C20.1057 20.5512 19.1043 21 18 21C15.7909 21 14 19.2091 14 17C14 15.8957 14.4488 14.8943 15.1716 14.1716Z" fill="#7369AB"/>
<path d="M7 7C7 7.55228 6.55228 8 6 8C5.44772 8 5 7.55228 5 7C5 6.44772 5.44772 6 6 6C6.55228 6 7 6.44772 7 7Z" fill="#7369AB"/>
<path d="M10 7C10 7.55228 9.55228 8 9 8C8.44772 8 8 7.55228 8 7C8 6.44772 8.44772 6 9 6C9.55228 6 10 6.44772 10 7Z" fill="#7369AB"/>
</svg>
