<svg width="24" height="24" viewBox="0 0 24 24" fill="none" xmlns="http://www.w3.org/2000/svg">
<path fill-rule="evenodd" clip-rule="evenodd" d="M5 6C4.44772 6 4 6.44772 4 7V17C4 17.5523 4.44772 18 5 18H11C11.5523 18 12 18.4477 12 19C12 19.5523 11.5523 20 11 20H5C3.34315 20 2 18.6569 2 17V7C2 5.34315 3.34315 4 5 4H9.58579C10.1162 4 10.6249 4.21071 11 4.58579L12.4142 6H19C20.6569 6 22 7.34315 22 9V10C22 10.5523 21.5523 11 21 11C20.4477 11 20 10.5523 20 10V9C20 8.44772 19.5523 8 19 8H12C11.7348 8 11.4804 7.89464 11.2929 7.70711L9.58579 6H5Z" fill="#7369AB"/>
<path fill-rule="evenodd" clip-rule="evenodd" d="M16.5862 14.172L19.828 17.4138C19.9391 17.1308 20 16.8227 20 16.5C20 15.1193 18.8807 14 17.5 14C17.1773 14 16.8692 14.0609 16.5862 14.172ZM18.4138 18.828L15.172 15.5862C15.0609 15.8692 15 16.1773 15 16.5C15 17.8807 16.1193 19 17.5 19C17.8227 19 18.1308 18.9391 18.4138 18.828ZM14.318 13.318C15.1313 12.5048 16.2576 12 17.5 12C19.9853 12 22 14.0147 22 16.5C22 17.7424 21.4952 18.8687 20.682 19.682C19.8687 20.4952 18.7424 21 17.5 21C15.0147 21 13 18.9853 13 16.5C13 15.2576 13.5048 14.1313 14.318 13.318Z" fill="#7369AB"/>
</svg>
