<svg width="24" height="24" viewBox="0 0 24 24" fill="none" xmlns="http://www.w3.org/2000/svg">
<path fill-rule="evenodd" clip-rule="evenodd" d="M6 5C5.44772 5 5 5.44772 5 6V14C5 14.5523 5.44772 15 6 15H18C18.5523 15 19 14.5523 19 14V13C19 12.4477 19.4477 12 20 12C20.5523 12 21 12.4477 21 13V14C21 15.6569 19.6569 17 18 17H6C4.34315 17 3 15.6569 3 14V6C3 4.34315 4.34315 3 6 3H11C11.5523 3 12 3.44772 12 4C12 4.55228 11.5523 5 11 5H6Z" fill="#7369AB"/>
<path fill-rule="evenodd" clip-rule="evenodd" d="M15.1716 3.17156C15.5621 2.78103 16.1952 2.78103 16.5858 3.17156L18.3787 4.96445L20.1716 3.17156C20.5621 2.78103 21.1952 2.78103 21.5858 3.17156C21.9763 3.56208 21.9763 4.19524 21.5858 4.58577L19.7929 6.37866L21.5858 8.17156C21.9763 8.56208 21.9763 9.19524 21.5858 9.58577C21.1952 9.97629 20.5621 9.97629 20.1716 9.58577L18.3787 7.79288L16.5858 9.58577C16.1952 9.97629 15.5621 9.97629 15.1716 9.58577C14.781 9.19524 14.781 8.56208 15.1716 8.17156L16.9644 6.37866L15.1716 4.58577C14.781 4.19524 14.781 3.56208 15.1716 3.17156Z" fill="#7369AB"/>
<path fill-rule="evenodd" clip-rule="evenodd" d="M12 15C12.5523 15 13 15.4477 13 16V20C13 20.5523 12.5523 21 12 21C11.4477 21 11 20.5523 11 20V16C11 15.4477 11.4477 15 12 15Z" fill="#7369AB"/>
<path fill-rule="evenodd" clip-rule="evenodd" d="M7 20C7 19.4477 7.44772 19 8 19H16C16.5523 19 17 19.4477 17 20C17 20.5523 16.5523 21 16 21H8C7.44772 21 7 20.5523 7 20Z" fill="#7369AB"/>
</svg>
