<svg width="24" height="24" viewBox="0 0 24 24" fill="none" xmlns="http://www.w3.org/2000/svg">
<path fill-rule="evenodd" clip-rule="evenodd" d="M2 8C2 6.34315 3.34315 5 5 5H19C20.6569 5 22 6.34315 22 8V11.5C22 12.0523 21.5523 12.5 21 12.5C20.4477 12.5 20 12.0523 20 11.5V8C20 7.44772 19.5523 7 19 7H5C4.44772 7 4 7.44772 4 8V17C4 17.5523 4.44772 18 5 18H12C12.5523 18 13 18.4477 13 19C13 19.5523 12.5523 20 12 20H5C3.34315 20 2 18.6569 2 17V8Z" fill="#7369AB"/>
<path fill-rule="evenodd" clip-rule="evenodd" d="M17.4818 15.0676L19.9324 17.5182C19.9765 17.353 20 17.1793 20 17C20 15.8954 19.1046 15 18 15C17.8207 15 17.647 15.0235 17.4818 15.0676ZM18.5182 18.9324L16.0676 16.4818C16.0235 16.647 16 16.8207 16 17C16 18.1046 16.8954 19 18 19C18.1793 19 18.353 18.9765 18.5182 18.9324ZM15.1716 14.1716C15.8943 13.4488 16.8957 13 18 13C20.2091 13 22 14.7909 22 17C22 18.1043 21.5512 19.1057 20.8284 19.8284C20.1057 20.5512 19.1043 21 18 21C15.7909 21 14 19.2091 14 17C14 15.8957 14.4488 14.8943 15.1716 14.1716Z" fill="#7369AB"/>
<path fill-rule="evenodd" clip-rule="evenodd" d="M2 10C2 9.44772 2.44772 9 3 9H20.5C21.0523 9 21.5 9.44772 21.5 10C21.5 10.5523 21.0523 11 20.5 11H3C2.44772 11 2 10.5523 2 10Z" fill="#7369AB"/>
<path fill-rule="evenodd" clip-rule="evenodd" d="M6 15C6 14.4477 6.44772 14 7 14H9C9.55228 14 10 14.4477 10 15C10 15.5523 9.55228 16 9 16H7C6.44772 16 6 15.5523 6 15Z" fill="#7369AB"/>
</svg>
