<svg width="24" height="24" viewBox="0 0 24 24" fill="none" xmlns="http://www.w3.org/2000/svg">
<path fill-rule="evenodd" clip-rule="evenodd" d="M7 6C6.44772 6 6 6.44772 6 7V15H18V13.5C18 12.9477 18.4477 12.5 19 12.5C19.5523 12.5 20 12.9477 20 13.5V16C20 16.5523 19.5523 17 19 17H5C4.44772 17 4 16.5523 4 16V7C4 5.34315 5.34315 4 7 4H11C11.5523 4 12 4.44772 12 5C12 5.55228 11.5523 6 11 6H7Z" fill="#7369AB"/>
<path fill-rule="evenodd" clip-rule="evenodd" d="M16.5862 5.17199L19.828 8.41379C19.9391 8.13084 20 7.82274 20 7.5C20 6.11929 18.8807 5 17.5 5C17.1773 5 16.8692 5.06087 16.5862 5.17199ZM18.4138 9.82801L15.172 6.58621C15.0609 6.86916 15 7.17726 15 7.5C15 8.88071 16.1193 10 17.5 10C17.8227 10 18.1308 9.93913 18.4138 9.82801ZM14.318 4.31802C15.1313 3.50477 16.2576 3 17.5 3C19.9853 3 22 5.01472 22 7.5C22 8.74236 21.4952 9.86874 20.682 10.682C19.8687 11.4952 18.7424 12 17.5 12C15.0147 12 13 9.98528 13 7.5C13 6.25764 13.5048 5.13126 14.318 4.31802Z" fill="#7369AB"/>
<path fill-rule="evenodd" clip-rule="evenodd" d="M2 16C2 15.4477 2.44772 15 3 15H21C21.5523 15 22 15.4477 22 16V17C22 18.6569 20.6569 20 19 20H5C3.34315 20 2 18.6569 2 17V16ZM4 17C4 17.5523 4.44772 18 5 18H19C19.5523 18 20 17.5523 20 17H4Z" fill="#7369AB"/>
</svg>
