<svg width="24" height="24" viewBox="0 0 24 24" fill="none" xmlns="http://www.w3.org/2000/svg">
<path fill-rule="evenodd" clip-rule="evenodd" d="M8 4C6.89543 4 6 4.89543 6 6V18C6 19.1046 6.89543 20 8 20H10C10.5523 20 11 20.4477 11 21C11 21.5523 10.5523 22 10 22H8C5.79086 22 4 20.2091 4 18V6C4 3.79086 5.79086 2 8 2H13.5C13.7691 2 14.0269 2.10847 14.215 2.30088L19.715 7.92588C19.8977 8.11273 20 8.36367 20 8.625V10.8125C20 11.3648 19.5523 11.8125 19 11.8125C18.4477 11.8125 18 11.3648 18 10.8125V9.625H14.5C13.3954 9.625 12.5 8.72957 12.5 7.625V4H8ZM14.5 5.4531L16.6236 7.625H14.5V5.4531Z" fill="#7369AB"/>
<path fill-rule="evenodd" clip-rule="evenodd" d="M15.5862 15.172L18.828 18.4138C18.9391 18.1308 19 17.8227 19 17.5C19 16.1193 17.8807 15 16.5 15C16.1773 15 15.8692 15.0609 15.5862 15.172ZM17.4138 19.828L14.172 16.5862C14.0609 16.8692 14 17.1773 14 17.5C14 18.8807 15.1193 20 16.5 20C16.8227 20 17.1308 19.9391 17.4138 19.828ZM13.318 14.318C14.1313 13.5048 15.2576 13 16.5 13C18.9853 13 21 15.0147 21 17.5C21 18.7424 20.4952 19.8687 19.682 20.682C18.8687 21.4952 17.7424 22 16.5 22C14.0147 22 12 19.9853 12 17.5C12 16.2576 12.5048 15.1313 13.318 14.318Z" fill="#7369AB"/>
</svg>
