<svg width="24" height="24" viewBox="0 0 24 24" fill="none" xmlns="http://www.w3.org/2000/svg">
<path fill-rule="evenodd" clip-rule="evenodd" d="M20.8001 6.39995C21.1314 6.84178 21.0419 7.46858 20.6001 7.79995L14.4001 12.45C12.9778 13.5167 11.0223 13.5167 9.60005 12.45L3.40006 7.8C2.95823 7.46863 2.86869 6.84183 3.20006 6.4C3.53143 5.95817 4.15823 5.86863 4.60006 6.2L10.8001 10.85C11.5112 11.3833 12.4889 11.3833 13.2001 10.85L19.4001 6.19995C19.8419 5.86858 20.4687 5.95812 20.8001 6.39995Z" fill="#7369AB"/>
<path fill-rule="evenodd" clip-rule="evenodd" d="M2 7C2 5.34315 3.34315 4 5 4H19C20.6569 4 22 5.34315 22 7V12C22 12.5523 21.5523 13 21 13C20.4477 13 20 12.5523 20 12V7C20 6.44772 19.5523 6 19 6H5C4.44772 6 4 6.44772 4 7V17C4 17.5523 4.44772 18 5 18H12C12.5523 18 13 18.4477 13 19C13 19.5523 12.5523 20 12 20H5C3.34315 20 2 18.6569 2 17V7Z" fill="#7369AB"/>
<path fill-rule="evenodd" clip-rule="evenodd" d="M17.4818 15.0676L19.9324 17.5182C19.9765 17.353 20 17.1793 20 17C20 15.8954 19.1046 15 18 15C17.8207 15 17.647 15.0235 17.4818 15.0676ZM18.5182 18.9324L16.0676 16.4818C16.0235 16.647 16 16.8207 16 17C16 18.1046 16.8954 19 18 19C18.1793 19 18.353 18.9765 18.5182 18.9324ZM15.1716 14.1716C15.8943 13.4488 16.8957 13 18 13C20.2091 13 22 14.7909 22 17C22 18.1043 21.5512 19.1057 20.8284 19.8284C20.1057 20.5512 19.1043 21 18 21C15.7909 21 14 19.2091 14 17C14 15.8957 14.4488 14.8943 15.1716 14.1716Z" fill="#7369AB"/>
</svg>
