<svg width="24" height="24" viewBox="0 0 24 24" fill="none" xmlns="http://www.w3.org/2000/svg">
<path fill-rule="evenodd" clip-rule="evenodd" d="M6 5C5.44772 5 5 5.44772 5 6V14C5 14.5523 5.44772 15 6 15H18C18.5523 15 19 14.5523 19 14V12C19 11.4477 19.4477 11 20 11C20.5523 11 21 11.4477 21 12V14C21 15.6569 19.6569 17 18 17H6C4.34315 17 3 15.6569 3 14V6C3 4.34315 4.34315 3 6 3H9C9.55228 3 10 3.44772 10 4C10 4.55228 9.55228 5 9 5H6Z" fill="#7369AB"/>
<path fill-rule="evenodd" clip-rule="evenodd" d="M15.5862 4.17199L18.828 7.41379C18.9391 7.13084 19 6.82274 19 6.5C19 5.11929 17.8807 4 16.5 4C16.1773 4 15.8692 4.06087 15.5862 4.17199ZM17.4138 8.82801L14.172 5.58621C14.0609 5.86916 14 6.17726 14 6.5C14 7.88071 15.1193 9 16.5 9C16.8227 9 17.1308 8.93913 17.4138 8.82801ZM13.318 3.31802C14.1313 2.50477 15.2576 2 16.5 2C18.9853 2 21 4.01472 21 6.5C21 7.74236 20.4952 8.86874 19.682 9.68198C18.8687 10.4952 17.7424 11 16.5 11C14.0147 11 12 8.98528 12 6.5C12 5.25764 12.5048 4.13126 13.318 3.31802Z" fill="#7369AB"/>
<path fill-rule="evenodd" clip-rule="evenodd" d="M12 15C12.5523 15 13 15.4477 13 16V20C13 20.5523 12.5523 21 12 21C11.4477 21 11 20.5523 11 20V16C11 15.4477 11.4477 15 12 15Z" fill="#7369AB"/>
<path fill-rule="evenodd" clip-rule="evenodd" d="M7 20C7 19.4477 7.44772 19 8 19H16C16.5523 19 17 19.4477 17 20C17 20.5523 16.5523 21 16 21H8C7.44772 21 7 20.5523 7 20Z" fill="#7369AB"/>
</svg>
