<svg width="24" height="24" viewBox="0 0 24 24" fill="none" xmlns="http://www.w3.org/2000/svg">
<path fill-rule="evenodd" clip-rule="evenodd" d="M12 4C7.58172 4 4 7.58172 4 12C4 16.4183 7.58172 20 12 20C16.4183 20 20 16.4183 20 12C20 7.58172 16.4183 4 12 4ZM2 12C2 6.47715 6.47715 2 12 2C17.5228 2 22 6.47715 22 12C22 17.5228 17.5228 22 12 22C6.47715 22 2 17.5228 2 12Z" fill="#7369AB"/>
<path fill-rule="evenodd" clip-rule="evenodd" d="M7 8C7 7.44772 7.44772 7 8 7H12C13.6569 7 15 8.34315 15 10V11.1429C15 12.7997 13.6569 14.1429 12 14.1429H11.811L14.0275 16.2802C14.425 16.6635 14.4365 17.2966 14.0532 17.6941C13.6698 18.0917 13.0368 18.1032 12.6392 17.7198L8.6392 13.8627C8.34566 13.5797 8.2534 13.1467 8.40601 12.7686C8.55863 12.3905 8.92556 12.1429 9.33333 12.1429H12C12.5523 12.1429 13 11.6951 13 11.1429V10C13 9.44772 12.5523 9 12 9H8C7.44772 9 7 8.55228 7 8Z" fill="#7369AB"/>
<path fill-rule="evenodd" clip-rule="evenodd" d="M7 8C7 7.44772 7.44772 7 8 7L16 7C16.5523 7 17 7.44772 17 8C17 8.55228 16.5523 9 16 9L8 9C7.44772 9 7 8.55228 7 8Z" fill="#7369AB"/>
<path fill-rule="evenodd" clip-rule="evenodd" d="M9 10.5718C9 10.0195 9.44772 9.57178 10 9.57178L16 9.57178C16.5523 9.57178 17 10.0195 17 10.5718C17 11.1241 16.5523 11.5718 16 11.5718L10 11.5718C9.44772 11.5718 9 11.1241 9 10.5718Z" fill="#7369AB"/>
</svg>
