<svg width="24" height="24" viewBox="0 0 24 24" fill="none" xmlns="http://www.w3.org/2000/svg">
<path fill-rule="evenodd" clip-rule="evenodd" d="M6 5C6 4.44772 6.44772 4 7 4H12C14.7614 4 17 6.23858 17 9C17 11.7614 14.7614 14 12 14H11.4142L15.7071 18.2929C16.0976 18.6834 16.0976 19.3166 15.7071 19.7071C15.3166 20.0976 14.6834 20.0976 14.2929 19.7071L8.29289 13.7071C8.0069 13.4211 7.92134 12.991 8.07612 12.6173C8.2309 12.2436 8.59554 12 9 12H12C13.6569 12 15 10.6569 15 9C15 7.34315 13.6569 6 12 6H7C6.44772 6 6 5.55228 6 5Z" fill="#7369AB"/>
<path fill-rule="evenodd" clip-rule="evenodd" d="M5 5C5 4.44772 5.44772 4 6 4L18 4C18.5523 4 19 4.44772 19 5C19 5.55228 18.5523 6 18 6L6 6C5.44772 6 5 5.55228 5 5Z" fill="#7369AB"/>
<path fill-rule="evenodd" clip-rule="evenodd" d="M7 9C7 8.44772 7.44772 8 8 8L18 8C18.5523 8 19 8.44772 19 9C19 9.55229 18.5523 10 18 10L8 10C7.44772 10 7 9.55228 7 9Z" fill="#7369AB"/>
</svg>
