<svg width="24" height="24" viewBox="0 0 24 24" fill="none" xmlns="http://www.w3.org/2000/svg">
<path fill-rule="evenodd" clip-rule="evenodd" d="M12 4C7.58172 4 4 7.58172 4 12C4 16.4183 7.58172 20 12 20C16.4183 20 20 16.4183 20 12C20 7.58172 16.4183 4 12 4ZM2 12C2 6.47715 6.47715 2 12 2C17.5228 2 22 6.47715 22 12C22 17.5228 17.5228 22 12 22C6.47715 22 2 17.5228 2 12Z" fill="#7369AB"/>
<path d="M11 9.5C11 10.3284 10.3284 11 9.5 11C8.67157 11 8 10.3284 8 9.5C8 8.67157 8.67157 8 9.5 8C10.3284 8 11 8.67157 11 9.5Z" fill="#7369AB"/>
<path d="M16 9.5C16 10.3284 15.3284 11 14.5 11C13.6716 11 13 10.3284 13 9.5C13 8.67157 13.6716 8 14.5 8C15.3284 8 16 8.67157 16 9.5Z" fill="#7369AB"/>
<path fill-rule="evenodd" clip-rule="evenodd" d="M6.76744 16.2438C6.4154 15.8183 6.47498 15.1879 6.90053 14.8359C8.33494 13.6493 10.1383 13 11.9999 13C13.8616 13 15.6649 13.6493 17.0993 14.8359C17.5249 15.1879 17.5844 15.8183 17.2324 16.2438C16.8804 16.6694 16.25 16.729 15.8245 16.3769C14.7487 15.4869 13.3961 15 11.9999 15C10.6037 15 9.25118 15.4869 8.17538 16.3769C7.74983 16.729 7.11948 16.6694 6.76744 16.2438Z" fill="#7369AB"/>
</svg>
