<svg width="24" height="24" viewBox="0 0 24 24" fill="none" xmlns="http://www.w3.org/2000/svg">
<path fill-rule="evenodd" clip-rule="evenodd" d="M6 12C6 10.3431 7.34315 9 9 9H15C16.6569 9 18 10.3431 18 12V18C18 19.6569 16.6569 21 15 21H9C7.34315 21 6 19.6569 6 18V12ZM9 11C8.44772 11 8 11.4477 8 12V18C8 18.5523 8.44772 19 9 19H15C15.5523 19 16 18.5523 16 18V12C16 11.4477 15.5523 11 15 11H9Z" fill="#7369AB"/>
<path fill-rule="evenodd" clip-rule="evenodd" d="M12 12C12.5523 12 13 12.4477 13 13V14L14 14C14.5523 14 15 14.4477 15 15C15 15.5523 14.5523 16 14 16L13 16L13 17C13 17.5523 12.5523 18 12 18C11.4477 18 11 17.5523 11 17L11 16H10C9.44772 16 9 15.5523 9 15C9 14.4477 9.44772 14 10 14L11 14V13C11 12.4477 11.4477 12 12 12Z" fill="#7369AB"/>
<path fill-rule="evenodd" clip-rule="evenodd" d="M9 7C9 6.44772 9.44772 6 10 6H14C14.5523 6 15 6.44772 15 7V10C15 10.5523 14.5523 11 14 11H10C9.44772 11 9 10.5523 9 10V7ZM11 8V9H13V8H11Z" fill="#7369AB"/>
<path fill-rule="evenodd" clip-rule="evenodd" d="M12 3C12.5523 3 13 3.44772 13 4V7C13 7.55228 12.5523 8 12 8C11.4477 8 11 7.55228 11 7V4C11 3.44772 11.4477 3 12 3Z" fill="#7369AB"/>
<path fill-rule="evenodd" clip-rule="evenodd" d="M9 4C9 3.44772 9.44772 3 10 3H14.1716C14.9672 3 15.7303 3.31607 16.2929 3.87868L17.7071 5.29289C18.0976 5.68342 18.0976 6.31658 17.7071 6.70711C17.3166 7.09763 16.6834 7.09763 16.2929 6.70711L14.8787 5.29289C14.6911 5.10536 14.4368 5 14.1716 5H10C9.44772 5 9 4.55228 9 4Z" fill="#7369AB"/>
</svg>
