<svg width="24" height="24" viewBox="0 0 24 24" fill="none" xmlns="http://www.w3.org/2000/svg">
<g id="Satellite">
<path id="Ellipse 37" d="M14.4748 11.4246C14.6141 11.2853 14.7246 11.12 14.8 10.938C14.8754 10.756 14.9142 10.5609 14.9142 10.364C14.9142 10.167 14.8754 9.97193 14.8 9.78994C14.7246 9.60795 14.6141 9.44259 14.4748 9.30331C14.3356 9.16402 14.1702 9.05353 13.9882 8.97815C13.8062 8.90276 13.6112 8.86397 13.4142 8.86397C13.2172 8.86397 13.0221 8.90276 12.8402 8.97815C12.6582 9.05353 12.4928 9.16402 12.3535 9.30331L13.4142 10.364L14.4748 11.4246Z" fill="#7369AB"/>
<path id="Vector (Stroke)" fill-rule="evenodd" clip-rule="evenodd" d="M14.2994 3.04315C14.4554 2.51333 15.0113 2.21024 15.5411 2.36617C16.9954 2.79419 18.3179 3.58262 19.3861 4.65829C20.4543 5.73397 21.2335 7.06204 21.6514 8.51926C21.8036 9.05016 21.4966 9.60393 20.9657 9.75616C20.4348 9.90839 19.8811 9.60143 19.7288 9.07054C19.4038 7.93714 18.7978 6.9042 17.967 6.06756C17.1362 5.23092 16.1075 4.6177 14.9764 4.2848C14.4466 4.12887 14.1435 3.57296 14.2994 3.04315ZM7.35177 5.29289C7.74229 4.90237 8.37546 4.90237 8.76598 5.29289L18.7071 15.234C19.0976 15.6245 19.0976 16.2577 18.7071 16.6482C17.9615 17.3938 17.0763 17.9853 16.1022 18.3888C15.128 18.7923 14.0839 19 13.0294 19C11.975 19 10.9309 18.7923 9.9567 18.3888C9.3708 18.1461 8.81709 17.8354 8.30657 17.4641L6.77325 20H10C10.5523 20 11 20.4477 11 21C11 21.5523 10.5523 22 10 22H5C4.63912 22 4.30623 21.8056 4.12896 21.4912C3.95169 21.1769 3.95754 20.7914 4.14427 20.4826L6.81866 16.0596C6.32037 15.4515 5.91317 14.7723 5.6112 14.0433C5.20769 13.0691 5 12.025 5 10.9706C5 9.91612 5.20769 8.872 5.6112 7.89783C6.01472 6.92365 6.60617 6.03849 7.35177 5.29289ZM8.11792 7.47326C7.85471 7.84291 7.63344 8.24197 7.45896 8.6632C7.15596 9.39472 7 10.1788 7 10.9706C7 11.7624 7.15596 12.5464 7.45896 13.2779C7.76197 14.0095 8.2061 14.6741 8.76598 15.234C9.32587 15.7939 9.99055 16.238 10.7221 16.541C11.4536 16.844 12.2376 17 13.0294 17C13.8212 17 14.6053 16.844 15.3368 16.541C15.758 16.3666 16.1571 16.1453 16.5267 15.8821L8.11792 7.47326ZM14.1028 6.02165C14.3256 5.51634 14.916 5.28737 15.4213 5.51024C16.8176 6.12608 17.9267 7.25085 18.523 8.65561C18.7388 9.16399 18.5016 9.75105 17.9933 9.96685C17.4849 10.1826 16.8978 9.94545 16.682 9.43707C16.2845 8.50056 15.545 7.75072 14.6142 7.34016C14.1089 7.11729 13.8799 6.52697 14.1028 6.02165Z" fill="#7369AB"/>
</g>
</svg>
