<svg width="24" height="24" viewBox="0 0 24 24" fill="none" xmlns="http://www.w3.org/2000/svg">
<path fill-rule="evenodd" clip-rule="evenodd" d="M6 5C5.44772 5 5 5.44772 5 6V18C5 18.5523 5.44772 19 6 19H18C18.5523 19 19 18.5523 19 18V9.82843C19 9.56321 18.8946 9.30886 18.7071 9.12132L14.8787 5.29289C14.6911 5.10536 14.4368 5 14.1716 5H6ZM3 6C3 4.34315 4.34315 3 6 3H14.1716C14.9672 3 15.7303 3.31607 16.2929 3.87868L20.1213 7.70711C20.6839 8.26972 21 9.03278 21 9.82843V18C21 19.6569 19.6569 21 18 21H6C4.34315 21 3 19.6569 3 18V6Z" fill="#7369AB"/>
<path fill-rule="evenodd" clip-rule="evenodd" d="M7 4C7 3.44772 7.44772 3 8 3H13C13.5523 3 14 3.44772 14 4V7C14 8.10457 13.1046 9 12 9H9C7.89543 9 7 8.10457 7 7V4ZM9 5V7H12V5H9Z" fill="#7369AB"/>
<path fill-rule="evenodd" clip-rule="evenodd" d="M6 15C6 13.3431 7.34315 12 9 12H15C16.6569 12 18 13.3431 18 15V20C18 20.5523 17.5523 21 17 21H7C6.44772 21 6 20.5523 6 20V15ZM9 14C8.44772 14 8 14.4477 8 15V19H16V15C16 14.4477 15.5523 14 15 14H9Z" fill="#7369AB"/>
</svg>
