<svg width="24" height="24" viewBox="0 0 24 24" fill="none" xmlns="http://www.w3.org/2000/svg">
<path fill-rule="evenodd" clip-rule="evenodd" d="M6.5 5C5.67157 5 5 5.67157 5 6.5C5 7.32843 5.67157 8 6.5 8C7.32843 8 8 7.32843 8 6.5C8 5.67157 7.32843 5 6.5 5ZM3 6.5C3 4.567 4.567 3 6.5 3C8.433 3 10 4.567 10 6.5C10 8.433 8.433 10 6.5 10C4.567 10 3 8.433 3 6.5Z" fill="#7369AB"/>
<path fill-rule="evenodd" clip-rule="evenodd" d="M6.5 16C5.67157 16 5 16.6716 5 17.5C5 18.3284 5.67157 19 6.5 19C7.32843 19 8 18.3284 8 17.5C8 16.6716 7.32843 16 6.5 16ZM3 17.5C3 15.567 4.567 14 6.5 14C8.433 14 10 15.567 10 17.5C10 19.433 8.433 21 6.5 21C4.567 21 3 19.433 3 17.5Z" fill="#7369AB"/>
<path fill-rule="evenodd" clip-rule="evenodd" d="M20.8485 5.73842C21.1408 6.20702 20.9979 6.82385 20.5293 7.11613L6.52924 15.8485C6.06064 16.1408 5.44382 15.9978 5.15153 15.5292C4.85925 15.0606 5.00218 14.4438 5.47078 14.1515L19.4708 5.41917C19.9394 5.12689 20.5562 5.26982 20.8485 5.73842Z" fill="#7369AB"/>
<path fill-rule="evenodd" clip-rule="evenodd" d="M12.6984 11.9995L6.52924 8.15153C6.06064 7.85925 5.44382 8.00218 5.15153 8.47078C4.85925 8.93939 5.00218 9.55621 5.47078 9.84849L10.8089 13.1781L12.6984 11.9995ZM14.588 13.1781L12.6984 14.3566L19.4708 18.5809C19.9394 18.8731 20.5562 18.7302 20.8485 18.2616C21.1408 17.793 20.9979 17.1762 20.5293 16.8839L14.588 13.1781Z" fill="#7369AB"/>
</svg>
