<svg width="21" height="24" viewBox="0 0 21 24" fill="none" xmlns="http://www.w3.org/2000/svg">
<g id="Group 46">
<path id="Vector (Stroke)" fill-rule="evenodd" clip-rule="evenodd" d="M2.69216 2.08695C2.35791 2.08695 2.08695 2.35791 2.08695 2.69216C2.08695 3.02641 2.35791 3.29738 2.69216 3.29738H17.9165C18.2507 3.29738 18.5217 3.02642 18.5217 2.69216C18.5217 2.35791 18.2507 2.08695 17.9165 2.08695H2.69216ZM0 2.69216C0 1.20532 1.20532 0 2.69216 0H17.9165C19.4033 0 20.6086 1.20532 20.6086 2.69216C20.6086 4.179 19.4033 5.38433 17.9165 5.38433H2.69216C1.20532 5.38433 0 4.179 0 2.69216Z" fill="#7369AB"/>
<path id="Vector (Stroke)_2" fill-rule="evenodd" clip-rule="evenodd" d="M2.69216 20.7026C2.35791 20.7026 2.08695 20.9736 2.08695 21.3078C2.08695 21.6421 2.35791 21.913 2.69216 21.913H17.9165C18.2507 21.913 18.5217 21.6421 18.5217 21.3078C18.5217 20.9736 18.2507 20.7026 17.9165 20.7026H2.69216ZM0 21.3078C0 19.821 1.20532 18.6157 2.69216 18.6157H17.9165C19.4033 18.6157 20.6086 19.821 20.6086 21.3078C20.6086 22.7947 19.4033 24 17.9165 24H2.69216C1.20532 24 0 22.7947 0 21.3078Z" fill="#7369AB"/>
<path id="Vector (Stroke)_3" fill-rule="evenodd" clip-rule="evenodd" d="M6.0939 4.34078C6.0939 3.76448 6.56108 3.2973 7.13738 3.2973H13.4817C14.058 3.2973 14.5252 3.76448 14.5252 4.34078V19.6694C14.5252 20.2457 14.058 20.7129 13.4817 20.7129H7.13738C6.56108 20.7129 6.0939 20.2457 6.0939 19.6694V4.34078ZM8.18085 5.38425V18.6259H12.4382V5.38425H8.18085Z" fill="#7369AB"/>
<path id="Vector (Stroke)_4" fill-rule="evenodd" clip-rule="evenodd" d="M14.2336 3.61729C14.6332 4.03257 14.6204 4.69314 14.2052 5.09271L7.86084 11.197C7.44555 11.5966 6.78499 11.5839 6.38541 11.1686C5.98584 10.7533 5.99858 10.0927 6.41386 9.69317L12.7582 3.58884C13.1735 3.18927 13.834 3.20201 14.2336 3.61729Z" fill="#7369AB"/>
<path id="Vector (Stroke)_5" fill-rule="evenodd" clip-rule="evenodd" d="M14.2336 12.779C14.6332 13.1943 14.6204 13.8549 14.2052 14.2545L7.86084 20.3588C7.44555 20.7584 6.78499 20.7456 6.38541 20.3303C5.98584 19.9151 5.99858 19.2545 6.41386 18.8549L12.7582 12.7506C13.1735 12.351 13.834 12.3638 14.2336 12.779Z" fill="#7369AB"/>
<path id="Vector (Stroke)_6" fill-rule="evenodd" clip-rule="evenodd" d="M14.2336 8.19828C14.6332 8.61356 14.6204 9.27413 14.2052 9.6737L7.86084 15.778C7.44555 16.1776 6.78499 16.1649 6.38541 15.7496C5.98584 15.3343 5.99858 14.6737 6.41386 14.2742L12.7582 8.16984C13.1735 7.77027 13.834 7.783 14.2336 8.19828Z" fill="#7369AB"/>
<path id="Vector (Stroke)_7" fill-rule="evenodd" clip-rule="evenodd" d="M3.74608 3.2973C4.32238 3.2973 4.78955 3.76448 4.78955 4.34078V9.94423C4.78955 10.5205 4.32238 10.9877 3.74608 10.9877C3.16979 10.9877 2.70261 10.5205 2.70261 9.94423V4.34078C2.70261 3.76448 3.16979 3.2973 3.74608 3.2973Z" fill="#7369AB"/>
<path id="Vector (Stroke)_8" fill-rule="evenodd" clip-rule="evenodd" d="M3.74607 10.9878C3.27381 10.9878 2.90085 11.367 2.90085 11.8226C2.90085 12.2782 3.27381 12.6574 3.74607 12.6574C4.21832 12.6574 4.59128 12.2782 4.59128 11.8226C4.59128 11.367 4.21832 10.9878 3.74607 10.9878ZM0.813904 11.8226C0.813904 10.2035 2.13214 8.90088 3.74607 8.90088C5.36 8.90088 6.67823 10.2035 6.67823 11.8226C6.67823 13.4417 5.36 14.7443 3.74607 14.7443C2.13214 14.7443 0.813904 13.4417 0.813904 11.8226Z" fill="#7369AB"/>
</g>
</svg>
