<svg width="24" height="24" viewBox="0 0 24 24" fill="none" xmlns="http://www.w3.org/2000/svg">
<g clip-path="url(#clip0_1210_1211)">
<path fill-rule="evenodd" clip-rule="evenodd" d="M9.88235 2.82353C5.98387 2.82353 2.82353 5.98387 2.82353 9.88235C2.82353 13.7808 5.98387 16.9412 9.88235 16.9412C13.7808 16.9412 16.9412 13.7808 16.9412 9.88235C16.9412 5.98387 13.7808 2.82353 9.88235 2.82353ZM0 9.88235C0 4.42448 4.42448 0 9.88235 0C15.3402 0 19.7647 4.42448 19.7647 9.88235C19.7647 15.3402 15.3402 19.7647 9.88235 19.7647C4.42448 19.7647 0 15.3402 0 9.88235Z" fill="#7369AB"/>
<path fill-rule="evenodd" clip-rule="evenodd" d="M15.237 15.237C15.7883 14.6857 16.6822 14.6857 17.2335 15.237L23.5865 21.59C24.1378 22.1413 24.1378 23.0352 23.5865 23.5865C23.0351 24.1378 22.1413 24.1378 21.5899 23.5865L15.237 17.2336C14.6857 16.6822 14.6857 15.7883 15.237 15.237Z" fill="#7369AB"/>
</g>
<defs>
<clipPath id="clip0_1210_1211">
<rect width="24" height="24" fill="white"/>
</clipPath>
</defs>
</svg>
