<svg width="24" height="24" viewBox="0 0 24 24" fill="none" xmlns="http://www.w3.org/2000/svg">
<g id="Send 2">
<path id="Vector 23 (Stroke)" fill-rule="evenodd" clip-rule="evenodd" d="M20.7106 3.29642C20.9736 3.56204 21.0665 3.95217 20.9515 4.30782L15.4515 21.3078C15.3279 21.6896 14.9881 21.9606 14.5884 21.9961C14.1887 22.0316 13.8065 21.8247 13.6177 21.4706L9.75598 14.2299L2.51263 10.1869C2.16369 9.99213 1.96421 9.60832 2.00533 9.21082C2.04644 8.81333 2.32026 8.47848 2.70168 8.35925L19.7017 3.04554C20.0585 2.93402 20.4476 3.03079 20.7106 3.29642ZM11.731 13.6832L14.2737 18.4507L17.77 7.64428L11.731 13.6832ZM16.4187 6.16714L5.5185 9.57422L10.3274 12.2584L16.4187 6.16714Z" fill="#7369AB"/>
</g>
</svg>
