<svg width="24" height="24" viewBox="0 0 24 24" fill="none" xmlns="http://www.w3.org/2000/svg">
<g id="Send 1">
<path id="Vector 23 (Stroke)" fill-rule="evenodd" clip-rule="evenodd" d="M3.37428 3.21997C3.67891 2.9756 4.09792 2.93093 4.44722 3.10558L20.4472 11.1056C20.786 11.275 21 11.6212 21 12C21 12.3788 20.786 12.725 20.4472 12.8944L4.44722 20.8944C4.09792 21.0691 3.67891 21.0244 3.37428 20.7801C3.06965 20.5357 2.93515 20.1363 3.02987 19.7575L4.96923 12L3.02987 4.24254C2.93515 3.86368 3.06965 3.46433 3.37428 3.21997ZM6.78079 13L5.49748 18.1332L15.7639 13H6.78079ZM15.7639 11H6.78079L5.49748 5.86678L15.7639 11Z" fill="#7369AB"/>
</g>
</svg>
