<svg width="24" height="24" viewBox="0 0 24 24" fill="none" xmlns="http://www.w3.org/2000/svg">
<path fill-rule="evenodd" clip-rule="evenodd" d="M9.00002 4C9.00002 2.89543 9.89545 2 11 2H13C14.1046 2 15 2.89543 15 4V4.5818C15.0416 4.59861 15.0829 4.61576 15.1241 4.63325L15.5355 4.2218C16.3166 3.44075 17.5829 3.44075 18.364 4.2218L17.6569 4.92891M18.364 4.2218L19.7782 5.63602C20.5592 6.41706 20.5592 7.68339 19.7782 8.46444L19.3667 8.87587C19.3842 8.91707 19.4014 8.95845 19.4182 9H20C21.1046 9 22 9.89543 22 11V13C22 14.1046 21.1046 15 20 15H19.4182C19.4014 15.0415 19.3842 15.0829 19.3668 15.1241L19.7782 15.5356C20.5592 16.3166 20.5592 17.5829 19.7782 18.364L18.364 19.7782C17.5829 20.5592 16.3166 20.5592 15.5355 19.7782L15.1241 19.3668C15.0829 19.3842 15.0416 19.4014 15 19.4182V20C15 21.1046 14.1046 22 13 22H11C9.89545 22 9.00002 21.1046 9.00002 20V19.4182C8.95846 19.4014 8.91709 19.3842 8.87589 19.3667L8.46447 19.7782C7.68342 20.5592 6.41709 20.5592 5.63604 19.7782L4.22183 18.3639C3.44078 17.5829 3.44078 16.3166 4.22183 15.5355L4.63326 15.1241C4.61578 15.0829 4.59863 15.0415 4.58182 15H4C2.89543 15 2 14.1046 2 13V11C2 9.89543 2.89543 9 4 9H4.58182C4.59863 8.95846 4.61578 8.9171 4.63326 8.87592L4.22183 8.46449C3.44079 7.68344 3.44078 6.41711 4.22183 5.63606L5.63605 4.22185C6.4171 3.4408 7.68343 3.4408 8.46447 4.22185L8.87589 4.63327C8.91709 4.61578 8.95847 4.59862 9.00002 4.5818V4M13 4L11 4V5.28988C11 5.7323 10.7093 6.12213 10.2853 6.24833C9.88681 6.36692 9.50557 6.52588 9.14623 6.7206C8.7571 6.93146 8.27565 6.86145 7.9627 6.54849L7.05026 5.63606L5.63605 7.05027L6.54849 7.96272C6.86145 8.27567 6.93146 8.75712 6.7206 9.14625C6.52589 9.50558 6.36693 9.88681 6.24835 10.2852C6.12215 10.7093 5.73231 11 5.28989 11H4V13H5.28989C5.73231 13 6.12215 13.2907 6.24835 13.7147C6.36693 14.1132 6.52589 14.4944 6.7206 14.8537C6.93146 15.2429 6.86144 15.7243 6.54849 16.0373L5.63604 16.9497L7.05026 18.3639L7.96269 17.4515C8.27565 17.1385 8.7571 17.0685 9.14623 17.2794C9.50557 17.4741 9.88681 17.6331 10.2853 17.7517C10.7093 17.8779 11 18.2677 11 18.7101V20H13V18.7101C13 18.2677 13.2907 17.8779 13.7148 17.7517C14.1132 17.6331 14.4944 17.4741 14.8538 17.2794C15.2429 17.0686 15.7243 17.1386 16.0373 17.4515L16.9498 18.364L18.364 16.9498L17.4515 16.0373C17.1386 15.7244 17.0686 15.2429 17.2794 14.8538C17.4741 14.4944 17.6331 14.1132 17.7517 13.7148C17.8779 13.2907 18.2677 13 18.7101 13H20V11H18.7101C18.2677 11 17.8779 10.7093 17.7517 10.2852C17.6331 9.8868 17.4741 9.50555 17.2794 9.14621C17.0686 8.75709 17.1386 8.27563 17.4515 7.96268L18.364 7.05023L16.9498 5.63602L16.0373 6.54847C15.7243 6.86143 15.2429 6.93144 14.8538 6.72058C14.4944 6.52587 14.1132 6.36691 13.7148 6.24833C13.2907 6.12213 13 5.7323 13 5.28988V4Z" fill="#7369AB"/>
<path fill-rule="evenodd" clip-rule="evenodd" d="M12 10C10.8954 10 10 10.8954 10 12C10 13.1046 10.8954 14 12 14C13.1046 14 14 13.1046 14 12C14 10.8954 13.1046 10 12 10ZM8 12C8 9.79086 9.79086 8 12 8C14.2091 8 16 9.79086 16 12C16 14.2091 14.2091 16 12 16C9.79086 16 8 14.2091 8 12Z" fill="#7369AB"/>
</svg>
