<svg width="24" height="24" viewBox="0 0 24 24" fill="none" xmlns="http://www.w3.org/2000/svg">
<g id="Share 1">
<path id="Rectangle 32 (Stroke)" fill-rule="evenodd" clip-rule="evenodd" d="M11.2929 3.29289C11.6834 2.90237 12.3166 2.90237 12.7071 3.29289L16.7071 7.29289C17.0976 7.68342 17.0976 8.31658 16.7071 8.70711C16.3166 9.09763 15.6834 9.09763 15.2929 8.70711L13 6.41421V16C13 16.5523 12.5523 17 12 17C11.4477 17 11 16.5523 11 16V6.41421L8.70711 8.70711C8.31658 9.09763 7.68342 9.09763 7.29289 8.70711C6.90237 8.31658 6.90237 7.68342 7.29289 7.29289L11.2929 3.29289ZM5 11C5.55228 11 6 11.4477 6 12V17C6 18.1046 6.89543 19 8 19H16C17.1046 19 18 18.1046 18 17V12C18 11.4477 18.4477 11 19 11C19.5523 11 20 11.4477 20 12V17C20 19.2091 18.2091 21 16 21H8C5.79086 21 4 19.2091 4 17V12C4 11.4477 4.44772 11 5 11Z" fill="#7369AB"/>
</g>
</svg>
