<svg width="24" height="24" viewBox="0 0 24 24" fill="none" xmlns="http://www.w3.org/2000/svg">
<g id="Shield Bad">
<path id="Rectangle 13 (Stroke)" fill-rule="evenodd" clip-rule="evenodd" d="M11.4506 2.11697C11.8097 2.01437 12.1903 2.01437 12.5494 2.11697L18.5494 3.83125C19.408 4.07657 20 4.86134 20 5.7543V10.8538C20 14.4063 18.2844 17.7401 15.3936 19.8049L13.1625 21.3986C12.4671 21.8953 11.5329 21.8953 10.8375 21.3986L8.60638 19.8049C5.71562 17.7401 4 14.4063 4 10.8538V5.7543C4 4.86134 4.59195 4.07657 5.45056 3.83125L11.4506 2.11697ZM12 4.04002L6 5.7543V10.8538C6 13.7604 7.40369 16.488 9.76886 18.1774L12 19.7711L14.2311 18.1774C16.5963 16.488 18 13.7604 18 10.8538L18 5.7543L12 4.04002ZM9.29289 8.29289C9.68342 7.90237 10.3166 7.90237 10.7071 8.29289L12 9.58579L13.2929 8.29289C13.6834 7.90237 14.3166 7.90237 14.7071 8.29289C15.0976 8.68342 15.0976 9.31658 14.7071 9.70711L13.4142 11L14.7071 12.2929C15.0976 12.6834 15.0976 13.3166 14.7071 13.7071C14.3166 14.0976 13.6834 14.0976 13.2929 13.7071L12 12.4142L10.7071 13.7071C10.3166 14.0976 9.68342 14.0976 9.29289 13.7071C8.90237 13.3166 8.90237 12.6834 9.29289 12.2929L10.5858 11L9.29289 9.70711C8.90237 9.31658 8.90237 8.68342 9.29289 8.29289Z" fill="#7369AB"/>
</g>
</svg>
