<svg width="24" height="24" viewBox="0 0 24 24" fill="none" xmlns="http://www.w3.org/2000/svg">
<g id="Shield Info">
<path id="Rectangle 13 (Stroke)" fill-rule="evenodd" clip-rule="evenodd" d="M11.4506 2.11697C11.8097 2.01437 12.1903 2.01437 12.5494 2.11697L18.5494 3.83125C19.408 4.07657 20 4.86134 20 5.7543V10.8538C20 14.4063 18.2844 17.7401 15.3936 19.8049L13.1625 21.3986C12.4671 21.8953 11.5329 21.8953 10.8375 21.3986L8.60638 19.8049C5.71562 17.7401 4 14.4063 4 10.8538V5.7543C4 4.86134 4.59195 4.07657 5.45056 3.83125L11.4506 2.11697ZM12 4.04002L6 5.7543V10.8538C6 13.7604 7.40369 16.488 9.76886 18.1774L12 19.7711L14.2311 18.1774C16.5963 16.488 18 13.7604 18 10.8538L18 5.7543L12 4.04002ZM12 10C12.5523 10 13 10.4477 13 11V14C13 14.5523 12.5523 15 12 15C11.4477 15 11 14.5523 11 14V11C11 10.4477 11.4477 10 12 10Z" fill="#7369AB"/>
<path id="Ellipse 25" d="M13 8C13 8.55228 12.5523 9 12 9C11.4477 9 11 8.55228 11 8C11 7.44772 11.4477 7 12 7C12.5523 7 13 7.44772 13 8Z" fill="#7369AB"/>
</g>
</svg>
