<svg width="24" height="24" viewBox="0 0 24 24" fill="none" xmlns="http://www.w3.org/2000/svg">
<g id="Shield Lock">
<path id="Rectangle 13 (Stroke)" fill-rule="evenodd" clip-rule="evenodd" d="M9.45056 2.11697C9.80967 2.01437 10.1903 2.01437 10.5494 2.11697L16.5494 3.83125C17.408 4.07657 18 4.86134 18 5.7543V7.5C18 8.05229 17.5523 8.5 17 8.5C16.4477 8.5 16 8.05229 16 7.5L16 5.7543L10 4.04002L4 5.7543V10.8538C4 13.7604 5.40369 16.488 7.76886 18.1774L10.5812 20.1863C11.0307 20.5073 11.1347 21.1318 10.8137 21.5812C10.4927 22.0307 9.86817 22.1347 9.41876 21.8137L6.60638 19.8049C3.71562 17.7401 2 14.4063 2 10.8538V5.7543C2 4.86134 2.59195 4.07657 3.45056 3.83125L9.45056 2.11697ZM14 13C14 11.3431 15.3431 10 17 10C18.6569 10 20 11.3431 20 13V14.1707C21.1652 14.5825 22 15.6938 22 17V19C22 20.6569 20.6569 22 19 22H15C13.3431 22 12 20.6569 12 19V17C12 15.6938 12.8348 14.5825 14 14.1707V13ZM16 14H18V13C18 12.4477 17.5523 12 17 12C16.4477 12 16 12.4477 16 13V14ZM15 16C14.4477 16 14 16.4477 14 17V19C14 19.5523 14.4477 20 15 20H19C19.5523 20 20 19.5523 20 19V17C20 16.4477 19.5523 16 19 16H15Z" fill="#7369AB"/>
</g>
</svg>
