<svg width="24" height="24" viewBox="0 0 24 24" fill="none" xmlns="http://www.w3.org/2000/svg">
<path fill-rule="evenodd" clip-rule="evenodd" d="M4 9C4 7.34315 5.34315 6 7 6H17C18.6569 6 20 7.34315 20 9V18C20 20.2091 18.2091 22 16 22H8C5.79086 22 4 20.2091 4 18V9ZM7 8C6.44772 8 6 8.44772 6 9V18C6 19.1046 6.89543 20 8 20H16C17.1046 20 18 19.1046 18 18V9C18 8.44772 17.5523 8 17 8H7Z" fill="#7369AB"/>
<path fill-rule="evenodd" clip-rule="evenodd" d="M8 6C8 3.79086 9.79086 2 12 2C14.2091 2 16 3.79086 16 6V10C16 10.5523 15.5523 11 15 11C14.4477 11 14 10.5523 14 10V6C14 4.89543 13.1046 4 12 4C10.8954 4 10 4.89543 10 6V10C10 10.5523 9.55228 11 9 11C8.44772 11 8 10.5523 8 10V6Z" fill="#7369AB"/>
</svg>
