<svg width="24" height="24" viewBox="0 0 24 24" fill="none" xmlns="http://www.w3.org/2000/svg">
<g clip-path="url(#clip0_1210_2257)">
<path fill-rule="evenodd" clip-rule="evenodd" d="M0 1.2C0 0.537258 0.537258 0 1.2 0H2.84572C4.55282 0 6.02519 1.19893 6.37106 2.87062L9.17916 16.4431C9.29445 17.0004 9.78524 17.4 10.3543 17.4H18.6C19.2627 17.4 19.8 17.9373 19.8 18.6C19.8 19.2627 19.2627 19.8 18.6 19.8H10.3543C8.64718 19.8 7.17481 18.6011 6.82894 16.9294L4.02083 3.35687C3.90555 2.79964 3.41475 2.4 2.84572 2.4H1.2C0.537258 2.4 0 1.86274 0 1.2Z" fill="#7369AB"/>
<path fill-rule="evenodd" clip-rule="evenodd" d="M4.58911 5.99999C4.58911 5.33725 5.12637 4.79999 5.78911 4.79999H21.2092C22.8037 4.79999 23.9549 6.32616 23.5168 7.85932L22.2999 12.1186C21.7111 14.1793 19.8277 15.6 17.6846 15.6H7.53286C6.87012 15.6 6.33286 15.0627 6.33286 14.4C6.33286 13.7372 6.87012 13.2 7.53286 13.2H17.6846C18.7561 13.2 19.6978 12.4896 19.9922 11.4593L21.2092 7.19999H5.78911C5.12637 7.19999 4.58911 6.66273 4.58911 5.99999Z" fill="#7369AB"/>
<path d="M18 22.2C18 22.5313 17.7314 22.8 17.4 22.8C17.0687 22.8 16.8 22.5313 16.8 22.2C16.8 21.8686 17.0687 21.6 17.4 21.6C17.7314 21.6 18 21.8686 18 22.2Z" fill="#7369AB"/>
<path fill-rule="evenodd" clip-rule="evenodd" d="M17.4001 22.8C17.7315 22.8 18.0001 22.5314 18.0001 22.2C18.0001 21.8687 17.7315 21.6 17.4001 21.6C17.0687 21.6 16.8001 21.8687 16.8001 22.2C16.8001 22.5314 17.0687 22.8 17.4001 22.8ZM15.6001 22.2C15.6001 21.2059 16.406 20.4 17.4001 20.4C18.3942 20.4 19.2001 21.2059 19.2001 22.2C19.2001 23.1941 18.3942 24 17.4001 24C16.406 24 15.6001 23.1941 15.6001 22.2Z" fill="#7369AB"/>
<path d="M10.8001 22.2C10.8001 21.8686 10.5315 21.6 10.2001 21.6C9.86873 21.6 9.6001 21.8686 9.6001 22.2C9.6001 22.5314 9.86873 22.8 10.2001 22.8C10.5315 22.8 10.8001 22.5314 10.8001 22.2Z" fill="#7369AB"/>
<path fill-rule="evenodd" clip-rule="evenodd" d="M10.1999 21.6C10.5313 21.6 10.7999 21.8686 10.7999 22.2C10.7999 22.5314 10.5313 22.8 10.1999 22.8C9.86853 22.8 9.5999 22.5314 9.5999 22.2C9.5999 21.8686 9.86853 21.6 10.1999 21.6ZM8.3999 22.2C8.3999 23.1941 9.20579 24 10.1999 24C11.194 24 11.9999 23.1941 11.9999 22.2C11.9999 21.2059 11.194 20.4 10.1999 20.4C9.20579 20.4 8.3999 21.2059 8.3999 22.2Z" fill="#7369AB"/>
</g>
<defs>
<clipPath id="clip0_1210_2257">
<rect width="24" height="24" fill="white"/>
</clipPath>
</defs>
</svg>
