<svg width="24" height="24" viewBox="0 0 24 24" fill="none" xmlns="http://www.w3.org/2000/svg">
<path fill-rule="evenodd" clip-rule="evenodd" d="M4 7C4 6.44772 4.44772 6 5 6H19C19.5523 6 20 6.44772 20 7V17C20 19.2091 18.2091 21 16 21H8C5.79086 21 4 19.2091 4 17V7ZM6 8V17C6 18.1046 6.89543 19 8 19H16C17.1046 19 18 18.1046 18 17V8H6Z" fill="#7369AB"/>
<path fill-rule="evenodd" clip-rule="evenodd" d="M16 11C16 13.2091 14.2091 15 12 15C9.79086 15 8 13.2091 8 11L8 10C8 9.44771 8.44772 9 9 9C9.55229 9 10 9.44771 10 10L10 11C10 12.1046 10.8954 13 12 13C13.1046 13 14 12.1046 14 11L14 10C14 9.44772 14.4477 9 15 9C15.5523 9 16 9.44772 16 10L16 11Z" fill="#7369AB"/>
<path fill-rule="evenodd" clip-rule="evenodd" d="M6.16795 3.4453C6.35342 3.1671 6.66565 3 7 3H17C17.3344 3 17.6466 3.1671 17.8321 3.4453L19.8321 6.4453C20.0366 6.75216 20.0557 7.1467 19.8817 7.47186C19.7077 7.79702 19.3688 8 19 8H5C4.63121 8 4.29235 7.79702 4.11833 7.47186C3.94431 7.1467 3.96338 6.75216 4.16795 6.4453L6.16795 3.4453ZM7.53519 5L6.86852 6H17.1315L16.4648 5H7.53519Z" fill="#7369AB"/>
</svg>
