<svg width="24" height="24" viewBox="0 0 24 24" fill="none" xmlns="http://www.w3.org/2000/svg">
<path fill-rule="evenodd" clip-rule="evenodd" d="M4 9C4 7.34315 5.34315 6 7 6H17C18.6569 6 20 7.34315 20 9V18C20 20.2091 18.2091 22 16 22H8C5.79086 22 4 20.2091 4 18V9ZM7 8C6.44772 8 6 8.44772 6 9V18C6 19.1046 6.89543 20 8 20H16C17.1046 20 18 19.1046 18 18V9C18 8.44772 17.5523 8 17 8H7Z" fill="#7369AB"/>
<path fill-rule="evenodd" clip-rule="evenodd" d="M8 6C8 3.79086 9.79086 2 12 2C14.2091 2 16 3.79086 16 6V7C16 7.55228 15.5523 8 15 8C14.4477 8 14 7.55228 14 7V6C14 4.89543 13.1046 4 12 4C10.8954 4 10 4.89543 10 6V7C10 7.55228 9.55228 8 9 8C8.44772 8 8 7.55228 8 7V6Z" fill="#7369AB"/>
<path fill-rule="evenodd" clip-rule="evenodd" d="M16 12C16 14.2091 14.2091 16 12 16C9.79086 16 8 14.2091 8 12L8 11C8 10.4477 8.44772 10 9 10C9.55229 10 10 10.4477 10 11L10 12C10 13.1046 10.8954 14 12 14C13.1046 14 14 13.1046 14 12L14 11C14 10.4477 14.4477 10 15 10C15.5523 10 16 10.4477 16 11L16 12Z" fill="#7369AB"/>
</svg>
