<svg width="24" height="24" viewBox="0 0 24 24" fill="none" xmlns="http://www.w3.org/2000/svg">
<path fill-rule="evenodd" clip-rule="evenodd" d="M2 8C2 6.89543 2.89543 6 4 6H14C15.1046 6 16 6.89543 16 8V10.5C16 11.0523 15.5523 11.5 15 11.5C14.4477 11.5 14 11.0523 14 10.5V8L4 8V19C4 19.5523 4.44772 20 5 20H15C15.5523 20 16 20.4477 16 21C16 21.5523 15.5523 22 15 22H5C3.34315 22 2 20.6569 2 19V8Z" fill="#7369AB"/>
<path fill-rule="evenodd" clip-rule="evenodd" d="M8 12C8 10.8954 8.89543 10 10 10H20C21.1046 10 22 10.8954 22 12V19C22 20.6569 20.6569 22 19 22H11C9.34315 22 8 20.6569 8 19V12ZM20 12L10 12V19C10 19.5523 10.4477 20 11 20H19C19.5523 20 20 19.5523 20 19V12Z" fill="#7369AB"/>
<path fill-rule="evenodd" clip-rule="evenodd" d="M5 6C5 3.79086 6.79086 2 9 2C11.2091 2 13 3.79086 13 6V7C13 7.55228 12.5523 8 12 8C11.4477 8 11 7.55228 11 7V6C11 4.89543 10.1046 4 9 4C7.89543 4 7 4.89543 7 6V7C7 7.55228 6.55228 8 6 8C5.44772 8 5 7.55228 5 7V6Z" fill="#7369AB"/>
<path fill-rule="evenodd" clip-rule="evenodd" d="M18 15C18 16.6569 16.6569 18 15 18C13.3431 18 12 16.6569 12 15L12 14C12 13.4477 12.4477 13 13 13C13.5523 13 14 13.4477 14 14L14 15C14 15.5523 14.4477 16 15 16C15.5523 16 16 15.5523 16 15L16 14C16 13.4477 16.4477 13 17 13C17.5523 13 18 13.4477 18 14L18 15Z" fill="#7369AB"/>
</svg>
