<svg width="24" height="24" viewBox="0 0 24 24" fill="none" xmlns="http://www.w3.org/2000/svg">
<path fill-rule="evenodd" clip-rule="evenodd" d="M16.7929 4.79289C17.1834 4.40237 17.8166 4.40237 18.2071 4.79289L20.7071 7.29289C21.0976 7.68342 21.0976 8.31658 20.7071 8.70711L18.2071 11.2071C17.8166 11.5976 17.1834 11.5976 16.7929 11.2071C16.4024 10.8166 16.4024 10.1834 16.7929 9.79289L17.5858 9H14C13.4477 9 13 8.55228 13 8C13 7.44772 13.4477 7 14 7H17.5858L16.7929 6.20711C16.4024 5.81658 16.4024 5.18342 16.7929 4.79289ZM3 8C3 7.44772 3.44772 7 4 7H6.8915C7.92587 7 8.88728 7.53286 9.4355 8.41L13.2605 14.53C13.4432 14.8224 13.7637 15 14.1085 15H17.5858L16.7929 14.2071C16.4024 13.8166 16.4024 13.1834 16.7929 12.7929C17.1834 12.4024 17.8166 12.4024 18.2071 12.7929L20.7071 15.2929C21.0976 15.6834 21.0976 16.3166 20.7071 16.7071L18.2071 19.2071C17.8166 19.5976 17.1834 19.5976 16.7929 19.2071C16.4024 18.8166 16.4024 18.1834 16.7929 17.7929L17.5858 17H14.1085C13.0741 17 12.1127 16.4671 11.5645 15.59L7.7395 9.47C7.55676 9.17762 7.23629 9 6.8915 9H4C3.44772 9 3 8.55228 3 8ZM3 16C3 15.4477 3.44772 15 4 15H8C8.55228 15 9 15.4477 9 16C9 16.5523 8.55228 17 8 17H4C3.44772 17 3 16.5523 3 16Z" fill="#7369AB"/>
</svg>
