<svg width="24" height="24" viewBox="0 0 24 24" fill="none" xmlns="http://www.w3.org/2000/svg">
<g id="Signal">
<path id="Vector (Stroke)" fill-rule="evenodd" clip-rule="evenodd" d="M17 5C17.5523 5 18 5.44772 18 6V18C18 18.5523 17.5523 19 17 19C16.4477 19 16 18.5523 16 18V6C16 5.44772 16.4477 5 17 5ZM12 9C12.5523 9 13 9.44772 13 10V18C13 18.5523 12.5523 19 12 19C11.4477 19 11 18.5523 11 18V10C11 9.44772 11.4477 9 12 9ZM7 13C7.55228 13 8 13.4477 8 14V18C8 18.5523 7.55228 19 7 19C6.44772 19 6 18.5523 6 18V14C6 13.4477 6.44772 13 7 13Z" fill="#7369AB"/>
</g>
</svg>
