<svg width="24" height="24" viewBox="0 0 24 24" fill="none" xmlns="http://www.w3.org/2000/svg">
<path fill-rule="evenodd" clip-rule="evenodd" d="M9.16248 7.31572C7.83875 6.3702 6.00001 7.31644 6.00001 8.94319V15.0568C6.00001 16.6836 7.83875 17.6298 9.16248 16.6843L13.442 13.6275C14.5587 12.8298 14.5587 11.1702 13.442 10.3725L9.16248 7.31572ZM8.00001 8.94319L12.2795 12L8.00001 15.0568V8.94319Z" fill="#7369AB"/>
<path fill-rule="evenodd" clip-rule="evenodd" d="M17 7C17.5523 7 18 7.44772 18 8V16C18 16.5523 17.5523 17 17 17C16.4477 17 16 16.5523 16 16V8C16 7.44772 16.4477 7 17 7Z" fill="#7369AB"/>
</svg>
