<svg width="24" height="24" viewBox="0 0 24 24" fill="none" xmlns="http://www.w3.org/2000/svg">
<path fill-rule="evenodd" clip-rule="evenodd" d="M14.8375 7.31572C16.1613 6.3702 18 7.31644 18 8.94319V15.0568C18 16.6836 16.1613 17.6298 14.8375 16.6843L10.558 13.6275C9.44129 12.8298 9.44128 11.1702 10.558 10.3725L14.8375 7.31572ZM16 8.94319L11.7205 12L16 15.0568V8.94319Z" fill="#7369AB"/>
<path fill-rule="evenodd" clip-rule="evenodd" d="M7 7C7.55228 7 8 7.44772 8 8V16C8 16.5523 7.55228 17 7 17C6.44772 17 6 16.5523 6 16V8C6 7.44772 6.44772 7 7 7Z" fill="#7369AB"/>
</svg>
