<svg width="24" height="24" viewBox="0 0 24 24" fill="none" xmlns="http://www.w3.org/2000/svg">
<path fill-rule="evenodd" clip-rule="evenodd" d="M16 3C16.5523 3 17 3.44772 17 4V5H20C20.5523 5 21 5.44772 21 6C21 6.55228 20.5523 7 20 7H17V8C17 8.55228 16.5523 9 16 9C15.4477 9 15 8.55228 15 8V4C15 3.44772 15.4477 3 16 3ZM3 6C3 5.44772 3.44772 5 4 5V6V7C3.44772 7 3 6.55228 3 6ZM4 6V7H13C13.5523 7 14 6.55228 14 6C14 5.44772 13.5523 5 13 5H4.00102L4 6Z" fill="#7369AB"/>
<path fill-rule="evenodd" clip-rule="evenodd" d="M13 15C13.5523 15 14 15.4477 14 16V17H20C20.5523 17 21 17.4477 21 18C21 18.5523 20.5523 19 20 19H14V20C14 20.5523 13.5523 21 13 21C12.4477 21 12 20.5523 12 20V16C12 15.4477 12.4477 15 13 15ZM3 18C3 17.4477 3.44772 17 4 17V18V19C3.44772 19 3 18.5523 3 18ZM4 18V19H10C10.5523 19 11 18.5523 11 18C11 17.4477 10.5523 17 10 17H4V18Z" fill="#7369AB"/>
<path fill-rule="evenodd" clip-rule="evenodd" d="M8 15C7.44771 15 7 14.5523 7 14L7 13L4 13C3.44772 13 3 12.5523 3 12C3 11.4477 3.44772 11 4 11L7 11L7 10C7 9.44771 7.44772 9 8 9C8.55229 9 9 9.44771 9 10L9 14C9 14.5523 8.55229 15 8 15ZM21 12C21 12.5523 20.5523 13 20 13L20 12L20 11C20.5523 11 21 11.4477 21 12ZM20 12L20 11L11 11C10.4477 11 10 11.4477 10 12C10 12.5523 10.4477 13 11 13L19.999 13L20 12Z" fill="#7369AB"/>
</svg>
