<svg width="24" height="24" viewBox="0 0 24 24" fill="none" xmlns="http://www.w3.org/2000/svg">
<path fill-rule="evenodd" clip-rule="evenodd" d="M3 8C3 7.44771 3.44772 7 4 7L5 7L5 4C5 3.44772 5.44772 3 6 3C6.55229 3 7 3.44772 7 4L7 7L8 7C8.55229 7 9 7.44772 9 8C9 8.55229 8.55229 9 8 9L4 9C3.44772 9 3 8.55229 3 8ZM6 21C5.44772 21 5 20.5523 5 20L6 20L7 20C7 20.5523 6.55228 21 6 21ZM6 20L7 20L7 11C7 10.4477 6.55229 10 6 10C5.44772 10 5 10.4477 5 11L5 19.999L6 20Z" fill="#7369AB"/>
<path fill-rule="evenodd" clip-rule="evenodd" d="M15 11C15 10.4477 15.4477 10 16 10L17 10L17 4C17 3.44772 17.4477 3 18 3C18.5523 3 19 3.44772 19 4L19 10L20 10C20.5523 10 21 10.4477 21 11C21 11.5523 20.5523 12 20 12L16 12C15.4477 12 15 11.5523 15 11ZM18 21C17.4477 21 17 20.5523 17 20L18 20L19 20C19 20.5523 18.5523 21 18 21ZM18 20L19 20L19 14C19 13.4477 18.5523 13 18 13C17.4477 13 17 13.4477 17 14L17 20L18 20Z" fill="#7369AB"/>
<path fill-rule="evenodd" clip-rule="evenodd" d="M15 16C15 16.5523 14.5523 17 14 17L13 17L13 20C13 20.5523 12.5523 21 12 21C11.4477 21 11 20.5523 11 20L11 17L10 17C9.44771 17 9 16.5523 9 16C9 15.4477 9.44771 15 10 15L14 15C14.5523 15 15 15.4477 15 16ZM12 3C12.5523 3 13 3.44771 13 4L12 4L11 4C11 3.44771 11.4477 3 12 3ZM12 4L11 4L11 13C11 13.5523 11.4477 14 12 14C12.5523 14 13 13.5523 13 13L13 4.00102L12 4Z" fill="#7369AB"/>
</svg>
