<svg width="24" height="24" viewBox="0 0 24 24" fill="none" xmlns="http://www.w3.org/2000/svg">
<path fill-rule="evenodd" clip-rule="evenodd" d="M12 4C7.58172 4 4 7.58172 4 12C4 16.4183 7.58172 20 12 20C16.4183 20 20 16.4183 20 12C20 7.58172 16.4183 4 12 4ZM2 12C2 6.47715 6.47715 2 12 2C17.5228 2 22 6.47715 22 12C22 17.5228 17.5228 22 12 22C6.47715 22 2 17.5228 2 12Z" fill="#7369AB"/>
<path d="M11 9.5C11 10.3284 10.3284 11 9.5 11C8.67157 11 8 10.3284 8 9.5C8 8.67157 8.67157 8 9.5 8C10.3284 8 11 8.67157 11 9.5Z" fill="#7369AB"/>
<path d="M16 9.5C16 10.3284 15.3284 11 14.5 11C13.6716 11 13 10.3284 13 9.5C13 8.67157 13.6716 8 14.5 8C15.3284 8 16 8.67157 16 9.5Z" fill="#7369AB"/>
<path fill-rule="evenodd" clip-rule="evenodd" d="M17.2326 13.7562C17.5846 14.1817 17.525 14.8121 17.0995 15.1641C15.6651 16.3507 13.8617 17 12.0001 17C10.1384 17 8.3351 16.3507 6.90069 15.1641C6.47515 14.8121 6.41556 14.1817 6.7676 13.7562C7.11964 13.3306 7.74999 13.271 8.17554 13.6231C9.25135 14.5131 10.6039 15 12.0001 15C13.3963 15 14.7488 14.5131 15.8246 13.6231C16.2502 13.271 16.8805 13.3306 17.2326 13.7562Z" fill="#7369AB"/>
</svg>
