<svg width="24" height="24" viewBox="0 0 24 24" fill="none" xmlns="http://www.w3.org/2000/svg">
<path fill-rule="evenodd" clip-rule="evenodd" d="M0 5.33333C0 4.59695 0.596954 4 1.33333 4H22.6667C23.403 4 24 4.59695 24 5.33333C24 6.06971 23.403 6.66667 22.6667 6.66667H1.33333C0.596954 6.66667 0 6.06971 0 5.33333Z" fill="#7369AB"/>
<path fill-rule="evenodd" clip-rule="evenodd" d="M0 12C0 11.2636 0.596954 10.6667 1.33333 10.6667L14.6667 10.6667C15.403 10.6667 16 11.2636 16 12C16 12.7364 15.403 13.3334 14.6667 13.3334L1.33333 13.3334C0.596954 13.3334 0 12.7364 0 12Z" fill="#7369AB"/>
<path fill-rule="evenodd" clip-rule="evenodd" d="M0 18.6666C0 17.9303 0.596954 17.3333 1.33333 17.3333H4C4.73638 17.3333 5.33333 17.9303 5.33333 18.6666C5.33333 19.403 4.73638 20 4 20H1.33333C0.596954 20 0 19.403 0 18.6666Z" fill="#7369AB"/>
</svg>
