<svg width="24" height="24" viewBox="0 0 24 24" fill="none" xmlns="http://www.w3.org/2000/svg">
<path fill-rule="evenodd" clip-rule="evenodd" d="M21.0223 7.95563C21.3537 8.39745 21.2642 9.02426 20.8223 9.35563L16.4001 12.6723C14.9779 13.739 13.0223 13.739 11.6001 12.6723L7.17789 9.35567C6.73606 9.0243 6.64652 8.3975 6.97789 7.95567C7.30926 7.51384 7.93606 7.4243 8.37789 7.75567L12.8001 11.0723C13.5112 11.6057 14.489 11.6057 15.2001 11.0723L19.6223 7.75563C20.0642 7.42426 20.691 7.5138 21.0223 7.95563Z" fill="#7369AB"/>
<path fill-rule="evenodd" clip-rule="evenodd" d="M6 9C6 7.34315 7.34315 6 9 6H19C20.6569 6 22 7.34315 22 9V15.8889C22 17.5457 20.6569 18.8889 19 18.8889H11C10.4477 18.8889 10 18.4412 10 17.8889C10 17.3366 10.4477 16.8889 11 16.8889H19C19.5523 16.8889 20 16.4412 20 15.8889V9C20 8.44772 19.5523 8 19 8H9C8.44772 8 8 8.44772 8 9V9.5C8 10.0523 7.55228 10.5 7 10.5C6.44772 10.5 6 10.0523 6 9.5V9Z" fill="#7369AB"/>
<path fill-rule="evenodd" clip-rule="evenodd" d="M5 13C5 12.4477 5.44772 12 6 12L8 12C8.55228 12 9 12.4477 9 13C9 13.5523 8.55228 14 8 14L6 14C5.44771 14 5 13.5523 5 13Z" fill="#7369AB"/>
<path fill-rule="evenodd" clip-rule="evenodd" d="M2 16C2 15.4477 2.44772 15 3 15L8 15C8.55228 15 9 15.4477 9 16C9 16.5523 8.55228 17 8 17L3 17C2.44772 17 2 16.5523 2 16Z" fill="#7369AB"/>
</svg>
