<svg width="24" height="24" viewBox="0 0 24 24" fill="none" xmlns="http://www.w3.org/2000/svg">
<path fill-rule="evenodd" clip-rule="evenodd" d="M7.1808 3H16.8192C17.3552 2.99998 17.8176 2.99997 18.1983 3.03158C18.6002 3.06495 18.9997 3.13867 19.3829 3.33776C19.9309 3.62239 20.3776 4.06915 20.6622 4.61708C20.8613 5.00035 20.935 5.39982 20.9684 5.8017C21 6.18238 21 6.64479 21 7.18083V16.8192C21 17.3552 21 17.8176 20.9684 18.1983C20.935 18.6002 20.8613 18.9997 20.6622 19.3829C20.3776 19.9309 19.9309 20.3776 19.3829 20.6622C18.9997 20.8613 18.6002 20.935 18.1983 20.9684C17.8176 21 17.3552 21 16.8192 21H7.18083C6.64479 21 6.18238 21 5.8017 20.9684C5.39982 20.935 5.00035 20.8613 4.61708 20.6622C4.06915 20.3776 3.62239 19.9309 3.33776 19.3829C3.13867 18.9997 3.06495 18.6002 3.03158 18.1983C2.99997 17.8176 2.99998 17.3552 3 16.8192V7.1808C2.99998 6.64478 2.99997 6.18237 3.03158 5.8017C3.06495 5.39982 3.13867 5.00035 3.33776 4.61708C3.62239 4.06915 4.06915 3.62239 4.61708 3.33776C5.00035 3.13867 5.39982 3.06495 5.8017 3.03158C6.18237 2.99997 6.64478 2.99998 7.1808 3ZM5.96722 5.02472C5.69125 5.04764 5.58924 5.08651 5.53903 5.11259C5.35638 5.20746 5.20746 5.35638 5.11259 5.53903C5.08651 5.58924 5.04764 5.69125 5.02472 5.96722C5.00081 6.25517 5 6.63373 5 7.22V16.78C5 17.3663 5.00081 17.7448 5.02472 18.0328C5.04764 18.3088 5.08651 18.4108 5.11259 18.461C5.20746 18.6436 5.35638 18.7925 5.53903 18.8874C5.58924 18.9135 5.69125 18.9524 5.96722 18.9753C6.25517 18.9992 6.63373 19 7.22 19H16.78C17.3663 19 17.7448 18.9992 18.0328 18.9753C18.3088 18.9524 18.4108 18.9135 18.461 18.8874C18.6436 18.7925 18.7925 18.6436 18.8874 18.461C18.9135 18.4108 18.9524 18.3088 18.9753 18.0328C18.9992 17.7448 19 17.3663 19 16.78V7.22C19 6.63373 18.9992 6.25517 18.9753 5.96722C18.9524 5.69125 18.9135 5.58924 18.8874 5.53903C18.7925 5.35638 18.6436 5.20746 18.461 5.11259C18.4108 5.08651 18.3088 5.04764 18.0328 5.02472C17.7448 5.00081 17.3663 5 16.78 5H7.22C6.63373 5 6.25517 5.00081 5.96722 5.02472Z" fill="#7369AB"/>
<path fill-rule="evenodd" clip-rule="evenodd" d="M12 17C11.4477 17 11 16.5523 11 16L11 10.4142L9.70711 11.7071C9.31658 12.0976 8.68342 12.0976 8.29289 11.7071C7.90237 11.3166 7.90237 10.6834 8.29289 10.2929L11.2929 7.29289C11.6834 6.90237 12.3166 6.90237 12.7071 7.29289L15.7071 10.2929C16.0976 10.6834 16.0976 11.3166 15.7071 11.7071C15.3166 12.0976 14.6834 12.0976 14.2929 11.7071L13 10.4142L13 16C13 16.5523 12.5523 17 12 17Z" fill="#7369AB"/>
</svg>
