<svg width="24" height="24" viewBox="0 0 24 24" fill="none" xmlns="http://www.w3.org/2000/svg">
<path fill-rule="evenodd" clip-rule="evenodd" d="M10.0978 4.61802C10.6966 2.77539 13.3034 2.77541 13.9021 4.61802L15.1962 8.6008L19.3839 8.6008C21.3214 8.6008 22.1269 11.08 20.5595 12.2188L17.1715 14.6803L18.4656 18.6631C19.0643 20.5057 16.9553 22.038 15.3879 20.8992L12 18.4377L8.612 20.8992C7.04457 22.038 4.93562 20.5057 5.53432 18.6631L6.8284 14.6803L3.44045 12.2188C1.87301 11.08 2.67858 8.6008 4.61602 8.6008H8.80376L10.0978 4.61802ZM12 5.23605L10.7059 9.21883C10.4381 10.0429 9.67021 10.6008 8.80376 10.6008H4.61602L8.00397 13.0623C8.70495 13.5716 8.99826 14.4743 8.73052 15.2984L7.43643 19.2811L10.8244 16.8196C11.5254 16.3104 12.4746 16.3104 13.1755 16.8196L16.5635 19.2811L15.2694 15.2984C15.0016 14.4743 15.295 13.5716 15.9959 13.0623L19.3839 10.6008H15.1962C14.3297 10.6008 13.5618 10.0429 13.294 9.21883L12 5.23605Z" fill="#7369AB"/>
</svg>
