<svg width="24" height="24" viewBox="0 0 24 24" fill="none" xmlns="http://www.w3.org/2000/svg">
<path fill-rule="evenodd" clip-rule="evenodd" d="M2 5C2 3.89543 2.89543 3 4 3H5C5.55228 3 6 3.44772 6 4C6 4.55228 5.55228 5 5 5H4V9C4 11.2091 5.79086 13 8 13C10.2091 13 12 11.2091 12 9V5H11C10.4477 5 10 4.55228 10 4C10 3.44772 10.4477 3 11 3H12C13.1046 3 14 3.89543 14 5V9C14 12.3137 11.3137 15 8 15C4.68629 15 2 12.3137 2 9V5Z" fill="#7369AB"/>
<path fill-rule="evenodd" clip-rule="evenodd" d="M8 13C8.55228 13 9 13.4477 9 14V15.5C9 17.9853 11.0147 20 13.5 20C15.9853 20 18 17.9853 18 15.5V14C18 13.4477 18.4477 13 19 13C19.5523 13 20 13.4477 20 14V15.5C20 19.0899 17.0899 22 13.5 22C9.91015 22 7 19.0899 7 15.5V14C7 13.4477 7.44772 13 8 13Z" fill="#7369AB"/>
<path fill-rule="evenodd" clip-rule="evenodd" d="M10 2C10.5523 2 11 2.44772 11 3V5C11 5.55228 10.5523 6 10 6C9.44772 6 9 5.55228 9 5V3C9 2.44772 9.44772 2 10 2Z" fill="#7369AB"/>
<path fill-rule="evenodd" clip-rule="evenodd" d="M6 2C6.55228 2 7 2.44772 7 3V5C7 5.55228 6.55228 6 6 6C5.44772 6 5 5.55228 5 5V3C5 2.44772 5.44772 2 6 2Z" fill="#7369AB"/>
<path fill-rule="evenodd" clip-rule="evenodd" d="M19 11C18.4477 11 18 11.4477 18 12C18 12.5523 18.4477 13 19 13C19.5523 13 20 12.5523 20 12C20 11.4477 19.5523 11 19 11ZM16 12C16 10.3431 17.3431 9 19 9C20.6569 9 22 10.3431 22 12C22 13.6569 20.6569 15 19 15C17.3431 15 16 13.6569 16 12Z" fill="#7369AB"/>
</svg>
