<svg width="19" height="24" viewBox="0 0 19 24" fill="none" xmlns="http://www.w3.org/2000/svg">
<g id="Group 47">
<path id="Vector (Stroke)" fill-rule="evenodd" clip-rule="evenodd" d="M4.12176 0C4.69805 0 5.16524 0.467181 5.16524 1.04348V2.37913C5.16524 2.95543 4.69805 3.42261 4.12176 3.42261C3.54546 3.42261 3.07828 2.95543 3.07828 2.37913V1.04348C3.07828 0.467181 3.54546 0 4.12176 0Z" fill="#7369AB"/>
<path id="Vector (Stroke)_2" fill-rule="evenodd" clip-rule="evenodd" d="M10.3931 0C10.9694 0 11.4365 0.467181 11.4365 1.04348V2.37913C11.4365 2.95543 10.9694 3.42261 10.3931 3.42261C9.81676 3.42261 9.34958 2.95543 9.34958 2.37913V1.04348C9.34958 0.467181 9.81676 0 10.3931 0Z" fill="#7369AB"/>
<path id="Vector (Stroke)_3" fill-rule="evenodd" clip-rule="evenodd" d="M-7.54642e-06 1.7112C-7.54642e-06 1.13491 0.467174 0.667725 1.04347 0.667725H4.17391C4.75021 0.667725 5.21739 1.13491 5.21739 1.7112C5.21739 2.2875 4.75021 2.75468 4.17391 2.75468H2.08695V7.82046C2.102 9.17446 2.65244 10.4675 3.6181 11.4169C4.58495 12.3675 5.88919 12.8961 7.24506 12.8869L7.26812 12.887C7.94312 12.8973 8.61351 12.7741 9.24076 12.5245C9.868 12.2749 10.4397 11.9038 10.9231 11.4325C11.4065 10.9612 11.7919 10.3991 12.0573 9.77836C12.3221 9.15916 12.4622 8.49387 12.4696 7.82053V2.75468H10.4348C9.85849 2.75468 9.3913 2.2875 9.3913 1.7112C9.3913 1.13491 9.85849 0.667725 10.4348 0.667725H13.513C14.0893 0.667725 14.5565 1.13491 14.5565 1.7112V7.83646C14.547 8.78648 14.3497 9.72526 13.9762 10.5988C13.6027 11.4724 13.0603 12.2635 12.38 12.9268C11.6998 13.59 10.8951 14.1123 10.0124 14.4636C9.13322 14.8134 8.19382 14.9868 7.24776 14.9739C5.34375 14.9838 3.5129 14.2402 2.15495 12.9051C0.794272 11.5673 0.0193742 9.74466 4.60045e-05 7.83656L-6.10352e-05 7.82599L-7.54642e-06 1.7112Z" fill="#7369AB"/>
<path id="Vector (Stroke)_4" fill-rule="evenodd" clip-rule="evenodd" d="M7.30435 12.8661C7.88065 12.8661 8.34783 13.3333 8.34783 13.9096V14.7589C8.35648 15.4312 8.49739 16.0953 8.76253 16.7132C9.02844 17.3329 9.41408 17.8941 9.89733 18.3644C10.3806 18.8348 10.9519 19.2051 11.5786 19.4542C12.2053 19.7033 12.875 19.8262 13.5493 19.8158C14.1255 19.807 14.5998 20.267 14.6086 20.8432C14.6174 21.4195 14.1574 21.8937 13.5812 21.9026C12.6322 21.9171 11.6898 21.7441 10.8078 21.3936C9.92587 21.0431 9.12179 20.5219 8.4417 19.8599C7.76161 19.198 7.21889 18.4083 6.84467 17.5361C6.47044 16.664 6.27208 15.7265 6.26095 14.7775L6.2608 14.7653H6.26087V13.9096C6.26087 13.3333 6.72806 12.8661 7.30435 12.8661Z" fill="#7369AB"/>
<path id="Vector (Stroke)_5" fill-rule="evenodd" clip-rule="evenodd" d="M15.6105 19.8052C14.9859 19.8052 14.5148 20.2964 14.5148 20.8591C14.5148 21.4219 14.9859 21.913 15.6105 21.913C16.2351 21.913 16.7061 21.4219 16.7061 20.8591C16.7061 20.2964 16.2351 19.8052 15.6105 19.8052ZM12.4279 20.8591C12.4279 19.1052 13.8722 17.7183 15.6105 17.7183C17.3487 17.7183 18.7931 19.1052 18.7931 20.8591C18.7931 22.6131 17.3487 24 15.6105 24C13.8722 24 12.4279 22.6131 12.4279 20.8591Z" fill="#7369AB"/>
</g>
</svg>
