<svg width="24" height="24" viewBox="0 0 24 24" fill="none" xmlns="http://www.w3.org/2000/svg">
<path fill-rule="evenodd" clip-rule="evenodd" d="M8 6C8 4.34315 9.34315 3 11 3H13C14.6569 3 16 4.34315 16 6V8C16 8.55228 15.5523 9 15 9H9C8.44772 9 8 8.55228 8 8V6ZM11 5C10.4477 5 10 5.44772 10 6V7H14V6C14 5.44772 13.5523 5 13 5H11Z" fill="#7369AB"/>
<path fill-rule="evenodd" clip-rule="evenodd" d="M3 10C3 8.34315 4.34315 7 6 7H18C19.6569 7 21 8.34315 21 10V17C21 18.6569 19.6569 20 18 20H6C4.34315 20 3 18.6569 3 17V10ZM6 9C5.44772 9 5 9.44772 5 10V17C5 17.5523 5.44772 18 6 18H18C18.5523 18 19 17.5523 19 17V10C19 9.44772 18.5523 9 18 9H6Z" fill="#7369AB"/>
</svg>
