<svg width="24" height="24" viewBox="0 0 24 24" fill="none" xmlns="http://www.w3.org/2000/svg">
<path fill-rule="evenodd" clip-rule="evenodd" d="M3 10C3 8.34315 4.34315 7 6 7H18C19.6569 7 21 8.34315 21 10C21 12.2091 19.2091 14 17 14H7C4.79086 14 3 12.2091 3 10ZM6 9C5.44772 9 5 9.44772 5 10C5 11.1046 5.89543 12 7 12H17C18.1046 12 19 11.1046 19 10C19 9.44772 18.5523 9 18 9H6Z" fill="#7369AB"/>
<path fill-rule="evenodd" clip-rule="evenodd" d="M8 6C8 4.34315 9.34315 3 11 3H13C14.6569 3 16 4.34315 16 6V8C16 8.55228 15.5523 9 15 9H9C8.44772 9 8 8.55228 8 8V6ZM11 5C10.4477 5 10 5.44772 10 6V7H14V6C14 5.44772 13.5523 5 13 5H11Z" fill="#7369AB"/>
<path fill-rule="evenodd" clip-rule="evenodd" d="M3 10C3 8.34315 4.34315 7 6 7H18C19.6569 7 21 8.34315 21 10V18C21 19.6569 19.6569 21 18 21H6C4.34315 21 3 19.6569 3 18V10ZM6 9C5.44772 9 5 9.44772 5 10V18C5 18.5523 5.44772 19 6 19H18C18.5523 19 19 18.5523 19 18V10C19 9.44772 18.5523 9 18 9H6Z" fill="#7369AB"/>
<path fill-rule="evenodd" clip-rule="evenodd" d="M9 11C9.55228 11 10 11.4477 10 12V14C10 14.5523 9.55228 15 9 15C8.44772 15 8 14.5523 8 14V12C8 11.4477 8.44772 11 9 11Z" fill="#7369AB"/>
<path fill-rule="evenodd" clip-rule="evenodd" d="M15 11C15.5523 11 16 11.4477 16 12V14C16 14.5523 15.5523 15 15 15C14.4477 15 14 14.5523 14 14V12C14 11.4477 14.4477 11 15 11Z" fill="#7369AB"/>
</svg>
