<svg width="24" height="24" viewBox="0 0 24 24" fill="none" xmlns="http://www.w3.org/2000/svg">
<path fill-rule="evenodd" clip-rule="evenodd" d="M3.29289 3.29289C3.68342 2.90237 4.31658 2.90237 4.70711 3.29289L21.7071 20.2929C22.0976 20.6834 22.0976 21.3166 21.7071 21.7071C21.3166 22.0976 20.6834 22.0976 20.2929 21.7071L3.29289 4.70711C2.90237 4.31658 2.90237 3.68342 3.29289 3.29289Z" fill="#7369AB"/>
<path fill-rule="evenodd" clip-rule="evenodd" d="M8 6.91421V7H6C4.34315 7 3 8.34315 3 10V17C3 18.6569 4.34315 20 6 20H18C18.8502 20 19.6179 19.6463 20.1638 19.078L18.7487 17.6629C18.5655 17.8697 18.298 18 18 18H6C5.44772 18 5 17.5523 5 17V10C5 9.44772 5.44772 9 6 9H9H10.0858L8 6.91421ZM19 15.0858V10C19 9.44772 18.5523 9 18 9H15H12.9142L10.9142 7H14V6C14 5.44772 13.5523 5 13 5H11C10.4477 5 10 5.44772 10 6V6.08579L8.40607 4.49186C8.92594 3.59965 9.89294 3 11 3H13C14.6569 3 16 4.34315 16 6V7H18C19.6569 7 21 8.34315 21 10V17C21 17.0283 20.9996 17.0565 20.9988 17.0846L19 15.0858Z" fill="#7369AB"/>
</svg>
