<svg width="24" height="24" viewBox="0 0 24 24" fill="none" xmlns="http://www.w3.org/2000/svg">
<path fill-rule="evenodd" clip-rule="evenodd" d="M2 10C2 8.34315 3.34315 7 5 7H19C20.6569 7 22 8.34315 22 10V12C22 13.1046 21.1046 14 20 14H4C2.89543 14 2 13.1046 2 12V10ZM5 9C4.44772 9 4 9.44772 4 10V12H20V10C20 9.44772 19.5523 9 19 9H5Z" fill="#7369AB"/>
<path fill-rule="evenodd" clip-rule="evenodd" d="M8 6C8 4.34315 9.34315 3 11 3H13C14.6569 3 16 4.34315 16 6V8C16 8.55228 15.5523 9 15 9H9C8.44772 9 8 8.55228 8 8V6ZM11 5C10.4477 5 10 5.44772 10 6V7H14V6C14 5.44772 13.5523 5 13 5H11Z" fill="#7369AB"/>
<path fill-rule="evenodd" clip-rule="evenodd" d="M3 13C3 12.4477 3.44772 12 4 12H20C20.5523 12 21 12.4477 21 13V18C21 19.6569 19.6569 21 18 21H6C4.34315 21 3 19.6569 3 18V13ZM5 14V18C5 18.5523 5.44772 19 6 19H18C18.5523 19 19 18.5523 19 18V14H5Z" fill="#7369AB"/>
<path fill-rule="evenodd" clip-rule="evenodd" d="M12 11C12.5523 11 13 11.4477 13 12V14C13 14.5523 12.5523 15 12 15C11.4477 15 11 14.5523 11 14V12C11 11.4477 11.4477 11 12 11Z" fill="#7369AB"/>
</svg>
