<svg width="24" height="24" viewBox="0 0 24 24" fill="none" xmlns="http://www.w3.org/2000/svg">
<g id="Support">
<path id="Ellipse 31 (Stroke)" fill-rule="evenodd" clip-rule="evenodd" d="M5.68014 7.09436C4.62708 8.44904 4 10.1513 4 12C4 13.8487 4.62708 15.551 5.68014 16.9056L7.82851 14.7573C7.30533 13.967 7 13.0186 7 12C7 10.9814 7.30533 10.033 7.82851 9.24272L5.68014 7.09436ZM7.09436 5.68014L9.24272 7.82851C10.033 7.30533 10.9814 7 12 7C13.0186 7 13.967 7.30533 14.7573 7.82851L16.9056 5.68014C15.551 4.62708 13.8487 4 12 4C10.1513 4 8.44904 4.62708 7.09436 5.68014ZM18.3199 7.09436L16.1715 9.24272C16.6947 10.033 17 10.9814 17 12C17 13.0186 16.6947 13.967 16.1715 14.7573L18.3199 16.9056C19.3729 15.551 20 13.8487 20 12C20 10.1513 19.3729 8.44904 18.3199 7.09436ZM16.9056 18.3199L14.7573 16.1715C13.967 16.6947 13.0186 17 12 17C10.9814 17 10.033 16.6947 9.24272 16.1715L7.09436 18.3199C8.44904 19.3729 10.1513 20 12 20C13.8487 20 15.551 19.3729 16.9056 18.3199ZM2 12C2 6.47715 6.47715 2 12 2C17.5228 2 22 6.47715 22 12C22 17.5228 17.5228 22 12 22C6.47715 22 2 17.5228 2 12ZM12 9C11.1713 9 10.4227 9.33469 9.87868 9.87868C9.33469 10.4227 9 11.1713 9 12C9 12.8287 9.33469 13.5773 9.87868 14.1213C10.4227 14.6653 11.1713 15 12 15C12.8287 15 13.5773 14.6653 14.1213 14.1213C14.6653 13.5773 15 12.8287 15 12C15 11.1713 14.6653 10.4227 14.1213 9.87868C13.5773 9.33469 12.8287 9 12 9Z" fill="#7369AB"/>
</g>
</svg>
