<svg width="24" height="24" viewBox="0 0 24 24" fill="none" xmlns="http://www.w3.org/2000/svg">
<path fill-rule="evenodd" clip-rule="evenodd" d="M12.7073 7.05026C13.8789 5.87869 15.7784 5.87869 16.9499 7.05026C18.1215 8.22183 18.1215 10.1213 16.9499 11.2929L9.87887 18.364C9.48834 18.7545 8.85518 18.7545 8.46465 18.364L5.63623 15.5355C5.2457 15.145 5.2457 14.5119 5.63623 14.1213L12.7073 7.05026ZM15.5357 8.46447C15.1452 8.07395 14.512 8.07395 14.1215 8.46447L7.75755 14.8284L9.17176 16.2426L15.5357 9.87869C15.9262 9.48816 15.9262 8.855 15.5357 8.46447Z" fill="#7369AB"/>
<path fill-rule="evenodd" clip-rule="evenodd" d="M4.22185 12.7071C4.61237 12.3166 5.24554 12.3166 5.63606 12.7071L11.2929 18.364C11.6834 18.7545 11.6834 19.3877 11.2929 19.7782C10.9024 20.1687 10.2692 20.1687 9.8787 19.7782L4.22185 14.1213C3.83132 13.7308 3.83132 13.0976 4.22185 12.7071Z" fill="#7369AB"/>
<path fill-rule="evenodd" clip-rule="evenodd" d="M8.46452 11.2929C8.85505 10.9024 9.48821 10.9024 9.87874 11.2929L12.7072 14.1213C13.0977 14.5118 13.0977 15.145 12.7072 15.5355C12.3166 15.9261 11.6835 15.9261 11.293 15.5355L8.46452 12.7071C8.074 12.3166 8.074 11.6834 8.46452 11.2929Z" fill="#7369AB"/>
<path fill-rule="evenodd" clip-rule="evenodd" d="M19.0712 4.92894C19.4617 5.31946 19.4617 5.95263 19.0712 6.34315L16.9499 8.46447C16.5594 8.855 15.9262 8.855 15.5357 8.46447C15.1452 8.07395 15.1452 7.44079 15.5357 7.05026L17.657 4.92894C18.0475 4.53842 18.6807 4.53842 19.0712 4.92894Z" fill="#7369AB"/>
<path fill-rule="evenodd" clip-rule="evenodd" d="M8.46452 15.5355C8.85505 15.9261 8.85505 16.5592 8.46452 16.9498L6.3432 19.0711C5.95268 19.4616 5.31951 19.4616 4.92899 19.0711C4.53847 18.6805 4.53847 18.0474 4.92899 17.6569L7.05031 15.5355C7.44083 15.145 8.074 15.145 8.46452 15.5355Z" fill="#7369AB"/>
<path fill-rule="evenodd" clip-rule="evenodd" d="M7.7574 20.4853C7.36688 20.8758 6.73371 20.8758 6.34319 20.4853L3.51476 17.6569C3.12424 17.2663 3.12424 16.6332 3.51476 16.2427C3.90528 15.8521 4.53845 15.8521 4.92897 16.2427L7.7574 19.0711C8.14792 19.4616 8.14792 20.0948 7.7574 20.4853Z" fill="#7369AB"/>
</svg>
