<svg width="24" height="24" viewBox="0 0 24 24" fill="none" xmlns="http://www.w3.org/2000/svg">
<path fill-rule="evenodd" clip-rule="evenodd" d="M2 5C2 3.34315 3.34315 2 5 2H11.1716C11.9672 2 12.7303 2.31607 13.2929 2.87868L20.5858 10.1716C22.1479 11.7337 22.1479 14.2663 20.5858 15.8284L15.8284 20.5858C14.2663 22.1479 11.7337 22.1479 10.1716 20.5858L2.87868 13.2929C2.31607 12.7303 2 11.9672 2 11.1716V5ZM5 4C4.44772 4 4 4.44772 4 5V11.1716C4 11.4368 4.10536 11.6911 4.29289 11.8787L11.5858 19.1716C12.3668 19.9526 13.6332 19.9526 14.4142 19.1716L19.1716 14.4142C19.9526 13.6332 19.9526 12.3668 19.1716 11.5858L11.8787 4.29289C11.6911 4.10536 11.4368 4 11.1716 4H5Z" fill="#7369AB"/>
<path d="M9 7.5C9 8.32843 8.32843 9 7.5 9C6.67157 9 6 8.32843 6 7.5C6 6.67157 6.67157 6 7.5 6C8.32843 6 9 6.67157 9 7.5Z" fill="#7369AB"/>
</svg>
