<svg width="24" height="24" viewBox="0 0 24 24" fill="none" xmlns="http://www.w3.org/2000/svg">
<path fill-rule="evenodd" clip-rule="evenodd" d="M2 10C2 8.89543 2.89543 8 4 8H7C7.55228 8 8 8.44772 8 9V21C8 21.5523 7.55228 22 7 22H4C2.89543 22 2 21.1046 2 20V10ZM6 10L4 10V20H6V10Z" fill="#7369AB"/>
<path fill-rule="evenodd" clip-rule="evenodd" d="M13 9C13 8.44772 13.4477 8 14 8H18.6391C20.4929 8 21.903 9.6646 21.5983 11.4932L20.4042 18.6576C20.0827 20.5863 18.414 22 16.4586 22H11.2111C10.224 22 9.25894 21.7078 8.4376 21.1603L6.4453 19.8321C6.1671 19.6466 6 19.3344 6 19V11C6 10.4477 6.44772 10 7 10C7.55228 10 8 10.4477 8 11V18.4648L9.547 19.4962C10.0398 19.8247 10.6188 20 11.2111 20H16.4586C17.4363 20 18.2707 19.2932 18.4314 18.3288L19.6255 11.1644C19.7271 10.5549 19.257 10 18.6391 10H14C13.4477 10 13 9.55228 13 9Z" fill="#7369AB"/>
<path fill-rule="evenodd" clip-rule="evenodd" d="M10.4047 3.95447C11.0294 2.70507 12.4778 2.10515 13.803 2.54688C15.1459 2.99453 15.9454 4.37214 15.6677 5.76026L14.9806 9.1961C14.8723 9.73766 14.3454 10.0889 13.8039 9.98057C13.2623 9.87226 12.9111 9.34543 13.0194 8.80387L13.7066 5.36803C13.7864 4.96897 13.5566 4.57294 13.1705 4.44425C12.7895 4.31726 12.3732 4.48972 12.1936 4.8489L8.89443 11.4472C8.72504 11.786 8.37877 12 8 12H7C6.44772 12 6 11.5523 6 11C6 10.4477 6.44772 9.99999 7 9.99999H7.38197L10.4047 3.95447Z" fill="#7369AB"/>
</svg>
