<svg width="24" height="24" viewBox="0 0 24 24" fill="none" xmlns="http://www.w3.org/2000/svg">
<path fill-rule="evenodd" clip-rule="evenodd" d="M22 14C22 15.1046 21.1046 16 20 16H17C16.4477 16 16 15.5523 16 15V3C16 2.44771 16.4477 2 17 2H20C21.1046 2 22 2.89543 22 4V14ZM18 14L20 14V4H18V14Z" fill="#7369AB"/>
<path fill-rule="evenodd" clip-rule="evenodd" d="M11 15C11 15.5523 10.5523 16 10 16H5.36092C3.5071 16 2.09697 14.3354 2.40174 12.5068L3.59581 5.3424C3.91726 3.41365 5.58603 2 7.54138 2H12.7889C13.776 2 14.7411 2.29219 15.5624 2.83975L17.5547 4.16795C17.8329 4.35342 18 4.66565 18 5V13C18 13.5523 17.5523 14 17 14C16.4477 14 16 13.5523 16 13V5.53518L14.453 4.50385C13.9602 4.17531 13.3812 4 12.7889 4H7.54138C6.5637 4 5.72932 4.70683 5.56859 5.6712L4.37453 12.8356C4.27294 13.4451 4.74298 14 5.36092 14H10C10.5523 14 11 14.4477 11 15Z" fill="#7369AB"/>
<path fill-rule="evenodd" clip-rule="evenodd" d="M13.5953 20.0455C12.9706 21.2949 11.5222 21.8949 10.197 21.4531C8.85409 21.0055 8.05463 19.6279 8.33225 18.2397L9.01942 14.8039C9.12773 14.2623 9.65456 13.9111 10.1961 14.0194C10.7377 14.1277 11.0889 14.6546 10.9806 15.1961L10.2934 18.632C10.2136 19.031 10.4434 19.4271 10.8295 19.5558C11.2105 19.6827 11.6268 19.5103 11.8064 19.1511L15.1056 12.5528C15.275 12.214 15.6212 12 16 12H17C17.5523 12 18 12.4477 18 13C18 13.5523 17.5523 14 17 14H16.618L13.5953 20.0455Z" fill="#7369AB"/>
</svg>
