<svg width="24" height="24" viewBox="0 0 24 24" fill="none" xmlns="http://www.w3.org/2000/svg">
<path fill-rule="evenodd" clip-rule="evenodd" d="M3.29289 3.29289C3.68342 2.90237 4.31658 2.90237 4.70711 3.29289L21.7071 20.2929C22.0976 20.6834 22.0976 21.3166 21.7071 21.7071C21.3166 22.0976 20.6834 22.0976 20.2929 21.7071L3.29289 4.70711C2.90237 4.31658 2.90237 3.68342 3.29289 3.29289Z" fill="#7369AB"/>
<path fill-rule="evenodd" clip-rule="evenodd" d="M7.19155 6.60577C5.25324 8.06568 4 10.3865 4 13C4 17.4183 7.58172 21 12 21C14.6135 21 16.9343 19.7468 18.3942 17.8084L16.9612 16.3754C15.8812 17.9598 14.0621 19 12 19C8.68629 19 6 16.3137 6 13C6 10.9379 7.04024 9.11881 8.62458 8.03879L7.19155 6.60577ZM17.8316 14.4174C17.9417 13.9629 18 13.4883 18 13C18 9.68629 15.3137 7 12 7C11.5117 7 11.0371 7.05833 10.5826 7.16839L8.99696 5.58275C9.92422 5.20696 10.9379 5 12 5C13.5913 5 15.0741 5.46463 16.3202 6.26562L17.2929 5.29289C17.6834 4.90237 18.3166 4.90237 18.7071 5.29289C19.0976 5.68342 19.0976 6.31658 18.7071 6.70711L17.8602 7.55402C19.1879 8.98211 20 10.8962 20 13C20 14.0621 19.793 15.0758 19.4173 16.003L17.8316 14.4174ZM10 2C9.44772 2 9 2.44772 9 3C9 3.55228 9.44772 4 10 4H14C14.5523 4 15 3.55228 15 3C15 2.44772 14.5523 2 14 2H10Z" fill="#7369AB"/>
</svg>
