<svg width="24" height="24" viewBox="0 0 24 24" fill="none" xmlns="http://www.w3.org/2000/svg">
<path fill-rule="evenodd" clip-rule="evenodd" d="M7 6C7 4.34315 8.34315 3 10 3H14C15.6569 3 17 4.34315 17 6V20C17 20.5523 16.5523 21 16 21H8C7.44772 21 7 20.5523 7 20V6ZM10 5C9.44772 5 9 5.44772 9 6V19H15V6C15 5.44772 14.5523 5 14 5H10Z" fill="#7369AB"/>
<path fill-rule="evenodd" clip-rule="evenodd" d="M2 10C2 8.34315 3.34315 7 5 7H19C20.6569 7 22 8.34315 22 10V18C22 19.6569 20.6569 21 19 21H5C3.34315 21 2 19.6569 2 18V10ZM5 9C4.44772 9 4 9.44772 4 10V18C4 18.5523 4.44772 19 5 19H19C19.5523 19 20 18.5523 20 18V10C20 9.44772 19.5523 9 19 9H5Z" fill="#7369AB"/>
</svg>
