<svg width="24" height="24" viewBox="0 0 24 24" fill="none" xmlns="http://www.w3.org/2000/svg">
<path fill-rule="evenodd" clip-rule="evenodd" d="M2.29289 6.29289C2.68342 5.90237 3.31658 5.90237 3.70711 6.29289L9 11.5858L11.5858 9C12.3668 8.21895 13.6332 8.21895 14.4142 9L20 14.5858V12C20 11.4477 20.4477 11 21 11C21.5523 11 22 11.4477 22 12V17C22 17.5523 21.5523 18 21 18H16C15.4477 18 15 17.5523 15 17C15 16.4477 15.4477 16 16 16H18.5858L13 10.4142L10.4142 13C9.63317 13.781 8.36684 13.781 7.58579 13L2.29289 7.70711C1.90237 7.31658 1.90237 6.68342 2.29289 6.29289Z" fill="#7369AB"/>
</svg>
