<svg width="32" height="32" viewBox="0 0 32 32" fill="none" xmlns="http://www.w3.org/2000/svg">
<path d="M5.27835 25.9628C6.33493 25.9628 7.19144 25.1063 7.19144 24.0497C7.19144 22.9931 6.33493 22.1366 5.27835 22.1366C4.22176 22.1366 3.36523 22.9931 3.36523 24.0497C3.36523 25.1063 4.22176 25.9628 5.27835 25.9628Z" fill="#5273A8"/>
<path d="M5.27842 26.3281C4.02231 26.3281 3 25.3058 3 24.0497C3 22.7936 4.02231 21.7712 5.27842 21.7712C6.53453 21.7712 7.55683 22.7936 7.55683 24.0497C7.55683 25.3058 6.53453 26.3281 5.27842 26.3281ZM5.27842 22.5019C4.42472 22.5019 3.73062 23.196 3.73062 24.0497C3.73062 24.9034 4.42472 25.5975 5.27842 25.5975C6.13213 25.5975 6.82621 24.9034 6.82621 24.0497C6.82621 23.196 6.13213 22.5019 5.27842 22.5019Z" fill="#09090D"/>
<path d="M19.3192 0.365662H10.0105C7.46964 0.365662 5.4104 2.42546 5.4104 4.96578V27.034C5.4104 29.5749 7.4702 31.6341 10.0105 31.6341H23.291C25.8319 31.6341 27.8911 29.5743 27.8911 27.034V8.93756L19.3192 0.365662Z" fill="white"/>
<path d="M23.2911 31.9994H10.0106C7.27245 31.9994 5.04517 29.7722 5.04517 27.034V4.9658C5.04517 2.22764 7.27245 0.000366211 10.0106 0.000366211H19.3193C19.416 0.000366211 19.5093 0.0385834 19.5778 0.10715L28.1492 8.67905C28.2177 8.74762 28.256 8.84035 28.256 8.93758V27.0346C28.256 29.7727 26.0287 32 23.2905 32L23.2911 31.9994ZM10.0106 0.73099C7.67542 0.73099 5.77579 2.63061 5.77579 4.9658V27.034C5.77579 29.3692 7.67542 31.2688 10.0106 31.2688H23.2911C25.6263 31.2688 27.5259 29.3692 27.5259 27.034V9.08876L19.1681 0.73099H10.0106Z" fill="#09090D"/>
<path d="M19.3191 0.365662L27.891 8.93756H21.1473C20.138 8.93756 19.3191 8.11926 19.3191 7.10932V0.365662Z" fill="#E4E4EB"/>
<path d="M27.8924 9.3029C27.8924 9.3029 27.8919 9.3029 27.8913 9.3029H21.1477C19.9382 9.3029 18.9541 8.3188 18.9541 7.10934V0.365688C18.9541 0.217877 19.0429 0.0846786 19.1795 0.0279148C19.316 -0.028849 19.4728 0.00262401 19.5774 0.107159L28.1324 8.6622C28.2089 8.72908 28.2572 8.82743 28.2572 8.93702C28.2572 9.13879 28.0936 9.30234 27.8919 9.30234L27.8924 9.3029ZM19.6847 1.24749V7.10934C19.6847 7.91584 20.3406 8.57228 21.1477 8.57228H27.0095L19.6853 1.24806L19.6847 1.24749Z" fill="#09090D"/>
<path d="M5.4528 13.0178C4.3164 13.0178 3.39526 13.939 3.39526 15.0754V23.6917H3.43291C3.61613 22.743 4.45016 22.0258 5.4528 22.0258H26.1733V13.0178H5.4528Z" fill="#5273A8"/>
<path d="M3.43299 24.0564H3.39534C3.19358 24.0564 3.03003 23.8929 3.03003 23.6911V15.0748C3.03003 13.7389 4.11696 12.652 5.45288 12.652H26.1734C26.3751 12.652 26.5387 12.8155 26.5387 13.0173V22.0253C26.5387 22.2271 26.3751 22.3906 26.1734 22.3906H5.45288C4.64358 22.3906 3.94498 22.9667 3.79155 23.7603C3.75839 23.9322 3.60778 24.0564 3.43299 24.0564ZM5.45288 13.3832C4.51993 13.3832 3.76065 14.1425 3.76065 15.0754V22.3502C4.20128 21.9208 4.80206 21.6606 5.45288 21.6606H25.8081V13.3832H5.45288Z" fill="#09090D"/>
<path d="M10.4314 15.6014H9.02696C8.8887 15.6014 8.77124 15.4907 8.77124 15.3525C8.77124 15.2142 8.8887 15.0967 9.02696 15.0967H12.3889C12.5272 15.0967 12.6447 15.2142 12.6447 15.3525C12.6447 15.4907 12.5272 15.6014 12.3889 15.6014H10.9845V19.6969C10.9845 19.8492 10.8597 19.9734 10.708 19.9734C10.5562 19.9734 10.4314 19.8486 10.4314 19.6969V15.6014Z" fill="white"/>
<path d="M13.4822 19.5243L15.1008 17.4696L13.5648 15.5323C13.5165 15.4699 13.4749 15.4075 13.4749 15.3249C13.4749 15.1867 13.5924 15.0619 13.7447 15.0619C13.8554 15.0619 13.9178 15.117 13.9869 15.2001L15.4465 17.0958L16.8852 15.2209C16.9611 15.131 17.0302 15.0619 17.1482 15.0619C17.2798 15.0619 17.3972 15.1726 17.3972 15.3176C17.3972 15.3867 17.3697 15.4559 17.3213 15.5115L15.7786 17.4623L17.3764 19.503C17.4315 19.5653 17.4663 19.6277 17.4663 19.7036C17.4663 19.8492 17.3489 19.9734 17.1966 19.9734C17.0859 19.9734 17.0235 19.9183 16.9544 19.8351L15.4257 17.8495L13.9178 19.8143C13.8419 19.9042 13.7728 19.9734 13.648 19.9734C13.5232 19.9734 13.4058 19.8626 13.4058 19.7176C13.4058 19.6485 13.4333 19.5794 13.4816 19.5238L13.4822 19.5243Z" fill="white"/>
<path d="M19.8885 15.6014H18.484C18.3457 15.6014 18.2283 15.4907 18.2283 15.3525C18.2283 15.2142 18.3457 15.0967 18.484 15.0967H21.846C21.9842 15.0967 22.1017 15.2142 22.1017 15.3525C22.1017 15.4907 21.9842 15.6014 21.846 15.6014H20.4415V19.6969C20.4415 19.8492 20.3167 19.9734 20.165 19.9734C20.0132 19.9734 19.8885 19.8486 19.8885 19.6969V15.6014Z" fill="white"/>
</svg>
