<svg width="24" height="24" viewBox="0 0 24 24" fill="none" xmlns="http://www.w3.org/2000/svg">
<g id="Unlock 1">
<path id="Rectangle 11 (Stroke)" fill-rule="evenodd" clip-rule="evenodd" d="M13.4258 4L11 4C9.89543 4 9 4.89543 9 6V8L16 8C18.2091 8 20 9.79086 20 12V18C20 20.2091 18.2091 22 16 22H8C5.79086 22 4 20.2091 4 18V12C4 10.1362 5.27477 8.57006 7 8.12602V6C7 3.79086 8.79086 2 11 2L13.4258 2C15.3998 2 17 3.60023 17 5.57422C17 6.1265 16.5523 6.57422 16 6.57422C15.4477 6.57422 15 6.1265 15 5.57422C15 4.7048 14.2952 4 13.4258 4ZM16 10L8 10C6.89543 10 6 10.8954 6 12V18C6 19.1046 6.89543 20 8 20H16C17.1046 20 18 19.1046 18 18V12C18 10.8954 17.1046 10 16 10ZM10 14C10 12.8954 10.8954 12 12 12C13.1046 12 14 12.8954 14 14C14 14.7403 13.5978 15.3866 13 15.7324V17C13 17.5523 12.5523 18 12 18C11.4477 18 11 17.5523 11 17V15.7324C10.4022 15.3866 10 14.7403 10 14Z" fill="#7369AB"/>
</g>
</svg>
