<svg width="24" height="24" viewBox="0 0 24 24" fill="none" xmlns="http://www.w3.org/2000/svg">
<path fill-rule="evenodd" clip-rule="evenodd" d="M13.4195 5.14544C11.7689 4.80362 10.0504 5.06889 8.57965 5.89253C7.10894 6.71617 5.98482 8.04285 5.41383 9.62884C4.84284 11.2148 4.86333 12.9536 5.47153 14.5257C6.07972 16.0978 7.23478 17.3976 8.72449 18.1864C10.2142 18.9751 11.9385 19.1998 13.5806 18.8192C15.2227 18.4386 16.6723 17.4782 17.6631 16.1145C17.9877 15.6677 18.6131 15.5686 19.0599 15.8933C19.5067 16.2179 19.6058 16.8433 19.2812 17.2901C18.0073 19.0434 16.1435 20.2782 14.0322 20.7676C11.9209 21.2569 9.70397 20.968 7.78863 19.9539C5.87329 18.9398 4.38822 17.2686 3.60625 15.2473C2.82428 13.226 2.79794 10.9905 3.53207 8.95136C4.2662 6.91224 5.71149 5.2065 7.60241 4.14754C9.49332 3.08857 11.7029 2.74751 13.8251 3.187C15.9473 3.62649 17.8397 4.81702 19.1545 6.53986C19.9942 7.64009 20.5623 8.91021 20.8278 10.2479C21.2206 9.90539 21.8173 9.92117 22.1913 10.2952C22.5818 10.6857 22.5818 11.3189 22.1913 11.7094L20.6913 13.2094C20.3008 13.6 19.6676 13.6 19.2771 13.2094L17.7771 11.7094C17.3866 11.3189 17.3866 10.6857 17.7771 10.2952C18.032 10.0403 18.3903 9.9518 18.717 10.0296C18.4774 9.2131 18.0891 8.44054 17.5646 7.75322C16.542 6.41324 15.0701 5.48727 13.4195 5.14544Z" fill="#7369AB"/>
<path fill-rule="evenodd" clip-rule="evenodd" d="M12 7C12.5523 7 13 7.44772 13 8V11.5858L15.7071 14.2929C16.0976 14.6834 16.0976 15.3166 15.7071 15.7071C15.3166 16.0976 14.6834 16.0976 14.2929 15.7071L11.2929 12.7071C11.1054 12.5196 11 12.2652 11 12V8C11 7.44772 11.4477 7 12 7Z" fill="#7369AB"/>
</svg>
