<svg width="24" height="24" viewBox="0 0 24 24" fill="none" xmlns="http://www.w3.org/2000/svg">
<path fill-rule="evenodd" clip-rule="evenodd" d="M18.5 21C17.9477 21 17.5 20.5523 17.5 20L17.5 16.4142L16.7071 17.2071C16.3166 17.5976 15.6834 17.5976 15.2929 17.2071C14.9024 16.8166 14.9024 16.1834 15.2929 15.7929L17.7929 13.2929C18.1834 12.9024 18.8166 12.9024 19.2071 13.2929L21.7071 15.7929C22.0976 16.1834 22.0976 16.8166 21.7071 17.2071C21.3166 17.5976 20.6834 17.5976 20.2929 17.2071L19.5 16.4142L19.5 20C19.5 20.5523 19.0523 21 18.5 21Z" fill="#7369AB"/>
<path fill-rule="evenodd" clip-rule="evenodd" d="M5 6C4.44772 6 4 6.44772 4 7V17C4 17.5523 4.44772 18 5 18H12C12.5523 18 13 18.4477 13 19C13 19.5523 12.5523 20 12 20H5C3.34315 20 2 18.6569 2 17V7C2 5.34315 3.34315 4 5 4H9.58579C10.1162 4 10.6249 4.21071 11 4.58579L12.4142 6H19C20.6569 6 22 7.34315 22 9V11C22 11.5523 21.5523 12 21 12C20.4477 12 20 11.5523 20 11V9C20 8.44772 19.5523 8 19 8H12C11.7348 8 11.4804 7.89464 11.2929 7.70711L9.58579 6H5Z" fill="#7369AB"/>
</svg>
