<svg width="24" height="24" viewBox="0 0 24 24" fill="none" xmlns="http://www.w3.org/2000/svg">
<path fill-rule="evenodd" clip-rule="evenodd" d="M7 6C6.44772 6 6 6.44772 6 7V15H18V12.5C18 11.9477 18.4477 11.5 19 11.5C19.5523 11.5 20 11.9477 20 12.5V16C20 16.5523 19.5523 17 19 17H5C4.44772 17 4 16.5523 4 16V7C4 5.34315 5.34315 4 7 4H13C13.5523 4 14 4.44772 14 5C14 5.55228 13.5523 6 13 6H7Z" fill="#7369AB"/>
<path fill-rule="evenodd" clip-rule="evenodd" d="M18.5 10C17.9477 10 17.5 9.55228 17.5 9L17.5 5.41421L16.7071 6.20711C16.3166 6.59763 15.6834 6.59763 15.2929 6.20711C14.9024 5.81658 14.9024 5.18342 15.2929 4.79289L17.7929 2.29289C18.1834 1.90237 18.8166 1.90237 19.2071 2.29289L21.7071 4.79289C22.0976 5.18342 22.0976 5.81658 21.7071 6.20711C21.3166 6.59763 20.6834 6.59763 20.2929 6.20711L19.5 5.41421L19.5 9C19.5 9.55228 19.0523 10 18.5 10Z" fill="#7369AB"/>
<path fill-rule="evenodd" clip-rule="evenodd" d="M2 16C2 15.4477 2.44772 15 3 15H21C21.5523 15 22 15.4477 22 16V17C22 18.6569 20.6569 20 19 20H5C3.34315 20 2 18.6569 2 17V16ZM4 17C4 17.5523 4.44772 18 5 18H19C19.5523 18 20 17.5523 20 17H4Z" fill="#7369AB"/>
</svg>
