<svg width="24" height="24" viewBox="0 0 24 24" fill="none" xmlns="http://www.w3.org/2000/svg">
<path fill-rule="evenodd" clip-rule="evenodd" d="M2 6C2 4.34315 3.34315 3 5 3H19C20.6569 3 22 4.34315 22 6V13C22 13.5523 21.5523 14 21 14C20.4477 14 20 13.5523 20 13V11H4V18C4 18.5523 4.44772 19 5 19H12C12.5523 19 13 19.4477 13 20C13 20.5523 12.5523 21 12 21H5C3.34315 21 2 19.6569 2 18V6ZM4 9H20V6C20 5.44772 19.5523 5 19 5H5C4.44772 5 4 5.44772 4 6V9Z" fill="#7369AB"/>
<path fill-rule="evenodd" clip-rule="evenodd" d="M17.5 22C16.9477 22 16.5 21.5523 16.5 21L16.5 17.4142L15.7071 18.2071C15.3166 18.5976 14.6834 18.5976 14.2929 18.2071C13.9024 17.8166 13.9024 17.1834 14.2929 16.7929L16.7929 14.2929C17.1834 13.9024 17.8166 13.9024 18.2071 14.2929L20.7071 16.7929C21.0976 17.1834 21.0976 17.8166 20.7071 18.2071C20.3166 18.5976 19.6834 18.5976 19.2929 18.2071L18.5 17.4142L18.5 21C18.5 21.5523 18.0523 22 17.5 22Z" fill="#7369AB"/>
<path d="M7 7C7 7.55228 6.55228 8 6 8C5.44772 8 5 7.55228 5 7C5 6.44772 5.44772 6 6 6C6.55228 6 7 6.44772 7 7Z" fill="#7369AB"/>
<path d="M10 7C10 7.55228 9.55228 8 9 8C8.44772 8 8 7.55228 8 7C8 6.44772 8.44772 6 9 6C9.55228 6 10 6.44772 10 7Z" fill="#7369AB"/>
</svg>
