<svg width="24" height="24" viewBox="0 0 24 24" fill="none" xmlns="http://www.w3.org/2000/svg">
<path fill-rule="evenodd" clip-rule="evenodd" d="M7 4C6.44772 4 6 4.44772 6 5V19C6 19.5523 6.44772 20 7 20H7.5C8.05228 20 8.5 20.4477 8.5 21C8.5 21.5523 8.05228 22 7.5 22H7C5.34315 22 4 20.6569 4 19V5C4 3.34315 5.34315 2 7 2H13.5C13.7691 2 14.0269 2.10847 14.215 2.30088L19.715 7.92588C19.8977 8.11273 20 8.36367 20 8.625V19C20 20.6569 18.6569 22 17 22H16.5C15.9477 22 15.5 21.5523 15.5 21C15.5 20.4477 15.9477 20 16.5 20H17C17.5523 20 18 19.5523 18 19V9.625H14.5C13.3954 9.625 12.5 8.72957 12.5 7.625V4H7ZM14.5 5.4531L16.6236 7.625H14.5V5.4531Z" fill="#7369AB"/>
<path fill-rule="evenodd" clip-rule="evenodd" d="M12 22C11.4477 22 11 21.5523 11 21L11 15.4142L10.2071 16.2071C9.81658 16.5976 9.18342 16.5976 8.79289 16.2071C8.40237 15.8166 8.40237 15.1834 8.79289 14.7929L11.2929 12.2929C11.4804 12.1054 11.7348 12 12 12C12.2652 12 12.5196 12.1054 12.7071 12.2929L15.2071 14.7929C15.5976 15.1834 15.5976 15.8166 15.2071 16.2071C14.8166 16.5976 14.1834 16.5976 13.7929 16.2071L13 15.4142L13 21C13 21.5523 12.5523 22 12 22Z" fill="#7369AB"/>
</svg>
