<svg width="24" height="24" viewBox="0 0 24 24" fill="none" xmlns="http://www.w3.org/2000/svg">
<path fill-rule="evenodd" clip-rule="evenodd" d="M12.0001 23.6667C11.2637 23.6667 10.6667 23.0697 10.6667 22.3333L10.6667 12.219L9.60956 13.2761C9.08886 13.7968 8.24464 13.7968 7.72394 13.2761C7.20324 12.7554 7.20324 11.9112 7.72394 11.3905L11.0573 8.0572C11.578 7.53649 12.4222 7.53649 12.9429 8.0572L16.2762 11.3905C16.7969 11.9112 16.7969 12.7554 16.2762 13.2761C15.7555 13.7968 14.9113 13.7968 14.3906 13.2761L13.3334 12.219L13.3334 22.3333C13.3334 23.0697 12.7365 23.6667 12.0001 23.6667Z" fill="#7369AB"/>
<path fill-rule="evenodd" clip-rule="evenodd" d="M4.42907 6.40968C5.50566 3.26279 8.48735 1 12 1C15.5126 1 18.4943 3.26279 19.5709 6.40968C22.0858 6.83918 24 9.02938 24 11.6667C24 14.6122 21.6122 17 18.6667 17H17.3333C16.597 17 16 16.403 16 15.6667C16 14.9303 16.597 14.3333 17.3333 14.3333H18.6667C20.1394 14.3333 21.3333 13.1394 21.3333 11.6667C21.3333 10.1939 20.1394 9 18.6667 9C18.6368 9 18.607 9.00049 18.5773 9.00146C17.9269 9.02269 17.3562 8.57138 17.227 7.93364C16.7336 5.49895 14.5793 3.66667 12 3.66667C9.42071 3.66667 7.26639 5.49895 6.77302 7.93364C6.64379 8.57138 6.0731 9.02269 5.42274 9.00146C5.39302 9.00049 5.36321 9 5.33333 9C3.86057 9 2.66667 10.1939 2.66667 11.6667C2.66667 13.1394 3.86057 14.3333 5.33333 14.3333H6.66667C7.40305 14.3333 8 14.9303 8 15.6667C8 16.403 7.40305 17 6.66667 17H5.33333C2.38781 17 0 14.6122 0 11.6667C0 9.02938 1.91423 6.83918 4.42907 6.40968Z" fill="#7369AB"/>
</svg>
