<svg width="16" height="16" viewBox="0 0 16 16" fill="none" xmlns="http://www.w3.org/2000/svg">
<path fill-rule="evenodd" clip-rule="evenodd" d="M7.29289 0.292893C7.68342 -0.0976311 8.31658 -0.097631 8.70711 0.292893L10.7071 2.29289C11.0976 2.68342 11.0976 3.31658 10.7071 3.70711C10.3166 4.09763 9.68342 4.09763 9.29289 3.70711L9 3.41421L9 11C9 11.5523 8.55228 12 8 12C7.44772 12 7 11.5523 7 11L7 3.41421L6.70711 3.70711C6.31658 4.09763 5.68342 4.09763 5.29289 3.70711C4.90237 3.31658 4.90237 2.68342 5.29289 2.29289L7.29289 0.292893ZM1 10C1.55228 10 2 10.4477 2 11V13C2 13.5523 2.44772 14 3 14H13C13.5523 14 14 13.5523 14 13V11C14 10.4477 14.4477 10 15 10C15.5523 10 16 10.4477 16 11V13C16 14.6569 14.6569 16 13 16H3C1.34315 16 0 14.6569 0 13V11C0 10.4477 0.447715 10 1 10Z" fill="#7369AB"/>
</svg>
