<svg width="18" height="18" viewBox="0 0 18 18" fill="none" xmlns="http://www.w3.org/2000/svg">
<path fill-rule="evenodd" clip-rule="evenodd" d="M8.2929 0.292893C8.68342 -0.0976311 9.31659 -0.097631 9.70711 0.292893L12.2071 2.79289C12.5976 3.18342 12.5976 3.81658 12.2071 4.20711C11.8166 4.59763 11.1834 4.59763 10.7929 4.20711L10 3.41421L10 11C10 11.5523 9.55229 12 9 12C8.44772 12 8 11.5523 8 11L8 3.41421L7.20711 4.20711C6.81658 4.59763 6.18342 4.59763 5.7929 4.20711C5.40237 3.81658 5.40237 3.18342 5.7929 2.79289L8.2929 0.292893ZM4.1808 5L5 5C5.55229 5 6 5.44772 6 6C6 6.55228 5.55229 7 5 7H4.22C3.63373 7 3.25517 7.0008 2.96722 7.02472C2.69125 7.04763 2.58924 7.0865 2.53903 7.11259C2.35638 7.20746 2.20746 7.35638 2.11259 7.53903C2.08651 7.58924 2.04764 7.69125 2.02472 7.96722C2.00081 8.25517 2 8.63372 2 9.22V13.78C2 14.3663 2.00081 14.7448 2.02472 15.0328C2.04764 15.3088 2.08651 15.4108 2.11259 15.461C2.20746 15.6436 2.35638 15.7925 2.53903 15.8874C2.58924 15.9135 2.69125 15.9524 2.96722 15.9753C3.25517 15.9992 3.63373 16 4.22 16H13.78C14.3663 16 14.7448 15.9992 15.0328 15.9753C15.3088 15.9524 15.4108 15.9135 15.461 15.8874C15.6436 15.7925 15.7925 15.6436 15.8874 15.461C15.9135 15.4108 15.9524 15.3088 15.9753 15.0328C15.9992 14.7448 16 14.3663 16 13.78V9.22C16 8.63372 15.9992 8.25517 15.9753 7.96722C15.9524 7.69125 15.9135 7.58924 15.8874 7.53903C15.7925 7.35638 15.6436 7.20746 15.461 7.11259C15.4108 7.0865 15.3088 7.04763 15.0328 7.02472C14.7448 7.0008 14.3663 7 13.78 7H13C12.4477 7 12 6.55228 12 6C12 5.44772 12.4477 5 13 5L13.8192 5C14.3552 4.99998 14.8176 4.99996 15.1983 5.03158C15.6002 5.06495 15.9997 5.13867 16.3829 5.33776C16.9309 5.62239 17.3776 6.06915 17.6622 6.61708C17.8613 7.00034 17.935 7.39982 17.9684 7.8017C18 8.18237 18 8.64479 18 9.18083V13.8192C18 14.3552 18 14.8176 17.9684 15.1983C17.935 15.6002 17.8613 15.9997 17.6622 16.3829C17.3776 16.9309 16.9309 17.3776 16.3829 17.6622C15.9997 17.8613 15.6002 17.935 15.1983 17.9684C14.8176 18 14.3552 18 13.8192 18H4.18083C3.64479 18 3.18238 18 2.8017 17.9684C2.39982 17.935 2.00035 17.8613 1.61708 17.6622C1.06915 17.3776 0.622388 16.9309 0.337762 16.3829C0.138671 15.9997 0.0649539 15.6002 0.031579 15.1983C-3.35611e-05 14.8176 -1.75886e-05 14.3552 8.88871e-07 13.8192V9.1808C-1.75886e-05 8.64478 -3.35611e-05 8.18237 0.031579 7.8017C0.0649539 7.39982 0.138671 7.00034 0.337762 6.61708C0.622388 6.06915 1.06915 5.62239 1.61708 5.33776C2.00034 5.13867 2.39982 5.06495 2.8017 5.03158C3.18237 4.99996 3.64478 4.99998 4.1808 5Z" fill="#7369AB"/>
</svg>
