<svg width="24" height="24" viewBox="0 0 24 24" fill="none" xmlns="http://www.w3.org/2000/svg">
<g id="User Group">
<path id="Vector 1 (Stroke)" fill-rule="evenodd" clip-rule="evenodd" d="M9 6C7.89543 6 7 6.89543 7 8C7 9.10457 7.89543 10 9 10C10.1046 10 11 9.10457 11 8C11 6.89543 10.1046 6 9 6ZM5 8C5 5.79086 6.79086 4 9 4C11.2091 4 13 5.79086 13 8C13 10.2091 11.2091 12 9 12C6.79086 12 5 10.2091 5 8ZM14 5C14 4.44772 14.4477 4 15 4C17.2091 4 19 5.79086 19 8C19 10.2091 17.2091 12 15 12C14.4477 12 14 11.5523 14 11C14 10.4477 14.4477 10 15 10C16.1046 10 17 9.10457 17 8C17 6.89543 16.1046 6 15 6C14.4477 6 14 5.55228 14 5ZM7 15C5.34315 15 4 16.3431 4 18V19C4 19.5523 3.55228 20 3 20C2.44772 20 2 19.5523 2 19V18C2 15.2386 4.23858 13 7 13H11C13.7614 13 16 15.2386 16 18V19C16 19.5523 15.5523 20 15 20C14.4477 20 14 19.5523 14 19V18C14 16.3431 12.6569 15 11 15H7ZM15.5 14C15.5 13.4477 15.9477 13 16.5 13H17C19.7614 13 22 15.2386 22 18V19C22 19.5523 21.5523 20 21 20C20.4477 20 20 19.5523 20 19V18C20 16.3431 18.6569 15 17 15H16.5C15.9477 15 15.5 14.5523 15.5 14Z" fill="#7369AB"/>
</g>
</svg>
