<svg width="24" height="24" viewBox="0 0 24 24" fill="none" xmlns="http://www.w3.org/2000/svg">
<g id="User Delete">
<path id="Vector 1 (Stroke)" fill-rule="evenodd" clip-rule="evenodd" d="M11 4C9.34315 4 8 5.34315 8 7C8 8.65685 9.34315 10 11 10C12.6569 10 14 8.65685 14 7C14 5.34315 12.6569 4 11 4ZM6 7C6 4.23858 8.23858 2 11 2C13.7614 2 16 4.23858 16 7C16 9.76142 13.7614 12 11 12C8.23858 12 6 9.76142 6 7ZM9 15C6.79086 15 5 16.7909 5 19V20C5 20.5523 4.55228 21 4 21C3.44772 21 3 20.5523 3 20V19C3 15.6863 5.68629 13 9 13H12.75C13.3023 13 13.75 13.4477 13.75 14C13.75 14.5523 13.3023 15 12.75 15H9ZM20.2929 14.2929C20.6834 13.9024 21.3166 13.9024 21.7071 14.2929C22.0976 14.6834 22.0976 15.3166 21.7071 15.7071L19.9142 17.5L21.7071 19.2929C22.0976 19.6834 22.0976 20.3166 21.7071 20.7071C21.3166 21.0976 20.6834 21.0976 20.2929 20.7071L18.5 18.9142L16.7071 20.7071C16.3166 21.0976 15.6834 21.0976 15.2929 20.7071C14.9024 20.3166 14.9024 19.6834 15.2929 19.2929L17.0858 17.5L15.2929 15.7071C14.9024 15.3166 14.9024 14.6834 15.2929 14.2929C15.6834 13.9024 16.3166 13.9024 16.7071 14.2929L18.5 16.0858L20.2929 14.2929Z" fill="#7369AB"/>
</g>
</svg>
