<svg width="24" height="24" viewBox="0 0 24 24" fill="none" xmlns="http://www.w3.org/2000/svg">
<g id="User Circle">
<path id="Vector 1 (Stroke)" fill-rule="evenodd" clip-rule="evenodd" d="M12 4C7.58172 4 4 7.58172 4 12C4 14.2886 4.96049 16.3533 6.50295 17.8124C7.3144 16.1471 9.02278 15 11 15H13C14.9772 15 16.6856 16.1471 17.4971 17.8124C19.0395 16.3533 20 14.2886 20 12C20 7.58172 16.4183 4 12 4ZM15.8371 19.0217C15.4316 17.8454 14.314 17 13 17H11C9.68602 17 8.56837 17.8454 8.16289 19.0217C9.30147 19.6454 10.6082 20 12 20C13.3918 20 14.6985 19.6454 15.8371 19.0217ZM2 12C2 6.47715 6.47715 2 12 2C17.5228 2 22 6.47715 22 12C22 15.4826 20.2189 18.5488 17.5225 20.3379C15.9397 21.3882 14.0398 22 12 22C9.96025 22 8.06034 21.3882 6.47747 20.3379C3.78112 18.5488 2 15.4826 2 12ZM12 8C10.8954 8 10 8.89543 10 10C10 11.1046 10.8954 12 12 12C13.1046 12 14 11.1046 14 10C14 8.89543 13.1046 8 12 8ZM8 10C8 7.79086 9.79086 6 12 6C14.2091 6 16 7.79086 16 10C16 12.2091 14.2091 14 12 14C9.79086 14 8 12.2091 8 10Z" fill="#7369AB"/>
</g>
</svg>
