<svg width="24" height="24" viewBox="0 0 24 24" fill="none" xmlns="http://www.w3.org/2000/svg">
<g id="User Check">
<path id="Vector 3 (Stroke)" fill-rule="evenodd" clip-rule="evenodd" d="M11 4C9.34315 4 8 5.34315 8 7C8 8.65685 9.34315 10 11 10C12.6569 10 14 8.65685 14 7C14 5.34315 12.6569 4 11 4ZM6 7C6 4.23858 8.23858 2 11 2C13.7614 2 16 4.23858 16 7C16 9.76142 13.7614 12 11 12C8.23858 12 6 9.76142 6 7ZM9 15C6.79086 15 5 16.7909 5 19V20C5 20.5523 4.55228 21 4 21C3.44772 21 3 20.5523 3 20V19C3 15.6863 5.68629 13 9 13H12.75C13.3023 13 13.75 13.4477 13.75 14C13.75 14.5523 13.3023 15 12.75 15H9ZM21.2929 13.2929C21.6834 12.9024 22.3166 12.9024 22.7071 13.2929C23.0976 13.6834 23.0976 14.3166 22.7071 14.7071L16.7071 20.7071C16.3166 21.0976 15.6834 21.0976 15.2929 20.7071L13.2929 18.7071C12.9024 18.3166 12.9024 17.6834 13.2929 17.2929C13.6834 16.9024 14.3166 16.9024 14.7071 17.2929L16 18.5858L21.2929 13.2929Z" fill="#7369AB"/>
</g>
</svg>
