<svg width="24" height="24" viewBox="0 0 24 24" fill="none" xmlns="http://www.w3.org/2000/svg">
<g id="User">
<path id="Vector 1 (Stroke)" fill-rule="evenodd" clip-rule="evenodd" d="M12 4C10.3431 4 9 5.34315 9 7C9 8.65685 10.3431 10 12 10C13.6569 10 15 8.65685 15 7C15 5.34315 13.6569 4 12 4ZM7 7C7 4.23858 9.23858 2 12 2C14.7614 2 17 4.23858 17 7C17 9.76142 14.7614 12 12 12C9.23858 12 7 9.76142 7 7ZM10 15C7.79086 15 6 16.7909 6 19V20C6 20.5523 5.55228 21 5 21C4.44772 21 4 20.5523 4 20V19C4 15.6863 6.68629 13 10 13H14C17.3137 13 20 15.6863 20 19V20C20 20.5523 19.5523 21 19 21C18.4477 21 18 20.5523 18 20V19C18 16.7909 16.2091 15 14 15H10Z" fill="#7369AB"/>
</g>
</svg>
