<svg width="24" height="24" viewBox="0 0 24 24" fill="none" xmlns="http://www.w3.org/2000/svg">
<g id="User Add">
<path id="Vector 1 (Stroke)" fill-rule="evenodd" clip-rule="evenodd" d="M11 4C9.34315 4 8 5.34315 8 7C8 8.65685 9.34315 10 11 10C12.6569 10 14 8.65685 14 7C14 5.34315 12.6569 4 11 4ZM6 7C6 4.23858 8.23858 2 11 2C13.7614 2 16 4.23858 16 7C16 9.76142 13.7614 12 11 12C8.23858 12 6 9.76142 6 7ZM17.5355 12.9645C18.0878 12.9645 18.5355 13.4122 18.5355 13.9645V16.5H21.0711C21.6233 16.5 22.0711 16.9477 22.0711 17.5C22.0711 18.0523 21.6233 18.5 21.0711 18.5H18.5355V21.0355C18.5355 21.5878 18.0878 22.0355 17.5355 22.0355C16.9832 22.0355 16.5355 21.5878 16.5355 21.0355V18.5H14C13.4477 18.5 13 18.0523 13 17.5C13 16.9477 13.4477 16.5 14 16.5H16.5355V13.9645C16.5355 13.4122 16.9832 12.9645 17.5355 12.9645ZM9 15C6.79086 15 5 16.7909 5 19V20C5 20.5523 4.55228 21 4 21C3.44772 21 3 20.5523 3 20V19C3 15.6863 5.68629 13 9 13H12.75C13.3023 13 13.75 13.4477 13.75 14C13.75 14.5523 13.3023 15 12.75 15H9Z" fill="#7369AB"/>
</g>
</svg>
