<svg width="18" height="16" viewBox="0 0 18 16" fill="none" xmlns="http://www.w3.org/2000/svg">
<path fill-rule="evenodd" clip-rule="evenodd" d="M17 2L1 2C0.447715 2 5.96046e-08 1.55229 0 1C0 0.447717 0.447715 1.43051e-06 1 1.37091e-06L17 0C17.5523 0 18 0.447715 18 1C18 1.55228 17.5523 2 17 2ZM3 7C3 5.89543 3.89543 5 5 5H13C14.1046 5 15 5.89543 15 7V9C15 10.1046 14.1046 11 13 11H5C3.89543 11 3 10.1046 3 9V7ZM13 7H5V9H13V7ZM0 15C0 14.4477 0.447715 14 1 14H17C17.5523 14 18 14.4477 18 15C18 15.5523 17.5523 16 17 16H1C0.447715 16 0 15.5523 0 15Z" fill="#7369AB"/>
</svg>
