<svg width="24" height="24" viewBox="0 0 24 24" fill="none" xmlns="http://www.w3.org/2000/svg">
<path fill-rule="evenodd" clip-rule="evenodd" d="M6 8C5.44772 8 5 8.44772 5 9V15C5 15.5523 5.44772 16 6 16H13C13.5523 16 14 15.5523 14 15V9C14 8.44772 13.5523 8 13 8H6ZM3 9C3 7.34315 4.34315 6 6 6H13C14.6569 6 16 7.34315 16 9V15C16 16.6569 14.6569 18 13 18H6C4.34315 18 3 16.6569 3 15V9Z" fill="#7369AB"/>
<path fill-rule="evenodd" clip-rule="evenodd" d="M17.7506 7.51886C19.0601 6.47124 21 7.40358 21 9.0806V14.9193C21 16.5964 19.0601 17.5287 17.7506 16.4811L14.7506 14.0811C14.2762 13.7015 14 13.1269 14 12.5193V11.4806C14 10.873 14.2762 10.2984 14.7506 9.91886L17.7506 7.51886ZM19 9.0806L16 11.4806V12.5193L19 14.9193V9.0806Z" fill="#7369AB"/>
</svg>
