<svg width="24" height="24" viewBox="0 0 24 24" fill="none" xmlns="http://www.w3.org/2000/svg">
<path fill-rule="evenodd" clip-rule="evenodd" d="M2 6C2 3.79086 3.79086 2 6 2H14C16.2091 2 18 3.79086 18 6V14C18 16.2091 16.2091 18 14 18H6C3.79086 18 2 16.2091 2 14V6ZM6 4C4.89543 4 4 4.89543 4 6V14C4 15.1046 4.89543 16 6 16H14C15.1046 16 16 15.1046 16 14V6C16 4.89543 15.1046 4 14 4H6Z" fill="#7369AB"/>
<path fill-rule="evenodd" clip-rule="evenodd" d="M21 6C21.5523 6 22 6.44772 22 7V18C22 20.2091 20.2091 22 18 22H7C6.44772 22 6 21.5523 6 21C6 20.4477 6.44772 20 7 20H18C19.1046 20 20 19.1046 20 18V7C20 6.44772 20.4477 6 21 6Z" fill="#7369AB"/>
<path d="M9 12V8L12.1429 10L9 12Z" fill="#7369AB"/>
<path fill-rule="evenodd" clip-rule="evenodd" d="M8.51879 7.12339C8.83874 6.94776 9.22895 6.96039 9.53688 7.15634L12.6797 9.15634C12.9682 9.3399 13.1429 9.6581 13.1429 10C13.1429 10.3419 12.9682 10.6601 12.6797 10.8437L9.53688 12.8437C9.22895 13.0396 8.83874 13.0522 8.51879 12.8766C8.19885 12.701 8 12.365 8 12V8C8 7.63502 8.19885 7.29903 8.51879 7.12339ZM10 9.82167V10.1783L10.2802 10L10 9.82167Z" fill="#7369AB"/>
</svg>
