<svg width="24" height="24" viewBox="0 0 24 24" fill="none" xmlns="http://www.w3.org/2000/svg">
<path fill-rule="evenodd" clip-rule="evenodd" d="M9.75061 5.51889C11.0601 4.47127 13 5.40361 13 7.08063V16.9194C13 18.5964 11.0601 19.5287 9.75061 18.4811L6.64922 16H4C2.89543 16 2 15.1046 2 14V10C2 8.89543 2.89543 8 4 8H6.64922L9.75061 5.51889ZM11 7.08063L7.89861 9.56174C7.54398 9.84544 7.10336 10 6.64922 10H4V14H6.64922C7.10336 14 7.54398 14.1546 7.89861 14.4383L11 16.9194V7.08063Z" fill="#7369AB"/>
<path fill-rule="evenodd" clip-rule="evenodd" d="M18.5 8.5C19.0523 8.5 19.5 8.94772 19.5 9.5V11H21C21.5523 11 22 11.4477 22 12C22 12.5523 21.5523 13 21 13H19.5V14.5C19.5 15.0523 19.0523 15.5 18.5 15.5C17.9477 15.5 17.5 15.0523 17.5 14.5V13H16C15.4477 13 15 12.5523 15 12C15 11.4477 15.4477 11 16 11H17.5V9.5C17.5 8.94772 17.9477 8.5 18.5 8.5Z" fill="#7369AB"/>
</svg>
