<svg width="24" height="24" viewBox="0 0 24 24" fill="none" xmlns="http://www.w3.org/2000/svg">
<path fill-rule="evenodd" clip-rule="evenodd" d="M9.75061 5.51889C11.0601 4.47127 13 5.40361 13 7.08063V16.9194C13 18.5964 11.0601 19.5287 9.75061 18.4811L6.64922 16H4C2.89543 16 2 15.1046 2 14V10C2 8.89543 2.89543 8 4 8H6.64922L9.75061 5.51889ZM11 7.08063L7.89861 9.56174C7.54398 9.84544 7.10336 10 6.64922 10H4V14H6.64922C7.10336 14 7.54398 14.1546 7.89861 14.4383L11 16.9194V7.08063Z" fill="#7369AB"/>
<path fill-rule="evenodd" clip-rule="evenodd" d="M16.8786 8.50725C17.6537 9.58995 18.0467 10.8997 17.9956 12.2303C17.9445 13.5609 17.4522 14.8367 16.5963 15.8567C16.2413 16.2798 15.6105 16.335 15.1874 15.98C14.7644 15.625 14.7092 14.9942 15.0642 14.5711C15.6348 13.8911 15.963 13.0406 15.997 12.1535C16.0311 11.2665 15.7692 10.3933 15.2524 9.67149C14.9309 9.22243 15.0343 8.59777 15.4834 8.27627C15.9324 7.95477 16.5571 8.05819 16.8786 8.50725Z" fill="#7369AB"/>
<path fill-rule="evenodd" clip-rule="evenodd" d="M19.7494 5.67971C21.2202 7.48304 22.016 9.74283 21.9998 12.0698C21.9835 14.3968 21.1562 16.6453 19.6604 18.4279C19.3054 18.851 18.6747 18.9061 18.2516 18.5511C17.8285 18.1961 17.7734 17.5654 18.1284 17.1423C19.325 15.7162 19.9868 13.9174 19.9998 12.0559C20.0128 10.1943 19.3762 8.38643 18.1996 6.94377C17.8505 6.51578 17.9145 5.88585 18.3425 5.53679C18.7705 5.18773 19.4004 5.25172 19.7494 5.67971Z" fill="#7369AB"/>
</svg>
