<svg width="24" height="24" viewBox="0 0 24 24" fill="none" xmlns="http://www.w3.org/2000/svg">
<path fill-rule="evenodd" clip-rule="evenodd" d="M9.75061 5.51889C11.0601 4.47127 13 5.40361 13 7.08063V16.9194C13 18.5964 11.0601 19.5287 9.75061 18.4811L6.64922 16H4C2.89543 16 2 15.1046 2 14V10C2 8.89543 2.89543 8 4 8H6.64922L9.75061 5.51889ZM11 7.08063L7.89861 9.56174C7.54398 9.84544 7.10336 10 6.64922 10H4V14H6.64922C7.10336 14 7.54398 14.1546 7.89861 14.4383L11 16.9194V7.08063Z" fill="#7369AB"/>
<path fill-rule="evenodd" clip-rule="evenodd" d="M15.2929 8.79289C15.6834 8.40237 16.3166 8.40237 16.7071 8.79289L18.5 10.5858L20.2929 8.79289C20.6834 8.40237 21.3166 8.40237 21.7071 8.79289C22.0976 9.18342 22.0976 9.81658 21.7071 10.2071L19.9142 12L21.7071 13.7929C22.0976 14.1834 22.0976 14.8166 21.7071 15.2071C21.3166 15.5976 20.6834 15.5976 20.2929 15.2071L18.5 13.4142L16.7071 15.2071C16.3166 15.5976 15.6834 15.5976 15.2929 15.2071C14.9024 14.8166 14.9024 14.1834 15.2929 13.7929L17.0858 12L15.2929 10.2071C14.9024 9.81658 14.9024 9.18342 15.2929 8.79289Z" fill="#7369AB"/>
</svg>
