<svg width="24" height="24" viewBox="0 0 24 24" fill="none" xmlns="http://www.w3.org/2000/svg">
<path fill-rule="evenodd" clip-rule="evenodd" d="M4.29289 4.29289C4.68342 3.90237 5.31658 3.90237 5.70711 4.29289L19.7071 18.2929C20.0976 18.6834 20.0976 19.3166 19.7071 19.7071C19.3166 20.0976 18.6834 20.0976 18.2929 19.7071L4.29289 5.70711C3.90237 5.31658 3.90237 4.68342 4.29289 4.29289Z" fill="#7369AB"/>
<path fill-rule="evenodd" clip-rule="evenodd" d="M8.00287 6.91708L6.64922 8H4C2.89543 8 2 8.89543 2 10V14C2 15.1046 2.89543 16 4 16H6.64922L9.75061 18.4811C11.0601 19.5287 13 18.5964 13 16.9194V11.9142L11 9.91422V16.9194L7.89861 14.4383C7.54398 14.1546 7.10336 14 6.64922 14H4V10H6.64922C7.10336 10 7.54398 9.84544 7.89861 9.56174L9.42578 8.34L8.00287 6.91708ZM11 7.08579V7.08063L10.9971 7.08292L9.57422 5.66001L9.75061 5.51889C11.0601 4.47127 13 5.40361 13 7.08063V9.08579L11 7.08579ZM15.3187 14.233C15.2402 14.3497 15.1553 14.4626 15.0642 14.5712C14.7092 14.9942 14.7644 15.625 15.1874 15.98C15.6105 16.335 16.2413 16.2798 16.5963 15.8567C16.6491 15.7937 16.7006 15.7298 16.7507 15.6649L15.3187 14.233ZM17.7214 13.8072L15.9991 12.0849C16.0174 11.2215 15.7558 10.3747 15.2524 9.67151C14.9309 9.22245 15.0343 8.59779 15.4834 8.27629C15.9324 7.95479 16.5571 8.0582 16.8786 8.50727C17.6537 9.58996 18.0467 10.8997 17.9956 12.2303C17.9749 12.7694 17.8818 13.2995 17.7214 13.8072ZM18.1736 17.0879C18.1586 17.1061 18.1435 17.1242 18.1284 17.1423C17.7734 17.5654 17.8285 18.1961 18.2516 18.5511C18.6479 18.8836 19.2263 18.8563 19.5897 18.5039L18.1736 17.0879ZM20.752 16.8377L19.2646 15.3504C19.7379 14.3242 19.9918 13.202 19.9998 12.0559C20.0128 10.1943 19.3762 8.38643 18.1996 6.94377C17.8505 6.51578 17.9145 5.88586 18.3425 5.5368C18.7705 5.18774 19.4004 5.25172 19.7494 5.67971C21.2202 7.48304 22.016 9.74284 21.9998 12.0698C21.988 13.7485 21.5543 15.3862 20.752 16.8377Z" fill="#7369AB"/>
</svg>
