<svg width="24" height="24" viewBox="0 0 24 24" fill="none" xmlns="http://www.w3.org/2000/svg">
<path fill-rule="evenodd" clip-rule="evenodd" d="M11.7506 5.51889C13.0601 4.47127 15 5.40361 15 7.08063V16.9194C15 18.5964 13.0601 19.5287 11.7506 18.4811L8.64922 16H6C4.89543 16 4 15.1046 4 14V10C4 8.89543 4.89543 8 6 8H8.64922L11.7506 5.51889ZM13 7.08063L9.89861 9.56174C9.54398 9.84544 9.10336 10 8.64922 10H6V14H8.64922C9.10336 14 9.54398 14.1546 9.89861 14.4383L13 16.9194V7.08063Z" fill="#7369AB"/>
<path fill-rule="evenodd" clip-rule="evenodd" d="M18.8786 8.50725C19.6537 9.58995 20.0467 10.8997 19.9956 12.2303C19.9445 13.5609 19.4522 14.8367 18.5963 15.8567C18.2413 16.2798 17.6105 16.335 17.1874 15.98C16.7644 15.625 16.7092 14.9942 17.0642 14.5711C17.6348 13.8911 17.963 13.0406 17.997 12.1535C18.0311 11.2665 17.7692 10.3933 17.2524 9.67149C16.9309 9.22243 17.0343 8.59777 17.4834 8.27627C17.9324 7.95477 18.5571 8.05819 18.8786 8.50725Z" fill="#7369AB"/>
</svg>
