<svg width="24" height="24" viewBox="0 0 24 24" fill="none" xmlns="http://www.w3.org/2000/svg">
<path fill-rule="evenodd" clip-rule="evenodd" d="M3 6C3 4.34315 4.34315 3 6 3H17C18.6569 3 20 4.34315 20 6V8C20 8.55228 19.5523 9 19 9C18.4477 9 18 8.55228 18 8V6C18 5.44772 17.5523 5 17 5H6C5.44772 5 5 5.44772 5 6V18C5 18.5523 5.44772 19 6 19H17C17.5523 19 18 18.5523 18 18V16C18 15.4477 18.4477 15 19 15C19.5523 15 20 15.4477 20 16V18C20 19.6569 18.6569 21 17 21H6C4.34315 21 3 19.6569 3 18V6Z" fill="#7369AB"/>
<path fill-rule="evenodd" clip-rule="evenodd" d="M12 9C12 7.89543 12.8954 7 14 7H20C21.1046 7 22 7.89543 22 9V15C22 16.1046 21.1046 17 20 17H14C12.8954 17 12 16.1046 12 15V9ZM20 9H14V15H20V9Z" fill="#7369AB"/>
<path d="M18.5 12C18.5 12.8284 17.8284 13.5 17 13.5C16.1716 13.5 15.5 12.8284 15.5 12C15.5 11.1716 16.1716 10.5 17 10.5C17.8284 10.5 18.5 11.1716 18.5 12Z" fill="#7369AB"/>
</svg>
