<svg width="24" height="24" viewBox="0 0 24 24" fill="none" xmlns="http://www.w3.org/2000/svg">
<g id="Warning" clip-path="url(#clip0_1210_873)">
<path id="Ellipse 26 (Stroke)" fill-rule="evenodd" clip-rule="evenodd" d="M12 2.4C6.69807 2.4 2.4 6.69807 2.4 12C2.4 17.3019 6.69807 21.6 12 21.6C17.3019 21.6 21.6 17.3019 21.6 12C21.6 6.69807 17.3019 2.4 12 2.4ZM0 12C0 5.37258 5.37258 0 12 0C18.6274 0 24 5.37258 24 12C24 18.6274 18.6274 24 12 24C5.37258 24 0 18.6274 0 12ZM12 4.8C12.6627 4.8 13.2 5.33726 13.2 6V13.2C13.2 13.8627 12.6627 14.4 12 14.4C11.3373 14.4 10.8 13.8627 10.8 13.2V6C10.8 5.33726 11.3373 4.8 12 4.8Z" fill="#7369AB"/>
<path id="Ellipse 28" d="M13 16.5C13 17.0523 12.5523 17.5 12 17.5C11.4477 17.5 11 17.0523 11 16.5C11 15.9477 11.4477 15.5 12 15.5C12.5523 15.5 13 15.9477 13 16.5Z" fill="#7369AB"/>
</g>
<defs>
<clipPath id="clip0_1210_873">
<rect width="24" height="24" fill="white"/>
</clipPath>
</defs>
</svg>
