<svg width="24" height="24" viewBox="0 0 24 24" fill="none" xmlns="http://www.w3.org/2000/svg">
<path fill-rule="evenodd" clip-rule="evenodd" d="M12 8.5C12.5523 8.5 13 8.94772 13 9.5V11.5858L14.2071 12.7929C14.5976 13.1834 14.5976 13.8166 14.2071 14.2071C13.8166 14.5976 13.1834 14.5976 12.7929 14.2071L11.2929 12.7071C11.1054 12.5196 11 12.2652 11 12V9.5C11 8.94772 11.4477 8.5 12 8.5Z" fill="#7369AB"/>
<path fill-rule="evenodd" clip-rule="evenodd" d="M12 7C9.23858 7 7 9.23858 7 12C7 14.7614 9.23858 17 12 17C14.7614 17 17 14.7614 17 12C17 9.23858 14.7614 7 12 7ZM5 12C5 8.13401 8.13401 5 12 5C15.866 5 19 8.13401 19 12C19 15.866 15.866 19 12 19C8.13401 19 5 15.866 5 12Z" fill="#7369AB"/>
<path fill-rule="evenodd" clip-rule="evenodd" d="M8.37595 16.0077C8.92397 15.9392 9.42376 16.3279 9.49226 16.876L9.77327 19.124C9.83582 19.6245 10.2612 20 10.7655 20H13.2344C13.7387 20 14.1641 19.6245 14.2267 19.124L14.5077 16.876C14.5762 16.3279 15.076 15.9392 15.624 16.0077C16.172 16.0762 16.5608 16.576 16.4923 17.124L16.2113 19.3721C16.0236 20.8734 14.7474 22 13.2344 22H10.7655C9.25258 22 7.97637 20.8734 7.78871 19.3721L7.50771 17.124C7.4392 16.576 7.82793 16.0762 8.37595 16.0077Z" fill="#7369AB"/>
<path fill-rule="evenodd" clip-rule="evenodd" d="M15.6241 7.99228C15.076 8.06078 14.5762 7.67206 14.5077 7.12404L14.2267 4.87597C14.1642 4.37554 13.7388 4 13.2345 4L10.7656 4C10.2613 4 9.83585 4.37554 9.7733 4.87597L9.49229 7.12403C9.42379 7.67205 8.924 8.06078 8.37598 7.99228C7.82796 7.92378 7.43924 7.42399 7.50774 6.87597L7.78875 4.6279C7.9764 3.12661 9.25261 2 10.7656 2L13.2345 2C14.7474 2 16.0236 3.12661 16.2113 4.6279L16.4923 6.87597C16.5608 7.42399 16.1721 7.92378 15.6241 7.99228Z" fill="#7369AB"/>
</svg>
