<svg width="12" height="24" viewBox="0 0 12 24" fill="none" xmlns="http://www.w3.org/2000/svg">
<g id="Group 49">
<path id="Vector (Stroke)" fill-rule="evenodd" clip-rule="evenodd" d="M3.23479 2.08696C2.60086 2.08696 2.08696 2.60086 2.08696 3.23479V12.8452C2.08696 13.4792 2.60086 13.9931 3.23479 13.9931H7.95132C8.58525 13.9931 9.09914 13.4792 9.09914 12.8452V3.23479C9.09914 2.60086 8.58525 2.08696 7.95132 2.08696H3.23479ZM0 3.23479C0 1.44826 1.44826 0 3.23479 0H7.95132C9.73784 0 11.1861 1.44826 11.1861 3.23479V12.8452C11.1861 14.6318 9.73784 16.08 7.95132 16.08H3.23479C1.44826 16.08 0 14.6318 0 12.8452V3.23479Z" fill="#7369AB"/>
<path id="Vector (Stroke)_2" fill-rule="evenodd" clip-rule="evenodd" d="M6.39155 5.06741L5.59305 5.73916L4.79456 5.06741C4.99282 4.83173 5.28507 4.69568 5.59305 4.69568C5.90104 4.69568 6.19329 4.83173 6.39155 5.06741ZM5.59305 7.47729C5.41231 7.74575 5.24743 8.01634 5.12908 8.2564C5.01651 8.48473 4.98715 8.60464 4.97978 8.63478C4.9778 8.64285 4.9774 8.64449 4.9774 8.64003C4.9774 8.80331 5.04226 8.95991 5.15772 9.07537C5.27318 9.19082 5.42977 9.25569 5.59305 9.25569C5.75634 9.25569 5.91293 9.19082 6.02839 9.07537C6.14384 8.95991 6.20871 8.80331 6.20871 8.64003C6.20871 8.64449 6.20831 8.64285 6.20633 8.63478C6.19895 8.60464 6.1696 8.48473 6.05703 8.2564C5.93868 8.01634 5.7738 7.74575 5.59305 7.47729ZM5.59305 5.73916C4.79456 5.06741 4.79465 5.0673 4.79456 5.06741L4.79212 5.07031L4.7873 5.07607L4.7708 5.09592C4.75686 5.11275 4.73713 5.1367 4.71246 5.16702C4.66315 5.22761 4.5938 5.31394 4.51105 5.42002C4.34636 5.63114 4.1247 5.92549 3.90099 6.25402C3.67978 6.57887 3.44282 6.95715 3.25725 7.33355C3.08889 7.67503 2.89044 8.15461 2.89044 8.64003C2.89044 9.35681 3.17518 10.0442 3.68202 10.5511C4.18886 11.0579 4.87628 11.3426 5.59305 11.3426C6.30983 11.3426 6.99725 11.0579 7.50409 10.5511C8.01093 10.0442 8.29567 9.35681 8.29567 8.64003C8.29567 8.15461 8.09722 7.67503 7.92886 7.33355C7.74329 6.95715 7.50633 6.57887 7.28512 6.25402C7.06141 5.92549 6.83974 5.63114 6.67506 5.42002C6.59231 5.31394 6.52296 5.22761 6.47365 5.16702C6.44898 5.1367 6.42925 5.11275 6.41531 5.09592L6.39881 5.07607L6.39399 5.07031L6.39155 5.06741C6.39146 5.0673 6.39155 5.06741 5.59305 5.73916Z" fill="#7369AB"/>
<path id="Vector (Stroke)_3" fill-rule="evenodd" clip-rule="evenodd" d="M1.99304 15.026C1.99304 14.4497 2.46022 13.9825 3.03652 13.9825H8.13914C8.71544 13.9825 9.18262 14.4497 9.18262 15.026V18.1356C9.18262 18.7119 8.71544 19.1791 8.13914 19.1791H3.03652C2.46022 19.1791 1.99304 18.7119 1.99304 18.1356V15.026ZM4.08 16.0695V17.0921H7.09566V16.0695H4.08Z" fill="#7369AB"/>
<path id="Vector (Stroke)_4" fill-rule="evenodd" clip-rule="evenodd" d="M5.59304 17.0921C6.16934 17.0921 6.63652 17.5593 6.63652 18.1356V20.4655L8.95098 22.105C9.42125 22.4381 9.53244 23.0893 9.19933 23.5596C8.86622 24.0299 8.21495 24.1411 7.74468 23.808L4.98989 21.8567C4.71371 21.661 4.54956 21.3436 4.54956 21.0052V18.1356C4.54956 17.5593 5.01674 17.0921 5.59304 17.0921Z" fill="#7369AB"/>
</g>
</svg>
