<svg width="24" height="24" viewBox="0 0 24 24" fill="none" xmlns="http://www.w3.org/2000/svg">
<g id="Wifi">
<path id="Ellipse 40" d="M13 18C13 17.4477 12.5523 17 12 17C11.4477 17 11 17.4477 11 18C11 18.5523 11.4477 19 12 19C12.5523 19 13 18.5523 13 18Z" fill="#7369AB"/>
<path id="Vector (Stroke)" fill-rule="evenodd" clip-rule="evenodd" d="M7.17794 6.11327C8.73817 5.35229 10.4564 4.97138 12.192 5.00168C13.9277 5.03197 15.6315 5.47262 17.1642 6.28758C18.6969 7.10254 20.015 8.26868 21.0107 9.69066C21.3275 10.1431 21.2175 10.7666 20.7651 11.0834C20.3127 11.4002 19.6892 11.2902 19.3724 10.8378C18.5577 9.67438 17.4793 8.72026 16.2253 8.05347C14.9712 7.38668 13.5772 7.02616 12.1571 7.00137C10.737 6.97658 9.33123 7.28824 8.05468 7.91085C6.77813 8.53347 5.66706 9.44937 4.8123 10.5837C4.47993 11.0247 3.85293 11.1129 3.41185 10.7805C2.97078 10.4481 2.88266 9.82111 3.21503 9.38003C4.25973 7.99367 5.61771 6.87424 7.17794 6.11327ZM8.49305 9.80965C9.62777 9.25621 10.8774 8.97919 12.1396 9.00122C13.4019 9.02325 14.6411 9.34372 15.7558 9.93642C16.8705 10.5291 17.8291 11.3772 18.5532 12.4114C18.87 12.8638 18.7601 13.4873 18.3077 13.8041C17.8553 14.1209 17.2317 14.0109 16.9149 13.5585C16.3718 12.7829 15.6529 12.1468 14.8169 11.7023C13.9808 11.2578 13.0515 11.0174 12.1047 11.0009C11.158 10.9844 10.2208 11.1922 9.3698 11.6072C8.51876 12.0223 7.77805 12.6329 7.20821 13.3891C6.87584 13.8302 6.24883 13.9183 5.80776 13.5859C5.36669 13.2536 5.27857 12.6266 5.61094 12.1855C6.37072 11.1772 7.35834 10.3631 8.49305 9.80965ZM10.2465 13.4048C10.8139 13.1281 11.4387 12.9896 12.0698 13.0006C12.701 13.0116 13.3206 13.1719 13.8779 13.4682C14.4353 13.7646 14.9146 14.1886 15.2766 14.7057C15.5934 15.1581 15.4835 15.7816 15.0311 16.0984C14.5787 16.4152 13.9551 16.3053 13.6383 15.8528C13.4573 15.5943 13.2176 15.3823 12.939 15.2341C12.6603 15.0859 12.3505 15.0058 12.0349 15.0003C11.7194 14.9948 11.407 15.0641 11.1233 15.2024C10.8396 15.3408 10.5927 15.5443 10.4028 15.7964C10.0704 16.2374 9.44338 16.3256 9.0023 15.9932C8.56123 15.6608 8.47311 15.0338 8.80548 14.5927C9.18537 14.0886 9.67918 13.6815 10.2465 13.4048Z" fill="#7369AB"/>
</g>
</svg>
