<svg width="24" height="24" viewBox="0 0 24 24" fill="none" xmlns="http://www.w3.org/2000/svg">
<g id="Wifi Off">
<path id="Vector 11 (Stroke)" fill-rule="evenodd" clip-rule="evenodd" d="M4.29289 4.29289C4.68342 3.90237 5.31658 3.90237 5.70711 4.29289L19.7071 18.2929C20.0976 18.6834 20.0976 19.3166 19.7071 19.7071C19.3166 20.0976 18.6834 20.0976 18.2929 19.7071L4.29289 5.70711C3.90237 5.31658 3.90237 4.68342 4.29289 4.29289Z" fill="#7369AB"/>
<path id="Subtract" fill-rule="evenodd" clip-rule="evenodd" d="M7.1921 6.10634C7.18736 6.10865 7.18262 6.11095 7.17788 6.11327C5.61765 6.87424 4.25967 7.99367 3.21497 9.38003C2.8826 9.82111 2.97072 10.4481 3.41179 10.7805C3.85287 11.1129 4.47987 11.0247 4.81224 10.5837C5.667 9.44937 6.77807 8.53347 8.05462 7.91085C8.26928 7.80616 8.4876 7.71025 8.70902 7.62326L7.1921 6.10634ZM10.2741 9.18837C9.66011 9.32403 9.06211 9.53207 8.49299 9.80965C7.35828 10.3631 6.37066 11.1772 5.61088 12.1855C5.2785 12.6266 5.36662 13.2536 5.8077 13.5859C6.24877 13.9183 6.87578 13.8302 7.20815 13.3891C7.77799 12.6329 8.5187 12.0223 9.36974 11.6072C10.2153 11.1948 11.1459 10.9871 12.0864 11.0006L10.2741 9.18837ZM17.8875 13.9733L12.9737 9.05948C13.9446 9.17853 14.8879 9.47497 15.7557 9.93642C16.8704 10.5291 17.829 11.3772 18.5532 12.4114C18.87 12.8638 18.76 13.4873 18.3076 13.8041C18.1779 13.8949 18.0341 13.9507 17.8875 13.9733ZM10.973 7.05879L9.26071 5.34653C10.2146 5.10125 11.2004 4.98437 12.1919 5.00168C13.9276 5.03197 15.6314 5.47262 17.1642 6.28758C18.6969 7.10254 20.015 8.26868 21.0106 9.69066C21.3274 10.1431 21.2175 10.7666 20.7651 11.0834C20.3127 11.4002 19.6891 11.2902 19.3723 10.8378C18.5577 9.67438 17.4793 8.72026 16.2252 8.05347C14.9712 7.38669 13.5771 7.02616 12.157 7.00137C11.7604 6.99445 11.3649 7.01377 10.973 7.05879ZM13 18C13 17.4477 12.5522 17 12 17C11.4477 17 11 17.4477 11 18C11 18.5523 11.4477 19 12 19C12.5522 19 13 18.5523 13 18ZM10.2465 13.4048C10.8138 13.1281 11.4386 12.9896 12.0698 13.0006C12.7009 13.0116 13.3205 13.1719 13.8778 13.4682C14.4352 13.7646 14.9145 14.1886 15.2766 14.7057C15.5933 15.1581 15.4834 15.7816 15.031 16.0984C14.5786 16.4152 13.955 16.3053 13.6383 15.8528C13.4572 15.5943 13.2176 15.3823 12.9389 15.2341C12.6602 15.0859 12.3504 15.0058 12.0349 15.0003C11.7193 14.9948 11.4069 15.0641 11.1232 15.2024C10.8395 15.3408 10.5926 15.5443 10.4027 15.7964C10.0703 16.2374 9.44332 16.3256 9.00224 15.9932C8.56117 15.6608 8.47305 15.0338 8.80542 14.5927C9.18531 14.0886 9.67912 13.6815 10.2465 13.4048Z" fill="#7369AB"/>
</g>
</svg>
