<svg width="32" height="32" viewBox="0 0 32 32" fill="none" xmlns="http://www.w3.org/2000/svg">
<path d="M5.69479 25.917C6.72776 25.6948 7.38501 24.6773 7.1628 23.6443C6.9406 22.6113 5.92309 21.9541 4.89012 22.1763C3.85716 22.3985 3.19991 23.416 3.42211 24.449C3.64431 25.4819 4.66183 26.1392 5.69479 25.917Z" fill="#FA7D59"/>
<path d="M5.27845 26.3281C4.02232 26.3281 3 25.3058 3 24.0496C3 22.7935 4.02232 21.7712 5.27845 21.7712C6.53457 21.7712 7.5569 22.7935 7.5569 24.0496C7.5569 25.3058 6.53457 26.3281 5.27845 26.3281ZM5.27845 22.5018C4.42473 22.5018 3.73063 23.1959 3.73063 24.0496C3.73063 24.9033 4.42473 25.5974 5.27845 25.5974C6.13216 25.5974 6.82626 24.9033 6.82626 24.0496C6.82626 23.1959 6.13216 22.5018 5.27845 22.5018Z" fill="#09090D"/>
<path d="M19.3194 0.36537H10.0106C7.46966 0.36537 5.4104 2.42519 5.4104 4.96555V27.034C5.4104 29.5749 7.47022 31.6342 10.0106 31.6342H23.2912C25.8321 31.6342 27.8914 29.5743 27.8914 27.034V8.93681L19.3194 0.364807V0.36537Z" fill="white"/>
<path d="M23.2913 31.9995H10.0107C7.27247 31.9995 5.04517 29.7722 5.04517 27.034V4.96555C5.04517 2.22737 7.27247 6.10352e-05 10.0107 6.10352e-05H19.3195C19.4161 6.10352e-05 19.5094 0.0382869 19.578 0.106854L28.15 8.67885C28.2186 8.74742 28.2568 8.84015 28.2568 8.93738V27.0346C28.2568 29.7728 26.0295 32.0001 23.2913 32.0001V31.9995ZM10.0107 0.730693C7.67544 0.730693 5.7758 2.63034 5.7758 4.96555V27.034C5.7758 29.3692 7.67544 31.2689 10.0107 31.2689H23.2913C25.6265 31.2689 27.5261 29.3692 27.5261 27.034V9.08857L19.1683 0.730693H10.0107Z" fill="#09090D"/>
<path d="M19.3193 0.365356L27.8913 8.93736H21.1476C20.1382 8.93736 19.3193 8.11905 19.3193 7.10909V0.365356Z" fill="#E4E4EB"/>
<path d="M27.8925 9.30269H21.1477C19.9382 9.30269 18.9541 8.31858 18.9541 7.1091V0.365372C18.9541 0.217559 19.0429 0.0843595 19.1795 0.028157C19.316 -0.0286074 19.4729 0.00287472 19.5774 0.107411L28.1325 8.66255C28.209 8.72943 28.2573 8.82778 28.2573 8.93737C28.2573 9.13914 28.0937 9.30269 27.892 9.30269H27.8925ZM19.6847 1.2472V7.1091C19.6847 7.91561 20.3406 8.57205 21.1477 8.57205H27.0096L19.6853 1.24776L19.6847 1.2472Z" fill="#09090D"/>
<path d="M5.45259 13.0176C4.31618 13.0176 3.39502 13.9388 3.39502 15.0752V23.6916H3.43268C3.6159 22.7429 4.44994 22.0258 5.45259 22.0258H26.1733V13.0176H5.45259Z" fill="#FA7D59"/>
<path d="M3.43276 24.0569H3.3951C3.19333 24.0569 3.02979 23.8934 3.02979 23.6916V15.0752C3.02979 13.7393 4.11674 12.6523 5.45267 12.6523H26.1734C26.3752 12.6523 26.5387 12.8159 26.5387 13.0177V22.0258C26.5387 22.2276 26.3752 22.3911 26.1734 22.3911H5.45267C4.64336 22.3911 3.94476 22.9672 3.79133 23.7608C3.75817 23.9327 3.60755 24.0569 3.43276 24.0569ZM5.45267 13.383C4.51971 13.383 3.76042 14.1423 3.76042 15.0752V22.3501C4.20104 21.9207 4.80185 21.6605 5.45267 21.6605H25.8081V13.383H5.45267Z" fill="#09090D"/>
<path d="M9.91235 19.6765V19.6625C9.91235 19.5658 9.9472 19.4967 10.009 19.4202L13.0462 15.5597H10.2372C10.0989 15.5597 9.98823 15.449 9.98823 15.3175C9.98823 15.1792 10.0989 15.0685 10.2372 15.0685H13.5368C13.6684 15.0685 13.7858 15.1792 13.7858 15.304V15.318C13.7858 15.4147 13.751 15.4838 13.6892 15.5603L10.652 19.4208H13.5717C13.71 19.4208 13.8207 19.5315 13.8207 19.663C13.8207 19.8013 13.71 19.912 13.5717 19.912H10.1681C10.0298 19.912 9.91235 19.8013 9.91235 19.6765Z" fill="white"/>
<path d="M14.9768 15.3113C14.9768 15.1589 15.1016 15.0347 15.2466 15.0347C15.3916 15.0347 15.5231 15.1595 15.5231 15.3113V19.6697C15.5231 19.8221 15.3983 19.9463 15.2466 19.9463C15.0948 19.9463 14.9768 19.8215 14.9768 19.6697V15.3113Z" fill="white"/>
<path d="M16.9417 15.3461C16.9417 15.1938 17.0664 15.0696 17.2114 15.0696H18.7542C19.8473 15.0696 20.5667 15.6507 20.5667 16.6056V16.6196C20.5667 17.6645 19.695 18.204 18.6643 18.204H17.4879V19.6709C17.4879 19.8232 17.3632 19.9474 17.2114 19.9474C17.0597 19.9474 16.9417 19.8226 16.9417 19.6709V15.3472V15.3461ZM18.6851 17.7049C19.4876 17.7049 20.0131 17.2761 20.0131 16.6393V16.6253C20.0131 15.9334 19.4944 15.5737 18.7126 15.5737H17.4879V17.7043H18.6845L18.6851 17.7049Z" fill="white"/>
</svg>
