<svg width="24" height="24" viewBox="0 0 24 24" fill="none" xmlns="http://www.w3.org/2000/svg">
<path fill-rule="evenodd" clip-rule="evenodd" d="M6 5C5.44772 5 5 5.44772 5 6V9C5 9.55228 4.55228 10 4 10C3.44772 10 3 9.55228 3 9V6C3 4.34315 4.34315 3 6 3H9C9.55228 3 10 3.44772 10 4C10 4.55228 9.55228 5 9 5H6ZM14 4C14 3.44772 14.4477 3 15 3H18C19.6569 3 21 4.34315 21 6V9C21 9.55228 20.5523 10 20 10C19.4477 10 19 9.55228 19 9V6C19 5.44772 18.5523 5 18 5H15C14.4477 5 14 4.55228 14 4ZM4 14C4.55228 14 5 14.4477 5 15V18C5 18.5523 5.44772 19 6 19H9C9.55228 19 10 19.4477 10 20C10 20.5523 9.55228 21 9 21H6C4.34315 21 3 19.6569 3 18V15C3 14.4477 3.44772 14 4 14ZM20 14C20.5523 14 21 14.4477 21 15V18C21 19.6569 19.6569 21 18 21H15.2173C14.6651 21 14.2173 20.5523 14.2173 20C14.2173 19.4477 14.6651 19 15.2173 19H18C18.5523 19 19 18.5523 19 18V15C19 14.4477 19.4477 14 20 14Z" fill="#7369AB"/>
</svg>
