<svg width="24" height="24" viewBox="0 0 24 24" fill="none" xmlns="http://www.w3.org/2000/svg">
<path fill-rule="evenodd" clip-rule="evenodd" d="M10 5C7.23858 5 5 7.23858 5 10C5 12.7614 7.23858 15 10 15C12.7614 15 15 12.7614 15 10C15 7.23858 12.7614 5 10 5ZM3 10C3 6.13401 6.13401 3 10 3C13.866 3 17 6.13401 17 10C17 13.866 13.866 17 10 17C6.13401 17 3 13.866 3 10Z" fill="#7369AB"/>
<path fill-rule="evenodd" clip-rule="evenodd" d="M13.7929 13.7929C14.1834 13.4024 14.8166 13.4024 15.2071 13.7929L19.7071 18.2929C20.0976 18.6834 20.0976 19.3166 19.7071 19.7071C19.3166 20.0976 18.6834 20.0976 18.2929 19.7071L13.7929 15.2071C13.4024 14.8166 13.4024 14.1834 13.7929 13.7929Z" fill="#7369AB"/>
<path fill-rule="evenodd" clip-rule="evenodd" d="M10 7C10.5523 7 11 7.44772 11 8V9H12C12.5523 9 13 9.44772 13 10C13 10.5523 12.5523 11 12 11H11V12C11 12.5523 10.5523 13 10 13C9.44772 13 9 12.5523 9 12V11H8C7.44772 11 7 10.5523 7 10C7 9.44772 7.44772 9 8 9H9V8C9 7.44772 9.44772 7 10 7Z" fill="#7369AB"/>
</svg>
