<svg width="24" height="24" viewBox="0 0 24 24" fill="none" xmlns="http://www.w3.org/2000/svg">
<path fill-rule="evenodd" clip-rule="evenodd" d="M15 21C14.4477 21 14 20.5523 14 20V17C14 15.3431 15.3431 14 17 14H20C20.5523 14 21 14.4477 21 15C21 15.5523 20.5523 16 20 16H17C16.4477 16 16 16.4477 16 17V20C16 20.5523 15.5523 21 15 21ZM9 21C8.44771 21 8 20.5523 8 20V17C8 16.4477 7.55228 16 7 16H4C3.44772 16 3 15.5523 3 15C3 14.4477 3.44772 14 4 14H7C8.65685 14 10 15.3431 10 17V20C10 20.5523 9.55229 21 9 21ZM21 9C21 9.55229 20.5523 10 20 10H17C15.3431 10 14 8.65685 14 7V4C14 3.44772 14.4477 3 15 3C15.5523 3 16 3.44772 16 4V7C16 7.55229 16.4477 8 17 8H20C20.5523 8 21 8.44771 21 9ZM7 8C7.55228 8 8 7.55228 8 7V4C8 3.44772 8.44771 3 9 3C9.55229 3 10 3.44772 10 4V7C10 8.65685 8.65685 10 7 10H4C3.44772 10 3 9.55229 3 9C3 8.44771 3.44772 8 4 8H7Z" fill="#7369AB"/>
</svg>
