<svg width="468" height="75" viewBox="0 0 468 75" fill="none" xmlns="http://www.w3.org/2000/svg">
<path d="M61.239 51.4387C61.2515 52.279 61.2151 53.1193 61.1299 53.9553C60.9962 57.3355 60.207 60.6576 58.8062 63.7368C57.4724 66.6058 54.7627 69.0554 50.7361 71.0687C46.7094 73.082 40.9043 74.1223 33.3543 74.1223H32.4147C32.6832 67.7047 29.0592 63.7787 31.257 61.0188C33.3543 58.4098 37.2887 61.1195 41.869 58.2085C46.7094 55.1466 48.5801 48.1838 46.9023 46.464C45.6776 45.2309 43.3371 47.4623 40.1409 46.0949C37.339 44.8785 38.0604 42.6806 35.1914 41.1706C33.5323 40.4024 31.7159 40.0348 29.8886 40.0975C28.0613 40.1602 26.2744 40.6513 24.6718 41.5314C23.749 42.0683 23.3966 42.3703 22.65 42.3703C20.7122 42.3199 20.1334 39.7865 16.9036 37.446C16.2409 36.9678 13.9256 35.29 13.0447 35.9527C12.533 36.3302 12.6169 37.3705 13.3048 39.8536C14.7812 45.1889 16.157 46.5647 16.6604 49.3834C16.7359 49.7273 17.4992 54.0308 15.704 56.8914C12.8015 61.5808 4.72295 59.8024 -0.00838886 60.247V3.95748C-0.0110819 3.59332 0.0810994 3.23473 0.259082 2.91701C0.437064 2.59928 0.694713 2.33339 1.00667 2.14548C1.78986 1.64117 2.71014 1.39205 3.64078 1.43242H18.4975L25.6784 1.2227C33.413 1.2227 39.4586 2.1343 43.8152 3.95748C48.1607 5.78626 51.1303 8.23582 52.7242 11.3565C54.3834 14.8659 55.191 18.7173 55.0815 22.5976C55.1758 26.8779 53.8645 31.071 51.3485 34.535C54.9109 36.498 57.4556 38.7798 58.9824 41.3804C60.5008 43.9641 61.239 47.3281 61.239 51.4387Z" fill="black"/>
<path d="M128.568 3.15218C127.953 2.53455 127.125 2.1746 126.253 2.14552L105.935 2.23779C105.363 2.24865 104.796 2.35351 104.257 2.54818C103.743 2.68679 103.283 2.97954 102.94 3.38707L92.5967 17.3294L81.8757 3.35352C81.4936 2.9726 81.0284 2.68545 80.5167 2.51463C79.9798 2.31416 79.412 2.20911 78.8389 2.20424L58.5294 2.14552C57.6398 2.18275 56.7937 2.54027 56.1469 3.15218C55.8476 3.41421 55.607 3.73645 55.4407 4.09784C55.2745 4.45923 55.1864 4.85164 55.1822 5.24941C55.1855 5.92121 55.4399 6.5675 55.8952 7.06141L80.5334 36.8588L80.3237 68.4514C80.3171 69.0425 80.4355 69.6283 80.6711 70.1705C80.9068 70.7126 81.2544 71.1988 81.6911 71.5972C82.0921 72.0083 82.5707 72.3357 83.0992 72.5603C83.6277 72.785 84.1956 72.9025 84.7698 72.9059H99.937C101.099 72.8947 102.208 72.4242 103.024 71.5972C103.456 71.1958 103.8 70.7088 104.034 70.1672C104.268 69.6257 104.387 69.0413 104.383 68.4514L104.685 36.7665L128.879 7.09497C129.267 6.55705 129.481 5.91281 129.491 5.24941C129.488 4.85551 129.404 4.46644 129.245 4.10589C129.087 3.74534 128.856 3.42085 128.568 3.15218Z" fill="black"/>
<path d="M192.945 3.57164C192.548 3.16977 192.075 2.85083 191.554 2.63337C191.032 2.4159 190.473 2.30425 189.908 2.30491H136.957C136.369 2.2913 135.785 2.39647 135.238 2.61413C134.692 2.83179 134.195 3.15746 133.778 3.57164C133.378 3.94582 133.062 4.39987 132.85 4.90428C132.637 5.40868 132.533 5.95216 132.545 6.49936V18.2438C132.562 19.4098 133.039 20.5218 133.871 21.3384C134.704 22.1551 135.825 22.6106 136.991 22.6061H153.165L152.468 68.4598C152.426 69.6349 152.841 70.7808 153.626 71.656C153.986 72.0612 154.43 72.3836 154.927 72.6009C155.423 72.8181 155.961 72.925 156.503 72.9143H169.926C170.474 72.9243 171.019 72.8111 171.518 72.5832C172.017 72.3553 172.459 72.0184 172.811 71.5972C173.6 70.7 174.017 69.5361 173.977 68.3423V22.5977H189.916C190.485 22.5934 191.046 22.4737 191.567 22.2459C192.087 22.018 192.556 21.6868 192.945 21.2722C193.359 20.8818 193.689 20.4113 193.915 19.8892C194.142 19.3672 194.26 18.8045 194.262 18.2354V6.49097C194.259 5.93931 194.14 5.39442 193.913 4.89155C193.686 4.38868 193.356 3.93902 192.945 3.57164Z" fill="black"/>
<path d="M251.281 20.1649C251.834 20.1495 252.377 20.0193 252.877 19.7824C253.377 19.5456 253.822 19.2073 254.184 18.7891C254.6 18.3891 254.931 17.9099 255.159 17.3797C255.386 16.8494 255.506 16.279 255.509 15.702V6.9272C255.527 6.33818 255.425 5.75162 255.209 5.20347C254.993 4.65532 254.666 4.15713 254.251 3.73942C253.866 3.33299 253.401 3.01007 252.886 2.79072C252.371 2.57137 251.816 2.46026 251.256 2.4643H203.573C203.016 2.45955 202.463 2.57041 201.951 2.78987C201.438 3.00934 200.977 3.33265 200.595 3.73942C200.177 4.15504 199.849 4.65287 199.632 5.20152C199.416 5.75018 199.315 6.33775 199.337 6.9272V68.3423C199.319 69.5294 199.772 70.6753 200.595 71.5301C200.961 71.9633 201.417 72.3109 201.932 72.5486C202.446 72.7863 203.007 72.9083 203.573 72.9059H251.281C251.851 72.9069 252.414 72.7835 252.931 72.5444C253.449 72.3054 253.907 71.9564 254.276 71.5217C255.093 70.6625 255.544 69.5195 255.534 68.334V59.643C255.557 59.0385 255.457 58.4356 255.24 57.8705C255.024 57.3055 254.696 56.7899 254.276 56.3546C253.891 55.9482 253.426 55.6253 252.911 55.4059C252.396 55.1866 251.841 55.0755 251.281 55.0795H221.358V46.0782H249.88C250.432 46.0641 250.975 45.9318 251.471 45.6901C251.967 45.4484 252.406 45.103 252.758 44.6773C253.559 43.8484 254.009 42.7427 254.016 41.5901V32.8153C254.032 32.2266 253.928 31.6408 253.712 31.093C253.496 30.5452 253.171 30.0467 252.758 29.6276C252.388 29.2317 251.941 28.9152 251.445 28.6975C250.949 28.4797 250.414 28.3652 249.872 28.3608H221.35V20.1649H251.281Z" fill="black"/>
<path d="M326.093 3.57164C325.289 2.76381 324.197 2.30823 323.057 2.30491H270.123C269.528 2.28705 268.936 2.39011 268.382 2.60785C267.828 2.82559 267.325 3.15347 266.901 3.57164C266.495 3.94547 266.173 4.40124 265.956 4.90882C265.739 5.41641 265.632 5.96425 265.643 6.51614V18.2606C265.656 19.428 266.132 20.5425 266.965 21.3601C267.798 22.1777 268.922 22.6318 270.089 22.6228H286.254L285.541 68.4766C285.506 69.652 285.924 70.7961 286.707 71.6727C287.072 72.0771 287.519 72.3987 288.018 72.6158C288.517 72.8328 289.057 72.9404 289.602 72.9311H303.024C303.571 72.9402 304.112 72.8275 304.61 72.6012C305.108 72.3748 305.549 72.0405 305.901 71.6224C306.682 70.7209 307.098 69.5599 307.067 68.3675V22.5977H323.006C323.576 22.5945 324.139 22.4754 324.661 22.2475C325.183 22.0196 325.653 21.6878 326.043 21.2722C326.456 20.8811 326.784 20.4103 327.009 19.8882C327.234 19.3662 327.351 18.8039 327.352 18.2354V6.49098C327.355 5.94391 327.244 5.40217 327.028 4.89978C326.811 4.39739 326.493 3.94521 326.093 3.57164Z" fill="black"/>
<path d="M394.614 65.6495C394.287 64.6093 394.077 63.913 394.01 63.5774L371.36 6.57486C370.916 5.32294 370.11 4.23103 369.045 3.43741C367.776 2.52256 366.255 2.02424 364.691 2.0113H350.153C348.663 2.04366 347.211 2.48791 345.958 3.2948C344.757 4.09625 343.822 5.23845 343.274 6.57486L320.834 63.6194C320.775 63.7536 320.548 64.3828 320.179 65.4817C319.815 66.5806 319.625 67.7299 319.617 68.8876C319.617 71.1778 320.943 72.5284 323.56 72.9311H337.611C338.835 72.9702 340.05 72.7111 341.151 72.1761C341.591 71.9615 341.981 71.6573 342.296 71.2831C342.611 70.9089 342.844 70.473 342.98 70.0033L346.101 59.8695H368.65L371.779 70.0033C371.918 70.4778 372.157 70.9171 372.48 71.2918C372.803 71.6665 373.202 71.9679 373.65 72.1761C374.771 72.7056 376.001 72.9642 377.24 72.9311H391.091C393.783 72.5284 395.126 71.1023 395.126 68.6779C395.12 67.6474 394.947 66.6247 394.614 65.6495ZM349.129 42.7394L357.023 18.9401L365.009 42.7394H349.129Z" fill="black"/>
<path d="M466.901 23.0507C466.522 22.6938 466.077 22.4152 465.59 22.231C465.104 22.0467 464.586 21.9604 464.066 21.9769H440.51C440.026 21.9682 439.546 22.0641 439.103 22.2581C438.66 22.4522 438.264 22.7397 437.943 23.101C437.6 23.4442 437.329 23.8526 437.146 24.3021C436.963 24.7516 436.871 25.2331 436.877 25.7183V38.9812C436.848 39.9789 437.216 40.9475 437.901 41.674C438.24 42.0273 438.65 42.3048 439.104 42.4884C439.558 42.672 440.045 42.7576 440.535 42.7394H446.197C445.485 45.8285 443.743 48.5831 441.256 50.5495C438.734 52.6131 435.345 53.645 431.089 53.645C429.151 53.6278 427.22 53.4341 425.317 53.0661C421.274 52.0595 418.262 50.13 416.274 47.303C414.287 44.4915 413.242 41.1232 413.288 37.6809C413.309 36.2856 413.477 34.8965 413.791 33.5368C414.803 29.0068 417.012 25.5953 420.418 23.3023C423.824 21.0094 428.298 19.8629 433.84 19.8629C435.996 19.8629 437.607 18.4787 438.689 15.7104L442.842 6.29803C443.111 5.69051 443.248 5.03294 443.244 4.36858C443.269 3.70999 443.051 3.06529 442.632 2.55658C442.422 2.31267 442.165 2.11293 441.877 1.96892C441.589 1.82492 441.275 1.73952 440.954 1.71769L440.451 1.60863C437.454 0.887695 434.395 0.455094 431.315 0.316741C430.636 0.24963 429.638 0.216074 428.388 0.216074C422.054 0.178446 415.831 1.87564 410.393 5.12358C404.893 8.3671 400.355 13.0174 397.248 18.5962C393.997 24.3539 392.325 30.868 392.399 37.4796C392.378 44.0697 394.234 50.5296 397.751 56.1029C401.239 61.7638 406.106 66.4481 411.895 69.7181C417.571 73.0178 424.02 74.7545 430.586 74.7514C436.5 74.7586 442.329 73.3338 447.573 70.599C452.874 67.917 457.456 64.005 460.937 59.19C464.398 54.4588 466.525 48.8844 467.094 43.0498C467.304 41.2797 467.446 39.3755 467.547 37.3202C467.648 35.2649 467.732 33.8304 467.807 33.0251L468 25.7183C468.013 25.2216 467.922 24.7278 467.732 24.2684C467.543 23.809 467.26 23.3942 466.901 23.0507Z" fill="black"/>
</svg>
