<svg xmlns="http://www.w3.org/2000/svg" width="144" height="144" viewBox="0 0 144 144" fill="none">
  <path d="M21 96C19.2 91.2 18 85.8 18 80.4C18 55.8 42 36 72 36" stroke="#302280" stroke-width="5.5" stroke-linecap="round" stroke-linejoin="round"/>
  <path d="M99 126.6C91.2 132 81.6 135 72 135C62.4 135 52.8 132 45 126.6" stroke="#302280" stroke-width="5.5" stroke-linecap="round" stroke-linejoin="round"/>
  <path d="M123 96C124.8 91.2 126 85.8 126 80.4C126 55.8 102 36 72 36" stroke="#302280" stroke-width="5.5" stroke-linecap="round" stroke-linejoin="round"/>
  <path d="M85.2 96.6C84.6 99.6 82.8 102.6 80.4 104.4C78 106.8 75 108 72 108C69 108 66 106.8 63.6 104.4C61.2 102.6 59.4 99.6 58.8 96.6C58.8 93 64.8 90 72 90C79.2 90 85.2 93 85.2 96.6Z" stroke="#302280" stroke-width="5.5" stroke-linecap="round" stroke-linejoin="round"/>
  <path d="M58.8 117C61.8 117 64.2 115.8 66.6 114C69 112.2 70.8 110.4 72 108C73.2 110.4 75 112.8 77.4 114C79.8 115.2 82.2 116.4 85.2 117" stroke="#302280" stroke-width="5.5" stroke-linecap="round" stroke-linejoin="round"/>
  <path d="M96.6 76.8C95.4 76.8 94.2 75.6 94.2 74.4C94.2 73.2 95.4 72 96.6 72" stroke="#302280" stroke-width="5.5"/>
  <path d="M96.6 76.8C97.8 76.8 99 75.6 99 74.4C99 73.2 97.8 72 96.6 72" stroke="#302280" stroke-width="5.5"/>
  <path d="M47.4 76.8C46.2 76.8 45 75.6 45 74.4C45 73.2 46.2 72 47.4 72" stroke="#302280" stroke-width="5.5"/>
  <path d="M47.4 76.8C48.6 76.8 49.8 75.6 49.8 74.4C49.8 73.2 48.6 72 47.4 72" stroke="#302280" stroke-width="5.5"/>
  <path d="M72 36V58.8" stroke="#302280" stroke-width="5.5" stroke-linecap="round" stroke-linejoin="round"/>
  <path d="M54 38.4V54" stroke="#302280" stroke-width="5.5" stroke-linecap="round" stroke-linejoin="round"/>
  <path d="M90 38.4V54" stroke="#302280" stroke-width="5.5" stroke-linecap="round" stroke-linejoin="round"/>
  <path d="M18 80.4V18.6C18 16.8 18.6 15.6 19.2 13.8C20.4 12.6 21.6 11.4 22.8 10.8C24 10.2 25.8 9.60001 27.6 10.2C30 10.2 31.2 10.8 32.4 12L63 36.6" stroke="#302280" stroke-width="5.5" stroke-linecap="round" stroke-linejoin="round"/>
  <path d="M126 80.4V18.6C126 16.8 125.4 15.6 124.8 13.8C123.6 12.6 122.4 11.4 121.2 10.8C119.4 10.2 118.2 9.60001 116.4 10.2C114.6 10.2 113.4 10.8 111.6 12L80.4 36.6" stroke="#302280" stroke-width="5.5" stroke-linecap="round" stroke-linejoin="round"/>
  <path d="M112.8 94.8L139.8 99.6" stroke="#302280" stroke-width="5.5" stroke-linecap="round" stroke-linejoin="round"/>
  <path d="M108 108L130.8 121.2" stroke="#302280" stroke-width="5.5" stroke-linecap="round" stroke-linejoin="round"/>
  <path d="M31.2 94.8L4.20001 99.6" stroke="#302280" stroke-width="5.5" stroke-linecap="round" stroke-linejoin="round"/>
  <path d="M36 108L13.2 121.2" stroke="#302280" stroke-width="5.5" stroke-linecap="round" stroke-linejoin="round"/>
</svg>