<svg xmlns="http://www.w3.org/2000/svg" width="200" height="192" viewBox="-40 -45 200 192" fill="none">
  <path fill-rule="evenodd" clip-rule="evenodd" d="M60 27.5522C35.69 27.5522 17.2156 43.4968 17.2156 62.2355C17.2156 66.3939 18.1431 70.6174 19.5699 74.4222C20.1099 75.8622 19.3803 77.4674 17.9402 78.0075C16.5001 78.5475 14.895 77.8178 14.3549 76.3778C12.7438 72.0813 11.646 67.191 11.646 62.2355C11.646 39.4555 33.6776 21.9827 60 21.9827C61.538 21.9827 62.7848 23.2295 62.7848 24.7675C62.7848 26.3055 61.538 27.5522 60 27.5522Z" fill="#302280"/>
  <path fill-rule="evenodd" clip-rule="evenodd" d="M34.9256 99.6374C35.801 98.3729 37.5358 98.0575 38.8003 98.9329C44.9142 103.166 52.4619 105.526 59.9998 105.526C67.5378 105.526 75.0855 103.166 81.1993 98.9329C82.4639 98.0575 84.1987 98.3729 85.0741 99.6374C85.9496 100.902 85.6341 102.637 84.3696 103.512C77.319 108.393 68.6643 111.096 59.9998 111.096C51.3354 111.096 42.6807 108.393 35.6301 103.512C34.3656 102.637 34.0501 100.902 34.9256 99.6374Z" fill="#302280"/>
  <path fill-rule="evenodd" clip-rule="evenodd" d="M57.2153 24.7675C57.2153 23.2295 58.4621 21.9827 60.0001 21.9827C86.3226 21.9827 108.354 39.4555 108.354 62.2355C108.354 67.191 107.256 72.0813 105.645 76.3778C105.105 77.8178 103.5 78.5475 102.06 78.0075C100.62 77.4674 99.8903 75.8622 100.43 74.4222C101.857 70.6174 102.785 66.3939 102.785 62.2355C102.785 43.4968 84.3101 27.5522 60.0001 27.5522C58.4621 27.5522 57.2153 26.3055 57.2153 24.7675Z" fill="#302280"/>
  <path fill-rule="evenodd" clip-rule="evenodd" d="M51.6959 75.8095C52.16 77.5688 53.2607 79.2694 54.5824 80.2607C54.6879 80.3398 54.7875 80.4262 54.8807 80.5194C56.4004 82.0391 58.2303 82.7417 60.0001 82.7417C61.7699 82.7417 63.5998 82.0391 65.1195 80.5194C65.2127 80.4262 65.3124 80.3398 65.4178 80.2607C66.7396 79.2694 67.8402 77.5688 68.3043 75.8095C68.1905 75.5924 67.8184 75.0809 66.6028 74.4731C65.0318 73.6876 62.6883 73.1215 60.0001 73.1215C57.3119 73.1215 54.9685 73.6876 53.3975 74.4731C52.1818 75.0809 51.8098 75.5924 51.6959 75.8095ZM50.9067 69.4915C53.3863 68.2517 56.6124 67.5519 60.0001 67.5519C63.3878 67.5519 66.6139 68.2517 69.0935 69.4915C71.3836 70.6365 73.9241 72.7432 73.9241 75.9063C73.9241 76.0897 73.9059 76.2726 73.87 76.4524C73.2531 79.5368 71.4517 82.6251 68.9191 84.5945C66.4093 87.0362 63.2337 88.3113 60.0001 88.3113C56.7666 88.3113 53.5909 87.0362 51.0812 84.5945C48.5485 82.6251 46.7471 79.5368 46.1303 76.4524C46.0943 76.2726 46.0762 76.0897 46.0762 75.9063C46.0762 72.7432 48.6166 70.6365 50.9067 69.4915Z" fill="#302280"/>
  <path fill-rule="evenodd" clip-rule="evenodd" d="M60.0001 82.7417C61.0549 82.7417 62.0192 83.3377 62.4909 84.2811C63.3838 86.0669 64.5536 87.4745 65.8024 88.0989C67.8527 89.1241 69.5676 89.9671 71.6854 90.3907C73.1935 90.6923 74.1716 92.1594 73.87 93.6675C73.5683 95.1756 72.1013 96.1537 70.5931 95.8521C67.6942 95.2723 65.3858 94.1178 63.4065 93.128C63.3748 93.1121 63.3432 93.0963 63.3116 93.0805C61.9701 92.4097 60.8426 91.4542 59.9074 90.3918C59.06 91.2727 58.1194 92.0636 57.1141 92.8176C54.8444 94.5198 52.2366 95.9062 48.861 95.9062C47.323 95.9062 46.0762 94.6594 46.0762 93.1214C46.0762 91.5834 47.323 90.3366 48.861 90.3366C50.5486 90.3366 51.9914 89.6976 53.7723 88.3619C55.6203 86.9759 56.7662 85.7674 57.5093 84.2811C57.981 83.3377 58.9453 82.7417 60.0001 82.7417Z" fill="#302280"/>
  <path d="M80.7592 59.1976C79.7465 59.1976 78.7339 58.1849 78.7339 57.1723C78.7339 56.1596 79.7465 55.147 80.7592 55.147" stroke="#302280" stroke-width="5.5"/>
  <path d="M80.7593 59.1976C81.7719 59.1976 82.7846 58.1849 82.7846 57.1723C82.7846 56.1596 81.7719 55.147 80.7593 55.147" stroke="#302280" stroke-width="5.5"/>
  <path d="M39.2406 59.1976C38.228 59.1976 37.2153 58.1849 37.2153 57.1723C37.2153 56.1596 38.228 55.147 39.2406 55.147" stroke="#302280" stroke-width="5.5"/>
  <path d="M39.2407 59.1976C40.2534 59.1976 41.266 58.1849 41.266 57.1723C41.266 56.1596 40.2534 55.147 39.2407 55.147" stroke="#302280" stroke-width="5.5"/>
  <path fill-rule="evenodd" clip-rule="evenodd" d="M60.0001 21.9827C61.5381 21.9827 62.7849 23.2295 62.7849 24.7675V44.0078C62.7849 45.5458 61.5381 46.7926 60.0001 46.7926C58.4621 46.7926 57.2153 45.5458 57.2153 44.0078V24.7675C57.2153 23.2295 58.4621 21.9827 60.0001 21.9827Z" fill="#302280"/>
  <path fill-rule="evenodd" clip-rule="evenodd" d="M44.8102 24.008C46.3482 24.008 47.595 25.2548 47.595 26.7928V39.9572C47.595 41.4952 46.3482 42.742 44.8102 42.742C43.2722 42.742 42.0254 41.4952 42.0254 39.9572V26.7928C42.0254 25.2548 43.2722 24.008 44.8102 24.008Z" fill="#302280"/>
  <path fill-rule="evenodd" clip-rule="evenodd" d="M75.1896 24.008C76.7276 24.008 77.9744 25.2548 77.9744 26.7928V39.9572C77.9744 41.4952 76.7276 42.742 75.1896 42.742C73.6516 42.742 72.4048 41.4952 72.4048 39.9572V26.7928C72.4048 25.2548 73.6516 24.008 75.1896 24.008Z" fill="#302280"/>
  <path fill-rule="evenodd" clip-rule="evenodd" d="M20.815 5.60881C20.4561 5.67405 20.08 5.816 19.7268 5.99263C19.2811 6.21547 18.7258 6.70647 17.8689 7.54947C17.797 7.75657 17.7317 7.94069 17.6728 8.10694C17.3479 9.0232 17.2156 9.39659 17.2156 10.0841V62.2356C17.2156 63.7736 15.9688 65.0203 14.4308 65.0203C12.8928 65.0203 11.646 63.7736 11.646 62.2356V10.0841C11.646 8.34541 12.1697 6.90618 12.5688 5.80947C12.6542 5.57476 12.7339 5.35575 12.8016 5.15284C12.9383 4.7427 13.1686 4.37003 13.4743 4.06433C13.5204 4.01821 13.5677 3.97078 13.6162 3.92221C14.5145 3.02174 15.808 1.72506 17.236 1.01105C18.3928 0.432625 20.5517 -0.398444 22.9483 0.216794C24.0262 0.248934 25.0279 0.412321 25.9713 0.789651C26.9968 1.19985 27.7788 1.7932 28.4365 2.43181L54.15 23.1034C55.3487 24.0671 55.5392 25.82 54.5756 27.0187C53.6119 28.2173 51.859 28.4079 50.6603 27.4442L24.8378 6.68489C24.7594 6.6219 24.6845 6.55472 24.6134 6.48364C24.2823 6.15244 24.0826 6.03279 23.9028 5.96087C23.7006 5.88001 23.3196 5.78031 22.532 5.78031C22.2327 5.78031 21.9353 5.73205 21.6514 5.6374C21.4335 5.56479 21.1638 5.54539 20.815 5.60881Z" fill="#302280"/>
  <path fill-rule="evenodd" clip-rule="evenodd" d="M101.952 0.701818C102.114 0.760403 102.263 0.814513 102.399 0.859984C102.524 0.901654 102.646 0.952145 102.764 1.01108C104.192 1.72508 105.486 3.02173 106.384 3.9222C106.432 3.97078 106.48 4.01822 106.526 4.06435C106.832 4.37005 107.062 4.74273 107.199 5.15286C107.266 5.35577 107.346 5.57479 107.431 5.8095C107.83 6.9062 108.354 8.34544 108.354 10.0841V62.2356C108.354 63.7736 107.107 65.0204 105.569 65.0204C104.031 65.0204 102.785 63.7736 102.785 62.2356V10.0841C102.785 9.39662 102.652 9.02324 102.327 8.107C102.268 7.94075 102.203 7.75661 102.131 7.54949C101.358 6.78889 100.83 6.31484 100.407 6.06576C100.283 6.0231 100.164 5.98185 100.055 5.9438L100.046 5.94066C99.8691 5.87909 99.7205 5.82732 99.578 5.77983C99.2866 5.68271 99.0967 5.62956 98.9473 5.59967C98.7331 5.55683 98.5967 5.55476 98.3487 5.63742C98.0648 5.73208 97.7674 5.78033 97.4681 5.78033C96.8013 5.78033 96.3623 5.90567 95.0526 6.77161L68.8128 27.4607C67.6051 28.4129 65.8541 28.2058 64.9018 26.9981C63.9495 25.7903 64.1567 24.0393 65.3644 23.087L91.6933 2.32771C91.7514 2.28192 91.8113 2.23846 91.8728 2.19743C93.4268 1.16141 94.914 0.321863 97.0351 0.220931C99.1242 -0.322215 100.833 0.296762 101.952 0.701818Z" fill="#302280"/>
  <path fill-rule="evenodd" clip-rule="evenodd" d="M91.6885 73.8999C91.9577 72.3857 93.4035 71.3763 94.9177 71.6455L117.702 75.6961C119.217 75.9653 120.226 77.4111 119.957 78.9254C119.688 80.4396 118.242 81.4489 116.727 81.1797L93.9428 77.1291C92.4286 76.8599 91.4193 75.4142 91.6885 73.8999Z" fill="#302280"/>
  <path fill-rule="evenodd" clip-rule="evenodd" d="M87.9695 84.1312C88.7401 82.8002 90.4437 82.3459 91.7748 83.1165L111.015 94.2556C112.346 95.0262 112.8 96.7299 112.03 98.0609C111.259 99.3919 109.556 99.8463 108.225 99.0757L88.9842 87.9365C87.6532 87.1659 87.1989 85.4622 87.9695 84.1312Z" fill="#302280"/>
  <path fill-rule="evenodd" clip-rule="evenodd" d="M28.3117 73.8999C28.5809 75.4142 27.5716 76.8599 26.0573 77.1291L3.27269 81.1797C1.75844 81.4489 0.312661 80.4396 0.0434603 78.9254C-0.22574 77.4111 0.783574 75.9653 2.29783 75.6961L25.0825 71.6455C26.5967 71.3763 28.0425 72.3857 28.3117 73.8999Z" fill="#302280"/>
  <path fill-rule="evenodd" clip-rule="evenodd" d="M32.0304 84.1312C32.801 85.4622 32.3466 87.1659 31.0156 87.9365L11.7753 99.0757C10.4442 99.8463 8.74054 99.3919 7.96995 98.0609C7.19936 96.7299 7.65367 95.0262 8.9847 94.2556L28.2251 83.1165C29.5561 82.3459 31.2598 82.8002 32.0304 84.1312Z" fill="#302280"/>
</svg>