<svg xmlns="http://www.w3.org/2000/svg" width="200" height="200" viewBox="-40 -50 200 200" fill="none">
  <g clip-path="url(#clip0_8373_334)">
    <path fill-rule="evenodd" clip-rule="evenodd" d="M60.5089 16.2752H76.0341C76.1206 16.1072 76.2141 15.9292 76.3146 15.7421C77.0283 14.4137 78.1068 12.6078 79.5805 10.6715C82.3668 7.01051 86.6948 2.71602 92.7931 0.460105C93.234 0.169722 93.762 0.000745002 94.3295 0.000745002H94.5208C94.5638 -0.000250899 94.6066 -0.000245766 94.6494 0.000745002H117.216C118.761 0.000745002 120.013 1.2531 120.013 2.79795V25.6842C120.013 27.2291 118.761 28.4814 117.216 28.4814C116.549 28.4814 115.894 28.4572 115.251 28.4101L106.5 51.637L106.5 51.6372C106.187 52.4694 106.027 53.3463 106.027 54.2335V77.814C106.027 90.1684 93.8763 98.4116 80.3434 98.4116C79.5654 98.4116 78.8024 98.3687 78.0551 98.2877V100.37C78.0551 110.339 69.9739 118.419 60.006 118.419C50.038 118.419 41.9568 110.339 41.9568 100.37V98.2864C41.2058 98.3683 40.4388 98.4116 39.6567 98.4116C26.1238 98.4116 13.9733 90.1684 13.9733 77.814V54.1735C13.9733 53.32 13.8251 52.4754 13.5347 51.6718L4.75064 28.41C4.1072 28.4572 3.45177 28.4814 2.78451 28.4814C1.23966 28.4814 -0.0126953 27.2291 -0.0126953 25.6842V2.79795C-0.0126953 1.2531 1.23966 0.000745002 2.78451 0.000745002H25.6708C25.7571 0.000745002 25.8425 0.00465405 25.9268 0.0123048C26.2943 -0.0213246 26.6745 0.0176531 27.0476 0.13932C33.6353 2.28747 38.2594 6.82894 41.1844 10.6722C42.6581 12.6085 43.7367 14.4144 44.4504 15.7428C44.5509 15.93 44.6444 16.108 44.7309 16.2759H60.5089V16.2752ZM65.6218 93.076C67.5922 94.5687 69.8888 95.9445 72.4607 96.925V100.37C72.4607 107.249 66.8843 112.825 60.006 112.825C53.1276 112.825 47.5513 107.249 47.5513 100.37V96.9205C50.1183 95.9402 52.4109 94.5664 54.3783 93.076C55.3951 92.3057 56.3387 91.4942 57.203 90.6728L57.203 95.1989C57.203 96.7438 58.4554 97.9961 60.0003 97.9961C61.5451 97.9961 62.7975 96.7437 62.7974 95.1989L62.7974 90.6731C63.6617 91.4944 64.6051 92.3057 65.6218 93.076ZM10.3349 27.3619L18.7749 49.7127L18.7868 49.7447C19.3032 51.1643 19.5677 52.6611 19.5677 54.1735V77.814C19.5677 85.8029 27.7605 92.8172 39.6567 92.8172C43.947 92.8172 47.8172 91.028 51 88.6167C53.8473 86.4597 55.9916 83.9167 57.2028 82.0907V73.5254C54.2894 73.0243 52.3182 71.7299 51.0872 70.0886C50.3405 69.093 49.9657 68.0958 49.7769 67.3405C49.6821 66.9612 49.6318 66.634 49.605 66.3839C49.5915 66.2584 49.5839 66.1508 49.5795 66.0642L49.5775 66.0196C49.5765 65.9941 49.5757 65.9707 49.5752 65.9496L49.5744 65.9044L49.5742 65.8848L49.5742 65.8758L49.5742 65.8715C49.5742 65.8694 49.5742 65.8674 52.3714 65.8674H49.5742C49.5742 64.3225 50.8265 63.0702 52.3714 63.0702H67.6289C69.1737 63.0702 70.4261 64.3225 70.4261 65.8674H67.6289C70.4261 65.8674 70.4261 65.8694 70.4261 65.8715L70.4261 65.8758L70.426 65.8848L70.4259 65.9044L70.425 65.9496C70.4242 65.9825 70.4229 66.0208 70.4207 66.0642C70.4164 66.1508 70.4087 66.2584 70.3953 66.3839C70.3685 66.634 70.3182 66.9612 70.2234 67.3405C70.0345 68.0958 69.6598 69.093 68.9131 70.0886C67.6821 71.7299 65.7108 73.0243 62.7973 73.5255V82.0907C64.0085 83.9167 66.1528 86.4597 69.0001 88.6167C72.1829 91.028 76.0531 92.8172 80.3434 92.8172C92.2396 92.8172 100.432 85.8029 100.432 77.814V54.2335C100.432 52.6704 100.715 51.1255 101.265 49.6651L101.265 49.6648L109.668 27.3625C104.918 25.8895 101.039 23.0845 98.1201 19.6876C94.8854 15.9226 92.7814 11.3777 91.9435 6.99323C88.5733 8.86624 85.953 11.5358 84.0323 14.0596C82.7723 15.7151 81.8483 17.2626 81.2429 18.3897C81.0245 18.7962 80.7256 19.4779 80.5234 19.9392L80.5232 19.9395C80.4459 20.1159 80.3828 20.2599 80.3436 20.3441L61.0175 20.3441L60.5089 20.3441L40.6741 20.3441C40.6023 20.1896 40.3843 19.8333 40.1476 19.4464L40.1474 19.4462L40.1473 19.446L40.1473 19.4459L40.1469 19.4454L40.1468 19.4452C39.9174 19.0703 39.6706 18.6668 39.5221 18.3904C38.9166 17.2634 37.9927 15.7159 36.7327 14.0604C34.6815 11.3652 31.8325 8.50372 28.1245 6.6237C27.3363 11.1214 25.2059 15.8167 21.8802 19.6876C18.9621 23.084 15.0834 25.8887 10.3349 27.3619ZM5.58172 5.59516V22.7005C10.6964 22.0043 14.7315 19.4234 17.6368 16.0419C20.3535 12.8798 22.0268 9.07624 22.6248 5.59516H5.58172ZM97.3754 5.59516C97.9734 9.07624 99.6468 12.8798 102.363 16.0419C105.269 19.4234 109.304 22.0043 114.419 22.7005V5.59516H97.3754ZM81.8692 56.9621C84.3971 56.9621 86.4464 54.9128 86.4464 52.3848C86.4464 49.8569 84.3971 47.8076 81.8692 47.8076C79.3412 47.8076 77.2919 49.8569 77.2919 52.3848C77.2919 54.9128 79.3412 56.9621 81.8692 56.9621ZM42.7083 52.3848C42.7083 54.9128 40.659 56.9621 38.131 56.9621C35.6031 56.9621 33.5538 54.9128 33.5538 52.3848C33.5538 49.8569 35.6031 47.8076 38.131 47.8076C40.659 47.8076 42.7083 49.8569 42.7083 52.3848Z" fill="#302280"/>
  </g>
  <defs>
    <clipPath id="clip0_8373_334">
      <rect width="120" height="120" fill="white"/>
    </clipPath>
  </defs>
</svg>