<svg xmlns="http://www.w3.org/2000/svg" width="16" height="16" viewBox="0 0 16 16" fill="none">
  <path fill-rule="evenodd" clip-rule="evenodd" d="M8.00002 3.40461C5.06729 3.40461 2.56051 5.23642 1.56504 7.82099C1.52071 7.93608 1.52071 8.06392 1.56504 8.17901C2.56051 10.7636 5.06729 12.5954 8.00002 12.5954C10.9327 12.5954 13.4395 10.7636 14.435 8.17902C14.4793 8.06392 14.4793 7.93608 14.435 7.82099C13.4395 5.23642 10.9327 3.40461 8.00002 3.40461ZM0.135608 7.27043C1.3512 4.11435 4.41289 1.87282 8.00002 1.87282C11.5871 1.87282 14.6488 4.11435 15.8644 7.27043C16.0452 7.73987 16.0452 8.26013 15.8644 8.72958C14.6488 11.8857 11.5871 14.1272 8.00002 14.1272C4.41289 14.1272 1.3512 11.8857 0.135608 8.72957C-0.0452029 8.26013 -0.0452025 7.73987 0.135608 7.27043Z" fill="#C74D2F"/>
  <path fill-rule="evenodd" clip-rule="evenodd" d="M8.00011 6.46814C7.15413 6.46814 6.46832 7.15394 6.46832 7.99993C6.46832 8.84592 7.15413 9.53173 8.00011 9.53173C8.8461 9.53173 9.53191 8.84592 9.53191 7.99993C9.53191 7.15394 8.8461 6.46814 8.00011 6.46814ZM4.93652 7.99993C4.93652 6.30796 6.30814 4.93634 8.00011 4.93634C9.69209 4.93634 11.0637 6.30796 11.0637 7.99993C11.0637 9.69191 9.69209 11.0635 8.00011 11.0635C6.30814 11.0635 4.93652 9.69191 4.93652 7.99993Z" fill="#C74D2F"/>
</svg>