<svg xmlns="http://www.w3.org/2000/svg" width="200" height="43" viewBox="0 0 200 43" fill="none">
  <path d="M8.94328 22.7236C11.0119 20.6426 13.0359 18.5687 15.1065 16.5424C16.7036 14.9796 19.682 14.8693 21.5838 16.7879C24.8332 20.0659 28.1014 23.3253 31.3616 26.5925C31.668 26.8996 31.9811 27.2004 32.2792 27.5153C32.9135 28.1854 33.2229 28.9582 32.9954 29.8918C32.392 32.3673 31.8179 34.8505 31.1742 37.3154C30.8595 38.5206 29.9087 39.2317 28.6515 39.2604C26.9701 39.2988 25.2865 39.3005 23.6053 39.2607C22.1201 39.2255 21.2205 38.2412 21.1995 36.6891C21.1804 35.2819 21.2039 33.874 21.1931 32.4666C21.181 30.8945 20.4416 29.8235 19.0701 29.3559C17.2775 28.7449 15.2522 30.1018 15.1943 31.9926C15.1485 33.4857 15.1738 34.9809 15.1687 36.4752C15.1624 38.336 14.2357 39.2707 12.3889 39.2733C10.9495 39.2753 9.51002 39.2754 8.07056 39.2734C6.50934 39.2711 5.56725 38.5519 5.18775 37.0376C4.60637 34.7177 4.02566 32.3975 3.47993 30.0691C3.22423 28.9781 3.62131 28.057 4.39451 27.2824C5.9024 25.7718 7.41066 24.2615 8.94328 22.7236Z" fill="#3E0140"/>
  <path d="M119.069 29.9495C117.975 30.0536 116.927 30.1992 115.874 30.2317C114.353 30.2786 112.829 30.2437 111.273 30.2437C111.273 32.1207 111.273 33.9665 111.273 35.8848C112.172 35.8848 113.051 35.9063 113.929 35.8754C114.341 35.8609 114.475 35.9798 114.46 36.3991C114.43 37.284 114.441 38.1708 114.457 39.0565C114.462 39.3795 114.384 39.5175 114.024 39.5163C110.488 39.5043 106.952 39.509 103.372 39.509C103.372 38.279 103.372 37.0616 103.372 35.7914C104.353 35.7914 105.316 35.7914 106.333 35.7914C106.346 35.5589 106.365 35.375 106.365 35.1911C106.367 29.3024 106.36 23.4137 106.378 17.525C106.379 17.0185 106.242 16.862 105.742 16.8944C105.086 16.9368 104.424 16.8876 103.766 16.9111C103.375 16.9251 103.201 16.8207 103.215 16.3888C103.244 15.5213 103.235 14.6518 103.219 13.7836C103.212 13.4135 103.321 13.26 103.721 13.2611C107.899 13.2728 112.077 13.2517 116.255 13.2772C117.801 13.2866 119.337 13.4544 120.744 14.1824C123.037 15.3685 124.303 17.3143 124.764 19.8054C125.251 22.4413 124.847 24.9332 123.282 27.1458C122.26 28.5898 120.887 29.5857 119.069 29.9495ZM117.786 25.8231C118.636 25.4877 119.237 24.8782 119.597 24.0549C120.135 22.8228 120.219 21.5265 119.895 20.234C119.43 18.3821 118.387 17.4407 116.477 17.2826C114.91 17.1529 113.327 17.2166 111.752 17.1557C111.231 17.1356 111.12 17.3269 111.124 17.8119C111.145 20.4167 111.134 23.0218 111.134 25.6268C111.134 26.3706 111.134 26.3705 111.901 26.3704C112.335 26.3704 112.768 26.3632 113.201 26.3717C114.728 26.4017 116.241 26.3284 117.786 25.8231Z" fill="#3F0241"/>
  <path d="M48.252 39.3788C46.9697 39.3788 45.7395 39.3788 44.4137 39.3788C44.4137 39.1211 44.4137 38.8881 44.4137 38.6551C44.4136 37.8557 44.4392 37.0552 44.4038 36.2574C44.3831 35.7899 44.5031 35.6083 45.003 35.6341C45.8131 35.6759 46.627 35.6453 47.4928 35.6453C47.5044 35.418 47.522 35.2336 47.522 35.0493C47.5235 29.1584 47.5181 23.2676 47.5328 17.3768C47.534 16.9058 47.419 16.7312 46.9277 16.762C46.254 16.8043 45.5754 16.761 44.8994 16.7772C44.5594 16.7853 44.3948 16.7021 44.4056 16.3135C44.4306 15.4106 44.4285 14.5062 44.406 13.6031C44.3967 13.2285 44.5383 13.1268 44.8912 13.1275C49.0709 13.1359 53.2506 13.114 57.4301 13.1435C58.8864 13.1537 60.3429 13.3012 61.6846 13.9487C64.1835 15.1547 65.51 17.2156 65.9534 19.9069C66.4016 22.6272 65.8994 25.1422 64.2 27.3314C62.9375 28.9578 61.2225 29.8778 59.1553 29.9815C56.941 30.0926 54.7222 30.1112 52.454 30.1716C52.454 31.9754 52.454 33.8204 52.454 35.7518C53.275 35.7518 54.0997 35.752 54.9243 35.7517C55.6152 35.7515 55.6159 35.7513 55.6165 36.425C55.6172 37.2243 55.5977 38.0243 55.6243 38.8228C55.6384 39.2478 55.5104 39.3929 55.0677 39.3887C52.8133 39.3676 50.5586 39.3789 48.252 39.3788ZM58.3105 25.8643C59.3465 25.6131 60.1492 25.0335 60.6009 24.066C61.2756 22.6205 61.337 21.1121 60.8235 19.6067C60.32 18.1304 59.2389 17.2791 57.7034 17.1733C56.0132 17.0567 54.3133 17.087 52.618 17.0393C52.2346 17.0285 52.2125 17.2363 52.2131 17.5326C52.2195 20.3101 52.2164 23.0876 52.2192 25.8651C52.2193 25.9796 52.25 26.0941 52.2713 26.2425C54.2822 26.2122 56.2739 26.3819 58.3105 25.8643Z" fill="#736AAB"/>
  <path d="M154.543 27.3193C154.549 29.7503 154.553 32.1297 154.557 34.5091C154.557 34.6827 154.551 34.8571 154.565 35.0298C154.615 35.6566 154.819 35.8567 155.446 35.8704C155.965 35.8817 156.484 35.8727 157.045 35.8727C157.045 37.043 157.045 38.1946 157.045 39.4173C156.669 39.4173 156.278 39.4176 155.888 39.4172C154.778 39.4162 153.669 39.43 152.56 39.4102C150.789 39.3788 149.987 38.3667 150.312 36.6075C150.328 36.5176 150.328 36.4246 150.337 36.3209C149.842 36.9068 149.411 37.5122 148.886 38.0209C147.312 39.5486 145.38 39.9427 143.265 39.6899C141.498 39.4787 139.989 38.7909 138.982 37.2629C137.648 35.2391 137.569 31.9273 140.078 30.0195C141.649 28.8259 143.469 28.3005 145.367 28.0454C146.856 27.8453 148.365 27.7952 149.884 27.677C150.33 25.475 148.701 23.7523 146.295 23.89C144.564 23.9889 143.036 24.6235 141.573 25.4811C141.458 25.5486 141.349 25.6282 141.185 25.7375C140.592 24.6397 140.019 23.5788 139.432 22.4934C140.858 21.4064 142.451 20.7571 144.156 20.3978C146.256 19.9554 148.355 19.9475 150.403 20.695C152.77 21.5593 154.005 23.3422 154.408 25.7659C154.49 26.2601 154.498 26.7668 154.543 27.3193ZM147.815 35.666C149.398 34.4198 150.084 32.7783 150.034 30.7905C149.201 30.7905 148.438 30.7437 147.684 30.8011C146.47 30.8934 145.284 31.1436 144.218 31.7751C143.192 32.383 142.764 33.3779 143.029 34.4676C143.292 35.5489 144.259 36.314 145.405 36.3823C146.273 36.434 147.04 36.1752 147.815 35.666Z" fill="#3E0240"/>
  <path d="M182.476 36.8471C180.316 34.5017 179.543 31.7519 179.9 28.6554C180.163 26.3746 181.028 24.3578 182.707 22.7674C184.947 20.6468 187.66 19.9811 190.671 20.3021C194.779 20.74 197.259 24.0068 197.615 27.8065C197.685 28.5482 197.709 29.2957 197.72 30.041C197.729 30.7273 197.696 30.7416 197.028 30.7416C193.092 30.7419 189.156 30.7417 185.219 30.7418C185.033 30.7418 184.846 30.7418 184.659 30.7418C184.705 33.3389 186.693 35.4971 189.222 35.8867C191.566 36.2477 193.543 35.4414 195.416 34.1763C195.501 34.1189 195.587 34.0629 195.725 33.9715C196.31 35.0668 196.886 36.1434 197.49 37.2732C197.036 37.5763 196.642 37.8907 196.204 38.1233C192.709 39.9811 189.11 40.5112 185.368 38.9009C184.274 38.43 183.32 37.7443 182.476 36.8471ZM185.058 26.8088C184.961 27.1695 184.864 27.5301 184.76 27.9179C187.525 27.9179 190.211 27.9179 192.946 27.9179C192.887 27.5194 192.858 27.1734 192.783 26.8376C192.2 24.2187 190.066 23.2745 187.67 24.1144C186.391 24.5624 185.595 25.5096 185.058 26.8088Z" fill="#3F0241"/>
  <path d="M76.3593 35.6983C79.1114 36.4614 81.4356 35.5588 83.6435 33.9487C84.206 35.0039 84.7574 36.023 85.2844 37.0546C85.328 37.1399 85.2458 37.3614 85.1546 37.4314C84.8123 37.6943 84.4594 37.9537 84.0792 38.1552C81.6182 39.4594 79.0326 40.0808 76.2203 39.7534C72.0976 39.2734 68.6465 36.0841 67.9372 31.9802C67.3788 28.7492 67.9531 25.7917 70.1324 23.2629C71.6128 21.5451 73.5488 20.65 75.7674 20.3326C77.6042 20.0699 79.4076 20.1851 81.0997 20.9991C83.4552 22.1323 84.8156 24.0863 85.3296 26.5974C85.5672 27.7579 85.5421 28.972 85.6428 30.1612C85.6812 30.6146 85.4927 30.7552 85.0393 30.7535C81.0872 30.7381 77.135 30.7447 73.1829 30.7447C72.9802 30.7447 72.7776 30.7447 72.573 30.7447C72.6582 33.0699 74.1631 35.0272 76.3593 35.6983ZM75.3903 27.9644C77.1991 27.9644 79.0079 27.9644 80.8596 27.9644C80.8164 27.5946 80.7922 27.3206 80.7513 27.0491C80.5124 25.4648 79.461 24.1583 78.1043 23.915C76.3804 23.6058 74.8686 24.0622 73.7449 25.4666C73.1829 26.1688 72.8147 26.9786 72.7367 27.9644C73.6317 27.9644 74.459 27.9644 75.3903 27.9644Z" fill="#736AAB"/>
  <path d="M163.937 29.0565C163.834 30.6019 163.981 32.0545 164.792 33.3676C165.848 35.0784 167.447 35.8505 169.395 35.9463C171.531 36.0514 173.386 35.2451 175.112 34.0686C175.281 33.9531 175.454 33.8433 175.682 33.6935C175.984 34.2732 176.269 34.8191 176.551 35.3662C176.655 35.5663 176.752 35.7695 176.854 35.9704C177.383 37.0124 177.413 37.0578 176.449 37.6901C172.425 40.3303 168.227 40.8162 163.954 38.3856C160.972 36.6895 159.497 33.9835 159.299 30.5591C159.171 28.3516 159.666 26.3081 160.909 24.4859C162.577 22.0412 164.93 20.6953 167.851 20.3086C170.083 20.0131 172.237 20.2907 174.313 21.1556C175.19 21.5209 175.983 22.0278 176.509 22.8373C176.758 23.2204 177.001 23.6781 177.034 24.1179C177.11 25.1489 177.058 26.1894 177.058 27.2527C175.723 27.2527 174.395 27.2527 172.998 27.2527C172.998 27.0271 172.979 26.8054 173.001 26.5876C173.103 25.5561 172.641 24.9053 171.69 24.5477C169.55 23.7433 166.036 23.9854 164.581 26.9337C164.265 27.5744 164.151 28.3156 163.937 29.0565Z" fill="#3F0241"/>
  <path d="M94.9219 16.3783C94.9219 17.7811 94.9219 19.133 94.9219 20.5423C95.1165 20.5546 95.2805 20.5736 95.4446 20.574C96.5364 20.5767 97.6284 20.5842 98.7201 20.5704C99.0793 20.5659 99.2048 20.6945 99.1977 21.0589C99.1778 22.0773 99.1908 23.0963 99.1908 24.1724C97.9854 24.1724 96.8464 24.1723 95.7075 24.1725C94.9217 24.1726 94.9218 24.1728 94.9219 24.9538C94.9221 27.3328 94.9037 29.7121 94.9359 32.0907C94.9437 32.6688 95.0293 33.2782 95.2324 33.8151C95.7762 35.2525 97.0113 35.6489 98.3995 35.7358C98.7595 35.7583 99.122 35.7392 99.5639 35.7392C99.5639 36.4916 99.5639 37.1974 99.5639 37.9033C99.5639 38.2853 99.5435 38.6687 99.5694 39.049C99.5959 39.4376 99.4094 39.5889 99.0579 39.6027C97.5263 39.663 96.0095 39.5599 94.5478 39.0675C92.0354 38.2212 90.4365 36.1649 90.3522 33.5027C90.2604 30.6058 90.2742 27.7052 90.2716 24.8062C90.2712 24.317 90.1576 24.1321 89.6442 24.1616C88.9049 24.2041 88.1613 24.1725 87.3379 24.1725C87.3379 23.3701 87.3379 22.6122 87.3379 21.8544C87.3379 20.5752 87.3379 20.5752 88.6287 20.5752C89.1793 20.5752 89.7299 20.5752 90.3567 20.5752C90.3567 20.1846 90.3567 19.8437 90.3567 19.5028C90.3566 18.3219 90.3709 17.1408 90.3482 15.9604C90.3408 15.5788 90.4392 15.4442 90.8386 15.454C91.9125 15.4803 92.9874 15.4598 94.0619 15.4641C95.0098 15.4678 94.9157 15.343 94.9219 16.3783Z" fill="#746BAB"/>
  <path d="M133.213 28.6725C133.214 30.2884 133.212 31.8522 133.219 33.4159C133.22 33.7103 133.241 34.0065 133.28 34.2983C133.408 35.267 133.921 35.731 134.902 35.7847C135.992 35.8444 135.992 35.8444 135.992 36.9513C135.992 37.6811 136.006 38.4114 135.979 39.1402C135.974 39.2779 135.812 39.5215 135.712 39.5274C133.98 39.6294 132.24 39.7449 130.688 38.7125C129.47 37.9018 128.93 36.6837 128.727 35.3044C128.602 34.4493 128.562 33.5752 128.56 32.7094C128.546 27.4795 128.554 22.2496 128.555 17.0196C128.555 16.9523 128.555 16.885 128.555 16.7433C127.578 16.7433 126.618 16.7433 125.613 16.7433C125.613 15.614 125.602 14.558 125.629 13.5029C125.632 13.391 125.855 13.1907 125.978 13.1897C128.266 13.171 130.555 13.1703 132.844 13.1927C132.968 13.1939 133.129 13.4108 133.2 13.5617C133.259 13.6904 133.213 13.8687 133.213 14.0251C133.213 18.8902 133.213 23.7553 133.213 28.6725Z" fill="#3F0341"/>
  <path d="M21.7025 14.0182C19.2135 11.7213 18.262 7.56312 19.5754 4.72127C20.1426 3.49396 21.0035 2.57246 22.429 2.42431C23.8375 2.27791 24.9853 2.90591 25.8796 3.90802C27.9908 6.27387 28.7074 9.03781 27.8704 12.1188C27.4804 13.5541 26.6555 14.6955 25.0834 15.0496C23.7842 15.3422 22.7126 14.8313 21.7025 14.0182Z" fill="#3E0140"/>
  <path d="M8.60036 7.68436C9.01433 5.99767 9.79723 4.57715 11.1008 3.47718C13.3107 1.61247 15.8162 2.20422 16.9654 4.85211C18.2387 7.78604 17.1376 12.1687 14.6315 14.1417C12.3285 15.9548 9.75667 15.2184 8.73993 12.4403C8.17287 10.8909 8.21615 9.31111 8.60036 7.68436Z" fill="#3E0140"/>
  <path d="M7.5269 21.6146C6.28539 23.1846 4.6257 23.3375 3.18643 22.0069C2.036 20.9433 1.49736 19.5623 1.36493 18.0348C1.26713 16.9068 1.34384 15.7785 1.84512 14.7258C1.93438 14.5383 2.02043 14.3482 2.12501 14.1693C3.28223 12.1901 5.35224 11.9689 6.91156 13.6553C8.80599 15.7042 9.09189 19.2552 7.5269 21.6146Z" fill="#3E0140"/>
  <path d="M32.3014 12.5319C33.3544 12.759 34.0534 13.3946 34.469 14.2962C35.6609 16.882 35.4506 19.3682 33.6952 21.6262C32.1775 23.5785 29.6888 23.261 28.6749 21.0083C27.5612 18.5338 27.7856 16.1448 29.3622 13.9281C30.0554 12.9536 31.0156 12.4194 32.3014 12.5319Z" fill="#3E0240"/>
</svg>