<svg width="276" height="276" viewBox="0 0 276 276" fill="none" xmlns="http://www.w3.org/2000/svg">
<path d="M0 138C0 61.7847 61.7847 0 138 0C214.215 0 276 61.7847 276 138C276 214.215 214.215 276 138 276C61.7847 276 0 214.215 0 138Z" fill="#EBE8FC"/>
<path fill-rule="evenodd" clip-rule="evenodd" d="M136.328 98.7046C103.943 98.7046 79.3313 119.946 79.3313 144.909C79.3313 150.449 80.567 156.075 82.4677 161.144C83.1871 163.062 82.2151 165.201 80.2967 165.92C78.3782 166.64 76.2398 165.668 75.5204 163.749C73.374 158.025 71.9116 151.511 71.9116 144.909C71.9116 114.562 101.262 91.2849 136.328 91.2849C138.377 91.2849 140.038 92.9459 140.038 94.9948C140.038 97.0436 138.377 98.7046 136.328 98.7046Z" fill="#302280"/>
<path fill-rule="evenodd" clip-rule="evenodd" d="M102.924 194.735C104.09 193.051 106.401 192.63 108.086 193.797C116.231 199.435 126.286 202.58 136.328 202.58C146.37 202.58 156.424 199.435 164.569 193.797C166.254 192.63 168.565 193.051 169.731 194.735C170.897 196.42 170.477 198.731 168.793 199.897C159.4 206.4 147.87 210 136.328 210C124.785 210 113.255 206.4 103.863 199.897C102.178 198.731 101.758 196.42 102.924 194.735Z" fill="#302280"/>
<path fill-rule="evenodd" clip-rule="evenodd" d="M132.618 94.9948C132.618 92.9459 134.279 91.2849 136.328 91.2849C171.394 91.2849 200.744 114.562 200.744 144.909C200.744 151.511 199.282 158.025 197.136 163.749C196.416 165.668 194.278 166.64 192.359 165.92C190.441 165.201 189.469 163.062 190.188 161.144C192.089 156.075 193.325 150.449 193.325 144.909C193.325 119.946 168.713 98.7046 136.328 98.7046C134.279 98.7046 132.618 97.0436 132.618 94.9948Z" fill="#302280"/>
<path fill-rule="evenodd" clip-rule="evenodd" d="M125.265 162.992C125.884 165.336 127.35 167.601 129.111 168.922C129.251 169.027 129.384 169.142 129.508 169.267C131.533 171.291 133.97 172.227 136.328 172.227C138.686 172.227 141.123 171.291 143.148 169.267C143.272 169.142 143.405 169.027 143.545 168.922C145.306 167.601 146.772 165.336 147.391 162.992C147.239 162.703 146.743 162.021 145.124 161.212C143.031 160.165 139.909 159.411 136.328 159.411C132.747 159.411 129.625 160.165 127.532 161.212C125.913 162.021 125.417 162.703 125.265 162.992ZM124.214 154.575C127.517 152.924 131.815 151.992 136.328 151.992C140.841 151.992 145.139 152.924 148.442 154.575C151.493 156.101 154.877 158.907 154.877 163.121C154.877 163.365 154.853 163.609 154.805 163.849C153.983 167.958 151.584 172.072 148.21 174.695C144.866 177.948 140.636 179.647 136.328 179.647C132.02 179.647 127.79 177.948 124.446 174.695C121.072 172.072 118.673 167.958 117.851 163.849C117.803 163.609 117.779 163.365 117.779 163.121C117.779 158.907 121.163 156.101 124.214 154.575Z" fill="#302280"/>
<path fill-rule="evenodd" clip-rule="evenodd" d="M136.328 172.227C137.733 172.227 139.018 173.021 139.646 174.278C140.836 176.657 142.394 178.532 144.058 179.364C146.789 180.73 149.074 181.853 151.895 182.417C153.904 182.819 155.207 184.773 154.805 186.782C154.403 188.791 152.449 190.094 150.44 189.692C146.578 188.92 143.503 187.382 140.866 186.063C140.824 186.042 140.782 186.021 140.74 186C138.952 185.107 137.45 183.834 136.205 182.418C135.076 183.592 133.823 184.645 132.483 185.65C129.46 187.918 125.986 189.764 121.489 189.764C119.44 189.764 117.779 188.104 117.779 186.055C117.779 184.006 119.44 182.345 121.489 182.345C123.737 182.345 125.659 181.494 128.031 179.714C130.493 177.868 132.02 176.258 133.01 174.278C133.638 173.021 134.923 172.227 136.328 172.227Z" fill="#302280"/>
<path d="M163.983 140.862C162.634 140.862 161.285 139.513 161.285 138.164C161.285 136.815 162.634 135.466 163.983 135.466" stroke="#302280" stroke-width="5.5"/>
<path d="M163.983 140.862C165.332 140.862 166.681 139.513 166.681 138.164C166.681 136.815 165.332 135.466 163.983 135.466" stroke="#302280" stroke-width="5.5"/>
<path d="M108.673 140.862C107.324 140.862 105.975 139.513 105.975 138.164C105.975 136.815 107.324 135.466 108.673 135.466" stroke="#302280" stroke-width="5.5"/>
<path d="M108.672 140.862C110.021 140.862 111.37 139.513 111.37 138.164C111.37 136.815 110.021 135.466 108.672 135.466" stroke="#302280" stroke-width="5.5"/>
<path fill-rule="evenodd" clip-rule="evenodd" d="M136.328 91.2849C138.377 91.2849 140.038 92.9459 140.038 94.9948V120.626C140.038 122.675 138.377 124.336 136.328 124.336C134.279 124.336 132.618 122.675 132.618 120.626V94.9948C132.618 92.9459 134.279 91.2849 136.328 91.2849Z" fill="#302280"/>
<path fill-rule="evenodd" clip-rule="evenodd" d="M116.093 93.983C118.142 93.983 119.803 95.644 119.803 97.6929V115.23C119.803 117.279 118.142 118.94 116.093 118.94C114.044 118.94 112.383 117.279 112.383 115.23V97.6929C112.383 95.644 114.044 93.983 116.093 93.983Z" fill="#302280"/>
<path fill-rule="evenodd" clip-rule="evenodd" d="M156.563 93.983C158.612 93.983 160.273 95.644 160.273 97.6929V115.23C160.273 117.279 158.612 118.94 156.563 118.94C154.514 118.94 152.854 117.279 152.854 115.23V97.6929C152.854 95.644 154.514 93.983 156.563 93.983Z" fill="#302280"/>
<path fill-rule="evenodd" clip-rule="evenodd" d="M84.1264 69.472C83.6483 69.5589 83.1473 69.748 82.6767 69.9833C82.083 70.2801 81.3432 70.9342 80.2017 72.0573C80.1059 72.3332 80.0189 72.5784 79.9404 72.7999C79.5077 74.0206 79.3313 74.518 79.3313 75.4338V144.909C79.3313 146.958 77.6704 148.619 75.6215 148.619C73.5726 148.619 71.9116 146.958 71.9116 144.909V75.4338C71.9116 73.1176 72.6093 71.2003 73.141 69.7393C73.2548 69.4266 73.3609 69.1348 73.451 68.8645C73.6332 68.3181 73.94 67.8217 74.3472 67.4144C74.4087 67.353 74.4717 67.2898 74.5363 67.2251C75.7329 66.0255 77.4561 64.2981 79.3585 63.3469C80.8997 62.5763 83.7757 61.4692 86.9683 62.2888C88.4043 62.3316 89.7388 62.5493 90.9955 63.052C92.3616 63.5984 93.4034 64.3889 94.2797 65.2396L128.535 92.778C130.132 94.0617 130.385 96.3969 129.102 97.9938C127.818 99.5906 125.483 99.8445 123.886 98.5607L89.4855 70.9055C89.3811 70.8216 89.2813 70.7321 89.1866 70.6374C88.7454 70.1962 88.4794 70.0368 88.2399 69.941C87.9706 69.8332 87.463 69.7004 86.4137 69.7004C86.015 69.7004 85.6189 69.6361 85.2406 69.51C84.9504 69.4133 84.591 69.3875 84.1264 69.472Z" fill="#302280"/>
<path fill-rule="evenodd" clip-rule="evenodd" d="M192.215 62.9349C192.431 63.013 192.63 63.085 192.811 63.1456C192.978 63.2011 193.14 63.2684 193.297 63.3469C195.2 64.2981 196.923 66.0255 198.12 67.225C198.184 67.2898 198.247 67.353 198.309 67.4144C198.716 67.8217 199.023 68.3181 199.205 68.8645C199.295 69.1348 199.401 69.4266 199.515 69.7393C200.046 71.2003 200.744 73.1176 200.744 75.4338V144.909C200.744 146.958 199.083 148.619 197.034 148.619C194.985 148.619 193.325 146.958 193.325 144.909V75.4338C193.325 74.518 193.148 74.0206 192.715 72.8C192.637 72.5785 192.55 72.3332 192.454 72.0573C191.424 71.044 190.721 70.4125 190.158 70.0807C189.991 70.0238 189.834 69.9689 189.688 69.9182L189.676 69.914C189.441 69.832 189.243 69.763 189.053 69.6998C188.665 69.5704 188.412 69.4996 188.213 69.4597C187.927 69.4027 187.746 69.3999 187.415 69.51C187.037 69.6361 186.641 69.7004 186.242 69.7004C185.354 69.7004 184.769 69.8674 183.024 71.021L148.068 98.5826C146.459 99.8512 144.126 99.5752 142.858 97.9663C141.589 96.3574 141.865 94.0247 143.474 92.7561L178.549 65.1009C178.626 65.0399 178.706 64.982 178.788 64.9273C180.858 63.5472 182.84 62.4287 185.665 62.2943C188.448 61.5707 190.725 62.3953 192.215 62.9349Z" fill="#302280"/>
<path fill-rule="evenodd" clip-rule="evenodd" d="M178.543 160.448C178.901 158.431 180.827 157.086 182.845 157.445L213.198 162.841C215.215 163.2 216.56 165.126 216.201 167.143C215.843 169.16 213.917 170.505 211.899 170.146L181.546 164.75C179.529 164.391 178.184 162.465 178.543 160.448Z" fill="#302280"/>
<path fill-rule="evenodd" clip-rule="evenodd" d="M173.588 174.078C174.615 172.305 176.884 171.7 178.658 172.726L204.289 187.566C206.062 188.592 206.668 190.862 205.641 192.635C204.615 194.408 202.345 195.013 200.572 193.987L174.94 179.147C173.167 178.121 172.562 175.851 173.588 174.078Z" fill="#302280"/>
<path fill-rule="evenodd" clip-rule="evenodd" d="M94.1133 160.448C94.4719 162.465 93.1273 164.391 91.1101 164.75L60.7568 170.146C58.7395 170.505 56.8135 169.16 56.4549 167.143C56.0962 165.126 57.4408 163.2 59.4581 162.841L89.8114 157.445C91.8286 157.086 93.7547 158.431 94.1133 160.448Z" fill="#302280"/>
<path fill-rule="evenodd" clip-rule="evenodd" d="M99.0674 174.078C100.094 175.851 99.4887 178.121 97.7155 179.147L72.0839 193.987C70.3107 195.013 68.0411 194.408 67.0145 192.635C65.9879 190.862 66.5932 188.592 68.3663 187.566L93.998 172.726C95.7712 171.7 98.0408 172.305 99.0674 174.078Z" fill="#302280"/>
</svg>
