<svg width="236" height="45" viewBox="0 0 45 45" fill="none" xmlns="http://www.w3.org/2000/svg">
  <path d="M28.6027 15.1686C25.7727 15.8765 22.5384 13.045 21.5277 8.89895C20.517 4.75288 21.932 0.809057 24.8631 0.101192C27.693 -0.606673 30.9273 2.22479 31.938 6.37086C32.9487 10.5169 31.5337 14.4607 28.6027 15.1686Z" fill="#ff7d5a"/>
  <path d="M35.677 24.5731C33.3524 24.3708 31.7353 21.3371 32.0385 17.8989C32.4428 14.4607 34.5652 11.9326 36.9909 12.1349C39.3156 12.3371 40.9327 15.3708 40.6295 18.809C40.2252 22.2472 38.0016 24.7753 35.677 24.5731Z" fill="#ff7d5a"/>
  <path d="M16.2719 17.191C17.3837 16.0786 18.7987 15.573 20.2137 15.573H20.3148C21.7297 15.573 23.2458 16.1797 24.2565 17.191L37.1936 30.1348C38.0021 30.9438 38.3053 32.0561 38.0021 33.0674L35.8796 41.764C35.5764 43.1797 34.2625 44.191 32.8475 44.191H26.6822C25.0651 44.191 23.8522 42.8764 23.8522 41.3595V35.7977C23.8522 33.7752 22.2351 32.1573 20.2137 32.1573C18.1923 32.1573 16.5751 33.7752 16.5751 35.7977V41.3595C16.5751 42.9775 15.2612 44.191 13.7452 44.191H7.68092C6.26593 44.191 4.95202 43.1797 4.6488 41.764L2.52632 33.0674C2.32418 32.0561 2.62739 30.9438 3.33489 30.1348L16.2719 17.191Z" fill="#ff7d5a"/>
  <path d="M12.0271 15.1686C9.09606 14.4607 7.68108 10.5169 8.69178 6.37086C9.70249 2.22479 12.9367 -0.606673 15.7667 0.101192C18.5967 0.809057 20.1128 4.75288 19.1021 8.89895C17.9903 13.045 14.8571 15.8765 12.0271 15.1686Z" fill="#ff7d5a"/>
  <path d="M3.63796 12.1349C5.96259 11.9326 8.18614 14.4607 8.59042 17.8989C8.99471 21.3371 7.37758 24.2697 4.95188 24.5731C2.62725 24.7753 0.4037 22.2472 -0.000582404 18.809C-0.303794 15.3708 1.31334 12.4382 3.63796 12.1349Z" fill="#ff7d5a"/>
</svg>
